<svg xmlns="http://www.w3.org/2000/svg" width="32" height="32" viewBox="0 0 32 32" fill="none">
  <path d="M29.8842 6.5916C29.672 6.22729 29.3498 5.94541 28.9654 5.79277L16.425 0.0594011C16.1516 -0.0198004 15.8484 -0.0198004 15.575 0.0594011L3.03455 5.79277C2.65009 5.94541 2.32799 6.22729 2.11575 6.5916C1.90351 6.95592 1.81515 7.38076 1.86635 7.79902L3.96557 26.0916C4.03401 26.6338 4.33945 27.1207 4.80508 27.4289L15.5435 31.9572C15.8281 32.0143 16.1719 32.0143 16.4565 31.9572L27.1949 27.4289C27.6605 27.1207 27.966 26.6338 28.0344 26.0916L30.1336 7.79902C30.1848 7.38076 30.0965 6.95592 29.8842 6.5916Z" fill="#3B82F6"/>
  <path d="M25.5 12.268L14.5 18.5V8.5L25.5 12.268Z" fill="white"/>
</svg>