<svg width="32" height="32" viewBox="0 0 32 32" fill="none" xmlns="http://www.w3.org/2000/svg">
<g clip-path="url(#clip0_1_6310)">
<path d="M16.0005 32C24.837 32 32.0005 24.8366 32.0005 16C32.0005 7.16344 24.837 0 16.0005 0C7.16393 0 0.000488281 7.16344 0.000488281 16C0.000488281 24.8366 7.16393 32 16.0005 32Z" fill="#0D1E30"/>
<g filter="url(#filter0_d_1_6310)">
<path d="M15.7255 6.06001C16.2045 5.81301 16.7895 6.38401 16.5355 6.85501C16.3865 7.23901 15.8255 7.34101 15.5395 7.04801C15.2365 6.76801 15.3355 6.21201 15.7255 6.05901V6.06001ZM10.5705 6.60601C10.8615 6.48801 11.2305 6.75001 11.2005 7.06301C11.2305 7.40101 10.8105 7.65101 10.5135 7.49001C10.1205 7.34001 10.1655 6.71201 10.5705 6.60601ZM21.1285 7.49901C20.6735 7.44501 20.6015 6.74101 21.0385 6.59901C21.3785 6.43701 21.6905 6.74201 21.7405 7.05901C21.6685 7.32901 21.4385 7.57701 21.1285 7.49901ZM11.7435 8.76401C12.2305 8.46101 12.9245 8.91201 12.8495 9.46901C12.8245 10.03 12.0665 10.356 11.6385 9.97601C11.2245 9.67801 11.2875 8.99401 11.7435 8.76401ZM19.1735 9.08601C19.3905 8.53601 20.2705 8.51801 20.5175 9.05401C20.7625 9.47101 20.4615 9.98801 20.0265 10.13C19.4495 10.236 18.9025 9.62201 19.1735 9.08601ZM15.1045 10.099C15.0995 9.62501 15.5375 9.27301 15.9945 9.24001C16.2985 9.30001 16.6285 9.42701 16.7585 9.72801C17.0015 10.144 16.7855 10.715 16.3485 10.906C16.1485 11.016 15.9105 10.975 15.6925 10.962C15.3595 10.802 15.0785 10.485 15.1045 10.099ZM7.4385 10.789C7.8835 10.519 8.4835 11.009 8.3145 11.485C8.2225 11.896 7.6605 12.063 7.3395 11.801C6.9965 11.555 7.0505 10.964 7.4395 10.788L7.4385 10.789ZM23.9005 10.787C24.2775 10.499 24.9005 10.83 24.8545 11.298C24.8805 11.725 24.3415 12.048 23.9675 11.828C23.5555 11.645 23.5125 11.021 23.9005 10.788V10.787ZM17.2605 11.638C17.8825 11.418 18.6225 11.681 18.9765 12.228C19.4445 12.895 19.1965 13.911 18.4695 14.294C17.7175 14.747 16.6185 14.364 16.3395 13.536C16.0245 12.796 16.4845 11.87 17.2595 11.638H17.2605ZM13.6075 11.711C14.2975 11.391 15.2265 11.659 15.5595 12.353C15.9515 13.029 15.6485 13.97 14.9475 14.319C14.2455 14.712 13.2545 14.414 12.9155 13.689C12.5345 12.987 12.8725 12.034 13.6075 11.711ZM9.9505 12.94C10.0035 12.503 10.4225 12.218 10.8455 12.188C11.0661 12.2113 11.2723 12.3088 11.4303 12.4644C11.5883 12.6201 11.6889 12.8248 11.7155 13.045C11.6855 13.495 11.3325 13.933 10.8485 13.931C10.3155 13.976 9.8485 13.454 9.9505 12.94ZM20.7525 12.284C21.2995 11.971 22.0585 12.426 22.0345 13.044C22.0715 13.699 21.2315 14.16 20.6875 13.776C20.1215 13.456 20.1655 12.556 20.7525 12.284ZM12.1225 14.591C12.7605 14.418 13.4925 14.714 13.8055 15.292C14.1485 15.874 14.0085 16.682 13.4755 17.11C12.7905 17.736 11.5295 17.484 11.1655 16.63C10.7465 15.847 11.2555 14.797 12.1215 14.59L12.1225 14.591ZM19.0495 14.588C19.6705 14.413 20.4005 14.648 20.7345 15.205C21.1765 15.842 20.9655 16.793 20.3085 17.203C19.6185 17.68 18.5525 17.43 18.1725 16.684C17.7125 15.913 18.1755 14.823 19.0495 14.588ZM8.0095 15.314C8.5615 15.109 9.1735 15.708 8.9495 16.247C8.8135 16.737 8.1105 16.919 7.7475 16.557C7.3225 16.217 7.4795 15.462 8.0095 15.314ZM22.9785 16.096C22.9681 15.8759 23.0451 15.6606 23.1927 15.4969C23.3402 15.3332 23.5465 15.2344 23.7665 15.222C24.1445 15.282 24.5125 15.582 24.4825 15.987C24.5175 16.522 23.8625 16.885 23.3985 16.634C23.1815 16.525 23.0705 16.306 22.9785 16.096ZM5.2945 15.58C5.6265 15.437 6.0375 15.72 5.9615 16.083C5.9435 16.494 5.3265 16.653 5.1005 16.309C4.9005 16.07 5.0205 15.703 5.2945 15.579V15.58ZM26.2435 15.571C26.4775 15.408 26.8535 15.525 26.9455 15.794C27.1025 16.088 26.8145 16.49 26.4785 16.441C26.0065 16.483 25.8545 15.776 26.2435 15.571ZM13.9265 17.544C14.8005 17.321 15.7405 18.038 15.7465 18.924C15.8025 19.819 14.8765 20.612 13.9825 20.406C13.2905 20.296 12.7475 19.64 12.7705 18.953C12.7685 18.295 13.2725 17.683 13.9265 17.544ZM17.3885 17.543C18.2755 17.299 19.2435 18.029 19.2295 18.935C19.2765 19.813 18.3795 20.58 17.5035 20.405C16.6785 20.301 16.0705 19.41 16.3005 18.622C16.4165 18.098 16.8625 17.672 17.3885 17.542V17.543ZM10.7125 18.088C11.3265 17.985 11.9025 18.658 11.6535 19.232C11.4715 19.844 10.5675 20.009 10.1675 19.51C9.6995 19.03 10.0495 18.154 10.7125 18.088ZM20.8665 18.115C21.4145 17.889 22.0865 18.355 22.0445 18.94C22.0665 19.583 21.2365 20.027 20.7015 19.651C20.0945 19.314 20.2055 18.321 20.8665 18.115ZM23.7045 20.915C23.4905 20.522 23.8795 20.001 24.3245 20.074C24.5445 20.07 24.6995 20.241 24.8405 20.385C24.8695 20.618 24.9185 20.896 24.7215 21.075C24.4545 21.408 23.8495 21.313 23.7045 20.915ZM7.4365 20.183C7.8515 19.912 8.4485 20.317 8.3545 20.793C8.3045 21.216 7.7645 21.457 7.4095 21.217C7.0275 21 7.0415 20.381 7.4365 20.183ZM15.6295 21.066C16.1725 20.831 16.8645 21.296 16.8125 21.884C16.8525 22.534 15.9975 22.984 15.4665 22.594C14.8765 22.259 14.9755 21.273 15.6295 21.066ZM11.8355 21.937C12.2975 21.698 12.9175 22.111 12.8755 22.621C12.8895 23.039 12.4755 23.395 12.0555 23.333C11.7085 23.326 11.4825 23.019 11.3705 22.728C11.3765 22.411 11.5095 22.058 11.8355 21.938V21.937ZM19.5215 21.945C19.9975 21.655 20.6735 22.071 20.6285 22.615C20.6405 23.185 19.8765 23.549 19.4335 23.175C19.0055 22.882 19.0575 22.178 19.5215 21.945ZM20.8585 25.195C20.6465 24.881 20.8955 24.502 21.2385 24.43C21.5155 24.485 21.8085 24.69 21.7495 25.004C21.7095 25.431 21.0755 25.561 20.8585 25.196V25.195ZM10.2475 24.922C10.3315 24.672 10.5355 24.425 10.8345 24.49C11.2695 24.52 11.3985 25.166 11.0175 25.365C10.6755 25.592 10.2775 25.281 10.2475 24.922ZM15.3675 25.209C15.4505 24.839 15.9355 24.66 16.2555 24.856C16.4675 24.946 16.5295 25.178 16.5835 25.376C16.555 25.4789 16.5283 25.5822 16.5035 25.686C16.3725 25.838 16.2035 25.991 15.9855 25.986C15.5805 26.033 15.2145 25.582 15.3665 25.209H15.3675Z" fill="black"/>
</g>
<path d="M15.7255 6.06001C16.2045 5.81301 16.7895 6.38401 16.5355 6.85501C16.3865 7.23901 15.8255 7.34101 15.5395 7.04801C15.2365 6.76801 15.3355 6.21201 15.7255 6.05901V6.06001ZM10.5705 6.60601C10.8615 6.48801 11.2305 6.75001 11.2005 7.06301C11.2305 7.40101 10.8105 7.65101 10.5135 7.49001C10.1205 7.34001 10.1655 6.71201 10.5705 6.60601ZM21.1285 7.49901C20.6735 7.44501 20.6015 6.74101 21.0385 6.59901C21.3785 6.43701 21.6905 6.74201 21.7405 7.05901C21.6685 7.32901 21.4385 7.57701 21.1285 7.49901ZM11.7435 8.76401C12.2305 8.46101 12.9245 8.91201 12.8495 9.46901C12.8245 10.03 12.0665 10.356 11.6385 9.97601C11.2245 9.67801 11.2875 8.99401 11.7435 8.76401ZM19.1735 9.08601C19.3905 8.53601 20.2705 8.51801 20.5175 9.05401C20.7625 9.47101 20.4615 9.98801 20.0265 10.13C19.4495 10.236 18.9025 9.62201 19.1735 9.08601ZM15.1045 10.099C15.0995 9.62501 15.5375 9.27301 15.9945 9.24001C16.2985 9.30001 16.6285 9.42701 16.7585 9.72801C17.0015 10.144 16.7855 10.715 16.3485 10.906C16.1485 11.016 15.9105 10.975 15.6925 10.962C15.3595 10.802 15.0785 10.485 15.1045 10.099ZM7.4385 10.789C7.8835 10.519 8.4835 11.009 8.3145 11.485C8.2225 11.896 7.6605 12.063 7.3395 11.801C6.9965 11.555 7.0505 10.964 7.4395 10.788L7.4385 10.789ZM23.9005 10.787C24.2775 10.499 24.9005 10.83 24.8545 11.298C24.8805 11.725 24.3415 12.048 23.9675 11.828C23.5555 11.645 23.5125 11.021 23.9005 10.788V10.787ZM17.2605 11.638C17.8825 11.418 18.6225 11.681 18.9765 12.228C19.4445 12.895 19.1965 13.911 18.4695 14.294C17.7175 14.747 16.6185 14.364 16.3395 13.536C16.0245 12.796 16.4845 11.87 17.2595 11.638H17.2605ZM13.6075 11.711C14.2975 11.391 15.2265 11.659 15.5595 12.353C15.9515 13.029 15.6485 13.97 14.9475 14.319C14.2455 14.712 13.2545 14.414 12.9155 13.689C12.5345 12.987 12.8725 12.034 13.6075 11.711ZM9.9505 12.94C10.0035 12.503 10.4225 12.218 10.8455 12.188C11.0661 12.2113 11.2723 12.3088 11.4303 12.4644C11.5883 12.6201 11.6889 12.8248 11.7155 13.045C11.6855 13.495 11.3325 13.933 10.8485 13.931C10.3155 13.976 9.8485 13.454 9.9505 12.94ZM20.7525 12.284C21.2995 11.971 22.0585 12.426 22.0345 13.044C22.0715 13.699 21.2315 14.16 20.6875 13.776C20.1215 13.456 20.1655 12.556 20.7525 12.284ZM12.1225 14.591C12.7605 14.418 13.4925 14.714 13.8055 15.292C14.1485 15.874 14.0085 16.682 13.4755 17.11C12.7905 17.736 11.5295 17.484 11.1655 16.63C10.7465 15.847 11.2555 14.797 12.1215 14.59L12.1225 14.591ZM19.0495 14.588C19.6705 14.413 20.4005 14.648 20.7345 15.205C21.1765 15.842 20.9655 16.793 20.3085 17.203C19.6185 17.68 18.5525 17.43 18.1725 16.684C17.7125 15.913 18.1755 14.823 19.0495 14.588ZM8.0095 15.314C8.5615 15.109 9.1735 15.708 8.9495 16.247C8.8135 16.737 8.1105 16.919 7.7475 16.557C7.3225 16.217 7.4795 15.462 8.0095 15.314ZM22.9785 16.096C22.9681 15.8759 23.0451 15.6606 23.1927 15.4969C23.3402 15.3332 23.5465 15.2344 23.7665 15.222C24.1445 15.282 24.5125 15.582 24.4825 15.987C24.5175 16.522 23.8625 16.885 23.3985 16.634C23.1815 16.525 23.0705 16.306 22.9785 16.096ZM5.2945 15.58C5.6265 15.437 6.0375 15.72 5.9615 16.083C5.9435 16.494 5.3265 16.653 5.1005 16.309C4.9005 16.07 5.0205 15.703 5.2945 15.579V15.58ZM26.2435 15.571C26.4775 15.408 26.8535 15.525 26.9455 15.794C27.1025 16.088 26.8145 16.49 26.4785 16.441C26.0065 16.483 25.8545 15.776 26.2435 15.571ZM13.9265 17.544C14.8005 17.321 15.7405 18.038 15.7465 18.924C15.8025 19.819 14.8765 20.612 13.9825 20.406C13.2905 20.296 12.7475 19.64 12.7705 18.953C12.7685 18.295 13.2725 17.683 13.9265 17.544ZM17.3885 17.543C18.2755 17.299 19.2435 18.029 19.2295 18.935C19.2765 19.813 18.3795 20.58 17.5035 20.405C16.6785 20.301 16.0705 19.41 16.3005 18.622C16.4165 18.098 16.8625 17.672 17.3885 17.542V17.543ZM10.7125 18.088C11.3265 17.985 11.9025 18.658 11.6535 19.232C11.4715 19.844 10.5675 20.009 10.1675 19.51C9.6995 19.03 10.0495 18.154 10.7125 18.088ZM20.8665 18.115C21.4145 17.889 22.0865 18.355 22.0445 18.94C22.0665 19.583 21.2365 20.027 20.7015 19.651C20.0945 19.314 20.2055 18.321 20.8665 18.115ZM23.7045 20.915C23.4905 20.522 23.8795 20.001 24.3245 20.074C24.5445 20.07 24.6995 20.241 24.8405 20.385C24.8695 20.618 24.9185 20.896 24.7215 21.075C24.4545 21.408 23.8495 21.313 23.7045 20.915ZM7.4365 20.183C7.8515 19.912 8.4485 20.317 8.3545 20.793C8.3045 21.216 7.7645 21.457 7.4095 21.217C7.0275 21 7.0415 20.381 7.4365 20.183ZM15.6295 21.066C16.1725 20.831 16.8645 21.296 16.8125 21.884C16.8525 22.534 15.9975 22.984 15.4665 22.594C14.8765 22.259 14.9755 21.273 15.6295 21.066ZM11.8355 21.937C12.2975 21.698 12.9175 22.111 12.8755 22.621C12.8895 23.039 12.4755 23.395 12.0555 23.333C11.7085 23.326 11.4825 23.019 11.3705 22.728C11.3765 22.411 11.5095 22.058 11.8355 21.938V21.937ZM19.5215 21.945C19.9975 21.655 20.6735 22.071 20.6285 22.615C20.6405 23.185 19.8765 23.549 19.4335 23.175C19.0055 22.882 19.0575 22.178 19.5215 21.945ZM20.8585 25.195C20.6465 24.881 20.8955 24.502 21.2385 24.43C21.5155 24.485 21.8085 24.69 21.7495 25.004C21.7095 25.431 21.0755 25.561 20.8585 25.196V25.195ZM10.2475 24.922C10.3315 24.672 10.5355 24.425 10.8345 24.49C11.2695 24.52 11.3985 25.166 11.0175 25.365C10.6755 25.592 10.2775 25.281 10.2475 24.922ZM15.3675 25.209C15.4505 24.839 15.9355 24.66 16.2555 24.856C16.4675 24.946 16.5295 25.178 16.5835 25.376C16.555 25.4789 16.5283 25.5822 16.5035 25.686C16.3725 25.838 16.2035 25.991 15.9855 25.986C15.5805 26.033 15.2145 25.582 15.3665 25.209H15.3675Z" fill="white"/>
</g>
<defs>
<filter id="filter0_d_1_6310" x="4.00095" y="5.50043" width="23.9886" height="21.989" filterUnits="userSpaceOnUse" color-interpolation-filters="sRGB">
<feFlood flood-opacity="0" result="BackgroundImageFix"/>
<feColorMatrix in="SourceAlpha" type="matrix" values="0 0 0 0 0 0 0 0 0 0 0 0 0 0 0 0 0 0 127 0" result="hardAlpha"/>
<feOffset dy="0.5"/>
<feGaussianBlur stdDeviation="0.5"/>
<feColorMatrix type="matrix" values="0 0 0 0 0 0 0 0 0 0 0 0 0 0 0 0 0 0 0.204257 0"/>
<feBlend mode="normal" in2="BackgroundImageFix" result="effect1_dropShadow_1_6310"/>
<feBlend mode="normal" in="SourceGraphic" in2="effect1_dropShadow_1_6310" result="shape"/>
</filter>
<clipPath id="clip0_1_6310">
<rect width="32" height="32" fill="white" transform="translate(0.000488281)"/>
</clipPath>
</defs>
</svg>
