<svg width="32" height="32" viewBox="0 0 32 32" fill="none" xmlns="http://www.w3.org/2000/svg">
<g clip-path="url(#clip0_1_6306)">
<path d="M16.0005 32C24.837 32 32.0005 24.8366 32.0005 16C32.0005 7.16344 24.837 0 16.0005 0C7.16393 0 0.000488281 7.16344 0.000488281 16C0.000488281 24.8366 7.16393 32 16.0005 32Z" fill="#FEC807"/>
<path fill-rule="evenodd" clip-rule="evenodd" d="M24.9535 17.7488H20.0255L19.1455 15.1088H24.9455C25.1439 15.1088 25.3341 15.03 25.4744 14.8897C25.6147 14.7495 25.6935 14.5592 25.6935 14.3608C25.6935 14.1624 25.6147 13.9722 25.4744 13.8319C25.3341 13.6916 25.1439 13.6128 24.9455 13.6128H18.6695L16.1525 5.93983C16.1206 5.68632 15.9993 5.45251 15.8105 5.28036C15.6217 5.10821 15.3777 5.00902 15.1223 5.00059C14.867 4.99215 14.617 5.07504 14.4172 5.23435C14.2175 5.39367 14.0811 5.61898 14.0325 5.86983L8.01249 24.1728C7.99649 24.2728 7.99649 24.3728 8.01249 24.4728C8.01666 24.7167 8.10876 24.9509 8.27186 25.1322C8.43495 25.3136 8.65806 25.4299 8.90012 25.4599C9.14219 25.4898 9.38692 25.4313 9.58928 25.2952C9.79165 25.159 9.93803 24.9543 10.0015 24.7188L15.0525 9.31883L16.4955 13.6128H15.2455C15.0471 13.6128 14.8568 13.6916 14.7166 13.8319C14.5763 13.9722 14.4975 14.1624 14.4975 14.3608C14.4975 14.5592 14.5763 14.7495 14.7166 14.8897C14.8568 15.03 15.0471 15.1088 15.2455 15.1088H17.0055L17.8855 17.7488H15.2455C15.1473 17.7488 15.05 17.7682 14.9592 17.8058C14.8685 17.8434 14.786 17.8985 14.7166 17.9679C14.6471 18.0374 14.592 18.1198 14.5544 18.2106C14.5168 18.3013 14.4975 18.3986 14.4975 18.4968C14.4975 18.5951 14.5168 18.6923 14.5544 18.7831C14.592 18.8738 14.6471 18.9563 14.7166 19.0257C14.786 19.0952 14.8685 19.1503 14.9592 19.1879C15.05 19.2255 15.1473 19.2448 15.2455 19.2448H18.4055L19.8305 23.4688H12.2715C11.9914 23.4688 11.7228 23.5801 11.5248 23.7781C11.3267 23.9762 11.2155 24.2448 11.2155 24.5248C11.2155 24.8049 11.3267 25.0735 11.5248 25.2715C11.7228 25.4696 11.9914 25.5808 12.2715 25.5808H21.2125C21.7665 25.5808 22.2155 25.1318 22.2155 24.5778C22.216 24.4258 22.1829 24.2755 22.1185 24.1378L20.5085 19.2448H24.9085C25.0067 19.2448 25.104 19.2255 25.1947 19.1879C25.2855 19.1503 25.3679 19.0952 25.4374 19.0257C25.5069 18.9563 25.562 18.8738 25.5996 18.7831C25.6371 18.6923 25.6565 18.5951 25.6565 18.4968C25.6565 18.3986 25.6371 18.3013 25.5996 18.2106C25.562 18.1198 25.5069 18.0374 25.4374 17.9679C25.3679 17.8985 25.2855 17.8434 25.1947 17.8058C25.104 17.7682 25.0067 17.7488 24.9085 17.7488H24.9525H24.9535Z" fill="white"/>
</g>
<defs>
<clipPath id="clip0_1_6306">
<rect width="32" height="32" fill="white" transform="translate(0.000488281)"/>
</clipPath>
</defs>
</svg>
