<svg width="32" height="32" viewBox="0 0 32 32" fill="none" xmlns="http://www.w3.org/2000/svg">
<g clip-path="url(#clip0_1_6302)">
<path d="M16.0005 32C24.837 32 32.0005 24.8366 32.0005 16C32.0005 7.16344 24.837 0 16.0005 0C7.16393 0 0.000488281 7.16344 0.000488281 16C0.000488281 24.8366 7.16393 32 16.0005 32Z" fill="#1B75BC"/>
<path fill-rule="evenodd" clip-rule="evenodd" d="M11.5875 8.602L16.0005 13.208L20.3055 8.602L23.0005 11.36L18.6045 16L23.0005 20.603L20.3055 23.396L16.0005 18.792L11.5875 23.396L9.00049 20.68L13.3605 15.974L9.00049 11.36L11.5875 8.603V8.602ZM11.9425 8.226L15.9825 4L20.0225 8.226L17.8965 10.491L15.9825 8.377L14.0685 10.491L11.9425 8.226ZM11.9425 23.774L14.0685 21.509L15.9825 23.623L17.8965 21.509L20.0225 23.774L15.9825 28L11.9425 23.774Z" fill="white"/>
</g>
<defs>
<clipPath id="clip0_1_6302">
<rect width="32" height="32" fill="white" transform="translate(0.000488281)"/>
</clipPath>
</defs>
</svg>
