<svg width="32" height="32" viewBox="0 0 32 32" fill="none" xmlns="http://www.w3.org/2000/svg">
<g clip-path="url(#clip0_1_6298)">
<path d="M16.0005 32C24.837 32 32.0005 24.8366 32.0005 16C32.0005 7.16344 24.837 0 16.0005 0C7.16393 0 0.000488281 7.16344 0.000488281 16C0.000488281 24.8366 7.16393 32 16.0005 32Z" fill="#DE3F6B"/>
<path d="M9.75249 11H10.6565C12.0695 11.134 13.3765 11.821 14.3435 12.81C16.3525 14.849 17.4565 17.726 20.0135 19.243C21.8615 20.34 24.4465 19.443 25.3545 17.589C25.8165 17.581 26.2815 17.581 26.7435 17.583C26.1075 19.466 24.2545 20.819 22.2285 21H21.4825C20.2355 20.9 19.0225 20.436 18.0795 19.634C16.7095 18.511 15.8295 16.97 14.7645 15.598C13.8485 14.385 12.9145 13.021 11.3985 12.47C9.52549 11.791 7.23849 12.853 6.55549 14.657C5.95549 16.143 6.44349 17.985 7.78549 18.937C8.79149 19.689 10.1925 19.97 11.4005 19.532C12.7425 19.064 13.7385 18 14.5025 16.872C14.8035 17.289 15.0965 17.712 15.3865 18.138C14.1985 19.585 12.5505 20.828 10.5905 21H9.78749C7.31749 20.834 5.17049 18.804 5.00049 16.406V15.621C5.16049 13.228 7.28049 11.174 9.75249 11ZM21.4325 11H22.1825C24.6755 11.157 26.7955 13.228 27.0005 15.626V16.856C24.9435 16.874 22.8845 16.862 20.8275 16.864C20.8295 16.504 20.8295 16.147 20.8275 15.787C22.4535 15.783 24.0775 15.794 25.7005 15.783C25.5855 15.147 25.4365 14.496 25.0465 13.957C24.0965 12.553 22.0875 11.979 20.4815 12.587C19.2015 13.047 18.2375 14.053 17.4945 15.127C17.2085 14.73 16.9245 14.327 16.6495 13.921C17.8225 12.453 19.4595 11.183 21.4325 11Z" fill="white"/>
</g>
<defs>
<clipPath id="clip0_1_6298">
<rect width="32" height="32" fill="white" transform="translate(0.000488281)"/>
</clipPath>
</defs>
</svg>
