<svg width="32" height="32" viewBox="0 0 32 32" fill="none" xmlns="http://www.w3.org/2000/svg">
<g clip-path="url(#clip0_1_6290)">
<path d="M16.0005 32C24.837 32 32.0005 24.8366 32.0005 16C32.0005 7.16344 24.837 0 16.0005 0C7.16393 0 0.000488281 7.16344 0.000488281 16C0.000488281 24.8366 7.16393 32 16.0005 32Z" fill="#134451"/>
<path d="M13.5095 16.367C13.0125 16.367 12.6365 16.451 12.3765 16.61C12.1265 16.765 12.0005 17 12.0005 17.308C12.0005 17.538 12.0785 17.724 12.2255 17.856C12.3765 17.989 12.5885 18.055 12.8525 18.055C13.2625 18.055 13.6045 17.927 13.8765 17.675C14.1495 17.419 14.3345 17.061 14.4265 16.602L14.4685 16.367H13.5085H13.5095ZM18.7735 14.198C18.6225 14.066 18.4105 14 18.1475 14C17.7365 14 17.3945 14.128 17.1225 14.38C16.8505 14.636 16.6645 14.994 16.5735 15.453L16.5305 15.687L17.4905 15.683C17.9875 15.683 18.3635 15.599 18.6225 15.44C18.8725 15.285 18.9985 15.051 18.9985 14.742C18.9985 14.512 18.9255 14.331 18.7735 14.198Z" fill="white"/>
<path d="M26.9648 14.2451C26.6368 11.2811 21.4548 9.44708 15.3948 10.1501C9.33484 10.8521 4.68884 13.8251 5.01684 16.7901C5.34584 19.7541 10.5238 21.5871 16.5868 20.8851C22.6518 20.1821 27.2938 17.2091 26.9648 14.2451ZM20.6248 15.7291C20.0108 16.1671 19.1158 16.3831 17.9408 16.3881L16.7998 16.3921L16.7648 16.5551C16.7545 16.5909 16.7488 16.6278 16.7478 16.6651C16.7428 16.6881 16.7428 16.7101 16.7428 16.7281C16.7428 16.9801 16.8598 17.1651 17.0888 17.2881C17.3188 17.4171 17.6588 17.4781 18.1048 17.4781C18.5278 17.4781 18.9348 17.4301 19.3188 17.3421C19.6988 17.2531 20.0668 17.1211 20.4168 16.9441L20.1268 18.4991C19.6908 18.6051 19.2718 18.6891 18.8568 18.7421C18.4574 18.7993 18.0544 18.8291 17.6508 18.8311C17.0978 18.8311 16.6398 18.7641 16.2718 18.6231C15.8918 18.4771 15.4678 18.1591 15.2568 17.7041C14.8655 18.0772 14.4121 18.3791 13.9168 18.5961C13.4576 18.7922 12.9632 18.8929 12.4638 18.8921C11.8338 18.8971 11.3358 18.7421 10.9818 18.4371C10.6228 18.1331 10.4458 17.7081 10.4418 17.1741C10.4368 16.3521 10.7438 15.7291 11.3538 15.2961C11.9668 14.8591 12.8618 14.6431 14.0378 14.6381L15.1778 14.6341L15.2128 14.4701C15.2235 14.4343 15.2296 14.3974 15.2308 14.3601C15.2348 14.3381 15.2348 14.3161 15.2348 14.2981C15.2348 14.0461 15.1178 13.8611 14.8888 13.7371C14.6598 13.6091 14.3188 13.5471 13.8728 13.5471C13.4498 13.5471 13.0428 13.5961 12.6588 13.6841C12.2788 13.7721 11.9108 13.9041 11.5608 14.0821L11.8508 12.5271C12.2868 12.4211 12.7058 12.3371 13.1208 12.2841C13.5203 12.2268 13.9233 12.1971 14.3268 12.1951C14.8808 12.1951 15.3388 12.2621 15.7068 12.4031C16.0868 12.5491 16.5098 12.8671 16.7218 13.3221C17.1131 12.9486 17.5666 12.6464 18.0618 12.4291C18.5208 12.2331 19.0148 12.1324 19.5138 12.1331C20.1448 12.1291 20.6418 12.2831 20.9958 12.5881C21.3558 12.8931 21.5318 13.3181 21.5358 13.8521C21.5408 14.6691 21.2388 15.2961 20.6248 15.7291Z" fill="white"/>
<path d="M16.9658 21.8993C16.0888 22.0013 15.2198 22.0493 14.3768 22.0493C12.3708 22.0493 10.4958 21.7673 8.93477 21.2143C8.2893 20.9922 7.67183 20.6959 7.09477 20.3313C6.88177 21.4493 7.02477 22.4343 7.57377 23.1673C9.15077 25.2743 13.5638 24.6033 17.9298 21.7673C17.6098 21.8153 17.2898 21.8593 16.9658 21.8993ZM15.9418 10.5023C18.9018 10.1573 21.7548 10.4003 23.9718 11.1863C24.618 11.4085 25.2361 11.7052 25.8138 12.0703C26.0248 10.9523 25.8828 9.96728 25.3338 9.23428C23.7558 7.12728 19.3438 7.79828 14.9778 10.6343C15.2978 10.5813 15.6218 10.5373 15.9418 10.5023Z" fill="white"/>
<path d="M12.7605 24.2471C12.1832 24.3854 11.5937 24.4668 11.0005 24.4901C11.4465 25.6701 12.1425 26.4961 13.0625 26.8051C15.2845 27.5521 18.1585 25.1051 20.1945 21.0531C19.7145 21.1861 19.2175 21.3051 18.7165 21.4071C16.7275 22.8121 14.6535 23.8061 12.7605 24.2471ZM20.3585 7.69414C20.9361 7.5586 21.5256 7.48022 22.1185 7.46014C21.6765 6.28014 20.9855 5.45014 20.0645 5.13714C17.8475 4.38114 14.9605 6.81514 12.9115 10.8531C13.3915 10.7211 13.8885 10.6061 14.3935 10.5091C16.3825 9.10914 18.4615 8.12714 20.3585 7.69414Z" fill="white"/>
</g>
<defs>
<clipPath id="clip0_1_6290">
<rect width="32" height="32" fill="white" transform="translate(0.000488281)"/>
</clipPath>
</defs>
</svg>
