<svg width="32" height="32" viewBox="0 0 32 32" fill="none" xmlns="http://www.w3.org/2000/svg">
<g clip-path="url(#clip0_1_6284)">
<path d="M16.0005 32C24.837 32 32.0005 24.8366 32.0005 16C32.0005 7.16344 24.837 0 16.0005 0C7.16393 0 0.000488281 7.16344 0.000488281 16C0.000488281 24.8366 7.16393 32 16.0005 32Z" fill="#051D2D"/>
<path d="M15.9935 19.986C14.6104 19.986 13.2584 19.5759 12.1084 18.8075C10.9584 18.0391 10.0621 16.9469 9.5328 15.6691C9.00351 14.3913 8.86503 12.9852 9.13486 11.6287C9.40468 10.2722 10.0707 9.02619 11.0487 8.04821C12.0267 7.07022 13.2727 6.4042 14.6292 6.13437C15.9857 5.86455 17.3918 6.00303 18.6696 6.53231C19.9474 7.0616 21.0396 7.95791 21.808 9.1079C22.5764 10.2579 22.9865 11.6099 22.9865 12.993C22.9841 14.8469 22.2466 16.6242 20.9357 17.9352C19.6247 19.2461 17.8474 19.9836 15.9935 19.986ZM16.0005 12.951C15.9908 12.951 15.9813 12.9539 15.9733 12.9593C15.9652 12.9646 15.9589 12.9723 15.9552 12.9813C15.9515 12.9902 15.9505 13.0001 15.9524 13.0096C15.9543 13.0191 15.959 13.0278 15.9658 13.0347C15.9727 13.0415 15.9814 13.0462 15.9909 13.0481C16.0004 13.05 16.0103 13.049 16.0192 13.0453C16.0282 13.0416 16.0358 13.0353 16.0412 13.0272C16.0466 13.0192 16.0495 13.0097 16.0495 13C16.0484 12.9871 16.0427 12.975 16.0336 12.9659C16.0244 12.9568 16.0124 12.9511 15.9995 12.95L16.0005 12.951Z" fill="url(#paint0_linear_1_6284)"/>
<path d="M15.9935 26.986C14.6104 26.986 13.2584 26.5759 12.1084 25.8075C10.9584 25.0391 10.0621 23.9469 9.5328 22.6691C9.00351 21.3913 8.86503 19.9852 9.13486 18.6287C9.40468 17.2722 10.0707 16.0262 11.0487 15.0482C12.0267 14.0702 13.2727 13.4042 14.6292 13.1344C15.9857 12.8645 17.3918 13.003 18.6696 13.5323C19.9474 14.0616 21.0396 14.9579 21.808 16.1079C22.5764 17.2579 22.9865 18.6099 22.9865 19.993C22.9841 21.8469 22.2466 23.6242 20.9357 24.9352C19.6247 26.2461 17.8474 26.9836 15.9935 26.986ZM16.0005 19.951C15.9908 19.951 15.9813 19.9539 15.9733 19.9593C15.9652 19.9646 15.9589 19.9723 15.9552 19.9813C15.9515 19.9902 15.9505 20.0001 15.9524 20.0096C15.9543 20.0191 15.959 20.0278 15.9658 20.0347C15.9727 20.0415 15.9814 20.0462 15.9909 20.0481C16.0004 20.05 16.0103 20.049 16.0192 20.0453C16.0282 20.0416 16.0358 20.0353 16.0412 20.0272C16.0466 20.0192 16.0495 20.0097 16.0495 20C16.0484 19.9871 16.0427 19.975 16.0336 19.9659C16.0244 19.9568 16.0124 19.9511 15.9995 19.95L16.0005 19.951Z" fill="url(#paint1_linear_1_6284)"/>
</g>
<defs>
<linearGradient id="paint0_linear_1_6284" x1="15.9935" y1="6" x2="15.9935" y2="26.0334" gradientUnits="userSpaceOnUse">
<stop stop-color="white"/>
<stop offset="0.03" stop-color="white" stop-opacity="0.83"/>
<stop offset="0.07" stop-color="white" stop-opacity="0.66"/>
<stop offset="0.11" stop-color="white" stop-opacity="0.5"/>
<stop offset="0.15" stop-color="white" stop-opacity="0.37"/>
<stop offset="0.19" stop-color="white" stop-opacity="0.25"/>
<stop offset="0.25" stop-color="white" stop-opacity="0.16"/>
<stop offset="0.3" stop-color="white" stop-opacity="0.09"/>
<stop offset="0.37" stop-color="white" stop-opacity="0.04"/>
<stop offset="0.47" stop-color="white" stop-opacity="0.01"/>
<stop offset="1" stop-color="white" stop-opacity="0"/>
</linearGradient>
<linearGradient id="paint1_linear_1_6284" x1="15.9935" y1="13" x2="15.9935" y2="33.0334" gradientUnits="userSpaceOnUse">
<stop stop-color="white"/>
<stop offset="0.03" stop-color="white" stop-opacity="0.83"/>
<stop offset="0.07" stop-color="white" stop-opacity="0.66"/>
<stop offset="0.11" stop-color="white" stop-opacity="0.5"/>
<stop offset="0.15" stop-color="white" stop-opacity="0.37"/>
<stop offset="0.19" stop-color="white" stop-opacity="0.25"/>
<stop offset="0.25" stop-color="white" stop-opacity="0.16"/>
<stop offset="0.3" stop-color="white" stop-opacity="0.09"/>
<stop offset="0.37" stop-color="white" stop-opacity="0.04"/>
<stop offset="0.47" stop-color="white" stop-opacity="0.01"/>
<stop offset="1" stop-color="white" stop-opacity="0"/>
</linearGradient>
<clipPath id="clip0_1_6284">
<rect width="32" height="32" fill="white" transform="translate(0.000488281)"/>
</clipPath>
</defs>
</svg>
