<svg width="32" height="32" viewBox="0 0 32 32" fill="none" xmlns="http://www.w3.org/2000/svg">
<g clip-path="url(#clip0_1_6278)">
<path d="M16.0005 32C24.837 32 32.0005 24.8366 32.0005 16C32.0005 7.16344 24.837 0 16.0005 0C7.16393 0 0.000488281 7.16344 0.000488281 16C0.000488281 24.8366 7.16393 32 16.0005 32Z" fill="#6916FF"/>
<path d="M17.3445 6.40872C17.2889 6.36862 17.2499 6.30952 17.235 6.24261C17.2201 6.17571 17.2302 6.10565 17.2635 6.04572C17.31 6.01587 17.3642 6 17.4195 6C17.4748 6 17.5289 6.01587 17.5755 6.04572C18.2802 6.33828 18.9181 6.77104 19.4505 7.31772C19.7535 7.59872 20.0075 7.92672 20.2005 8.28772C20.4045 8.65572 20.5715 9.04072 20.7005 9.43972C20.8235 9.85272 20.8875 10.2817 20.8885 10.7117C20.8255 11.1367 20.7635 13.1967 19.5755 14.1667C19.4243 14.2576 19.2448 14.2894 19.0716 14.2557C18.8984 14.2221 18.7437 14.1256 18.6375 13.9847C18.5526 13.8852 18.501 13.7615 18.4898 13.6312C18.4787 13.5008 18.5087 13.3702 18.5755 13.2577C19.0806 12.4758 19.3596 11.5694 19.3816 10.6388C19.4037 9.70825 19.1679 8.78969 18.7005 7.98472C18.3005 7.41872 17.8465 6.89172 17.3445 6.40872ZM15.5005 24.9907C15.6255 25.1117 15.6255 25.2327 15.5635 25.2937C15.5015 25.3547 15.3755 25.4147 15.3135 25.3537C14.6087 25.0612 13.9708 24.6284 13.4385 24.0817C13.1364 23.8022 12.8829 23.4744 12.6885 23.1117C12.4849 22.7452 12.3174 22.3597 12.1885 21.9607C12.0649 21.5476 12.0016 21.1189 12.0005 20.6877C12.0635 20.2637 12.1255 18.2027 13.3135 17.2327C13.4646 17.1421 13.6439 17.1105 13.8169 17.1441C13.9898 17.1777 14.1443 17.2741 14.2505 17.4147C14.3415 17.5141 14.392 17.644 14.392 17.7787C14.392 17.9135 14.3415 18.0433 14.2505 18.1427C13.7456 18.9245 13.4667 19.8307 13.4447 20.7611C13.4226 21.6915 13.6582 22.6099 14.1255 23.4147C14.5305 23.9817 14.9915 24.5097 15.5005 24.9907Z" fill="white" fill-opacity="0.5"/>
<path d="M21.0864 20.0029C20.9958 18.8394 20.5358 17.7353 19.7734 16.8519C19.0016 16.0761 18.1165 15.422 17.1484 14.9119C16.3039 14.4451 15.5083 13.895 14.7734 13.2699C14.169 12.7018 13.7545 11.9611 13.5864 11.1489C13.4371 10.3102 13.5438 9.44607 13.8924 8.66886C14.3101 7.80419 14.909 7.03955 15.6484 6.42686C15.69 6.38977 15.7185 6.3403 15.7299 6.28575C15.7412 6.2312 15.7347 6.17445 15.7114 6.12386C15.6935 6.09197 15.6687 6.06453 15.6388 6.04361C15.6088 6.02268 15.5745 6.00881 15.5384 6.00304C15.5023 5.99727 15.4654 5.99974 15.4304 6.01027C15.3954 6.02081 15.3633 6.03913 15.3364 6.06386C14.3404 6.49835 13.493 7.21434 12.8984 8.12386C12.2334 9.07937 11.9219 10.2366 12.0174 11.3969C12.0673 11.9831 12.2153 12.5567 12.4554 13.0939C12.7152 13.6255 13.0521 14.1158 13.4554 14.5489C14.2501 15.3082 15.1562 15.9415 16.1424 16.4269C16.9904 16.8669 17.7874 17.3959 18.5174 18.0029C19.1596 18.5663 19.5806 19.3397 19.7054 20.1849C19.8814 21.0639 19.7714 21.9749 19.3924 22.7909C18.967 23.65 18.346 24.3973 17.5794 24.9729C17.554 24.9874 17.5321 25.0072 17.5149 25.0309C17.4977 25.0545 17.4858 25.0816 17.4798 25.1102C17.4739 25.1388 17.4741 25.1684 17.4804 25.197C17.4867 25.2255 17.4989 25.2524 17.5164 25.2759C17.5514 25.3399 17.6164 25.3859 17.6894 25.3969C17.7624 25.4079 17.8384 25.3869 17.8924 25.3369C18.8216 24.8004 19.6301 24.078 20.2674 23.2149C20.8874 22.2569 21.1734 21.1309 21.0864 20.0029Z" fill="white"/>
</g>
<defs>
<clipPath id="clip0_1_6278">
<rect width="32" height="32" fill="white" transform="translate(0.000488281)"/>
</clipPath>
</defs>
</svg>
