<svg width="32" height="32" viewBox="0 0 32 32" fill="none" xmlns="http://www.w3.org/2000/svg">
<g clip-path="url(#clip0_1_6268)">
<path d="M16.001 32C24.8375 32 32.001 24.8366 32.001 16C32.001 7.16344 24.8375 0 16.001 0C7.16442 0 0.000976562 7.16344 0.000976562 16C0.000976562 24.8366 7.16442 32 16.001 32Z" fill="#00BFEC"/>
<path d="M16.177 23.083C12.22 23.083 9.00098 19.884 9.00098 15.953C9.00098 12.021 12.221 8.823 16.177 8.823C20.134 8.823 23.353 12.021 23.353 15.953C23.353 19.884 20.134 23.083 16.177 23.083ZM16.177 10.219C12.996 10.219 10.407 12.791 10.407 15.953C10.407 19.114 12.996 21.686 16.177 21.686C19.359 21.686 21.947 19.114 21.947 15.953C21.947 12.791 19.359 10.219 16.177 10.219ZM21.202 7.804C19.6881 6.8822 17.9494 6.39571 16.177 6.398C14.5455 6.39732 12.9403 6.80944 11.511 7.596L10.827 6.376C12.4656 5.47313 14.3061 4.99976 16.177 5C18.217 5 20.209 5.558 21.938 6.614L21.202 7.804ZM23.297 24.314L22.388 23.247C23.4539 22.3538 24.3111 21.2378 24.8994 19.9776C25.4877 18.7175 25.7927 17.3437 25.793 15.953H27.199C27.199 19.179 25.777 22.226 23.297 24.313V24.314ZM16.177 26.904C13.62 26.904 11.128 26.014 9.16098 24.399L10.057 23.323C11.7837 24.7357 13.946 25.5077 16.177 25.508C17.737 25.508 19.225 25.148 20.599 24.44L21.246 25.68C19.6775 26.4848 17.9399 26.9047 16.177 26.905V26.904Z" fill="white"/>
<path opacity="0.5" d="M25.284 13.194C24.9164 11.8754 24.2698 10.6511 23.388 9.604L24.288 8.858C25.2765 10.0319 26.0012 11.4046 26.413 12.883L25.285 13.194H25.284ZM6.79399 21.745C5.62203 19.9799 4.9982 17.9077 5.00099 15.789C5.00099 12.827 6.18099 10.061 8.32399 8L9.13799 8.837C8.19724 9.7335 7.44905 10.8123 6.9391 12.0076C6.42915 13.2028 6.16813 14.4895 6.17199 15.789C6.17199 17.688 6.72599 19.526 7.77199 21.105L6.79399 21.745Z" fill="white"/>
</g>
<defs>
<clipPath id="clip0_1_6268">
<rect width="32" height="32" fill="white" transform="translate(0.000976562)"/>
</clipPath>
</defs>
</svg>
