<svg width="32" height="32" viewBox="0 0 32 32" fill="none" xmlns="http://www.w3.org/2000/svg">
<g clip-path="url(#clip0_1_6264)">
<path d="M16.001 32C24.8375 32 32.001 24.8366 32.001 16C32.001 7.16344 24.8375 0 16.001 0C7.16442 0 0.000976562 7.16344 0.000976562 16C0.000976562 24.8366 7.16442 32 16.001 32Z" fill="black"/>
<path d="M10.751 22.916L13.054 18.93L15.355 14.958L17.643 10.972L18.023 10.34L18.19 10.972L18.892 13.596L18.106 14.958L15.805 18.93L13.517 22.916H16.267L18.569 18.93L19.762 16.867L20.324 18.93L21.39 22.916H23.86L22.794 18.93L21.727 14.958L21.447 13.933L23.159 10.972H20.661L20.576 10.677L19.706 7.421L19.594 7H17.194L17.138 7.084L14.892 10.972L12.59 14.958L10.303 18.93L8.00098 22.916H10.751Z" fill="white"/>
</g>
<defs>
<clipPath id="clip0_1_6264">
<rect width="32" height="32" fill="white" transform="translate(0.000976562)"/>
</clipPath>
</defs>
</svg>
