<svg width="32" height="32" viewBox="0 0 32 32" fill="none" xmlns="http://www.w3.org/2000/svg">
<g clip-path="url(#clip0_1_6260)">
<path d="M16 32.0015C24.8366 32.0015 32 24.838 32 16.0015C32 7.16491 24.8366 0.00146484 16 0.00146484C7.16344 0.00146484 0 7.16491 0 16.0015C0 24.838 7.16344 32.0015 16 32.0015Z" fill="#3C5BE0"/>
<path d="M27 15.5165V15.5245C26.9967 15.6043 26.9752 15.6823 26.937 15.7525C26.797 16.0075 23.446 22.0015 16.001 22.0015C8.556 22.0015 5.203 16.0075 5.064 15.7525C5.02548 15.6824 5.00358 15.6044 5 15.5245V15.4795L5.001 15.4565C5.00682 15.3906 5.02515 15.3265 5.055 15.2675L5.057 15.2635L5.063 15.2515C5.203 14.9955 8.555 9.00146 16 9.00146C23.445 9.00146 26.797 14.9965 26.936 15.2515L26.942 15.2635L26.945 15.2685C26.9744 15.3272 26.9924 15.391 26.998 15.4565V15.5025L27 15.5165ZM25.89 15.5015C25.327 14.6275 23.211 11.7085 19.375 10.5345C20.61 11.3997 21.4788 12.6938 21.812 14.1645C22.075 14.2245 22.264 14.4605 22.269 14.7345C22.274 15.0085 22.094 15.2505 21.832 15.3205C21.57 15.3905 21.297 15.2705 21.167 15.0305C21.1041 14.9136 21.0817 14.7792 21.1032 14.6482C21.1247 14.5172 21.189 14.3971 21.286 14.3065C20.792 12.0835 18.964 10.3665 16.712 10.0675C16.695 10.0654 16.6783 10.0617 16.662 10.0565C16.2207 10.0328 15.7783 10.0328 15.337 10.0565C15.3207 10.0617 15.304 10.0654 15.287 10.0675C14.4094 10.1856 13.5747 10.5188 12.857 11.0375C12.822 11.0623 12.7817 11.0785 12.7393 11.0848C12.6968 11.0911 12.6535 11.0873 12.6129 11.0736C12.5722 11.06 12.5353 11.0369 12.5053 11.0063C12.4753 10.9757 12.4529 10.9384 12.44 10.8975C12.4225 10.842 12.4228 10.7825 12.441 10.7272C12.4591 10.672 12.4941 10.6238 12.541 10.5895C12.5652 10.5719 12.5895 10.5546 12.614 10.5375C8.784 11.7145 6.672 14.6275 6.11 15.5015C6.667 16.3685 8.75 19.2415 12.52 20.4365C11.2766 19.5286 10.427 18.18 10.145 16.6665C9.891 16.5715 9.735 16.3135 9.765 16.0405C9.795 15.7675 10.005 15.5505 10.273 15.5155C10.541 15.4805 10.799 15.6355 10.897 15.8925C10.9443 16.0166 10.9492 16.1529 10.9108 16.2801C10.8725 16.4073 10.7931 16.5182 10.685 16.5955C11.115 18.8055 12.833 20.5225 15.017 20.9255C15.6719 20.9793 16.3301 20.9793 16.985 20.9255C17.7998 20.7724 18.5682 20.4328 19.23 19.9335C19.2681 19.9039 19.3134 19.885 19.3612 19.8789C19.4091 19.8727 19.4577 19.8795 19.502 19.8985C19.5465 19.9182 19.585 19.9493 19.6137 19.9886C19.6424 20.0279 19.6603 20.0741 19.6656 20.1225C19.6709 20.1709 19.6633 20.2198 19.6437 20.2644C19.6242 20.309 19.5932 20.3476 19.554 20.3765L19.467 20.4415C23.245 19.2485 25.332 16.3695 25.89 15.5015ZM20.82 15.5185C20.82 18.2155 18.658 20.4105 16 20.4105C13.342 20.4105 11.18 18.2155 11.18 15.5185C11.18 12.8215 13.342 10.6275 16 10.6275C18.658 10.6275 20.82 12.8205 20.82 15.5185ZM20.276 15.5185C20.276 13.1265 18.358 11.1795 16 11.1795C13.642 11.1795 11.723 13.1255 11.723 15.5195C11.723 17.9135 13.642 19.8575 16 19.8575C18.358 19.8575 20.276 17.9115 20.276 15.5185ZM17.576 14.1755C17.576 14.6995 17.317 15.1875 16.886 15.4755L17.316 18.1025C17.3259 18.149 17.325 18.1972 17.3136 18.2434C17.3021 18.2896 17.2802 18.3326 17.2497 18.3691C17.2192 18.4056 17.1807 18.4347 17.1373 18.4541C17.0939 18.4736 17.0466 18.483 16.999 18.4815H15.079C15.0314 18.4829 14.9841 18.4736 14.9406 18.4541C14.8972 18.4346 14.8587 18.4056 14.8281 18.3691C14.7975 18.3326 14.7755 18.2897 14.7639 18.2435C14.7523 18.1973 14.7513 18.1491 14.761 18.1025L15.189 15.4755C14.577 15.0645 14.337 14.2705 14.616 13.5815C14.895 12.8925 15.616 12.5005 16.336 12.6445C17.057 12.7895 17.576 13.4305 17.576 14.1755ZM21.923 16.2185C21.7834 17.4712 21.2554 18.6488 20.413 19.5865C20.3813 19.6228 20.3403 19.65 20.2945 19.6652C20.2487 19.6804 20.1997 19.683 20.1525 19.6728C20.1053 19.6626 20.0617 19.6399 20.0263 19.6071C19.9909 19.5744 19.9649 19.5327 19.951 19.4865C19.9364 19.4398 19.9343 19.3902 19.9448 19.3425C19.9553 19.2948 19.9781 19.2506 20.011 19.2145C20.7763 18.3625 21.256 17.2926 21.383 16.1545C21.3911 16.0826 21.4272 16.0168 21.4836 15.9714C21.54 15.9261 21.612 15.9049 21.684 15.9125C21.834 15.9305 21.94 16.0675 21.923 16.2185ZM12.053 11.3505C12.1055 11.4011 12.136 11.4704 12.1379 11.5434C12.1398 11.6164 12.1129 11.6872 12.063 11.7405C11.2959 12.5615 10.7992 13.5982 10.64 14.7105C10.6294 14.7821 10.5908 14.8467 10.5327 14.89C10.4746 14.9332 10.4017 14.9518 10.33 14.9415C10.2583 14.9299 10.1941 14.8906 10.1513 14.832C10.1084 14.7734 10.0903 14.7003 10.101 14.6285C10.2767 13.4048 10.8236 12.2644 11.668 11.3615C11.6925 11.3353 11.7219 11.3142 11.7546 11.2995C11.7873 11.2847 11.8226 11.2767 11.8584 11.2758C11.8942 11.2748 11.9299 11.281 11.9633 11.294C11.9967 11.307 12.0272 11.3266 12.053 11.3515V11.3505Z" fill="white"/>
</g>
<defs>
<clipPath id="clip0_1_6260">
<rect width="32" height="32" fill="white" transform="translate(0 0.00146484)"/>
</clipPath>
</defs>
</svg>
