<svg width="32" height="32" viewBox="0 0 32 32" fill="none" xmlns="http://www.w3.org/2000/svg">
<g clip-path="url(#clip0_1_6256)">
<path d="M16 32.0015C24.8366 32.0015 32 24.838 32 16.0015C32 7.16491 24.8366 0.00146484 16 0.00146484C7.16344 0.00146484 0 7.16491 0 16.0015C0 24.838 7.16344 32.0015 16 32.0015Z" fill="#2DAEE4"/>
<path fill-rule="evenodd" clip-rule="evenodd" d="M7.80343 11.4588H7.91343C8.87643 11.4408 9.71343 11.0768 10.4234 10.3678C11.1134 9.62178 11.4594 8.76678 11.4594 7.80278C11.4594 7.31178 11.6364 6.88878 11.9914 6.53378C12.1597 6.36129 12.3615 6.2251 12.5843 6.1336C12.8072 6.04211 13.0465 5.99724 13.2874 6.00178C13.7774 6.00178 14.2014 6.17878 14.5554 6.53378C14.9104 6.88878 15.0874 7.31178 15.0874 7.80278C15.0874 8.29278 14.9194 8.71678 14.5834 9.07178C14.429 9.24169 14.2419 9.37875 14.0333 9.4748C13.8247 9.57084 13.5989 9.62388 13.3694 9.63078C12.3324 9.59378 11.4414 9.94878 10.6954 10.6948C9.94942 11.4408 9.59543 12.3138 9.63143 13.3148C9.66743 14.3508 10.0414 15.2148 10.7504 15.9058C11.5324 16.5968 12.4054 16.9338 13.3694 16.9158C13.599 16.9228 13.8248 16.976 14.0334 17.0722C14.242 17.1684 14.4291 17.3057 14.5834 17.4758C14.9194 17.8298 15.0874 18.2438 15.0874 18.7158C15.0874 19.2258 14.9104 19.6578 14.5554 20.0128C14.3916 20.1833 14.1946 20.3185 13.9765 20.41C13.7584 20.5015 13.5239 20.5474 13.2874 20.5448C12.7774 20.5448 12.3464 20.3668 11.9914 20.0128C11.8189 19.8445 11.6827 19.6428 11.5913 19.4199C11.4998 19.197 11.4549 18.9577 11.4594 18.7168C11.4671 18.2498 11.3791 17.7861 11.2007 17.3544C11.0224 16.9227 10.7575 16.5322 10.4224 16.2068C10.0988 15.8635 9.71036 15.5878 9.27953 15.3955C8.84871 15.2033 8.38405 15.0984 7.91243 15.0868C7.56743 15.1058 7.27243 15.0508 7.02643 14.9238C6.78476 14.7999 6.57836 14.6169 6.42643 14.3918C6.26974 14.1602 6.15844 13.9009 6.09843 13.6278C6.03553 13.3551 6.02198 13.0733 6.05843 12.7958C6.29443 11.9048 6.87643 11.4588 7.80343 11.4588ZM7.82843 16.9158C8.30143 16.9158 8.71543 17.0888 9.06943 17.4348C9.42443 17.7798 9.61043 18.1898 9.62943 18.6628C9.61043 19.6628 9.95643 20.5358 10.6654 21.2818C11.3754 22.0088 12.2294 22.3728 13.2304 22.3728H13.3124C14.2944 22.3728 15.1394 22.0088 15.8494 21.2818C16.5764 20.5538 16.9314 19.6818 16.9134 18.6618C16.9121 18.1846 16.8119 17.7128 16.6193 17.2762C16.4268 16.8396 16.1459 16.4476 15.7944 16.1248C15.0764 15.4418 14.2414 15.0958 13.2874 15.0878H13.1754C12.9459 15.0809 12.7201 15.0278 12.5115 14.9318C12.303 14.8358 12.1159 14.6987 11.9614 14.5288C11.7978 14.3609 11.669 14.1624 11.5824 13.9446C11.4957 13.7269 11.4529 13.4941 11.4564 13.2598C11.4564 12.7698 11.6344 12.3458 11.9884 11.9908C12.2894 11.6908 12.6464 11.5168 13.0584 11.4708L13.1784 11.4588L13.2244 11.4598C13.2721 11.4585 13.3198 11.4589 13.3674 11.4608C14.3074 11.4488 15.1254 11.0938 15.8244 10.3948C16.5704 9.64878 16.9344 8.76678 16.9154 7.74778C16.9154 7.34778 17.0524 6.98378 17.3254 6.65678L17.3524 6.62978L17.3794 6.60178C17.3794 6.58378 17.3894 6.57478 17.4064 6.57478L17.4344 6.54778V6.52078H17.4614V6.49178C17.4794 6.49178 17.4884 6.48278 17.4884 6.46478L17.5154 6.43778H17.5704C17.5704 6.41878 17.5804 6.40978 17.5974 6.40978L17.6254 6.38278V6.35578H17.6794C17.6794 6.33678 17.6894 6.32778 17.7064 6.32778L17.7344 6.30078L17.7614 6.27378H17.7884C17.7884 6.25578 17.7984 6.24678 17.8164 6.24678C17.8344 6.24678 17.8434 6.23678 17.8434 6.21878H17.8704L17.8974 6.19178H17.9524V6.16478H17.9794L18.0074 6.13678H18.0614V6.11178H18.1164L18.1434 6.08478H18.1984L18.2254 6.05778H18.3074L18.3344 6.02978H18.4164C18.4344 6.02978 18.4434 6.02078 18.4434 6.00278H19.0164L19.0304 6.01678C19.0394 6.02578 19.0524 6.02978 19.0704 6.02978H19.1254L19.1394 6.04378C19.1484 6.05278 19.1614 6.05778 19.1794 6.05778H19.2344L19.2614 6.08478H19.3164L19.3434 6.11178H19.3984C19.4164 6.12978 19.4344 6.13878 19.4524 6.13878L19.4804 6.16678H19.5344V6.19378H19.5624L19.5894 6.22078L19.6024 6.23478C19.6124 6.24478 19.6254 6.24878 19.6434 6.24878L19.6714 6.27578H19.6984C19.6984 6.29378 19.7164 6.30278 19.7524 6.30278L19.7804 6.32978V6.35778H19.8074C19.8074 6.37578 19.8254 6.38478 19.8624 6.38478C19.8624 6.40278 19.8714 6.41178 19.8894 6.41178V6.43978H19.9164L19.9444 6.46678C19.9624 6.48478 19.9804 6.49378 19.9984 6.49378L20.0254 6.52178C20.0254 6.53978 20.0354 6.54878 20.0534 6.54878V6.57578H20.0804C20.0804 6.59378 20.0854 6.60778 20.0944 6.61578L20.1074 6.63078C20.1074 6.64878 20.1174 6.65778 20.1354 6.65778L20.1624 6.68478C20.1624 6.70278 20.1664 6.71678 20.1754 6.72578L20.1894 6.73978L20.2164 6.76678L20.2444 6.79378V6.84878L20.2714 6.87578V6.90178H20.2984C20.2984 6.92078 20.3034 6.93378 20.3124 6.94278L20.3254 6.95678C20.3254 6.97478 20.3354 6.98378 20.3534 6.98378V7.01178C20.3534 7.02978 20.3574 7.04278 20.3664 7.05178L20.3804 7.06578L20.4074 7.09278C20.4074 7.12978 20.4174 7.14778 20.4354 7.14778V7.17478C20.4354 7.19378 20.4394 7.20678 20.4484 7.21578L20.4624 7.22978V7.28378L20.4894 7.31178V7.39378C20.5074 7.41178 20.5164 7.42978 20.5164 7.44778V7.52978C20.5354 7.54778 20.5444 7.56578 20.5444 7.58478V7.80178C20.5444 8.76578 20.8894 9.62078 21.5804 10.3668C22.2904 11.0758 23.1364 11.4398 24.1184 11.4578C24.6084 11.4398 25.0454 11.6078 25.4284 11.9628C25.8094 12.3168 26.0004 12.7488 26.0004 13.2588C26.0004 13.7678 25.8234 14.1988 25.4684 14.5548C25.3045 14.7254 25.1073 14.8607 24.889 14.9522C24.6708 15.0437 24.4361 15.0895 24.1994 15.0868C23.9652 15.0902 23.7327 15.0473 23.5151 14.9606C23.2975 14.874 23.0992 14.7452 22.9314 14.5818C22.7593 14.4231 22.621 14.2313 22.5247 14.0179C22.4285 13.8045 22.3764 13.5738 22.3714 13.3398C22.3904 12.3398 22.0264 11.4578 21.2814 10.6938C20.5534 9.96578 19.6714 9.61178 18.6344 9.62978C18.1629 9.64123 17.6983 9.74601 17.2674 9.93808C16.8366 10.1301 16.4481 10.4057 16.1244 10.7488C15.7893 11.0741 15.5244 11.4647 15.346 11.8964C15.1677 12.3281 15.0797 12.7918 15.0874 13.2588L15.0864 13.3428C15.1064 14.2728 15.4514 15.0998 16.1224 15.8228C16.8314 16.5328 17.6774 16.8968 18.6594 16.9148C19.3134 16.8788 19.8144 17.1148 20.1594 17.6248C20.5054 18.1148 20.6144 18.6348 20.4874 19.1798C20.2324 20.0898 19.6504 20.5438 18.7414 20.5438H18.6594C17.6404 20.5798 16.7944 20.9538 16.1224 21.6628C15.4304 22.3538 15.0854 23.1998 15.0854 24.1998C15.0854 24.6908 14.9084 25.1138 14.5534 25.4688C14.3895 25.6394 14.1923 25.7747 13.974 25.8662C13.7558 25.9577 13.5211 26.0035 13.2844 26.0008H13.2304C12.7394 26.0008 12.3204 25.8238 11.9754 25.4688C11.8082 25.3029 11.676 25.1051 11.5869 24.8871C11.4977 24.669 11.4533 24.4353 11.4564 24.1998C11.4564 23.1998 11.1114 22.3538 10.4204 21.6628C10.0967 21.3197 9.70823 21.0441 9.27741 20.8521C8.84659 20.66 8.38198 20.5552 7.91043 20.5438C7.66271 20.5576 7.41482 20.5198 7.18245 20.4329C6.95007 20.346 6.73826 20.2118 6.56043 20.0388C6.37889 19.8704 6.23511 19.6654 6.13858 19.4373C6.04206 19.2093 5.99497 18.9634 6.00043 18.7158C6.00043 18.2248 6.17743 17.8018 6.53243 17.4468C6.70066 17.2743 6.90245 17.1381 7.12535 17.0466C7.34824 16.9551 7.58752 16.9102 7.82843 16.9148V16.9158Z" fill="white"/>
</g>
<defs>
<clipPath id="clip0_1_6256">
<rect width="32" height="32" fill="white" transform="translate(0 0.00146484)"/>
</clipPath>
</defs>
</svg>
