<svg width="32" height="32" viewBox="0 0 32 32" fill="none" xmlns="http://www.w3.org/2000/svg">
<g clip-path="url(#clip0_1_6252)">
<path d="M16 32.0015C24.8366 32.0015 32 24.838 32 16.0015C32 7.16491 24.8366 0.00146484 16 0.00146484C7.16344 0.00146484 0 7.16491 0 16.0015C0 24.838 7.16344 32.0015 16 32.0015Z" fill="black"/>
<path d="M7.01104 23.0015C6.99702 22.7654 6.99635 22.5286 7.00904 22.2925C7.08904 22.2685 7.17104 22.2525 7.25504 22.2425C7.49704 22.2015 7.73604 22.1455 7.97204 22.0755C8.03604 22.0555 8.10004 22.0335 8.16204 22.0095C8.47204 21.8905 8.74604 21.6945 8.95404 21.4405C9.09804 21.2635 9.22404 21.0725 9.33204 20.8705C9.48404 20.5945 9.61904 20.3095 9.73804 20.0175C9.97904 19.4295 10.219 18.8395 10.458 18.2485L12.917 12.1555C13.694 10.2245 14.457 8.28846 15.204 6.34646C15.219 6.30646 15.236 6.26847 15.253 6.22847C15.529 6.15247 15.801 6.07446 16.083 6.00146C16.099 6.04146 16.115 6.07546 16.128 6.11146L17.078 8.71247C18.1539 11.6694 19.2449 14.6208 20.351 17.5665C20.655 18.3715 20.961 19.1765 21.27 19.9785C21.392 20.3065 21.535 20.6265 21.699 20.9365C21.7712 21.0689 21.8492 21.1981 21.933 21.3235C22.19 21.7155 22.589 21.9985 23.05 22.1145C23.298 22.1795 23.55 22.2285 23.804 22.2615L23.985 22.2875C24.011 22.3665 23.995 22.4425 23.997 22.5175C24 22.5935 23.997 22.6775 23.997 22.7585C24 22.8365 23.998 22.9135 23.993 22.9915C23.967 22.9955 23.947 22.9995 23.927 23.0015H17.564C17.5574 22.9879 17.5526 22.9734 17.55 22.9585V22.3195C17.5517 22.3099 17.5544 22.3005 17.558 22.2915C17.6108 22.2769 17.6646 22.2668 17.719 22.2615C17.981 22.2285 18.239 22.1785 18.495 22.1135C18.597 22.0855 18.698 22.0495 18.798 22.0135C18.848 21.9935 18.896 21.9705 18.942 21.9435C19.193 21.8055 19.294 21.5895 19.272 21.3135C19.2609 21.1884 19.2385 21.0645 19.205 20.9435C19.155 20.7535 19.085 20.5705 19.019 20.3865C17.7011 16.785 16.3974 13.1783 15.108 9.56646C15.094 9.52646 15.09 9.48346 15.049 9.44846C15.036 9.45646 15.019 9.46247 15.009 9.47346C14.9986 9.49169 14.9905 9.51119 14.985 9.53146C14.355 11.3075 13.684 13.0695 13.015 14.8315C12.522 16.1375 12.028 17.4415 11.568 18.7585C11.3844 19.2867 11.2061 19.8167 11.033 20.3485C10.9653 20.5514 10.9151 20.7599 10.883 20.9715C10.8586 21.1125 10.8545 21.2563 10.871 21.3985C10.8819 21.4911 10.9121 21.5805 10.9596 21.6607C11.0072 21.741 11.071 21.8104 11.147 21.8645C11.249 21.9355 11.361 21.9925 11.479 22.0315C11.667 22.0965 11.861 22.1455 12.058 22.1775C12.275 22.2165 12.494 22.2465 12.712 22.2805L12.759 22.2885C12.7643 22.304 12.7676 22.3201 12.769 22.3365V22.9545C12.7675 22.9667 12.7649 22.9787 12.761 22.9905C12.7416 22.9948 12.7219 22.9982 12.702 23.0005H7.01104V23.0015Z" fill="white"/>
</g>
<defs>
<clipPath id="clip0_1_6252">
<rect width="32" height="32" fill="white" transform="translate(0 0.00146484)"/>
</clipPath>
</defs>
</svg>
