<svg width="32" height="32" viewBox="0 0 32 32" fill="none" xmlns="http://www.w3.org/2000/svg">
<g clip-path="url(#clip0_1_6248)">
<path d="M16 32.0015C24.8366 32.0015 32 24.838 32 16.0015C32 7.16491 24.8366 0.00146484 16 0.00146484C7.16344 0.00146484 0 7.16491 0 16.0015C0 24.838 7.16344 32.0015 16 32.0015Z" fill="#2CD3E1"/>
<path d="M7.965 17.5995C7.9585 17.4939 7.95516 17.3882 7.955 17.2825C7.955 13.7655 10.697 10.9065 14.127 10.7845C14.209 10.7845 14.297 10.7845 14.379 10.7915L13.561 9.97847C13.561 9.97847 16.854 9.42846 21.082 11.9705C21.082 11.9705 21.144 12.0995 21.082 12.4785C21.082 12.4785 23.074 13.3325 23.244 14.9925C23.414 16.6525 22.358 17.6015 21.505 17.7365C21.505 17.7365 21.948 17.0525 21.267 16.6865C21.1185 16.6062 20.9506 16.5688 20.782 16.5785C19.48 16.5785 19.33 18.0555 19.33 18.0555C19.316 18.1295 19.316 18.2045 19.316 18.2785C19.316 18.2785 19.126 20.1575 22.238 20.3785C22.9492 19.4611 23.5723 18.4788 24.099 17.4445C24.9304 15.8138 25.5529 14.0848 25.952 12.2985C24.139 10.8125 22.001 9.53847 19.702 8.47147C18.84 8.07147 18.005 7.72447 17.214 7.42647C16.8108 7.27354 16.404 7.13017 15.994 6.99646C15.672 7.10046 15.264 7.24247 14.774 7.42647C13.984 7.72346 13.148 8.07147 12.287 8.47147C9.99 9.53747 7.851 10.8115 6.038 12.2995C6.136 12.7715 6.285 13.3605 6.499 14.0445C6.88064 15.2708 7.37127 16.4606 7.965 17.5995ZM27 11.9035L26.95 12.1835C26.924 12.4005 26.747 13.1785 26.529 13.9235C26.1308 15.2864 25.6055 16.6088 24.96 17.8735C24.054 19.6395 22.954 21.1795 21.692 22.4475C20.135 24.0085 18.333 25.1615 16.325 25.8795L16.213 25.9195L16 26.0015L15.789 25.9275L15.671 25.8865C13.6472 25.1597 11.8131 23.9863 10.305 22.4535C9.037 21.1735 7.938 19.6365 7.037 17.8795C6.19715 16.2287 5.56244 14.4814 5.147 12.6765C5.097 12.4525 5.042 12.1725 5.052 12.2125L5 11.9245L5.12 11.8245L5.208 11.7495C7.052 10.1975 9.233 8.86646 11.588 7.74746C12.9135 7.11109 14.2786 6.56095 15.675 6.10046L15.993 6.00146L16.21 6.06646L16.318 6.10146C17.398 6.44846 18.833 7.00146 20.402 7.74746C22.754 8.86446 24.932 10.1935 26.774 11.7425L27 11.9025V11.9035ZM19.398 12.6275C19.453 12.6005 19.63 12.5125 19.835 12.3025C20.244 12.3565 20.646 12.4855 20.646 12.4855C19.903 12.0385 18.886 11.7735 17.761 11.7805C17.761 11.7805 18.191 12.3905 19.384 12.6405L19.398 12.6275Z" fill="white"/>
</g>
<defs>
<clipPath id="clip0_1_6248">
<rect width="32" height="32" fill="white" transform="translate(0 0.00146484)"/>
</clipPath>
</defs>
</svg>
