<svg width="32" height="32" viewBox="0 0 32 32" fill="none" xmlns="http://www.w3.org/2000/svg">
<g clip-path="url(#clip0_1_6244)">
<path d="M16 32.0015C24.8366 32.0015 32 24.838 32 16.0015C32 7.16491 24.8366 0.00146484 16 0.00146484C7.16344 0.00146484 0 7.16491 0 16.0015C0 24.838 7.16344 32.0015 16 32.0015Z" fill="#1F4C9F"/>
<path fill-rule="evenodd" clip-rule="evenodd" d="M6 18.7515L16 6.00146L26 18.7515V23.0015L16 10.2515L6 23.0015V18.7515ZM16.5 20.0015C15.837 20.0015 15.2011 19.7381 14.7322 19.2692C14.2634 18.8004 14 18.1645 14 17.5015C14 16.8384 14.2634 16.2025 14.7322 15.7337C15.2011 15.2649 15.837 15.0015 16.5 15.0015C17.163 15.0015 17.7989 15.2649 18.2678 15.7337C18.7366 16.2025 19 16.8384 19 17.5015C19 18.1645 18.7366 18.8004 18.2678 19.2692C17.7989 19.7381 17.163 20.0015 16.5 20.0015Z" fill="white"/>
</g>
<defs>
<clipPath id="clip0_1_6244">
<rect width="32" height="32" fill="white" transform="translate(0 0.00146484)"/>
</clipPath>
</defs>
</svg>
