<svg width="32" height="32" viewBox="0 0 32 32" fill="none" xmlns="http://www.w3.org/2000/svg">
<g clip-path="url(#clip0_1_6240)">
<path d="M16 32.0015C24.8366 32.0015 32 24.838 32 16.0015C32 7.16491 24.8366 0.00146484 16 0.00146484C7.16344 0.00146484 0 7.16491 0 16.0015C0 24.838 7.16344 32.0015 16 32.0015Z" fill="#FD875E"/>
<path d="M13.66 16.8884L16.046 9.77643L18.476 16.8884H13.66ZM23.772 21.3854L21.799 16.0764H22.977C23.2001 16.0767 23.4144 15.9892 23.5734 15.8327C23.7325 15.6763 23.8236 15.4635 23.827 15.2404C23.827 15.0304 23.741 14.8274 23.59 14.6794C23.439 14.5314 23.232 14.4464 23.017 14.4464H21.177L20.882 13.6204H22.977C23.1953 13.6224 23.4058 13.5392 23.5637 13.3886C23.7217 13.2379 23.8147 13.0316 23.823 12.8134C23.824 12.5914 23.735 12.3794 23.575 12.2234C23.415 12.0674 23.199 11.9794 22.973 11.9804H20.253L18.78 8.01243C18.5583 7.44313 18.1944 6.94014 17.723 6.55143C17.2529 6.17418 16.6623 5.97956 16.06 6.00343C15.4559 5.98391 14.8642 6.17795 14.389 6.55143C13.9178 6.9405 13.553 7.44286 13.329 8.01143L11.786 12.0154H9.082C8.8682 12.0136 8.66233 12.0963 8.50928 12.2456C8.35623 12.3949 8.26842 12.5986 8.265 12.8124C8.265 13.2704 8.644 13.6414 9.112 13.6414H11.165L10.849 14.4454H9.009C8.90276 14.4442 8.79732 14.464 8.69872 14.5035C8.60011 14.5431 8.51026 14.6017 8.4343 14.676C8.35834 14.7503 8.29776 14.8388 8.25601 14.9365C8.21427 15.0342 8.19218 15.1392 8.191 15.2454C8.191 15.6994 8.565 16.0664 9.027 16.0684H10.208L8.202 21.3844C8.079 21.6844 8.011 22.0024 8 22.3254C8.02 22.7784 8.222 23.2054 8.56 23.5154C8.93413 23.8322 9.40981 24.0037 9.9 23.9984C10.3095 24.0231 10.7152 23.9072 11.0498 23.6699C11.3844 23.4326 11.6279 23.0881 11.74 22.6934L12.516 20.4244H19.66L20.437 22.7474C20.5631 23.1287 20.8121 23.4573 21.1452 23.6818C21.4782 23.9062 21.8763 24.0137 22.277 23.9874C22.587 23.9944 22.892 23.9174 23.161 23.7674C23.394 23.5974 23.601 23.3974 23.775 23.1694C23.9268 22.9144 24.0047 22.6222 24 22.3254C23.9513 22.0103 23.875 21.7002 23.772 21.3984V21.3854Z" fill="#FEFEFE"/>
</g>
<defs>
<clipPath id="clip0_1_6240">
<rect width="32" height="32" fill="white" transform="translate(0 0.00146484)"/>
</clipPath>
</defs>
</svg>
