<svg width="32" height="32" viewBox="0 0 32 32" fill="none" xmlns="http://www.w3.org/2000/svg">
<g clip-path="url(#clip0_1_6230)">
<path d="M16.0005 32.0015C24.837 32.0015 32.0005 24.838 32.0005 16.0015C32.0005 7.16491 24.837 0.00146484 16.0005 0.00146484C7.16393 0.00146484 0.000488281 7.16491 0.000488281 16.0015C0.000488281 24.838 7.16393 32.0015 16.0005 32.0015Z" fill="#A71435"/>
<path d="M10.6473 5.24446C13.1189 4.0186 15.9388 3.68679 18.6274 4.30546C21.3161 4.92414 23.7074 6.4551 25.3946 8.63794C27.0818 10.8208 27.9608 13.5207 27.8819 16.2785C27.8031 19.0362 26.7714 21.6815 24.9623 23.7645C24.3673 22.4685 23.9113 21.1095 23.4013 19.7715L20.3213 11.7015C20.0243 10.8835 19.5253 10.0975 18.7503 9.67246C17.6651 9.14931 16.4489 8.96065 15.2563 9.13047C14.3003 9.23746 13.3023 9.56646 12.6543 10.3205C12.0383 11.0315 11.7623 11.9455 11.4123 12.8055L9.19228 18.4335C8.44928 20.2175 7.82228 22.0655 7.01528 23.8385C5.85286 22.583 4.99865 21.0742 4.52028 19.4315C3.69363 16.7214 3.85706 13.8057 4.98138 11.205C6.10571 8.60432 8.11774 6.48785 10.6583 5.23347L10.6473 5.24347V5.24446Z" fill="white"/>
<path d="M15.0445 13.6654C15.2565 13.0284 16.1065 12.8154 16.6585 13.1774C16.9555 13.4004 17.0625 13.7824 17.2005 14.1224C18.5805 17.7324 19.9405 21.3644 21.3105 24.9864C21.4905 25.5064 21.7555 26.0054 21.8625 26.5464C21.7756 26.639 21.6751 26.7179 21.5645 26.7804C20.0662 27.582 18.4144 28.0554 16.719 28.169C15.0235 28.2826 13.3233 28.0339 11.7315 27.4394C11.1365 27.1944 10.5215 26.9824 10.0005 26.6104C10.0535 26.1224 10.2975 25.6864 10.4785 25.2404C12.0075 21.3864 13.5045 17.5204 15.0445 13.6654Z" fill="white"/>
</g>
<defs>
<clipPath id="clip0_1_6230">
<rect width="32" height="32" fill="white" transform="translate(0.000488281 0.00146484)"/>
</clipPath>
</defs>
</svg>
