<svg width="32" height="32" viewBox="0 0 32 32" fill="none" xmlns="http://www.w3.org/2000/svg">
<g clip-path="url(#clip0_1_6226)">
<path d="M16.0005 32.0015C24.837 32.0015 32.0005 24.838 32.0005 16.0015C32.0005 7.16491 24.837 0.00146484 16.0005 0.00146484C7.16393 0.00146484 0.000488281 7.16491 0.000488281 16.0015C0.000488281 24.838 7.16393 32.0015 16.0005 32.0015Z" fill="#F70000"/>
<path d="M15.9475 13.3485L5.00049 24.8915L15.9965 7.00146L27.0005 25.0015L15.9475 13.3485ZM17.5355 17.9335H14.1135L15.8735 15.9975L17.5355 17.9505V17.9335ZM10.9355 21.1105V21.0865L12.8765 19.0995V19.0905L18.7965 19.0655L20.7945 21.1105H10.9365H10.9355Z" fill="white"/>
</g>
<defs>
<clipPath id="clip0_1_6226">
<rect width="32" height="32" fill="white" transform="translate(0.000488281 0.00146484)"/>
</clipPath>
</defs>
</svg>
