<svg width="32" height="32" viewBox="0 0 32 32" fill="none" xmlns="http://www.w3.org/2000/svg">
<g clip-path="url(#clip0_1_6222)">
<path d="M16.0005 32.0015C24.837 32.0015 32.0005 24.838 32.0005 16.0015C32.0005 7.16491 24.837 0.00146484 16.0005 0.00146484C7.16393 0.00146484 0.000488281 7.16491 0.000488281 16.0015C0.000488281 24.838 7.16393 32.0015 16.0005 32.0015Z" fill="#0092B5"/>
<path d="M11.7601 13.6035L16.0421 6.06546C16.0501 6.05146 16.0661 6.04246 16.1221 6.06546L20.1961 13.4665C20.0819 13.5597 19.9903 13.6776 19.9281 13.8113C19.866 13.945 19.835 14.0911 19.8374 14.2385C19.8398 14.386 19.8756 14.5309 19.942 14.6625C20.0085 14.7942 20.1039 14.909 20.2211 14.9985L16.4581 21.7865C16.3241 21.7221 16.1775 21.6882 16.0288 21.6871C15.8801 21.6861 15.733 21.718 15.5981 21.7805L11.7251 14.8815C11.8846 14.7087 11.9759 14.4839 11.9821 14.2488C11.9884 14.0138 11.9091 13.7845 11.7591 13.6035H11.7601ZM11.3501 15.1375L15.2381 22.0625C15.1542 22.1674 15.0929 22.2887 15.0581 22.4185C11.9191 21.6665 9.96912 21.2015 9.20612 21.0225C8.88343 20.5686 8.60102 20.0875 8.36212 19.5845L10.8541 15.1985C11.0219 15.2197 11.1923 15.1991 11.3501 15.1385V15.1375ZM10.8111 13.2545L7.72412 7.75447C9.82812 6.63747 12.4391 6.05146 15.5591 6.00146L11.3971 13.3275C11.2135 13.2452 11.0094 13.2198 10.8111 13.2545ZM10.3911 13.4305C10.2628 13.523 10.1589 13.6454 10.0884 13.787C10.0178 13.9286 9.98269 14.0852 9.98603 14.2434C9.98938 14.4016 10.0311 14.5566 10.1076 14.6951C10.1841 14.8335 10.293 14.9514 10.4251 15.0385L8.13512 19.0685C7.75464 18.1262 7.52841 17.1287 7.46512 16.1145L7.00212 8.73246C6.9935 8.59031 7.01915 8.44816 7.07693 8.31799C7.13471 8.18782 7.22291 8.07343 7.33412 7.98446L10.3911 13.4305ZM16.9911 22.4285C16.9577 22.2994 16.8981 22.1786 16.8161 22.0735L20.6341 15.1865C20.7989 15.2195 20.9693 15.2113 21.1301 15.1625L23.6041 19.6565C23.3941 20.0885 23.1521 20.5045 22.8801 20.9015L16.9911 22.4285ZM16.2501 23.6285C16.4313 23.5875 16.5973 23.4965 16.7294 23.3659C16.8614 23.2352 16.9542 23.0702 16.9971 22.8895L22.4531 21.4745C21.7936 22.2944 21.0045 23.001 20.1171 23.5665L16.4941 25.8805C16.4186 25.9289 16.3364 25.966 16.2501 25.9905V23.6285ZM15.7961 23.6285V26.0015C15.6932 25.9782 15.5951 25.9372 15.5061 25.8805L11.8831 23.5665C11.036 23.0265 10.2782 22.3579 9.63712 21.5845C10.6271 21.8195 12.4301 22.2495 15.0461 22.8755C15.1261 23.2485 15.4201 23.5435 15.7961 23.6295V23.6285ZM21.1661 13.2945C20.9846 13.2318 20.789 13.222 20.6021 13.2665L16.6051 6.00446C19.6371 6.07146 22.1851 6.65046 24.2461 7.73946L21.1661 13.2945ZM21.5491 13.5355L24.6391 7.96346C24.7584 8.05151 24.8539 8.16797 24.9167 8.30227C24.9796 8.43656 25.0079 8.58444 24.9991 8.73246L24.5361 16.1155C24.4709 17.1555 24.2344 18.1775 23.8361 19.1405L21.5221 14.9375C21.6181 14.8484 21.6951 14.741 21.7486 14.6215C21.8021 14.5021 21.831 14.3731 21.8335 14.2422C21.836 14.1113 21.8121 13.9813 21.7633 13.8599C21.7144 13.7385 21.6416 13.6281 21.5491 13.5355ZM16.0001 10.7355C15.8585 10.7377 15.7233 10.7945 15.6225 10.894C15.5217 10.9934 15.4632 11.1279 15.4591 11.2695V13.2235L12.5731 15.0015L12.8821 15.6685L15.4591 14.8245V16.7785L14.7371 17.3115V17.8445L16.0001 17.4885L17.2631 17.8435V17.3105L16.5411 16.7775V14.8235L19.0741 15.7135L19.4271 15.0015L16.5411 13.2235V11.2695C16.5368 11.1283 16.4783 10.9942 16.3777 10.8949C16.2772 10.7957 16.1424 10.739 16.0011 10.7365L16.0001 10.7355Z" fill="white"/>
</g>
<defs>
<clipPath id="clip0_1_6222">
<rect width="32" height="32" fill="white" transform="translate(0.000488281 0.00146484)"/>
</clipPath>
</defs>
</svg>
