<svg width="32" height="32" viewBox="0 0 32 32" fill="none" xmlns="http://www.w3.org/2000/svg">
<g clip-path="url(#clip0_1_6216)">
<path d="M16.0005 32.0015C24.837 32.0015 32.0005 24.838 32.0005 16.0015C32.0005 7.16491 24.837 0.00146484 16.0005 0.00146484C7.16393 0.00146484 0.000488281 7.16491 0.000488281 16.0015C0.000488281 24.838 7.16393 32.0015 16.0005 32.0015Z" fill="#436697"/>
<path d="M19.0395 20.6905C18.9907 20.6882 18.9436 20.6723 18.9035 20.6445C18.867 20.6217 18.8363 20.5909 18.8135 20.5545H18.8045L16.5865 24.4495C18.8405 23.9545 21.0865 23.4495 23.3395 22.9535C23.288 22.8897 23.2399 22.8233 23.1955 22.7545C23.1325 22.6645 23.0785 22.5565 23.0155 22.4395C22.9579 22.333 22.9039 22.2246 22.8535 22.1145V22.1055C22.8535 22.0965 22.8435 22.0875 22.8435 22.0875C22.7364 21.8597 22.6373 21.6282 22.5465 21.3935C22.5195 21.3305 22.5015 21.2765 22.4745 21.2225C22.3372 20.8828 22.2079 20.5401 22.0865 20.1945C21.7075 20.2665 21.3925 20.3295 21.1765 20.3745C21.1665 20.3745 21.1575 20.3745 21.1485 20.3835C20.8155 20.4555 20.4995 20.5185 20.1935 20.5735C20.0215 20.6085 19.8595 20.6265 19.7065 20.6535C19.6705 20.6635 19.6255 20.6635 19.5715 20.6725C19.5715 20.6725 19.4625 20.6905 19.3185 20.6995C19.2251 20.7066 19.1312 20.7032 19.0385 20.6895L19.0395 20.6905ZM21.1125 17.2455C21.0645 17.0733 21.0254 16.8987 20.9955 16.7225L19.3005 19.6985L19.3105 19.6885C19.3815 19.6625 19.4625 19.6355 19.5625 19.6085C19.7965 19.5355 20.0845 19.4635 20.4365 19.3735C20.7885 19.2835 21.2035 19.1835 21.6895 19.0585C21.5905 18.7605 21.4825 18.4545 21.3835 18.1385C21.282 17.8444 21.1919 17.5465 21.1135 17.2455H21.1125ZM23.7275 11.9715H23.6915L21.5015 15.8215C21.5095 15.8215 21.5275 15.8305 21.5545 15.8305C21.5645 15.8305 21.5645 15.8305 21.5725 15.8395C21.5825 15.8395 21.5825 15.8395 21.5905 15.8485C21.6005 15.8485 21.6005 15.8575 21.6085 15.8575C21.6185 15.8575 21.6185 15.8575 21.6265 15.8665C21.6531 15.8807 21.6774 15.8989 21.6985 15.9205C21.7345 15.9565 21.7625 15.9925 21.7715 16.0015C21.7805 16.0115 21.7805 16.0195 21.7895 16.0285C21.8095 16.0572 21.8275 16.0873 21.8435 16.1185C21.8885 16.1995 21.9155 16.2445 21.9155 16.2445C22.0235 16.4525 22.1315 16.6955 22.2395 16.9845C22.3485 17.2725 22.4655 17.5795 22.5735 17.9045C22.6005 17.9765 22.6185 18.0395 22.6455 18.1115C22.7085 18.3015 22.7895 18.5355 22.8805 18.8055C23.2585 18.7335 23.6195 18.6615 23.9705 18.5985C24.3225 18.5355 24.6385 18.4905 24.9265 18.4635C25.2155 18.4355 25.4585 18.4175 25.6665 18.4265C25.7835 18.4265 25.8735 18.4365 25.9545 18.4545C25.9725 18.4545 25.9995 18.4635 26.0175 18.4635C25.8465 17.9855 25.6665 17.4535 25.4585 16.8855L23.7285 11.9715H23.7275ZM25.7925 19.2655C25.5433 19.357 25.2904 19.4381 25.0345 19.5085C24.9805 19.5265 24.9265 19.5355 24.8815 19.5545C24.8365 19.5635 24.7915 19.5815 24.7465 19.5905C24.6212 19.6248 24.4948 19.6548 24.3675 19.6805C24.296 19.7006 24.224 19.7186 24.1515 19.7345H24.1415C23.9255 19.7885 23.6375 19.8515 23.3035 19.9245C23.3755 20.1765 23.4665 20.4555 23.5735 20.7715C23.6735 21.0865 23.7735 21.3935 23.8535 21.6815C23.8805 21.7715 23.8985 21.8535 23.9255 21.9435C23.9715 22.0785 24.0075 22.2135 24.0345 22.3765C24.0435 22.4035 24.0435 22.4305 24.0525 22.4565C24.0885 22.6015 24.0975 22.7095 24.0885 22.7905C24.0885 22.7905 24.4665 22.7185 24.6565 22.6735C25.4044 21.71 25.9864 20.6285 26.3785 19.4735C26.3245 19.3105 26.2705 19.1575 26.2165 18.9945C26.1345 19.1035 25.9995 19.1845 25.7925 19.2655ZM13.9355 5.29046H13.9715C14.0075 5.29046 14.0535 5.30846 14.1075 5.34446C14.1345 5.36246 14.1705 5.38046 14.1975 5.40746C14.2357 5.43477 14.2718 5.46485 14.3055 5.49746C14.4675 5.64146 14.6485 5.81346 14.8555 6.02046C15.0535 6.21846 15.2615 6.43546 15.4775 6.67046C15.6845 6.89446 15.8745 7.10246 16.0455 7.27346C16.1265 7.19246 16.2075 7.10246 16.2895 7.00346C16.3885 6.89446 16.4875 6.78647 16.5865 6.66947C16.6865 6.56147 16.7845 6.44446 16.8935 6.34446C16.9925 6.23646 17.0915 6.13747 17.1905 6.03847L17.3345 5.89446C17.3895 5.84046 17.4435 5.79447 17.4885 5.74946C17.5785 5.66947 17.6595 5.59646 17.7405 5.53346C17.9125 5.38946 18.0385 5.32647 18.1375 5.32647C18.1735 5.32647 18.2095 5.33546 18.2455 5.34446L18.1465 5.22646L17.8845 5.17246C17.8755 5.17246 17.8665 5.17247 17.8575 5.16347C17.7775 5.14547 17.6955 5.13646 17.6145 5.12746H17.5965C17.5155 5.11846 17.4255 5.10046 17.3445 5.09146H17.3345C16.8845 5.03746 16.4245 5.00146 15.9555 5.00146H15.7025C15.6225 5.00146 15.5495 5.01147 15.4775 5.01147H15.4505C15.3695 5.01147 15.2975 5.01946 15.2165 5.02846H15.2065C14.7925 5.05546 14.3865 5.10946 13.9895 5.18146C13.9535 5.21746 13.9265 5.25446 13.8905 5.29946C13.9085 5.29946 13.9175 5.28946 13.9355 5.28946V5.29046ZM7.75049 10.4205C7.79549 10.3845 7.85049 10.3305 7.94049 10.2945C8.04526 10.2463 8.15832 10.2188 8.27349 10.2135C8.42649 10.2035 8.54349 10.2495 8.60749 10.2675C10.0405 8.65347 11.4745 7.04746 12.9075 5.43446L12.5565 5.54246C11.7535 5.81246 10.6895 6.26347 9.58049 7.05747C8.61179 7.76098 7.76001 8.61276 7.05649 9.58147C6.98449 9.69047 6.90349 9.78947 6.83049 9.89747C7.13749 10.0685 7.44449 10.2495 7.75049 10.4205ZM7.51649 11.4935C7.45073 11.3715 7.41636 11.235 7.41649 11.0965V11.0335C7.41649 11.0335 7.42649 10.9885 7.42649 10.9705L6.49649 10.4475C5.58433 11.9989 5.07038 13.7521 5.00049 15.5505V16.3085C5.02749 17.1555 5.14449 17.9765 5.35249 18.7605C6.15449 16.4345 6.96649 14.1175 7.76849 11.7905C7.66395 11.7109 7.57796 11.6096 7.51649 11.4935ZM18.4625 5.85846C18.4417 5.92264 18.4114 5.98332 18.3725 6.03847C18.3117 6.15008 18.2452 6.25855 18.1735 6.36346C18.1285 6.42646 18.0835 6.49847 18.0385 6.57047C17.9207 6.74282 17.7973 6.91124 17.6685 7.07546C17.6055 7.14746 17.5515 7.22846 17.4885 7.30946C17.4785 7.31946 17.4705 7.33646 17.4615 7.34546C17.3445 7.49046 17.2175 7.64347 17.0825 7.79646C16.9825 7.91347 16.8925 8.02246 16.7845 8.13946C16.9205 8.29246 17.0735 8.45447 17.2265 8.63547C17.2805 8.68947 17.3345 8.75246 17.3805 8.81546C17.4885 8.93246 17.5875 9.04946 17.6865 9.16746L17.9755 9.50946C18.1555 9.73546 18.3085 9.93347 18.4355 10.1135C18.5435 10.2765 18.5975 10.3935 18.6155 10.4835V10.5195C18.6155 10.6095 18.5705 10.6995 18.4895 10.7815H22.7995C22.8264 10.7106 22.8628 10.6437 22.9075 10.5825L18.4975 5.63246V5.65047C18.5002 5.72146 18.4882 5.79225 18.4625 5.85846ZM21.0495 6.25447C21.0315 6.24547 21.0225 6.23646 21.0045 6.23646C20.8839 6.17107 20.7604 6.11101 20.6345 6.05646C20.6108 6.05 20.5891 6.03761 20.5715 6.02046C20.4523 5.96479 20.3322 5.91078 20.2115 5.85846C20.1845 5.84846 20.1665 5.84046 20.1395 5.83146C20.0093 5.7747 19.8769 5.72333 19.7425 5.67746C19.7245 5.66846 19.7065 5.66846 19.6885 5.65946C19.5535 5.60546 19.4085 5.56046 19.2645 5.51546C20.6625 7.08446 22.0595 8.66246 23.4665 10.2315C23.4845 10.2315 23.5115 10.2215 23.5295 10.2215H23.7185C23.7635 10.2315 23.8445 10.2405 23.9445 10.2765C23.9535 10.2765 23.9625 10.2855 23.9715 10.2945C23.9805 10.3035 23.9985 10.3035 24.0075 10.3125C24.0751 10.3471 24.1385 10.3893 24.1965 10.4385C24.2055 10.4385 24.2055 10.4475 24.2145 10.4475C24.2415 10.4655 24.2595 10.4925 24.2775 10.5105C24.5755 10.3395 24.8725 10.1765 25.1615 10.0055C24.2144 8.55736 22.9423 7.35034 21.4465 6.48046H21.4375C21.3115 6.39946 21.1755 6.32647 21.0495 6.25447ZM17.6685 10.6545C17.6235 10.6185 17.5875 10.5825 17.5425 10.5465L17.2625 10.2945L17.1185 10.1495C16.9585 9.99391 16.805 9.83177 16.6585 9.66347C16.5505 9.54546 16.4515 9.42846 16.3525 9.32046C16.2525 9.20346 16.1445 9.09446 16.0455 8.98646C15.7125 9.32946 15.4325 9.62646 15.1985 9.87946C15.1445 9.93346 15.0895 9.99647 15.0355 10.0505L15.0175 10.0685C14.9095 10.1765 14.8195 10.2765 14.7295 10.3665L14.6035 10.4925C14.495 10.5983 14.3804 10.6978 14.2605 10.7905H17.8215C17.8125 10.7805 17.7945 10.7725 17.7855 10.7635C17.7495 10.7175 17.7055 10.6905 17.6685 10.6545ZM9.12149 10.7815H13.5755C13.5575 10.7635 13.5395 10.7355 13.5215 10.7175C13.5035 10.6995 13.4945 10.6725 13.4845 10.6545C13.4665 10.6095 13.4485 10.5645 13.4485 10.5195C13.4485 10.4925 13.4585 10.4565 13.4665 10.4115C13.4665 10.4015 13.4765 10.3935 13.4765 10.3845C13.4845 10.3665 13.4945 10.3395 13.5125 10.3125C13.5395 10.2585 13.5755 10.1945 13.6205 10.1325C13.6295 10.1225 13.6295 10.1135 13.6385 10.1135C13.9087 9.73367 14.2005 9.36974 14.5125 9.02346C14.57 8.95491 14.63 8.88853 14.6925 8.82447C14.7565 8.76147 14.8105 8.68947 14.8735 8.62647C15.0085 8.47247 15.1435 8.31947 15.2615 8.17547C15.2705 8.16547 15.2795 8.15746 15.2795 8.14846C14.9504 7.76701 14.6287 7.37927 14.3145 6.98547C14.2245 6.86747 14.1435 6.75047 14.0625 6.64247C13.9288 6.45387 13.8053 6.25826 13.6925 6.05646L13.6385 5.94846C13.6205 5.91246 13.6115 5.87646 13.5935 5.84846C13.5755 5.78546 13.5575 5.73146 13.5575 5.68646L9.08449 10.6995C9.09449 10.7265 9.11249 10.7545 9.12149 10.7815ZM16.3705 26.9295C19.2505 26.8249 21.9726 25.5871 23.9445 23.4855C21.4195 24.0445 18.8945 24.6035 16.3705 25.1535V26.9295ZM26.8115 17.5885C26.8205 17.5525 26.8205 17.5255 26.8295 17.4885C26.8385 17.3985 26.8565 17.3185 26.8655 17.2285V17.2185L26.8925 16.9385C26.8925 16.9125 26.9015 16.8855 26.9015 16.8585C26.9015 16.8045 26.9105 16.7585 26.9105 16.7045C26.9285 16.4245 26.9375 16.1645 26.9375 15.9205C26.9295 14.2801 26.5536 12.6623 25.8375 11.1865L25.8105 11.1325C25.7745 11.0515 25.7295 10.9795 25.6935 10.8985L25.6395 10.7905C25.5945 10.7085 25.5495 10.6185 25.5035 10.5375C25.1705 10.7275 24.8455 10.9075 24.5125 11.0975C24.5125 11.1235 24.5125 11.1505 24.5025 11.1775C24.4945 11.2315 24.4845 11.2775 24.4755 11.3225C24.4665 11.3495 24.4575 11.3675 24.4485 11.3945C24.4228 11.461 24.3896 11.5245 24.3495 11.5835C24.3315 11.6015 24.3225 11.6195 24.3045 11.6375C25.0895 13.9005 25.8735 16.1545 26.6575 18.4175C26.7035 18.2285 26.7395 18.0305 26.7755 17.8405C26.7755 17.8225 26.7845 17.8045 26.7845 17.7775C26.7955 17.7144 26.8045 17.6511 26.8115 17.5875V17.5885Z" fill="white"/>
<path d="M23.1315 11.0015C23.186 11.1422 23.2763 11.2663 23.3935 11.3615L16.3335 23.7775L9.24649 11.3075C9.33109 11.2186 9.39855 11.1148 9.44549 11.0015H23.1315ZM15.9995 19.1435C15.8755 19.1435 15.7745 19.2435 15.7745 19.3685V19.3725C15.7745 19.4825 15.8435 19.5695 15.9395 19.5945L15.9995 19.6025C16.0296 19.6029 16.0595 19.5972 16.0874 19.5857C16.1153 19.5743 16.1405 19.5573 16.1617 19.5358C16.1828 19.5143 16.1993 19.4887 16.2103 19.4607C16.2213 19.4326 16.2264 19.4026 16.2255 19.3725V19.3685C16.2255 19.3388 16.2196 19.3095 16.2083 19.2821C16.1969 19.2548 16.1802 19.2299 16.1592 19.209C16.1382 19.1881 16.1133 19.1716 16.0859 19.1603C16.0585 19.1491 16.0291 19.1433 15.9995 19.1435ZM14.0985 16.9235C14.0536 16.9234 14.0096 16.9368 13.9724 16.9619C13.9351 16.9871 13.9063 17.0228 13.8895 17.0645L13.8815 17.0885L13.8735 17.1485C13.8735 17.2755 13.9725 17.3745 14.0985 17.3745C14.2245 17.3745 14.3235 17.2755 14.3235 17.1495C14.3235 17.0235 14.2245 16.9235 14.0985 16.9235ZM17.7145 12.4875C17.2635 12.3205 16.9965 12.5025 16.8805 12.6235L16.8715 12.6335C16.8446 12.6597 16.8217 12.6897 16.8035 12.7225C16.8035 12.7315 16.7935 12.7405 16.8035 12.7405C16.8035 12.7495 16.8125 12.7495 16.8215 12.7585C17.6235 13.1555 18.2285 13.4615 18.4895 13.5965L18.5165 13.6145C18.5435 13.6325 18.6245 13.6695 18.6335 13.7325C18.6445 13.7855 18.6105 13.8395 18.5655 13.8875L18.5265 13.9255L18.4805 13.9665L18.4405 14.0005C18.3375 14.0865 18.1995 14.1985 17.4435 14.7875C17.4127 14.8185 17.376 14.843 17.3355 14.8595C17.2967 14.8808 17.2537 14.8931 17.2095 14.8955H17.1825C17.1375 14.8955 17.1005 14.8955 16.9475 14.8325C16.8816 14.8071 16.8107 14.7978 16.7405 14.8055L16.6505 14.8325C16.6325 14.8415 16.6235 14.8505 16.6055 14.8595C16.5972 14.8673 16.5885 14.8746 16.5795 14.8815L16.5965 14.8685C16.5733 14.8842 16.5519 14.9023 16.5325 14.9225C16.5235 14.9315 16.5235 14.9405 16.5235 14.9495C16.5375 14.9495 16.5465 14.9495 16.5535 14.9535L16.5565 14.9615L16.5695 14.9675C16.5875 14.9675 16.5965 14.9675 16.6145 14.9765C16.6367 14.977 16.6584 14.9832 16.6775 14.9945C16.7518 15.0248 16.8223 15.0637 16.8875 15.1105L16.8395 15.0755C16.8777 15.1028 16.9137 15.1329 16.9475 15.1655C16.9801 15.1992 17.0102 15.2353 17.0375 15.2735L17.1195 15.3915L17.1915 15.4905C17.2118 15.5304 17.227 15.5727 17.2365 15.6165C17.2543 15.6782 17.2634 15.7422 17.2635 15.8065V15.9145C17.2635 15.9235 17.2635 15.9325 17.2725 15.9415L17.2765 15.9435L17.2815 15.9505H17.3085C17.3355 15.9325 17.3625 15.9235 17.3805 15.9055C17.3895 15.8875 17.4075 15.8785 17.4165 15.8695C17.4421 15.8518 17.4611 15.8261 17.4705 15.7965C17.5065 15.7165 17.5065 15.6345 17.5065 15.5895C17.4885 15.4185 17.5065 15.3825 17.5245 15.3465C17.5245 15.3365 17.5345 15.3285 17.5345 15.3195C17.5505 15.2787 17.5747 15.2416 17.6055 15.2105C17.6395 15.1778 17.676 15.1477 17.7145 15.1205C18.0511 14.8779 18.3942 14.6445 18.7435 14.4205L18.8055 14.3805C18.8855 14.3365 19.0035 14.2555 19.0855 14.3005C19.0963 14.3069 19.1061 14.315 19.1145 14.3245C19.1385 14.3635 19.1505 14.4185 19.1565 14.4445L19.1665 14.4895C19.2195 14.8055 19.3285 15.4545 19.4635 16.3195C19.4635 16.3295 19.4725 16.3375 19.4725 16.3375C19.4735 16.3435 19.4755 16.3475 19.4815 16.3475C19.4905 16.3555 19.4905 16.3555 19.4995 16.3555C19.5085 16.3555 20.0225 16.2385 19.9865 15.5625L19.9145 13.9485V13.9085C19.9162 13.8244 19.9375 13.7419 19.9765 13.6675C20.0155 13.593 20.0713 13.5287 20.1395 13.4795L20.6265 13.0925C20.6265 13.0925 20.9235 12.8845 20.8695 12.5605C20.8605 12.5505 20.8605 12.5425 20.8515 12.5425L20.8585 12.5465C20.8515 12.5355 20.8475 12.5325 20.8425 12.5325C20.5455 12.3795 20.2655 12.6055 20.2655 12.6055L19.7425 12.9565C19.671 13.0132 19.5857 13.0498 19.4953 13.0624C19.4049 13.0751 19.3128 13.0634 19.2285 13.0285L18.7415 12.8585L17.7145 12.4875ZM13.6565 13.0285C13.5967 13.0287 13.5395 13.0527 13.4973 13.095C13.4552 13.1374 13.4315 13.1947 13.4315 13.2545V13.2585C13.4315 13.3685 13.5005 13.4545 13.5965 13.4805L13.6565 13.4885C13.6866 13.4889 13.7165 13.4832 13.7444 13.4717C13.7723 13.4603 13.7975 13.4433 13.8187 13.4218C13.8398 13.4003 13.8563 13.3747 13.8673 13.3467C13.8783 13.3186 13.8834 13.2886 13.8825 13.2585V13.2545C13.8825 13.1945 13.8587 13.137 13.8163 13.0947C13.7739 13.0523 13.7164 13.0285 13.6565 13.0285ZM15.3605 11.9015C15.3007 11.9017 15.2435 11.9257 15.2013 11.968C15.1592 12.0104 15.1355 12.0677 15.1355 12.1275V12.1315C15.1355 12.2415 15.2045 12.3275 15.3005 12.3535L15.3605 12.3615C15.3906 12.3619 15.4205 12.3562 15.4484 12.3447C15.4763 12.3333 15.5015 12.3163 15.5227 12.2948C15.5438 12.2733 15.5603 12.2477 15.5713 12.2197C15.5823 12.1916 15.5874 12.1616 15.5865 12.1315V12.1275C15.5865 12.0675 15.5627 12.01 15.5203 11.9677C15.4779 11.9253 15.4204 11.9015 15.3605 11.9015ZM11.2405 11.9015C11.2108 11.9015 11.1814 11.9073 11.154 11.9187C11.1266 11.93 11.1017 11.9467 11.0807 11.9677C11.0597 11.9886 11.043 12.0136 11.0317 12.041C11.0203 12.0684 11.0145 12.0978 11.0145 12.1275L11.0155 12.1315C11.0155 12.2415 11.0835 12.3275 11.1795 12.3535L11.2395 12.3615C11.2696 12.3619 11.2995 12.3562 11.3274 12.3447C11.3553 12.3333 11.3805 12.3163 11.4017 12.2948C11.4228 12.2733 11.4393 12.2477 11.4503 12.2197C11.4613 12.1916 11.4664 12.1616 11.4655 12.1315V12.1275C11.4655 12.0025 11.3655 11.9015 11.2405 11.9015ZM8.31849 22.0555C8.35449 21.8835 8.39849 21.7035 8.45349 21.4955L8.50749 21.2795C8.58849 20.9915 8.67849 20.6845 8.78749 20.3695C8.81349 20.2885 8.84049 20.2155 8.85849 20.1435C8.90449 19.9995 8.94849 19.8555 8.99449 19.7205C9.01126 19.6558 9.03231 19.5923 9.05749 19.5305C8.81349 19.4765 8.52549 19.4045 8.21849 19.3405C7.91635 19.2729 7.61592 19.1979 7.31749 19.1155C7.10049 19.0525 6.90249 18.9985 6.73149 18.9355C6.66849 18.9175 6.61349 18.8905 6.55949 18.8725C6.49513 18.8487 6.43205 18.8217 6.37049 18.7915C6.32318 18.7685 6.27801 18.7414 6.23549 18.7105C6.15449 18.9355 6.08149 19.1605 6.00049 19.3865C6.38849 20.4235 6.92049 21.3795 7.58749 22.2445C7.82249 22.2985 8.04749 22.3445 8.28149 22.3975C8.27862 22.2823 8.29106 22.1673 8.31849 22.0555ZM6.46049 18.0435C6.53249 18.0335 6.60449 18.0245 6.69549 18.0245C6.90249 18.0245 7.14549 18.0345 7.42549 18.0615C7.71349 18.0885 8.02949 18.1335 8.37249 18.1965C8.72349 18.2595 9.08449 18.3225 9.45449 18.4035C9.55349 18.1235 9.65249 17.8265 9.76049 17.5025C9.91067 17.0609 10.0761 16.6246 10.2565 16.1945C10.307 16.0788 10.361 15.9648 10.4185 15.8525C10.4545 15.7705 10.4905 15.7075 10.5275 15.6535C10.5566 15.6085 10.5897 15.5664 10.6265 15.5275C10.6453 15.5096 10.6665 15.4944 10.6895 15.4825C10.7302 15.4581 10.777 15.4456 10.8245 15.4465L8.68849 11.6325L6.46149 18.0425L6.46049 18.0435ZM12.1315 20.1705C12.0595 20.1525 11.9785 20.1435 11.9065 20.1255C11.7465 20.0959 11.5871 20.0629 11.4285 20.0265L11.1855 19.9725C10.8515 19.9005 10.5455 19.8375 10.2565 19.7825C10.1935 19.9635 10.1305 20.1345 10.0585 20.3155C9.99762 20.4859 9.93125 20.6543 9.85949 20.8205C9.79649 20.9825 9.73349 21.1355 9.67049 21.2885C9.61058 21.4283 9.54723 21.5667 9.48049 21.7035C9.3756 21.9265 9.25842 22.1435 9.12949 22.3535C9.09327 22.4223 9.04786 22.4859 8.99449 22.5425L15.7385 24.0295L13.4935 20.1795L13.4575 20.2155C13.4418 20.2308 13.4235 20.2434 13.4035 20.2525C13.3225 20.2975 13.1685 20.3065 12.9335 20.2885C12.7406 20.2675 12.5485 20.2401 12.3575 20.2065C12.2765 20.1975 12.2045 20.1795 12.1315 20.1705ZM11.2845 16.5555C11.2665 16.6455 11.2395 16.7455 11.2125 16.8525L11.1585 17.0695C11.0955 17.2855 11.0315 17.5115 10.9505 17.7455C10.8954 17.9004 10.8444 18.0568 10.7975 18.2145C10.7435 18.3675 10.6975 18.5205 10.6445 18.6645C10.8875 18.7285 11.1225 18.7825 11.3295 18.8365C11.4375 18.8635 11.5365 18.8905 11.6365 18.9085C11.7355 18.9355 11.8255 18.9535 11.9155 18.9805C11.9605 18.9905 12.0055 18.9985 12.0415 19.0165L12.1685 19.0435C12.2485 19.0615 12.3215 19.0795 12.3935 19.1065C12.5375 19.1435 12.6735 19.1795 12.7815 19.2155C12.8895 19.2425 12.9795 19.2785 13.0615 19.3055L11.3475 16.2935C11.3202 16.3792 11.2991 16.4667 11.2845 16.5555ZM10.1935 24.6795C10.3735 24.7965 10.5635 24.9135 10.7705 25.0305C11.3295 25.3555 11.8615 25.5985 12.3395 25.7885C12.4745 25.8425 12.6095 25.8965 12.7635 25.9505C13.8218 26.3084 14.9285 26.5029 16.0455 26.5275V24.7515C13.4485 24.1835 10.8605 23.6065 8.26349 23.0385C8.84709 23.6518 9.49403 24.2015 10.1935 24.6785V24.6795Z" fill="white"/>
</g>
<defs>
<clipPath id="clip0_1_6216">
<rect width="32" height="32" fill="white" transform="translate(0.000488281 0.00146484)"/>
</clipPath>
</defs>
</svg>
