<svg width="32" height="32" viewBox="0 0 32 32" fill="none" xmlns="http://www.w3.org/2000/svg">
<g clip-path="url(#clip0_1_6212)">
<path d="M16.0005 32.0015C24.837 32.0015 32.0005 24.838 32.0005 16.0015C32.0005 7.16491 24.837 0.00146484 16.0005 0.00146484C7.16393 0.00146484 0.000488281 7.16491 0.000488281 16.0015C0.000488281 24.838 7.16393 32.0015 16.0005 32.0015Z" fill="#343434"/>
<path d="M23.4176 21.1114C23.594 21.0507 23.7454 20.9335 23.8484 20.778C23.9515 20.6226 24.0004 20.4375 23.9876 20.2514V21.3514C23.9889 21.5385 23.9324 21.7215 23.826 21.8754C23.7195 22.0293 23.5682 22.1466 23.3926 22.2114L15.8046 24.9444C15.6132 25.0205 15.4 25.0205 15.2086 24.9444L7.62059 22.2124C7.44419 22.1489 7.29203 22.0318 7.18536 21.8777C7.07869 21.7235 7.02283 21.5398 7.02559 21.3524V20.2524C7.02559 20.6314 7.26059 20.9854 7.62059 21.1124L15.2336 23.8444C15.4247 23.9203 15.6375 23.9203 15.8286 23.8444L23.4176 21.1114ZM23.4176 19.1634C23.5922 19.1 23.7418 18.9822 23.8444 18.8274C23.9471 18.6726 23.9972 18.4889 23.9876 18.3034V19.4034C23.9889 19.5905 23.9324 19.7735 23.826 19.9274C23.7195 20.0813 23.5682 20.1986 23.3926 20.2634L15.8046 22.9964C15.6132 23.0725 15.4 23.0725 15.2086 22.9964L7.62059 20.2644C7.44419 20.2009 7.29203 20.0838 7.18536 19.9297C7.07869 19.7755 7.02283 19.5918 7.02559 19.4044V18.2914C7.02559 18.6834 7.26059 19.0244 7.62059 19.1634L15.2336 21.8964C15.4247 21.9723 15.6375 21.9723 15.8286 21.8964L23.4176 19.1634ZM23.4176 17.2034C23.5915 17.1411 23.7413 17.0257 23.846 16.8735C23.9506 16.7213 24.0047 16.54 24.0006 16.3554V17.4554C24.0018 17.6426 23.9452 17.8257 23.8385 17.9796C23.7319 18.1335 23.5803 18.2508 23.4046 18.3154L15.8166 21.0484C15.6255 21.1243 15.4127 21.1243 15.2216 21.0484L7.62059 18.3034C7.44419 18.2399 7.29203 18.1228 7.18536 17.9687C7.07869 17.8145 7.02283 17.6308 7.02559 17.4434V16.3434C7.02559 16.7224 7.26059 17.0764 7.62059 17.2034L15.2336 19.9354C15.4247 20.0113 15.6375 20.0113 15.8286 19.9354L23.4176 17.2034ZM7.00059 10.6634C6.99783 10.4759 7.05369 10.2923 7.16036 10.1381C7.26703 9.98391 7.41919 9.86689 7.59559 9.80338L15.1966 7.05838C15.3877 6.98249 15.6005 6.98249 15.7916 7.05838L23.3926 9.80338C23.569 9.86689 23.7211 9.98391 23.8278 10.1381C23.9345 10.2923 23.9903 10.4759 23.9876 10.6634V15.4954C23.9889 15.6825 23.9324 15.8655 23.826 16.0194C23.7195 16.1733 23.5682 16.2906 23.3926 16.3554L15.7796 19.0874C15.5885 19.1633 15.3757 19.1633 15.1846 19.0874L7.59559 16.3554C7.41919 16.2919 7.26703 16.1748 7.16036 16.0207C7.05369 15.8665 6.99783 15.6828 7.00059 15.4954V10.6634Z" fill="white"/>
</g>
<defs>
<clipPath id="clip0_1_6212">
<rect width="32" height="32" fill="white" transform="translate(0.000488281 0.00146484)"/>
</clipPath>
</defs>
</svg>
