<svg width="32" height="32" viewBox="0 0 32 32" fill="none" xmlns="http://www.w3.org/2000/svg">
<g clip-path="url(#clip0_1_6208)">
<path d="M16.0005 32.0015C24.837 32.0015 32.0005 24.838 32.0005 16.0015C32.0005 7.16491 24.837 0.00146484 16.0005 0.00146484C7.16393 0.00146484 0.000488281 7.16491 0.000488281 16.0015C0.000488281 24.838 7.16393 32.0015 16.0005 32.0015Z" fill="#0061FF"/>
<path d="M16.0105 6.00146L26.0005 16.1415L25.6255 16.4815C25.455 16.6425 25.2775 16.796 25.0935 16.9415C24.7675 17.2025 24.4235 17.4625 24.0775 17.6935C22.6784 18.6408 21.1223 19.3322 19.4815 19.7355C18.3455 20.0155 17.1795 20.1555 16.0105 20.1555C14.5305 20.1555 13.0605 19.9355 11.6505 19.4855C10.208 19.0324 8.84669 18.3529 7.61749 17.4725C7.19247 17.1607 6.7814 16.8304 6.38549 16.4825L6.00049 16.1415L7.09549 15.0295L16.0105 6.00146ZM24.7485 16.4715C24.8965 16.3515 25.0435 16.2315 25.1725 16.1015L16.0005 6.81146L6.82949 16.1015L7.01649 16.2615C7.32249 16.5115 7.62749 16.7615 7.94349 16.9815C10.2936 18.6701 13.1166 19.574 16.0105 19.5645C17.1373 19.5632 18.2598 19.4255 19.3535 19.1545C20.9299 18.765 22.4255 18.1008 23.7715 17.1925C24.1095 16.9705 24.4355 16.7295 24.7485 16.4725V16.4715ZM9.71849 15.9915C11.6496 15.1311 13.7384 14.6812 15.8525 14.6705C18.3385 14.6705 20.7835 15.3305 22.9235 16.5925L23.0625 16.6725L22.9235 16.7625C21.5094 17.6702 19.9315 18.2926 18.2785 18.5945L18.2395 18.6045L18.2095 18.5845C15.6911 17.0154 12.7837 16.183 9.81649 16.1815H9.27449L9.71849 15.9915ZM18.3575 17.9935C19.6095 17.7535 20.8035 17.3235 21.9075 16.7025C20.0293 15.7451 17.9506 15.2474 15.8425 15.2505C14.5725 15.2505 13.3095 15.4205 12.0855 15.7605C14.3055 16.0605 16.4395 16.8205 18.3575 17.9935ZM21.6615 19.9655C21.216 20.5715 20.7421 21.1562 20.2415 21.7175L16.0105 26.0015L13.0325 22.9885L13.6625 22.9485C15.7691 22.818 17.8176 22.2049 19.6495 21.1565C20.2015 20.8865 21.6615 19.9655 21.6615 19.9655ZM14.3145 23.4695L16.0105 25.1905L19.0085 22.1475C17.5314 22.8545 15.9435 23.3018 14.3145 23.4695Z" fill="white"/>
</g>
<defs>
<clipPath id="clip0_1_6208">
<rect width="32" height="32" fill="white" transform="translate(0.000488281 0.00146484)"/>
</clipPath>
</defs>
</svg>
