<svg width="32" height="32" viewBox="0 0 32 32" fill="none" xmlns="http://www.w3.org/2000/svg">
<g clip-path="url(#clip0_1_6204)">
<path d="M16.001 32.0015C24.8375 32.0015 32.001 24.838 32.001 16.0015C32.001 7.16491 24.8375 0.00146484 16.001 0.00146484C7.16442 0.00146484 0.000976562 7.16491 0.000976562 16.0015C0.000976562 24.838 7.16442 32.0015 16.001 32.0015Z" fill="#346FCE"/>
<path fill-rule="evenodd" clip-rule="evenodd" d="M20.6185 19.1677L21.5745 20.9647C22.1183 21.9877 22.2335 23.1847 21.8948 24.2926C21.5561 25.4006 20.7913 26.3286 19.7685 26.8727L19.6445 26.9387C19.1379 27.2081 18.5832 27.3751 18.0121 27.4301C17.441 27.4852 16.8646 27.4272 16.3159 27.2595C15.7672 27.0918 15.2569 26.8177 14.8142 26.4527C14.3714 26.0878 14.0049 25.6393 13.7355 25.1327L10.5125 19.0707C9.98846 18.0853 9.86144 16.9367 10.1575 15.8605C10.4535 14.7844 11.1502 13.8624 12.1045 13.2837L11.1485 11.4867C10.6047 10.4636 10.4897 9.26642 10.8285 8.15848C11.1674 7.05055 11.9325 6.12258 12.9555 5.57868L13.0795 5.51268C14.1024 4.96888 15.2995 4.85365 16.4074 5.19233C17.5154 5.531 18.4434 6.29586 18.9875 7.31868L22.2105 13.3807C22.7346 14.366 22.8617 15.5145 22.5659 16.5906C22.27 17.6667 21.5736 18.5888 20.6195 19.1677H20.6185ZM20.6185 19.1677L18.3515 14.9027C17.8074 13.8799 16.8794 13.115 15.7714 12.7763C14.6635 12.4376 13.4664 12.5529 12.4435 13.0967L12.3195 13.1617C12.2465 13.2017 12.1745 13.2417 12.1045 13.2837L14.3725 17.5487C14.9165 18.5715 15.8446 19.3364 16.9525 19.675C18.0604 20.0137 19.2575 19.8985 20.2805 19.3547L20.4045 19.2897C20.4775 19.2497 20.5495 19.2097 20.6195 19.1677H20.6185Z" fill="white"/>
</g>
<defs>
<clipPath id="clip0_1_6204">
<rect width="32" height="32" fill="white" transform="translate(0.000976562 0.00146484)"/>
</clipPath>
</defs>
</svg>
