<svg width="32" height="32" viewBox="0 0 32 32" fill="none" xmlns="http://www.w3.org/2000/svg">
<g clip-path="url(#clip0_1_6193)">
<path d="M16.001 32.0015C24.8375 32.0015 32.001 24.838 32.001 16.0015C32.001 7.16491 24.8375 0.00146484 16.001 0.00146484C7.16442 0.00146484 0.000976562 7.16491 0.000976562 16.0015C0.000976562 24.838 7.16442 32.0015 16.001 32.0015Z" fill="#2E3148"/>
<path d="M16.346 6.00146C15.051 6.00146 14.001 10.6985 14.001 16.4915C14.001 22.2845 15.051 26.9815 16.346 26.9815C17.64 26.9815 18.69 22.2845 18.69 16.4915C18.69 10.6985 17.64 6.00146 16.346 6.00146ZM16.508 26.3885C16.36 26.5865 16.211 26.4385 16.211 26.4385C15.615 25.7465 15.317 24.4635 15.317 24.4635C14.274 21.1065 14.522 13.8995 14.522 13.8995C15.012 8.17847 15.904 6.82646 16.207 6.52646C16.238 6.4957 16.2789 6.47691 16.3225 6.47343C16.3661 6.46995 16.4095 6.48201 16.445 6.50746C16.885 6.82046 17.255 8.12446 17.255 8.12446C18.345 12.1725 18.246 15.9725 18.246 15.9725C18.345 19.2805 17.7 22.9825 17.7 22.9825C17.203 25.7965 16.508 26.3885 16.508 26.3885Z" fill="white"/>
<path d="M25.2733 11.3855C24.6283 10.2615 20.0333 11.6885 15.0063 14.5715C9.97927 17.4545 6.43327 20.7015 7.07627 21.8255C7.72127 22.9495 12.3173 21.5225 17.3443 18.6395C22.3713 15.7565 25.9183 12.5085 25.2743 11.3855H25.2733ZM7.67027 21.6705C7.42427 21.6405 7.48027 21.4365 7.48027 21.4365C7.78227 20.5765 8.74627 19.6785 8.74627 19.6785C11.1393 17.1035 17.5153 13.7325 17.5153 13.7325C22.7213 11.3105 24.3383 11.4125 24.7483 11.5245C24.7906 11.5361 24.8274 11.5624 24.8522 11.5987C24.8769 11.635 24.8879 11.6789 24.8833 11.7225C24.8333 12.2595 23.8833 13.2295 23.8833 13.2295C20.9173 16.1905 17.5713 17.9975 17.5713 17.9975C14.7513 19.7295 11.2183 21.0105 11.2183 21.0105C8.53027 21.9785 7.67027 21.6705 7.67027 21.6705Z" fill="white"/>
<path d="M25.229 21.8959C25.879 20.7759 22.342 17.5129 17.331 14.6079C12.321 11.7039 7.72696 10.2599 7.07796 11.3819C6.42796 12.5049 9.96596 15.7649 14.978 18.6699C19.991 21.5739 24.58 23.0179 25.229 21.8959ZM7.50896 11.8149C7.41196 11.5869 7.61496 11.5319 7.61496 11.5319C8.51196 11.3619 9.77196 11.7489 9.77196 11.7489C13.199 12.5289 19.31 16.3569 19.31 16.3569C24.015 19.6489 24.737 21.0999 24.845 21.5109C24.8559 21.5531 24.8516 21.5978 24.8327 21.6372C24.8139 21.6765 24.7817 21.7079 24.742 21.7259C24.252 21.9509 22.937 21.6159 22.937 21.6159C18.887 20.5299 15.648 18.5409 15.648 18.5409C12.738 16.9709 9.85996 14.5559 9.85996 14.5559C7.67296 12.7139 7.50996 11.8159 7.50996 11.8159L7.50796 11.8149H7.50896Z" fill="white"/>
<path d="M16.235 17.4695C16.9165 17.4695 17.469 16.917 17.469 16.2355C17.469 15.5539 16.9165 15.0015 16.235 15.0015C15.5535 15.0015 15.001 15.5539 15.001 16.2355C15.001 16.917 15.5535 17.4695 16.235 17.4695Z" fill="white"/>
<path d="M21.001 13.0015C21.5533 13.0015 22.001 12.5537 22.001 12.0015C22.001 11.4492 21.5533 11.0015 21.001 11.0015C20.4487 11.0015 20.001 11.4492 20.001 12.0015C20.001 12.5537 20.4487 13.0015 21.001 13.0015Z" fill="white"/>
<path d="M9.00098 15.0015C9.55326 15.0015 10.001 14.5537 10.001 14.0015C10.001 13.4492 9.55326 13.0015 9.00098 13.0015C8.44869 13.0015 8.00098 13.4492 8.00098 14.0015C8.00098 14.5537 8.44869 15.0015 9.00098 15.0015Z" fill="white"/>
<path d="M15.001 24.0015C15.5533 24.0015 16.001 23.5537 16.001 23.0015C16.001 22.4492 15.5533 22.0015 15.001 22.0015C14.4487 22.0015 14.001 22.4492 14.001 23.0015C14.001 23.5537 14.4487 24.0015 15.001 24.0015Z" fill="white"/>
</g>
<defs>
<clipPath id="clip0_1_6193">
<rect width="32" height="32" fill="white" transform="translate(0.000976562 0.00146484)"/>
</clipPath>
</defs>
</svg>
