<svg width="32" height="32" viewBox="0 0 32 32" fill="none" xmlns="http://www.w3.org/2000/svg">
<g clip-path="url(#clip0_1_6189)">
<path d="M16.001 32.0015C24.8375 32.0015 32.001 24.838 32.001 16.0015C32.001 7.16491 24.8375 0.00146484 16.001 0.00146484C7.16442 0.00146484 0.000976562 7.16491 0.000976562 16.0015C0.000976562 24.838 7.16442 32.0015 16.001 32.0015Z" fill="#34318A"/>
<path d="M10.855 13.3064L14.465 15.2264L16.385 14.2664L11.796 11.7804V7.40242L20.619 11.9824L22.539 11.0224L11.239 5.09842C11.1101 5.03072 10.966 4.99746 10.8205 5.00185C10.675 5.00624 10.5331 5.04814 10.4086 5.12349C10.284 5.19883 10.1811 5.30507 10.1097 5.4319C10.0383 5.55873 10.0008 5.70186 10.001 5.84742V11.9144C10.004 12.5014 10.333 13.0384 10.855 13.3064ZM24.612 12.2884C24.4872 12.1672 24.328 12.0874 24.1562 12.06C23.9844 12.0327 23.8083 12.059 23.652 12.1354L10.855 18.7784C10.33 19.0484 9.99998 19.5894 10.001 20.1804V26.2374C10.0008 26.383 10.0383 26.5261 10.1097 26.6529C10.1811 26.7798 10.284 26.886 10.4086 26.9613C10.5331 27.0367 10.675 27.0786 10.8205 27.083C10.966 27.0874 11.1101 27.0541 11.239 26.9864L24.007 20.3624C24.54 20.0864 24.871 19.5324 24.862 18.9324V12.8844C24.862 12.7734 24.8399 12.6636 24.797 12.5612C24.7541 12.4589 24.6912 12.3662 24.612 12.2884ZM23.076 18.8264L11.796 24.6824V20.3044L23.076 14.4484V18.8264Z" fill="white"/>
</g>
<defs>
<clipPath id="clip0_1_6189">
<rect width="32" height="32" fill="white" transform="translate(0.000976562 0.00146484)"/>
</clipPath>
</defs>
</svg>
