<svg width="32" height="32" viewBox="0 0 32 32" fill="none" xmlns="http://www.w3.org/2000/svg">
<g clip-path="url(#clip0_1_6185)">
<path d="M16 32.0024C24.8366 32.0024 32 24.839 32 16.0024C32 7.16588 24.8366 0.00244141 16 0.00244141C7.16344 0.00244141 0 7.16588 0 16.0024C0 24.839 7.16344 32.0024 16 32.0024Z" fill="#FAB431"/>
<path fill-rule="evenodd" clip-rule="evenodd" d="M25 19.2694L20.815 16.7584L21.295 14.7694L23.082 15.8244V12.1924L17.342 8.77044V16.6704L15.977 17.4254L23.515 21.8954L16.5 26.0024L8 21.0244V11.0694L16.5 6.00244L25 11.0694V19.2694ZM9.918 12.1924V18.6704L15.436 15.4704V8.90244L9.918 12.1914V12.1924ZM14.015 18.5364L10.877 20.4554L16.5 23.7474L19.675 21.8874L14.015 18.5354V18.5364Z" fill="white"/>
</g>
<defs>
<clipPath id="clip0_1_6185">
<rect width="32" height="32" fill="white" transform="translate(0 0.00244141)"/>
</clipPath>
</defs>
</svg>
