<svg width="32" height="32" viewBox="0 0 32 32" fill="none" xmlns="http://www.w3.org/2000/svg">
<g clip-path="url(#clip0_1_6178)">
<path d="M16 32.0024C24.8366 32.0024 32 24.839 32 16.0024C32 7.16588 24.8366 0.00244141 16 0.00244141C7.16344 0.00244141 0 7.16588 0 16.0024C0 24.839 7.16344 32.0024 16 32.0024Z" fill="#3355B5"/>
<path d="M16 4.00244C9.373 4.00244 4 9.37544 4 16.0024C4 22.6294 9.373 28.0024 16 28.0024C22.627 28.0024 28 22.6294 28 16.0024C28 12.8198 26.7357 9.7676 24.4853 7.51716C22.2348 5.26672 19.1826 4.00244 16 4.00244ZM16 27.7724C9.5 27.7724 4.23 22.5024 4.23 16.0024C4.23 9.50244 9.5 4.23244 16 4.23244C22.5 4.23244 27.77 9.50244 27.77 16.0024C27.77 19.124 26.53 22.1178 24.3226 24.3251C22.1153 26.5324 19.1216 27.7724 16 27.7724Z" fill="white"/>
<path fill-rule="evenodd" clip-rule="evenodd" d="M19.18 13.2824L19.15 13.1724L19.12 13.0624L19.09 12.9424L19.05 12.8424L19.02 12.7324L18.98 12.6324L18.93 12.5224L18.89 12.4224L18.84 12.3324L18.79 12.2324L18.74 12.1424L18.68 12.0524L18.63 11.9724L18.57 11.8824L18.51 11.8124L18.44 11.7324L18.38 11.6624L18.32 11.5924L18.25 11.5324L18.18 11.4724L18.11 11.4124L18.04 11.3624L17.96 11.3124L17.89 11.2724L17.81 11.2224L17.74 11.1924L17.66 11.1524L17.58 11.1224L17.5 11.0924L17.41 11.0724L17.33 11.0524L17.25 11.0324L17.16 11.0224L17.07 11.0124L16.99 11.0024H16.72L16.63 11.0124L16.54 11.0224L16.44 11.0324L16.35 11.0524L16.26 11.0724L16.17 11.0924L16.07 11.1224L15.98 11.1524L15.88 11.1824L15.78 11.2224L15.69 11.2624L15.59 11.3124L15.5 11.3524L15.4 11.4024L15.3 11.4624L15.21 11.5124L15.11 11.5724L15.01 11.6424L14.92 11.7024L14.82 11.7724L14.72 11.8524L14.62 11.9224L14.53 12.0024L14.43 12.0824L14.34 12.1724L14.24 12.2624L14.14 12.3524L14.05 12.4524L13.95 12.5524L13.86 12.6524L13.77 12.7524L13.67 12.8624L13.58 12.9724L13.49 13.0824L13.4 13.2024L13.31 13.3224L13.22 13.4524L13.1 13.6224L12.98 13.8024L12.86 13.9924L12.75 14.1724L12.64 14.3724L12.53 14.5624L12.43 14.7524L12.33 14.9524L12.24 15.1524L12.15 15.3524L12.07 15.5524L12 15.7124L19.19 13.3624L19.18 13.2824ZM12.69 16.7924L19.06 16.7424L19.09 16.6024L19.12 16.4624L19.15 16.3224L19.18 16.1724L19.2 16.0324L19.23 15.8924L19.25 15.7524L19.26 15.6124L19.28 15.4724L19.29 15.3324L19.3 15.2024L19.31 15.0624L19.32 14.9224V14.6324L12.69 16.7924Z" fill="white"/>
<path d="M16.44 5.00244C10.122 5.00244 5 10.1244 5 16.4424C5 22.7604 10.122 27.8824 16.44 27.8824C22.758 27.8824 27.88 22.7604 27.88 16.4424C27.88 14.9401 27.5841 13.4525 27.0092 12.0645C26.4343 10.6766 25.5916 9.41544 24.5293 8.35314C23.467 7.29084 22.2059 6.44817 20.8179 5.87326C19.4299 5.29835 17.9423 5.00244 16.44 5.00244ZM22.92 17.3624L22.72 18.5424H20.93L20.87 18.7424L20.76 19.0424L20.65 19.3424L20.53 19.6424L20.44 19.9424L20.31 20.2324L20.17 20.5224L20.03 20.8124L19.88 21.0924L19.73 21.3724L19.57 21.6424L19.41 21.9124L19.24 22.1824L19.04 22.4424L18.95 22.5724L18.86 22.7024L17.93 21.1424L18.02 21.0124L18.11 20.8824L18.19 20.7524L18.27 20.6224L18.35 20.4924L18.43 20.3624L18.51 20.2324L18.58 20.1024L18.65 19.9624L18.72 19.8224L18.79 19.6824L18.86 19.5424L18.92 19.4024L18.98 19.2624L19.04 19.1224L19.1 18.9824L19.16 18.8424L19.21 18.7024V18.5824L11.94 18.6424V20.4924L10.08 21.7824V18.6424H9.54L9.34 18.7124L9 17.5224L10.68 16.9724V16.8424L10.75 16.6324L10.85 16.4424L10.92 16.2424L11 16.0424L11.08 15.8424L11.16 15.6424L11.24 15.4424L11.33 15.2424L11.42 15.0424L11.51 14.8424L11.6 14.6524L11.7 14.4624L11.8 14.2724L11.9 14.0824L12 13.8924L12.11 13.7024L12.22 13.5224L12.33 13.3424L12.44 13.1524L12.55 12.9724L12.67 12.8024L12.79 12.6324L12.9 12.4424L13.02 12.2724L13.14 12.1124L13.27 11.9524L13.44 11.8124L13.57 11.6624L13.7 11.5124L13.83 11.3624L13.97 11.2224L14.11 11.0824L14.25 10.9424L14.39 10.8124L14.53 10.6824L14.67 10.5524L14.78 10.4424L14.93 10.3224L15.08 10.2124L15.23 10.1024L15.38 9.99244L15.53 9.89244L15.68 9.80244L15.83 9.71244L15.98 9.63244L16.13 9.55244L16.26 9.44244L16.44 9.39244L16.58 9.33244L16.72 9.27244L16.86 9.22244H19.27L19.38 9.27244L19.49 9.32244L19.6 9.38244L19.71 9.44244L19.81 9.51244L19.91 9.58244L20.01 9.66244L20.11 9.74244L20.2 9.83244L20.29 9.92244L20.38 10.0224L20.47 10.1224L20.55 10.2324L20.63 10.3424L20.71 10.4524L20.79 10.5724L20.86 10.6924L20.93 10.8224L21 10.9524L21.06 11.0924L21.12 11.2324L21.18 11.3724L21.24 11.5224L21.29 11.6724V13.4424L22.29 13.1224L22.63 14.3124L21.35 14.7324V16.3624L21.3 16.6624L21.24 16.9624L21.17 17.2624V17.3924L22.92 17.3624Z" fill="white"/>
</g>
<defs>
<clipPath id="clip0_1_6178">
<rect width="32" height="32" fill="white" transform="translate(0 0.00244141)"/>
</clipPath>
</defs>
</svg>
