<svg width="32" height="32" viewBox="0 0 32 32" fill="none" xmlns="http://www.w3.org/2000/svg">
<g clip-path="url(#clip0_1_6174)">
<path d="M16 32.0024C24.8366 32.0024 32 24.839 32 16.0024C32 7.16588 24.8366 0.00244141 16 0.00244141C7.16344 0.00244141 0 7.16588 0 16.0024C0 24.839 7.16344 32.0024 16 32.0024Z" fill="#F19F13"/>
<path d="M22.77 14.0024H27.64L28 12.0024H23.29C22.3614 12.0313 21.4614 12.3302 20.7 12.8624C20.42 11.8624 17.7 12.0024 17.7 12.0024L18.06 10.0024H17L16.64 12.0024H15.53L15.84 10.0024H14.69L14.27 12.0024H13.08L12.47 15.1224L11.66 12.0624H9L4 19.4124H8.12L8.54 17.4624H7.7L10.1 13.9524L11 17.4824H10.1L9.71 19.4124H12.77L12.52 20.7524H13.72L14 19.4124H15L14.75 20.7524H16L16.25 19.4124H17.81C18.5273 19.3311 19.1913 18.9938 19.68 18.4624C20.2626 19.0521 21.0513 19.3927 21.88 19.4124H26.59L26.9 17.4624H22.67C19.76 17.4124 21 13.9824 22.77 14.0024ZM17.48 17.4124H14.36L14.61 16.4624H17.61C18.37 16.5124 18.12 17.4124 17.48 17.4124ZM17.95 14.8524H14.83L15.08 13.9024H18.08C18.84 13.9524 18.56 14.8924 17.95 14.8924V14.8524Z" fill="white"/>
</g>
<defs>
<clipPath id="clip0_1_6174">
<rect width="32" height="32" fill="white" transform="translate(0 0.00244141)"/>
</clipPath>
</defs>
</svg>
