<svg width="32" height="32" viewBox="0 0 32 32" fill="none" xmlns="http://www.w3.org/2000/svg">
<g clip-path="url(#clip0_1_6167)">
<path d="M16 32.0024C24.8366 32.0024 32 24.839 32 16.0024C32 7.16588 24.8366 0.00244141 16 0.00244141C7.16344 0.00244141 0 7.16588 0 16.0024C0 24.839 7.16344 32.0024 16 32.0024Z" fill="#1E1E1E"/>
<path d="M16.092 23.6954C10.518 23.6954 6 22.0854 6 19.9274C6 18.8014 7.23 17.7874 9.2 17.0714C10.738 18.0584 13.317 18.5644 16.242 18.5644C19.098 18.5644 21.622 17.9474 23.172 17.0024C25.031 17.7094 26.185 18.6964 26.185 19.7844C26.185 21.9454 21.667 23.6954 16.092 23.6954Z" fill="white"/>
<path d="M16.652 17.2214C12.426 17.2214 9 15.8964 9 14.2614C9 13.3554 10.056 12.5434 11.712 12.0024C12.894 12.6194 14.665 13.0134 16.652 13.0134C18.639 13.0134 20.41 12.6194 21.592 12.0034C23.251 12.5464 24.304 13.3554 24.304 14.2614C24.307 15.8964 20.88 17.2214 16.652 17.2214Z" fill="white"/>
<path d="M15.916 12.8824C12.649 12.8824 10 11.7884 10 10.4424C10 9.09744 12.65 8.00244 15.916 8.00244C19.182 8.00244 21.832 9.09744 21.832 10.4424C21.832 11.7884 19.182 12.8824 15.916 12.8824Z" fill="white"/>
</g>
<defs>
<clipPath id="clip0_1_6167">
<rect width="32" height="32" fill="white" transform="translate(0 0.00244141)"/>
</clipPath>
</defs>
</svg>
