<svg width="32" height="32" viewBox="0 0 32 32" fill="none" xmlns="http://www.w3.org/2000/svg">
<g clip-path="url(#clip0_1_6161)">
<path d="M16 32.0024C24.8366 32.0024 32 24.839 32 16.0024C32 7.16588 24.8366 0.00244141 16 0.00244141C7.16344 0.00244141 0 7.16588 0 16.0024C0 24.839 7.16344 32.0024 16 32.0024Z" fill="#516AFF"/>
<path d="M18.036 12.2314L20.236 13.4884V7.20244L15.836 5.00244L9 8.85244V22.5234L15.836 26.4524L22.593 22.4454V15.6884L16.071 11.7594L13.871 12.8594L20.393 16.7094L20.471 21.3454L15.836 23.9384L11.121 21.2664V9.95244L15.836 7.35944L18.036 8.53844V12.2314Z" fill="white"/>
<path d="M15.729 15.6734L17.222 14.8874L18.872 15.9094L14 18.6594V13.0024L15.729 14.0234" fill="white"/>
</g>
<defs>
<clipPath id="clip0_1_6161">
<rect width="32" height="32" fill="white" transform="translate(0 0.00244141)"/>
</clipPath>
</defs>
</svg>
