<svg width="32" height="32" viewBox="0 0 32 32" fill="none" xmlns="http://www.w3.org/2000/svg">
<g clip-path="url(#clip0_1_6153)">
<path d="M16.0005 32.0024C24.837 32.0024 32.0005 24.839 32.0005 16.0024C32.0005 7.16588 24.837 0.00244141 16.0005 0.00244141C7.16393 0.00244141 0.000488281 7.16588 0.000488281 16.0024C0.000488281 24.839 7.16393 32.0024 16.0005 32.0024Z" fill="#6356AB"/>
<path d="M22.7845 15.9764C22.8425 15.9114 22.9075 15.8464 22.9725 15.7804C23.1825 15.5544 23.4125 15.3134 23.6295 15.0804C24.4989 14.1742 24.985 12.9673 24.9865 11.7114C24.9865 11.6244 25.0005 11.2664 25.0005 11.2154C24.8995 8.34344 22.4815 6.00244 19.6235 6.00244H10.6235V9.63344H7.00049V26.0024H19.7675C22.6045 26.0024 25.0005 23.4794 25.0005 20.4904C25.0075 18.3534 23.6865 16.8444 22.7845 15.9764ZM12.4275 11.4564L19.5945 11.4634L15.0915 16.0284L19.5445 20.5484H12.4275V11.4564ZM19.7675 24.1724H8.80449V11.4494H10.6245V22.3644H19.5445C20.2805 22.3644 20.9375 21.9194 21.2185 21.2344C21.3568 20.9011 21.3936 20.5342 21.3243 20.18C21.2549 19.8258 21.0824 19.5 20.8285 19.2434L17.6465 16.0204L20.8795 12.7464C21.3995 12.2214 21.5505 11.4414 21.2695 10.7564C21.1345 10.4227 20.903 10.1369 20.6046 9.93562C20.3062 9.73431 19.9545 9.62665 19.5945 9.62644H12.4345V7.81844H19.6305C21.5365 7.81844 23.1385 9.37144 23.2035 11.2594C23.2035 11.3394 23.1885 11.6534 23.1885 11.6604V11.6964C23.1884 12.4883 22.8808 13.2491 22.3305 13.8184C22.1065 14.0524 21.8755 14.2994 21.6665 14.5184C21.3125 14.8904 21.0095 15.2114 20.8645 15.3574L20.2145 15.9984L20.8575 16.6484C20.9445 16.7354 21.0525 16.8374 21.1825 16.9614C21.9325 17.6614 23.1965 18.8274 23.1965 20.4754C23.2035 22.4444 21.6015 24.1724 19.7675 24.1724Z" fill="white"/>
</g>
<defs>
<clipPath id="clip0_1_6153">
<rect width="32" height="32" fill="white" transform="translate(0.000488281 0.00244141)"/>
</clipPath>
</defs>
</svg>
