<svg width="32" height="32" viewBox="0 0 32 32" fill="none" xmlns="http://www.w3.org/2000/svg">
<g clip-path="url(#clip0_1_6149)">
<path d="M16.0005 32.0024C24.837 32.0024 32.0005 24.839 32.0005 16.0024C32.0005 7.16588 24.837 0.00244141 16.0005 0.00244141C7.16393 0.00244141 0.000488281 7.16588 0.000488281 16.0024C0.000488281 24.839 7.16393 32.0024 16.0005 32.0024Z" fill="#004AB5"/>
<path d="M12.9824 7.82406C11.6627 8.32132 10.4827 9.13 9.54274 10.1813C8.60278 11.2326 7.93069 12.4954 7.58365 13.8623C7.23662 15.2292 7.22491 16.6596 7.54952 18.032C7.87413 19.4044 8.52546 20.678 9.44808 21.7446C10.3707 22.8111 11.5373 23.639 12.8487 24.1578C14.16 24.6766 15.5773 24.8709 16.9798 24.7243C18.3824 24.5776 19.7288 24.0943 20.9045 23.3155C22.0802 22.5367 23.0503 21.4854 23.7324 20.2511L16.0704 16.0161L19.1794 7.83106C17.1839 7.07354 14.9805 7.07105 12.9834 7.82406H12.9824ZM13.5284 9.39706C15.1458 8.78719 16.9304 8.78932 18.5464 9.40306L16.0294 16.0301L22.2334 19.4601C21.681 20.4593 20.8954 21.3103 19.9434 21.9407C18.9915 22.5711 17.9013 22.9623 16.7658 23.0809C15.6302 23.1995 14.4828 23.0421 13.4211 22.622C12.3594 22.2019 11.4149 21.5316 10.6679 20.6681C9.92096 19.8046 9.39361 18.7734 9.13074 17.6624C8.86787 16.5513 8.87727 15.3931 9.15813 14.2864C9.43899 13.1798 9.983 12.1573 10.7439 11.306C11.5048 10.4548 12.46 9.79986 13.5284 9.39706ZM16.4644 5.01106C17.6554 5.05806 18.8304 5.29806 19.9444 5.72106L16.0294 16.0301L25.6804 21.3651C24.7308 23.0831 23.3398 24.5166 21.6511 25.5175C19.9623 26.5183 18.037 27.0502 16.074 27.0583C14.111 27.0665 12.1814 26.5504 10.4844 25.5636C8.7875 24.5767 7.38474 23.1548 6.42099 21.4446C5.45725 19.7344 4.96747 17.798 5.00222 15.8352C5.03697 13.8725 5.59499 11.9546 6.61867 10.2796C7.64234 8.60462 9.09456 7.23323 10.8254 6.30705C12.5562 5.38087 14.5029 4.93347 16.4644 5.01106ZM23.9934 8.82306C24.2574 8.82306 24.5034 8.85406 24.7294 8.91806C25.3954 9.10106 25.8454 9.51506 26.0794 10.1591C26.2224 10.5501 26.2534 10.9341 26.1734 11.3111C26.1014 11.6851 25.9284 12.0211 25.6544 12.3211C26.1684 12.2981 26.6174 12.4131 27.0044 12.6631C27.3874 12.9051 27.6704 13.2761 27.8514 13.7741C28.1084 14.4801 28.0314 15.1251 27.6184 15.7091C27.2104 16.2831 26.4814 16.7621 25.4304 17.1441L21.2664 18.6601L18.3354 10.6071L22.2694 9.17506C22.9134 8.94106 23.4884 8.82306 23.9934 8.82306ZM23.3834 10.4891C23.1434 10.4891 22.8664 10.5471 22.5504 10.6621L20.6984 11.3361L21.3884 13.2351L23.2414 12.5601C23.7014 12.3931 24.0214 12.1861 24.1994 11.9381C24.3794 11.6901 24.4114 11.4091 24.2964 11.0951C24.1824 10.7811 23.9784 10.5901 23.6844 10.5231C23.5858 10.4993 23.4847 10.4879 23.3834 10.4891ZM24.9454 13.6111C24.6934 13.6141 24.3974 13.6771 24.0574 13.8011L21.8834 14.5921L22.6074 16.5821L24.7814 15.7911C25.2714 15.6121 25.6114 15.3981 25.7974 15.1471C25.9924 14.8941 26.0274 14.5991 25.9054 14.2611C25.7454 13.8241 25.4254 13.6071 24.9454 13.6111Z" fill="white"/>
</g>
<defs>
<clipPath id="clip0_1_6149">
<rect width="32" height="32" fill="white" transform="translate(0.000488281 0.00244141)"/>
</clipPath>
</defs>
</svg>
