<svg width="32" height="32" viewBox="0 0 32 32" fill="none" xmlns="http://www.w3.org/2000/svg">
<g clip-path="url(#clip0_1_6145)">
<path d="M16.0005 32.0024C24.837 32.0024 32.0005 24.839 32.0005 16.0024C32.0005 7.16588 24.837 0.00244141 16.0005 0.00244141C7.16393 0.00244141 0.000488281 7.16588 0.000488281 16.0024C0.000488281 24.839 7.16393 32.0024 16.0005 32.0024Z" fill="#F7931C"/>
<path d="M7.00051 19.0185C6.99251 16.0065 9.11351 13.4785 12.1475 12.9095C12.4075 12.8615 12.4815 12.7745 12.4745 12.5205C12.458 11.8443 12.458 11.1677 12.4745 10.4915C12.4795 10.2485 12.4025 10.1035 12.1935 9.96752C11.4645 9.49252 11.1665 8.62852 11.4335 7.85152C11.5619 7.45838 11.8166 7.11872 12.1581 6.8854C12.4996 6.65209 12.9086 6.53822 13.3215 6.56152C14.0915 6.59752 14.7965 7.17052 15.0045 7.93152C15.2145 8.69552 14.9225 9.52652 14.2445 9.95752C14.0045 10.1095 13.9295 10.2625 13.9375 10.5345C13.9575 11.2105 13.9505 11.8865 13.9415 12.5635C13.9385 12.7595 13.9675 12.8645 14.2005 12.8945C14.6435 12.9535 15.0765 13.0725 15.4865 13.2485C15.6405 13.3145 15.7235 13.2745 15.8265 13.1605C17.2615 11.5795 18.7015 10.0015 20.1445 8.42752C20.2935 8.26552 20.2505 8.15452 20.1825 7.98752C19.8305 7.11952 20.0365 6.18252 20.7005 5.56252C21.3065 4.99752 22.3085 4.83652 23.0325 5.18752C23.8845 5.60052 24.3525 6.39252 24.2945 7.32252C24.2165 8.56652 23.0065 9.50352 21.7785 9.24852C21.5295 9.19652 21.3855 9.25652 21.2245 9.43452C19.8888 10.9109 18.5474 12.3823 17.2005 13.8485C17.0375 14.0255 17.0145 14.1205 17.2175 14.2965C19.4215 16.2185 20.0215 19.1145 18.7655 21.7525C18.6705 21.9525 18.6915 22.0665 18.8455 22.2125C19.2125 22.5615 19.5675 22.9225 19.9195 23.2875C20.0595 23.4325 20.1905 23.4705 20.3985 23.4175C21.2085 23.2135 22.0485 23.5775 22.4525 24.2805C22.6527 24.6284 22.7354 25.0316 22.6884 25.4302C22.6414 25.8288 22.4671 26.2017 22.1915 26.4935C21.6375 27.0825 20.7325 27.2535 20.0295 26.9015C19.2615 26.5175 18.8375 25.6965 19.0195 24.8535C19.0725 24.6115 19.0165 24.4735 18.8545 24.3205C18.5563 24.0385 18.2671 23.747 17.9875 23.4465C17.8245 23.2705 17.7235 23.2675 17.5375 23.4425C15.6385 25.2125 13.4365 25.6705 11.0065 24.8065C8.59051 23.9495 7.00751 21.6005 7.00051 19.0195" fill="#FEFDFC"/>
</g>
<defs>
<clipPath id="clip0_1_6145">
<rect width="32" height="32" fill="white" transform="translate(0.000488281 0.00244141)"/>
</clipPath>
</defs>
</svg>
