<svg width="32" height="32" viewBox="0 0 32 32" fill="none" xmlns="http://www.w3.org/2000/svg">
<g clip-path="url(#clip0_1_6141)">
<path d="M16.0005 32.0024C24.837 32.0024 32.0005 24.839 32.0005 16.0024C32.0005 7.16588 24.837 0.00244141 16.0005 0.00244141C7.16393 0.00244141 0.000488281 7.16588 0.000488281 16.0024C0.000488281 24.839 7.16393 32.0024 16.0005 32.0024Z" fill="#FCC339"/>
<path d="M22.5855 9.69644L22.6625 9.86744L19.6085 11.2694L20.9825 15.8194L25.5035 13.5364L25.5635 13.6554L25.5815 13.6334L22.6525 9.72744L22.5855 9.69644ZM22.4205 9.61944L19.6475 8.32944H12.4765L9.51449 9.68944L12.5945 10.9854H19.4445L22.4205 9.61944ZM9.26649 9.93944L6.49349 13.5404L11.0075 15.8204L12.3875 11.2524L9.26649 9.93944ZM12.7065 11.3124L11.2815 16.0324L15.9945 24.3644L20.7085 16.0324L19.2825 11.3124H12.7065ZM25.2185 14.0454L21.0005 16.1764L16.7955 23.6094L25.2185 14.0454ZM15.1715 23.5694L10.9895 16.1764L6.79349 14.0574L15.1715 23.5694ZM6.43149 13.6454L6.46449 13.5784L6.42149 13.6344L6.43149 13.6454ZM9.22249 9.46444L12.4055 8.00244H19.7175L22.8615 9.46444L26.0005 13.6504L16.0005 25.0024L6.00049 13.6484L9.22249 9.46444ZM18.4235 14.8364C18.4825 15.4434 18.2315 15.8084 17.8295 16.0154C18.4905 16.1754 18.9045 16.5734 18.8225 17.4654C18.7225 18.5714 17.9075 18.8674 16.7435 18.9354V20.0984H16.0515V18.9514C15.8715 18.9514 15.6885 18.9494 15.4985 18.9454V20.0984H14.8075V18.9324C14.6455 18.9314 14.4805 18.9284 14.3125 18.9284H13.4125L13.5495 18.0914C13.5495 18.0914 14.0615 18.0994 14.0525 18.0914C14.2485 18.0914 14.3005 17.9484 14.3125 17.8594V16.0224H14.3865C14.362 16.0191 14.3372 16.0174 14.3125 16.0174V14.7064C14.2865 14.5634 14.1955 14.3994 13.9145 14.3984C13.9235 14.3884 13.4125 14.3984 13.4125 14.3984V13.6504H14.3665V13.6544C14.5105 13.6544 14.6565 13.6514 14.8065 13.6484V12.4974H15.4995V13.6264C15.6835 13.6224 15.8695 13.6184 16.0515 13.6184V12.4984L16.7435 12.4974V13.6484C17.6375 13.7284 18.3445 14.0064 18.4235 14.8364ZM17.4555 17.3264C17.4555 16.4184 15.9845 16.5554 15.5155 16.5554V18.0984C15.9845 18.0984 17.4555 18.1964 17.4555 17.3264ZM17.1335 15.1494C17.1335 14.3234 15.9055 14.4494 15.5155 14.4494V15.8494C15.9055 15.8494 17.1335 15.9414 17.1335 15.1494Z" fill="white"/>
</g>
<defs>
<clipPath id="clip0_1_6141">
<rect width="32" height="32" fill="white" transform="translate(0.000488281 0.00244141)"/>
</clipPath>
</defs>
</svg>
