<svg width="32" height="32" viewBox="0 0 32 32" fill="none" xmlns="http://www.w3.org/2000/svg">
<g clip-path="url(#clip0_1_6133)">
<path d="M16.0005 32.0024C24.837 32.0024 32.0005 24.839 32.0005 16.0024C32.0005 7.16588 24.837 0.00244141 16.0005 0.00244141C7.16393 0.00244141 0.000488281 7.16588 0.000488281 16.0024C0.000488281 24.839 7.16393 32.0024 16.0005 32.0024Z" fill="#3F43AD"/>
<path d="M11.926 7.43244C11.7027 7.44552 11.4928 7.54346 11.3393 7.70621C11.1858 7.86896 11.1003 8.08422 11.1003 8.30794C11.1003 8.53166 11.1858 8.74692 11.3393 8.90967C11.4928 9.07243 11.7027 9.17036 11.926 9.18344C12.1493 9.17036 12.3592 9.07243 12.5127 8.90967C12.6662 8.74692 12.7517 8.53166 12.7517 8.30794C12.7517 8.08422 12.6662 7.86896 12.5127 7.70621C12.3592 7.54346 12.1493 7.44552 11.926 7.43244ZM15.976 5.00244C15.7509 5.0132 15.5386 5.11019 15.3831 5.27329C15.2276 5.4364 15.1409 5.65309 15.1409 5.87844C15.1409 6.10379 15.2276 6.32049 15.3831 6.48359C15.5386 6.64669 15.7509 6.74368 15.976 6.75444C16.2011 6.74368 16.4134 6.64669 16.5689 6.48359C16.7244 6.32049 16.8111 6.10379 16.8111 5.87844C16.8111 5.65309 16.7244 5.4364 16.5689 5.27329C16.4134 5.11019 16.2011 5.0132 15.976 5.00244ZM15.976 14.7214C15.7527 14.7345 15.5428 14.8325 15.3893 14.9952C15.2358 15.158 15.1503 15.3732 15.1503 15.5969C15.1503 15.8207 15.2358 16.0359 15.3893 16.1987C15.5428 16.3614 15.7527 16.4594 15.976 16.4724C16.1993 16.4594 16.4092 16.3614 16.5627 16.1987C16.7162 16.0359 16.8017 15.8207 16.8017 15.5969C16.8017 15.3732 16.7162 15.158 16.5627 14.9952C16.4092 14.8325 16.1993 14.7345 15.976 14.7214ZM20.025 12.2914C19.9099 12.2916 19.7959 12.3144 19.6896 12.3585C19.5834 12.4027 19.4868 12.4674 19.4055 12.5489C19.3242 12.6304 19.2598 12.7271 19.2158 12.8334C19.1719 12.9398 19.1494 13.0538 19.1495 13.1689C19.1496 13.284 19.1724 13.398 19.2166 13.5043C19.2608 13.6106 19.3254 13.7071 19.4069 13.7884C19.4884 13.8697 19.5851 13.9342 19.6915 13.9781C19.7979 14.022 19.9119 14.0446 20.027 14.0444C20.2595 14.0442 20.4823 13.9516 20.6465 13.787C20.8107 13.6225 20.9028 13.3994 20.9025 13.1669C20.9022 12.9345 20.8096 12.7116 20.6451 12.5475C20.4805 12.3833 20.2575 12.2912 20.025 12.2914ZM24.074 9.86244C23.9564 9.85861 23.8392 9.87847 23.7295 9.92086C23.6197 9.96324 23.5196 10.0273 23.4351 10.1092C23.3506 10.191 23.2834 10.2891 23.2376 10.3975C23.1918 10.5058 23.1683 10.6223 23.1684 10.74C23.1685 10.8576 23.1923 10.9741 23.2384 11.0823C23.2845 11.1906 23.3519 11.2885 23.4365 11.3702C23.5212 11.4519 23.6215 11.5157 23.7313 11.5578C23.8412 11.5999 23.9584 11.6195 24.076 11.6154C24.3033 11.6075 24.5187 11.5116 24.6766 11.3478C24.8345 11.1841 24.9227 10.9654 24.9224 10.738C24.9221 10.5105 24.8335 10.292 24.6752 10.1287C24.5169 9.96532 24.3013 9.86986 24.074 9.86244ZM11.926 17.1514C11.7027 17.1645 11.4928 17.2625 11.3393 17.4252C11.1858 17.588 11.1003 17.8032 11.1003 18.0269C11.1003 18.2507 11.1858 18.4659 11.3393 18.6287C11.4928 18.7914 11.7027 18.8894 11.926 18.9024C12.1493 18.8894 12.3592 18.7914 12.5127 18.6287C12.6662 18.4659 12.7517 18.2507 12.7517 18.0269C12.7517 17.8032 12.6662 17.588 12.5127 17.4252C12.3592 17.2625 12.1493 17.1645 11.926 17.1514ZM7.87599 9.86244C7.76095 9.86257 7.64707 9.88536 7.54083 9.92951C7.4346 9.97365 7.33811 10.0383 7.25686 10.1197C7.1756 10.2012 7.11119 10.2978 7.06729 10.4041C7.02339 10.5105 7.00086 10.6244 7.00099 10.7394C7.00112 10.8545 7.02391 10.9684 7.06805 11.0746C7.1122 11.1808 7.17683 11.2773 7.25827 11.3586C7.33971 11.4398 7.43635 11.5042 7.54268 11.5481C7.64901 11.592 7.76295 11.6146 7.87799 11.6144C8.11032 11.6142 8.33303 11.5216 8.49712 11.3572C8.66122 11.1927 8.75325 10.9698 8.75299 10.7374C8.75272 10.5051 8.66018 10.2824 8.49571 10.1183C8.33124 9.95421 8.10832 9.86218 7.87599 9.86244ZM7.87599 19.5804C7.76089 19.5806 7.64693 19.6034 7.54064 19.6475C7.43435 19.6917 7.3378 19.7564 7.2565 19.8379C7.09231 20.0024 7.00022 20.2255 7.00049 20.4579C7.00075 20.6904 7.09335 20.9132 7.25792 21.0774C7.42248 21.2416 7.64553 21.3337 7.87799 21.3334C8.11045 21.3332 8.33329 21.2406 8.49747 21.076C8.66166 20.9115 8.75375 20.6884 8.75349 20.4559C8.75322 20.2235 8.66062 20.0006 8.49606 19.8365C8.3315 19.6723 8.10845 19.5802 7.87599 19.5804ZM7.87599 14.7214C7.65265 14.7345 7.44276 14.8325 7.28926 14.9952C7.13576 15.158 7.05026 15.3732 7.05026 15.5969C7.05026 15.8207 7.13576 16.0359 7.28926 16.1987C7.44276 16.3614 7.65265 16.4594 7.87599 16.4724C8.09933 16.4594 8.30922 16.3614 8.46272 16.1987C8.61622 16.0359 8.70172 15.8207 8.70172 15.5969C8.70172 15.3732 8.61622 15.158 8.46272 14.9952C8.30922 14.8325 8.09933 14.7345 7.87599 14.7214ZM15.976 9.86244C15.8584 9.85847 15.7412 9.8782 15.6314 9.92046C15.5216 9.96272 15.4214 10.0266 15.3368 10.1084C15.2522 10.1902 15.1849 10.2882 15.139 10.3965C15.0931 10.5048 15.0694 10.6213 15.0694 10.7389C15.0694 10.8566 15.0931 10.9731 15.139 11.0814C15.1849 11.1897 15.2522 11.2877 15.3368 11.3695C15.4214 11.4512 15.5216 11.5152 15.6314 11.5574C15.7412 11.5997 15.8584 11.6194 15.976 11.6154C16.2033 11.6078 16.4188 11.5121 16.5769 11.3485C16.735 11.185 16.8234 10.9664 16.8234 10.7389C16.8234 10.5115 16.735 10.2929 16.5769 10.1294C16.4188 9.96583 16.2033 9.87012 15.976 9.86244ZM20.025 7.43244C19.9074 7.42861 19.7902 7.44847 19.6805 7.49086C19.5707 7.53324 19.4706 7.59728 19.3861 7.67916C19.3016 7.76104 19.2344 7.85909 19.1886 7.96746C19.1428 8.07583 19.1193 8.19232 19.1194 8.30998C19.1195 8.42764 19.1433 8.54407 19.1894 8.65233C19.2355 8.7606 19.3029 8.85849 19.3875 8.94018C19.4722 9.02186 19.5725 9.08568 19.6823 9.12781C19.7922 9.16995 19.9094 9.18955 20.027 9.18544C20.2543 9.17751 20.4697 9.08155 20.6276 8.91784C20.7855 8.75412 20.8737 8.53544 20.8734 8.30797C20.8731 8.0805 20.7845 7.86203 20.6262 7.69868C20.4679 7.53532 20.2523 7.43986 20.025 7.43244ZM20.025 17.1514C19.91 17.1515 19.7961 17.1742 19.6898 17.2183C19.5835 17.2624 19.487 17.327 19.4057 17.4084C19.3244 17.4898 19.2599 17.5864 19.216 17.6927C19.172 17.799 19.1494 17.9129 19.1495 18.0279C19.1496 18.143 19.1723 18.2569 19.2164 18.3631C19.2604 18.4694 19.325 18.5659 19.4064 18.6472C19.4878 18.7285 19.5844 18.793 19.6907 18.837C19.797 18.8809 19.911 18.9035 20.026 18.9034C20.2583 18.9033 20.4811 18.8109 20.6453 18.6465C20.8095 18.4821 20.9016 18.2593 20.9015 18.0269C20.9014 17.7946 20.8089 17.5718 20.6446 17.4077C20.4802 17.2435 20.2573 17.1513 20.025 17.1514ZM24.074 14.7214C23.8507 14.7345 23.6408 14.8325 23.4873 14.9952C23.3338 15.158 23.2483 15.3732 23.2483 15.5969C23.2483 15.8207 23.3338 16.0359 23.4873 16.1987C23.6408 16.3614 23.8507 16.4594 24.074 16.4724C24.2973 16.4594 24.5072 16.3614 24.6607 16.1987C24.8142 16.0359 24.8997 15.8207 24.8997 15.5969C24.8997 15.3732 24.8142 15.158 24.6607 14.9952C24.5072 14.8325 24.2973 14.7345 24.074 14.7214ZM20.025 22.0104C19.9099 22.0105 19.7959 22.0332 19.6896 22.0774C19.5833 22.1215 19.4867 22.1861 19.4054 22.2675C19.324 22.349 19.2595 22.4456 19.2155 22.552C19.1715 22.6583 19.1489 22.7723 19.149 22.8874C19.1491 23.0025 19.1718 23.1165 19.2159 23.2228C19.26 23.3291 19.3246 23.4257 19.4061 23.5071C19.4875 23.5884 19.5842 23.6529 19.6905 23.6969C19.7969 23.7409 19.9109 23.7635 20.026 23.7634C20.2585 23.7633 20.4813 23.6708 20.6456 23.5064C20.8099 23.3419 20.9021 23.1189 20.902 22.8864C20.9019 22.654 20.8094 22.4311 20.6449 22.2668C20.4804 22.1025 20.2575 22.0103 20.025 22.0104ZM24.074 19.5804C23.8489 19.5912 23.6366 19.6882 23.4811 19.8513C23.3256 20.0144 23.2389 20.2311 23.2389 20.4564C23.2389 20.6818 23.3256 20.8985 23.4811 21.0616C23.6366 21.2247 23.8489 21.3217 24.074 21.3324C24.2991 21.3217 24.5114 21.2247 24.6669 21.0616C24.8224 20.8985 24.9091 20.6818 24.9091 20.4564C24.9091 20.2311 24.8224 20.0144 24.6669 19.8513C24.5114 19.6882 24.2991 19.5912 24.074 19.5804ZM15.976 24.4404C15.7527 24.4535 15.5428 24.5515 15.3893 24.7142C15.2358 24.877 15.1503 25.0922 15.1503 25.3159C15.1503 25.5397 15.2358 25.7549 15.3893 25.9177C15.5428 26.0804 15.7527 26.1784 15.976 26.1914C16.2081 26.1912 16.4306 26.0989 16.5948 25.9349C16.759 25.7709 16.8515 25.5485 16.852 25.3164C16.8517 25.0842 16.7593 24.8615 16.5951 24.6973C16.4309 24.5331 16.2082 24.4407 15.976 24.4404ZM15.976 19.5804C15.8608 19.5805 15.7468 19.6033 15.6404 19.6474C15.534 19.6915 15.4374 19.7562 15.356 19.8377C15.2746 19.9191 15.2101 20.0159 15.1661 20.1223C15.122 20.2287 15.0994 20.3428 15.0995 20.4579C15.0996 20.5731 15.1223 20.6871 15.1664 20.7935C15.2106 20.8999 15.2752 20.9965 15.3567 21.0779C15.4382 21.1593 15.5349 21.2239 15.6413 21.2679C15.7478 21.3119 15.8618 21.3345 15.977 21.3344C16.2096 21.3343 16.4326 21.2418 16.597 21.0772C16.7614 20.9127 16.8536 20.6895 16.8535 20.4569C16.8534 20.2243 16.7608 20.0013 16.5963 19.837C16.4317 19.6726 16.2086 19.5803 15.976 19.5804ZM11.926 12.2914C11.7027 12.3045 11.4928 12.4025 11.3393 12.5652C11.1858 12.728 11.1003 12.9432 11.1003 13.1669C11.1003 13.3907 11.1858 13.6059 11.3393 13.7687C11.4928 13.9314 11.7027 14.0294 11.926 14.0424C12.1478 14.0274 12.3557 13.9287 12.5075 13.7663C12.6593 13.6038 12.7438 13.3898 12.7438 13.1674C12.7438 12.9451 12.6593 12.731 12.5075 12.5686C12.3557 12.4062 12.1478 12.3074 11.926 12.2924V12.2914ZM11.926 22.0104C11.7027 22.0235 11.4928 22.1215 11.3393 22.2842C11.1858 22.447 11.1003 22.6622 11.1003 22.8859C11.1003 23.1097 11.1858 23.3249 11.3393 23.4877C11.4928 23.6504 11.7027 23.7484 11.926 23.7614C12.1493 23.7484 12.3592 23.6504 12.5127 23.4877C12.6662 23.3249 12.7517 23.1097 12.7517 22.8859C12.7517 22.6622 12.6662 22.447 12.5127 22.2842C12.3592 22.1215 12.1493 22.0235 11.926 22.0104Z" fill="white"/>
</g>
<defs>
<clipPath id="clip0_1_6133">
<rect width="32" height="32" fill="white" transform="translate(0.000488281 0.00244141)"/>
</clipPath>
</defs>
</svg>
