<svg width="32" height="32" viewBox="0 0 32 32" fill="none" xmlns="http://www.w3.org/2000/svg">
<g clip-path="url(#clip0_1_6129)">
<path d="M16.0005 32.0024C24.837 32.0024 32.0005 24.839 32.0005 16.0024C32.0005 7.16589 24.837 0.00244141 16.0005 0.00244141C7.16393 0.00244141 0.000488281 7.16589 0.000488281 16.0024C0.000488281 24.839 7.16393 32.0024 16.0005 32.0024Z" fill="#F04086"/>
<path d="M23.0916 16.273C22.4615 15.577 21.5555 15.145 20.3714 14.9769V14.9519C21.4084 14.7839 22.2235 14.3589 22.7775 13.6789C23.3398 13.0044 23.6452 12.1528 23.6396 11.2747C23.6396 9.81362 23.1696 8.82055 22.1955 8.03951C21.2214 7.25946 19.7593 7.00244 17.7782 7.00244H10.2968V13.9659H6.00049V16.633H17.7282C18.6513 16.633 19.3443 16.698 19.8024 17.0671C20.2604 17.4361 20.4944 17.9131 20.4944 18.6182C20.4944 19.3232 20.2634 19.9253 19.8024 20.3033C19.3423 20.6803 18.6483 20.9293 17.7282 20.9293H13.704V18.8552H10.2968V23.5965H18.0242C19.9894 23.5965 21.4915 23.0834 22.5335 22.2864C23.5746 21.4893 24.0636 20.3123 24.0636 18.8672C24.0766 17.9111 23.7296 16.9851 23.0916 16.273ZM17.2982 13.9589H13.704V9.66261H17.2982C19.1463 9.66261 20.0684 10.3837 20.0684 11.8107C20.0684 13.2378 19.1463 13.9589 17.2982 13.9589Z" fill="white"/>
</g>
<defs>
<clipPath id="clip0_1_6129">
<rect width="32" height="32" fill="white" transform="translate(0.000488281 0.00244141)"/>
</clipPath>
</defs>
</svg>
