<svg width="32" height="32" viewBox="0 0 32 32" fill="none" xmlns="http://www.w3.org/2000/svg">
<g clip-path="url(#clip0_1_6125)">
<path d="M16.001 32.0024C24.8375 32.0024 32.001 24.839 32.001 16.0024C32.001 7.16588 24.8375 0.00244141 16.001 0.00244141C7.16442 0.00244141 0.000976562 7.16588 0.000976562 16.0024C0.000976562 24.839 7.16442 32.0024 16.001 32.0024Z" fill="#2C76B7"/>
<path d="M14.123 20.8284L12.617 19.9804C12.237 20.4954 11.619 20.8304 10.919 20.8304C10.219 20.8304 9.59898 20.4944 9.21998 19.9774L8.73098 20.2544C8.7746 20.359 8.79703 20.4712 8.79698 20.5844C8.79554 20.7009 8.77117 20.816 8.72527 20.9231C8.67936 21.0301 8.61281 21.1271 8.52942 21.2084C8.44603 21.2898 8.34744 21.3539 8.23926 21.3972C8.13109 21.4404 8.01546 21.4619 7.89898 21.4604C7.40298 21.4604 7.00098 21.0684 7.00098 20.5844C7.00098 20.1004 7.40298 19.7074 7.89898 19.7074C8.18798 19.7074 8.44398 19.8404 8.60898 20.0474L9.08898 19.7754C8.91892 19.4754 8.82967 19.1363 8.82998 18.7914C8.82998 17.6914 9.72198 16.7954 10.838 16.7534V15.1994C9.75098 15.1574 8.88398 14.2844 8.88398 13.2134C8.88398 12.8734 8.97198 12.5514 9.12698 12.2714L8.61698 11.9874C8.5321 12.0969 8.42322 12.1854 8.29873 12.246C8.17424 12.3067 8.03747 12.338 7.89898 12.3374C7.40298 12.3374 7.00098 11.9444 7.00098 11.4604C7.00098 10.9764 7.40298 10.5844 7.89898 10.5844C8.39498 10.5844 8.79698 10.9764 8.79698 11.4604C8.79698 11.5724 8.77498 11.6804 8.73598 11.7784L9.25598 12.0684C9.62398 11.5584 10.232 11.2264 10.919 11.2264C11.621 11.2264 12.239 11.5724 12.605 12.0994L14.138 11.2504C13.998 10.9784 13.918 10.6704 13.918 10.3454C13.918 9.27344 14.776 8.39744 15.858 8.33544V7.74744C15.6455 7.72104 15.4497 7.61839 15.3072 7.45856C15.1647 7.29873 15.085 7.09259 15.083 6.87844C15.083 6.39444 15.485 6.00244 15.981 6.00244C16.477 6.00244 16.879 6.39444 16.879 6.87844C16.879 7.32244 16.541 7.68844 16.103 7.74744V8.33544C17.185 8.39744 18.043 9.27344 18.043 10.3454C18.043 10.6714 17.963 10.9804 17.822 11.2534L19.352 12.1144C19.5399 11.8337 19.7945 11.6039 20.0928 11.4455C20.3912 11.2871 20.7242 11.2049 21.062 11.2064C21.771 11.2064 22.394 11.5594 22.759 12.0954L23.264 11.7744C23.2248 11.6744 23.2048 11.5679 23.205 11.4604C23.205 10.9764 23.607 10.5844 24.103 10.5844C24.599 10.5844 25.001 10.9764 25.001 11.4604C25.001 11.9444 24.599 12.3374 24.103 12.3374C23.9639 12.338 23.8266 12.3064 23.7017 12.2451C23.5768 12.1839 23.4677 12.0947 23.383 11.9844L22.883 12.3024C23.02 12.5704 23.098 12.8724 23.098 13.1934C23.098 14.2844 22.198 15.1704 21.083 15.1804V16.7984C22.213 16.8084 23.125 17.7064 23.125 18.8114C23.125 19.1464 23.041 19.4624 22.892 19.7414L23.406 20.0314C23.4913 19.9296 23.5979 19.8478 23.7184 19.7918C23.8388 19.7358 23.9701 19.707 24.103 19.7074C24.599 19.7074 25.001 20.1004 25.001 20.5844C25.001 21.0684 24.599 21.4604 24.103 21.4604C23.9865 21.4619 23.8709 21.4404 23.7627 21.3972C23.6545 21.3539 23.5559 21.2898 23.4725 21.2084C23.3891 21.1271 23.3226 21.0301 23.2767 20.9231C23.2308 20.816 23.2064 20.7009 23.205 20.5844C23.2047 20.4642 23.2299 20.3452 23.279 20.2354L22.766 19.9454C22.395 20.4754 21.77 20.8244 21.062 20.8244C20.361 20.8244 19.742 20.4824 19.369 19.9604L17.835 20.8234C18.002 21.1184 18.097 21.4584 18.097 21.8194C18.097 22.9064 17.237 23.7974 16.144 23.8794V24.2634C16.3483 24.2982 16.5339 24.4037 16.6682 24.5614C16.8026 24.7192 16.8772 24.9192 16.879 25.1264C16.8775 25.2429 16.8532 25.358 16.8073 25.4651C16.7614 25.5721 16.6948 25.6691 16.6114 25.7504C16.528 25.8318 16.4294 25.8959 16.3213 25.9391C16.2131 25.9824 16.0975 26.0039 15.981 26.0024C15.8645 26.0039 15.7489 25.9824 15.6407 25.9391C15.5325 25.8959 15.4339 25.8318 15.3505 25.7504C15.2671 25.6691 15.2006 25.5721 15.1547 25.4651C15.1088 25.358 15.0844 25.2429 15.083 25.1264C15.083 24.6684 15.441 24.2934 15.899 24.2534V23.8834C14.769 23.8414 13.865 22.9334 13.865 21.8194C13.865 21.4594 13.958 21.1224 14.123 20.8284ZM14.253 20.6254C14.4517 20.354 14.7119 20.1334 15.0122 19.9818C15.3126 19.8303 15.6445 19.752 15.981 19.7534C16.691 19.7534 17.321 20.0964 17.705 20.6214L19.241 19.7564C19.0825 19.4667 18.9997 19.1417 19 18.8114C19 17.7734 19.804 16.9194 20.838 16.8094V15.1694C19.819 15.0594 19.027 14.2174 19.027 13.1934C19.027 12.8814 19.1 12.5854 19.232 12.3234L17.698 11.4594C17.328 12.0014 16.698 12.3584 15.981 12.3584C15.263 12.3584 14.631 12.0004 14.261 11.4584L12.731 12.3054C12.874 12.5774 12.955 12.8854 12.955 13.2134C12.955 14.2574 12.131 15.1134 11.083 15.1934V16.7584C12.16 16.8384 13.009 17.7184 13.009 18.7914C13.009 19.1494 12.914 19.4854 12.748 19.7784L14.253 20.6254ZM10.919 19.8594C11.524 19.8594 12.014 19.3814 12.014 18.7914C12.014 18.2014 11.524 17.7234 10.919 17.7234C10.315 17.7234 9.82498 18.2014 9.82498 18.7914C9.82498 19.3814 10.315 19.8594 10.919 19.8594ZM10.919 14.2544C11.509 14.2544 11.986 13.7884 11.986 13.2144C11.986 12.6404 11.508 12.1724 10.919 12.1724C10.33 12.1724 9.85298 12.6384 9.85298 13.2134C9.85298 13.7884 10.33 14.2544 10.919 14.2544ZM15.981 11.3994C16.577 11.3994 17.061 10.9274 17.061 10.3454C17.061 9.76244 16.577 9.29044 15.981 9.29044C15.384 9.29044 14.901 9.76244 14.901 10.3454C14.901 10.9274 15.384 11.3994 15.981 11.3994ZM21.062 14.2344C21.652 14.2344 22.129 13.7684 22.129 13.1944C22.129 12.6184 21.651 12.1524 21.062 12.1524C20.473 12.1524 19.996 12.6184 19.996 13.1934C19.996 13.7684 20.473 14.2344 21.062 14.2344ZM21.062 19.8654C21.659 19.8654 22.142 19.3934 22.142 18.8114C22.142 18.2284 21.659 17.7564 21.062 17.7564C20.466 17.7564 19.982 18.2284 19.982 18.8114C19.982 19.3934 20.466 19.8654 21.062 19.8654ZM15.981 22.9024C16.593 22.9024 17.089 22.4174 17.089 21.8204C17.089 21.2234 16.593 20.7384 15.981 20.7384C15.368 20.7384 14.872 21.2224 14.872 21.8204C14.872 22.4184 15.368 22.9024 15.981 22.9024ZM15.981 18.9224C14.329 18.9224 12.99 17.6154 12.99 16.0034C12.99 14.3914 14.329 13.0834 15.98 13.0834C17.633 13.0834 18.972 14.3914 18.972 16.0034C18.972 17.6154 17.632 18.9234 15.981 18.9234V18.9224ZM15.981 17.1474C16.628 17.1474 17.153 16.6354 17.153 16.0034C17.153 15.3714 16.628 14.8594 15.981 14.8594C15.333 14.8594 14.808 15.3714 14.808 16.0034C14.808 16.6354 15.333 17.1474 15.981 17.1474Z" fill="white"/>
</g>
<defs>
<clipPath id="clip0_1_6125">
<rect width="32" height="32" fill="white" transform="translate(0.000976562 0.00244141)"/>
</clipPath>
</defs>
</svg>
