<svg width="32" height="32" viewBox="0 0 32 32" fill="none" xmlns="http://www.w3.org/2000/svg">
<g clip-path="url(#clip0_1_6121)">
<path d="M16.001 32.0024C24.8375 32.0024 32.001 24.839 32.001 16.0024C32.001 7.16588 24.8375 0.00244141 16.001 0.00244141C7.16442 0.00244141 0.000976562 7.16588 0.000976562 16.0024C0.000976562 24.839 7.16442 32.0024 16.001 32.0024Z" fill="#404040"/>
<path d="M16.001 27.0024C9.92598 27.0024 5.00098 22.0774 5.00098 16.0024C5.00098 9.92744 9.92598 5.00244 16.001 5.00244C22.076 5.00244 27.001 9.92744 27.001 16.0024C27.001 22.0774 22.076 27.0024 16.001 27.0024ZM16.001 25.9004C21.467 25.9004 25.899 21.4684 25.899 16.0024C25.899 10.5364 21.467 6.10444 16.001 6.10444C10.535 6.10444 6.10298 10.5364 6.10298 16.0024C6.10298 21.4684 10.535 25.9004 16.001 25.9004ZM22.044 12.1224C22.209 15.0604 19.494 15.8364 19.494 15.8364C22.597 16.2794 22.431 18.9404 22.431 18.9404C22.431 23.2624 17.609 23.4314 17.609 23.4314H10.846V8.57444H16.944C22.044 8.79644 22.044 12.1224 22.044 12.1224ZM14.338 11.2354V14.8374H16.778C16.778 14.8374 18.496 14.7824 18.606 13.3964V12.5094C18.606 12.5094 18.606 11.3464 16.943 11.2354H14.338ZM18.938 19.3854V18.4974C18.938 18.4974 18.938 17.3324 17.276 17.2214H14.337V20.8264H17.11C17.11 20.8264 18.828 20.7714 18.939 19.3844L18.938 19.3854Z" fill="white"/>
</g>
<defs>
<clipPath id="clip0_1_6121">
<rect width="32" height="32" fill="white" transform="translate(0.000976562 0.00244141)"/>
</clipPath>
</defs>
</svg>
