<svg width="32" height="32" viewBox="0 0 32 32" fill="none" xmlns="http://www.w3.org/2000/svg">
<g clip-path="url(#clip0_1_6117)">
<path d="M16.001 32.0024C24.8375 32.0024 32.001 24.839 32.001 16.0024C32.001 7.16588 24.8375 0.00244141 16.001 0.00244141C7.16442 0.00244141 0.000976562 7.16588 0.000976562 16.0024C0.000976562 24.839 7.16442 32.0024 16.001 32.0024Z" fill="#E54C40"/>
<path d="M9.01857 8.36244C8.99857 8.21544 9.13657 8.12744 9.21557 8.02744C10.2096 7.04387 11.199 6.05552 12.1836 5.06244C12.1696 7.77844 12.1916 10.4944 12.1726 13.2104C14.2216 12.0804 16.8026 12.0304 18.9086 13.0424C18.9066 13.2174 18.9066 13.3914 18.9066 13.5674C17.2256 12.6634 15.1586 12.5474 13.3656 13.1774C11.3026 13.8874 9.65857 15.6344 9.01557 17.7134C9.01857 14.5954 9.01457 11.4794 9.01857 8.36244ZM22.4086 20.0244C22.346 21.6776 21.6697 23.2481 20.5116 24.4294C19.4227 25.5486 17.9769 26.2521 16.4242 26.4183C14.8716 26.5845 13.3097 26.2029 12.0086 25.3394C10.5286 24.3654 9.45857 22.7854 9.13057 21.0434C8.84557 19.6634 9.03857 18.1984 9.63157 16.9234C10.3054 15.4894 11.4623 14.3382 12.8996 13.6714C14.7836 12.7834 17.0796 12.8584 18.9036 13.8634C18.8926 15.3574 18.8936 16.8514 18.9046 18.3454C18.6066 17.7284 18.1646 17.1764 17.5796 16.8104C16.4226 16.0634 14.8146 16.0984 13.6976 16.9084C12.4676 17.7544 11.9126 19.4324 12.4016 20.8434C12.8386 22.2344 14.2216 23.2554 15.6836 23.2394C17.0896 23.2744 18.4466 22.3554 18.9496 21.0444C19.2696 20.3014 19.1896 19.4804 19.1966 18.6944C19.2026 14.6394 19.1866 10.5844 19.1886 6.53044C19.1896 6.02044 19.1986 5.51044 19.1686 5.00244C20.2586 6.07644 21.3386 7.16344 22.4186 8.24844C22.3966 12.1734 22.4186 16.0984 22.4086 20.0254V20.0244Z" fill="white"/>
</g>
<defs>
<clipPath id="clip0_1_6117">
<rect width="32" height="32" fill="white" transform="translate(0.000976562 0.00244141)"/>
</clipPath>
</defs>
</svg>
