<svg width="32" height="32" viewBox="0 0 32 32" fill="none" xmlns="http://www.w3.org/2000/svg">
<g clip-path="url(#clip0_1_6113)">
<path d="M16 32.0039C24.8366 32.0039 32 24.8405 32 16.0039C32 7.16735 24.8366 0.00390625 16 0.00390625C7.16344 0.00390625 0 7.16735 0 16.0039C0 24.8405 7.16344 32.0039 16 32.0039Z" fill="#0B76FF"/>
<path d="M27.16 12.6539V10.4539L20 14.6239L15.58 7.00391V12.0039L17.83 15.9039L16.92 16.4439L15.58 14.0839L14.14 16.6439L13.14 16.2339L15.58 12.0039V7.00391L10.74 15.2439L4 12.4539V15.0039L10 16.4839L6.2 23.0039H15.58V20.3139H10.79L12.58 17.1739L13.66 17.4439L12.58 19.3439H18.58L17.68 17.7539L18.87 17.6639L20.4 20.3139H15.58V23.0039H25L21.76 17.4739L27.2 17.0739V14.8639L21.08 16.3739L27.19 14.8039V12.8039L20.56 15.4939L27.16 12.6539ZM18.46 17.0039L17.38 17.2739L18.44 17.0039H18.46ZM18.12 16.4039L17.12 16.8039L18.12 16.3939V16.4039Z" fill="white"/>
</g>
<defs>
<clipPath id="clip0_1_6113">
<rect width="32" height="32" fill="white" transform="translate(0 0.00390625)"/>
</clipPath>
</defs>
</svg>
