<svg width="32" height="32" viewBox="0 0 32 32" fill="none" xmlns="http://www.w3.org/2000/svg">
<g clip-path="url(#clip0_1_6109)">
<path d="M16 32.0039C24.8366 32.0039 32 24.8405 32 16.0039C32 7.16735 24.8366 0.00390625 16 0.00390625C7.16344 0.00390625 0 7.16735 0 16.0039C0 24.8405 7.16344 32.0039 16 32.0039Z" fill="#13A0F6"/>
<path fill-rule="evenodd" clip-rule="evenodd" d="M8.57599 11.693C8.18456 11.4877 7.85678 11.1791 7.62816 10.8009C7.39953 10.4226 7.27878 9.98896 7.27899 9.54696C7.10807 9.22288 7.0131 8.86417 7.00126 8.49797C6.98942 8.13178 7.06103 7.76769 7.21065 7.43324C7.36028 7.0988 7.58402 6.80277 7.86493 6.56755C8.14584 6.33233 8.47657 6.16408 8.83209 6.07553C9.18762 5.98698 9.55863 5.98045 9.91705 6.05643C10.2755 6.13242 10.6119 6.28893 10.9009 6.51412C11.1899 6.73931 11.424 7.02728 11.5853 7.35625C11.7466 7.68522 11.8309 8.04657 11.832 8.41296C13.1974 7.61446 14.7512 7.19469 16.333 7.19696C21.273 7.19696 25.279 11.211 25.279 16.161C25.279 21.111 21.274 25.125 16.333 25.125C11.392 25.125 7.38699 21.112 7.38699 16.161C7.38469 14.5931 7.79473 13.0523 8.57599 11.693ZM16.333 20.571C18.763 20.571 20.733 18.597 20.733 16.161C20.733 13.725 18.763 11.751 16.333 11.751C13.903 11.751 11.933 13.726 11.933 16.161C11.933 18.596 13.903 20.571 16.333 20.571Z" fill="white"/>
</g>
<defs>
<clipPath id="clip0_1_6109">
<rect width="32" height="32" fill="white" transform="translate(0 0.00390625)"/>
</clipPath>
</defs>
</svg>
