<svg width="32" height="32" viewBox="0 0 32 32" fill="none" xmlns="http://www.w3.org/2000/svg">
<g clip-path="url(#clip0_1_6105)">
<path d="M16 32.0039C24.8366 32.0039 32 24.8405 32 16.0039C32 7.16735 24.8366 0.00390625 16 0.00390625C7.16344 0.00390625 0 7.16735 0 16.0039C0 24.8405 7.16344 32.0039 16 32.0039Z" fill="black"/>
<path d="M16.941 24.5809C16.993 24.7029 17.021 24.8359 17.021 24.9759C17.021 25.5439 16.553 26.0039 15.976 26.0039C15.399 26.0039 14.931 25.5439 14.931 24.9759C14.931 24.8399 14.958 24.7099 15.007 24.5909L8.797 21.0639C8.6989 21.1637 8.58185 21.2429 8.4527 21.2969C8.32356 21.3508 8.18495 21.3783 8.045 21.3779C7.468 21.3779 7 20.9179 7 20.3499C7 19.8699 7.333 19.4679 7.784 19.3539V12.3269C7.56115 12.2718 7.36306 12.1439 7.22107 11.9635C7.07907 11.7831 7.00128 11.5605 7 11.3309C7 10.7629 7.468 10.3029 8.045 10.3029C8.391 10.3029 8.698 10.4689 8.889 10.7249L14.961 7.27492C14.9408 7.1955 14.9307 7.11386 14.931 7.03192C14.931 6.46392 15.4 6.00392 15.976 6.00392C16.132 6.00311 16.2862 6.03751 16.427 6.10456C16.5679 6.1716 16.6918 6.26957 16.7896 6.39115C16.8873 6.51274 16.9564 6.65481 16.9916 6.80679C17.0268 6.95877 17.0273 7.11673 16.993 7.26892L23.101 10.7389C23.291 10.4749 23.602 10.3029 23.955 10.3029C24.532 10.3029 25 10.7629 25 11.3309C25 11.8109 24.665 12.2149 24.213 12.3279L24.195 19.3479C24.656 19.4549 25 19.8629 25 20.3499C25 20.9179 24.532 21.3779 23.955 21.3779C23.8091 21.3783 23.6648 21.3482 23.5312 21.2897C23.3976 21.2311 23.2776 21.1454 23.179 21.0379L16.941 24.5809ZM16.662 24.2009L22.949 20.6289C22.8902 20.4246 22.8972 20.207 22.969 20.0069L16.904 16.1069C16.7878 16.2298 16.6476 16.3277 16.4921 16.3944C16.3367 16.4611 16.1692 16.4953 16 16.4949C15.8114 16.4954 15.6253 16.4529 15.4556 16.3705C15.286 16.2882 15.1373 16.1683 15.021 16.0199L9.044 20.0469C9.10664 20.2477 9.10525 20.463 9.04 20.6629L15.282 24.2079C15.474 24.0398 15.7208 23.9474 15.976 23.9479C16.239 23.9479 16.479 24.0429 16.662 24.1999V24.2009ZM16.781 7.68792C16.6388 7.85576 16.4474 7.97469 16.234 8.02792L16.218 14.0839C16.5011 14.1319 16.7582 14.2781 16.9442 14.4968C17.1302 14.7155 17.2332 14.9928 17.235 15.2799C17.235 15.4309 17.207 15.5769 17.155 15.7099L23.225 19.6139C23.36 19.4839 23.53 19.3909 23.72 19.3479L23.738 12.3369C23.4796 12.2842 23.2512 12.1348 23.0995 11.9191C22.9478 11.7034 22.8843 11.4379 22.922 11.1769L16.781 7.68792ZM15.176 7.69292L9.075 11.1579C9.11832 11.422 9.05747 11.6926 8.90526 11.9127C8.75305 12.1328 8.52137 12.2852 8.259 12.3379V19.3429C8.471 19.3869 8.659 19.4929 8.803 19.6429L14.808 15.5979C14.7657 15.4375 14.7566 15.2701 14.7813 15.106C14.8059 14.9419 14.8637 14.7846 14.9513 14.6436C15.0388 14.5027 15.1541 14.381 15.2903 14.2862C15.4264 14.1913 15.5805 14.1252 15.743 14.0919L15.759 8.03792C15.5318 7.9907 15.3267 7.86935 15.176 7.69292Z" fill="white"/>
</g>
<defs>
<clipPath id="clip0_1_6105">
<rect width="32" height="32" fill="white" transform="translate(0 0.00390625)"/>
</clipPath>
</defs>
</svg>
