<svg width="32" height="32" viewBox="0 0 32 32" fill="none" xmlns="http://www.w3.org/2000/svg">
<g clip-path="url(#clip0_1_6101)">
<path d="M16 32.0039C24.8366 32.0039 32 24.8405 32 16.0039C32 7.16735 24.8366 0.00390625 16 0.00390625C7.16344 0.00390625 0 7.16735 0 16.0039C0 24.8405 7.16344 32.0039 16 32.0039Z" fill="#2AABE4"/>
<path fill-rule="evenodd" clip-rule="evenodd" d="M7.9 7.00391H14.1C14.3387 7.00391 14.5676 7.09873 14.7364 7.26751C14.9052 7.43629 15 7.66521 15 7.90391V14.1039C15 14.3426 14.9052 14.5715 14.7364 14.7403C14.5676 14.9091 14.3387 15.0039 14.1 15.0039H7.9C7.66131 15.0039 7.43239 14.9091 7.2636 14.7403C7.09482 14.5715 7 14.3426 7 14.1039V7.90391C7 7.66521 7.09482 7.43629 7.2636 7.26751C7.43239 7.09873 7.66131 7.00391 7.9 7.00391ZM17.9 7.00391H24.1C24.3387 7.00391 24.5676 7.09873 24.7364 7.26751C24.9052 7.43629 25 7.66521 25 7.90391V14.1039C25 14.3426 24.9052 14.5715 24.7364 14.7403C24.5676 14.9091 24.3387 15.0039 24.1 15.0039H17.9C17.6613 15.0039 17.4324 14.9091 17.2636 14.7403C17.0948 14.5715 17 14.3426 17 14.1039V7.90391C17 7.66521 17.0948 7.43629 17.2636 7.26751C17.4324 7.09873 17.6613 7.00391 17.9 7.00391ZM17.9 17.0039H24.1C24.3387 17.0039 24.5676 17.0987 24.7364 17.2675C24.9052 17.4363 25 17.6652 25 17.9039V24.1039C25 24.3426 24.9052 24.5715 24.7364 24.7403C24.5676 24.9091 24.3387 25.0039 24.1 25.0039H17.9C17.6613 25.0039 17.4324 24.9091 17.2636 24.7403C17.0948 24.5715 17 24.3426 17 24.1039V17.9039C17 17.6652 17.0948 17.4363 17.2636 17.2675C17.4324 17.0987 17.6613 17.0039 17.9 17.0039ZM7.9 17.0039H14.1C14.3387 17.0039 14.5676 17.0987 14.7364 17.2675C14.9052 17.4363 15 17.6652 15 17.9039V24.1039C15 24.3426 14.9052 24.5715 14.7364 24.7403C14.5676 24.9091 14.3387 25.0039 14.1 25.0039H7.9C7.66131 25.0039 7.43239 24.9091 7.2636 24.7403C7.09482 24.5715 7 24.3426 7 24.1039V17.9039C7 17.6652 7.09482 17.4363 7.2636 17.2675C7.43239 17.0987 7.66131 17.0039 7.9 17.0039Z" fill="white"/>
</g>
<defs>
<clipPath id="clip0_1_6101">
<rect width="32" height="32" fill="white" transform="translate(0 0.00390625)"/>
</clipPath>
</defs>
</svg>
