<svg width="32" height="32" viewBox="0 0 32 32" fill="none" xmlns="http://www.w3.org/2000/svg">
<g clip-path="url(#clip0_1_6097)">
<path d="M16 32.0039C24.8366 32.0039 32 24.8405 32 16.0039C32 7.16735 24.8366 0.00390625 16 0.00390625C7.16344 0.00390625 0 7.16735 0 16.0039C0 24.8405 7.16344 32.0039 16 32.0039Z" fill="#181818"/>
<path d="M23.6 11.1339C23.6382 11.9332 23.4233 12.7241 22.986 13.3941C22.5486 14.0642 21.911 14.5792 21.164 14.8659C21.164 14.8659 22.176 13.8659 22.129 11.3029C22.081 8.73991 20.199 7.47291 20.199 7.47291C20.199 7.47291 23.553 8.21991 23.599 11.1329L23.6 11.1339ZM12.436 24.8229L9 24.9919V24.6709C9 24.6709 11.103 24.4539 11.103 20.6809V11.0409C11.103 7.84691 9 7.29391 9 7.29391V7.00391L12.436 7.17191V24.8229ZM17.928 25.0029C16.433 25.0159 13.66 24.8069 13.66 24.8069V7.19691C15.488 7.17191 16.127 6.91991 17.633 7.13691C19.14 7.35291 20.434 8.85791 20.787 10.3629C21.14 11.8679 20.764 13.3009 20.281 14.0829C19.798 14.8649 18.74 15.4079 18.74 15.4079C18.74 15.4079 20.34 15.9619 20.905 16.4429C21.47 16.9249 22.565 18.2369 22.141 21.0909C21.717 23.9449 19.422 24.9909 17.928 25.0029ZM21.899 24.3529C21.899 24.3529 23.529 22.9329 23.457 20.0519C23.385 17.1709 21.899 15.8169 21.899 15.8169C21.899 15.8169 24.965 16.5869 24.999 20.0189C25.035 23.4499 21.899 24.3539 21.899 24.3539V24.3529ZM18.799 14.0189C19.897 12.5579 19.552 9.80891 18.222 8.86891C16.892 7.92891 15.492 8.39891 15.222 8.66391C14.95 8.92891 14.962 15.0939 14.962 15.0939C14.962 15.0939 17.7 15.4799 18.798 14.0189H18.799ZM19.002 16.6439C17.974 16.1859 14.962 16.3059 14.962 16.3059C14.962 16.3059 14.915 17.8629 15.025 20.7769C15.135 23.6909 16.108 23.6749 17.12 23.7149C18.132 23.7549 20.062 23.6829 20.697 21.1699C21.333 18.6579 20.03 17.1009 19.002 16.6439Z" fill="white"/>
</g>
<defs>
<clipPath id="clip0_1_6097">
<rect width="32" height="32" fill="white" transform="translate(0 0.00390625)"/>
</clipPath>
</defs>
</svg>
