<svg width="32" height="32" viewBox="0 0 32 32" fill="none" xmlns="http://www.w3.org/2000/svg">
<g clip-path="url(#clip0_1_6091)">
<path d="M16 32.0039C24.8366 32.0039 32 24.8405 32 16.0039C32 7.16735 24.8366 0.00390625 16 0.00390625C7.16344 0.00390625 0 7.16735 0 16.0039C0 24.8405 7.16344 32.0039 16 32.0039Z" fill="#101341"/>
<path fill-rule="evenodd" clip-rule="evenodd" d="M11.091 7.00391H21.319L26.569 16.0039L21.319 25.0039H11L16.16 16.0039L11.09 7.00391H11.091ZM16.521 10.1699L19.872 16.0039L16.522 21.8379H19.51L22.858 16.0039L19.508 10.1699H16.522H16.521Z" fill="white"/>
<path opacity="0.5" fill-rule="evenodd" clip-rule="evenodd" d="M12.613 11.2409L9.711 16.2149L12.587 21.1449L10.748 24.3539L6 16.2149L10.789 8.00391L12.613 11.2409Z" fill="white"/>
</g>
<defs>
<clipPath id="clip0_1_6091">
<rect width="32" height="32" fill="white" transform="translate(0 0.00390625)"/>
</clipPath>
</defs>
</svg>
