<svg width="32" height="32" viewBox="0 0 32 32" fill="none" xmlns="http://www.w3.org/2000/svg">
<g clip-path="url(#clip0_1_6087)">
<path d="M16.0005 32.0039C24.837 32.0039 32.0005 24.8405 32.0005 16.0039C32.0005 7.16735 24.837 0.00390625 16.0005 0.00390625C7.16393 0.00390625 0.000488281 7.16735 0.000488281 16.0039C0.000488281 24.8405 7.16393 32.0039 16.0005 32.0039Z" fill="#18578C"/>
<path d="M12.1335 20.3399C12.7955 21.0149 12.7955 22.1089 12.1335 22.7839C11.4715 23.4589 10.3975 23.4609 9.73349 22.7869C9.41349 22.4629 9.23349 22.0219 9.23349 21.5619C9.23349 21.1019 9.41349 20.6619 9.73349 20.3369C9.88983 20.177 10.0766 20.0499 10.2828 19.9633C10.489 19.8766 10.7105 19.8322 10.9341 19.8324C11.1578 19.8327 11.3791 19.8778 11.5851 19.9649C11.7911 20.0521 11.9775 20.1796 12.1335 20.3399ZM23.1965 8.72991C23.509 8.86395 23.775 9.0871 23.9614 9.37149C24.1478 9.65588 24.2463 9.98888 24.2445 10.3289C24.2445 11.0289 23.8305 11.6589 23.1965 11.9269C22.5625 12.1949 21.8315 12.0469 21.3465 11.5519C21.0267 11.2252 20.8479 10.7861 20.8485 10.3289C20.8485 9.86891 21.0275 9.42891 21.3465 9.10591C21.5814 8.86469 21.8836 8.69988 22.2136 8.63299C22.5436 8.5661 22.8862 8.60022 23.1965 8.73091V8.72991ZM11.9105 19.0069L13.5475 17.3309C13.7078 17.7414 13.9495 18.1152 14.2582 18.4297C14.5669 18.7442 14.9361 18.993 15.3435 19.1609L13.7025 20.8319L11.9105 19.0069ZM21.6075 12.8699L19.9665 14.5419C19.8073 14.1313 19.5656 13.7576 19.2565 13.4439C18.9493 13.1306 18.5815 12.8832 18.1755 12.7169L19.8155 11.0449L21.6075 12.8699ZM20.9205 20.8119C21.0461 20.4981 21.2625 20.2289 21.542 20.0388C21.8216 19.8487 22.1515 19.7464 22.4895 19.7449C23.1765 19.7449 23.7955 20.1659 24.0585 20.8119C24.3205 21.4589 24.1755 22.2019 23.6905 22.6969C23.5343 22.8574 23.3475 22.9849 23.1413 23.0722C22.935 23.1594 22.7134 23.2045 22.4895 23.2049C22.2657 23.2044 22.0443 23.1592 21.8382 23.072C21.6322 22.9848 21.4456 22.8572 21.2895 22.6969C21.0512 22.4527 20.8894 22.1443 20.8238 21.8094C20.7583 21.4746 20.7919 21.1279 20.9205 20.8119ZM9.53549 9.51391C9.66095 9.19989 9.8773 8.93049 10.1568 8.74022C10.4364 8.54994 10.7663 8.44746 11.1045 8.44591C11.7915 8.44591 12.4105 8.86691 12.6735 9.51391C12.9355 10.1599 12.7905 10.9039 12.3055 11.3989C12.1492 11.5592 11.9624 11.6866 11.7562 11.7736C11.5499 11.8607 11.3284 11.9057 11.1045 11.9059C10.8808 11.9055 10.6594 11.8605 10.4533 11.7735C10.2473 11.6864 10.0607 11.5591 9.90449 11.3989C9.66622 11.1547 9.50438 10.8463 9.43884 10.5114C9.37329 10.1766 9.40688 9.82993 9.53549 9.51391ZM19.6805 20.7579L18.0355 19.0909C18.4429 18.923 18.8121 18.6742 19.1208 18.3597C19.4294 18.0452 19.6712 17.6714 19.8315 17.2609L21.4715 18.9329L19.6805 20.7579ZM13.8395 10.9479L15.4795 12.6209C15.0745 12.7851 14.7078 13.0312 14.4025 13.3439C14.0945 13.6579 13.8515 14.0339 13.6885 14.4459L12.0485 12.7739L13.8395 10.9479ZM16.7815 9.46691C15.8425 9.46691 15.0815 8.69191 15.0815 7.73491C15.0815 6.77791 15.8425 6.00391 16.7815 6.00391C17.2315 6.00391 17.6645 6.18591 17.9835 6.51091C18.3025 6.83591 18.4815 7.27591 18.4805 7.73491C18.4805 8.69191 17.7205 9.46691 16.7805 9.46691H16.7815ZM18.4815 24.2729C18.4815 25.2289 17.7195 26.0039 16.7815 26.0039C15.8435 26.0039 15.0815 25.2289 15.0815 24.2729C15.0815 23.3169 15.8425 22.5409 16.7815 22.5409C17.2315 22.5409 17.6645 22.7229 17.9835 23.0479C18.3025 23.3729 18.4815 23.8129 18.4805 24.2729H18.4815ZM17.3985 10.3729V12.5169C17.0446 12.4544 16.6824 12.4544 16.3285 12.5169V10.3729H17.3985ZM17.3985 19.5849V21.7299H16.3285V19.5839C16.6825 19.6469 17.0445 19.6469 17.3985 19.5839V19.5849ZM22.7305 16.1929C22.6017 15.8766 22.568 15.5296 22.6336 15.1944C22.6991 14.8592 22.861 14.5504 23.0995 14.3059C23.3346 14.0644 23.6371 13.8993 23.9675 13.8322C24.2978 13.7651 24.6408 13.7992 24.9515 13.9299C25.5865 14.1979 26.0005 14.8299 26.0005 15.5299C26.0005 15.9899 25.8215 16.4299 25.5035 16.7549C25.307 16.9565 25.0632 17.1056 24.7942 17.1886C24.5252 17.2716 24.2397 17.2858 23.9638 17.2299C23.6879 17.174 23.4304 17.0497 23.215 16.8686C22.9995 16.6874 22.8329 16.4551 22.7305 16.1929ZM7.00049 15.8239C7.00049 14.8679 7.76049 14.0929 8.70049 14.0929C9.63849 14.0929 10.3995 14.8669 10.4005 15.8229C10.4005 16.2829 10.2205 16.7229 9.90249 17.0479C9.74596 17.2082 9.55901 17.3355 9.35261 17.4226C9.14621 17.5097 8.9245 17.5546 8.70049 17.5549C7.76149 17.5549 7.00049 16.7799 7.00049 15.8249V15.8239ZM22.0835 16.3689L19.9795 16.3669C20.0409 16.0062 20.0409 15.6376 19.9795 15.2769H22.0835V16.3689ZM13.4405 16.3689H11.3355V15.2789H13.4405C13.3791 15.6396 13.3791 16.0082 13.4405 16.3689ZM16.7305 18.4059C15.3995 18.4059 14.3205 17.3069 14.3205 15.9519C14.3205 14.5969 15.3995 13.4969 16.7305 13.4969C18.0605 13.4969 19.1395 14.5969 19.1405 15.9519C19.1405 17.3069 18.0605 18.4059 16.7305 18.4059Z" fill="white"/>
</g>
<defs>
<clipPath id="clip0_1_6087">
<rect width="32" height="32" fill="white" transform="translate(0.000488281 0.00390625)"/>
</clipPath>
</defs>
</svg>
