<svg width="32" height="32" viewBox="0 0 32 32" fill="none" xmlns="http://www.w3.org/2000/svg">
<g clip-path="url(#clip0_1_6079)">
<path d="M16.0005 32.0039C24.837 32.0039 32.0005 24.8405 32.0005 16.0039C32.0005 7.16735 24.837 0.00390625 16.0005 0.00390625C7.16393 0.00390625 0.000488281 7.16735 0.000488281 16.0039C0.000488281 24.8405 7.16393 32.0039 16.0005 32.0039Z" fill="#000D2B"/>
<path d="M15.7365 6.00391L11.2185 8.65091L15.7365 11.2989L20.3395 8.65091L15.7365 6.00391ZM16.4795 20.1379V25.4329L22.6165 21.9319V16.6359L16.4795 20.1379ZM21.0825 10.3159V15.6119L16.4785 18.2599V12.9639L21.0825 10.3159ZM10.0005 15.6119L14.6045 18.2599V12.9639L10.0005 10.3159V15.6119ZM10.0005 22.7859L14.6045 25.4329V20.1379L10.0005 17.4909V22.7849V22.7859Z" fill="white"/>
</g>
<defs>
<clipPath id="clip0_1_6079">
<rect width="32" height="32" fill="white" transform="translate(0.000488281 0.00390625)"/>
</clipPath>
</defs>
</svg>
