<svg width="32" height="32" viewBox="0 0 32 32" fill="none" xmlns="http://www.w3.org/2000/svg">
<g clip-path="url(#clip0_1_6075)">
<path d="M16.0005 32.0039C24.837 32.0039 32.0005 24.8405 32.0005 16.0039C32.0005 7.16735 24.837 0.00390625 16.0005 0.00390625C7.16393 0.00390625 0.000488281 7.16735 0.000488281 16.0039C0.000488281 24.8405 7.16393 32.0039 16.0005 32.0039Z" fill="#FD7A3D"/>
<path d="M25.1955 19.4039C25.9655 19.8239 26.2225 20.7899 25.7085 21.5459C25.2815 22.3019 24.2985 22.5539 23.5285 22.1339C23.2966 22.0002 23.1011 21.8115 22.9594 21.5845C22.8176 21.3574 22.7338 21.099 22.7155 20.8319H18.7805L16.8985 24.0229C16.8985 24.0649 16.8555 24.1069 16.8135 24.1489C17.2405 24.4009 17.5405 24.9049 17.5405 25.4509C17.5405 26.2909 16.8135 27.0039 15.9575 27.0039C15.1025 27.0039 14.3755 26.3319 14.3755 25.4509C14.3755 24.9049 14.6755 24.4429 15.1025 24.1489C15.1025 24.1069 15.0595 24.0649 15.0165 24.0229L13.1355 20.8329H9.20048C9.15748 21.3779 8.85848 21.8399 8.38748 22.1329C7.61748 22.5529 6.63448 22.3019 6.20648 21.5459C5.77848 20.7899 6.03548 19.8249 6.80548 19.4049C7.31848 19.1109 7.87448 19.1109 8.34548 19.3629C8.38748 19.3209 8.38748 19.2369 8.43048 19.1949L10.3555 16.0039L8.47348 12.8139C8.42819 12.7677 8.39817 12.7087 8.38748 12.6449C7.91748 12.8549 7.31848 12.8969 6.84748 12.6029C6.66628 12.5029 6.50681 12.3679 6.37837 12.2056C6.24994 12.0434 6.15512 11.8571 6.09945 11.6578C6.04378 11.4585 6.02838 11.2501 6.05414 11.0448C6.0799 10.8394 6.1463 10.6413 6.24948 10.4619C6.67648 9.70591 7.66048 9.45391 8.43048 9.87391C8.94348 10.1679 9.20048 10.6719 9.24348 11.1759H13.2205L15.1025 7.98491C15.1025 7.94291 15.1455 7.90091 15.1875 7.85891C14.9653 7.72192 14.7819 7.53037 14.6546 7.30247C14.5274 7.07458 14.4605 6.81792 14.4605 6.55691C14.4605 5.71691 15.1875 5.00391 16.0435 5.00391C16.8985 5.00391 17.6255 5.67591 17.6255 6.55691C17.6255 7.10291 17.3255 7.56491 16.8985 7.85891C16.8985 7.90091 16.9415 7.94291 16.9845 7.98491L18.8655 11.1749H22.8005C22.8435 10.6299 23.1425 10.1679 23.6135 9.87491C24.3835 9.45491 25.3665 9.70591 25.7945 10.4619C25.8976 10.6414 25.964 10.8396 25.9897 11.0449C26.0153 11.2503 25.9999 11.4587 25.9441 11.6581C25.8883 11.8574 25.7934 12.0436 25.6649 12.2058C25.5363 12.368 25.3768 12.503 25.1955 12.6029C24.6825 12.8969 24.1265 12.8969 23.6555 12.6449C23.6135 12.6869 23.6135 12.7709 23.5705 12.8129L21.6885 16.0039L23.5705 19.1939C23.6158 19.2401 23.6458 19.2991 23.6565 19.3629C24.1265 19.1529 24.7255 19.1109 25.1965 19.4049L25.1955 19.4039ZM18.0535 14.9539C18.0535 14.0729 17.3265 13.3589 16.4285 13.3589H14.3755C14.3253 13.3582 14.2755 13.3675 14.229 13.3862C14.1824 13.4049 14.14 13.4326 14.1043 13.4677C14.0685 13.5029 14.04 13.5447 14.0205 13.5909C14.0009 13.6371 13.9907 13.6867 13.9905 13.7369V18.2709C13.9905 18.4809 14.1615 18.6489 14.3755 18.6489H16.4285C17.3265 18.6489 18.0535 17.9349 18.0535 17.0539C18.0535 16.6759 17.9255 16.2979 17.6685 16.0459C17.8825 15.7099 18.0535 15.3739 18.0535 14.9539Z" fill="white"/>
</g>
<defs>
<clipPath id="clip0_1_6075">
<rect width="32" height="32" fill="white" transform="translate(0.000488281 0.00390625)"/>
</clipPath>
</defs>
</svg>
