<svg width="32" height="32" viewBox="0 0 32 32" fill="none" xmlns="http://www.w3.org/2000/svg">
<g clip-path="url(#clip0_1_6071)">
<path d="M16.0005 32.0039C24.837 32.0039 32.0005 24.8405 32.0005 16.0039C32.0005 7.16735 24.837 0.00390625 16.0005 0.00390625C7.16393 0.00390625 0.000488281 7.16735 0.000488281 16.0039C0.000488281 24.8405 7.16393 32.0039 16.0005 32.0039Z" fill="#00B4F4"/>
<path d="M7.77349 22.9839V23.1399H6.16349V20.1869L6.11349 20.3499L4.57349 19.8799L5.44349 17.0339L5.33549 17.1929L4.00049 16.2929L5.66849 13.8189L5.50949 13.9479L4.49649 12.6959L6.89649 10.7519L6.59049 10.8699L6.01349 9.36591L8.88049 8.26591L8.54549 8.28891L8.43349 6.68291L11.4355 6.47291L11.1655 6.40991L11.5275 4.83991L14.3955 5.50291L14.2145 5.39891L15.0195 4.00391L17.5215 5.44791L17.4235 5.34391L18.6015 4.24491L20.5495 6.33491L20.5085 6.24891L21.9555 5.54291L23.2055 8.10491L23.1945 8.03291L24.7845 7.78091L25.2535 10.7409L25.2865 10.5299L26.8775 10.7819L26.4015 13.7849L26.5195 13.5439L27.9675 14.2499L26.6275 16.9969L26.8225 16.7869L28.0005 17.8859L25.9185 20.1179L26.1705 19.9729L26.9755 21.3679L24.3585 22.8779L24.6215 22.8179L24.9835 24.3869L22.0915 25.0549L22.3145 25.0699L22.2015 26.6769L19.3065 26.4739L19.4545 26.5309L18.8775 28.0339L16.1055 26.9709L16.2805 27.1119L15.2675 28.3639L12.9795 26.5119L13.0925 26.6789L11.7575 27.5789L10.1225 25.1559L10.1715 25.3149L8.63049 25.7849L7.77349 22.9839ZM7.77349 21.0699L8.77949 20.7629L9.56149 23.3199L10.4315 22.7329L11.9175 24.9369L12.5815 24.1169L14.6415 25.7849L15.0105 24.8249L17.4925 25.7779L17.5655 24.7379L20.2215 24.9239L19.9825 23.8889L22.5875 23.2869L22.0475 22.3529L24.3725 21.0109L23.5755 20.2689L25.4125 18.2989L24.4325 17.8219L25.6135 15.4009L24.5425 15.2309L24.9625 12.5729L23.9385 12.7349L23.5185 10.0769L22.5955 10.5269L21.4225 8.12391L20.6705 8.82491L18.8565 6.87991L18.3365 7.77891L16.0405 6.45291L15.8035 7.48091L13.2195 6.88391L13.2945 7.95691L10.6425 8.14191L11.0345 9.16391L8.53749 10.1219L9.20949 10.9519L7.11249 12.6499L7.99749 13.2459L6.48649 15.4859L7.50449 15.7979L6.71449 18.3799H7.77349V21.0699ZM11.3335 11.2209H14.5805C14.9585 11.2209 15.3335 11.2479 15.7065 11.3009C16.0795 11.3539 16.4075 11.4609 16.6905 11.6209C16.9735 11.7809 17.1895 12.0039 17.3365 12.2909C17.4845 12.5779 17.5255 12.9599 17.4595 13.4349C17.3945 13.9279 17.1995 14.3349 16.8755 14.6589C16.5515 14.9829 16.1555 15.2149 15.6885 15.3539V15.3789C15.9665 15.4199 16.2155 15.4999 16.4325 15.6189C16.6495 15.7379 16.8285 15.8889 16.9675 16.0739C17.1075 16.2589 17.2055 16.4739 17.2625 16.7199C17.3205 16.9659 17.3285 17.2279 17.2875 17.5069C17.2215 17.9669 17.0705 18.3499 16.8325 18.6569C16.599 18.9611 16.306 19.2145 15.9715 19.4019C15.6255 19.5941 15.2517 19.7311 14.8635 19.8079C14.4753 19.8885 14.08 19.9297 13.6835 19.9309H10.1155L11.3325 11.2209H11.3335ZM12.7605 14.7039H14.1505C14.2975 14.7039 14.4455 14.6869 14.5935 14.6539C14.7382 14.6221 14.8772 14.5681 15.0055 14.4939C15.1325 14.4203 15.2418 14.3195 15.3255 14.1989C15.4115 14.0759 15.4665 13.9289 15.4915 13.7559C15.5198 13.6041 15.5002 13.4472 15.4355 13.3069C15.3767 13.1906 15.2848 13.0942 15.1715 13.0299C15.0469 12.961 14.9117 12.9133 14.7715 12.8889C14.6235 12.8606 14.4732 12.8462 14.3225 12.8459H13.0185L12.7605 14.7039ZM12.2555 18.3079H13.9785C14.1255 18.3079 14.2795 18.2909 14.4385 18.2579C14.7512 18.1975 15.0299 18.0219 15.2195 17.7659C15.3223 17.6249 15.3864 17.4594 15.4055 17.2859C15.4295 17.0819 15.4015 16.9159 15.3195 16.7889C15.2359 16.66 15.1158 16.5591 14.9745 16.4989C14.8196 16.4314 14.656 16.3859 14.4885 16.3639C14.3235 16.3401 14.1571 16.3277 13.9905 16.3269H12.5385L12.2555 18.3069V18.3079ZM21.5155 11.3599L19.4785 18.7999L17.7965 18.6819L19.0645 11.0119L21.5145 11.3599H21.5155ZM19.7395 19.5759L19.2105 22.2039L16.9735 21.5519L17.4855 19.0309L19.7395 19.5749V19.5759Z" fill="#FEFFFF"/>
</g>
<defs>
<clipPath id="clip0_1_6071">
<rect width="32" height="32" fill="white" transform="translate(0.000488281 0.00390625)"/>
</clipPath>
</defs>
</svg>
