<svg width="32" height="32" viewBox="0 0 32 32" fill="none" xmlns="http://www.w3.org/2000/svg">
<g clip-path="url(#clip0_1_6067)">
<path d="M16.0005 32.0039C24.837 32.0039 32.0005 24.8405 32.0005 16.0039C32.0005 7.16735 24.837 0.00390625 16.0005 0.00390625C7.16393 0.00390625 0.000488281 7.16735 0.000488281 16.0039C0.000488281 24.8405 7.16393 32.0039 16.0005 32.0039Z" fill="#00A8D6"/>
<path fill-rule="evenodd" clip-rule="evenodd" d="M14.4325 18.9539V17.0369H17.3865C19.3565 17.0369 20.3415 16.5449 20.3415 15.5609V10.3969C20.3415 9.41391 19.3565 8.92191 17.3865 8.92191H12.6605V12.0199H10.0005V7.00391H17.0905C21.0305 7.00391 23.0005 8.08591 23.0005 10.2499V15.7089C23.0005 17.8729 21.0305 18.9549 17.0905 18.9549H14.4325V18.9539ZM20.3415 20.1349H23.0005V21.7579C23.0005 23.9219 21.0305 25.0039 17.0905 25.0039H10.0005V13.4959H17.0905C17.5075 13.4959 17.9005 13.5079 18.2735 13.5319V15.4529C17.9786 15.4253 17.6826 15.4119 17.3865 15.4129H12.6605V23.0859H17.3875C19.3575 23.0859 20.3425 22.5939 20.3425 21.6109V20.1339L20.3415 20.1349Z" fill="white"/>
</g>
<defs>
<clipPath id="clip0_1_6067">
<rect width="32" height="32" fill="white" transform="translate(0.000488281 0.00390625)"/>
</clipPath>
</defs>
</svg>
