<svg width="32" height="32" viewBox="0 0 32 32" fill="none" xmlns="http://www.w3.org/2000/svg">
<g clip-path="url(#clip0_1_6063)">
<path d="M16.0005 32.0039C24.837 32.0039 32.0005 24.8405 32.0005 16.0039C32.0005 7.16735 24.837 0.00390625 16.0005 0.00390625C7.16393 0.00390625 0.000488281 7.16735 0.000488281 16.0039C0.000488281 24.8405 7.16393 32.0039 16.0005 32.0039Z" fill="#0F63D8"/>
<path d="M25.8845 20.7409C25.7882 20.9392 25.6824 21.1328 25.5675 21.3209C25.4905 21.4589 25.4165 21.5969 25.3355 21.7279C25.2985 21.7889 25.2685 21.8519 25.2315 21.9109H25.2195C24.4431 23.1446 23.4271 24.2099 22.2316 25.0439C21.0361 25.8779 19.6855 26.4635 18.2596 26.7662C16.8337 27.0689 15.3616 27.0824 13.9305 26.806C12.4993 26.5296 11.1381 25.9688 9.92749 25.1569C9.87749 25.1229 9.83449 25.0859 9.78549 25.0529C9.59625 24.9305 9.41304 24.799 9.23649 24.6589C8.95718 24.4461 8.69009 24.2178 8.43649 23.9749C8.31522 23.8627 8.19684 23.7473 8.08149 23.6289C7.95749 23.5019 7.84949 23.3789 7.72349 23.2359C7.59682 23.0935 7.47346 22.9481 7.35349 22.7999C7.25966 22.6801 7.16864 22.558 7.08049 22.4339C6.9578 22.2655 6.83975 22.0938 6.72649 21.9189C6.65349 21.8049 6.58549 21.6889 6.51649 21.5709C6.40351 21.3827 6.29711 21.1906 6.19749 20.9949C6.13849 20.8789 6.08349 20.7609 6.02849 20.6429C5.93625 20.444 5.84856 20.2429 5.76549 20.0399C5.71549 19.9139 5.67049 19.7859 5.62549 19.6579C5.55649 19.4579 5.48849 19.2489 5.42949 19.0529C5.38949 18.9109 5.36449 18.7759 5.32049 18.6299C5.27045 18.4346 5.2261 18.2378 5.18749 18.0399C5.16749 17.8899 5.13449 17.7319 5.12049 17.5899C5.09131 17.3939 5.06697 17.1972 5.04749 16.9999C5.03349 16.8449 5.01649 16.6899 5.01649 16.5339C5.00049 16.3379 5.00049 16.1409 5.00049 15.9439C5.00049 15.7939 5.01249 15.6439 5.01249 15.4929C5.0284 15.145 5.06044 14.7979 5.10849 14.4529C5.20699 13.7496 5.3731 13.0574 5.60449 12.3859C5.68949 12.1399 5.78449 11.8959 5.88949 11.6529C5.91249 11.5979 5.93949 11.5309 5.95349 11.4859C5.96968 11.4364 5.99705 11.3912 6.03349 11.3539C6.13649 11.1319 6.25049 10.9119 6.37049 10.6939C6.42749 10.5719 6.49649 10.4519 6.56749 10.3339C6.61749 10.2479 6.65149 10.1669 6.71749 10.0729C6.78149 9.97793 6.85649 9.87993 6.92349 9.78193C7.00924 9.64736 7.10032 9.51626 7.19649 9.38893C7.32249 9.21893 7.45349 9.05393 7.58949 8.89293C7.82767 8.61131 8.07965 8.34164 8.34449 8.08493C8.44249 7.99293 8.53949 7.89993 8.63949 7.81193C8.90914 7.5806 9.18629 7.35814 9.47049 7.14493C9.65849 7.01493 9.85049 6.88293 10.0445 6.75193C10.1479 6.68404 10.2529 6.61869 10.3595 6.55593C10.5565 6.44193 10.7525 6.33193 10.9495 6.22893C11.3942 5.99863 11.8547 5.80014 12.3275 5.63493C12.8204 5.45863 13.3258 5.31924 13.8395 5.21793C14.1758 5.15226 14.5148 5.10088 14.8555 5.06393C15.0775 5.03993 15.3015 5.02393 15.5275 5.01393C15.6495 5.00393 15.7735 5.00393 15.8975 5.00393C16.253 4.99963 16.6084 5.01365 16.9625 5.04593C17.5385 5.0957 18.1094 5.19269 18.6695 5.33593C18.8125 5.37393 18.9565 5.41393 19.0995 5.45593C19.3095 5.51593 19.5065 5.58093 19.7035 5.65293C19.8505 5.70593 19.9985 5.76293 20.1435 5.82393C20.2535 5.86993 20.3655 5.90493 20.4755 5.95393V5.96993C21.8118 6.55505 23.0169 7.40255 24.0195 8.46219C25.0221 9.52182 25.8017 10.772 26.312 12.1386C26.8223 13.5052 27.053 14.9603 26.9904 16.4177C26.9278 17.8751 26.5731 19.3052 25.9475 20.6229C25.9275 20.6649 25.9035 20.6999 25.8845 20.7409ZM11.8285 25.2409V25.2389C14.074 26.245 16.6085 26.4007 18.9603 25.6772C21.3121 24.9537 23.3208 23.4002 24.6125 21.3059C24.6845 21.1859 24.7525 21.0619 24.8205 20.9399C24.9145 20.7599 25.0205 20.5859 25.1115 20.3899C25.7161 19.1466 26.0587 17.7923 26.118 16.4111C26.1772 15.0298 25.9519 13.6511 25.4561 12.3606C24.9602 11.07 24.2043 9.89523 23.2354 8.90907C22.2664 7.92291 21.1051 7.14646 19.8235 6.62793C19.6939 6.57272 19.5629 6.52103 19.4305 6.47293C19.1156 6.36119 18.796 6.26342 18.4725 6.17993C17.9494 6.04627 17.4163 5.95563 16.8785 5.90893L16.5425 5.88493C16.3255 5.87493 16.1105 5.86993 15.8955 5.86993H15.5575C15.3485 5.87893 15.1415 5.89393 14.9345 5.91493C14.8095 5.92893 14.6855 5.94493 14.5625 5.96193C14.2296 6.00698 13.8994 6.07041 13.5735 6.15193C13.2451 6.23094 12.9213 6.32775 12.6035 6.44193C12.4625 6.48993 12.3265 6.54193 12.1955 6.59493C11.9036 6.71424 11.6167 6.84535 11.3355 6.98793C11.05 7.13576 10.7711 7.29591 10.4995 7.46793C10.3164 7.58178 10.1385 7.7039 9.96649 7.83393C9.87649 7.89493 9.78649 7.96093 9.69849 8.02993C9.43613 8.23743 9.18385 8.45734 8.94249 8.68893C8.79549 8.83693 8.65149 8.98693 8.50949 9.13893C8.28599 9.38387 8.07409 9.63915 7.87449 9.90393C7.66704 10.183 7.47282 10.4716 7.29249 10.7689C7.22749 10.8769 7.16849 10.9849 7.10749 11.0929C6.98749 11.2949 6.88949 11.4999 6.79149 11.7129C6.60549 12.1145 6.44581 12.5277 6.31349 12.9499C6.20317 13.2741 6.11398 13.6052 6.04649 13.9409C6.00349 14.1509 5.96749 14.3639 5.93849 14.5759C5.92249 14.6979 5.90449 14.8219 5.89349 14.9439C5.87349 15.1409 5.85149 15.3369 5.85149 15.5339C5.83949 15.6679 5.83949 15.8039 5.83949 15.9389C5.83949 16.1259 5.85549 16.3119 5.85549 16.4989C5.87277 16.8236 5.90547 17.1473 5.95349 17.4689C5.97949 17.6039 6.00149 17.7319 6.02649 17.8769C6.06249 18.0619 6.10549 18.2469 6.15049 18.4319C6.18249 18.5569 6.21349 18.6829 6.25049 18.8109C6.30549 19.0009 6.36849 19.1879 6.43549 19.3749C6.47649 19.4889 6.51549 19.6049 6.56149 19.7189C6.63649 19.9079 6.71849 20.0909 6.79549 20.2849C6.84649 20.3929 6.89549 20.5019 6.95049 20.6079C7.04849 20.7869 7.14349 20.9639 7.24549 21.1379C7.31249 21.2469 7.37549 21.3529 7.44249 21.4589C7.54449 21.6199 7.65649 21.7769 7.76849 21.9349C7.85149 22.0489 7.91149 22.1429 8.02049 22.2729C8.12849 22.4029 8.25049 22.5439 8.35649 22.6659C8.46249 22.7879 8.58049 22.9199 8.68649 23.0299C8.79249 23.1399 8.87549 23.2179 9.01249 23.3479C9.24475 23.5723 9.48983 23.783 9.74649 23.9789C10.3872 24.4818 11.0863 24.9055 11.8285 25.2409ZM15.9805 24.4159C14.3155 24.4171 12.6875 23.9245 11.3025 23.0004C9.91745 22.0764 8.83755 20.7623 8.19938 19.2244C7.5612 17.6866 7.39341 15.994 7.71722 14.3608C8.04102 12.7276 8.84189 11.2271 10.0185 10.049C11.1952 8.87101 12.6947 8.06836 14.3276 7.74261C15.9604 7.41686 17.6532 7.58264 19.1918 8.21899C20.7304 8.85534 22.0457 9.93367 22.9714 11.3176C23.8972 12.7015 24.3917 14.3289 24.3925 15.9939C24.3909 18.2254 23.5044 20.3651 21.9275 21.9439C20.3506 23.5227 18.2119 24.4117 15.9805 24.4159ZM15.9805 10.3379C14.8606 10.3365 13.7654 10.6674 12.8336 11.2887C11.9019 11.9099 11.1753 12.7937 10.746 13.828C10.3166 14.8624 10.2038 16.0008 10.4217 17.0993C10.6396 18.1978 11.1785 19.207 11.9702 19.9991C12.7619 20.7912 13.7708 21.3306 14.8692 21.5491C15.9675 21.7677 17.1061 21.6554 18.1406 21.2266C19.1752 20.7978 20.0593 20.0717 20.6811 19.1403C21.3028 18.2088 21.6343 17.1138 21.6335 15.9939C21.6319 14.4945 21.036 13.0568 19.9764 11.9959C18.9168 10.935 17.4799 10.3374 15.9805 10.3339V10.3379Z" fill="white"/>
</g>
<defs>
<clipPath id="clip0_1_6063">
<rect width="32" height="32" fill="white" transform="translate(0.000488281 0.00390625)"/>
</clipPath>
</defs>
</svg>
