<svg width="32" height="32" viewBox="0 0 32 32" fill="none" xmlns="http://www.w3.org/2000/svg">
<g clip-path="url(#clip0_1_6059)">
<path d="M16.001 32.0039C24.8375 32.0039 32.001 24.8405 32.001 16.0039C32.001 7.16735 24.8375 0.00390625 16.001 0.00390625C7.16442 0.00390625 0.000976562 7.16735 0.000976562 16.0039C0.000976562 24.8405 7.16442 32.0039 16.001 32.0039Z" fill="#1D1D1D"/>
<path fill-rule="evenodd" clip-rule="evenodd" d="M9.96298 16.9579C9.9631 17.465 10.0634 17.967 10.2582 18.4352C10.4529 18.9034 10.7382 19.3284 11.0977 19.686C11.4573 20.0436 11.8839 20.3266 12.3531 20.5188C12.8223 20.711 13.3249 20.8085 13.832 20.8059C15.954 20.7929 17.678 19.0899 17.679 17.0059C17.6836 16.4975 17.5871 15.9932 17.395 15.5224C17.2029 15.0516 16.9191 14.6237 16.56 14.2636C16.201 13.9036 15.7739 13.6185 15.3037 13.4251C14.8335 13.2317 14.3294 13.1337 13.821 13.1369C11.689 13.1399 9.96298 14.8489 9.96298 16.9579ZM9.96698 21.0979V22.3709H8.00098V8.00391C8.55998 8.01391 9.03198 8.21391 9.41098 8.60891C9.77398 8.98891 9.95498 9.44391 9.95298 9.97191C9.94798 10.9189 9.95098 11.8659 9.95098 12.8579C11.324 11.7109 12.853 11.1459 14.634 11.4179C16.399 11.6879 17.754 12.5759 18.678 14.0949C20.073 16.3899 19.621 19.3209 17.6 21.1449C15.629 22.9249 12.354 23.2009 9.96698 21.0979ZM16.326 22.3449C16.404 22.2979 16.445 22.2699 16.488 22.2479C17.1073 21.9436 17.6663 21.5295 18.138 21.0259C18.1857 20.9717 18.244 20.9278 18.3094 20.897C18.3748 20.8662 18.4458 20.8492 18.518 20.8469C20.188 20.7509 21.693 19.4069 21.976 17.7629C22.348 15.6029 21.036 13.6969 18.866 13.2829C18.5679 13.2378 18.2953 13.0891 18.096 12.8629C17.696 12.4209 17.21 12.0759 16.693 11.7789C16.649 11.7539 16.607 11.7269 16.535 11.6829C17.519 11.4129 18.478 11.3489 19.45 11.5699C20.417 11.7889 21.25 12.2629 22.03 12.9099V11.6349H24.001V26.0039C23.7391 26.0023 23.4801 25.9482 23.2395 25.8448C22.9989 25.7414 22.7814 25.5908 22.6 25.4019C22.4205 25.2212 22.2792 25.0063 22.1844 24.7699C22.0896 24.5335 22.0432 24.2805 22.048 24.0259V21.1559C20.35 22.5789 18.472 23.0049 16.326 22.3449Z" fill="white"/>
</g>
<defs>
<clipPath id="clip0_1_6059">
<rect width="32" height="32" fill="white" transform="translate(0.000976562 0.00390625)"/>
</clipPath>
</defs>
</svg>
