<svg width="32" height="32" viewBox="0 0 32 32" fill="none" xmlns="http://www.w3.org/2000/svg">
<g clip-path="url(#clip0_1_6055)">
<path d="M16.001 32.0039C24.8375 32.0039 32.001 24.8405 32.001 16.0039C32.001 7.16735 24.8375 0.00390625 16.001 0.00390625C7.16442 0.00390625 0.000976562 7.16735 0.000976562 16.0039C0.000976562 24.8405 7.16442 32.0039 16.001 32.0039Z" fill="#FE5D86"/>
<path d="M8.00098 9.04291C8.00098 8.46891 8.47298 8.00391 9.05498 8.00391H16.643C21.119 8.00391 22.698 8.53191 23.786 9.60491C24.1224 9.94664 24.3835 10.3551 24.5523 10.804C24.7211 11.2529 24.7939 11.7322 24.766 12.2109C24.766 14.0619 23.769 15.3169 21.079 15.8679C23.677 16.3219 24.996 17.3779 24.996 19.5019C25.0206 19.9973 24.9428 20.4924 24.7672 20.9563C24.5917 21.4202 24.3224 21.8429 23.976 22.1979C22.911 23.2479 21.171 24.0039 16.488 24.0039H9.05498C8.77746 24.0058 8.51057 23.8974 8.31293 23.7026C8.11529 23.5077 8.00309 23.2424 8.00098 22.9649V9.04291ZM13.762 15.0049C13.762 14.6219 14.077 14.3119 14.465 14.3119H16.908C18.302 14.3119 19.345 14.2439 19.828 13.7439C19.9405 13.6258 20.0273 13.4856 20.0829 13.3323C20.1385 13.1789 20.1616 13.0157 20.151 12.8529C20.181 12.5329 20.073 12.2149 19.851 11.9779C19.361 11.4959 18.319 11.4109 16.908 11.4109H12.361V20.6429H16.861C18.393 20.6429 19.528 20.5289 20.058 20.0009C20.302 19.7509 20.428 19.4109 20.404 19.0639C20.426 18.7109 20.301 18.3639 20.058 18.1039C19.522 17.5769 18.388 17.5369 16.861 17.5369H14.481C14.3856 17.5393 14.2907 17.5223 14.202 17.4871C14.1134 17.4519 14.0327 17.3991 13.965 17.3319C13.8977 17.2655 13.8449 17.1859 13.8098 17.0982C13.7747 17.0104 13.7581 16.9164 13.761 16.8219L13.762 15.0049Z" fill="white"/>
</g>
<defs>
<clipPath id="clip0_1_6055">
<rect width="32" height="32" fill="white" transform="translate(0.000976562 0.00390625)"/>
</clipPath>
</defs>
</svg>
