<svg width="32" height="32" viewBox="0 0 32 32" fill="none" xmlns="http://www.w3.org/2000/svg">
<g clip-path="url(#clip0_1_6047)">
<path d="M16 32.0049C24.8366 32.0049 32 24.8414 32 16.0049C32 7.16833 24.8366 0.00488281 16 0.00488281C7.16344 0.00488281 0 7.16833 0 16.0049C0 24.8414 7.16344 32.0049 16 32.0049Z" fill="#EAB304"/>
<path d="M22.1486 14.577L22.2185 14.437C22.2185 14.367 22.2186 14.297 22.3586 14.347C22.3694 14.2841 22.3694 14.2198 22.3586 14.157C22.3923 14.0667 22.3923 13.9673 22.3586 13.877C22.2167 13.5311 22.1921 13.1482 22.2886 12.787C22.2996 12.741 22.2996 12.693 22.2886 12.647L22.3586 12.577C22.3869 12.6027 22.4106 12.6331 22.4286 12.667C22.4396 12.713 22.4396 12.761 22.4286 12.807V12.877C22.4286 12.947 22.5486 12.807 22.5986 12.757C22.6603 12.7093 22.7274 12.669 22.7985 12.637C22.8119 12.4541 22.788 12.2704 22.7285 12.097C22.6172 11.7205 22.642 11.3169 22.7985 10.957C22.7985 11.027 22.8885 11.077 22.8885 11.147C22.9056 11.407 23.0156 11.652 23.1986 11.837C23.4016 12.07 23.5546 12.342 23.6486 12.637C23.6486 12.637 23.6486 12.727 23.7185 12.727C24.0065 12.81 24.2686 12.964 24.4785 13.177C24.7206 13.395 24.9506 13.625 25.1686 13.867C25.2063 13.9082 25.2368 13.9555 25.2586 14.007H25.3286C25.3402 13.7871 25.3402 13.5668 25.3286 13.347C25.3286 13.157 25.4186 12.967 25.6086 12.997H25.6986C25.7028 12.9126 25.7343 12.8318 25.7885 12.7669C25.8426 12.702 25.9163 12.6564 25.9986 12.637C26.0337 12.6978 26.0521 12.7668 26.0521 12.837C26.0521 12.9072 26.0337 12.9762 25.9986 13.037C26.1385 13.207 26.1686 13.297 25.9986 13.487C25.8286 13.677 25.9086 13.697 25.9986 13.887C26.018 13.7768 26.0588 13.6715 26.1186 13.577C26.1686 13.477 26.1885 13.317 26.3085 13.267C26.3474 13.2532 26.3897 13.2532 26.4286 13.267C26.5441 13.2899 26.663 13.2899 26.7786 13.267C26.8515 13.261 26.9245 13.278 26.9873 13.3157C27.0501 13.3533 27.0995 13.4098 27.1285 13.477L26.7985 13.637C26.8685 13.777 26.7985 13.827 26.6586 13.917C26.5889 13.9809 26.5253 14.0512 26.4685 14.127C26.5968 14.1042 26.7237 14.0742 26.8486 14.037C26.9335 14.0154 27.0233 14.0246 27.1021 14.0631C27.1808 14.1015 27.2434 14.1667 27.2786 14.247C27.3053 14.3035 27.3468 14.3519 27.3986 14.387C27.4955 14.4711 27.5563 14.5892 27.5686 14.717C27.5762 14.7465 27.5762 14.7774 27.5686 14.807L27.3785 14.667C27.3543 14.6437 27.3221 14.6308 27.2886 14.6308C27.255 14.6308 27.2228 14.6437 27.1986 14.667C27.165 14.6993 27.1202 14.7174 27.0736 14.7174C27.0269 14.7174 26.9821 14.6993 26.9486 14.667C26.8805 14.6265 26.8028 14.6051 26.7236 14.6051C26.6443 14.6051 26.5666 14.6265 26.4986 14.667C26.3924 14.7368 26.2822 14.8002 26.1686 14.857C26.2998 14.8746 26.4251 14.9227 26.5345 14.9973C26.6439 15.072 26.7343 15.1712 26.7985 15.287C26.8685 15.427 26.9686 15.567 27.0386 15.717C27.0659 15.7767 27.0687 15.8448 27.0462 15.9066C27.0238 15.9683 26.9779 16.0188 26.9186 16.047H26.8686V15.997C26.8686 15.877 26.7986 15.857 26.6786 15.877C26.6457 15.8878 26.6111 15.892 26.5766 15.8893C26.5422 15.8866 26.5086 15.8771 26.4779 15.8612C26.4471 15.8454 26.4199 15.8236 26.3977 15.7971C26.3755 15.7706 26.3588 15.74 26.3486 15.707C26.2325 15.474 26.0376 15.2898 25.7985 15.187L25.5886 15.097C25.5729 15.1879 25.5425 15.2758 25.4986 15.357C25.4656 15.4093 25.4252 15.4564 25.3785 15.497C25.2386 15.617 25.2386 15.637 25.3785 15.807C25.5185 15.977 25.4486 15.897 25.4986 15.977C25.4233 15.9813 25.348 15.9682 25.2787 15.9387C25.2093 15.9093 25.1477 15.8642 25.0986 15.807C24.9743 15.6671 24.8731 15.5085 24.7985 15.337C24.7696 15.257 24.7676 15.1697 24.7929 15.0884C24.8182 15.0072 24.8693 14.9364 24.9386 14.887C25.0087 14.8175 25.0663 14.7362 25.1086 14.647L24.3986 14.457C24.4099 14.5667 24.4099 14.6773 24.3986 14.787C24.4226 15.19 24.4226 15.594 24.3986 15.997C24.3744 16.5959 24.2805 17.1899 24.1186 17.767C24.0015 18.2114 23.8337 18.6409 23.6186 19.047C23.4381 19.413 23.2343 19.767 23.0086 20.107C22.8156 20.3893 22.6017 20.6568 22.3686 20.907C22.1325 21.1838 21.8714 21.4382 21.5886 21.667C21.2786 21.927 20.9486 22.137 20.5886 22.357C20.1039 22.6646 19.5789 22.9035 19.0286 23.067C18.6573 23.1758 18.28 23.2627 17.8986 23.327C17.687 23.3686 17.4734 23.3986 17.2586 23.417C17.1929 23.4378 17.1331 23.4741 17.0844 23.5228C17.0357 23.5715 16.9994 23.6313 16.9785 23.697C16.9492 23.8554 16.888 24.0062 16.7986 24.1403C16.7092 24.2744 16.5935 24.3889 16.4585 24.477C16.3385 24.567 16.1986 24.647 16.0585 24.737L16.1285 24.527C16.1407 24.4813 16.1406 24.4332 16.1283 24.3876C16.116 24.342 16.0919 24.3004 16.0585 24.267C15.9886 24.197 15.8886 24.267 15.7986 24.267C15.7086 24.267 15.6286 24.387 15.6086 24.527C15.5893 24.6553 15.538 24.7766 15.4593 24.8797C15.3806 24.9829 15.2772 25.0645 15.1586 25.117H15.0386C15.0699 25.0327 15.0933 24.9456 15.1086 24.857C15.1086 24.787 15.0386 24.717 14.9886 24.647C14.9385 24.577 14.8986 24.647 14.8486 24.647L14.4186 24.857L14.2786 24.927L14.6586 25.097C14.8642 25.1955 15.0301 25.3613 15.1286 25.567C15.1692 25.622 15.1911 25.6886 15.1911 25.757C15.1911 25.8254 15.1692 25.8919 15.1286 25.947C15.1169 25.9648 15.1107 25.9857 15.1107 26.007C15.1107 26.0283 15.1169 26.0491 15.1286 26.067C15.1612 26.1854 15.17 26.3091 15.1546 26.431C15.1391 26.5528 15.0997 26.6704 15.0386 26.777C15.0386 26.847 14.9186 26.917 14.8686 26.987L14.7986 26.507C14.7986 26.4831 14.7891 26.4602 14.7722 26.4433C14.7553 26.4264 14.7324 26.417 14.7086 26.417C14.5673 26.4231 14.4273 26.3888 14.3051 26.3179C14.1828 26.247 14.0834 26.1426 14.0186 26.017L13.9486 25.927C13.8247 26.1042 13.6394 26.229 13.4286 26.277C13.2856 26.3417 13.1587 26.437 13.0567 26.5563C12.9548 26.6755 12.8803 26.8157 12.8386 26.967C12.8042 27.1404 12.7471 27.3085 12.6686 27.467C12.6259 27.5759 12.5426 27.6639 12.4362 27.7124C12.3298 27.761 12.2087 27.7662 12.0986 27.727V28.107C12.0444 28.0931 11.9936 28.0685 11.949 28.0347C11.9045 28.0008 11.8672 27.9585 11.8392 27.91C11.8113 27.8616 11.7933 27.8081 11.7863 27.7526C11.7793 27.6971 11.7835 27.6408 11.7986 27.587C11.8107 27.531 11.8107 27.473 11.7986 27.417C11.729 27.2811 11.7119 27.1244 11.7507 26.9768C11.7894 26.8292 11.8812 26.7011 12.0086 26.617C12.2044 26.4742 12.3736 26.2982 12.5086 26.097C12.5155 26.0742 12.5155 26.0498 12.5086 26.027L11.7986 25.937C11.7116 25.913 11.6208 25.9069 11.5314 25.9189C11.4421 25.931 11.3561 25.9609 11.2786 26.007L11.1386 26.187C10.9286 26.427 10.8286 26.447 10.5486 26.307C10.4383 26.5009 10.396 26.7262 10.4286 26.947C10.3226 26.8438 10.2496 26.7116 10.2186 26.567C10.2063 26.4874 10.2063 26.4065 10.2186 26.327V26.187C10.1957 26.1188 10.1957 26.0451 10.2186 25.977C10.3023 25.7844 10.456 25.6307 10.6486 25.547C10.8609 25.4078 11.1053 25.3252 11.3586 25.307C11.5486 25.295 11.7386 25.295 11.9286 25.307H12.0686C12.0261 25.2032 11.9623 25.1095 11.8814 25.032C11.8004 24.9545 11.704 24.8949 11.5986 24.857L11.0586 24.647C10.999 24.6556 10.9384 24.6406 10.8898 24.6051C10.8411 24.5695 10.8084 24.5164 10.7986 24.457C10.7986 24.4331 10.7891 24.4102 10.7722 24.3933C10.7553 24.3764 10.7324 24.367 10.7086 24.367C10.5415 24.3664 10.3781 24.4151 10.2386 24.507C10.3086 24.297 10.4086 24.077 10.6386 24.037C10.7415 24.025 10.8456 24.025 10.9486 24.037H11.0386C11.1786 23.827 11.3886 23.867 11.5786 23.967C11.8556 24.099 12.0856 24.311 12.2386 24.577C12.2734 24.646 12.3227 24.7067 12.3831 24.755C12.4435 24.8033 12.5136 24.8381 12.5886 24.857C12.6019 24.6741 12.578 24.4904 12.5186 24.317C12.515 24.2365 12.486 24.1592 12.4356 24.0963C12.3853 24.0334 12.3163 23.9881 12.2386 23.967C11.9986 23.897 11.9286 23.727 12.0486 23.467C11.9695 23.3968 11.8733 23.3487 11.7697 23.3276C11.6661 23.3065 11.5587 23.3132 11.4586 23.347C11.5286 23.157 11.8086 23.087 11.9986 23.107C12.1703 23.2096 12.3688 23.2584 12.5686 23.247C12.6355 23.2595 12.6986 23.2879 12.7525 23.3296C12.8064 23.3713 12.8496 23.4253 12.8786 23.487L13.0186 23.767C13.1386 23.977 13.2285 24.217 13.3286 24.427C13.4686 24.027 13.6386 23.597 13.7986 23.147L13.5586 23.057L12.8686 22.777C12.3421 22.5493 11.8425 22.2642 11.3786 21.927C11.2973 21.883 11.2095 21.8526 11.1186 21.837C11.0486 21.837 10.9486 21.927 10.9986 22.007C11.0486 22.087 11.1186 22.097 11.1686 22.177C11.2186 22.257 11.1686 22.247 11.2586 22.297H11.1386C10.9761 22.3007 10.8163 22.2548 10.6806 22.1655C10.5448 22.0762 10.4395 21.9476 10.3786 21.797C10.2312 21.5001 10.1429 21.1775 10.1186 20.847C10.1232 20.8359 10.1256 20.824 10.1256 20.812C10.1256 20.7999 10.1232 20.788 10.1186 20.777L9.47855 20.067C9.43061 20.1891 9.43061 20.3248 9.47855 20.447L9.54855 20.587V20.757H9.35855C9.25054 20.6388 9.1627 20.5037 9.09855 20.357C9.00855 20.007 8.95855 19.647 8.88855 19.297C8.87135 19.1217 8.84127 18.9479 8.79855 18.777C8.74674 18.5768 8.6833 18.3798 8.60855 18.187V18.737C8.60855 18.787 8.48855 18.737 8.46855 18.647C8.36002 18.4606 8.29507 18.252 8.27855 18.037C8.26683 17.5322 8.33777 17.0289 8.48855 16.547C8.5344 16.3703 8.59118 16.1966 8.65855 16.027C8.6356 16.084 8.60535 16.1378 8.56855 16.187L8.47855 16.277V16.157C8.47565 15.9321 8.53444 15.7107 8.64855 15.517C8.81855 15.137 9.02855 14.757 9.21855 14.387C9.29704 14.2549 9.38389 14.128 9.47855 14.007L9.30855 14.187L9.18855 14.257V14.187C9.2529 14.0799 9.32301 13.9764 9.39855 13.877C9.62351 13.6045 9.88615 13.3654 10.1786 13.167C10.2466 13.1433 10.3205 13.1433 10.3886 13.167L11.3886 13.377L11.7386 13.467C11.6433 13.565 11.5625 13.6761 11.4986 13.797C11.4678 13.8574 11.4518 13.9242 11.4518 13.992C11.4518 14.0597 11.4678 14.1266 11.4986 14.187C11.5158 14.212 11.525 14.2416 11.525 14.272C11.525 14.3023 11.5158 14.332 11.4986 14.357C11.2709 14.5531 11.0782 14.7864 10.9286 15.047V15.137C10.9286 15.137 11.2586 15.467 11.4286 15.657C11.4386 15.687 11.4386 15.717 11.4286 15.747C11.353 15.8758 11.3131 16.0226 11.3131 16.172C11.3131 16.3214 11.353 16.4681 11.4286 16.597C11.44 16.6416 11.4604 16.6834 11.4886 16.7198C11.5167 16.7563 11.5519 16.7867 11.5921 16.8091C11.6323 16.8316 11.6767 16.8456 11.7225 16.8504C11.7683 16.8552 11.8146 16.8506 11.8586 16.837C11.8502 17.0313 11.9104 17.2225 12.0286 17.377C12.0985 17.447 12.1986 17.497 12.2686 17.567C12.3106 17.5963 12.3421 17.6384 12.3586 17.687C12.4142 17.8652 12.5186 18.0243 12.66 18.1462C12.8014 18.2682 12.9741 18.3481 13.1586 18.377C13.4466 18.417 13.7386 18.357 13.9886 18.207C14.0786 18.207 14.1086 18.137 14.1286 18.207C14.1846 18.556 14.2966 18.893 14.4586 19.207C14.6656 19.573 14.9216 19.909 15.2186 20.207C15.4856 20.462 15.8126 20.647 16.1686 20.747C16.6086 20.846 17.0686 20.722 17.3986 20.417C17.6058 20.2071 17.7811 19.9679 17.9186 19.707L18.3486 19.017C18.5378 18.7563 18.7797 18.5382 19.0585 18.377C19.1048 18.3413 19.1585 18.3166 19.2156 18.3044C19.2727 18.2923 19.3318 18.2932 19.3885 18.307L19.3186 18.447C19.2654 18.5325 19.2372 18.6312 19.2372 18.732C19.2372 18.8327 19.2654 18.9314 19.3186 19.017C19.3885 19.107 19.4385 19.107 19.4886 19.017C19.5386 18.927 19.6286 18.757 19.8186 18.777C20.0086 18.797 20.0086 18.657 20.0286 18.537C20.0483 18.0162 20.2034 17.5096 20.4785 17.067C20.5299 17.0142 20.5869 16.9672 20.6486 16.927V17.307C20.6675 17.413 20.6985 17.517 20.7386 17.617L20.7985 17.487C20.8156 17.451 20.8425 17.4207 20.8761 17.3994C20.9098 17.3782 20.9488 17.3669 20.9886 17.367C21.0356 17.3587 21.0782 17.3339 21.1086 17.297C21.1745 17.2195 21.22 17.1268 21.241 17.0272C21.2619 16.9277 21.2577 16.8244 21.2285 16.727C21.2048 16.5779 21.2048 16.426 21.2285 16.277C21.228 16.0879 21.2763 15.9019 21.3686 15.737C21.3903 15.6855 21.4208 15.6382 21.4585 15.597H21.5286V15.927C21.5209 15.9565 21.5209 15.9874 21.5286 16.017H21.6186L21.7985 15.897C21.8667 15.7752 21.8979 15.6362 21.8885 15.497C21.8747 15.4176 21.8747 15.3364 21.8885 15.257V14.437C21.8885 14.327 21.8885 14.317 21.9585 14.247L22.0686 14.187V14.627C22.076 14.612 22.0874 14.5995 22.1015 14.5906C22.1156 14.5818 22.1319 14.5771 22.1486 14.577ZM9.85855 10.017L10.4486 9.42697C10.4827 9.38984 10.5234 9.35933 10.5686 9.33697C10.6386 9.26697 10.5686 9.19697 10.5686 9.12697C10.5686 9.05697 10.4785 9.12697 10.3986 9.12697H10.3086V9.00697C10.3334 8.92504 10.3758 8.84951 10.4328 8.78562C10.4898 8.72173 10.56 8.671 10.6386 8.63697C10.8971 8.54381 11.18 8.54381 11.4385 8.63697C11.4604 8.64758 11.4843 8.65309 11.5086 8.65309C11.5328 8.65309 11.5567 8.64758 11.5786 8.63697L12.1486 8.32697C12.2386 8.32697 12.2185 8.23697 12.1486 8.18697C12.0786 8.13697 11.9786 8.06697 11.8886 8.18697C11.859 8.19459 11.8281 8.19459 11.7986 8.18697C11.7986 8.01697 11.9686 7.87697 12.1286 7.80697C12.3986 7.72397 12.6885 7.72397 12.9586 7.80697H12.9986C13.0686 7.80697 13.2786 7.89697 13.4486 7.80697L13.7986 7.68697C13.8886 7.68697 13.8886 7.61697 13.7986 7.56697C13.7086 7.51697 13.6786 7.42697 13.5886 7.49697C13.4986 7.56697 13.5886 7.49697 13.4986 7.49697C13.4796 7.4766 13.469 7.4498 13.469 7.42197C13.469 7.39413 13.4796 7.36733 13.4986 7.34697C13.6729 7.21545 13.8921 7.15797 14.1086 7.18697C14.3053 7.20214 14.4932 7.27521 14.6486 7.39697H14.7186C14.7523 7.43646 14.7963 7.46579 14.8458 7.48169C14.8952 7.49758 14.9481 7.49941 14.9986 7.48697C15.056 7.4526 15.1216 7.43446 15.1885 7.43446C15.2555 7.43446 15.3211 7.4526 15.3786 7.48697H15.4486V7.39697C15.4327 7.33536 15.3963 7.281 15.3454 7.24283C15.2945 7.20465 15.2321 7.18495 15.1686 7.18697H15.0986C15.2173 7.09426 15.3583 7.03439 15.5075 7.01333C15.6567 6.99227 15.8088 7.01076 15.9486 7.06697C16.1546 7.15097 16.3345 7.28897 16.4685 7.46697C16.5211 7.49934 16.5785 7.52298 16.6385 7.53697C16.7753 7.5327 16.9114 7.55652 17.0386 7.60697C17.1586 7.67697 17.1085 7.60697 17.1285 7.69697C17.1437 7.66481 17.1524 7.62996 17.1541 7.59444C17.1558 7.55891 17.1504 7.5234 17.1384 7.48995C17.1263 7.4565 17.1077 7.42576 17.0837 7.39951C17.0597 7.37326 17.0308 7.352 16.9986 7.33697H16.7985V7.18697C16.9075 7.16566 17.0196 7.16566 17.1285 7.18697C17.4445 7.22397 17.7285 7.39497 17.9086 7.65697C17.9785 7.77697 18.0366 7.90397 18.0786 8.03697C18.1636 8.02651 18.25 8.03855 18.3289 8.07189C18.4079 8.10523 18.4767 8.1587 18.5286 8.22697H18.5986C18.64 8.21857 18.6803 8.20513 18.7185 8.18697C18.7164 8.10899 18.6903 8.03358 18.6437 7.97097C18.5972 7.90835 18.5326 7.86157 18.4585 7.83697H18.3885C18.4785 7.83697 18.5585 7.76697 18.6486 7.83697C18.7985 7.85097 18.9436 7.89197 19.0786 7.95697C19.4346 8.10197 19.7006 8.40597 19.7985 8.77697C19.9685 8.86697 20.0786 8.96697 20.1986 9.03697H20.3386V8.82697C20.3238 8.75556 20.2926 8.68857 20.2475 8.6313C20.2023 8.57402 20.1445 8.52803 20.0786 8.49697L19.9886 8.42697C20.098 8.40242 20.2119 8.40706 20.319 8.4404C20.426 8.47375 20.5224 8.53463 20.5986 8.61697C20.7836 8.77297 20.9216 8.97697 20.9986 9.20697C21.0066 9.24442 21.0235 9.2794 21.0479 9.30897C21.0723 9.33855 21.1033 9.36186 21.1385 9.37697C21.2146 9.43397 21.2846 9.49697 21.3486 9.56697C21.4386 9.30697 21.2285 9.16697 21.1586 8.97697C21.2349 8.97857 21.31 8.99633 21.3789 9.02908C21.4479 9.06183 21.5091 9.10882 21.5585 9.16697C21.6985 9.31297 21.8246 9.46997 21.9386 9.63697C22.0106 9.75897 22.0906 9.87596 22.1786 9.98696C22.2506 10.121 22.2976 10.267 22.3186 10.417C22.3326 10.756 22.2852 11.0948 22.1786 11.417C22.1664 11.6368 22.1664 11.8571 22.1786 12.077C22.1886 12.107 22.1886 12.137 22.1786 12.167C22.0902 12.2397 22.0173 12.3294 21.9641 12.4307C21.9108 12.532 21.8784 12.6429 21.8686 12.757C21.8211 13.0551 21.8211 13.3588 21.8686 13.657V13.727C21.731 13.8176 21.6179 13.9407 21.5394 14.0855C21.4609 14.2303 21.4194 14.3923 21.4186 14.557V15.077C21.2745 15.1062 21.141 15.1736 21.0319 15.2721C20.9228 15.3706 20.8422 15.4966 20.7985 15.637C20.7285 15.777 20.7085 15.947 20.6285 16.087C20.5485 16.227 20.5385 16.177 20.4886 16.227V16.037C20.5483 15.724 20.5718 15.4053 20.5585 15.087C20.5683 14.6172 20.4798 14.1505 20.2985 13.717V13.547C20.4553 13.3872 20.5539 13.1794 20.5786 12.957C20.6036 12.6241 20.6036 12.2898 20.5786 11.957C20.5827 11.7209 20.4969 11.4921 20.3386 11.317C20.2573 11.2335 20.1527 11.1765 20.0386 11.1533C19.9244 11.1301 19.8059 11.1419 19.6986 11.187C19.5591 11.246 19.4401 11.3448 19.3565 11.4711C19.2729 11.5974 19.2284 11.7455 19.2285 11.897V12.247C18.8751 11.8925 18.4485 11.6195 17.9785 11.447C17.7088 11.352 17.431 11.2817 17.1486 11.237H16.5386C16.1443 11.2384 15.7527 11.3026 15.3786 11.427C15.1686 11.497 14.9786 11.597 14.7686 11.667C14.747 11.6783 14.7229 11.6843 14.6986 11.6843C14.6742 11.6843 14.6501 11.6783 14.6286 11.667C14.1799 11.3963 13.6951 11.1909 13.1885 11.057C12.9499 10.9923 12.7053 10.9521 12.4586 10.937C11.9586 10.837 11.4586 10.767 11.0386 10.637C10.6626 10.5472 10.3043 10.3951 9.97855 10.187C9.95616 10.1197 9.91441 10.0606 9.85855 10.017ZM19.3085 14.717C19.3085 14.887 18.9986 14.927 18.6686 14.837V15.187C18.6736 15.2268 18.6736 15.2671 18.6686 15.307H18.5286C18.4295 15.2267 18.3359 15.1398 18.2486 15.047C18.1899 15.0723 18.1378 15.1107 18.0962 15.1592C18.0546 15.2077 18.0246 15.2651 18.0086 15.327C17.9386 15.517 17.8386 15.537 17.6986 15.327C17.6469 15.2745 17.5899 15.2276 17.5286 15.187C17.4644 15.2782 17.3942 15.3651 17.3186 15.447C17.3011 15.4674 17.2797 15.4842 17.2557 15.4962C17.2316 15.5083 17.2054 15.5153 17.1786 15.517C17.1427 15.4817 17.1123 15.4413 17.0886 15.397C17.0783 15.3273 17.0783 15.2566 17.0886 15.187C16.9686 15.497 16.8286 15.757 16.4785 15.827C16.4658 15.6962 16.49 15.5646 16.5485 15.447C16.6185 15.327 16.5485 15.447 16.5485 15.377C16.3925 15.5269 16.2995 15.7308 16.2886 15.947C16.3046 16.38 16.4166 16.804 16.6186 17.187C16.7586 17.537 16.9285 17.877 17.0686 18.187C17.1966 18.504 17.2545 18.845 17.2386 19.187C17.2546 19.3608 17.2198 19.5356 17.1383 19.69C17.0568 19.8444 16.9321 19.9718 16.7795 20.0566C16.6268 20.1414 16.4528 20.18 16.2787 20.1676C16.1045 20.1552 15.9377 20.0925 15.7986 19.987C15.57 19.8453 15.3699 19.6621 15.2086 19.447C15.0686 19.257 14.9286 19.067 14.8086 18.877C14.7415 18.738 14.6846 18.5943 14.6386 18.447V18.307C14.6944 18.3035 14.7499 18.3182 14.7967 18.3489C14.8436 18.3795 14.8793 18.4244 14.8986 18.477C14.9486 18.557 15.1586 18.877 15.2986 19.067C15.4136 19.297 15.5866 19.493 15.7986 19.637C15.8688 19.6666 15.9442 19.682 16.0204 19.6825C16.0967 19.6829 16.1722 19.6683 16.2428 19.6395C16.3134 19.6107 16.3776 19.5683 16.4318 19.5147C16.486 19.461 16.529 19.3973 16.5585 19.327V19.257C16.6007 19.1324 16.6162 19.0005 16.6042 18.8695C16.5921 18.7386 16.5527 18.6117 16.4886 18.497C16.3186 18.117 16.1086 17.737 15.9186 17.367C15.6987 16.9682 15.5466 16.5356 15.4686 16.087C15.4567 15.9773 15.4567 15.8666 15.4686 15.757C15.3186 15.769 15.1686 15.769 15.0186 15.757L14.5686 15.637L14.3586 15.777C14.368 15.7308 14.368 15.6832 14.3586 15.637C14.3606 15.5453 14.3375 15.4549 14.2916 15.3755C14.2458 15.2962 14.179 15.2309 14.0986 15.187C14.0482 15.187 13.9998 15.207 13.9642 15.2426C13.9286 15.2782 13.9086 15.3266 13.9086 15.377C13.9012 15.479 13.9215 15.5811 13.9673 15.6726C14.013 15.7641 14.0825 15.8416 14.1686 15.897L14.5686 16.177C14.7086 16.267 14.6886 16.267 14.7586 16.177C14.7683 16.1308 14.7683 16.0831 14.7586 16.037C14.9486 16.037 15.0185 16.157 15.0386 16.347C15.0845 16.587 15.1486 16.825 15.2285 17.057C15.2329 17.1073 15.2272 17.158 15.2117 17.206C15.1963 17.2541 15.1714 17.2986 15.1386 17.337C15.0151 17.4926 14.853 17.6132 14.6686 17.687C14.5174 17.7456 14.3497 17.7456 14.1986 17.687C14.2858 17.6002 14.3794 17.52 14.4785 17.447C14.5205 17.4043 14.5509 17.3515 14.5666 17.2937C14.5824 17.2359 14.583 17.1751 14.5686 17.117C14.5614 17.0982 14.5492 17.0817 14.5333 17.0694C14.5175 17.0571 14.4985 17.0493 14.4785 17.047C14.3856 17.0355 14.2915 17.0355 14.1986 17.047C14.1262 17.0521 14.0584 17.0843 14.0086 17.137C13.8446 17.2671 13.6708 17.3841 13.4886 17.487C13.3401 17.564 13.1711 17.592 13.0057 17.5668C12.8404 17.5416 12.6873 17.4647 12.5686 17.347C12.4831 17.2512 12.4184 17.1389 12.3786 17.017L12.3086 16.877C12.2733 16.9128 12.2328 16.9432 12.1885 16.967C12.1385 16.967 12.1186 16.847 12.1885 16.827C12.2176 16.697 12.2586 16.57 12.3086 16.447C12.3199 16.4254 12.3259 16.4014 12.3259 16.377C12.3259 16.3526 12.3199 16.3285 12.3086 16.307C12.2286 16.1958 12.122 16.1064 11.9986 16.047C11.9086 15.977 11.8286 16.047 11.7586 16.047H11.6386C11.641 16.007 11.641 15.9669 11.6386 15.927C11.6554 15.8217 11.7021 15.7234 11.7729 15.6436C11.8438 15.5639 11.9359 15.5061 12.0386 15.477H12.1586C11.8719 15.3675 11.6125 15.1969 11.3986 14.977C11.3285 14.907 11.3085 14.857 11.3986 14.787C11.4886 14.717 11.6586 14.557 11.7986 14.457C12.067 14.3616 12.3601 14.3616 12.6286 14.457C12.8756 14.539 13.1016 14.675 13.2886 14.857L13.3586 14.927C13.3021 14.7557 13.2069 14.5998 13.0802 14.4714C12.9536 14.3431 12.799 14.2457 12.6286 14.187C12.324 14.0736 12.0033 14.0094 11.6786 13.997C11.6946 13.9364 11.7276 13.8817 11.7737 13.8392C11.8197 13.7967 11.8769 13.7682 11.9385 13.757L12.4785 13.657C12.6706 13.6142 12.8491 13.5249 12.9986 13.397C12.902 13.3174 12.7982 13.2471 12.6885 13.187C12.4086 13.067 12.1186 12.927 11.8386 12.837C11.5841 12.7247 11.3146 12.6506 11.0386 12.617C10.6532 12.5631 10.2745 12.4693 9.90855 12.337C9.46699 12.2164 9.04574 12.0311 8.65855 11.787C8.25855 11.527 7.91855 11.187 7.65855 10.787C7.59794 10.6834 7.55088 10.5725 7.51855 10.457V10.337H7.63855L7.79855 10.427C8.05855 10.637 8.29855 10.897 8.55855 11.087C8.87749 11.3185 9.23705 11.4881 9.61855 11.587C9.92855 11.657 10.2286 11.727 10.5386 11.777C10.8486 11.827 11.0585 11.777 11.3186 11.847L11.8886 11.917C12.1056 11.932 12.3205 11.972 12.5286 12.037C12.8586 12.157 13.1685 12.297 13.4785 12.417C13.4964 12.4286 13.5172 12.4348 13.5386 12.4348C13.5599 12.4348 13.5807 12.4286 13.5986 12.417C13.7286 12.388 13.8555 12.347 13.9785 12.297V12.187C13.748 12.0583 13.511 11.9415 13.2686 11.837C12.8139 11.6582 12.3355 11.547 11.8486 11.507L11.1885 11.437C10.8268 11.3771 10.4694 11.2936 10.1186 11.187C9.75541 11.0548 9.41729 10.8621 9.11855 10.617C8.8671 10.4229 8.67912 10.1583 8.57855 9.85697V9.64697C8.60547 9.63569 8.63436 9.62988 8.66355 9.62988C8.69274 9.62988 8.72163 9.63569 8.74855 9.64697L9.00855 9.92697C9.14855 10.067 9.28855 10.207 9.45855 10.357C9.85455 10.667 10.3106 10.892 10.7986 11.017C11.0786 11.087 11.3685 11.137 11.6486 11.187C12.0985 11.257 12.5686 11.327 13.0186 11.427C13.5521 11.5227 14.0497 11.7611 14.4586 12.117C14.6286 12.257 14.7686 12.187 14.9286 12.117C15.0133 12.1009 15.1009 12.1127 15.1784 12.1506C15.2559 12.1884 15.3191 12.2503 15.3586 12.327C15.4785 12.65 15.4785 13.004 15.3586 13.327C15.3478 13.3867 15.3554 13.4484 15.3804 13.5037C15.4054 13.5591 15.4466 13.6055 15.4986 13.637H15.6186C15.7581 13.5797 15.9104 13.5607 16.0598 13.5818C16.2092 13.6029 16.3503 13.6633 16.4685 13.757C16.5056 13.7862 16.5514 13.802 16.5986 13.802C16.6457 13.802 16.6915 13.7862 16.7285 13.757C16.9247 13.6653 17.115 13.5618 17.2985 13.447C17.4885 13.327 17.3886 13.277 17.4386 13.187C17.5067 13.0485 17.617 12.9352 17.7535 12.8634C17.89 12.7915 18.0459 12.7648 18.1986 12.787C18.4136 12.787 18.6286 12.81 18.8386 12.857C19.0089 12.9028 19.1883 12.9028 19.3586 12.857C19.4659 12.8441 19.5663 12.7974 19.6454 12.7237C19.7245 12.65 19.7781 12.5531 19.7985 12.447V11.807C19.7985 11.737 19.7986 11.667 19.9186 11.667C20.0386 11.667 20.0086 11.757 20.0086 11.837C20.0806 12.167 20.0806 12.507 20.0086 12.837C19.9886 12.9796 19.9136 13.1087 19.7995 13.1965C19.6855 13.2844 19.5415 13.3241 19.3986 13.307H18.5485C18.4335 13.2997 18.3196 13.3341 18.2278 13.4038C18.136 13.4736 18.0723 13.5741 18.0485 13.687C18.0375 13.733 18.0375 13.781 18.0485 13.827C18.1185 13.967 18.1685 14.087 18.3785 14.067C18.4906 14.077 18.5786 14.165 18.5886 14.277C18.6103 14.3967 18.6713 14.5059 18.7617 14.5873C18.8522 14.6688 18.9672 14.7179 19.0886 14.727L19.3085 14.717ZM13.7386 14.027C13.8586 14.15 13.9855 14.267 14.1186 14.377C14.1862 14.4281 14.2687 14.4557 14.3535 14.4557C14.4384 14.4557 14.5209 14.4281 14.5886 14.377C14.7206 14.2985 14.8475 14.2116 14.9686 14.117V14.047C14.9572 14.0017 14.9362 13.9594 14.9068 13.9231C14.8774 13.8869 14.8405 13.8575 14.7986 13.837C14.7133 13.8145 14.6238 13.8145 14.5386 13.837L14.3686 13.907C14.1982 13.9528 14.0189 13.9528 13.8486 13.907L13.7386 14.027ZM16.9986 14.357C17.0393 14.3906 17.0872 14.4145 17.1385 14.427C17.3136 14.4604 17.4722 14.552 17.5886 14.687C17.7046 14.698 17.8226 14.698 17.9386 14.687C18.0086 14.687 18.0585 14.617 18.1285 14.597C18.0713 14.5278 18.0077 14.4642 17.9386 14.407C17.6406 14.2815 17.3082 14.2638 16.9986 14.357ZM4.53855 17.437C4.66362 17.5707 4.82302 17.6676 4.99936 17.7169C5.17569 17.7663 5.36221 17.7663 5.53855 17.717C5.59739 17.6996 5.65145 17.6689 5.69653 17.6273C5.74162 17.5857 5.77652 17.5342 5.79855 17.477C5.42367 17.5636 5.03018 17.514 4.68855 17.337C4.52696 17.2448 4.3865 17.1197 4.27626 16.9699C4.16602 16.82 4.08845 16.6487 4.04855 16.467C3.97367 16.2007 3.98566 15.9175 4.08277 15.6585C4.17989 15.3996 4.35706 15.1783 4.58855 15.027C4.48527 15.3585 4.51785 15.7174 4.67911 16.025C4.84036 16.3325 5.11712 16.5634 5.44855 16.667H5.58855C5.88669 16.729 6.19699 16.6899 6.47044 16.5559C6.74389 16.4219 6.9649 16.2006 7.09855 15.927C6.99377 16.008 6.89361 16.0948 6.79855 16.187C6.36155 16.487 5.78555 16.487 5.34855 16.187C5.23003 16.1087 5.13195 16.0033 5.0625 15.8794C4.99306 15.7555 4.95427 15.6168 4.94938 15.4749C4.94449 15.3329 4.97363 15.1919 5.03437 15.0635C5.09512 14.9352 5.1857 14.8232 5.29855 14.737C5.31199 14.8205 5.34417 14.8998 5.39266 14.9691C5.44115 15.0384 5.50471 15.0958 5.57855 15.137C5.72534 15.2179 5.88395 15.2753 6.04855 15.307C6.22785 15.3357 6.41137 15.3227 6.58481 15.2689C6.75826 15.2152 6.91696 15.1221 7.04855 14.997C7.19333 14.8483 7.3057 14.6713 7.37855 14.477C7.56855 14.027 7.70855 13.557 7.91855 13.107C8.05452 12.8326 8.20472 12.5656 8.36855 12.307C8.36855 12.237 8.45855 12.307 8.50855 12.307L9.02855 12.587L9.35855 12.727L9.21855 12.847C8.90522 13.181 8.63633 13.5541 8.41855 13.957C8.24855 14.267 8.08855 14.547 7.94855 14.857C7.80855 15.167 7.66855 15.567 7.54855 15.917L7.26855 16.717C7.19855 16.927 7.09855 17.117 7.00855 17.327C6.87449 17.631 6.64202 17.8811 6.34855 18.037C6.17615 18.1208 5.98962 18.1716 5.79855 18.187C5.6093 18.2108 5.4178 18.2108 5.22855 18.187C5.07538 18.1752 4.92937 18.1173 4.80976 18.0209C4.69015 17.9245 4.60257 17.7941 4.55855 17.647C4.5724 17.5765 4.56545 17.5035 4.53855 17.437ZM18.6086 16.637C18.6206 16.747 18.6206 16.857 18.6086 16.967C18.6086 17.107 18.5185 17.107 18.3986 17.037L18.1186 16.897H17.9986C18.039 16.9777 18.0601 17.0667 18.0601 17.157C18.0601 17.2472 18.039 17.3363 17.9986 17.417C17.9821 17.4656 17.9506 17.5076 17.9086 17.537H17.7985L17.7285 17.327C17.7044 17.2715 17.6593 17.2279 17.6032 17.2054C17.547 17.183 17.4843 17.1835 17.4286 17.207C17.3359 17.2323 17.248 17.2729 17.1686 17.327H17.0286C16.8559 16.9963 16.7441 16.6372 16.6986 16.267L16.7985 16.387C16.8804 16.4494 16.9806 16.4832 17.0835 16.4832C17.1865 16.4832 17.2867 16.4494 17.3686 16.387C17.3927 16.3353 17.4052 16.279 17.4052 16.222C17.4052 16.165 17.3927 16.1086 17.3686 16.057C17.3686 15.987 17.2986 15.937 17.2786 15.867C17.4186 15.867 17.4186 15.747 17.7786 16.177L18.0386 16.037C18.1286 16.037 18.0386 15.897 18.0386 15.847V15.637L18.2085 15.707C18.2571 15.7234 18.2992 15.7549 18.3286 15.797C18.4778 15.9652 18.6455 16.1162 18.8286 16.247C18.8842 16.293 18.9284 16.3512 18.9579 16.4171C18.9874 16.483 19.0013 16.5548 18.9986 16.627V16.717H18.9286C18.6786 16.637 18.6786 16.637 18.6086 16.637ZM6.79855 15.047C6.60561 14.9332 6.38135 14.8842 6.15855 14.907C6.06557 14.9185 5.97153 14.9185 5.87855 14.907C5.82032 14.8973 5.76513 14.8742 5.71738 14.8395C5.66963 14.8048 5.63062 14.7594 5.60345 14.707C5.57627 14.6546 5.56168 14.5966 5.56083 14.5376C5.55998 14.4785 5.5729 14.4201 5.59855 14.367C5.68855 14.367 5.76855 14.487 5.85855 14.537C5.94855 14.587 5.97855 14.537 5.97855 14.467C5.97537 14.4086 5.98989 14.3506 6.02023 14.3007C6.05057 14.2507 6.0953 14.2111 6.14855 14.187C6.22473 14.1602 6.30671 14.1545 6.38589 14.1703C6.46506 14.1861 6.53852 14.223 6.59855 14.277C6.80055 14.477 6.87855 14.773 6.79855 15.047Z" fill="white"/>
</g>
<defs>
<clipPath id="clip0_1_6047">
<rect width="32" height="32" fill="white" transform="translate(0 0.00488281)"/>
</clipPath>
</defs>
</svg>
