<svg width="32" height="32" viewBox="0 0 32 32" fill="none" xmlns="http://www.w3.org/2000/svg">
<g clip-path="url(#clip0_1_6039)">
<path d="M16 32.0049C24.8366 32.0049 32 24.8414 32 16.0049C32 7.16833 24.8366 0.00488281 16 0.00488281C7.16344 0.00488281 0 7.16833 0 16.0049C0 24.8414 7.16344 32.0049 16 32.0049Z" fill="#FF6600"/>
<path d="M17.078 19.3609C22.158 17.7939 20.345 12.5269 17.078 12.3269C17.908 12.3269 18.586 9.94988 18.586 7.00488C26.562 7.57188 30.309 20.7159 18.346 24.8279C18.423 23.7609 17.986 20.7829 17.079 19.3609H17.078ZM6 17.8049V12.3379H6.01C8.895 12.3269 11.222 9.93788 11.212 7.01588H16.772C16.773 12.9819 11.955 17.8049 6 17.8049ZM13.287 16.8149C16.587 19.5269 16.773 24.0939 16.773 25.0049H11.212C11.212 21.9829 9.245 19.5379 6.809 19.5379C10.939 18.8719 11.78 18.1719 13.287 16.8159V16.8149Z" fill="white"/>
</g>
<defs>
<clipPath id="clip0_1_6039">
<rect width="32" height="32" fill="white" transform="translate(0 0.00488281)"/>
</clipPath>
</defs>
</svg>
