<svg width="32" height="32" viewBox="0 0 32 32" fill="none" xmlns="http://www.w3.org/2000/svg">
<g clip-path="url(#clip0_1_6032)">
<path d="M16 32.0049C24.8366 32.0049 32 24.8414 32 16.0049C32 7.16833 24.8366 0.00488281 16 0.00488281C7.16344 0.00488281 0 7.16833 0 16.0049C0 24.8414 7.16344 32.0049 16 32.0049Z" fill="#4700C2"/>
<path fill-rule="evenodd" clip-rule="evenodd" d="M13.253 14.6494C12.943 14.8514 12.588 15.0654 12.22 15.2894V17.3104C12.554 17.1414 12.898 16.9704 13.253 16.8014V14.6484V14.6494ZM8.08602 18.3864C8.17989 18.5684 8.34164 18.7061 8.53628 18.7697C8.73091 18.8333 8.94277 18.8178 9.12602 18.7264L10.092 18.2394C10.098 17.4274 10.102 16.8104 10.102 16.5654V16.5004C9.28202 16.9084 8.66002 17.2214 8.42102 17.3404C8.23795 17.4347 8.09984 17.5979 8.03702 17.794C7.97421 17.9902 7.99183 18.2032 8.08602 18.3864ZM13.545 18.1814C13.5446 18.2827 13.5642 18.3832 13.6028 18.477C13.6413 18.5707 13.6979 18.656 13.7695 18.7278C13.841 18.7996 13.926 18.8566 14.0197 18.8955C14.1133 18.9344 14.2136 18.9544 14.315 18.9544H14.324C14.5289 18.9541 14.7252 18.8725 14.87 18.7276C15.0147 18.5827 15.096 18.3862 15.096 18.1814V11.7784C15.0959 11.6683 15.0724 11.5596 15.027 11.4593C14.9815 11.3591 14.9153 11.2697 14.8325 11.1971C14.7498 11.1245 14.6526 11.0704 14.5473 11.0384C14.442 11.0064 14.3311 10.9972 14.222 11.0114C14.0357 11.0343 13.8643 11.1248 13.7401 11.2655C13.6159 11.4063 13.5476 11.5877 13.548 11.7754V14.9734C13.545 16.0474 13.545 17.1134 13.545 18.1814Z" fill="white"/>
<path fill-rule="evenodd" clip-rule="evenodd" d="M24.985 13.0574C24.936 12.6834 24.688 12.4754 24.311 12.3774C24.011 12.3004 23.701 12.2854 23.385 12.2824C22.649 12.2794 21.919 12.3984 21.195 12.5394C20.149 12.7424 19.115 13.0024 18.098 13.3194C17.791 13.4134 17.488 13.5114 17.181 13.6094L17.178 13.5974L17.233 13.5514C17.825 13.0454 18.413 12.5394 19.009 12.0394C20.315 10.9354 21.493 9.7244 22.587 8.4464C22.885 8.0994 23.142 7.7284 23.274 7.3054C23.474 6.6704 23.25 6.2754 22.606 6.0974C22.3331 6.03135 22.0528 6.00043 21.772 6.0054C21.158 6.0024 20.552 6.1034 19.953 6.2254C19.328 6.3554 18.423 6.5854 17.81 6.7714C16.829 7.0714 15.617 7.5874 14.535 8.0254C13.983 8.2404 13.395 8.5164 12.845 8.7314L10.766 9.5774C8.00602 10.7644 7.20302 9.9114 7.20302 9.9114C7.20302 9.9154 7.20402 9.9184 7.20602 9.9214C7.20078 9.91372 7.19674 9.90529 7.19402 9.8964C6.65702 10.9544 7.10402 12.8764 10.208 11.5034C10.696 11.3134 11.192 11.1074 11.677 10.9204C12.612 10.5554 13.538 10.1044 14.477 9.7434C15.1229 9.47771 15.774 9.22499 16.43 8.9854L17.022 8.7554C17.629 8.5554 18.236 8.3574 18.855 8.2034C19.53 8.0294 20.119 7.9244 20.475 7.9704C20.511 7.9734 20.548 7.9764 20.582 7.9834C20.744 8.0044 20.83 8.0904 20.815 8.2034C20.809 8.3784 20.527 8.9584 17.96 11.0954C17.773 11.2554 17.586 11.4174 17.399 11.5764C17.111 11.8254 16.832 12.0704 16.549 12.3164L16.313 12.5244L16.31 12.5274L16.2 12.6254C16.1914 12.6345 16.182 12.6429 16.172 12.6504L16.145 12.6744L15.93 12.8374C15.9154 12.8515 15.9 12.8648 15.884 12.8774V15.5904C16.792 15.2804 21.21 13.8064 21.686 14.2384C21.723 14.2884 22.284 14.6374 17.147 18.1514C16.945 18.3044 16.749 18.4574 16.547 18.6114L15.804 19.1784C14.875 19.8504 13.952 20.5244 13.024 21.1964L12.621 21.4874C12.615 22.2204 12.612 22.9224 12.609 23.5674L22.409 16.3354C23.0067 15.8318 23.5731 15.2921 24.105 14.7194C24.405 14.3984 24.675 14.0574 24.853 13.6684C24.945 13.4654 25.013 13.2694 24.985 13.0584V13.0574ZM9.01802 24.1794C8.89171 24.3369 8.82729 24.5351 8.83686 24.7367C8.84644 24.9384 8.92936 25.1296 9.07002 25.2744C9.19839 25.4105 9.36939 25.4986 9.5547 25.5243C9.74001 25.5499 9.92852 25.5115 10.089 25.4154L10.481 25.1274C10.484 24.5384 10.491 23.8214 10.496 23.0474L9.17202 24.0294C9.11482 24.073 9.06311 24.1234 9.01802 24.1794Z" fill="white"/>
<path fill-rule="evenodd" clip-rule="evenodd" d="M12.601 12.5787C12.5524 12.3971 12.4393 12.2393 12.2829 12.135C12.1264 12.0307 11.9374 11.9868 11.751 12.0117C11.5647 12.0347 11.3933 12.1251 11.2691 12.2658C11.1449 12.4066 11.0766 12.588 11.077 12.7757V15.9737C11.077 16.6207 11.049 19.8317 11.025 22.4957C11.019 23.2597 11.012 23.9767 11.009 24.5757C11.003 25.3357 11 25.9057 11 26.1387C10.9996 26.24 11.0192 26.3405 11.0578 26.4343C11.0963 26.528 11.1529 26.6133 11.2245 26.6851C11.296 26.7569 11.381 26.8139 11.4746 26.8528C11.5683 26.8917 11.6686 26.9117 11.77 26.9117H11.779C11.984 26.9117 12.1806 26.8302 12.3256 26.6853C12.4706 26.5403 12.552 26.3437 12.552 26.1387C12.552 25.6027 12.558 24.6237 12.564 23.4247C12.567 22.7847 12.574 22.0787 12.576 21.3457C12.598 18.0127 12.628 14.0857 12.626 12.7757C12.6253 12.7093 12.6169 12.6432 12.601 12.5787Z" fill="white"/>
</g>
<defs>
<clipPath id="clip0_1_6032">
<rect width="32" height="32" fill="white" transform="translate(0 0.00488281)"/>
</clipPath>
</defs>
</svg>
