<svg width="32" height="32" viewBox="0 0 32 32" fill="none" xmlns="http://www.w3.org/2000/svg">
<g clip-path="url(#clip0_1_6028)">
<path d="M16 32.0049C24.8366 32.0049 32 24.8414 32 16.0049C32 7.16833 24.8366 0.00488281 16 0.00488281C7.16344 0.00488281 0 7.16833 0 16.0049C0 24.8414 7.16344 32.0049 16 32.0049Z" fill="#272D63"/>
<path d="M20.215 7.20488L19.515 10.0469C21.679 10.8029 23.272 11.9369 22.961 14.0369C22.871 14.6749 22.651 15.3139 22.197 15.7969C21.808 16.2139 21.2 16.4349 20.681 16.6049C20.0587 16.8154 19.4078 16.9297 18.751 16.9439C18.311 16.9439 17.883 16.9309 17.443 16.8919C16.731 16.8389 16.005 16.7739 15.306 16.6179C15.086 16.5659 14.878 16.5269 14.684 16.4739L13.738 20.2939L13.181 22.3799L12.481 25.2359L10.759 24.8059L11.472 21.9239C11.07 21.8199 10.655 21.7029 10.241 21.5979L8 21.0379L8.855 19.0679C8.855 19.0679 10.125 19.4079 10.111 19.3819C10.604 19.4989 10.811 19.1729 10.901 18.9649L11.873 15.0529L12.326 13.2409L12.845 11.1549C12.87 10.7899 12.741 10.3209 12.041 10.1509C12.067 10.1379 10.785 9.83788 10.785 9.83788L11.238 7.98688L13.608 8.58688C13.972 8.67688 14.334 8.75588 14.71 8.84688L15.41 6.00488L17.132 6.43488L16.446 9.22488C16.899 9.32988 17.366 9.43388 17.819 9.55088L18.492 6.77388L20.215 7.20488ZM20.073 17.5049C20.552 17.4259 21.135 17.2309 21.549 17.0609C21.562 17.0479 21.589 17.0479 21.601 17.0349C22.495 17.8299 22.922 19.1209 22.339 20.7769C21.419 23.4629 19.205 23.6839 16.277 23.1239L15.565 26.0049L13.855 25.5749L14.515 22.8239L14.541 22.7329L15.06 20.6199C16.588 20.9599 18.648 21.1809 19.036 19.5899C19.244 18.7429 18.842 18.1299 18.194 17.6869L18.868 17.6469C19.348 17.6219 19.593 17.5829 20.073 17.5039V17.5049ZM19.567 14.0099C20.073 11.9629 16.937 11.5199 15.967 11.2599L15.111 14.7269C16.083 14.9749 19.088 15.9659 19.567 14.0099Z" fill="#FEFEFE"/>
</g>
<defs>
<clipPath id="clip0_1_6028">
<rect width="32" height="32" fill="white" transform="translate(0 0.00488281)"/>
</clipPath>
</defs>
</svg>
