<svg width="32" height="32" viewBox="0 0 32 32" fill="none" xmlns="http://www.w3.org/2000/svg">
<g clip-path="url(#clip0_1_6024)">
<path d="M16 32.0049C24.8366 32.0049 32 24.8414 32 16.0049C32 7.16833 24.8366 0.00488281 16 0.00488281C7.16344 0.00488281 0 7.16833 0 16.0049C0 24.8414 7.16344 32.0049 16 32.0049Z" fill="#F8C24A"/>
<path d="M16 27.0049C9.934 27.0049 5 22.0709 5 16.0049C5 9.93888 9.937 5.00488 16 5.00488C22.063 5.00488 27 9.94188 27 16.0049C27 17.0069 26.864 18.0049 26.595 18.9709C26.5275 19.1929 26.3758 19.3797 26.1723 19.4913C25.9689 19.6029 25.7298 19.6304 25.5063 19.5679C25.2828 19.5054 25.0927 19.3579 24.9765 19.157C24.8604 18.9561 24.8276 18.7177 24.885 18.4929C25.11 17.6829 25.225 16.8459 25.224 16.0049C25.224 10.9189 21.086 6.78088 16 6.78088C10.914 6.78088 6.776 10.9189 6.776 16.0049C6.776 21.0909 10.914 25.2289 16 25.2289C16.952 25.2289 17.899 25.0829 18.806 24.7939C18.918 24.7553 19.0365 24.7394 19.1547 24.7473C19.2729 24.7552 19.3883 24.7866 19.4941 24.8398C19.5999 24.8929 19.6941 24.9667 19.771 25.0568C19.8479 25.1468 19.906 25.2514 19.9418 25.3643C19.9777 25.4771 19.9907 25.596 19.9799 25.714C19.9692 25.8319 19.9349 25.9465 19.8792 26.051C19.8235 26.1555 19.7475 26.2478 19.6556 26.3225C19.5636 26.3972 19.4577 26.4528 19.344 26.4859C18.2629 26.8308 17.1348 27.0059 16 27.0049ZM19.375 15.9789C19.755 16.2969 20.011 16.7569 20.143 17.3579C20.229 17.7039 20.223 18.0669 20.127 18.4099C20.031 18.7279 19.8618 19.0191 19.633 19.2599C19.3825 19.5206 19.0888 19.7361 18.765 19.8969C18.423 20.0739 18.342 20.1309 17.934 20.2209L17.68 20.2819C17.6047 20.3002 17.5395 20.3473 17.4986 20.4131C17.4576 20.479 17.4441 20.5582 17.461 20.6339L17.611 21.3059C17.6194 21.3439 17.6202 21.3832 17.6134 21.4215C17.6066 21.4599 17.5922 21.4965 17.5712 21.5293C17.5503 21.5621 17.523 21.5904 17.491 21.6126C17.4591 21.6349 17.423 21.6506 17.385 21.6589L16.708 21.8089C16.67 21.8173 16.6308 21.8181 16.5925 21.8114C16.5543 21.8046 16.5177 21.7904 16.4849 21.7695C16.4521 21.7486 16.4238 21.7215 16.4015 21.6896C16.3792 21.6578 16.3634 21.6218 16.355 21.5839L16.207 20.9169C16.1986 20.8789 16.1828 20.843 16.1605 20.8112C16.1382 20.7793 16.1099 20.7522 16.0771 20.7313C16.0443 20.7104 16.0077 20.6961 15.9695 20.6894C15.9312 20.6826 15.892 20.6835 15.854 20.6919L14.021 21.0979C13.834 21.1389 13.6384 21.1041 13.4771 21.0009C13.3159 20.8978 13.2021 20.7348 13.161 20.5479L11.511 13.0889C11.4699 12.9019 11.5048 12.7063 11.6079 12.545C11.7111 12.3837 11.874 12.27 12.061 12.2289L13.894 11.8229C13.932 11.8145 13.9679 11.7987 13.9997 11.7764C14.0316 11.7541 14.0587 11.7258 14.0796 11.693C14.1005 11.6602 14.1147 11.6236 14.1215 11.5854C14.1283 11.5471 14.1274 11.5078 14.119 11.4699L13.969 10.7979C13.9608 10.7599 13.9601 10.7206 13.9671 10.6823C13.974 10.644 13.9885 10.6075 14.0095 10.5748C14.0306 10.5421 14.0579 10.5139 14.0899 10.4918C14.1219 10.4697 14.158 10.4541 14.196 10.4459L14.873 10.2959C14.911 10.2875 14.9502 10.2866 14.9885 10.2934C15.0267 10.3001 15.0633 10.3144 15.0961 10.3353C15.1289 10.3562 15.1572 10.3833 15.1795 10.4152C15.2018 10.447 15.2176 10.4829 15.226 10.5209L15.374 11.1889C15.3912 11.2653 15.438 11.3319 15.5042 11.3739C15.5704 11.4159 15.6505 11.4299 15.727 11.4129L16.287 11.2909C16.577 11.2229 16.88 11.2279 17.167 11.3059C17.441 11.3809 17.697 11.5089 17.92 11.6829C18.3731 12.0447 18.6886 12.5508 18.814 13.1169C18.908 13.5369 18.889 13.9749 18.76 14.3869C18.6263 14.8142 18.3571 15.1863 17.993 15.4469C18.499 15.4709 18.983 15.6569 19.375 15.9789ZM13.945 14.3819L14.043 14.8079C14.0841 14.9948 14.1979 15.1578 14.3591 15.2609C14.5204 15.3641 14.716 15.3989 14.903 15.3579L16.21 15.0679C16.4311 15.0208 16.627 14.8937 16.76 14.7109C16.901 14.5229 16.937 14.2709 16.867 13.9539C16.802 13.6619 16.675 13.4539 16.487 13.3299C16.3986 13.2692 16.2985 13.2276 16.1931 13.208C16.0877 13.1884 15.9793 13.1911 15.875 13.2159L14.495 13.5209C14.4023 13.5413 14.3146 13.5797 14.2368 13.634C14.159 13.6883 14.0926 13.7574 14.0415 13.8374C13.9904 13.9173 13.9556 14.0066 13.9391 14.1C13.9225 14.1935 13.9245 14.2892 13.945 14.3819ZM17.854 18.1489H17.856C17.9241 18.0387 17.969 17.9158 17.9879 17.7877C18.0068 17.6596 17.9994 17.529 17.966 17.4039C17.9166 17.1482 17.7772 16.9186 17.573 16.7569C17.4821 16.6814 17.3749 16.628 17.2598 16.6009C17.1448 16.5738 17.025 16.5738 16.91 16.6009L15.254 16.9679C15.067 17.009 14.9041 17.1227 14.8009 17.284C14.6978 17.4453 14.6629 17.6409 14.704 17.8279L14.82 18.3549C14.8404 18.4476 14.8788 18.5353 14.9331 18.6131C14.9874 18.6909 15.0565 18.7573 15.1365 18.8084C15.2165 18.8594 15.3057 18.8943 15.3991 18.9108C15.4926 18.9274 15.5883 18.9254 15.681 18.9049L17.25 18.5579C17.3733 18.5347 17.4906 18.4865 17.5945 18.4161C17.6984 18.3457 17.7867 18.2548 17.854 18.1489ZM21.152 23.5319L22.685 21.6999C22.7189 21.6594 22.7406 21.6101 22.7474 21.5578C22.7543 21.5055 22.746 21.4522 22.7236 21.4044C22.7013 21.3566 22.6657 21.3162 22.6211 21.2879C22.5765 21.2597 22.5248 21.2447 22.472 21.2449H21.44C21.4035 21.245 21.3674 21.2379 21.3337 21.2241C21.3 21.2102 21.2693 21.1898 21.2435 21.1641C21.2177 21.1384 21.1972 21.1078 21.1832 21.0741C21.1692 21.0404 21.162 21.0043 21.162 20.9679V20.7519C21.162 20.5989 21.286 20.4749 21.44 20.4749H23.798C23.8715 20.4749 23.9419 20.5041 23.9939 20.556C24.0458 20.608 24.075 20.6784 24.075 20.7519V21.0359C24.075 21.0983 24.0538 21.159 24.015 21.2079L22.548 23.0499C22.5154 23.0907 22.495 23.1399 22.4891 23.1918C22.4832 23.2437 22.4921 23.2962 22.5148 23.3432C22.5375 23.3902 22.573 23.4299 22.6173 23.4576C22.6616 23.4854 22.7128 23.5 22.765 23.4999H23.816C23.969 23.4999 24.094 23.6239 24.094 23.7769V23.9919C24.094 24.0283 24.0868 24.0644 24.0728 24.0981C24.0588 24.1318 24.0383 24.1624 24.0125 24.1881C23.9867 24.2138 23.956 24.2342 23.9223 24.2481C23.8886 24.2619 23.8525 24.269 23.816 24.2689H21.364C21.2905 24.2689 21.2201 24.2397 21.1681 24.1878C21.1162 24.1358 21.087 24.0653 21.087 23.9919V23.7119C21.0869 23.6461 21.1099 23.5824 21.152 23.5319Z" fill="white"/>
</g>
<defs>
<clipPath id="clip0_1_6024">
<rect width="32" height="32" fill="white" transform="translate(0 0.00488281)"/>
</clipPath>
</defs>
</svg>
