<svg width="32" height="32" viewBox="0 0 32 32" fill="none" xmlns="http://www.w3.org/2000/svg">
<g clip-path="url(#clip0_1_6018)">
<path d="M16.0005 32.0049C24.837 32.0049 32.0005 24.8414 32.0005 16.0049C32.0005 7.16833 24.837 0.00488281 16.0005 0.00488281C7.16393 0.00488281 0.000488281 7.16833 0.000488281 16.0049C0.000488281 24.8414 7.16393 32.0049 16.0005 32.0049Z" fill="#00AAFF"/>
<path d="M16.0225 5.00488C9.93449 5.00488 5.00049 9.93888 5.00049 16.0269C5.00049 22.1139 9.93449 27.0499 16.0225 27.0499C22.1095 27.0499 27.0455 22.1139 27.0455 16.0269C27.0455 9.93888 22.1095 5.00488 16.0225 5.00488ZM16.0575 6.75088C16.9394 6.75061 17.8084 6.96333 18.5905 7.37095C19.3726 7.77857 20.0448 8.36904 20.5497 9.09215C21.0546 9.81525 21.3775 10.6496 21.4908 11.5243C21.6041 12.3989 21.5045 13.288 21.2005 14.1159C20.727 14.0327 20.2415 14.0458 19.7732 14.1544C19.3048 14.263 18.8631 14.4648 18.4745 14.7479C18.8144 14.4228 19.0849 14.0321 19.2695 13.5995C19.4541 13.1669 19.549 12.7013 19.5485 12.2309C19.5482 11.3043 19.1802 10.4157 18.5253 9.76019C17.8704 9.10471 16.9821 8.73594 16.0555 8.73488C15.1907 8.73558 14.3568 9.05688 13.7152 9.63668C13.0735 10.2165 12.6696 11.0136 12.5815 11.8739C11.9246 11.7565 11.2526 11.7498 10.5935 11.8539C10.6885 10.4694 11.3054 9.17256 12.3196 8.22536C13.3338 7.27815 14.6697 6.75117 16.0575 6.75088ZM18.0725 17.0429L16.1345 15.8829C16.0713 15.8448 15.9988 15.8249 15.9251 15.8254C15.8513 15.826 15.7791 15.8469 15.7165 15.8859L14.0165 16.9359C13.95 16.9764 13.8968 17.0355 13.8634 17.1058C13.83 17.1762 13.8179 17.2547 13.8285 17.3319C13.8732 17.6552 13.8495 17.9843 13.759 18.2979C13.6685 18.6115 13.5132 18.9026 13.3031 19.1524C13.093 19.4022 12.8328 19.6051 12.5393 19.748C12.2459 19.8909 11.9257 19.9705 11.5995 19.9819C11.2881 19.9917 10.9779 19.9387 10.6874 19.8262C10.3969 19.7136 10.1319 19.5438 9.9084 19.3268C9.68486 19.1098 9.50725 18.85 9.38615 18.563C9.26505 18.2759 9.20293 17.9674 9.20349 17.6559C9.207 17.0473 9.44785 16.4642 9.87479 16.0305C10.3017 15.5968 10.8811 15.3469 11.4895 15.3339C11.8236 15.3282 12.155 15.3948 12.461 15.5291C12.767 15.6634 13.0404 15.8622 13.2625 16.1119C13.3865 16.2519 13.5925 16.2819 13.7545 16.1919L15.3925 15.2729C15.4547 15.2377 15.5065 15.1867 15.5426 15.1251C15.5788 15.0634 15.5981 14.9933 15.5985 14.9219V14.8219C15.598 14.7374 15.571 14.6552 15.5213 14.5868C15.4716 14.5185 15.4017 14.4674 15.3215 14.4409C14.7888 14.2632 14.3383 13.8988 14.0533 13.4149C13.7682 12.9311 13.6679 12.3604 13.7708 11.8083C13.8736 11.2563 14.1727 10.76 14.6129 10.4113C15.053 10.0625 15.6045 9.88479 16.1655 9.91088C16.732 9.94011 17.2684 10.1747 17.6744 10.5708C18.0804 10.9669 18.3282 11.4973 18.3715 12.0629C18.4117 12.6049 18.2605 13.1439 17.9442 13.5859C17.6279 14.028 17.1665 14.345 16.6405 14.4819C16.5531 14.5034 16.4754 14.5535 16.4196 14.6241C16.3639 14.6947 16.3332 14.7819 16.3325 14.8719V14.8889C16.3325 15.0289 16.4065 15.1579 16.5245 15.2319L18.2455 16.2899C18.3283 16.3413 18.427 16.3608 18.5231 16.3446C18.6192 16.3284 18.7061 16.2776 18.7675 16.2019C18.9912 15.9227 19.2763 15.699 19.6007 15.5481C19.925 15.3972 20.2799 15.3232 20.6375 15.3319C21.2541 15.3556 21.8361 15.6233 22.2553 16.0761C22.6745 16.529 22.8967 17.1298 22.873 17.7464C22.8493 18.363 22.5815 18.945 22.1287 19.3642C21.6759 19.7834 21.0751 20.0056 20.4585 19.9819C20.1444 19.9647 19.837 19.8842 19.5549 19.7452C19.2727 19.6062 19.0216 19.4115 18.8166 19.1729C18.6117 18.9343 18.4571 18.6567 18.3622 18.3568C18.2673 18.0569 18.2341 17.741 18.2645 17.4279C18.2725 17.3521 18.2587 17.2756 18.2247 17.2074C18.1906 17.1392 18.1378 17.0821 18.0725 17.0429ZM11.5255 23.0759C10.8133 23.0761 10.1081 22.9361 9.45012 22.6637C8.79211 22.3913 8.19423 21.992 7.69062 21.4885C7.187 20.9849 6.78754 20.3871 6.51504 19.7292C6.24254 19.0712 6.10236 18.366 6.10249 17.6539C6.10197 16.8536 6.27864 16.0632 6.61982 15.3393C6.96099 14.6154 7.45821 13.976 8.07577 13.467C8.69334 12.9581 9.41593 12.5921 10.1917 12.3955C10.9674 12.1989 11.7771 12.1765 12.5625 12.3299C12.5885 13.2467 12.9743 14.1164 13.6365 14.7509C13.0247 14.3038 12.2862 14.0635 11.5285 14.0649C10.5869 14.0806 9.68913 14.4657 9.02879 15.1371C8.36846 15.8086 7.9984 16.7126 7.9984 17.6544C7.9984 18.5961 8.36846 19.5002 9.02879 20.1716C9.68913 20.8431 10.5869 21.2282 11.5285 21.2439C12.246 21.2438 12.947 21.0283 13.5406 20.6254C14.1343 20.2225 14.5934 19.6506 14.8585 18.9839C15.0295 19.7299 15.3455 20.4189 15.7715 21.0269C15.2643 21.6669 14.6189 22.1837 13.8836 22.5388C13.1482 22.8938 12.3421 23.0778 11.5255 23.0769V23.0759ZM20.5815 23.0759C19.2071 23.0758 17.8839 22.5539 16.8795 21.6158C15.8751 20.6776 15.2642 19.3931 15.1705 18.0219C15.7809 18.1148 16.4022 18.1111 17.0115 18.0109C17.0762 18.6599 17.3165 19.279 17.7066 19.8018C18.0966 20.3245 18.6218 20.7311 19.2255 20.9779C19.8293 21.2247 20.4889 21.3023 21.1334 21.2024C21.778 21.1026 22.3832 20.829 22.8839 20.4111C23.3847 19.9932 23.7622 19.4468 23.9758 18.8305C24.1894 18.2142 24.2311 17.5514 24.0964 16.9132C23.9616 16.275 23.6556 15.6856 23.2111 15.2083C22.7666 14.7309 22.2005 14.3837 21.5735 14.2039C21.7817 13.623 21.8958 13.0127 21.9115 12.3959C23.1914 12.7221 24.3083 13.5041 25.0527 14.5952C25.797 15.6863 26.1177 17.0115 25.9545 18.3222C25.7912 19.6329 25.1554 20.839 24.1661 21.7142C23.1769 22.5894 21.9023 23.0736 20.5815 23.0759Z" fill="white"/>
<path d="M16.0005 3.00488C8.82149 3.00488 3.00049 8.82588 3.00049 16.0049C3.00049 23.1839 8.82149 29.0049 16.0005 29.0049C23.1795 29.0049 29.0005 23.1839 29.0005 16.0049C29.0005 8.82588 23.1795 3.00488 16.0005 3.00488ZM15.9625 28.0269C9.30249 28.0269 3.90449 22.6289 3.90449 15.9689C3.90449 9.30888 9.30249 3.91188 15.9625 3.91188C22.6215 3.91188 28.0195 9.30988 28.0195 15.9689C28.0195 22.6289 22.6215 28.0269 15.9625 28.0269Z" fill="white"/>
</g>
<defs>
<clipPath id="clip0_1_6018">
<rect width="32" height="32" fill="white" transform="translate(0.000488281 0.00488281)"/>
</clipPath>
</defs>
</svg>
