<svg width="32" height="32" viewBox="0 0 32 32" fill="none" xmlns="http://www.w3.org/2000/svg">
<g clip-path="url(#clip0_1_6014)">
<path d="M16.0005 32.0049C24.837 32.0049 32.0005 24.8414 32.0005 16.0049C32.0005 7.16833 24.837 0.00488281 16.0005 0.00488281C7.16393 0.00488281 0.000488281 7.16833 0.000488281 16.0049C0.000488281 24.8414 7.16393 32.0049 16.0005 32.0049Z" fill="#EBA809"/>
<path fill-rule="evenodd" clip-rule="evenodd" d="M16.0005 27.0049C9.92549 27.0049 5.00049 22.0799 5.00049 16.0049C5.00049 9.92988 9.92549 5.00488 16.0005 5.00488C22.0755 5.00488 27.0005 9.92988 27.0005 16.0049C27.0005 22.0799 22.0755 27.0049 16.0005 27.0049ZM15.0125 6.74488C15.0145 7.61988 15.0145 8.49488 15.0145 9.36988L16.3245 9.37188C16.3275 8.47488 16.3295 7.57688 16.3245 6.67988C15.8875 6.69488 15.4485 6.71588 15.0125 6.74488ZM18.1645 9.41188C19.3165 9.56688 20.5545 9.74288 21.4715 10.5199C22.8725 11.7769 22.6915 14.4159 20.9765 15.3269C22.0035 15.5669 23.0205 16.2499 23.2735 17.3289C23.6035 18.7429 23.3415 20.4389 22.2045 21.4349C21.0785 22.3599 19.5545 22.4819 18.1615 22.6149C18.1675 23.4329 18.1655 24.2509 18.1635 25.0709C21.0935 24.3559 23.6235 22.1759 24.6985 19.3559C25.7185 16.7539 25.4785 13.6929 24.0365 11.2959C22.7635 9.13588 20.5995 7.54588 18.1695 6.93788C18.1635 7.76288 18.1635 8.58788 18.1655 9.41188H18.1645ZM9.41849 9.37688C10.6885 9.43688 11.9585 9.42488 13.2285 9.42288C13.2285 8.65088 13.2315 7.87888 13.2245 7.10688C11.8025 7.56788 10.5365 8.39488 9.41749 9.37688H9.41849ZM7.93649 11.3669C6.44349 13.9069 6.27549 17.1659 7.52049 19.8389C8.59549 22.2349 10.7285 24.0989 13.2255 24.9019C13.2305 24.1319 13.2285 23.3599 13.2285 22.5899C11.9535 22.5769 10.6755 22.6239 9.40349 22.5549C9.41749 21.8449 9.58349 21.1509 9.82649 20.4839C10.4505 20.4709 11.1015 20.5799 11.7045 20.3769C12.0565 20.0809 11.9565 19.5919 11.9745 19.1869C11.9565 16.8729 11.9845 14.5579 11.9625 12.2439C11.9855 11.8709 11.7515 11.4679 11.3625 11.3939C10.7225 11.2669 10.0655 11.3169 9.41849 11.3129C9.34249 10.7929 9.33449 10.2659 9.32549 9.73888C9.33593 9.68544 9.33501 9.63039 9.32277 9.57732C9.31054 9.52426 9.28727 9.47436 9.25449 9.43088C8.88849 10.1249 8.30649 10.6739 7.93649 11.3659V11.3669ZM15.0665 11.4679V14.8799C16.2075 14.8599 17.4725 14.9859 18.4705 14.3239C19.2985 13.7829 19.2455 12.4099 18.3905 11.9239C17.3925 11.3319 16.1745 11.4999 15.0675 11.4679H15.0665ZM15.0665 16.7159V20.5009C16.4745 20.3869 18.0545 20.6239 19.2795 19.7749C20.1555 19.1939 20.0505 17.7559 19.1475 17.2529C17.9205 16.5199 16.4295 16.7529 15.0675 16.7159H15.0665ZM15.0155 22.6409C15.0155 23.5159 15.0135 24.3909 15.0105 25.2679C15.4665 25.2979 15.9225 25.3159 16.3785 25.3279C16.3825 24.4329 16.3805 23.5369 16.3805 22.6409H15.0155Z" fill="white"/>
</g>
<defs>
<clipPath id="clip0_1_6014">
<rect width="32" height="32" fill="white" transform="translate(0.000488281 0.00488281)"/>
</clipPath>
</defs>
</svg>
