<svg width="32" height="32" viewBox="0 0 32 32" fill="none" xmlns="http://www.w3.org/2000/svg">
<g clip-path="url(#clip0_1_6010)">
<path d="M16.0005 32.0049C24.837 32.0049 32.0005 24.8414 32.0005 16.0049C32.0005 7.16833 24.837 0.00488281 16.0005 0.00488281C7.16393 0.00488281 0.000488281 7.16833 0.000488281 16.0049C0.000488281 24.8414 7.16393 32.0049 16.0005 32.0049Z" fill="#504C4C"/>
<path d="M10.8275 15.3809L9.08249 19.0789L9.89449 22.1109L11.9605 22.6629L14.5245 25.2299L13.7525 26.0049L7.64049 24.3649L6.00049 18.2529L7.23049 17.0249L12.5725 11.6819L10.8275 15.3809L9.08249 19.0789L14.5245 13.6369L12.5725 11.6819L10.8275 15.3809ZM13.6325 17.4809L19.0745 22.9229L22.1065 22.1109L22.6605 20.0449L25.2255 17.4809L26.0005 18.2529L24.3625 24.3669L18.2485 26.0049L11.6795 19.4329L13.6325 17.4809ZM18.3685 14.5289L12.9265 9.08688L9.89249 9.89888L9.34049 11.9619L6.77549 14.5289L6.00049 13.7569L7.64049 7.64288L13.7525 6.00488L14.9805 7.23488L20.3205 12.5749L18.3685 14.5289ZM20.0405 9.34488L17.4765 6.77988L18.2485 6.00488L24.3625 7.64288L26.0005 13.7569L19.4285 20.3259L17.4765 18.3729L22.9205 12.9289L22.1065 9.89688L20.0405 9.34488Z" fill="white"/>
</g>
<defs>
<clipPath id="clip0_1_6010">
<rect width="32" height="32" fill="white" transform="translate(0.000488281 0.00488281)"/>
</clipPath>
</defs>
</svg>
