<svg width="32" height="32" viewBox="0 0 32 32" fill="none" xmlns="http://www.w3.org/2000/svg">
<g clip-path="url(#clip0_1_6006)">
<path d="M16.0005 32.0049C24.837 32.0049 32.0005 24.8414 32.0005 16.0049C32.0005 7.16833 24.837 0.00488281 16.0005 0.00488281C7.16393 0.00488281 0.000488281 7.16833 0.000488281 16.0049C0.000488281 24.8414 7.16393 32.0049 16.0005 32.0049Z" fill="#35BAEB"/>
<path d="M9.00066 5.00488L15.2747 10.5699C15.3477 10.6369 15.4267 10.6929 15.4877 10.7649C15.4946 10.8075 15.4976 10.8507 15.4967 10.8939C15.4937 13.2909 15.5027 15.6859 15.4937 18.0799C15.1798 18.1445 14.879 18.2611 14.6037 18.4249L9.06066 12.8829C9.0393 12.8655 9.02268 12.843 9.01236 12.8175C9.00204 12.7919 8.99836 12.7642 9.00166 12.7369C9.00766 10.1589 9.00166 7.58288 9.00766 5.00688L9.00066 5.00488ZM16.4477 13.6119C17.967 13.7135 19.4113 14.3099 20.5597 15.3099C20.2327 15.6599 19.8797 15.9899 19.5417 16.3329C18.8277 17.0449 18.1187 17.7629 17.4017 18.4679C17.112 18.2789 16.7889 18.1472 16.4497 18.0799C16.4417 16.5929 16.4497 15.1029 16.4497 13.6119H16.4477ZM9.00366 14.2799C10.6317 15.8929 12.2497 17.5169 13.8747 19.1329C13.6847 19.4279 13.5487 19.7529 13.4727 20.0959H9.00066V14.2769L9.00366 14.2799ZM20.6097 16.6129C20.8227 16.4089 21.0177 16.1899 21.2427 15.9929C22.2427 17.1367 22.8399 18.577 22.9427 20.0929C21.4757 20.0989 20.0057 20.0929 18.5387 20.0959C18.4507 20.1159 18.4507 20.0139 18.4337 19.9589C18.3633 19.6693 18.2418 19.3946 18.0747 19.1479C18.9147 18.3019 19.7637 17.4589 20.6097 16.6159V16.6129ZM9.00066 21.0469H12.8217C13.0407 21.0469 13.2597 21.0369 13.4817 21.0519C13.5497 21.3899 13.6817 21.7119 13.8687 21.9999L10.7687 25.0919C10.7457 25.1099 10.7077 25.1649 10.6807 25.1219C9.69134 23.9831 9.10139 22.5521 9.00066 21.0469ZM18.4627 21.0519C19.0927 21.0379 19.7167 21.0519 20.3467 21.0469H22.9427C22.8445 22.5394 22.2628 23.9594 21.2857 25.0919L19.4777 23.2899C19.0257 22.8349 18.5647 22.3879 18.1177 21.9269C18.2847 21.6589 18.4017 21.3619 18.4627 21.0519ZM17.2087 22.7819C17.2787 22.7419 17.3487 22.6999 17.4187 22.6649L20.5747 25.8149C19.4248 26.8233 17.9739 27.4235 16.4477 27.5219V23.0589C16.7133 23.0055 16.9691 22.911 17.2057 22.7789L17.2087 22.7819ZM12.6177 24.5759C13.2597 23.9399 13.8947 23.2959 14.5427 22.6659C14.8327 22.8519 15.1557 22.9859 15.4927 23.0589V27.5219C13.9727 27.4227 12.5277 26.826 11.3807 25.8239C11.7837 25.4009 12.2067 24.9959 12.6177 24.5789V24.5759Z" fill="white"/>
</g>
<defs>
<clipPath id="clip0_1_6006">
<rect width="32" height="32" fill="white" transform="translate(0.000488281 0.00488281)"/>
</clipPath>
</defs>
</svg>
