<svg width="32" height="32" viewBox="0 0 32 32" fill="none" xmlns="http://www.w3.org/2000/svg">
<g clip-path="url(#clip0_1_5998)">
<path d="M16.0005 32.0049C24.837 32.0049 32.0005 24.8414 32.0005 16.0049C32.0005 7.16833 24.837 0.00488281 16.0005 0.00488281C7.16393 0.00488281 0.000488281 7.16833 0.000488281 16.0049C0.000488281 24.8414 7.16393 32.0049 16.0005 32.0049Z" fill="black"/>
<path d="M27.634 13.5444C27.4758 12.7762 27.242 12.0255 26.936 11.3034C26.6344 10.5921 26.2654 9.91133 25.834 9.27039C25.4062 8.63717 24.9183 8.04676 24.377 7.50739C23.8373 6.96603 23.2466 6.4781 22.613 6.05039C21.9711 5.62117 21.2909 5.25227 20.581 4.94839C19.113 4.32575 17.5346 4.00488 15.94 4.00488C14.3454 4.00488 12.767 4.32575 11.299 4.94839C9.87945 5.54716 8.59011 6.41668 7.503 7.50839C6.96174 8.04745 6.47381 8.63752 6.046 9.27039C5.61672 9.91261 5.24782 10.5932 4.944 11.3034C4.32136 12.7714 4.00049 14.3498 4.00049 15.9444C4.00049 17.539 4.32136 19.1173 4.944 20.5854C5.238 21.2954 5.618 21.9684 6.046 22.6174C6.47378 23.2509 6.96171 23.8416 7.503 24.3814C8.04269 24.9228 8.63343 25.4107 9.267 25.8384C9.903 26.2664 10.589 26.6344 11.299 26.9404C12.767 27.563 14.3454 27.8839 15.94 27.8839C17.5346 27.8839 19.113 27.563 20.581 26.9404C21.291 26.6464 21.964 26.2664 22.613 25.8384C23.2466 25.4107 23.8373 24.9228 24.377 24.3814C24.9184 23.8417 25.4063 23.251 25.834 22.6174C26.262 21.9814 26.63 21.2954 26.936 20.5854C27.878 18.3637 28.1215 15.9078 27.634 13.5444ZM15.951 26.3894C10.184 26.3894 5.519 21.7114 5.519 15.9564C5.519 10.2014 10.197 5.52339 15.951 5.52339C21.706 5.52339 26.384 10.2014 26.384 15.9564C26.384 21.7114 21.707 26.3894 15.951 26.3894Z" fill="white"/>
<path d="M16.5965 25.8909H16.8785C16.9275 25.8909 16.9755 25.8909 17.0245 25.8779H17.0375C17.0865 25.8779 17.1225 25.8779 17.1715 25.8659H17.2085C17.2455 25.8659 17.2825 25.8659 17.3185 25.8539H17.3555C17.3925 25.8539 17.4295 25.8419 17.4785 25.8419H17.5025C17.5515 25.8419 17.6005 25.8289 17.6495 25.8289C17.6985 25.8289 17.7355 25.8169 17.7845 25.8049H17.8085C17.8455 25.8049 17.8825 25.7929 17.9185 25.7929H17.9435C17.9925 25.7799 18.0295 25.7799 18.0785 25.7679C18.1755 25.7559 18.2735 25.7309 18.3595 25.7069H18.3845C18.4205 25.6949 18.4695 25.6949 18.5065 25.6819H18.5185C18.6165 25.6579 18.7025 25.6329 18.8005 25.6089C17.8833 25.638 16.9661 25.5516 16.0705 25.3519C14.7225 25.0579 13.4375 24.5319 12.3475 23.6249C11.4882 22.9098 10.7985 22.0126 10.3285 20.9983C9.85841 19.9839 9.61966 18.8778 9.62949 17.7599C9.63831 16.0921 10.2317 14.4802 11.3065 13.2049C12.7025 11.5519 14.6865 10.6819 16.7185 10.6329H17.0005V9.00488H16.6825C16.0643 9.01621 15.4489 9.08992 14.8455 9.22488C14.2383 9.36218 13.6474 9.5633 13.0825 9.82488C12.5065 10.0949 11.9675 10.4249 11.4655 10.8049C10.9467 11.1992 10.4744 11.6511 10.0575 12.1519C9.66495 12.6154 9.32426 13.1204 9.04149 13.6579C8.76174 14.1761 8.53589 14.7216 8.36749 15.2859C8.2023 15.8414 8.09177 16.4118 8.03749 16.9889L8.00049 17.5269V17.8449C8.01249 18.4699 8.08649 19.0819 8.22049 19.6819C8.35549 20.2949 8.56349 20.8819 8.82049 21.4459C9.12749 22.1189 9.67849 23.1109 10.4985 23.8579C12.1728 25.1778 14.2435 25.8941 16.3755 25.8909H16.5965Z" fill="white"/>
<path d="M19.1867 24.2169C18.5828 24.1953 17.9812 24.1298 17.3867 24.0209C14.8647 23.5679 12.6967 22.0249 11.9017 19.6989C10.9337 16.8699 12.4157 13.8089 15.2317 12.8789C15.7684 12.699 16.3308 12.6079 16.8967 12.6089C17.6197 12.6089 18.3417 12.7559 19.0037 13.0249L19.6887 11.5679C19.4827 11.4853 19.2747 11.4079 19.0647 11.3359C18.3632 11.1157 17.632 11.0041 16.8967 11.0049C16.16 11.0063 15.4284 11.1261 14.7297 11.3599C13.8381 11.654 13.0169 12.1293 12.3177 12.7559C11.9805 13.0563 11.6731 13.3885 11.3997 13.7479C11.1295 14.1032 10.8956 14.4848 10.7017 14.8869C10.3069 15.6953 10.0739 16.5731 10.0157 17.4709C9.95473 18.4009 10.0767 19.3309 10.3827 20.2129C10.6945 21.1202 11.1956 21.9509 11.8527 22.6499C12.4527 23.2989 13.1507 23.7889 13.9947 24.2419C14.8767 24.7069 15.9667 24.9519 17.1047 25.1119C17.8397 25.2089 18.8197 25.2339 19.3947 25.2339C19.8967 25.0499 20.1047 24.9639 20.3747 24.8539C20.6077 24.7439 20.8397 24.6339 21.0727 24.4989C21.3057 24.3639 21.3427 24.3389 21.7337 24.0829C21.7686 24.0612 21.8014 24.0365 21.8317 24.0089C20.4847 24.2419 20.1417 24.2289 19.1867 24.2169Z" fill="white"/>
<path d="M22.1405 22.3604C21.7605 22.3844 21.2215 22.4204 20.6095 22.4204C19.5195 22.4204 18.1845 22.3234 17.0465 21.9434C15.2825 21.3564 13.6175 19.8504 13.6175 17.9884C13.6171 17.5477 13.7036 17.1113 13.8721 16.704C14.0405 16.2968 14.2876 15.9268 14.5993 15.6152C14.9109 15.3036 15.2809 15.0564 15.6881 14.888C16.0953 14.7195 16.5318 14.633 16.9725 14.6334C18.2335 14.6334 19.3235 15.3314 19.8995 16.3474L21.3565 15.6254C21.128 15.1953 20.8346 14.803 20.4865 14.4624C20.0252 14.0004 19.4774 13.6338 18.8744 13.3837C18.2713 13.1336 17.6248 13.0049 16.972 13.0049C16.3191 13.0049 15.6727 13.1336 15.0696 13.3837C14.4666 13.6338 13.9187 14.0004 13.4575 14.4624C12.9956 14.9236 12.6292 15.4714 12.3792 16.0744C12.1292 16.6773 12.0005 17.3237 12.0005 17.9764C12.0038 18.6605 12.1502 19.3363 12.4305 19.9604C12.6865 20.5234 13.0425 21.0504 13.4955 21.5404C14.2915 22.3964 15.3805 23.0824 16.5445 23.4744C17.6585 23.8414 19.2995 23.9764 20.8915 23.8664C21.3315 23.8294 21.6625 23.7924 22.2255 23.6704C22.7688 23.2416 23.2619 22.7529 23.6955 22.2134C23.3155 22.2504 22.6175 22.3234 22.1405 22.3604Z" fill="white"/>
</g>
<defs>
<clipPath id="clip0_1_5998">
<rect width="32" height="32" fill="white" transform="translate(0.000488281 0.00488281)"/>
</clipPath>
</defs>
</svg>
