<svg width="32" height="32" viewBox="0 0 32 32" fill="none" xmlns="http://www.w3.org/2000/svg">
<g clip-path="url(#clip0_1_5994)">
<path d="M16.0005 32.0049C24.837 32.0049 32.0005 24.8414 32.0005 16.0049C32.0005 7.16833 24.837 0.00488281 16.0005 0.00488281C7.16393 0.00488281 0.000488281 7.16833 0.000488281 16.0049C0.000488281 24.8414 7.16393 32.0049 16.0005 32.0049Z" fill="#FB2EA3"/>
<path d="M23.0335 14.0249C22.8065 15.5599 21.9555 16.3029 20.8265 16.5629C22.3765 17.3699 23.1665 18.6089 22.4145 20.7549C21.4815 23.4209 19.2655 23.6449 16.3185 23.0879L15.6015 25.9549L13.8735 25.5239L14.5795 22.6959C14.1189 22.5815 13.6595 22.4622 13.2015 22.3379L12.4935 25.1799L10.7665 24.7499L11.4825 21.8769C11.0785 21.7739 10.6685 21.6639 10.2495 21.5589L8.00049 20.9989L8.85849 19.0189C8.85849 19.0189 10.1325 19.3589 10.1145 19.3329C10.6045 19.4539 10.8215 19.1349 10.9075 18.9229L12.0375 14.3909L12.2205 14.4359C12.1618 14.4129 12.1017 14.3939 12.0405 14.3789L12.8465 11.1439C12.8675 10.7759 12.7415 10.3139 12.0415 10.1379C12.0685 10.1199 10.7855 9.82588 10.7855 9.82588L11.2455 7.97988L13.6295 8.57488L13.6275 8.58488C13.9855 8.67288 14.3555 8.75788 14.7315 8.84388L15.4405 6.00488L17.1685 6.43488L16.4745 9.21888C16.9375 9.32488 17.4045 9.43088 17.8585 9.54488L18.5485 6.77988L20.2765 7.20988L19.5685 10.0499C21.7515 10.8019 23.3475 11.9289 23.0335 14.0249ZM19.0835 19.5629C19.6435 17.3249 15.8855 16.7459 14.7135 16.4529L13.7645 20.2579C14.9365 20.5489 18.5505 21.7099 19.0845 19.5629H19.0835ZM19.6185 13.9939C20.1265 11.9569 16.9845 11.5039 16.0085 11.2599L15.1485 14.7109C16.1235 14.9549 19.1315 15.9469 19.6185 13.9939ZM24.6485 21.6229C24.5647 21.6117 24.4795 21.6171 24.3978 21.6389C24.3161 21.6607 24.2396 21.6984 24.1725 21.7499C24.0425 21.8613 23.9544 22.0137 23.9225 22.1819C23.902 22.2754 23.8952 22.3714 23.9025 22.4669C23.9111 22.5757 23.9461 22.6807 24.0045 22.7729C24.0645 22.8729 24.1605 22.9669 24.2905 23.0549C24.4205 23.1419 24.6005 23.2119 24.8305 23.2649C24.9545 23.2949 25.0825 23.3089 25.2135 23.3079C25.3455 23.3079 25.4675 23.2869 25.5795 23.2449C25.6979 23.2031 25.8035 23.1312 25.8859 23.0364C25.9683 22.9416 26.0246 22.827 26.0495 22.7039C26.0731 22.6161 26.079 22.5245 26.067 22.4344C26.055 22.3443 26.0253 22.2574 25.9795 22.1789C25.8875 22.0249 25.7365 21.9069 25.5255 21.8249L25.6795 21.1589C26.0595 21.3119 26.3255 21.5309 26.4795 21.8139C26.6335 22.0979 26.6655 22.4349 26.5755 22.8249C26.5299 23.0412 26.4397 23.2455 26.3105 23.4249C26.1944 23.5831 26.0457 23.7144 25.8743 23.81C25.703 23.9056 25.5131 23.9632 25.3175 23.9789C25.1024 23.9983 24.8855 23.9825 24.6755 23.9319C24.4595 23.8837 24.2521 23.8027 24.0605 23.6919C23.8839 23.5907 23.7297 23.4546 23.6075 23.2919C23.4886 23.1302 23.4073 22.944 23.3695 22.7469C23.3291 22.5207 23.3377 22.2885 23.3945 22.0659C23.4328 21.8968 23.4944 21.734 23.5775 21.5819C23.6585 21.4339 23.7575 21.3089 23.8765 21.2069C23.9945 21.1049 24.1305 21.0309 24.2845 20.9849C24.4395 20.9379 24.6115 20.9289 24.8025 20.9559L24.6485 21.6229ZM27.3405 19.5099C27.2934 19.7322 27.2019 19.9427 27.0715 20.1289C26.9485 20.2989 26.8015 20.4329 26.6315 20.5319C26.4556 20.6318 26.2608 20.6938 26.0595 20.7139C25.8362 20.7362 25.6106 20.7207 25.3925 20.6679C25.1751 20.6199 24.9675 20.5354 24.7785 20.4179C24.6065 20.3116 24.4587 20.1706 24.3445 20.0039C24.2324 19.8364 24.1573 19.6468 24.1245 19.4479C24.0892 19.2238 24.0994 18.9949 24.1545 18.7749C24.2016 18.5526 24.2931 18.342 24.4235 18.1559C24.5475 17.9859 24.6935 17.8509 24.8645 17.7529C25.0404 17.653 25.2352 17.591 25.4365 17.5709C25.6465 17.5479 25.8665 17.5629 26.0965 17.6159C26.3157 17.6638 26.5253 17.7484 26.7165 17.8659C26.8965 17.9799 27.0405 18.1179 27.1505 18.2809C27.2605 18.4439 27.3335 18.6289 27.3705 18.8359C27.4059 19.0603 27.3957 19.2895 27.3405 19.5099ZM24.7165 16.7119L24.8615 16.0869L25.4455 16.2219L25.4485 16.2099C25.3669 16.1679 25.2945 16.1101 25.2355 16.0399C25.0998 15.8821 25.0099 15.6901 24.9755 15.4849C24.9587 15.3812 24.9621 15.2753 24.9855 15.1729C25.0036 15.0885 25.029 15.0058 25.0615 14.9259L25.7045 15.0739C25.6858 15.1198 25.6681 15.1662 25.6515 15.2129C25.6347 15.259 25.6207 15.3061 25.6095 15.3539C25.5819 15.4636 25.5794 15.5782 25.6022 15.689C25.6251 15.7998 25.6727 15.904 25.7415 15.9939C25.8194 16.0945 25.9158 16.1794 26.0255 16.2439C26.1445 16.3169 26.2875 16.3729 26.4555 16.4119L27.8935 16.7439L27.7395 17.4099L24.7165 16.7119ZM26.9965 14.5219C27.1125 14.5499 27.2295 14.5589 27.3465 14.5519C27.4576 14.5449 27.5663 14.5164 27.6665 14.4679C27.7659 14.4192 27.853 14.3488 27.9215 14.2619C27.9987 14.1601 28.0521 14.0421 28.0775 13.9169C28.1239 13.7525 28.118 13.5777 28.0605 13.4169C27.9955 13.2688 27.8852 13.1452 27.7455 13.0639L27.8905 12.4329C28.1074 12.5315 28.2928 12.6882 28.426 12.8857C28.5593 13.0833 28.6353 13.3138 28.6455 13.5519C28.6555 13.7119 28.6415 13.8739 28.6045 14.0379C28.5495 14.2759 28.4615 14.4779 28.3415 14.6429C28.2262 14.8049 28.0762 14.9392 27.9026 15.036C27.7289 15.1329 27.5359 15.1899 27.3375 15.2029C26.8994 15.2379 26.4615 15.1344 26.0855 14.9069C25.9136 14.7994 25.7636 14.6602 25.6435 14.4969C25.5265 14.3356 25.4445 14.1517 25.4025 13.9569C25.3575 13.7589 25.3625 13.5469 25.4135 13.3199C25.4612 13.0966 25.5632 12.8884 25.7105 12.7139C25.8485 12.5521 26.0202 12.4224 26.2135 12.3339C26.4112 12.2463 26.6243 12.1988 26.8405 12.1939C27.0665 12.1859 27.2885 12.2219 27.5085 12.3009L26.9955 14.5229L26.9965 14.5219ZM26.8145 19.3889C26.8475 19.2608 26.8475 19.1264 26.8146 18.9982C26.7818 18.8701 26.7171 18.7523 26.6265 18.6559C26.539 18.5605 26.4355 18.4813 26.3205 18.4219C26.0819 18.2963 25.815 18.2343 25.5455 18.2419C25.4162 18.2444 25.2884 18.2705 25.1685 18.3189C25.0454 18.3664 24.9362 18.4441 24.8511 18.545C24.7659 18.6458 24.7076 18.7665 24.6815 18.8959C24.6482 19.0235 24.6476 19.1575 24.6797 19.2854C24.7119 19.4134 24.7758 19.5312 24.8655 19.6279C24.9485 19.7219 25.0505 19.7989 25.1715 19.8619C25.4103 19.9869 25.677 20.0489 25.9465 20.0419C26.076 20.0387 26.204 20.0126 26.3245 19.9649C26.4481 19.9179 26.5578 19.8405 26.6434 19.7398C26.7291 19.6391 26.7879 19.5184 26.8145 19.3889ZM26.9165 12.8659C26.8105 12.8493 26.7027 12.8483 26.5965 12.8629C26.4953 12.8742 26.3974 12.9054 26.3084 12.9546C26.2193 13.0039 26.1408 13.0702 26.0775 13.1499C26.0119 13.2385 25.9648 13.3394 25.9391 13.4466C25.9133 13.5538 25.9094 13.6651 25.9275 13.7739C25.9475 13.8789 25.9845 13.9739 26.0405 14.0589C26.1639 14.2377 26.3473 14.3665 26.5575 14.4219L26.9165 12.8659Z" fill="white"/>
</g>
<defs>
<clipPath id="clip0_1_5994">
<rect width="32" height="32" fill="white" transform="translate(0.000488281 0.00488281)"/>
</clipPath>
</defs>
</svg>
