<svg width="32" height="32" viewBox="0 0 32 32" fill="none" xmlns="http://www.w3.org/2000/svg">
<g clip-path="url(#clip0_1_5990)">
<path d="M16.0005 32.0049C24.837 32.0049 32.0005 24.8414 32.0005 16.0049C32.0005 7.16833 24.837 0.00488281 16.0005 0.00488281C7.16393 0.00488281 0.000488281 7.16833 0.000488281 16.0049C0.000488281 24.8414 7.16393 32.0049 16.0005 32.0049Z" fill="#2D2D2D"/>
<path d="M11.7065 19.3009L4.00049 16.7749H9.15549L9.66549 14.3319L14.2435 14.3349L15.3855 8.00488H19.9915C23.1095 8.00488 24.3735 9.25988 23.9065 11.8499L23.8065 12.4049C23.5335 13.9139 22.8445 14.9169 21.6605 15.4959C22.8335 16.0959 23.2275 17.2309 22.9325 18.8659L22.7045 20.1319C22.2485 22.6579 20.3905 24.0049 17.3725 24.0049H12.4975L13.7605 17.0119H12.2305L11.7065 19.3009ZM16.7725 16.5539L15.8285 21.7839H17.7735C18.9275 21.7839 19.5685 21.2719 19.7865 20.0639L20.0315 18.7109C20.3095 17.1679 19.7755 16.5539 18.2625 16.5539H16.7725ZM17.9155 10.2249L17.0915 14.7889H18.5035C19.7915 14.7889 20.5445 14.2389 20.7755 12.9589L20.9325 12.0929C21.1575 10.8459 20.6915 10.2249 19.5105 10.2249H18.1005H17.9155Z" fill="white"/>
</g>
<defs>
<clipPath id="clip0_1_5990">
<rect width="32" height="32" fill="white" transform="translate(0.000488281 0.00488281)"/>
</clipPath>
</defs>
</svg>
