<svg width="32" height="32" viewBox="0 0 32 32" fill="none" xmlns="http://www.w3.org/2000/svg">
<g clip-path="url(#clip0_1_5986)">
<path d="M16.001 32.0049C24.8375 32.0049 32.001 24.8414 32.001 16.0049C32.001 7.16833 24.8375 0.00488281 16.001 0.00488281C7.16442 0.00488281 0.000976562 7.16833 0.000976562 16.0049C0.000976562 24.8414 7.16442 32.0049 16.001 32.0049Z" fill="#00AEEF"/>
<path d="M13.953 24.7159H8.26498L9.38098 18.4009L15.286 13.0819H10.264L14.325 10.5929H20.928L12.388 19.0229L11.814 22.2429C11.814 22.2429 13.721 22.3829 15.224 22.2429C16.728 22.0879 18.417 21.4659 18.417 21.4659L13.953 24.7159ZM22.897 11.1999L20.355 13.6889C20.355 13.6889 22.494 16.0689 20.525 19.3349C18.588 22.5389 12.155 21.9479 12.155 21.9479L12.651 19.1329L21.703 10.2979H14.201L14.961 6.00488H11.334L10.032 13.3459H14.651L9.16398 18.2929L8.00098 24.9499C8.00098 24.9499 12.388 25.0739 16.108 24.9499C19.843 24.8249 24.198 21.6209 24.834 17.9969C25.702 13.0969 22.897 11.1999 22.897 11.1999Z" fill="white"/>
</g>
<defs>
<clipPath id="clip0_1_5986">
<rect width="32" height="32" fill="white" transform="translate(0.000976562 0.00488281)"/>
</clipPath>
</defs>
</svg>
