<svg width="32" height="32" viewBox="0 0 32 32" fill="none" xmlns="http://www.w3.org/2000/svg">
<g clip-path="url(#clip0_1_5980)">
<path d="M16.001 32.0049C24.8375 32.0049 32.001 24.8414 32.001 16.0049C32.001 7.16833 24.8375 0.00488281 16.001 0.00488281C7.16442 0.00488281 0.000976562 7.16833 0.000976562 16.0049C0.000976562 24.8414 7.16442 32.0049 16.001 32.0049Z" fill="#FBB413"/>
<path d="M16.2286 21.8615C16.8923 21.8918 17.5547 21.7771 18.1696 21.5255C18.4136 21.4385 18.6466 21.3235 18.8646 21.1835C18.8839 21.1664 18.9066 21.1536 18.9312 21.146C18.9558 21.1384 18.9818 21.1361 19.0073 21.1393C19.0329 21.1425 19.0574 21.1512 19.0794 21.1646C19.1014 21.1781 19.1202 21.1961 19.1346 21.2175L20.7136 22.8425C20.8266 22.9605 20.8226 22.9985 20.6876 23.0915C20.1392 23.4674 19.5433 23.7691 18.9156 23.9885C18.1387 24.2541 17.3271 24.4044 16.5066 24.4345C15.462 24.4883 14.4165 24.3455 13.4246 24.0135C12.5706 23.7175 11.7764 23.2711 11.0796 22.6955C10.4503 22.1749 9.89755 21.5683 9.43761 20.8935C9.17784 20.5255 8.95351 20.1337 8.76761 19.7235C8.62723 19.399 8.50078 19.0687 8.38861 18.7335C8.20233 18.1182 8.08396 17.4845 8.03561 16.8435C7.98349 16.3728 7.99021 15.8975 8.05561 15.4285C8.10561 14.9645 8.18761 14.5045 8.30061 14.0515C8.48949 13.3591 8.76394 12.6929 9.11761 12.0685C9.87746 10.7535 10.9924 9.67909 12.3346 8.96846C12.8439 8.69236 13.3818 8.4724 13.9386 8.31246C14.3903 8.17722 14.8542 8.08679 15.3236 8.04246C15.6852 7.99707 16.0504 7.9887 16.4136 8.01746C16.4786 8.02146 16.5436 8.02146 16.6076 8.01746C17.2026 8.03268 17.793 8.12615 18.3636 8.29546C18.8506 8.42546 19.3216 8.60946 19.7656 8.84746C20.2346 9.07946 20.6756 9.36146 21.0836 9.68946C21.1636 9.76046 21.2266 9.72746 21.2896 9.65946L22.2626 8.63246L23.6646 7.14246C23.8286 6.96546 23.8706 6.96046 24.0476 7.12046C24.5876 7.60746 25.0876 8.13846 25.5376 8.70846C26.1095 9.41868 26.5971 10.1929 26.9906 11.0155C27.3056 11.6955 27.5646 12.3995 27.7656 13.1205C27.9346 13.7145 27.9886 14.3205 28.1196 14.9145C28.121 14.9258 28.121 14.9372 28.1196 14.9485C28.1196 15.4995 28.2416 16.0515 28.1826 16.6025C28.1156 17.2305 28.0816 17.8665 27.9506 18.4855C27.8396 19.0055 27.6986 19.5175 27.5306 20.0215C27.1173 21.272 26.4982 22.4448 25.6986 23.4915C25.5766 23.6515 25.5386 23.6555 25.3986 23.4915C24.9366 23.0235 24.4736 22.5485 24.0056 22.0855C23.9086 21.9885 23.9216 21.9125 24.0056 21.8075C24.4986 21.1164 24.898 20.3632 25.1936 19.5675C25.4586 18.8205 25.6406 18.0465 25.7366 17.2595C25.7946 16.6565 25.8066 16.0495 25.7746 15.4455C25.7604 15.1014 25.7193 14.7591 25.6516 14.4215C25.3965 13.0353 24.8355 11.7235 24.0096 10.5815C23.9216 10.4555 23.8116 10.3415 23.7316 10.2075C23.6516 10.0725 23.6436 10.1105 23.5676 10.1865C23.1216 10.6365 22.6626 11.0745 22.2286 11.5335C22.0776 11.6935 21.9046 11.8195 21.7616 11.9835C21.6186 12.1485 21.4456 12.3035 21.2856 12.4635L20.7976 12.9525C20.7216 13.0285 20.6626 12.9985 20.6116 12.9275C20.1984 12.3221 19.6671 11.8064 19.0496 11.4115C18.4529 11.0272 17.7838 10.7692 17.0836 10.6535C16.5373 10.5695 15.9819 10.5624 15.4336 10.6325C14.7596 10.7045 14.1068 10.9105 13.5136 11.2385C12.8768 11.5882 12.3178 12.0638 11.8706 12.6365C11.4814 13.1295 11.1809 13.6864 10.9826 14.2825C10.7594 14.9888 10.6583 15.7281 10.6836 16.4685C10.6746 17.7968 11.1679 19.0794 12.0646 20.0595C12.6033 20.6552 13.2639 21.1279 14.0016 21.4455C14.7016 21.7535 15.4646 21.8965 16.2286 21.8615Z" fill="white"/>
<path d="M25.038 23.7159L20.778 19.3789C20.685 19.2819 20.608 19.2789 20.533 19.3789C20.232 19.8178 19.8673 20.2094 19.451 20.5409C19.35 20.6209 19.35 20.6839 19.451 20.7769C19.834 21.1599 20.213 21.5519 20.592 21.9349C21.085 22.4359 21.577 22.9369 22.074 23.4379C22.162 23.5259 22.158 23.5679 22.074 23.6439C21.876 23.7919 21.682 23.9439 21.476 24.0649C20.3961 24.8103 19.1705 25.3185 17.88 25.5559C17.3785 25.6696 16.8662 25.7289 16.352 25.7329H16.146C15.782 25.7579 15.416 25.7469 15.056 25.6989C14.634 25.6359 14.238 25.5849 13.838 25.4969C13.3311 25.3814 12.8353 25.2221 12.356 25.0209C11.5418 24.6818 10.778 24.2326 10.086 23.6859C9.40254 23.1479 8.79267 22.5225 8.27197 21.8259C7.72307 21.096 7.28594 20.2885 6.97497 19.4299C6.63427 18.5891 6.44045 17.6962 6.40197 16.7899C6.3948 16.6943 6.3948 16.5984 6.40197 16.5029V15.5099C6.379 15.4027 6.379 15.292 6.40197 15.1849C6.40197 15.1049 6.43597 15.0299 6.44897 14.9499C6.49097 14.5769 6.55697 14.2069 6.64697 13.8419C6.76197 13.3519 6.91497 12.8719 7.10597 12.4059C7.95361 10.33 9.4953 8.6127 11.468 7.54685C12.6348 6.89912 13.9274 6.51031 15.258 6.40685H15.501C16.8862 6.31894 18.2738 6.53746 19.565 7.04685L19.927 7.19785C20.479 7.44259 21.0075 7.73714 21.506 8.07785C21.5239 8.09422 21.545 8.10665 21.568 8.11432C21.591 8.12199 21.6154 8.12473 21.6395 8.12237C21.6637 8.12002 21.6871 8.11261 21.7082 8.10063C21.7292 8.08865 21.7476 8.07238 21.762 8.05285C22.209 7.54285 22.68 7.05885 23.148 6.57085C23.236 6.47785 23.24 6.39385 23.148 6.31785C21.6046 5.19558 19.8164 4.45657 17.931 4.16185C17.3901 4.0759 16.8444 4.0238 16.297 4.00585C15.4489 3.99244 14.6019 4.07157 13.771 4.24185C13.2402 4.34733 12.7171 4.48797 12.205 4.66285C11.293 4.96785 10.423 5.38585 9.61497 5.90485C8.64497 6.52485 7.76797 7.27685 7.00897 8.14085C5.99522 9.29133 5.21323 10.6268 4.70597 12.0739C4.49397 12.6859 4.32597 13.3119 4.20497 13.9479C4.11197 14.5049 4.04897 15.0679 4.01497 15.6319C3.98064 16.2378 4.00879 16.8457 4.09897 17.4459C4.16497 18.0429 4.27897 18.6329 4.43997 19.2109C4.55397 19.6019 4.66797 19.9939 4.81497 20.3729C5.10897 21.1329 5.47797 21.8629 5.91797 22.5499C6.46532 23.395 7.11118 24.1721 7.84197 24.8649C8.31497 25.3009 8.82197 25.6979 9.35797 26.0529C10.076 26.5439 10.848 26.9529 11.658 27.2699C12.464 27.5899 13.305 27.8179 14.162 27.9519C14.805 28.0479 15.454 28.1039 16.104 28.1199C16.524 28.1199 16.946 28.0529 17.341 28.0439C17.641 28.0219 17.938 27.9769 18.23 27.9099C18.554 27.8549 18.874 27.7699 19.194 27.6859C20.3907 27.3728 21.5283 26.8664 22.562 26.1869C23.499 25.5869 24.349 24.8619 25.089 24.0319C25.211 23.8919 25.207 23.8679 25.039 23.7159H25.038Z" fill="white"/>
</g>
<defs>
<clipPath id="clip0_1_5980">
<rect width="32" height="32" fill="white" transform="translate(0.000976562 0.00488281)"/>
</clipPath>
</defs>
</svg>
