<svg width="32" height="32" viewBox="0 0 32 32" fill="none" xmlns="http://www.w3.org/2000/svg">
<g clip-path="url(#clip0_1_5974)">
<path d="M16.001 32.0049C24.8375 32.0049 32.001 24.8414 32.001 16.0049C32.001 7.16833 24.8375 0.00488281 16.001 0.00488281C7.16442 0.00488281 0.000976562 7.16833 0.000976562 16.0049C0.000976562 24.8414 7.16442 32.0049 16.001 32.0049Z" fill="#36B0F3"/>
<path fill-rule="evenodd" clip-rule="evenodd" d="M14.0395 4.2152C14.8395 4.0552 15.6545 3.9862 16.4695 4.0092C16.9775 4.0092 17.4855 4.0552 17.9865 4.1462C18.9615 4.2802 19.9015 4.5902 20.8185 4.9382C21.4855 5.2362 22.1845 5.5162 22.7265 6.0222C22.8775 6.1322 22.7965 6.3522 22.6625 6.4392C22.3525 6.6382 21.9795 6.6952 21.6255 6.7732C20.0295 7.0472 18.4055 7.1702 16.8375 7.5952C16.1345 7.7532 15.4585 8.0112 14.7895 8.2782C13.5465 8.8342 12.4035 9.6512 11.5765 10.7432C11.4185 10.9742 11.2664 11.2093 11.1205 11.4482C10.9895 11.7032 10.8575 11.9582 10.7505 12.2252C10.6705 12.4162 10.5965 12.6092 10.5265 12.8032C10.3855 13.2162 10.3165 13.6472 10.2115 14.0712C10.1785 14.3492 10.1595 14.6292 10.1015 14.9042C10.0645 15.5342 10.0825 16.1642 10.0875 16.7942C10.0875 17.0042 10.1445 17.2102 10.1475 17.4212C10.1505 17.6152 10.1775 17.8082 10.2295 17.9952C10.3295 18.5202 10.4515 19.0522 10.6745 19.5432C10.9635 20.2402 11.4135 20.8932 12.0535 21.3082C12.5845 21.7022 13.2415 21.8702 13.8855 21.9702C14.7455 22.0822 15.6185 21.9802 16.4655 21.8262C16.9085 21.7462 17.3485 21.6462 17.7855 21.5292C18.0625 21.4512 18.3475 21.3992 18.6215 21.3062C18.7266 21.2881 18.8329 21.278 18.9395 21.2762C18.5965 21.5822 18.2515 21.8862 17.8635 22.1332C16.5415 22.9852 15.0045 23.4292 13.4715 23.7152C12.7785 23.8572 12.0735 23.9412 11.3755 24.0612C10.5805 24.1762 9.75651 24.2712 9.03951 24.6612C8.82551 24.8112 8.65951 25.0152 8.51051 25.2272C8.46551 25.3192 8.38051 25.2272 8.33051 25.1942C8.16751 25.0072 7.95851 24.8702 7.78151 24.6972C7.59269 24.5154 7.40733 24.33 7.22551 24.1412C6.93451 23.8022 6.63551 23.4682 6.37851 23.1032C5.86651 22.4092 5.41351 21.6662 5.08151 20.8702L5.02351 20.8442C4.98151 20.6152 4.86551 20.4132 4.78851 20.1962C4.60693 19.7207 4.45989 19.2328 4.34851 18.7362C4.30453 18.5845 4.27013 18.4302 4.24551 18.2742C4.19178 18.0987 4.15955 17.9174 4.14951 17.7342C4.05151 17.3042 4.06951 16.8602 4.00751 16.4262C4.00751 16.0642 3.98351 15.6992 4.02751 15.3382C4.07551 15.0382 4.05551 14.7312 4.11751 14.4322C4.17851 14.1892 4.16651 13.9352 4.24351 13.6962C4.33958 13.1614 4.48006 12.6356 4.66351 12.1242C4.73551 11.9362 4.80051 11.7462 4.86751 11.5572C4.90751 11.4702 4.94051 11.3812 4.96751 11.2902L5.02051 11.2272C5.0846 11.0394 5.16734 10.8585 5.26751 10.6872C5.36709 10.4787 5.47552 10.2745 5.59251 10.0752C5.62651 10.0042 5.66451 9.9352 5.70451 9.8652C6.33451 8.8782 7.07051 7.9432 7.95651 7.1712C9.05561 6.19284 10.3177 5.41473 11.6855 4.8722C12.446 4.57326 13.2351 4.35311 14.0405 4.2152H14.0395Z" fill="white"/>
<path fill-rule="evenodd" clip-rule="evenodd" d="M22.7565 7.53688C22.9765 7.40888 23.1275 7.20188 23.2795 7.00488C24.4798 8.03114 25.4658 9.28417 26.181 10.6922C26.8962 12.1002 27.3265 13.6355 27.4473 15.2101C27.5681 16.7847 27.3769 18.3677 26.8848 19.8682C26.3927 21.3688 25.6093 22.7576 24.5795 23.9549C22.7425 26.1129 20.1045 27.5789 17.2935 27.9679C16.0005 28.1579 14.6835 28.1079 13.3915 27.9309C12.4015 27.7909 11.4335 27.5209 10.5145 27.1259C10.0145 26.9059 9.51752 26.6479 9.12652 26.2579C9.02552 26.1699 8.96152 26.0239 9.02852 25.8969C9.12852 25.7419 9.30852 25.6649 9.47852 25.6099C9.96352 25.4699 10.4625 25.3879 10.9615 25.3109C11.8635 25.1539 12.7745 25.0529 13.6695 24.8559C15.1565 24.5349 16.6435 24.0799 17.9295 23.2459C18.8035 22.6879 19.5735 21.9619 20.1405 21.0919C20.9545 19.8639 21.3305 18.3929 21.4205 16.9349C21.4655 15.8499 21.4405 14.7549 21.2135 13.6889C21.0065 12.7689 20.6435 11.8419 19.9565 11.1719C19.4315 10.6329 18.7165 10.2979 17.9785 10.1699C16.7535 9.94088 15.5025 10.1619 14.3025 10.4319C13.7405 10.5649 13.1865 10.7319 12.6185 10.8419C13.4265 10.0809 14.4155 9.53688 15.4545 9.16488C16.0515 8.94388 16.6715 8.79688 17.2885 8.65188C18.6405 8.34788 20.0245 8.23188 21.3885 7.99788C21.8645 7.89788 22.3485 7.80188 22.7565 7.53688Z" fill="white"/>
</g>
<defs>
<clipPath id="clip0_1_5974">
<rect width="32" height="32" fill="white" transform="translate(0.000976562 0.00488281)"/>
</clipPath>
</defs>
</svg>
