<svg width="32" height="32" viewBox="0 0 32 32" fill="none" xmlns="http://www.w3.org/2000/svg">
<g clip-path="url(#clip0_1_5970)">
<path d="M16 32.0063C24.8366 32.0063 32 24.8429 32 16.0063C32 7.16979 24.8366 0.00634766 16 0.00634766C7.16344 0.00634766 0 7.16979 0 16.0063C0 24.8429 7.16344 32.0063 16 32.0063Z" fill="#F70808"/>
<path d="M15.501 6.00635L13.841 9.02235C13.653 9.35035 13.316 9.32035 12.978 9.13735L11.778 8.53035L12.672 13.1633C12.861 14.0103 12.257 14.0103 11.959 13.6433L9.861 11.3563L9.521 12.5183C9.481 12.6713 9.309 12.8313 9.05 12.7933L6.4 12.2493L7.095 14.7173C7.245 15.2663 7.361 15.4933 6.945 15.6373L6 16.0713L10.563 19.6833C10.6537 19.7523 10.7219 19.8465 10.7589 19.9542C10.7959 20.062 10.8001 20.1782 10.771 20.2883L10.371 21.5663C11.943 21.3893 13.351 21.1243 14.923 20.9603C15.062 20.9463 15.294 21.1693 15.293 21.3263L15.086 26.0063H15.85L15.73 21.3363C15.729 21.1793 15.94 20.9463 16.078 20.9603C17.65 21.1243 19.058 21.3903 20.629 21.5663L20.23 20.2883C20.2007 20.1782 20.2049 20.0619 20.2419 19.9542C20.2789 19.8464 20.3472 19.7522 20.438 19.6833L25.001 16.0713L24.056 15.6383C23.64 15.4933 23.756 15.2663 23.906 14.7173L24.602 12.2493L21.951 12.7933C21.692 12.8313 21.519 12.6713 21.481 12.5183L21.14 11.3563L19.043 13.6443C18.745 14.0103 18.141 14.0103 18.33 13.1643L19.225 8.53035L18.024 9.13735C17.686 9.32035 17.349 9.35035 17.161 9.02235L15.501 6.00635Z" fill="white"/>
</g>
<defs>
<clipPath id="clip0_1_5970">
<rect width="32" height="32" fill="white" transform="translate(0 0.00634766)"/>
</clipPath>
</defs>
</svg>
