<svg width="32" height="32" viewBox="0 0 32 32" fill="none" xmlns="http://www.w3.org/2000/svg">
<g clip-path="url(#clip0_1_5966)">
<path d="M16 32.0063C24.8366 32.0063 32 24.8429 32 16.0063C32 7.16979 24.8366 0.00634766 16 0.00634766C7.16344 0.00634766 0 7.16979 0 16.0063C0 24.8429 7.16344 32.0063 16 32.0063Z" fill="#272731"/>
<path d="M27 16.0363C27 18.9463 25.855 21.7363 23.814 23.7943C22.8073 24.8114 21.609 25.619 20.2884 26.1703C18.9678 26.7216 17.5511 27.0057 16.12 27.0063V24.2043C20.068 24.2163 23.445 21.3473 24.104 17.4223H20.214C20.368 16.9663 20.447 16.4883 20.448 16.0063C20.4417 15.5253 20.3628 15.0479 20.214 14.5903H24.104C23.436 10.6703 20.064 7.80635 16.12 7.80835V5.00635C22.128 5.06435 26.975 9.97835 27 16.0363ZM19.746 18.3953H22.818C21.682 21.7003 18.346 23.6953 14.925 23.1153C11.505 22.5333 9 19.5473 9 16.0493C9 12.5513 11.505 9.56635 14.925 8.98535C18.346 8.40535 21.682 10.4003 22.818 13.7053H19.746C19.4002 13.1797 18.9527 12.7285 18.43 12.3783C17.9521 12.0709 17.4179 11.8613 16.8585 11.7616C16.299 11.6619 15.7254 11.6741 15.1707 11.7975C14.616 11.9209 14.0912 12.153 13.6268 12.4805C13.1624 12.808 12.7675 13.2243 12.465 13.7053C11.181 15.7323 11.77 18.4253 13.781 19.7203C14.2589 20.0278 14.7929 20.2375 15.3524 20.3373C15.9118 20.4371 16.4854 20.425 17.0401 20.3017C17.5948 20.1783 18.1196 19.9463 18.584 19.6189C19.0485 19.2915 19.4434 18.8753 19.746 18.3943V18.3953Z" fill="white"/>
</g>
<defs>
<clipPath id="clip0_1_5966">
<rect width="32" height="32" fill="white" transform="translate(0 0.00634766)"/>
</clipPath>
</defs>
</svg>
