<svg width="32" height="32" viewBox="0 0 32 32" fill="none" xmlns="http://www.w3.org/2000/svg">
<g clip-path="url(#clip0_1_5962)">
<path d="M16 32.0063C24.8366 32.0063 32 24.8429 32 16.0063C32 7.16979 24.8366 0.00634766 16 0.00634766C7.16344 0.00634766 0 7.16979 0 16.0063C0 24.8429 7.16344 32.0063 16 32.0063Z" fill="#3089F2"/>
<path d="M21.627 17.8843C21.205 18.2473 20.827 18.5703 20.453 18.8973C20.411 18.9343 20.369 19.0003 20.369 19.0533C20.363 19.6913 20.365 20.3283 20.365 20.9883C21.326 20.5823 21.828 19.3483 21.627 17.8843ZM20.469 13.9873C21.54 13.3493 21.667 13.1283 21.671 11.8623C21.671 11.7623 21.674 11.6633 21.67 11.5643C21.624 10.4013 20.828 9.37432 19.726 9.12832C18.736 8.90832 17.738 8.72532 16.738 8.55632C16.229 8.46932 15.708 8.39532 15.195 8.41232C14.574 8.43232 14.067 8.75832 13.6 9.29032C14.732 9.50132 15.783 9.71832 16.841 9.89032C18.294 10.1263 19.403 10.8553 20.009 12.2443C20.244 12.7833 20.319 13.3943 20.469 13.9873ZM11.646 10.9793C10.786 11.5133 10.362 12.2373 10.349 13.1373C10.3197 15.5672 10.3173 17.9974 10.342 20.4273C10.352 21.6043 11.129 22.6133 12.251 22.8873C13.211 23.1213 14.193 23.2653 15.165 23.4533C15.781 23.5733 16.391 23.7553 17.027 23.5973C17.547 23.4673 18.011 23.2483 18.377 22.7343C17.211 22.5153 16.116 22.2743 15.01 22.1103C13.117 21.8293 11.649 20.1523 11.647 18.2003C11.644 15.9683 11.646 13.7373 11.646 11.5053V10.9793ZM12.984 10.6283C12.972 10.8753 12.954 11.0593 12.954 11.2433C12.951 13.4893 12.951 15.7353 12.954 17.9813C12.957 19.4573 13.849 20.5173 15.266 20.7653C16.29 20.9453 17.31 21.1453 18.332 21.3353C18.403 21.3483 18.475 21.3553 18.547 21.3633C19.032 21.4173 19.049 21.4083 19.052 20.9223C19.057 20.1773 19.032 19.4323 19.067 18.6893C19.077 18.4693 19.188 18.1923 19.347 18.0513C20.158 17.3283 21 16.6413 21.831 15.9413C22.057 15.7513 22.289 15.6213 22.593 15.7683C22.914 15.9233 22.998 16.1913 22.993 16.5283C22.981 17.3723 22.999 18.2173 22.973 19.0593C22.924 20.5813 21.82 22.0793 20.403 22.5593C20.283 22.5962 20.1715 22.6568 20.0753 22.7375C19.9791 22.8182 19.9001 22.9175 19.843 23.0293C18.97 24.5793 17.474 25.1773 15.871 24.9653C14.557 24.7903 13.253 24.5133 11.955 24.2353C10.283 23.8773 9.04801 22.3213 9.02101 20.4593C8.98501 17.9533 8.99701 15.4463 9.04001 12.9413C9.06601 11.3753 10.23 9.92132 11.706 9.44132C11.8702 9.38055 12.0091 9.26601 12.1 9.11632C13.09 7.39832 14.698 6.70132 16.609 7.12932C17.669 7.36632 18.748 7.52232 19.814 7.73932C21.706 8.12532 22.97 9.68732 22.995 11.6533C23.002 12.2123 23.006 12.7713 22.975 13.3283C22.966 13.5053 22.888 13.7313 22.762 13.8423C21.855 14.6423 20.937 15.4303 19.996 16.1883C19.851 16.3053 19.526 16.3323 19.364 16.2453C19.205 16.1593 19.071 15.8803 19.06 15.6783C19.021 15.0113 19.095 14.3343 19.03 13.6713C18.9 12.3423 17.995 11.4643 16.631 11.2373C15.547 11.0573 14.465 10.8623 13.382 10.6763C13.266 10.6563 13.148 10.6473 12.984 10.6283Z" fill="white"/>
</g>
<defs>
<clipPath id="clip0_1_5962">
<rect width="32" height="32" fill="white" transform="translate(0 0.00634766)"/>
</clipPath>
</defs>
</svg>
