<svg width="32" height="32" viewBox="0 0 32 32" fill="none" xmlns="http://www.w3.org/2000/svg">
<g clip-path="url(#clip0_1_5956)">
<path d="M16 32.0063C24.8366 32.0063 32 24.8429 32 16.0063C32 7.16979 24.8366 0.00634766 16 0.00634766C7.16344 0.00634766 0 7.16979 0 16.0063C0 24.8429 7.16344 32.0063 16 32.0063Z" fill="#00ACED"/>
<path fill-rule="evenodd" clip-rule="evenodd" d="M6 10.0063V14.0823L15.895 19.7973L22.315 16.0823V19.3973L25.771 21.4353V10.0063L15.886 15.7213L6 10.0063Z" fill="white"/>
<path opacity="0.7" fill-rule="evenodd" clip-rule="evenodd" d="M15.886 4.00635L6 9.72035V21.1493L15.886 26.8633L25.743 21.1493L22.248 19.1113L15.886 22.7873L9.496 19.1113V11.7583L15.886 8.08235L22.248 11.7583L25.743 9.72035L15.886 4.00635Z" fill="white"/>
</g>
<defs>
<clipPath id="clip0_1_5956">
<rect width="32" height="32" fill="white" transform="translate(0 0.00634766)"/>
</clipPath>
</defs>
</svg>
