<svg width="32" height="32" viewBox="0 0 32 32" fill="none" xmlns="http://www.w3.org/2000/svg">
<g clip-path="url(#clip0_1_5952)">
<path d="M16 32.0063C24.8366 32.0063 32 24.8429 32 16.0063C32 7.16979 24.8366 0.00634766 16 0.00634766C7.16344 0.00634766 0 7.16979 0 16.0063C0 24.8429 7.16344 32.0063 16 32.0063Z" fill="#1C98F7"/>
<path fill-rule="evenodd" clip-rule="evenodd" d="M16.28 23.8313C16.9837 23.7824 17.6813 23.6686 18.364 23.4913C19.2065 23.7484 20.0972 23.8066 20.966 23.6613C21.0004 23.6558 21.0352 23.6531 21.07 23.6533C21.38 23.6533 21.787 23.8333 22.38 24.2133V23.5883C22.3801 23.4802 22.409 23.3741 22.4636 23.2808C22.5183 23.1875 22.5968 23.1103 22.691 23.0573C22.949 22.9113 23.189 22.7433 23.408 22.5583C24.272 21.8263 24.76 20.8503 24.76 19.8163C24.76 19.4693 24.705 19.1323 24.601 18.8103C24.862 18.3233 25.073 17.8113 25.228 17.2803C25.7292 18.0314 25.9977 18.9135 26 19.8163C26 21.2213 25.346 22.5313 24.215 23.4893C24.0262 23.6491 23.8275 23.7968 23.62 23.9313V25.3923C23.62 25.8953 23.04 26.1843 22.631 25.8853C22.2442 25.5962 21.8438 25.3259 21.431 25.0753C21.3128 25.0046 21.1898 24.9421 21.063 24.8883C20.723 24.9393 20.375 24.9653 20.024 24.9653C18.612 24.9653 17.308 24.5423 16.281 23.8313H16.28ZM8.814 20.9093C7.03 19.3963 6 17.3353 6 15.1263C6 10.6133 10.258 7.00635 15.457 7.00635C20.657 7.00635 24.915 10.6133 24.915 15.1263C24.915 19.6403 20.656 23.2473 15.457 23.2473C14.873 23.2473 14.295 23.2023 13.729 23.1123C13.484 23.1703 12.505 23.7523 11.094 24.7823C10.583 25.1563 9.858 24.7953 9.858 24.1663V21.6743C9.4926 21.444 9.14375 21.1884 8.814 20.9093ZM13.763 21.5753C13.806 21.5753 13.85 21.5783 13.893 21.5853C14.403 21.6713 14.927 21.7153 15.457 21.7153C19.849 21.7153 23.364 18.7373 23.364 15.1263C23.364 11.5163 19.849 8.53835 15.457 8.53835C11.067 8.53835 7.55 11.5163 7.55 15.1263C7.55 16.8723 8.371 18.5163 9.823 19.7463C10.188 20.0543 10.589 20.3343 11.019 20.5783C11.26 20.7143 11.409 20.9683 11.409 21.2423V22.6793C12.525 21.9303 13.259 21.5753 13.763 21.5753ZM11.426 16.6593C10.741 16.6593 10.186 16.1093 10.186 15.4333C10.186 14.7563 10.741 14.2073 11.426 14.2073C12.111 14.2073 12.666 14.7563 12.666 15.4333C12.666 16.1103 12.111 16.6593 11.426 16.6593ZM15.457 16.6593C14.772 16.6593 14.217 16.1093 14.217 15.4333C14.217 14.7563 14.772 14.2073 15.457 14.2073C16.142 14.2073 16.697 14.7563 16.697 15.4333C16.697 16.1103 16.142 16.6593 15.457 16.6593ZM19.488 16.6593C18.803 16.6593 18.248 16.1093 18.248 15.4333C18.248 14.7563 18.803 14.2073 19.488 14.2073C20.173 14.2073 20.728 14.7563 20.728 15.4333C20.728 16.1103 20.173 16.6593 19.488 16.6593Z" fill="white"/>
</g>
<defs>
<clipPath id="clip0_1_5952">
<rect width="32" height="32" fill="white" transform="translate(0 0.00634766)"/>
</clipPath>
</defs>
</svg>
