<svg width="32" height="32" viewBox="0 0 32 32" fill="none" xmlns="http://www.w3.org/2000/svg">
<g clip-path="url(#clip0_1_5948)">
<path d="M16 32.0063C24.8366 32.0063 32 24.8429 32 16.0063C32 7.16979 24.8366 0.00634766 16 0.00634766C7.16344 0.00634766 0 7.16979 0 16.0063C0 24.8429 7.16344 32.0063 16 32.0063Z" fill="#598182"/>
<path fill-rule="evenodd" clip-rule="evenodd" d="M13.548 25.4143C14.3934 24.322 15.2387 23.2297 16.084 22.1373C17.033 22.2853 17.968 22.2013 18.862 21.8133C19.185 21.6733 19.474 21.4553 19.778 21.2713C19.821 21.2453 19.861 21.2113 19.894 21.1863L22.966 24.2243C22.711 24.3943 22.458 24.5783 22.189 24.7363C21.1482 25.3397 20.001 25.7369 18.81 25.9063C18.1072 26.0049 17.3962 26.0317 16.688 25.9863C15.6204 25.9373 14.5643 25.7449 13.548 25.4143ZM12.582 25.0383C12.2407 24.8858 11.9081 24.7142 11.586 24.5243C9.93979 23.5704 8.64029 22.1167 7.87601 20.3743C7.4726 19.4656 7.20734 18.5016 7.08901 17.5143C6.99615 16.7486 6.9754 15.9759 7.02701 15.2063C7.15001 13.2313 7.75101 11.4163 8.96201 9.81934C10.08 8.34534 11.548 7.33634 13.285 6.68934C14.1091 6.37658 14.9721 6.17808 15.85 6.09934C16.513 6.04234 17.183 5.98534 17.846 6.01434C18.256 6.03134 18.659 6.07134 19.056 6.13434C18.1987 7.37901 17.3413 8.62367 16.484 9.86834C15.6263 9.94022 14.799 10.2203 14.074 10.6843C12.744 11.5283 11.948 12.7443 11.574 14.2443C11.4153 14.8764 11.3427 15.5269 11.358 16.1783C11.367 16.5203 11.396 16.8553 11.447 17.1823L11.139 17.6293C10.891 17.9893 11.196 18.4653 11.637 18.4073L11.749 18.3933C12.007 19.1223 12.398 19.8033 12.939 20.4283C13.275 20.8143 13.65 21.1383 14.063 21.3983L12.618 24.8893C12.5982 24.9371 12.586 24.9878 12.582 25.0393V25.0383ZM20.025 6.34034C20.9153 6.57754 21.7591 6.96329 22.521 7.48134C22.659 7.57534 22.785 7.68634 22.917 7.78934C22.942 7.80834 22.968 7.82534 23 7.84734C22.958 7.89534 22.934 7.92734 22.905 7.95534C21.994 8.85334 21.081 9.74834 20.173 10.6493C20.073 10.7493 20.01 10.7653 19.889 10.6793C19.5225 10.4188 19.1172 10.2177 18.688 10.0833L19.971 6.70834L20.005 6.62134C20.0392 6.53168 20.0461 6.43394 20.025 6.34034ZM16.321 17.2883L11.568 17.9093L19.476 6.42634L19.52 6.44634L16.465 14.4773L22.04 13.5973L13.141 25.1073L13.098 25.0773L16.321 17.2883Z" fill="white"/>
</g>
<defs>
<clipPath id="clip0_1_5948">
<rect width="32" height="32" fill="white" transform="translate(0 0.00634766)"/>
</clipPath>
</defs>
</svg>
