<svg width="32" height="32" viewBox="0 0 32 32" fill="none" xmlns="http://www.w3.org/2000/svg">
<g clip-path="url(#clip0_1_5077)">
<path d="M16.0005 32.0063C24.837 32.0063 32.0005 24.8429 32.0005 16.0063C32.0005 7.16979 24.837 0.00634766 16.0005 0.00634766C7.16393 0.00634766 0.000488281 7.16979 0.000488281 16.0063C0.000488281 24.8429 7.16393 32.0063 16.0005 32.0063Z" fill="#0576B4"/>
<path d="M24.4995 19.2253L23.4405 18.5623L25.7505 18.5353L25.7985 18.5093V18.5343L26.7525 18.5243L25.1335 21.1583L24.9885 19.8883L17.6245 23.9513L14.8315 20.2223L7.0015 24.3483V23.4083L15.0745 19.1553L17.8665 22.8843L24.5005 19.2253H24.4995ZM14.3875 18.3203L11.3275 19.9313V9.00635H14.3875V18.3203ZM23.0405 18.8013L19.9805 20.5013V9.00635H23.0405V18.8013Z" fill="white"/>
<path opacity="0.5" d="M18.7145 20.9553L18.0575 21.3193L15.6535 18.1093V10.0063H18.7135V20.9553H18.7145ZM10.0605 20.3483L7.00049 21.9603V11.4243H10.0605V20.3483Z" fill="white"/>
</g>
<defs>
<clipPath id="clip0_1_5077">
<rect width="32" height="32" fill="white" transform="translate(0.000488281 0.00634766)"/>
</clipPath>
</defs>
</svg>
