<svg width="32" height="32" viewBox="0 0 32 32" fill="none" xmlns="http://www.w3.org/2000/svg">
<g clip-path="url(#clip0_1_5073)">
<path d="M16.0005 32.0063C24.837 32.0063 32.0005 24.8429 32.0005 16.0063C32.0005 7.16979 24.837 0.00634766 16.0005 0.00634766C7.16393 0.00634766 0.000488281 7.16979 0.000488281 16.0063C0.000488281 24.8429 7.16393 32.0063 16.0005 32.0063Z" fill="#20C5D3"/>
<path d="M17.8105 7.87635V7.78735C17.9875 7.71235 18.3385 7.64135 18.9425 7.80335C19.6335 7.98935 20.1675 8.68335 20.4125 9.05735L20.4105 9.29735C20.3985 10.6363 19.9725 13.9443 19.2345 16.4243C18.5895 18.5913 17.1825 21.4743 16.8965 22.0503C16.756 22.0194 16.6137 21.997 16.4705 21.9833C16.5895 21.2523 17.1085 17.9963 17.4355 15.0293C17.7825 11.8813 17.8095 8.75935 17.8095 7.87735L17.8105 7.87635ZM20.7095 9.30035V9.28935C20.9695 9.28335 21.5455 9.33035 22.2025 9.75335C22.8385 10.1623 23.1665 10.9403 23.3025 11.3583L23.2395 11.6053C23.0845 12.2073 21.9365 15.3103 20.7015 17.6493C19.6535 19.6313 17.9805 21.8243 17.6155 22.2943C17.4779 22.2288 17.3359 22.173 17.1905 22.1273C17.5305 21.4403 18.8875 18.6363 19.5205 16.5073C20.2665 14.0013 20.6965 10.6553 20.7095 9.30035ZM20.9665 17.7843C22.1425 15.5573 23.3305 12.4323 23.5265 11.6873C23.7855 11.7813 24.3415 12.0303 24.7035 12.5243C25.0135 12.9463 25.1145 13.5173 25.1475 13.8763L25.0265 14.1583C24.7925 14.7013 23.3665 17.2033 21.9295 18.9863C20.6855 20.5303 18.8165 22.3623 18.3685 22.7963C18.2177 22.661 18.0543 22.5405 17.8805 22.4363C18.3015 21.8923 19.9335 19.7393 20.9665 17.7843ZM11.0055 9.53235L10.9705 9.25835C11.1335 8.90335 11.4935 8.31135 12.1825 7.99635C12.9325 7.65435 13.5155 7.74735 13.7765 7.82335L13.7785 7.88235C13.7985 8.47735 13.9555 11.4063 14.3385 14.8633C14.6905 18.0263 15.2575 21.3903 15.3665 22.0293C15.2165 22.0563 15.0695 22.0933 14.9255 22.1393C14.6475 21.5493 13.4095 18.8693 12.5775 16.1843C11.6495 13.1893 11.1175 10.4093 11.0055 9.53235ZM14.0765 7.87235L14.0725 7.73535C14.3465 7.48935 14.9845 7.00635 15.7825 7.00635C16.5785 7.00635 17.2305 7.48935 17.5115 7.73635V7.87635C17.5115 8.75535 17.4845 11.8643 17.1385 14.9963C16.8075 18.0003 16.2785 21.3033 16.1705 21.9673L16.0925 21.9653C15.9485 21.9653 15.8055 21.9733 15.6625 21.9873C15.5565 21.3723 14.9875 18.0003 14.6355 14.8313C14.2535 11.3833 14.0975 8.46435 14.0765 7.87135V7.87235ZM16.0925 22.2593C17.7095 22.2593 18.4545 23.2403 18.6795 23.6143C17.4545 24.4743 16.4575 25.0063 16.1055 25.0063C15.7535 25.0063 14.8785 24.5663 13.5025 23.5713C13.7225 23.2163 14.4645 22.2593 16.0925 22.2593ZM25.2935 14.2913C25.5395 14.4513 26.0445 14.8823 25.9975 15.7113C25.9355 16.8033 24.0625 18.9673 21.7105 21.1563C20.8286 21.9755 19.8968 22.7393 18.9205 23.4433C18.8203 23.2871 18.7061 23.1401 18.5795 23.0043C19.0355 22.5633 20.9115 20.7243 22.1635 19.1693C23.6035 17.3833 25.0365 14.8743 25.2935 14.2913ZM6.82049 14.0793C6.74766 13.8985 6.67865 13.7161 6.61349 13.5323C6.61222 13.2084 6.69124 12.8893 6.84349 12.6033C7.18549 11.9833 8.05349 11.6993 8.39749 11.6083L8.39949 11.6143L8.43649 11.7443C8.68649 12.6153 9.27049 14.6563 10.8085 17.6063C12.1815 20.2393 13.6735 22.0593 14.0915 22.5463C13.9795 22.6229 13.8726 22.7068 13.7715 22.7973C12.3604 21.5755 11.053 20.239 9.86249 18.8013C8.38049 17.0093 7.35749 15.4213 6.82049 14.0793ZM13.5605 23.0073C13.4505 23.1273 13.3505 23.2573 13.2605 23.3953C12.3935 22.7487 11.5496 22.0717 10.7305 21.3653C7.71849 18.7903 6.07049 16.9993 6.00449 15.8683C5.95449 15.0053 6.39249 14.5183 6.60449 14.3353C7.16649 15.6723 8.18249 17.2353 9.63049 18.9873C10.828 20.4326 12.1424 21.7768 13.5605 23.0063V23.0073ZM8.68749 11.5333C8.65495 11.4222 8.62427 11.3105 8.59549 11.1983C8.67249 10.8323 8.86249 10.2843 9.32749 9.94635C9.72673 9.65664 10.2128 9.51167 10.7055 9.53535L10.7105 9.56935C10.8235 10.4543 11.3585 13.2573 12.2925 16.2693C13.1205 18.9403 14.3455 21.6063 14.6455 22.2443C14.5437 22.2871 14.4443 22.3352 14.3475 22.3883C13.9825 21.9663 12.4685 20.1453 11.0755 17.4723C9.55049 14.5483 8.97249 12.5273 8.72549 11.6643L8.68749 11.5333Z" fill="white"/>
</g>
<defs>
<clipPath id="clip0_1_5073">
<rect width="32" height="32" fill="white" transform="translate(0.000488281 0.00634766)"/>
</clipPath>
</defs>
</svg>
