<svg width="32" height="32" viewBox="0 0 32 32" fill="none" xmlns="http://www.w3.org/2000/svg">
<g clip-path="url(#clip0_1_5069)">
<path d="M16.0005 32.0063C24.837 32.0063 32.0005 24.8429 32.0005 16.0063C32.0005 7.16979 24.837 0.00634766 16.0005 0.00634766C7.16393 0.00634766 0.000488281 7.16979 0.000488281 16.0063C0.000488281 24.8429 7.16393 32.0063 16.0005 32.0063Z" fill="#FF3A00"/>
<path d="M16.0035 5.00635C22.0705 5.01635 27.0025 9.95235 27.0005 16.0093C26.9985 22.0733 22.0625 27.0063 15.9965 27.0063H15.9865C9.92649 27.0003 4.99749 22.0593 5.00049 15.9923C5.00349 9.93635 9.94049 5.00635 16.0035 5.00635ZM16.0005 6.42435C10.7235 6.42435 6.42849 10.7223 6.42649 16.0043C6.42549 21.2803 10.7145 25.5763 15.9885 25.5803C21.2715 25.5803 25.5735 21.2843 25.5775 16.0043C25.5812 14.7464 25.3352 13.5003 24.8537 12.3381C24.3722 11.176 23.6648 10.121 22.7725 9.23435C21.886 8.34149 20.8311 7.63338 19.669 7.15104C18.5069 6.66869 17.2607 6.42169 16.0025 6.42435H16.0005ZM20.7285 15.0233C21.0675 16.7423 20.6315 18.1863 19.3965 19.4403L19.2265 19.6113L19.0105 19.5053C18.8909 19.4469 18.7695 19.3922 18.6465 19.3413L18.1575 19.1373L18.5515 18.7833C19.3205 18.0933 19.7295 17.1923 19.7685 16.1063C19.8085 15.0203 19.4235 14.0733 18.6255 13.2923C17.926 12.6061 16.9844 12.2231 16.0045 12.2263C15.4689 12.2259 14.9395 12.3398 14.4514 12.5604C13.9634 12.7809 13.5281 13.1031 13.1745 13.5053C12.3765 14.4153 12.0715 15.5233 12.2945 16.7083C12.4323 17.4923 12.8237 18.2093 13.4085 18.7493L13.7955 19.1083L13.3065 19.3053C13.1845 19.3543 13.0565 19.4073 12.9195 19.4653L12.7095 19.5533L12.5495 19.3903C11.7265 18.5423 11.2805 17.5663 11.1875 16.4063C10.9905 13.9613 12.5755 11.8073 14.9575 11.2853C15.3089 11.2076 15.6676 11.168 16.0275 11.1673C17.1357 11.1684 18.2094 11.5531 19.0661 12.256C19.9229 12.9589 20.5099 13.9367 20.7275 15.0233H20.7285ZM9.97349 21.3133C8.49749 19.6673 7.30049 16.7473 8.37049 13.4893C8.89924 11.8842 9.92082 10.4867 11.2898 9.49586C12.6588 8.50497 14.3055 7.97114 15.9955 7.97035C17.6711 7.9684 19.3054 8.49083 20.6692 9.46441C22.033 10.438 23.058 11.8139 23.6005 13.3993C24.5465 16.1713 23.8885 19.3233 21.9255 21.4293L21.6755 21.6963L20.7785 20.6943L20.9765 20.4713C22.2045 19.0883 22.7745 17.4483 22.6715 15.5983C22.5755 13.9083 21.9035 12.4363 20.6735 11.2243C19.4315 9.99588 17.7534 9.30947 16.0065 9.31535C14.4019 9.31605 12.8509 9.89267 11.6355 10.9403C10.6938 11.7438 9.99753 12.7964 9.62649 13.9773C9.24951 15.1512 9.20794 16.4071 9.50649 17.6033C9.75484 18.6277 10.2452 19.5776 10.9365 20.3733L11.1325 20.6003L10.2165 21.5863L9.97349 21.3133Z" fill="white"/>
</g>
<defs>
<clipPath id="clip0_1_5069">
<rect width="32" height="32" fill="white" transform="translate(0.000488281 0.00634766)"/>
</clipPath>
</defs>
</svg>
