<svg width="32" height="32" viewBox="0 0 32 32" fill="none" xmlns="http://www.w3.org/2000/svg">
<g clip-path="url(#clip0_1_5065)">
<path d="M16.0005 32.0063C24.837 32.0063 32.0005 24.8429 32.0005 16.0063C32.0005 7.16979 24.837 0.00634766 16.0005 0.00634766C7.16393 0.00634766 0.000488281 7.16979 0.000488281 16.0063C0.000488281 24.8429 7.16393 32.0063 16.0005 32.0063Z" fill="#2FD2E5"/>
<path d="M16.2199 4.01346C13.5179 3.91959 10.8657 4.7574 8.7079 6.38646C8.4987 6.5437 8.32708 6.7455 8.20547 6.97724C8.08386 7.20898 8.01531 7.46487 8.00478 7.72636C7.99425 7.98786 8.04201 8.24843 8.14459 8.4892C8.24717 8.72997 8.40202 8.94491 8.5979 9.11846C9.2199 9.70646 10.1779 9.75246 10.8539 9.22746C12.5092 7.93925 14.5871 7.31811 16.6778 7.48657C18.7685 7.65502 20.7202 8.60084 22.1479 10.1375C22.7379 10.7475 22.7559 11.7085 22.1899 12.3405C22.0476 12.493 21.8767 12.6161 21.6869 12.7026C21.4971 12.7891 21.292 12.8373 21.0836 12.8446C20.8751 12.8518 20.6672 12.8179 20.4718 12.7448C20.2765 12.6717 20.0974 12.5608 19.9449 12.4185L19.8679 12.3405C19.156 11.5598 18.2247 11.0127 17.1962 10.7709C16.1677 10.5292 15.0901 10.6041 14.105 10.9858C13.1198 11.3676 12.2732 12.0383 11.6761 12.91C11.0791 13.7816 10.7596 14.8134 10.7596 15.87C10.7596 16.9265 11.0791 17.9583 11.6761 18.83C12.2732 19.7016 13.1198 20.3723 14.105 20.7541C15.0901 21.1358 16.1677 21.2107 17.1962 20.969C18.2247 20.7272 19.156 20.1801 19.8679 19.3995C20.096 19.1442 20.4018 18.9713 20.738 18.9075C21.0743 18.8437 21.4222 18.8925 21.7279 19.0465C21.9454 19.1555 22.1347 19.3134 22.281 19.5078C22.4274 19.7021 22.5268 19.9277 22.5716 20.1669C22.6163 20.406 22.6051 20.6523 22.5389 20.8864C22.4727 21.1205 22.3533 21.3362 22.1899 21.5165C20.7681 23.0729 18.8139 24.0389 16.7139 24.2233C14.6139 24.4077 12.5212 23.7972 10.8499 22.5125C10.5192 22.2605 10.1101 22.1334 9.69484 22.1535C9.27956 22.1736 8.88471 22.3397 8.5799 22.6225C8.38531 22.8008 8.23266 23.02 8.13292 23.2643C8.03318 23.5087 7.98884 23.7721 8.00309 24.0357C8.01734 24.2992 8.08982 24.5563 8.21532 24.7885C8.34082 25.0207 8.51622 25.2222 8.7289 25.3785C10.2206 26.4847 11.9513 27.2249 13.7816 27.5394C15.6119 27.854 17.4904 27.734 19.2658 27.1892C21.0412 26.6444 22.6637 25.69 24.0026 24.403C25.3414 23.116 26.359 21.5324 26.9734 19.7798C27.5878 18.0273 27.7818 16.155 27.5398 14.3137C27.2977 12.4724 26.6263 10.7138 25.5798 9.1797C24.5332 7.64556 23.1408 6.37881 21.5148 5.4816C19.8889 4.5844 18.0748 4.08184 16.2189 4.01446L16.2199 4.01346ZM15.9999 18.8015C15.6147 18.8 15.2336 18.7227 14.8783 18.574C14.523 18.4253 14.2005 18.208 13.9292 17.9346C13.6578 17.6612 13.443 17.3371 13.297 16.9807C13.1509 16.6243 13.0765 16.2426 13.0779 15.8575C13.0793 15.4723 13.1566 15.0912 13.3054 14.7359C13.4541 14.3806 13.6714 14.0581 13.9447 13.7867C14.2181 13.5154 14.5423 13.3006 14.8987 13.1545C15.2551 13.0084 15.6367 12.934 16.0219 12.9355C16.7998 12.9382 17.5447 13.2499 18.0928 13.8019C18.6408 14.354 18.9472 15.1011 18.9444 15.879C18.9416 16.6568 18.6299 17.4018 18.0779 17.9498C17.5259 18.4979 16.7788 18.8042 16.0009 18.8015H15.9999Z" fill="white"/>
</g>
<defs>
<clipPath id="clip0_1_5065">
<rect width="32" height="32" fill="white" transform="translate(0.000488281 0.00634766)"/>
</clipPath>
</defs>
</svg>
