<svg width="32" height="32" viewBox="0 0 32 32" fill="none" xmlns="http://www.w3.org/2000/svg">
<g clip-path="url(#clip0_1_5061)">
<path d="M16.0005 32.0063C24.837 32.0063 32.0005 24.8429 32.0005 16.0063C32.0005 7.16979 24.837 0.00634766 16.0005 0.00634766C7.16393 0.00634766 0.000488281 7.16979 0.000488281 16.0063C0.000488281 24.8429 7.16393 32.0063 16.0005 32.0063Z" fill="#C1A05C"/>
<path fill-rule="evenodd" clip-rule="evenodd" d="M16.7763 26.0063C14.4573 26.0003 12.3813 25.2883 10.5273 23.9263C10.0343 23.5643 10.0193 23.3563 10.4393 22.9053L10.4773 22.8653C10.9903 22.3093 10.9873 22.3123 11.5963 22.7503C12.9997 23.7757 14.6818 24.3498 16.4193 24.3963C18.2653 24.4603 19.9613 24.0193 21.4943 23.0303C23.3333 21.8443 24.5873 20.1923 25.1123 18.0833C25.7713 15.4353 25.2813 12.9833 23.5453 10.8283C22.3293 9.31835 20.7493 8.34535 18.8403 7.88435C17.1363 7.47235 15.4623 7.57335 13.8173 8.13935C12.9463 8.43935 12.1413 8.88135 11.4143 9.44935C11.0553 9.72935 10.9193 9.72335 10.6143 9.38135C10.4676 9.22196 10.33 9.05436 10.2023 8.87935C10.0143 8.61335 10.0403 8.45535 10.2943 8.25335C11.5012 7.29605 12.9073 6.62151 14.4093 6.27935C15.7686 5.95716 17.1798 5.91971 18.5543 6.16935C20.4223 6.50735 22.0843 7.27535 23.5113 8.51935C24.5673 9.44135 25.4213 10.5193 26.0153 11.7793C26.8333 13.5153 27.1663 15.3333 26.9213 17.2513C26.7027 19.0015 26.0151 20.66 24.9313 22.0513C23.8243 23.4933 22.4073 24.5453 20.7133 25.2363C19.4653 25.7524 18.1268 26.0142 16.7763 26.0063ZM16.1403 19.6233C16.0733 19.7253 16.0383 19.8013 15.9823 19.8593C15.6443 20.2143 15.2313 20.4273 14.7333 20.4433C14.3883 20.4533 14.0423 20.4243 13.6973 20.4323C13.5638 20.4311 13.4323 20.4642 13.3153 20.5283C11.7213 21.5283 10.0053 21.6743 8.19729 21.2903C7.60229 21.1643 7.06929 20.9353 6.61529 20.5453C6.27329 20.2523 6.03229 19.9063 6.00329 19.4203C5.95329 18.5733 6.58029 17.9953 7.22629 17.8063C8.41929 17.4563 9.55429 17.6693 10.6403 18.1963C11.1363 18.4363 11.6003 18.7423 12.0743 19.0263C12.3463 19.1873 12.4273 19.1813 12.5633 18.9033C13.1783 17.6473 12.7813 16.2623 11.2793 15.7503C9.96129 15.3003 8.67229 15.3453 7.40329 15.9303C7.21729 16.0163 7.01329 16.1803 6.79429 16.0043C6.56729 15.8203 6.71929 15.6013 6.77729 15.4073C7.19429 14.0033 7.61729 12.6023 8.04629 11.2023C8.14029 10.8953 8.38529 10.7373 8.74329 10.7563C9.27029 10.7853 9.79429 10.8643 10.3213 10.8763C11.1113 10.8963 11.9043 10.9033 12.6933 10.8643C13.2803 10.8343 13.7953 10.5763 14.2483 10.2023C14.3033 10.1573 14.4143 10.1053 14.4503 10.1293C14.5033 10.1643 14.5353 10.2623 14.5403 10.3363C14.5773 10.9423 14.3173 11.4093 13.8353 11.7723C13.2653 12.2023 12.6143 12.4023 11.9033 12.4193C11.1663 12.4363 10.4293 12.4463 9.69329 12.4493C9.52729 12.4513 9.43929 12.5113 9.40029 12.6673C9.33429 12.9273 9.26429 13.1883 9.18929 13.4473C9.13229 13.6403 9.20529 13.7173 9.40029 13.7093C9.86429 13.6923 10.3283 13.6613 10.7913 13.6643C11.857 13.6581 12.8862 14.0529 13.6743 14.7703C14.4473 15.4583 14.7603 16.3463 14.8073 17.3383C14.8443 18.1333 14.6923 18.8943 14.2553 19.5793C14.1363 19.7663 14.1903 19.8473 14.3913 19.9003C14.9253 20.0413 15.4183 19.9453 15.8893 19.6823C15.9293 19.6603 15.9663 19.6353 16.0073 19.6163C16.0213 19.6103 16.0423 19.6173 16.1403 19.6233ZM11.5723 19.8493L11.5563 19.7523C11.4893 19.7113 11.4263 19.6603 11.3533 19.6283C10.8233 19.3933 10.3003 19.1333 9.75629 18.9353C9.20129 18.7323 8.62429 18.5873 8.02029 18.7283C7.74829 18.7913 7.47629 18.8603 7.39729 19.1733C7.30929 19.5183 7.52029 19.7333 7.76629 19.9213C7.84329 19.9803 7.93829 20.0223 8.03029 20.0583C8.96429 20.4183 9.91229 20.4283 10.8643 20.1463C11.1083 20.0743 11.3373 19.9493 11.5723 19.8493Z" fill="white"/>
</g>
<defs>
<clipPath id="clip0_1_5061">
<rect width="32" height="32" fill="white" transform="translate(0.000488281 0.00634766)"/>
</clipPath>
</defs>
</svg>
