<svg width="32" height="32" viewBox="0 0 32 32" fill="none" xmlns="http://www.w3.org/2000/svg">
<g clip-path="url(#clip0_1_5057)">
<path d="M16.0005 32.0063C24.837 32.0063 32.0005 24.8429 32.0005 16.0063C32.0005 7.16979 24.837 0.00634766 16.0005 0.00634766C7.16393 0.00634766 0.000488281 7.16979 0.000488281 16.0063C0.000488281 24.8429 7.16393 32.0063 16.0005 32.0063Z" fill="#383939"/>
<path fill-rule="evenodd" clip-rule="evenodd" d="M18.9735 11.4853L21.6405 10.8743L22.6735 9.17335L21.6535 7.50035L20.3475 6.59835L17.6645 6.00635L16.0095 6.93935L13.3615 6.46735L9.72549 8.98635L9.44249 11.9283L7.89949 12.5723L8.07749 15.3013L7.00049 16.1593L8.07649 19.2313L8.23849 19.5533L9.37649 22.7163L11.7155 23.5443L13.4495 25.3083L15.4435 26.0063L16.3455 25.7463L17.7765 25.5813L19.8745 24.9803L23.0005 23.2153L22.1825 19.9833L20.6085 19.3633L19.8245 20.2603L17.6195 20.8023L14.4125 20.2943L13.3775 19.0973L13.7375 17.9263L12.2215 15.5273L13.4965 13.9713L13.6325 11.3263L15.4585 10.2783L16.7105 9.77835L18.4105 10.0853L18.9735 11.4853Z" fill="white"/>
</g>
<defs>
<clipPath id="clip0_1_5057">
<rect width="32" height="32" fill="white" transform="translate(0.000488281 0.00634766)"/>
</clipPath>
</defs>
</svg>
