<svg width="32" height="32" viewBox="0 0 32 32" fill="none" xmlns="http://www.w3.org/2000/svg">
<g clip-path="url(#clip0_1_5051)">
<path d="M16.0005 32.0063C24.837 32.0063 32.0005 24.8429 32.0005 16.0063C32.0005 7.16979 24.837 0.00634766 16.0005 0.00634766C7.16393 0.00634766 0.000488281 7.16979 0.000488281 16.0063C0.000488281 24.8429 7.16393 32.0063 16.0005 32.0063Z" fill="#4C6BAE"/>
<path opacity="0.5" fill-rule="evenodd" clip-rule="evenodd" d="M6.38349 16.5883L5.00049 16.7313C5.74049 14.6613 7.20349 13.0053 9.39149 11.7633C9.59849 13.4793 10.4115 14.8983 11.8315 16.0223L10.5315 16.1573C10.6581 17.351 11.1716 18.4705 11.9936 19.3452C12.8156 20.2199 13.901 20.8018 15.0845 21.0023C14.213 21.6579 13.1814 22.0672 12.0975 22.1873C12.7785 23.3873 13.5845 24.3703 14.5145 25.1343C12.4065 24.8058 10.4663 23.7896 8.99574 22.244C7.52519 20.6984 6.60679 18.71 6.38349 16.5883ZM25.6175 14.5683L27.0005 14.4253C26.2605 16.4953 24.7975 18.1513 22.6095 19.3933C22.4025 17.6773 21.5895 16.2583 20.1695 15.1343L21.4695 14.9993C21.3415 13.7931 20.8186 12.6629 19.982 11.7846C19.1454 10.9062 18.0421 10.3289 16.8435 10.1423C17.712 9.4936 18.738 9.08863 19.8155 8.96935C19.1285 7.76035 18.3165 6.77335 17.3775 6.00635C19.5077 6.31355 21.4746 7.32233 22.967 8.87307C24.4595 10.4238 25.3921 12.4279 25.6175 14.5683Z" fill="white"/>
<path fill-rule="evenodd" clip-rule="evenodd" d="M16.4945 25.6323L16.6375 27.0063C14.5675 26.2663 12.9115 24.8033 11.6695 22.6153C13.3845 22.4083 14.8035 21.5953 15.9275 20.1753L16.0635 21.4853C17.2869 21.3754 18.4384 20.8592 19.3345 20.0191C20.2306 19.1789 20.8199 18.0631 21.0085 16.8493C21.6572 17.7178 22.0622 18.7439 22.1815 19.8213C23.3905 19.1343 24.3775 18.3223 25.1445 17.3833C24.8352 19.5286 23.8144 21.5078 22.2459 23.0036C20.6774 24.4994 18.652 25.4251 16.4945 25.6323ZM14.5625 6.38935L14.4195 5.00635C16.4895 5.74635 18.1455 7.20935 19.3875 9.39735C17.6715 9.60435 16.2525 10.4173 15.1285 11.8373L14.9935 10.5373C13.7872 10.6653 12.6571 11.1882 11.7787 12.0248C10.9004 12.8614 10.323 13.9648 10.1365 15.1633C9.48774 14.2949 9.08278 13.2688 8.96349 12.1913C7.75449 12.8783 6.76749 13.6903 6.00049 14.6293C6.30769 12.4992 7.31647 10.5322 8.86721 9.0398C10.418 7.54738 12.4221 6.6147 14.5625 6.38935Z" fill="white"/>
</g>
<defs>
<clipPath id="clip0_1_5051">
<rect width="32" height="32" fill="white" transform="translate(0.000488281 0.00634766)"/>
</clipPath>
</defs>
</svg>
