<svg width="32" height="32" viewBox="0 0 32 32" fill="none" xmlns="http://www.w3.org/2000/svg">
<g clip-path="url(#clip0_1_5047)">
<path d="M16.001 32.0063C24.8375 32.0063 32.001 24.8429 32.001 16.0063C32.001 7.16979 24.8375 0.00634766 16.001 0.00634766C7.16442 0.00634766 0.000976562 7.16979 0.000976562 16.0063C0.000976562 24.8429 7.16442 32.0063 16.001 32.0063Z" fill="#FF4314"/>
<path fill-rule="evenodd" clip-rule="evenodd" d="M9.17198 8.00635H22.988V9.93135H9.17098L9.17198 8.00635ZM7.63198 13.6473H24.705V15.5923H19.475V22.0993C19.475 22.5993 19.692 22.8493 20.145 22.8493H22.317C22.554 22.8493 22.751 22.6963 22.869 22.4073C23.008 22.0993 23.106 21.1553 23.146 19.5963L25.001 20.1743C24.863 22.3493 24.606 23.6393 24.251 24.0443C23.896 24.4283 23.383 24.6403 22.691 24.6403H19.554C18.152 24.6403 17.462 23.9283 17.462 22.5223V15.5923H14.54V15.9773C14.442 18.4223 13.89 20.3853 12.883 21.8493C11.896 23.1963 10.317 24.2553 8.10598 25.0063L7.00098 23.3123C9.13298 22.5803 10.554 21.6563 11.304 20.5783C12.054 19.3843 12.448 17.8633 12.527 15.9773V15.5923H7.63298L7.63198 13.6473Z" fill="white"/>
</g>
<defs>
<clipPath id="clip0_1_5047">
<rect width="32" height="32" fill="white" transform="translate(0.000976562 0.00634766)"/>
</clipPath>
</defs>
</svg>
