<svg width="32" height="32" viewBox="0 0 32 32" fill="none" xmlns="http://www.w3.org/2000/svg">
<g clip-path="url(#clip0_1_5043)">
<path d="M16.001 32.0063C24.8375 32.0063 32.001 24.8429 32.001 16.0063C32.001 7.16979 24.8375 0.00634766 16.001 0.00634766C7.16442 0.00634766 0.000976562 7.16979 0.000976562 16.0063C0.000976562 24.8429 7.16442 32.0063 16.001 32.0063Z" fill="#13BF99"/>
<path d="M16.001 25.0063H11.465L13.737 21.0493H18.265L20.537 25.0063H16.001ZM13.738 10.9623H13.737L11.465 7.00635H20.537L18.265 10.9623H13.737H13.738ZM23.737 20.5013H23.735H23.737L21.464 24.4593L19.2 20.5023H19.201L21.464 16.5443H26.001L23.737 20.5013ZM8.26498 11.5023L10.537 7.54535L12.801 11.5023L10.537 15.4583H6.00098L8.26498 11.5023ZM12.8 20.5023H12.801L10.537 24.4593L8.26498 20.5023L6.00098 16.5433H10.537L12.801 20.5003L12.8 20.5023ZM23.737 11.5023L26.001 15.4593H21.465L19.2 11.5023L21.464 7.54535L23.737 11.5023Z" fill="white"/>
</g>
<defs>
<clipPath id="clip0_1_5043">
<rect width="32" height="32" fill="white" transform="translate(0.000976562 0.00634766)"/>
</clipPath>
</defs>
</svg>
