<svg width="32" height="32" viewBox="0 0 32 32" fill="none" xmlns="http://www.w3.org/2000/svg">
<g clip-path="url(#clip0_1_5039)">
<path d="M16.001 32.0063C24.8375 32.0063 32.001 24.8429 32.001 16.0063C32.001 7.16979 24.8375 0.00634766 16.001 0.00634766C7.16442 0.00634766 0.000976562 7.16979 0.000976562 16.0063C0.000976562 24.8429 7.16442 32.0063 16.001 32.0063Z" fill="#77C3B0"/>
<path d="M25.5782 13.2114L23.8902 11.5234C23.6366 11.2685 23.3348 11.0665 23.0025 10.9291C22.6701 10.7918 22.3138 10.7219 21.9542 10.7234H21.6942V10.4534C21.6942 9.98038 21.5822 9.53038 21.3462 9.12538C21.2247 8.8905 21.0649 8.67757 20.8732 8.49538L19.1852 6.80638C18.9315 6.55134 18.6296 6.34928 18.297 6.21195C17.9645 6.07461 17.608 6.00473 17.2482 6.00638H9.47023C8.73823 6.00638 8.05223 6.28838 7.53423 6.80638L5.84623 8.49438C5.59059 8.74519 5.38803 9.04487 5.25059 9.37557C5.11316 9.70628 5.04366 10.0613 5.04623 10.4194L5.00123 17.7144C4.99123 18.4454 5.28323 19.1544 5.80123 19.6724L7.48923 21.3614C7.74291 21.6162 8.0447 21.818 8.37705 21.9551C8.7094 22.0923 9.06569 22.1621 9.42523 22.1604H9.72923V22.4304C9.72923 22.9034 9.84223 23.3534 10.0782 23.7584C10.2022 23.9954 10.3592 24.2084 10.5512 24.3884L12.2392 26.0784C12.4932 26.3327 12.795 26.5343 13.1273 26.6712C13.4596 26.8082 13.8158 26.8779 14.1752 26.8764H21.9652C22.6972 26.8764 23.3832 26.5954 23.9012 26.0774L25.5902 24.3894C25.8447 24.1355 26.0464 23.8337 26.1835 23.5014C26.3207 23.1691 26.3906 22.8129 26.3892 22.4534V15.1364C26.3873 14.778 26.3148 14.4236 26.1758 14.0933C26.0368 13.763 25.8341 13.4633 25.5792 13.2114H25.5782ZM9.42523 19.6834C9.35379 19.6835 9.28518 19.6554 9.23423 19.6054L8.39023 18.7604L7.54523 17.9164C7.50897 17.8738 7.48206 17.824 7.46623 17.7704V10.4314C7.46623 10.3514 7.50023 10.2844 7.54623 10.2394L9.23423 8.55138C9.25623 8.52838 9.27923 8.51738 9.30123 8.50638C9.34294 8.48461 9.38918 8.47297 9.43623 8.47238H17.2262C17.2712 8.47238 17.3052 8.48338 17.3502 8.50638C17.3842 8.51738 17.4062 8.54038 17.4292 8.56238L19.1172 10.2514C19.1419 10.2725 19.1611 10.2993 19.1732 10.3294C19.1852 10.3414 19.1852 10.3524 19.1852 10.3634C19.1852 10.3744 19.1952 10.3864 19.1952 10.3974C19.1952 10.4084 19.2072 10.4424 19.2072 10.4644V10.8244C19.2072 10.9824 19.0832 11.0944 18.9372 11.0944H17.5872C17.5154 11.0947 17.4464 11.0667 17.3952 11.0164L16.6292 10.2514H10.0332L9.75223 10.5314L9.36923 10.9154V17.2524L10.0332 17.9164H16.6182L17.3842 17.1404L17.3942 17.1284C17.4172 17.1174 17.4402 17.0944 17.4622 17.0834C17.4962 17.0614 17.5422 17.0614 17.5752 17.0614H18.9252C19.0152 17.0614 19.0952 17.1064 19.1512 17.1734C19.1862 17.2187 19.2059 17.2741 19.2072 17.3314V17.7144C19.2071 17.786 19.1787 17.8546 19.1282 17.9054L18.2842 18.7494L17.4402 19.5934C17.4292 19.6054 17.4062 19.6164 17.3952 19.6274C17.3952 19.6274 17.3842 19.6384 17.3722 19.6384C17.3612 19.6504 17.3502 19.6504 17.3382 19.6504C17.3282 19.6504 17.3282 19.6504 17.3162 19.6614C17.3052 19.6614 17.2932 19.6724 17.2822 19.6724H9.42523V19.6834ZM23.9242 22.4304C23.9238 22.5021 23.895 22.5707 23.8442 22.6214L22.1562 24.3104C22.1366 24.3291 22.1139 24.3443 22.0892 24.3554C22.0475 24.3771 22.0013 24.3888 21.9542 24.3894H14.1642C14.1207 24.3887 14.078 24.377 14.0402 24.3554C14.0101 24.3433 13.9833 24.324 13.9622 24.2994L12.2732 22.6104C12.2512 22.5884 12.2282 22.5654 12.2172 22.5314C12.2052 22.5214 12.2052 22.5094 12.2052 22.4984C12.2052 22.4864 12.1952 22.4754 12.1952 22.4644C12.1952 22.4534 12.1832 22.4194 12.1832 22.3964V22.0364C12.1832 21.8794 12.3072 21.7664 12.4532 21.7664H13.8032C13.8832 21.7664 13.9502 21.8004 13.9952 21.8454L14.7612 22.6104H21.3462L21.6272 22.3294L22.0102 21.9464V15.6094L21.3462 14.9444H14.7722L14.0072 15.7214L13.9952 15.7324C13.9732 15.7444 13.9502 15.7664 13.9282 15.7774C13.8942 15.8004 13.8492 15.8004 13.8152 15.8004H12.4652C12.4215 15.7995 12.3786 15.7889 12.3395 15.7694C12.3004 15.7498 12.2661 15.7218 12.2392 15.6874C12.2044 15.6423 12.1848 15.5873 12.1832 15.5304V15.1474C12.1832 15.1119 12.1902 15.0768 12.2037 15.044C12.2173 15.0112 12.2372 14.9815 12.2622 14.9564L13.1062 14.1124L13.9502 13.2674C13.9622 13.2564 13.9842 13.2454 13.9952 13.2334C13.9952 13.2334 14.0072 13.2234 14.0182 13.2234C14.0292 13.2114 14.0402 13.2114 14.0522 13.2114C14.0622 13.2114 14.0622 13.2114 14.0742 13.2004C14.0852 13.2004 14.0972 13.1884 14.1082 13.1884H21.9542C22.0322 13.1884 22.1002 13.2224 22.1452 13.2684L22.9892 14.1124L23.8342 14.9564C23.8442 14.9674 23.8562 14.9784 23.8672 15.0014C23.8872 15.0326 23.9023 15.0667 23.9122 15.1024V15.1584C23.9242 15.1364 23.9242 22.4304 23.9242 22.4304Z" fill="white"/>
</g>
<defs>
<clipPath id="clip0_1_5039">
<rect width="32" height="32" fill="white" transform="translate(0.000976562 0.00634766)"/>
</clipPath>
</defs>
</svg>
