<svg width="32" height="32" viewBox="0 0 32 32" fill="none" xmlns="http://www.w3.org/2000/svg">
<g clip-path="url(#clip0_1_5035)">
<path d="M16 32.0078C24.8366 32.0078 32 24.8444 32 16.0078C32 7.17126 24.8366 0.0078125 16 0.0078125C7.16344 0.0078125 0 7.17126 0 16.0078C0 24.8444 7.16344 32.0078 16 32.0078Z" fill="#00D395"/>
<path fill-rule="evenodd" clip-rule="evenodd" d="M8.82 21.5944C8.57144 21.4474 8.36523 21.2385 8.22151 20.988C8.07779 20.7376 8.00147 20.4541 8 20.1654V16.9124C8 16.5254 8.322 16.2124 8.716 16.2144C8.842 16.2144 8.966 16.2474 9.076 16.3094L16.579 20.5904C17.018 20.8404 17.289 21.3004 17.289 21.7974V25.1674C17.2883 25.2788 17.2657 25.3889 17.2223 25.4915C17.1789 25.5941 17.1157 25.6871 17.0362 25.7652C16.9567 25.8433 16.8626 25.9049 16.7593 25.9464C16.6559 25.988 16.5454 26.0087 16.434 26.0074C16.2757 26.0075 16.1203 25.965 15.984 25.8844L8.82 21.5944ZM20.004 15.4184C20.444 15.6684 20.712 16.1294 20.714 16.6254V23.4654C20.714 23.6674 20.604 23.8544 20.423 23.9524L18.781 24.8564C18.7599 24.8681 18.7374 24.8772 18.714 24.8834V21.0854C18.714 20.5934 18.451 20.1374 18.018 19.8854L11.43 16.0274V11.7404C11.43 11.3534 11.752 11.0404 12.147 11.0424C12.2729 11.0426 12.3965 11.0753 12.506 11.1374L20.006 15.4184H20.004ZM23.289 10.3664C23.729 10.6164 24 11.0764 24 11.5754V21.5654C23.9987 21.6669 23.9701 21.7662 23.9171 21.8528C23.8642 21.9393 23.7888 22.01 23.699 22.0574L22.142 22.8804V15.9244C22.142 15.4334 21.878 14.9784 21.449 14.7254L14.713 10.7724V6.70737C14.713 6.58337 14.748 6.46237 14.809 6.35537C14.9071 6.19454 15.0639 6.07819 15.2463 6.03096C15.4286 5.98374 15.6222 6.00935 15.786 6.10237L23.289 10.3674V10.3664Z" fill="white"/>
</g>
<defs>
<clipPath id="clip0_1_5035">
<rect width="32" height="32" fill="white" transform="translate(0 0.0078125)"/>
</clipPath>
</defs>
</svg>
