<svg width="32" height="32" viewBox="0 0 32 32" fill="none" xmlns="http://www.w3.org/2000/svg">
<g clip-path="url(#clip0_1_5031)">
<path d="M16 32.0078C24.8366 32.0078 32 24.8444 32 16.0078C32 7.17126 24.8366 0.0078125 16 0.0078125C7.16344 0.0078125 0 7.17126 0 16.0078C0 24.8444 7.16344 32.0078 16 32.0078Z" fill="#71C800"/>
<path fill-rule="evenodd" clip-rule="evenodd" d="M25.82 14.7228C25.033 14.7598 24.243 14.8058 23.456 14.7778C22.75 14.7518 22.047 14.6348 21.343 14.5528C21.2702 14.5405 21.2022 14.5087 21.146 14.4608C19.981 13.5058 18.836 12.5288 17.832 11.3978C17.466 10.9848 17.17 10.5388 17.004 9.9968C16.781 9.2658 15.844 8.9848 15.15 9.4078C14.422 9.8518 14.297 10.8848 14.91 11.4768C15.0185 11.5847 15.1527 11.6631 15.3 11.7048C15.83 11.8328 16.24 12.1488 16.627 12.5068C17.321 13.1478 17.943 13.8568 18.547 14.5828C18.72 14.7898 18.632 15.0298 18.367 15.0598C17.957 15.1078 17.544 15.1508 17.131 15.1678C16.353 15.1998 15.574 15.2308 14.795 15.2228C14.36 15.2178 13.923 15.1508 13.492 15.0788C13.2888 15.0391 13.0946 14.9625 12.919 14.8528C12.34 14.5058 11.74 14.7428 11.406 15.0848C11.2042 15.2915 11.0754 15.5585 11.0391 15.8451C11.0028 16.1317 11.0611 16.4223 11.205 16.6728C11.483 17.1488 12.031 17.4268 12.523 17.3228C12.665 17.2928 12.805 17.2298 12.931 17.1568C13.261 16.9688 13.619 16.8808 13.989 16.8578C14.583 16.8218 15.181 16.7878 15.776 16.8018C16.533 16.8198 17.29 16.8868 18.047 16.9338C18.15 16.9408 18.254 16.9458 18.356 16.9618C18.64 17.0078 18.722 17.2348 18.534 17.4578C18.308 17.7258 18.09 18.0028 17.846 18.2528C17.3327 18.7788 16.811 19.2966 16.281 19.8058C16.0404 20.0359 15.7423 20.1968 15.418 20.2718C14.762 20.4288 14.438 21.0618 14.53 21.7018C14.622 22.3378 15.19 22.8158 15.833 22.8168C16.429 22.8168 16.887 22.4988 17.046 21.9288C17.209 21.3428 17.585 20.9008 17.977 20.4698C18.944 19.4088 20.031 18.4758 21.14 17.5698C21.2048 17.5171 21.2825 17.4826 21.365 17.4698C21.926 17.3968 22.487 17.3058 23.05 17.2708C23.6848 17.2296 24.3213 17.221 24.957 17.2448C25.62 17.2718 26.28 17.3588 26.96 17.4218C26.948 17.6518 26.945 17.8478 26.927 18.0418C26.805 19.3018 26.484 20.5088 25.891 21.6298C24.427 24.3948 22.169 26.1258 19.114 26.8008C18.4293 26.9454 17.7307 27.0142 17.031 27.0058C16.286 27.0048 15.541 27.0118 14.796 27.0038C12.731 26.9818 10.842 26.3938 9.16099 25.1898C7.13799 23.7398 5.83099 21.7928 5.26899 19.3638C5.14271 18.8214 5.06772 18.2683 5.04499 17.7118C4.99778 16.6605 4.98844 15.6078 5.01699 14.5558C5.07796 12.4466 5.81599 10.4131 7.12197 8.75573C8.42795 7.0984 10.2326 5.90529 12.269 5.3528C13.0829 5.13091 13.9224 5.01727 14.766 5.0148C15.63 5.0118 16.493 4.9988 17.356 5.0188C19.422 5.0668 21.299 5.6968 22.959 6.9308C24.944 8.4058 26.207 10.3628 26.739 12.7798C26.868 13.3598 26.913 13.9578 27 14.5768C26.57 14.6318 26.197 14.7048 25.82 14.7228Z" fill="white"/>
</g>
<defs>
<clipPath id="clip0_1_5031">
<rect width="32" height="32" fill="white" transform="translate(0 0.0078125)"/>
</clipPath>
</defs>
</svg>
