<svg width="32" height="32" viewBox="0 0 32 32" fill="none" xmlns="http://www.w3.org/2000/svg">
<g clip-path="url(#clip0_1_5027)">
<path d="M16 32.0078C24.8366 32.0078 32 24.8444 32 16.0078C32 7.17126 24.8366 0.0078125 16 0.0078125C7.16344 0.0078125 0 7.17126 0 16.0078C0 24.8444 7.16344 32.0078 16 32.0078Z" fill="#37E8A3"/>
<path d="M12.136 15.9738L15.618 19.4668L24.748 10.2758L26 11.5458L15.618 22.0078L10.883 17.2448L12.136 15.9738ZM14.246 15.6638L19.864 10.0078L21.117 11.2778L15.5 16.9378L14.246 15.6638ZM11.97 20.4938L10.734 21.7398L6 16.9778L7.251 15.7078L11.97 20.4938Z" fill="white"/>
</g>
<defs>
<clipPath id="clip0_1_5027">
<rect width="32" height="32" fill="white" transform="translate(0 0.0078125)"/>
</clipPath>
</defs>
</svg>
