<svg width="32" height="32" viewBox="0 0 32 32" fill="none" xmlns="http://www.w3.org/2000/svg">
<g clip-path="url(#clip0_1_5023)">
<path d="M16 32.0078C24.8366 32.0078 32 24.8444 32 16.0078C32 7.17126 24.8366 0.0078125 16 0.0078125C7.16344 0.0078125 0 7.17126 0 16.0078C0 24.8444 7.16344 32.0078 16 32.0078Z" fill="#00BDCD"/>
<path d="M21.833 9.75181C20.4213 8.55248 18.6273 7.89739 16.775 7.90481C12.58 7.90481 9.125 11.2218 8.837 15.4618H8.015C8.303 10.7178 12.128 7.06481 16.775 7.06481C18.832 7.06481 20.805 7.82081 22.409 9.16481L21.833 9.75181ZM21.545 12.5228C21.005 11.7595 20.2903 11.1364 19.4606 10.7055C18.6308 10.2746 17.71 10.0484 16.775 10.0458C13.526 10.0458 10.894 12.7328 10.894 16.0078C10.894 19.3238 13.526 22.0118 16.774 22.0118C18.66 22.0118 20.433 21.0918 21.545 19.5338L22.122 20.1218C20.846 21.8428 18.872 22.8518 16.775 22.8518C13.073 22.8518 10.071 19.7858 10.071 16.0078C10.071 12.2718 13.073 9.20581 16.775 9.20581C17.8178 9.2101 18.8451 9.4594 19.7738 9.93361C20.7026 10.4078 21.507 11.0937 22.122 11.9358L21.545 12.5228ZM22.491 10.3818L23.068 9.79381C23.273 10.0038 23.438 10.2138 23.602 10.4238L23.026 11.0108C22.8596 10.791 22.681 10.5806 22.491 10.3808V10.3818ZM16.734 24.9918C12.087 24.9918 8.262 21.3398 7.974 16.5958H8.796C9.084 20.8358 12.539 24.1528 16.734 24.1528C18.584 24.1528 20.354 23.5228 21.792 22.3058L22.368 22.8928C20.7998 24.2411 18.8021 24.9857 16.734 24.9928V24.9918ZM22.491 21.6758C22.697 21.4658 22.861 21.2558 23.026 21.0458L23.602 21.6328C23.437 21.8428 23.273 22.0528 23.068 22.2628L22.491 21.6758ZM6.823 16.0078C6.823 21.5918 11.305 26.1678 16.775 26.1678C19.736 26.1678 22.532 24.8668 24.425 22.4738L25 23.0608C22.944 25.5808 19.983 27.0078 16.775 27.0078C10.812 27.0078 6 22.0528 6 16.0078C6 9.91981 10.853 5.00781 16.775 5.00781C19.94 5.00781 22.945 6.43481 25 8.95481L24.424 9.54281C22.532 7.19181 19.736 5.84781 16.774 5.84781C11.304 5.84781 6.823 10.4238 6.823 16.0078Z" fill="white"/>
</g>
<defs>
<clipPath id="clip0_1_5023">
<rect width="32" height="32" fill="white" transform="translate(0 0.0078125)"/>
</clipPath>
</defs>
</svg>
