<svg width="32" height="32" viewBox="0 0 32 32" fill="none" xmlns="http://www.w3.org/2000/svg">
<g clip-path="url(#clip0_1_5019)">
<path d="M16 32.0078C24.8366 32.0078 32 24.8444 32 16.0078C32 7.17126 24.8366 0.0078125 16 0.0078125C7.16344 0.0078125 0 7.17126 0 16.0078C0 24.8444 7.16344 32.0078 16 32.0078Z" fill="#0F1529"/>
<path fill-rule="evenodd" clip-rule="evenodd" d="M24.833 15.8538C24.632 15.8988 24.494 15.9248 24.359 15.9608C23.514 16.1818 22.663 16.3568 21.783 16.3238C20.607 16.2788 19.597 15.8058 18.706 15.0438C18.346 14.7348 18.012 14.3938 17.668 14.0658C17.501 13.9078 17.461 13.7278 17.588 13.5218L17.913 12.9948L18.352 13.4768C18.985 14.1788 19.662 14.8178 20.555 15.1588C21.432 15.4928 22.325 15.4438 23.222 15.2928C24.49 15.0808 25.661 14.5738 26.809 14.0048C26.847 13.9858 26.889 13.9738 27 13.9298C26.924 14.0728 26.882 14.1578 26.834 14.2378C25.158 17.0558 23.482 19.8738 21.804 22.6908C21.598 23.0368 21.521 23.0628 21.163 22.8878C18.797 21.7258 16.319 21.5048 13.761 21.9448C13.361 22.0138 13.29 21.9798 13.099 21.5698C12.89 21.1218 12.892 21.1338 13.365 21.0428C14.683 20.7854 16.0325 20.7304 17.367 20.8798C18.616 21.0198 19.861 21.2038 21.007 21.7918C21.171 21.8768 21.258 21.8058 21.34 21.6698C22.067 20.4558 22.794 19.2418 23.525 18.0298C23.916 17.3808 24.315 16.7368 24.708 16.0898C24.742 16.0338 24.769 15.9748 24.833 15.8538ZM7.179 15.9748C7.347 16.2578 7.515 16.5408 7.685 16.8228L11.049 22.4028C11.209 22.6688 11.209 22.6768 10.932 22.8038C10.335 23.0788 10.409 23.1498 10.044 22.5388C8.754 20.3738 7.466 18.2068 6.178 16.0408L5.134 14.2858C5.084 14.2028 5.044 14.1128 5 14.0258L5.039 13.9738C5.186 14.0388 5.334 14.0998 5.479 14.1678C6.362 14.5808 7.255 14.9648 8.201 15.1988C9.415 15.5008 10.614 15.5358 11.771 14.9588C12.491 14.5998 13.084 14.0708 13.618 13.4678C14.473 12.4998 15.167 11.4138 15.796 10.2818L15.949 10.0078C16.032 10.1318 16.085 10.2258 16.152 10.3078C16.521 10.7598 16.434 11.1618 16.123 11.6298C15.429 12.6738 14.73 13.7078 13.806 14.5558C12.98 15.3138 12.054 15.8858 10.966 16.1468C10.112 16.3518 9.254 16.3108 8.397 16.1518C8.005 16.0788 7.615 15.9968 7.224 15.9188L7.179 15.9748Z" fill="white"/>
</g>
<defs>
<clipPath id="clip0_1_5019">
<rect width="32" height="32" fill="white" transform="translate(0 0.0078125)"/>
</clipPath>
</defs>
</svg>
