<svg width="32" height="32" viewBox="0 0 32 32" fill="none" xmlns="http://www.w3.org/2000/svg">
<g clip-path="url(#clip0_1_5015)">
<path d="M16 32.0078C24.8366 32.0078 32 24.8444 32 16.0078C32 7.17126 24.8366 0.0078125 16 0.0078125C7.16344 0.0078125 0 7.17126 0 16.0078C0 24.8444 7.16344 32.0078 16 32.0078Z" fill="#262626"/>
<path fill-rule="evenodd" clip-rule="evenodd" d="M16.682 9.63281C19.135 9.81381 20.325 11.2778 20.325 11.5428C20.325 11.7298 20.28 12.1378 20.28 12.3878C20.28 12.5548 20.34 12.8218 20.46 13.1878C20.43 13.4378 20.265 13.5638 19.964 13.5638C19.514 13.5638 19.64 13.0588 18.972 12.0588C18.252 10.9818 17.524 10.7558 16.678 10.7088C16.695 13.0048 16.758 19.3248 16.763 21.4988C19.018 21.1708 20.27 19.4868 20.595 19.4868C20.775 19.4868 21.001 19.6268 21.001 19.9568C21.001 20.6518 19.219 22.2238 16.729 22.5348C16.543 24.5638 15.583 27.0078 13.201 27.0078C12.074 27.0078 11.127 26.1378 11.127 25.1278C11.127 24.4698 11.623 24.1878 12.074 24.1878C12.524 24.1878 12.975 24.5168 12.975 25.1278C12.975 25.5348 12.84 25.8178 12.57 25.9738C12.84 26.1618 13.11 26.2558 13.381 26.2558C14.283 26.2558 14.961 24.6238 15.077 22.5258C12.449 22.1038 10 19.5998 10 15.9608C10 11.8678 12.55 10.0978 15.051 9.70281C15.101 7.86281 16.062 5.05281 18.521 5.00781C20.008 5.00781 20.639 6.22981 20.639 6.88781C20.639 7.54581 20.166 7.82781 19.693 7.82781C19.219 7.82781 18.746 7.45181 18.746 6.88781C18.746 6.51181 18.896 6.24581 19.196 6.08881C18.986 5.90081 18.716 5.80681 18.386 5.80681C17.135 5.80681 16.742 8.44481 16.681 9.63281H16.682ZM15.095 21.4208C15.091 18.9868 15.06 13.3778 15.052 10.8008C12.744 11.3678 11.985 14.1138 11.985 15.9608C11.985 18.8888 13.369 20.8998 15.095 21.4208Z" fill="white"/>
</g>
<defs>
<clipPath id="clip0_1_5015">
<rect width="32" height="32" fill="white" transform="translate(0 0.0078125)"/>
</clipPath>
</defs>
</svg>
