<svg width="32" height="32" viewBox="0 0 32 32" fill="none" xmlns="http://www.w3.org/2000/svg">
<g clip-path="url(#clip0_1_5011)">
<path d="M16.0005 32.0078C24.837 32.0078 32.0005 24.8444 32.0005 16.0078C32.0005 7.17126 24.837 0.0078125 16.0005 0.0078125C7.16393 0.0078125 0.000488281 7.17126 0.000488281 16.0078C0.000488281 24.8444 7.16393 32.0078 16.0005 32.0078Z" fill="#FDDE6C"/>
<path fill-rule="evenodd" clip-rule="evenodd" d="M16.0005 27.0078C9.92549 27.0078 5.00049 22.0828 5.00049 16.0078C5.00049 9.93281 9.92549 5.00781 16.0005 5.00781C22.0755 5.00781 27.0005 9.93281 27.0005 16.0078C27.0005 22.0828 22.0755 27.0078 16.0005 27.0078ZM16.0005 25.4618C18.5078 25.4618 20.9125 24.4658 22.6855 22.6928C24.4584 20.9198 25.4545 18.5152 25.4545 16.0078C25.4545 13.5005 24.4584 11.0958 22.6855 9.32283C20.9125 7.54986 18.5078 6.55381 16.0005 6.55381C13.4931 6.55381 11.0885 7.54986 9.3155 9.32283C7.54253 11.0958 6.54649 13.5005 6.54649 16.0078C6.54649 18.5152 7.54253 20.9198 9.3155 22.6928C11.0885 24.4658 13.4931 25.4618 16.0005 25.4618ZM16.0725 22.5488C12.4755 22.5488 9.57849 19.7988 9.57849 16.0438V16.0078C9.57849 12.3418 12.4035 9.46781 16.2165 9.46781C18.7885 9.46781 20.4435 10.5458 21.5595 12.0908L18.9325 14.1208C18.2125 13.2228 17.3855 12.6478 16.1805 12.6478C14.4175 12.6478 13.1765 14.1388 13.1765 15.9718V16.0078C13.1765 17.8948 14.4175 19.3678 16.1805 19.3678C17.4935 19.3678 18.2675 18.7578 19.0225 17.8408L21.6495 19.7098C20.4615 21.3448 18.8605 22.5488 16.0725 22.5488Z" fill="white"/>
</g>
<defs>
<clipPath id="clip0_1_5011">
<rect width="32" height="32" fill="white" transform="translate(0.000488281 0.0078125)"/>
</clipPath>
</defs>
</svg>
