<svg width="32" height="32" viewBox="0 0 32 32" fill="none" xmlns="http://www.w3.org/2000/svg">
<g clip-path="url(#clip0_1_5004)">
<path d="M16.0005 32.0078C24.837 32.0078 32.0005 24.8444 32.0005 16.0078C32.0005 7.17126 24.837 0.0078125 16.0005 0.0078125C7.16393 0.0078125 0.000488281 7.17126 0.000488281 16.0078C0.000488281 24.8444 7.16393 32.0078 16.0005 32.0078Z" fill="black"/>
<path d="M16.0258 4.40589C15.8798 4.07589 16.4078 3.84189 16.5538 4.15589C19.9858 10.0679 23.4178 15.9829 26.8498 21.9039C26.6668 21.9039 26.4908 21.8439 26.3148 21.8159L17.1548 19.9899C16.8548 19.9749 16.7888 19.4899 17.0818 19.4179L20.6758 18.4279C20.7186 18.417 20.7585 18.3968 20.7926 18.3688C20.8268 18.3407 20.8543 18.3054 20.8732 18.2655C20.8921 18.2256 20.902 18.182 20.9021 18.1378C20.9022 18.0936 20.8925 18.0499 20.8738 18.0099L16.0258 4.39789V4.40489V4.40589Z" fill="white"/>
<path d="M15.3705 4.00781C15.4035 4.05581 15.4325 4.10781 15.4575 4.16181C16.5435 7.24181 17.6575 10.3218 18.7355 13.4018C18.8315 13.6578 18.4715 13.8708 18.2955 13.6798C17.3715 12.7118 16.4915 11.7148 15.5825 10.7468C15.4355 10.6148 15.2225 10.7028 15.1275 10.8418L5.68249 21.9378C5.57249 22.0548 5.47749 22.2308 5.29349 22.2528C5.16149 22.2528 5.07349 22.1498 5.00049 22.0478V21.8778C8.46149 15.9238 11.9185 9.96781 15.3705 4.00781Z" fill="white"/>
<path d="M12.6005 15.0192C12.7765 14.9682 13.0105 15.0922 12.9525 15.3052C12.5855 16.5812 12.1975 17.8502 11.8155 19.1182C11.7575 19.2802 11.9035 19.4262 12.0575 19.4342C17.0005 20.4242 21.9435 21.4502 26.8855 22.4402C26.9815 22.4552 27.0475 22.5282 27.1205 22.5872V22.7922L26.9805 22.9392H6.00049C8.20049 20.2992 10.3935 17.6442 12.6005 15.0192Z" fill="white"/>
</g>
<defs>
<clipPath id="clip0_1_5004">
<rect width="32" height="32" fill="white" transform="translate(0.000488281 0.0078125)"/>
</clipPath>
</defs>
</svg>
