<svg width="32" height="32" viewBox="0 0 32 32" fill="none" xmlns="http://www.w3.org/2000/svg">
<g clip-path="url(#clip0_1_5000)">
<path d="M16.0005 32.0078C24.837 32.0078 32.0005 24.8444 32.0005 16.0078C32.0005 7.17126 24.837 0.0078125 16.0005 0.0078125C7.16393 0.0078125 0.000488281 7.17126 0.000488281 16.0078C0.000488281 24.8444 7.16393 32.0078 16.0005 32.0078Z" fill="#3AB03E"/>
<path d="M17.1615 16.7868C17.559 16.5964 17.8947 16.2976 18.1299 15.9249C18.3652 15.5521 18.4905 15.1206 18.4915 14.6798C18.4915 13.3858 17.4295 12.3368 16.1215 12.3368C14.8115 12.3368 13.7485 13.3858 13.7485 14.6798C13.7496 15.1207 13.8752 15.5523 14.1108 15.9249C14.3465 16.2975 14.6826 16.5959 15.0805 16.7858V19.6798H17.1615V16.7868ZM16.1215 23.5078C11.9355 23.5078 8.53149 20.1438 8.53149 16.0078C8.53149 11.8718 11.9355 8.50781 16.1215 8.50781C19.5365 8.50781 22.4315 10.7478 23.3815 13.8198H25.9975C24.9875 9.34981 20.9495 6.00781 16.1205 6.00781C10.5315 6.00781 6.00049 10.4848 6.00049 16.0078C6.00049 21.5308 10.5315 26.0078 16.1205 26.0078C20.9495 26.0078 24.9875 22.6658 25.9975 18.1958H23.3805C22.4305 21.2678 19.5355 23.5078 16.1205 23.5078" fill="white"/>
</g>
<defs>
<clipPath id="clip0_1_5000">
<rect width="32" height="32" fill="white" transform="translate(0.000488281 0.0078125)"/>
</clipPath>
</defs>
</svg>
