<svg width="32" height="32" viewBox="0 0 32 32" fill="none" xmlns="http://www.w3.org/2000/svg">
<g clip-path="url(#clip0_1_4992)">
<path d="M16.0005 32.0078C24.837 32.0078 32.0005 24.8444 32.0005 16.0078C32.0005 7.17126 24.837 0.0078125 16.0005 0.0078125C7.16393 0.0078125 0.000488281 7.17126 0.000488281 16.0078C0.000488281 24.8444 7.16393 32.0078 16.0005 32.0078Z" fill="#F4B731"/>
<path fill-rule="evenodd" clip-rule="evenodd" d="M9.27749 8.00781H15.8295C19.8145 8.00781 22.8355 10.1238 23.9595 13.2018H26.0005V15.0628H24.3895C24.4205 15.3568 24.4365 15.6568 24.4365 15.9608V16.0068C24.4365 16.3488 24.4165 16.6868 24.3765 17.0168H26.0005V18.8768H23.9205C22.7675 21.9128 19.7705 24.0078 15.8305 24.0078H9.27749V18.8768H7.00049V17.0168H9.27749V15.0628H7.00049V13.2028H9.27749V8.00781ZM11.1085 18.8768V22.3388H15.8285C18.7425 22.3388 20.9065 20.9518 21.9135 18.8768H11.1085ZM22.4745 17.0168H11.1085V15.0628H22.4785C22.5195 15.3698 22.5415 15.6848 22.5415 16.0068V16.0518C22.5415 16.3808 22.5185 16.7018 22.4745 17.0158V17.0168ZM15.8305 9.67281C18.7565 9.67281 20.9275 11.0968 21.9285 13.2008H11.1085V9.67381H15.8285L15.8305 9.67281Z" fill="white"/>
</g>
<defs>
<clipPath id="clip0_1_4992">
<rect width="32" height="32" fill="white" transform="translate(0.000488281 0.0078125)"/>
</clipPath>
</defs>
</svg>
