<svg width="32" height="32" viewBox="0 0 32 32" fill="none" xmlns="http://www.w3.org/2000/svg">
<g clip-path="url(#clip0_1_4986)">
<path d="M16.0005 32.0078C24.837 32.0078 32.0005 24.8444 32.0005 16.0078C32.0005 7.17126 24.837 0.0078125 16.0005 0.0078125C7.16393 0.0078125 0.000488281 7.17126 0.000488281 16.0078C0.000488281 24.8444 7.16393 32.0078 16.0005 32.0078Z" fill="#008CE7"/>
<path d="M19.1295 8.00781H11.8535L11.2515 11.3748L17.8135 11.3848C21.0445 11.3848 22.0035 12.5578 21.9725 14.5048C21.9585 15.5028 21.5235 17.1908 21.3395 17.7348C20.8425 19.1948 19.8185 20.8568 15.9805 20.8518L9.60249 20.8478L9.00049 24.2188H16.2575C18.8165 24.2188 19.9065 23.9198 21.0575 23.3888C23.6115 22.2108 25.1325 19.6878 25.7435 16.3948C26.6495 11.4948 25.5195 8.00781 19.1285 8.00781H19.1295Z" fill="white"/>
<path d="M15.8035 15.3878C16.0405 14.4028 16.1155 14.0078 16.1155 14.0078H8.66949C6.76549 14.0078 6.49349 15.2478 6.31249 15.9978C6.07549 16.9788 6.00049 17.3788 6.00049 17.3788H13.4475C15.3505 17.3788 15.6225 16.1388 15.8035 15.3878Z" fill="white"/>
</g>
<defs>
<clipPath id="clip0_1_4986">
<rect width="32" height="32" fill="white" transform="translate(0.000488281 0.0078125)"/>
</clipPath>
</defs>
</svg>
