<svg width="32" height="32" viewBox="0 0 32 32" fill="none" xmlns="http://www.w3.org/2000/svg">
<g clip-path="url(#clip0_1_4982)">
<path d="M16.0005 32.0078C24.837 32.0078 32.0005 24.8444 32.0005 16.0078C32.0005 7.17126 24.837 0.0078125 16.0005 0.0078125C7.16393 0.0078125 0.000488281 7.17126 0.000488281 16.0078C0.000488281 24.8444 7.16393 32.0078 16.0005 32.0078Z" fill="#2D9CDB"/>
<path d="M19.8005 6.00834C20.1925 6.00834 20.5085 6.12834 20.7475 6.36734C20.9865 6.60634 21.1055 6.92134 21.1055 7.31434V18.9883C21.1055 20.3183 20.7905 21.5313 20.1585 22.6233C19.5561 23.6865 18.6815 24.5701 17.6245 25.1833C16.5665 25.7973 15.3805 26.1043 14.0655 26.1043C12.7515 26.1043 11.5485 25.7973 10.4555 25.1833C9.39852 24.5701 8.5239 23.6865 7.92149 22.6233C7.30749 21.5313 7.00049 20.3193 7.00049 18.9883C7.00049 17.6573 7.28149 16.4533 7.84549 15.3783C8.42549 14.2863 9.21049 13.4323 10.2005 12.8183C11.2075 12.2043 12.3255 11.8963 13.5535 11.8963C14.4991 11.8894 15.4341 12.0952 16.2894 12.4985C17.1447 12.9019 17.8983 13.4924 18.4945 14.2263V7.31434C18.4945 6.92134 18.6145 6.60634 18.8535 6.36734C19.1095 6.12747 19.4498 5.99844 19.8005 6.00834ZM14.0655 23.8003C14.9195 23.8003 15.6875 23.5963 16.3695 23.1863C17.0637 22.766 17.6303 22.1644 18.0085 21.4463C18.4005 20.7113 18.5975 19.8923 18.5975 18.9883C18.5975 18.0843 18.4005 17.2723 18.0075 16.5563C17.6338 15.8417 17.066 15.2469 16.3695 14.8403C15.6875 14.4143 14.9195 14.2003 14.0655 14.2003C13.2125 14.2003 12.4355 14.4143 11.7355 14.8403C11.0467 15.2566 10.4813 15.8489 10.0975 16.5563C9.70549 17.2723 9.50949 18.0833 9.50949 18.9883C9.50949 19.8933 9.70549 20.7113 10.0975 21.4453C10.4857 22.1565 11.0501 22.756 11.7365 23.1863C12.4365 23.5963 13.2125 23.8003 14.0665 23.8003H14.0655Z" fill="white"/>
</g>
<defs>
<clipPath id="clip0_1_4982">
<rect width="32" height="32" fill="white" transform="translate(0.000488281 0.0078125)"/>
</clipPath>
</defs>
</svg>
