<svg width="32" height="32" viewBox="0 0 32 32" fill="none" xmlns="http://www.w3.org/2000/svg">
<g clip-path="url(#clip0_1_4978)">
<path d="M16.001 32.0078C24.8375 32.0078 32.001 24.8444 32.001 16.0078C32.001 7.17126 24.8375 0.0078125 16.001 0.0078125C7.16442 0.0078125 0.000976562 7.17126 0.000976562 16.0078C0.000976562 24.8444 7.16442 32.0078 16.001 32.0078Z" fill="#E9570F"/>
<path d="M24.141 9.9218L25.748 8.3278C26.128 7.9518 26.049 7.2638 25.574 6.7928C25.099 6.3208 24.404 6.2438 24.025 6.6208L21.009 9.6108L20.906 9.7138L18.278 12.3188C17.4044 11.6889 16.336 11.3885 15.2622 11.4709C14.1883 11.5532 13.1783 12.013 12.411 12.7688C11.65 13.5226 11.1854 14.525 11.1021 15.5929C11.0187 16.6608 11.3222 17.723 11.957 18.5858L9.95097 20.5758C9.43066 19.8824 9.02888 19.1076 8.76197 18.2828C8.08897 16.2448 8.26997 14.0128 9.36197 12.1728C11.065 9.3028 14.112 8.0548 17 8.4208C17.1454 8.44119 17.2935 8.43142 17.435 8.3921C17.5765 8.35279 17.7084 8.28477 17.8224 8.19227C17.9365 8.09978 18.0303 7.9848 18.098 7.85448C18.1657 7.72417 18.2059 7.58131 18.216 7.4348C18.2349 7.09866 18.1234 6.76816 17.9047 6.51219C17.686 6.25622 17.377 6.09453 17.042 6.0608C14.141 5.7638 11.142 6.7108 8.92697 8.9068C5.25697 12.5448 5.04197 18.3158 8.26697 22.2448L6.42697 24.0698C6.06397 24.4298 6.15397 25.1048 6.62997 25.5758C7.10497 26.0468 7.78497 26.1378 8.14797 25.7778L10.129 23.8138H10.13L11.562 22.3938L11.565 22.3898L13.887 20.0878C14.7126 20.4241 15.6188 20.5109 16.4933 20.3374C17.3678 20.164 18.1722 19.7378 18.807 19.1118C19.4371 18.4883 19.8674 17.6913 20.0428 16.8224C20.2182 15.9534 20.1309 15.0519 19.792 14.2328L22.426 11.6218C24.357 14.5298 23.974 18.5558 21.316 21.1898C20.5167 21.9861 19.5559 22.6016 18.4984 22.9947C17.4409 23.3879 16.3113 23.5495 15.186 23.4688C14.9326 23.4543 14.6836 23.5388 14.4914 23.7045C14.2992 23.8702 14.1789 24.1041 14.156 24.3568L14.128 24.6768C14.1154 24.8168 14.1314 24.9578 14.1749 25.0914C14.2185 25.2251 14.2887 25.3484 14.3814 25.4541C14.4741 25.5597 14.5872 25.6455 14.714 25.7061C14.8408 25.7668 14.9786 25.801 15.119 25.8068C16.5615 25.8842 18.0042 25.6575 19.3535 25.1414C20.7027 24.6252 21.9284 23.8312 22.951 22.8108C26.548 19.2438 26.964 13.7498 24.141 9.9208V9.9218ZM17.14 17.4568C16.7321 17.8586 16.1825 18.0839 15.61 18.0839C15.0374 18.0839 14.4878 17.8586 14.08 17.4568C13.8797 17.2583 13.7207 17.0221 13.6122 16.7618C13.5037 16.5015 13.4478 16.2223 13.4478 15.9403C13.4478 15.6583 13.5037 15.3791 13.6122 15.1188C13.7207 14.8585 13.8797 14.6223 14.08 14.4238C14.4877 14.0217 15.0373 13.7963 15.61 13.7963C16.1826 13.7963 16.7322 14.0217 17.14 14.4238C17.3403 14.6223 17.4993 14.8585 17.6078 15.1188C17.7163 15.3791 17.7722 15.6583 17.7722 15.9403C17.7722 16.2223 17.7163 16.5015 17.6078 16.7618C17.4993 17.0221 17.3403 17.2583 17.14 17.4568Z" fill="white"/>
</g>
<defs>
<clipPath id="clip0_1_4978">
<rect width="32" height="32" fill="white" transform="translate(0.000976562 0.0078125)"/>
</clipPath>
</defs>
</svg>
