<svg width="32" height="32" viewBox="0 0 32 32" fill="none" xmlns="http://www.w3.org/2000/svg">
<g clip-path="url(#clip0_1_4974)">
<path d="M16.001 32.0078C24.8375 32.0078 32.001 24.8444 32.001 16.0078C32.001 7.17126 24.8375 0.0078125 16.001 0.0078125C7.16442 0.0078125 0.000976562 7.17126 0.000976562 16.0078C0.000976562 24.8444 7.16442 32.0078 16.001 32.0078Z" fill="#5BC1D4"/>
<path fill-rule="evenodd" clip-rule="evenodd" d="M13.786 16.9358L12.136 18.6598C11.839 18.9698 11.548 19.2828 11.25 19.5908C11.2 19.6428 11.129 19.6738 11.068 19.7148C10.938 19.6938 10.838 19.6128 10.821 19.4948C10.7934 19.3152 10.7687 19.1352 10.747 18.9548C10.717 18.7168 10.644 18.6508 10.403 18.6208C9.90598 18.5608 9.40998 18.4958 8.91298 18.4308L7.77898 18.2838C7.55298 18.2538 7.47098 18.0918 7.58898 17.8988C7.86098 17.4608 8.13498 17.0248 8.40798 16.5888L10.078 13.9208C10.144 13.8128 10.218 13.7388 10.36 13.7428C10.45 13.7448 10.544 13.7228 10.633 13.6998C10.739 13.6738 10.822 13.7058 10.896 13.7758C11.027 13.8988 11.16 14.0208 11.29 14.1448L12.798 15.5758C13.123 15.8838 13.451 16.1898 13.776 16.4978C13.944 16.6558 13.944 16.7698 13.786 16.9358ZM24.876 19.2548C24.97 19.3328 25.072 19.4068 25.092 19.5398C25.117 19.7098 25.049 19.8328 24.905 19.9258C24.055 20.4758 23.205 21.0288 22.355 21.5798L20.712 22.6448C20.6602 22.6776 20.6107 22.714 20.564 22.7538C20.5226 22.7878 20.4897 22.831 20.468 22.88C20.4463 22.9289 20.4363 22.9823 20.439 23.0358C20.447 23.2408 20.459 23.4458 20.462 23.6498C20.465 23.8848 20.292 24.0318 20.056 24.0048C19.971 23.9936 19.8937 23.9494 19.841 23.8818C19.6433 23.6537 19.446 23.4254 19.249 23.1968C19.002 22.9108 18.756 22.6228 18.508 22.3378C18.4569 22.2868 18.4182 22.2248 18.3948 22.1565C18.3714 22.0882 18.3639 22.0154 18.373 21.9438L18.407 20.7488C18.411 20.6088 18.494 20.5188 18.606 20.4468L19.964 19.5788C20.724 19.0938 21.486 18.6108 22.244 18.1208C22.404 18.0178 22.553 17.9868 22.729 18.0768C22.859 18.1428 23.006 18.1548 23.147 18.1108C23.358 18.0438 23.52 18.1028 23.683 18.2468C24.073 18.5908 24.478 18.9188 24.877 19.2548H24.876ZM17.578 20.2468C17.6397 20.3071 17.6836 20.3832 17.705 20.4668C17.742 20.6538 17.668 20.7808 17.492 20.8658C16.907 21.1478 16.323 21.4328 15.733 21.7058C15.627 21.7538 15.494 21.7598 15.373 21.7658C14.884 21.7878 14.395 21.8008 13.906 21.8208C13.617 21.8318 13.329 21.8498 13.063 21.8638H12.867C12.8226 21.8649 12.7785 21.8571 12.7373 21.8407C12.6961 21.8244 12.6585 21.7999 12.627 21.7688C12.565 21.7118 12.501 21.6568 12.44 21.5988C12.096 21.2718 11.758 20.9388 11.407 20.6188C11.211 20.4408 11.208 20.2018 11.395 20.0108C11.816 19.5768 12.232 19.1388 12.65 18.7008C13.101 18.2288 13.552 17.7548 14.002 17.2808C14.0361 17.2406 14.0781 17.2079 14.1254 17.1845C14.1727 17.1612 14.2243 17.1478 14.2769 17.1452C14.3296 17.1426 14.3822 17.1508 14.4316 17.1693C14.481 17.1878 14.526 17.2162 14.564 17.2528L16.364 19.0418C16.768 19.4438 17.176 19.8418 17.578 20.2468ZM20.056 12.1978C19.863 11.8998 20.081 11.4878 20.402 11.4348C21.26 11.2918 22.115 11.1278 22.972 10.9788C23.161 10.9458 23.311 11.0328 23.415 11.1888C23.595 11.4588 23.772 11.7298 23.95 12.0008C24.326 12.5708 24.703 13.1408 25.075 13.7128C25.125 13.7898 25.15 13.8828 25.187 13.9678L25.165 13.9778C25.1588 14.1238 25.1047 14.2637 25.011 14.3758C24.487 15.0798 23.957 15.7808 23.434 16.4858C23.3846 16.5484 23.3208 16.5979 23.2479 16.6302C23.1751 16.6625 23.0955 16.6766 23.016 16.6712C22.9365 16.6657 22.8595 16.641 22.7917 16.5991C22.7239 16.5573 22.6674 16.4995 22.627 16.4308C21.862 15.1608 21.089 13.8948 20.319 12.6278C20.232 12.4838 20.147 12.3378 20.056 12.1978ZM18.551 15.7298L18.401 17.0648C18.359 17.4348 18.314 17.8028 18.272 18.1728L18.124 19.4728C18.114 19.5638 18.113 19.6568 18.094 19.7448C18.084 19.7878 18.052 19.8428 18.016 19.8568C17.98 19.8708 17.916 19.8508 17.884 19.8238C17.742 19.7008 17.607 19.5708 17.471 19.4418C16.981 18.9778 16.494 18.5128 16.004 18.0508C15.578 17.6478 15.151 17.2478 14.723 16.8478C14.581 16.7158 14.58 16.6738 14.717 16.5308L16.675 14.4808L18.012 13.0768L18.668 12.3868C18.687 12.3668 18.703 12.3398 18.726 12.3318C18.773 12.3148 18.831 12.2918 18.872 12.3048C18.906 12.3168 18.922 12.3778 18.932 12.3948L18.832 13.2748L18.703 14.4058L18.551 15.7298ZM22.357 16.7498C22.421 16.8528 22.431 16.9508 22.361 17.0578C22.2847 17.1778 22.2522 17.3206 22.269 17.4618C22.281 17.5878 22.229 17.6648 22.122 17.7318C21.285 18.2628 20.452 18.7978 19.618 19.3318C19.356 19.4998 19.094 19.6668 18.831 19.8328C18.727 19.8988 18.62 19.8938 18.563 19.8098C18.531 19.7638 18.527 19.6998 18.518 19.6678L18.628 18.8598L18.873 17.0778L19.143 15.1278L19.406 13.2208L19.506 12.5108C19.508 12.4918 19.509 12.4698 19.519 12.4558C19.545 12.4228 19.574 12.3738 19.607 12.3678C19.643 12.3618 19.699 12.3898 19.722 12.4208C19.783 12.5028 19.832 12.5938 19.886 12.6818L21.841 15.8978C22.013 16.1818 22.183 16.4668 22.357 16.7488V16.7498ZM18.304 11.8458C18.335 11.8658 18.395 11.8868 18.427 11.9298C18.476 11.9958 18.433 12.0578 18.382 12.1108L17.702 12.8258L15.72 14.8998C15.306 15.3348 14.894 15.7718 14.48 16.2058C14.33 16.3618 14.21 16.3618 14.054 16.2138C13.571 15.7558 13.088 15.2958 12.604 14.8388C12.134 14.3948 11.662 13.9518 11.19 13.5088C11.127 13.4488 11.077 13.3838 11.084 13.2918C11.094 13.1668 11.166 13.0958 11.309 13.0718C11.57 13.0248 11.832 12.9788 12.094 12.9338L14.609 12.4938L17.579 11.9728L18.304 11.8458ZM11.565 12.4778C12.031 12.1588 12.497 11.8418 12.964 11.5248L17.474 8.4528C17.624 8.3508 17.719 8.3718 17.794 8.5338C18.105 9.1998 18.414 9.8668 18.724 10.5338C18.764 10.6198 18.802 10.7068 18.843 10.7938C18.876 10.8638 18.854 10.9208 18.812 10.9838C18.7574 11.061 18.7111 11.1438 18.674 11.2308C18.641 11.3138 18.591 11.3588 18.501 11.3748C17.837 11.4928 17.174 11.6148 16.511 11.7328L14.157 12.1558L11.587 12.6178C11.551 12.6238 11.514 12.6178 11.477 12.6178L11.455 12.5768C11.492 12.5438 11.525 12.5058 11.565 12.4778ZM6.87498 14.0038C6.58098 13.9978 6.40598 13.7118 6.54698 13.4488C6.66598 13.2268 6.79798 13.0128 6.92598 12.7958C7.29398 12.1668 7.66398 11.5398 8.02998 10.9108C8.0897 10.8081 8.17608 10.7234 8.27998 10.6658C9.25598 10.1048 10.23 9.5408 11.206 8.9788C11.2679 8.94088 11.3359 8.91383 11.407 8.8988C11.4736 8.88564 11.5426 8.89227 11.6055 8.91786C11.6684 8.94344 11.7225 8.98687 11.761 9.0428C11.8036 9.09744 11.8295 9.16325 11.8355 9.23227C11.8415 9.3013 11.8275 9.37059 11.795 9.4318C11.648 9.7458 11.495 10.0568 11.345 10.3688C11.065 10.9408 10.785 11.5118 10.508 12.0848C10.4817 12.1481 10.4409 12.2043 10.3887 12.2488C10.3366 12.2933 10.2746 12.3249 10.208 12.3408C10.0839 12.3704 9.97047 12.4337 9.88011 12.5237C9.78976 12.6137 9.72604 12.7269 9.69598 12.8508C9.68079 12.912 9.64979 12.9681 9.6061 13.0136C9.5624 13.059 9.50753 13.0922 9.44698 13.1098C8.64498 13.3918 7.84398 13.6798 7.04298 13.9648C6.98898 13.9848 6.93198 13.9908 6.87598 14.0048L6.87498 14.0038ZM11.028 12.1778C11.0319 12.1361 11.0435 12.0954 11.062 12.0578L12.11 9.7608C12.328 9.2828 12.549 8.8058 12.764 8.3268C12.814 8.2168 12.887 8.1618 13.011 8.1568C13.338 8.1468 13.665 8.1298 13.992 8.1168L15.922 8.0438C16.148 8.0338 16.375 8.0188 16.602 8.0078C16.764 8.0008 16.875 8.0988 16.876 8.2578C16.883 8.3548 16.821 8.4178 16.741 8.4728L16.123 8.8938L12.429 11.4068L11.249 12.2108C11.2215 12.2316 11.192 12.2497 11.161 12.2648C11.091 12.2948 11.024 12.2528 11.028 12.1778ZM9.66498 13.8278C9.50198 14.0908 9.33698 14.3518 9.17298 14.6138C8.55998 15.5938 7.94698 16.5748 7.33298 17.5538C7.30765 17.6007 7.27373 17.6424 7.23298 17.6768C7.12698 17.7528 6.98598 17.6998 6.93598 17.5668C6.85598 17.3528 6.77998 17.1368 6.70298 16.9218L6.03398 15.0398C6.01798 14.9928 6.00698 14.9448 6.00098 14.9218C6.00198 14.7948 6.04398 14.7408 6.16298 14.7018C6.51898 14.5868 6.87498 14.4738 7.23098 14.3608L9.24598 13.7208L9.51098 13.6388C9.57398 13.6188 9.63698 13.5918 9.68898 13.6618C9.73598 13.7248 9.69698 13.7768 9.66498 13.8278ZM25.783 16.4368L25.985 17.5928C25.991 17.6298 25.995 17.6678 26.001 17.7168C25.991 17.7668 25.98 17.8268 25.964 17.8848L25.699 18.8408C25.623 19.1158 25.405 19.1808 25.185 18.9948C24.734 18.6148 24.281 18.2348 23.828 17.8568C23.725 17.7708 23.682 17.6718 23.706 17.5358C23.7353 17.4004 23.7192 17.2591 23.66 17.1338C23.598 17.0108 23.618 16.9018 23.699 16.7938C24.069 16.2978 24.436 15.7998 24.805 15.3038L25.03 14.9998C25.105 14.8968 25.204 14.8468 25.33 14.8748C25.462 14.9048 25.53 14.9948 25.552 15.1238L25.782 16.4368H25.783ZM18.219 8.4928L18.199 8.4508C18.172 8.3908 18.161 8.3208 18.222 8.2868C18.2755 8.2628 18.336 8.25924 18.392 8.2768C18.48 8.3038 18.559 8.3538 18.642 8.3948L22.004 10.0738L22.601 10.3738C22.668 10.4068 22.721 10.4458 22.707 10.5298C22.693 10.6128 22.63 10.6308 22.557 10.6438C21.749 10.7878 20.942 10.9338 20.135 11.0788L20.056 11.0948C20.033 11.0798 19.989 11.0628 19.961 11.0308C19.8891 10.9404 19.7985 10.8665 19.6955 10.8142C19.5925 10.7619 19.4794 10.7324 19.364 10.7278C19.274 10.7238 19.228 10.6708 19.194 10.5958C19.052 10.2878 18.907 9.9818 18.764 9.6748L18.219 8.4928Z" fill="white"/>
</g>
<defs>
<clipPath id="clip0_1_4974">
<rect width="32" height="32" fill="white" transform="translate(0.000976562 0.0078125)"/>
</clipPath>
</defs>
</svg>
