<svg width="32" height="32" viewBox="0 0 32 32" fill="none" xmlns="http://www.w3.org/2000/svg">
<g clip-path="url(#clip0_1_4970)">
<path d="M16.001 32.0078C24.8375 32.0078 32.001 24.8444 32.001 16.0078C32.001 7.17126 24.8375 0.0078125 16.001 0.0078125C7.16442 0.0078125 0.000976562 7.17126 0.000976562 16.0078C0.000976562 24.8444 7.16442 32.0078 16.001 32.0078Z" fill="#136485"/>
<path fill-rule="evenodd" clip-rule="evenodd" d="M10.605 31.0138C8.50976 30.2354 6.60079 29.0267 5.00098 27.4658L5.14798 27.2088C7.53598 23.4358 9.68098 19.5308 11.296 15.3588C13.009 10.9338 14.38 6.39181 15.686 1.83181C15.803 1.42481 15.942 1.02481 16.07 0.621813C16.208 0.779813 16.258 0.926812 16.3 1.07581C17.12 4.00181 17.913 6.93581 18.764 9.85181C20.314 15.1648 22.494 20.2048 25.381 24.9288C25.718 25.4788 26.291 26.4008 27.101 27.6908C25.3767 29.307 23.3156 30.5207 21.066 31.2448C19.408 26.1851 17.7407 21.1284 16.064 16.0748L15.91 16.0728C14.744 19.3498 12.976 24.3298 10.605 31.0138ZM16.244 0.0568125H16.12L16.169 0.0078125L16.244 0.0568125Z" fill="white"/>
</g>
<defs>
<clipPath id="clip0_1_4970">
<rect width="32" height="32" fill="white" transform="translate(0.000976562 0.0078125)"/>
</clipPath>
</defs>
</svg>
