<svg width="32" height="32" viewBox="0 0 32 32" fill="none" xmlns="http://www.w3.org/2000/svg">
<g clip-path="url(#clip0_1_4966)">
<path d="M16 32.0088C24.8366 32.0088 32 24.8453 32 16.0088C32 7.17223 24.8366 0.00878906 16 0.00878906C7.16344 0.00878906 0 7.17223 0 16.0088C0 24.8453 7.16344 32.0088 16 32.0088Z" fill="#2ED6A1"/>
<path d="M14.856 17.6288H19.276C19.6683 17.6276 20.0564 17.5492 20.4184 17.398C20.7803 17.2468 21.109 17.0258 21.3855 16.7476C21.662 16.4694 21.881 16.1394 22.0301 15.7766C22.1791 15.4137 22.2552 15.025 22.254 14.6328C22.2561 13.8408 21.9436 13.0803 21.3851 12.5187C20.8267 11.957 20.068 11.6402 19.276 11.6378H17.87L14.856 9.00879H19.276C20.576 9.01189 21.8345 9.46705 22.8358 10.2963C23.837 11.1255 24.5187 12.2771 24.764 13.5538C25.0145 14.8312 24.8147 16.1559 24.1986 17.3027C23.5826 18.4494 22.5884 19.3474 21.385 19.8438L24.87 22.8858H20.879L14.856 17.6278V17.6288ZM17.013 14.2688H12.593C11.8011 14.2712 11.0426 14.5879 10.4842 15.1493C9.92578 15.7107 9.61313 16.4709 9.61499 17.2628C9.61287 18.0548 9.9254 18.8153 10.4839 19.3769C11.0423 19.9386 11.801 20.2554 12.593 20.2578H14L17.012 22.8878H12.593C11.293 22.8847 10.0345 22.4295 9.03322 21.6003C8.03197 20.7711 7.35028 19.6195 7.10499 18.3428C6.85454 17.0654 7.05431 15.7406 7.67035 14.5939C8.28638 13.4472 9.28063 12.5492 10.484 12.0528L7.00199 9.00879H10.993L17.013 14.2688Z" fill="white"/>
</g>
<defs>
<clipPath id="clip0_1_4966">
<rect width="32" height="32" fill="white" transform="translate(0 0.00878906)"/>
</clipPath>
</defs>
</svg>
