<svg width="32" height="32" viewBox="0 0 32 32" fill="none" xmlns="http://www.w3.org/2000/svg">
<g clip-path="url(#clip0_1_4962)">
<path d="M16 32.0088C24.8366 32.0088 32 24.8453 32 16.0088C32 7.17223 24.8366 0.00878906 16 0.00878906C7.16344 0.00878906 0 7.17223 0 16.0088C0 24.8453 7.16344 32.0088 16 32.0088Z" fill="#939393"/>
<path fill-rule="evenodd" clip-rule="evenodd" d="M13.707 19.8688C14.072 19.6318 16.525 18.1288 18.915 16.6648C20.638 15.6108 20.638 15.6108 20.608 15.5078C20.578 15.3828 9.908 8.89879 9.799 8.83379C9.59632 8.7141 9.39563 8.59108 9.197 8.46479C9.393 8.32879 9.774 8.06879 10.23 7.75879L11.34 7.00879L12.102 7.46479C13.042 8.02679 23.362 14.3568 24.808 15.2578C24.218 15.6128 22.128 16.8498 19.318 18.5048L13.735 21.7948C13.7248 21.5035 13.7182 21.2122 13.715 20.9208C13.7087 20.5705 13.7064 20.2201 13.708 19.8698L13.707 19.8688ZM11.339 13.5728C11.524 13.6828 11.844 13.8758 12.238 14.1208L13.267 14.7588L13.289 16.6888C13.354 22.2658 13.354 22.2658 13.435 22.3228L13.489 22.3598L13.549 22.3378C13.579 22.3288 13.59 22.3248 24.42 15.9358L25 15.5938L24.809 18.2768L24.739 18.3168C20.2799 20.8782 15.8169 23.4329 11.35 25.9808C11.346 25.2818 11.34 22.8958 11.339 19.7848V13.5728ZM9 24.8088L9.025 8.84179L9.413 9.07079C9.725 9.25279 11.829 10.5358 14.206 11.9898C15.9081 13.0333 17.6128 14.0727 19.32 15.1078L20.035 15.5378L17.671 16.9838L17.199 16.7088C16.2523 16.1371 15.3089 15.5597 14.369 14.9768C13.4525 14.4084 12.5325 13.8457 11.609 13.2888L10.957 12.9088L10.952 19.6778C10.95 22.7318 10.947 25.2698 10.945 26.0098C10.752 25.8928 10.423 25.6898 10.037 25.4498L9 24.8088Z" fill="white"/>
</g>
<defs>
<clipPath id="clip0_1_4962">
<rect width="32" height="32" fill="white" transform="translate(0 0.00878906)"/>
</clipPath>
</defs>
</svg>
