<svg width="32" height="32" viewBox="0 0 32 32" fill="none" xmlns="http://www.w3.org/2000/svg">
<g clip-path="url(#clip0_1_4958)">
<path d="M16 32.0088C24.8366 32.0088 32 24.8453 32 16.0088C32 7.17223 24.8366 0.00878906 16 0.00878906C7.16344 0.00878906 0 7.17223 0 16.0088C0 24.8453 7.16344 32.0088 16 32.0088Z" fill="#666666"/>
<path fill-rule="evenodd" clip-rule="evenodd" d="M25.0804 21.1588C24.8746 21.5022 24.5426 21.7515 24.1554 21.8533C23.7682 21.9552 23.3565 21.9015 23.0084 21.7038L18.2294 18.9938V17.2738L19.7474 16.4138L24.5254 19.1228C25.2514 19.5338 25.4994 20.4458 25.0804 21.1578V21.1588ZM17.5154 24.8178C17.5154 25.6408 16.8364 26.3078 15.9984 26.3078C15.1604 26.3078 14.4814 25.6408 14.4814 24.8178V19.3988L15.9984 18.5388L17.5154 19.3988V24.8178ZM8.98841 21.7038C8.64015 21.9014 8.22838 21.9549 7.84118 21.8529C7.45397 21.7509 7.12205 21.5014 6.91641 21.1578C6.81714 20.9883 6.75272 20.8006 6.72691 20.6059C6.70111 20.4111 6.71444 20.2132 6.76613 20.0236C6.81782 19.8341 6.90683 19.6568 7.02794 19.5021C7.14905 19.3474 7.29982 19.2185 7.47141 19.1228L12.2494 16.4128L13.7674 17.2738V18.9938L8.98841 21.7038ZM7.47141 12.8948C7.29982 12.7991 7.14905 12.6702 7.02794 12.5155C6.90683 12.3608 6.81782 12.1835 6.76613 11.994C6.71444 11.8044 6.70111 11.6065 6.72691 11.4117C6.75272 11.217 6.81714 11.0293 6.91641 10.8598C7.12205 10.5162 7.45397 10.2667 7.84118 10.1647C8.22838 10.0626 8.64015 10.1162 8.98841 10.3138L13.7674 13.0238V14.7438L12.2494 15.6038L7.47141 12.8948ZM14.4814 7.19979C14.4814 6.37679 15.1614 5.70979 15.9984 5.70979C16.8364 5.70979 17.5154 6.37679 17.5154 7.19979V12.6178L15.9984 13.4788L14.4814 12.6188V7.19979ZM18.2294 15.5538L19.0334 16.0088L18.2294 16.4638V15.5538ZM16.7124 13.8838L17.5154 13.4278V14.3388L16.7124 13.8838ZM14.4814 14.3388V13.4288L15.2844 13.8838L14.4814 14.3388ZM13.7674 16.4638L12.9634 16.0088L13.7674 15.5538V16.4638ZM15.2844 18.1338L14.4814 18.5898V17.6788L15.2844 18.1338ZM17.5154 17.6788V18.5888L16.7124 18.1338L17.5154 17.6788ZM15.9984 17.7288L14.4814 16.8688V15.1488L15.9984 14.2888L17.5154 15.1488V16.8688L15.9984 17.7288ZM23.0084 10.3138C23.3567 10.1162 23.7684 10.0626 24.1556 10.1647C24.5428 10.2667 24.8748 10.5162 25.0804 10.8598C25.5004 11.5718 25.2504 12.4838 24.5254 12.8948L19.7474 15.6048L18.2294 14.7438V13.0238L23.0084 10.3138ZM24.8824 18.5158L20.4614 16.0088L24.8824 13.5018C25.1349 13.3612 25.3568 13.1717 25.5351 12.9442C25.7133 12.7167 25.8444 12.4559 25.9205 12.1771C25.9966 11.8983 26.0162 11.6072 25.9783 11.3207C25.9403 11.0342 25.8455 10.7581 25.6994 10.5088C25.0834 9.46079 23.7184 9.10179 22.6514 9.70679L18.2294 12.2138V7.19879C18.2294 5.98979 17.2304 5.00879 15.9984 5.00879C14.7664 5.00879 13.7674 5.98979 13.7674 7.19979V12.2138L9.34541 9.70679C8.27841 9.10179 6.91341 9.46079 6.29841 10.5088C6.15232 10.7581 6.05752 11.0342 6.01956 11.3207C5.9816 11.6072 6.00124 11.8983 6.07735 12.1771C6.15345 12.4559 6.28447 12.7167 6.46273 12.9442C6.64099 13.1717 6.86289 13.3612 7.11541 13.5018L11.5354 16.0088L7.11541 18.5158C6.86281 18.6563 6.64081 18.8458 6.46245 19.0732C6.28409 19.3006 6.15297 19.5614 6.07677 19.8402C6.00057 20.119 5.98084 20.4102 6.01873 20.6968C6.05661 20.9833 6.15136 21.2594 6.29741 21.5088C6.91341 22.5568 8.27841 22.9158 9.34541 22.3108L13.7674 19.8038V24.8178C13.7674 26.0278 14.7664 27.0088 15.9984 27.0088C17.2304 27.0088 18.2294 26.0278 18.2294 24.8178V19.8038L22.6514 22.3108C23.7184 22.9158 25.0834 22.5568 25.6994 21.5088C25.8455 21.2594 25.9403 20.9834 25.9783 20.6969C26.0162 20.4104 25.9966 20.1192 25.9205 19.8404C25.8444 19.5616 25.7133 19.3009 25.5351 19.0734C25.3568 18.8459 25.1349 18.6563 24.8824 18.5158Z" fill="white"/>
</g>
<defs>
<clipPath id="clip0_1_4958">
<rect width="32" height="32" fill="white" transform="translate(0 0.00878906)"/>
</clipPath>
</defs>
</svg>
