<svg width="32" height="32" viewBox="0 0 32 32" fill="none" xmlns="http://www.w3.org/2000/svg">
<g clip-path="url(#clip0_1_4954)">
<path d="M16 32.0088C24.8366 32.0088 32 24.8453 32 16.0088C32 7.17223 24.8366 0.00878906 16 0.00878906C7.16344 0.00878906 0 7.17223 0 16.0088C0 24.8453 7.16344 32.0088 16 32.0088Z" fill="#FEC907"/>
<path d="M12.661 22.8248C13.279 22.8248 13.781 23.3148 13.781 23.9168C13.781 24.5198 13.279 25.0088 12.661 25.0088H11.208C10.888 25.0088 10.58 24.8848 10.354 24.6638C10.2423 24.5557 10.1534 24.4262 10.0926 24.2831C10.0318 24.1401 10.0003 23.9862 10 23.8308V8.15779C10 7.85279 10.124 7.56079 10.345 7.34479C10.565 7.12979 10.865 7.00879 11.178 7.00879H12.735C13.353 7.00879 13.855 7.49779 13.855 8.10079C13.855 8.39079 13.736 8.66779 13.526 8.87279C13.316 9.07679 13.031 9.19279 12.735 9.19279H12.39V22.8248H12.661ZM24.831 11.3728C25.61 12.7108 26 14.2078 26 15.8638C26 17.5198 25.605 19.0168 24.818 20.3558C24.031 21.6948 23.156 22.7208 21.719 23.6498C20.399 24.5038 19.021 25.0078 17.312 25.0078H16.745C16.127 25.0078 15.625 24.5188 15.625 23.9158C15.625 23.3128 16.127 22.8248 16.745 22.8248H17.435C18.645 22.8248 19.524 22.3238 20.511 21.7548C21.497 21.1868 22.129 20.2558 22.701 19.2518C23.274 18.2488 23.561 17.1278 23.561 15.8898C23.56 14.6348 23.27 13.5058 22.689 12.5018C22.1233 11.5129 21.3028 10.6938 20.313 10.1298C19.309 9.55279 18.193 9.26379 16.966 9.26379H16.669C16.051 9.26379 15.549 8.77579 15.549 8.17279C15.549 7.88279 15.668 7.60479 15.878 7.40079C16.088 7.19579 16.372 7.08079 16.669 7.08079H17.018C18.71 7.08079 20.24 7.46079 21.608 8.22279C22.9502 8.95829 24.0649 10.0478 24.831 11.3728Z" fill="white"/>
</g>
<defs>
<clipPath id="clip0_1_4954">
<rect width="32" height="32" fill="white" transform="translate(0 0.00878906)"/>
</clipPath>
</defs>
</svg>
