<svg width="32" height="32" viewBox="0 0 32 32" fill="none" xmlns="http://www.w3.org/2000/svg">
<g clip-path="url(#clip0_1_4950)">
<path d="M16 32.0088C24.8366 32.0088 32 24.8453 32 16.0088C32 7.17223 24.8366 0.00878906 16 0.00878906C7.16344 0.00878906 0 7.17223 0 16.0088C0 24.8453 7.16344 32.0088 16 32.0088Z" fill="#006AD2"/>
<path fill-rule="evenodd" clip-rule="evenodd" d="M12.868 25.0087L13.347 23.7267L12.497 23.8107L12.191 24.6207C12.167 24.6817 12.147 24.7457 12.116 24.8037C12.049 24.9287 11.946 25.0067 11.803 25.0077C11.173 25.0087 10.545 25.0077 9.915 25.0067C9.9 25.0067 9.885 24.9977 9.852 24.9877L10.254 23.9027C9.521 23.8827 8.808 23.8707 8.098 23.7897C8.11 23.6567 12.16 13.4447 12.321 13.1377C12.361 13.1347 12.408 13.1277 12.456 13.1277H15.726C15.759 13.1277 15.792 13.1277 15.824 13.1297C16.155 13.1547 16.339 13.4347 16.224 13.7527C16.071 14.1727 15.909 14.5907 15.752 15.0087L13.694 20.4827C13.673 20.5387 13.655 20.5967 13.629 20.6727C13.687 20.6757 13.732 20.6817 13.777 20.6797C16.873 20.5447 19.145 19.0667 20.613 16.2897C20.934 15.6827 21.16 15.0302 21.283 14.3547C21.356 13.9597 21.379 13.5637 21.28 13.1687C21.1802 12.7519 20.9321 12.3858 20.582 12.1387C20.114 11.8017 19.588 11.6577 19.02 11.6547H8C8.024 11.5947 8.035 11.5547 8.054 11.5187L9.442 9.01768C9.50676 8.88728 9.60789 8.77842 9.73317 8.70424C9.85845 8.63007 10.0025 8.59375 10.148 8.59968H16.014L16.615 7.00968H18.397C18.441 7.00968 18.485 7.00668 18.527 7.01268C18.654 7.03268 18.727 7.13268 18.708 7.26268C18.7 7.31668 18.68 7.36868 18.66 7.42068C18.537 7.75168 18.411 8.08168 18.288 8.41268C18.267 8.46868 18.25 8.52568 18.228 8.59268H19.033C19.053 8.54968 19.073 8.50568 19.091 8.46068L19.587 7.14368C19.637 7.01068 19.639 7.00968 19.772 7.00968C20.336 7.00968 20.901 7.00768 21.465 7.00968C21.703 7.01068 21.788 7.13668 21.703 7.36668C21.568 7.73568 21.429 8.10168 21.291 8.46868C21.272 8.51968 21.255 8.57168 21.231 8.64168C21.286 8.65168 21.331 8.66168 21.376 8.66768C22.161 8.76368 22.925 8.94168 23.65 9.26868C24.201 9.51768 24.702 9.84268 25.114 10.2987C25.672 10.9137 25.949 11.6487 25.993 12.4787C26.035 13.2837 25.888 14.0597 25.621 14.8087C24.989 16.5837 24.091 18.1967 22.791 19.5557C21.895 20.4917 20.861 21.2357 19.727 21.8377C18.503 22.4877 17.209 22.9427 15.869 23.2647C15.749 23.2947 15.686 23.3467 15.645 23.4647C15.498 23.8747 15.342 24.2827 15.188 24.6907C15.093 24.9407 14.998 25.0087 14.736 25.0087H12.868Z" fill="white"/>
</g>
<defs>
<clipPath id="clip0_1_4950">
<rect width="32" height="32" fill="white" transform="translate(0 0.00878906)"/>
</clipPath>
</defs>
</svg>
