<svg width="32" height="32" viewBox="0 0 32 32" fill="none" xmlns="http://www.w3.org/2000/svg">
<g clip-path="url(#clip0_1_4942)">
<path d="M16.0005 32.0088C24.837 32.0088 32.0005 24.8453 32.0005 16.0088C32.0005 7.17223 24.837 0.00878906 16.0005 0.00878906C7.16393 0.00878906 0.000488281 7.17223 0.000488281 16.0088C0.000488281 24.8453 7.16393 32.0088 16.0005 32.0088Z" fill="#F4AE95"/>
<path d="M15.8072 9.46675L9.71323 22.4737H19.8302C20.1232 22.4737 20.3882 22.6537 20.5032 22.9287L20.5142 22.9537C20.5518 23.0433 20.5686 23.1403 20.5632 23.2373C20.5579 23.3343 20.5305 23.4289 20.4832 23.5137C20.4006 23.663 20.2797 23.7876 20.1329 23.8746C19.9861 23.9616 19.8188 24.0079 19.6482 24.0087H8.89623C8.72984 24.0085 8.56742 23.9579 8.43023 23.8637L8.37423 23.8257C8.20494 23.7076 8.08295 23.5333 8.02987 23.3338C7.97679 23.1343 7.99605 22.9224 8.08423 22.7357L15.2742 7.58674C15.3492 7.42874 15.4562 7.28875 15.5872 7.17675C15.7109 7.07014 15.8682 7.01066 16.0314 7.00883C16.1946 7.007 16.3533 7.06294 16.4792 7.16674C16.5364 7.21335 16.5826 7.2721 16.6142 7.33874L23.9072 22.5907C24.0072 22.7977 24.0272 23.0347 23.9652 23.2567C23.933 23.3776 23.8618 23.4845 23.7628 23.561C23.6638 23.6374 23.5423 23.6791 23.4172 23.6797H23.3332C23.1654 23.6787 23.0013 23.6296 22.8606 23.5381C22.7199 23.4467 22.6083 23.3167 22.5392 23.1637L16.2492 9.46874C16.2303 9.42605 16.1995 9.3897 16.1605 9.364C16.1215 9.33829 16.0759 9.32432 16.0292 9.32374C15.9824 9.32377 15.9366 9.33726 15.8972 9.36262C15.8579 9.38797 15.8266 9.42412 15.8072 9.46675Z" fill="white"/>
</g>
<defs>
<clipPath id="clip0_1_4942">
<rect width="32" height="32" fill="white" transform="translate(0.000488281 0.00878906)"/>
</clipPath>
</defs>
</svg>
