<svg width="32" height="32" viewBox="0 0 32 32" fill="none" xmlns="http://www.w3.org/2000/svg">
<g clip-path="url(#clip0_1_4938)">
<path d="M16.0005 32.0088C24.837 32.0088 32.0005 24.8453 32.0005 16.0088C32.0005 7.17223 24.837 0.00878906 16.0005 0.00878906C7.16393 0.00878906 0.000488281 7.17223 0.000488281 16.0088C0.000488281 24.8453 7.16393 32.0088 16.0005 32.0088Z" fill="#2C398F"/>
<path d="M24.5759 19.1087C25.1023 19.0825 25.6045 18.8792 26.0009 18.5317C25.4499 21.3477 23.9099 24.1187 21.2669 25.6417C19.2449 26.8197 16.7169 27.2117 14.2589 26.9117C13.8909 25.8497 12.9259 24.7187 11.2489 23.8647C8.60587 22.5027 7.36487 20.1477 6.23887 21.3017C6.13487 21.4017 6.04887 21.5187 5.98587 21.6477C5.93554 21.542 5.8895 21.4342 5.84787 21.3247C3.68787 15.9687 5.84787 10.5887 10.1679 6.73373C12.7419 4.44773 15.7519 4.70173 18.4409 5.94873C18.2795 6.07909 18.15 6.24461 18.0623 6.43265C17.9746 6.62069 17.931 6.82628 17.9349 7.03373V12.4357C16.8171 11.7848 15.5037 11.5538 14.2309 11.7844C12.9581 12.015 11.8093 12.692 10.9909 13.6937C10.1692 14.6976 9.72899 15.9596 9.74802 17.2567C9.76706 18.5538 10.2441 19.8024 11.0949 20.7817C11.9427 21.7586 13.1111 22.4011 14.3901 22.5937C15.6691 22.7864 16.9749 22.5165 18.0729 21.8327C18.2073 22.1224 18.437 22.3573 18.7235 22.4984C19.0101 22.6395 19.3363 22.6781 19.6479 22.608C19.9595 22.5379 20.2376 22.3632 20.4361 22.113C20.6346 21.8627 20.7415 21.5521 20.7389 21.2327V7.31073C22.8069 8.76473 24.4609 10.6117 25.2189 11.8817C25.5889 12.5197 25.8529 13.2137 26.0009 13.9367C25.6759 13.6967 25.2969 13.5367 24.8979 13.4747C24.0479 13.4287 23.4039 14.5837 23.8409 16.2447C24.2089 17.7467 23.7489 19.0627 24.5759 19.1087ZM14.2129 19.2007C11.3169 17.5387 13.7529 13.2677 16.6489 14.9297C17.5219 15.4147 17.6139 16.9617 17.4529 17.9537C17.1539 19.6627 15.5459 19.9627 14.2129 19.2007ZM15.5689 8.16473C14.9249 8.18773 14.4659 8.97273 14.4889 9.31973C14.5109 9.66573 14.9939 9.87373 15.6599 9.64273C16.2579 9.43473 16.8099 9.57273 16.7859 9.22673C16.7629 8.88073 16.1889 8.14173 15.5689 8.16473Z" fill="white"/>
</g>
<defs>
<clipPath id="clip0_1_4938">
<rect width="32" height="32" fill="white" transform="translate(0.000488281 0.00878906)"/>
</clipPath>
</defs>
</svg>
