<svg width="32" height="32" viewBox="0 0 32 32" fill="none" xmlns="http://www.w3.org/2000/svg">
<g clip-path="url(#clip0_1_4934)">
<path d="M16.0005 32.0088C24.837 32.0088 32.0005 24.8453 32.0005 16.0088C32.0005 7.17223 24.837 0.00878906 16.0005 0.00878906C7.16393 0.00878906 0.000488281 7.17223 0.000488281 16.0088C0.000488281 24.8453 7.16393 32.0088 16.0005 32.0088Z" fill="#786DBC"/>
<path d="M15.9299 10.7808L14.3009 9.14779C14.0816 8.938 13.9546 8.64968 13.9478 8.34625C13.9411 8.04281 14.0551 7.74912 14.2649 7.52979C14.4747 7.31045 14.763 7.18344 15.0665 7.17669C15.3699 7.16994 15.6636 7.284 15.8829 7.49379L15.9209 7.53179L19.5569 11.1678C20.0039 11.6148 20.0039 12.3378 19.5569 12.7848L15.9169 16.4208C15.701 16.6268 15.413 16.7402 15.1145 16.7367C14.816 16.7332 14.5308 16.6131 14.3197 16.402C14.1086 16.191 13.9885 15.9057 13.985 15.6072C13.9815 15.3088 14.0949 15.0208 14.3009 14.8048L16.0079 13.0978C14.8579 12.8948 13.6732 13.0503 12.6145 13.5431C11.5557 14.036 10.6741 14.8425 10.0891 15.8532C9.50404 16.864 9.2439 18.0301 9.34389 19.1937C9.44387 20.3572 9.89916 21.4619 10.648 22.358C11.3969 23.2542 12.4032 23.8984 13.5305 24.2034C14.6578 24.5084 15.8517 24.4595 16.9502 24.0633C18.0488 23.667 18.999 22.9426 19.6721 21.9882C20.3451 21.0339 20.7085 19.8956 20.7129 18.7278V6.15179C20.7129 5.84865 20.8334 5.55792 21.0477 5.34357C21.2621 5.12921 21.5528 5.00879 21.8559 5.00879C22.1591 5.00879 22.4498 5.12921 22.6642 5.34357C22.8785 5.55792 22.9989 5.84865 22.9989 6.15179V18.8808C22.967 20.4956 22.4471 22.063 21.5074 23.3767C20.5678 24.6904 19.2526 25.689 17.7347 26.241C16.2168 26.793 14.5673 26.8726 13.0033 26.4694C11.4393 26.0662 10.0339 25.199 8.97215 23.9819C7.91034 22.7648 7.24181 21.2548 7.05448 19.6506C6.86716 18.0463 7.16981 16.4229 7.92263 14.9939C8.67546 13.565 9.84319 12.3973 11.2722 11.6446C12.7013 10.8919 14.3247 10.5893 15.9289 10.7768L15.9299 10.7808Z" fill="white"/>
</g>
<defs>
<clipPath id="clip0_1_4934">
<rect width="32" height="32" fill="white" transform="translate(0.000488281 0.00878906)"/>
</clipPath>
</defs>
</svg>
