<svg width="32" height="32" viewBox="0 0 32 32" fill="none" xmlns="http://www.w3.org/2000/svg">
<g clip-path="url(#clip0_1_4930)">
<path d="M16 32C24.8366 32 32 24.8366 32 16C32 7.16344 24.8366 0 16 0C7.16344 0 0 7.16344 0 16C0 24.8366 7.16344 32 16 32Z" fill="#988430"/>
<path d="M16 31.4875C24.5535 31.4875 31.4875 24.5535 31.4875 16C31.4875 7.4465 24.5535 0.512512 16 0.512512C7.4465 0.512512 0.512512 7.4465 0.512512 16C0.512512 24.5535 7.4465 31.4875 16 31.4875Z" fill="#7A6A2A"/>
<path d="M16 31.1612C24.3733 31.1612 31.1612 24.3733 31.1612 16C31.1612 7.62672 24.3733 0.838837 16 0.838837C7.62671 0.838837 0.838821 7.62672 0.838821 16C0.838821 24.3733 7.62671 31.1612 16 31.1612Z" fill="#BA9F33"/>
<path fill-rule="evenodd" clip-rule="evenodd" d="M6.99546 14.2913C6.90483 14.2085 6.80909 14.1256 6.72102 14.0428C6.63296 13.96 6.54251 13.8771 6.45188 13.7943L6.18257 13.5383C6.13854 13.4943 6.09195 13.4555 6.04792 13.4113C6.00388 13.3726 5.95217 13.3286 5.90814 13.2896C5.55076 12.9505 5.19134 12.6114 4.83891 12.2721C5.20397 12.6061 5.56134 12.9377 5.9264 13.2767L6.05321 13.4036C6.09724 13.4475 6.14383 13.4864 6.18786 13.5305L6.457 13.7789C6.54763 13.8617 6.63569 13.9447 6.72632 14.0349C6.81694 14.1252 6.905 14.2083 6.99563 14.2909L6.99546 14.2913ZM2.25246 14.2401C2.25246 14.2401 3.55209 14.3746 4.18645 14.4652C4.77406 14.5481 6.61231 14.8302 6.61231 14.8302L2.25246 14.2401ZM2.25246 14.2401C2.61752 14.2711 2.98257 14.3099 3.34763 14.3488C3.534 14.3669 3.71268 14.3875 3.89137 14.4056L4.16563 14.4369C4.25626 14.4497 4.34432 14.4626 4.43494 14.4756L5.52243 14.649L6.06601 14.7396C6.24469 14.7707 6.42338 14.8045 6.60975 14.8355C6.43106 14.8174 6.24469 14.7915 6.06601 14.7656L5.52243 14.6879L4.43494 14.5275C4.34432 14.5145 4.25626 14.4963 4.16563 14.4835L3.8912 14.4519C3.71251 14.4338 3.52614 14.4078 3.34746 14.387C2.9824 14.3432 2.61734 14.2964 2.25229 14.2396L2.25246 14.2401ZM6.48294 15.1689C6.48294 15.1689 5.09525 15.5211 4.6266 15.6558C4.1658 15.7826 2.77026 16.2072 2.77026 16.2072L6.48277 15.169L6.48294 15.1689Z" fill="#CFB66C"/>
<path fill-rule="evenodd" clip-rule="evenodd" d="M6.48277 15.1689C6.17472 15.2595 5.86837 15.3475 5.55588 15.4305L4.62899 15.679C4.32094 15.7696 4.01459 15.8577 3.70739 15.9483L3.24659 16.0751C3.09384 16.1191 2.93854 16.1579 2.78067 16.2021C2.93325 16.1509 3.08872 16.0985 3.24147 16.0544L3.70227 15.907C4.01032 15.8111 4.31667 15.7204 4.62387 15.6247C4.93704 15.5471 5.24527 15.4641 5.55844 15.389C5.85608 15.3139 6.16943 15.239 6.48277 15.169V15.1689ZM2.96448 17.0615C3.11705 17.0045 4.87765 16.184 5.28674 15.9923C5.49154 15.8964 6.08682 15.6851 6.08682 15.6851L2.96448 17.0615Z" fill="#CFB66C"/>
<path fill-rule="evenodd" clip-rule="evenodd" d="M2.96448 17.0615C3.09897 17.0103 3.22594 16.9477 3.35531 16.8882L3.73845 16.7095L4.50748 16.3393C4.76348 16.2176 5.01231 16.0833 5.27633 15.9689C5.41099 15.9121 5.54564 15.8655 5.68013 15.8215L5.88493 15.7568C5.95473 15.7387 6.01958 15.7179 6.08973 15.6998C5.83373 15.8215 5.56425 15.9251 5.3079 16.044C5.0519 16.171 4.7901 16.2746 4.52591 16.3884L3.74409 16.7327C3.4816 16.839 3.2256 16.9528 2.96431 17.0615H2.96448ZM3.13515 17.7783C3.13515 17.7783 4.72986 16.8438 5.27872 16.5434C5.56612 16.383 6.49557 15.922 6.49557 15.922L3.13515 17.7783Z" fill="#CFB66C"/>
<path fill-rule="evenodd" clip-rule="evenodd" d="M3.13531 17.7787C3.40446 17.613 3.67889 17.4447 3.95332 17.2739L4.36292 17.0252C4.5027 16.9424 4.63735 16.8648 4.77986 16.782C4.91963 16.6991 5.05429 16.6163 5.19663 16.5386C5.26439 16.4968 5.33538 16.4604 5.40894 16.4299L5.62637 16.3212C5.91377 16.1814 6.20117 16.0389 6.5041 15.9172C6.22967 16.0908 5.94739 16.2384 5.66528 16.391C5.5255 16.4687 5.38299 16.5386 5.24322 16.6163C5.10344 16.6939 4.96879 16.7769 4.82628 16.852C4.6865 16.9348 4.55185 17.0124 4.40951 17.0875L3.98745 17.3179L3.13566 17.7787H3.13531ZM6.48277 16.1268C6.48277 16.1268 5.4912 16.888 5.17017 17.1314C4.84915 17.3747 3.90417 18.0582 3.90417 18.0582L6.48277 16.1268Z" fill="#CFB66C"/>
<path fill-rule="evenodd" clip-rule="evenodd" d="M12.1735 22.2653L11.6661 21.3048L11.9612 20.1035L14.066 19.2906L13.1702 17.4525L13.6129 15.5962L14.444 13.9339L17.0124 13.5301L18.8996 11.7308L22.9748 12.0388L23.7747 16.3961L22.2343 21.8822L21.3567 24.7224L17.7993 24.8571L16.1476 23.7128L14.2136 22.9048L12.1735 22.2653Z" fill="#E2CC85"/>
<path fill-rule="evenodd" clip-rule="evenodd" d="M18.4131 22.2343C18.4131 22.2343 17.921 22.4596 17.0819 22.4077C16.839 22.0815 15.1381 21.9288 15.1381 21.9288C15.1381 21.9288 14.9258 21.8641 14.5504 22.0194C14.1725 22.173 13.8151 22.1541 13.4811 22.2368C13.1471 22.3196 12.8155 21.8847 12.5595 21.7941C12.3035 21.6984 11.9641 21.468 11.9641 21.468L11.2473 21.398L9.80787 20.7896L7.52111 18.5114L6.89971 19.4842L6.70805 20.688L7.39942 22.1146L9.26089 23.8104L12.8906 24.732L15.042 24.0981L17.7372 22.9589L18.4131 22.2341V22.2343Z" fill="#F1D789"/>
<path fill-rule="evenodd" clip-rule="evenodd" d="M5.51714 14.1826L5.97794 12.7872L6.52697 11.8861L8.29508 11.7385L7.76431 13.2868L6.28616 15.9172L6.89971 18.2654L5.81239 18.809L5.47823 18.2965L5.20908 17.1211L5.19099 15.8007L5.51714 14.1826Z" fill="#F4ECB4"/>
<path fill-rule="evenodd" clip-rule="evenodd" d="M7.50028 22.1385L7.16117 21.6648C7.16117 21.6648 7.07054 21.4395 7.12243 21.2427C7.17363 21.0434 7.16629 21.0304 7.14052 20.9553C7.11475 20.8802 6.89715 20.6213 6.91012 20.3986C6.92292 20.1733 6.89203 20.0982 7.05757 19.9197C7.23097 19.7463 7.17926 19.4459 7.17926 19.4459L7.40454 19.5857L7.45574 19.5081C7.45574 19.5081 7.53851 19.5727 7.53851 19.6738C7.5566 19.534 7.48151 18.8867 7.65235 18.7392C7.82318 18.5917 8.12612 19.4304 8.12612 19.4304L7.93975 18.2136L7.46069 16.9658L6.60889 15.8266L6.55769 14.5708V14.4621C6.55769 14.4621 6.16669 15.0629 6.05798 15.5373C5.98032 15.8635 6.16669 16.2596 6.12795 16.7282C6.09672 17.1943 6.05798 17.158 6.17181 17.3426C6.28565 17.5273 6.56281 17.907 6.4541 18.1815C6.35835 18.4172 6.03204 18.2514 6.03204 18.2514C6.03204 18.2514 5.96735 18.4429 5.87929 18.5129C5.84823 18.3991 5.81461 18.3265 5.75248 18.2569C5.74719 18.3009 5.73439 18.3605 5.73439 18.3605C5.73439 18.3605 5.67739 18.1818 5.62039 17.9565C5.54291 17.6563 5.45996 17.2602 5.38487 17.0479C5.35381 17.1696 5.27615 17.5398 5.27615 17.5398L5.32019 18.1094L5.5325 18.8913L5.7373 19.4033L5.93663 20.0298L6.10986 20.4507L6.24964 20.7717L6.37132 21.4941L6.95893 22.1153L7.27227 22.2553L7.49994 22.1387L7.50028 22.1385Z" fill="#F3E19D"/>
<path fill-rule="evenodd" clip-rule="evenodd" d="M5.82519 13.0434C5.82519 13.0434 5.40313 13.7602 5.28162 14.4828C5.1601 15.2054 5.05122 15.9689 5.12802 16.9527C5.20567 17.9444 5.3533 18.5527 5.47242 18.9877C5.67722 19.7101 6.20765 20.7147 6.20765 20.7147L6.22575 20.6758C6.13659 20.5068 6.06543 20.3289 6.01344 20.145C5.94346 19.8706 5.91752 19.5444 5.85284 19.3968C5.79584 19.2493 5.70009 19.1224 5.6535 18.9411C5.60947 18.7677 5.6023 18.4933 5.46713 18.2888C5.41013 18.2059 5.34016 17.9884 5.31951 17.771C5.29356 17.4447 5.33248 17.0796 5.30141 16.7794C5.24441 16.2797 5.20567 15.9406 5.25738 15.679C5.30909 15.4174 5.57858 14.6746 5.74429 14.0843C5.85301 13.7062 5.78816 13.3878 5.98749 13.0589C6.18683 12.7328 6.30869 12.4454 6.35255 12.246C6.40375 12.0648 5.82451 13.0434 5.82451 13.0434H5.82519Z" fill="#F2E8B0"/>
<path fill-rule="evenodd" clip-rule="evenodd" d="M7.8266 12.756C7.8266 12.756 7.60917 12.8208 7.50557 12.9347C7.40198 13.0434 7.35795 13.134 7.21817 13.3178C7.0784 13.5016 7.07054 13.6518 6.95654 13.8822C6.8427 14.1075 6.59148 14.4466 6.56042 14.5683C6.52936 14.69 6.47765 15.2595 6.41297 15.5288C6.35596 15.7981 6.47765 16.1296 6.47765 16.1296L6.6251 16.0983C6.6251 16.0983 6.6251 16.29 6.77273 16.4195C6.92019 16.5463 6.94613 15.9896 6.94613 15.9896L7.49755 14.1281L8.32853 13.5637L8.41915 13.1081L7.82626 12.756H7.8266Z" fill="#F5EEC0"/>
<path fill-rule="evenodd" clip-rule="evenodd" d="M8.2304 13.6001C8.2304 13.6001 7.8394 13.6258 7.64791 13.7658C7.57026 13.8226 7.5392 13.8692 7.45643 13.9392C7.30368 14.066 7.1482 14.1826 7.07328 14.3488C6.99034 14.5143 6.89971 14.7656 6.83759 15.2393C6.81165 15.4387 6.81165 15.6225 6.79356 15.7831C6.76762 16.0005 6.72887 16.1739 6.74952 16.2951C6.77547 16.5436 7.03181 16.6731 7.05672 16.9552L7.5875 16.6861L8.08721 14.7157L9.14876 14.0501L8.54801 13.377L8.22972 13.5989L8.2304 13.6001Z" fill="#E6DB9D"/>
<path fill-rule="evenodd" clip-rule="evenodd" d="M5.43027 26.8679C5.43249 26.8484 5.43471 26.829 5.43693 26.809C5.51441 26.1434 5.52755 25.6389 5.58438 25.323C5.66716 24.8752 5.72416 24.7086 5.71119 24.541C5.6931 24.2719 5.67245 24.0751 5.69839 23.8679C5.73713 23.5935 6.00644 23.2673 5.99876 23.042C5.99347 22.8633 5.90285 22.747 5.82519 22.6382C5.74754 22.5295 5.68542 22.4389 5.68542 22.4389C5.68542 22.4389 6.21619 22.0738 6.21107 20.6032C6.22191 20.6063 6.23234 20.6106 6.24213 20.6162L6.50359 21.3591L6.68228 21.5765L7.36836 22.8555L8.25122 23.7126L9.55597 24.5902L10.3741 25.4805L10.4569 27.8547L9.38769 29.2424L9.21258 29.5595C7.82143 28.8611 6.54574 27.9532 5.4301 26.8677L5.43027 26.8679Z" fill="#E5CB7A"/>
<path fill-rule="evenodd" clip-rule="evenodd" d="M8.69649 29.1391C8.69649 29.1391 8.71458 28.844 8.95795 28.6524C8.99686 28.717 9.02263 28.7793 9.01495 28.8258C9.05898 28.7483 9.36704 28.2511 10.0635 28.1216C10.76 27.9948 10.9283 27.4874 10.9283 27.4874L12.4064 26.1437L14.0971 24.5878L16.1527 23.8653L17.1134 23.6296C17.1134 23.6296 17.1315 23.6996 17.0953 23.8549C17.2739 23.8421 17.67 23.7515 18.0816 23.6064C18.2473 23.5417 18.4028 23.5158 18.4856 23.6013C18.6073 23.7151 18.6254 23.9845 18.633 24.1449C18.8324 24.1008 19.0628 23.9094 19.2474 23.9275C19.5427 23.9585 19.8042 24.3055 20.1045 24.3055C20.5006 24.3055 20.6792 24.0621 20.9563 23.8704C21.122 23.7566 21.3601 23.6144 21.4948 23.5184C21.8158 23.2827 25.2126 22.2445 25.2126 22.2445L26.4035 22.3222L26.5952 23.6011L26.4928 26.9445C26.4801 26.9566 26.4675 26.9692 26.4547 26.9814L21.0398 29.8095L13.5339 30.9601C11.8525 30.6854 10.23 30.1273 8.7354 29.3096L8.697 29.1389L8.69649 29.1391Z" fill="#D8C173"/>
<path fill-rule="evenodd" clip-rule="evenodd" d="M5.88544 27.2932C5.9921 27.0701 6.08802 26.8836 6.10491 26.8169C6.11823 26.9513 6.14263 27.2464 6.19178 27.5601C6.08859 27.4724 5.98647 27.3834 5.88544 27.293V27.2932Z" fill="#F1D789"/>
<path fill-rule="evenodd" clip-rule="evenodd" d="M11.3684 30.4396L12.3392 30.1696L12.422 30.1955C12.422 30.1955 12.466 30.2215 12.466 30.3094C12.5877 30.2396 12.6913 30.2524 12.7664 30.206C12.8051 30.2887 12.8439 30.5632 13.0149 30.5968C13.1934 30.6357 13.385 30.5191 13.5793 30.3717C13.7707 30.2189 13.9889 30.0273 14.1539 29.9496C14.2144 30.061 14.2681 30.1759 14.3145 30.2938C14.5319 30.1205 14.9099 29.4163 15.4484 29.4291C15.604 29.0613 15.864 28.7472 16.1963 28.5256C16.696 28.1865 17.0091 28.1605 17.4001 28.1916C17.5554 27.9898 17.7468 27.8187 17.9645 27.6867C18.0292 27.7127 18.2079 27.8214 18.4306 27.7178C18.6559 27.6144 18.9095 27.213 19.2435 27.1613C19.4235 27.1365 19.6065 27.1749 19.7613 27.27C19.7613 27.27 20.7341 26.3042 21.4053 25.9831C21.3794 25.9055 21.3277 25.613 22.1146 24.9656C22.1587 25.0045 22.1276 25.1133 22.1587 25.1192C22.1715 25.1192 22.3635 25.0365 22.6065 24.8499C22.9069 24.6248 23.2666 24.3891 23.4841 24.3244C23.8937 24.2028 24.3282 24.4512 24.3282 24.4512C24.3651 24.4253 24.4063 24.406 24.4499 24.3942C24.5533 24.3762 24.6284 24.3632 24.6854 24.343C24.6803 24.4777 24.7554 24.7081 24.6854 24.9074C24.7664 24.953 24.8523 24.9895 24.9414 25.0162C24.8975 25.1119 24.8016 25.3553 24.6412 25.4718C24.7757 25.5365 24.7938 25.6116 24.9854 25.6766C24.9078 25.7853 24.7806 25.9719 24.724 26.0862C24.667 26.2079 24.4623 26.7128 24.3717 26.9042C24.276 27.0959 24.1466 27.448 24.0843 27.5186C24.022 27.5893 23.7969 27.8888 23.6235 28.0363C23.7771 27.9793 24.4055 27.7878 24.6721 27.7152C24.5927 27.8316 24.1905 28.4285 23.8037 29.0024C21.9521 30.1122 19.8852 30.8147 17.7407 31.063C15.5962 31.3112 13.4235 31.0996 11.3672 30.4422L11.3684 30.4396Z" fill="#E0CD81"/>
<path fill-rule="evenodd" clip-rule="evenodd" d="M8.2944 13.5301C8.2944 13.5301 8.06929 13.5301 8.02526 13.5612C7.98123 13.5922 8.25054 13.6571 8.33332 13.6881C8.41609 13.7192 8.59478 13.8615 8.64137 13.9755C8.6854 14.0843 10.2595 14.7185 10.2595 14.7185L11.3727 14.6615L11.7565 14.1312L11.0264 13.4917L11.5384 11.9823L10.8602 12.091L9.22914 13.0638L8.41097 13.3772L8.2944 13.5301Z" fill="#DFC57C"/>
<path fill-rule="evenodd" clip-rule="evenodd" d="M10.7392 14.0298C10.7553 14.0559 10.778 14.0772 10.8049 14.0918C10.8319 14.1063 10.8622 14.1135 10.8928 14.1126C11.1232 14.1126 11.3353 14.1696 11.4234 14.286C11.571 14.4725 11.9801 15.068 11.9801 15.068L12.9587 15.4201L13.0219 14.2677L11.9526 13.5248L10.7358 13.9726V14.0296H10.7385L10.7392 14.0298Z" fill="#E5CC7C"/>
<path fill-rule="evenodd" clip-rule="evenodd" d="M10.5472 14.457C10.5472 14.457 10.7257 14.47 10.951 14.387C11.1763 14.3041 11.5464 14.1256 11.707 14.1955C11.9322 14.2913 11.8856 14.5917 12.1291 14.8611C12.2766 15.0269 12.5459 15.0217 12.6986 15.2004C12.8514 15.3791 13.3768 15.2962 13.3768 15.2962L13.5762 16.3714L12.7763 17.3967L12.5146 18.6704H11.433L10.4448 18.2784L9.95805 17.1008L10.2014 15.9099L10.5472 14.457Z" fill="#D2C281"/>
<path fill-rule="evenodd" clip-rule="evenodd" d="M12.6396 14.5087C12.6664 14.517 12.6943 14.5214 12.7223 14.5217C12.6913 14.5476 12.6264 14.6045 12.6524 14.7521C12.6783 14.8997 12.7611 15.0861 12.6913 15.1999C12.747 15.2609 12.7886 15.3334 12.813 15.4122C12.857 15.5392 12.87 15.6556 13.1572 15.6739C13.1157 15.6994 13.0775 15.7298 13.0434 15.7645C13.0434 15.7645 13.2427 15.9379 13.3437 16.0983C13.4472 16.0939 13.7216 16.0085 13.7216 16.0085L13.7786 16.0475L13.9003 15.9963C13.9003 15.9963 13.7864 15.9522 13.8692 15.6752C13.9469 15.4319 14.0168 15.4448 14.0228 15.4267C14.0288 15.4087 14.0798 15.1523 14.0798 15.0487C14.1186 14.9142 14.1496 14.5051 14.1496 14.5051L14.0669 13.6016L13.6009 13.3194L13.2221 12.9536L12.8647 13.6267L12.6293 13.8614L12.6112 14.4439L12.6396 14.5087Z" fill="#E2C270"/>
<path fill-rule="evenodd" clip-rule="evenodd" d="M13.7605 13.7528C13.7605 13.7528 13.8433 13.9884 13.8745 14.1696C13.8855 14.1344 13.8916 14.0978 13.8926 14.0609C13.8926 14.0609 13.9573 14.4183 13.9701 14.5659C13.996 14.5606 14.0213 14.5529 14.0271 14.5787C14.0329 14.6045 14.0919 14.892 14.0783 15.0525C14.1861 14.8746 14.3353 14.7254 14.5132 14.6176C14.6167 14.5528 14.7384 14.483 14.8654 14.4777C15.0647 14.4725 15.2096 14.6046 15.4479 14.6046C16.0225 14.6046 16.5431 14.1826 16.9262 14.0532C17.2083 13.9573 17.4517 13.8875 17.6225 13.732C17.7055 13.6622 17.8531 13.5069 17.9876 13.2763C18.1663 12.9691 18.3526 12.7017 18.5392 12.6681C18.4548 12.6836 18.3689 12.6897 18.2832 12.6862C18.2832 12.6862 18.3402 12.6292 18.4368 12.5515C18.5334 12.4739 18.6491 12.3781 18.8146 12.3781C19.1099 12.3781 19.2573 12.422 19.4231 12.422C19.5888 12.4169 19.6845 12.3781 19.6845 12.3781C19.6845 12.3781 19.8581 12.4998 20.2489 12.4998C20.6399 12.5049 20.9014 12.5385 21.106 12.5568C21.3106 12.5751 21.9965 12.4998 22.1933 12.5056C22.3216 12.5106 22.4476 12.5414 22.5637 12.5962L21.9293 10.753L19.6506 8.76135L18.2939 9.72187L16.207 11.8086L14.1877 12.5568L13.7656 13.0306V13.7528H13.7605Z" fill="#CCB360"/>
<path fill-rule="evenodd" clip-rule="evenodd" d="M18.2914 12.6964C18.2914 12.6964 18.3484 12.6396 18.444 12.5619C18.5395 12.4843 18.6564 12.3883 18.822 12.3883C19.1171 12.3883 19.2647 12.4324 19.4304 12.4324C19.5961 12.4272 19.6919 12.3883 19.6919 12.3883C19.6919 12.3883 19.8656 12.5099 20.2563 12.5099C20.6473 12.515 20.9087 12.5486 21.1133 12.5667C21.318 12.5848 22.0039 12.5099 22.2007 12.5155C22.3289 12.5203 22.4549 12.5511 22.5708 12.6061L22.2834 11.775L21.9496 11.1408L20.9968 10.0973C20.9968 10.0973 19.8533 9.4242 19.8446 9.41908C19.8395 9.41396 19.4485 9.31036 19.4485 9.31036L18.4129 9.93688L17.4732 12.368L17.4551 12.88L18.0634 13.1674C18.2161 12.9114 18.3846 12.7066 18.5424 12.6807C18.3999 12.6962 18.2912 12.6962 18.2912 12.6962L18.2914 12.6964Z" fill="#D5B457"/>
<path fill-rule="evenodd" clip-rule="evenodd" d="M18.2784 12.87C18.1878 12.8751 18.1129 12.857 18.092 12.7923C18.0144 12.5749 17.9523 12.5438 17.8872 12.5438C17.8222 12.5438 17.7345 12.6836 17.6824 12.6964C17.6304 12.7092 17.5686 12.536 17.5686 12.536L17.5116 12.51C17.5116 12.51 17.1776 12.7275 16.9421 12.9838C16.7066 13.2402 16.3207 13.6752 16.1473 13.7527C15.9739 13.8301 15.3783 13.8563 15.1745 13.9003C14.9707 13.9443 14.7447 14.0919 14.7137 14.1256C14.6826 14.1592 14.8045 14.1954 14.8226 14.229C14.8407 14.2601 14.6231 14.2471 14.605 14.2802C14.5922 14.3061 14.6562 14.4536 14.6879 14.5287C14.7435 14.5011 14.8044 14.486 14.8664 14.4847C15.0658 14.4795 15.2108 14.6116 15.4489 14.6116C16.0237 14.6116 16.5441 14.1896 16.9272 14.06C17.2095 13.9643 17.4529 13.8943 17.6237 13.739C17.7065 13.6692 17.8541 13.5137 17.9888 13.2833C18.0871 13.1255 18.183 12.9778 18.2789 12.8691L18.2784 12.87Z" fill="#D2B257"/>
<path fill-rule="evenodd" clip-rule="evenodd" d="M10.0352 25.6829C10.0352 25.6829 9.984 25.4913 9.50955 24.9969C9.3749 24.8571 9.29212 24.7409 9.2015 24.6578C8.97622 24.4453 8.84412 24.3884 8.6837 24.2668C8.33161 24.0053 7.94846 24.0053 7.65338 23.6843C7.3583 23.3632 7.0144 22.7499 6.77547 22.123C6.53995 21.4965 6.4751 21.2972 6.4751 21.2791C6.4751 21.261 6.53995 21.1393 6.62272 21.1574C6.7055 21.1755 6.7055 21.3359 6.72632 21.3748C6.76756 21.4383 6.81433 21.4981 6.8661 21.5533C6.98778 21.6933 7.16118 21.8605 7.24924 22.11C7.23115 21.8977 7.15862 21.6622 7.15862 21.6622C7.15862 21.6622 7.6143 21.9496 8.00256 22.2498C8.39356 22.5502 8.55399 22.6538 8.66816 22.8453C8.78234 23.0368 9.05131 23.5418 9.18016 23.6894C9.30902 23.837 11.0746 24.3936 11.0746 24.3936L11.9144 25.0197L12.3314 25.9337L12.005 26.4457L11.3785 26.5803L10.361 26.1246L10.0352 25.6828V25.6829Z" fill="#D2B159"/>
<path fill-rule="evenodd" clip-rule="evenodd" d="M7.77472 22.5347C7.77472 22.5347 7.98703 22.8738 8.50483 23.1948C8.97092 23.4771 9.70871 23.7334 10.3665 23.8862C10.7443 23.9768 11.1223 24.0466 11.4615 24.0519C12.3754 24.0647 13.0045 23.8034 13.7839 23.7179C14.206 23.6739 14.7238 23.6402 15.2622 23.5131C15.9534 23.3474 16.3625 23.1608 16.9192 22.8987C17.323 22.7123 17.6934 22.5726 17.9936 22.3939C18.4156 22.1454 18.7237 21.8684 19.081 21.7856C19.037 21.9073 18.9904 22.1247 18.6383 22.35C18.8247 22.3447 19.081 22.3319 19.081 22.3319C19.081 22.3319 18.8326 22.4794 18.395 22.8108C18.1257 23.0156 17.7684 23.3622 17.4034 23.5926C17.1677 23.7403 16.9114 23.8486 16.7431 23.937C16.3335 24.1623 16.1683 24.2762 15.8991 24.5514C15.9949 24.5463 16.0027 24.5514 16.0027 24.5514C16.0027 24.5514 15.6634 24.5955 15.4202 24.7248C15.369 24.7248 15.2803 24.7067 15.125 24.7508C15.0033 24.7895 14.8427 24.8778 14.6772 24.9242C14.4415 24.9941 14.364 24.9631 14.364 24.9631L14.4027 25.0407C14.4027 25.0407 14.0955 25.0354 13.9931 25.0459C14.0112 25.051 14.0061 25.0588 14.0061 25.0588C13.9881 25.0618 13.9708 25.068 13.9549 25.0769C13.9056 25.1088 13.8514 25.1324 13.7945 25.1467C13.7634 25.1518 13.7375 25.1518 13.6986 25.1597C13.7115 25.1908 13.8126 25.3645 13.8592 25.4669C13.8204 25.4928 13.2378 25.933 13.2378 25.933C13.2558 25.9614 13.2706 25.9918 13.2818 26.0236C13.2999 26.0804 13.3077 26.1634 13.3258 26.2021C13.3697 26.2798 13.3956 26.2927 13.3956 26.2927C13.3956 26.2927 13.3258 26.3057 13.204 26.3368C13.1005 26.3627 12.9736 26.4066 12.7944 26.4325C12.7394 26.4397 12.6841 26.444 12.6287 26.4455C12.6546 26.5025 12.7684 26.7199 12.5587 26.971C12.3489 27.222 12.2842 27.2586 12.2196 27.419C12.187 27.3944 12.1523 27.3727 12.116 27.3541C12.0462 27.3231 11.9503 27.2766 11.9166 27.2143C11.897 27.2973 11.8711 27.3787 11.839 27.4577C11.7743 27.6311 11.6785 27.8021 11.6605 27.9315C11.5905 27.8538 11.4611 27.7011 11.2824 27.7322C11.1037 27.7632 10.9614 28.0066 10.9303 28.0766C10.9303 28.0325 10.8993 27.9989 10.8916 28.0506C10.8863 28.1076 10.788 28.7029 10.2391 29.1845C10.234 29.0628 10.234 28.7935 10.2211 28.7056C10.1699 28.7568 10.1072 28.8324 9.73431 28.993C9.36926 29.1535 9.42711 29.3141 9.42711 29.3141C9.42711 29.3141 9.39605 29.0581 9.59283 28.7884C9.79217 28.5193 9.91386 28.3923 9.91386 28.3716C9.91064 28.3506 9.90166 28.3309 9.88791 28.3146C9.86197 28.2887 9.81026 28.2576 9.81026 28.237C9.84132 28.2242 10.1494 28.0766 10.1313 27.7709C10.1132 27.4966 9.9968 27.3541 9.91386 27.2533C9.90106 27.2403 10.0357 27.1445 10.0175 27.1135C10.0045 27.0954 9.83893 26.9735 9.81811 26.9087C9.82301 26.87 9.83169 26.8319 9.84405 26.7949C9.86214 26.7378 9.87511 26.6989 9.86999 26.6602C9.85702 26.5955 9.78705 26.4168 9.7664 26.3987C9.78449 26.4039 9.91386 26.3987 9.91386 26.3987C9.91386 26.3987 9.81043 26.233 9.79217 26.1554C9.77391 26.0777 9.73517 25.8731 9.71452 25.8343C9.75855 25.8395 9.86726 25.8471 9.86726 25.8343C9.87255 25.7954 9.77152 25.7307 9.81606 25.6807C9.84712 25.6859 9.90669 25.7118 9.96352 25.7843C9.93246 25.7014 9.88075 25.541 9.77186 25.4763C9.82306 25.4582 9.99714 25.4114 10.1499 25.5021C10.3026 25.5927 10.3547 25.7195 10.3547 25.7195C10.3547 25.7195 10.4453 25.7895 10.5853 25.893C10.7457 26.0199 10.9501 26.2002 11.2765 26.3279C11.3464 26.3668 11.5249 26.3668 11.6545 26.3409C11.7109 26.3274 11.765 26.3056 11.8149 26.2762C11.8329 26.2656 11.8521 26.2569 11.8719 26.2503C11.8441 26.1944 11.8121 26.1407 11.7762 26.0897C11.8202 26.0897 11.8719 26.0949 11.8719 26.0949C11.8719 26.0949 11.903 26.025 11.7632 25.8901C11.7943 25.8591 11.8332 25.8389 11.8332 25.7866C11.7891 25.7814 11.7115 25.7167 11.6934 25.6908C11.7192 25.6727 11.7581 25.6132 11.8021 25.5951C11.7632 25.564 11.6675 25.4345 11.6234 25.4217C11.6655 25.4061 11.7062 25.387 11.7451 25.3647C11.7451 25.3647 11.5277 25.3077 11.4577 25.2611C11.3877 25.2099 11.2843 25.1213 11.2222 25.0954C11.1573 25.0694 11.0435 25.0566 10.9969 25.0047C11.0408 25.0177 11.1107 25.0047 11.1626 25.0047C11.2014 25.0047 11.2196 25.0098 11.2324 25.0098C11.2273 24.9918 11.2273 24.9528 11.3283 24.94C11.3769 24.9327 11.4241 24.9179 11.4681 24.896C11.4681 24.896 11.3722 24.8909 11.2633 24.7873C11.1544 24.6837 11.064 24.6009 11.0019 24.588C10.9372 24.575 10.8155 24.632 10.7404 24.6267C10.6368 24.6139 10.5928 24.562 10.5928 24.562C10.5928 24.562 10.2485 24.5931 9.4848 24.1272C8.82449 23.7232 8.53709 23.366 8.53709 23.366C8.47529 23.3436 8.41556 23.3158 8.35857 23.283C8.11008 23.1537 7.76567 22.8844 7.77608 22.5321L7.77472 22.5347Z" fill="#C2A44D"/>
<path fill-rule="evenodd" clip-rule="evenodd" d="M17.2996 6.99545C17.3595 7.01491 17.4127 7.0508 17.4532 7.09905C17.5749 7.23882 17.6526 7.50284 17.3756 7.78513C17.4843 7.82387 17.5292 7.83633 17.6241 7.82387C17.5283 7.93787 17.3109 8.18124 17.2979 8.39355C17.2849 8.56695 17.3937 8.61883 17.3937 8.61883C17.3937 8.61883 17.2279 8.81032 17.2203 9.13083C17.2985 9.04258 17.3842 8.96116 17.4763 8.88746C17.6679 8.73471 17.9319 8.56132 18.1106 8.4526C18.1082 8.49817 18.1143 8.54378 18.1287 8.58709C18.1287 8.58709 18.4625 8.31266 18.7431 8.43451C18.8699 8.49151 18.8129 8.67003 18.8129 8.67003C18.8129 8.67003 18.9865 8.60535 19.1082 8.72703C19.2299 8.84872 19.4019 9.16258 19.4901 9.28426C19.5289 9.34126 19.6299 9.44998 19.7333 9.61826C19.8746 9.85385 19.9926 10.1027 20.0856 10.3612C20.0907 10.2265 20.1243 10.0169 20.5076 10.1489C20.8908 10.2835 21.3257 10.5658 21.6907 11.1217C22.0558 11.6775 22.1462 12.3051 22.33 12.544C22.5164 12.7744 22.7081 13.1575 22.721 13.3181C22.734 13.4787 22.664 13.9964 23.0472 15.397C23.1559 14.9622 23.3216 13.9964 23.3216 13.9964L23.4122 13.1446L23.5158 10.509L20.7636 8.22254L18.6122 6.66129L17.2116 6.79594L17.2995 6.99528L17.2996 6.99545Z" fill="#CAA13E"/>
<path fill-rule="evenodd" clip-rule="evenodd" d="M22.413 10.9177C22.413 10.9177 22.3741 10.6617 21.7269 10.2265C21.0796 9.79677 20.5747 9.79677 20.1088 9.43171C19.7514 9.14431 19.3787 8.484 19.136 8.26657C18.9003 8.0517 18.8616 7.4303 18.8616 7.4303L19.6564 6.7647L20.8384 5.05616L21.8377 3.95587L22.3165 4.62147L22.9821 5.4033L23.3523 6.97223L23.487 9.26873L22.4118 10.9179L22.413 10.9177Z" fill="#B59544"/>
<path fill-rule="evenodd" clip-rule="evenodd" d="M23.2131 13.6704C23.2326 13.3221 23.1896 12.9732 23.0861 12.6401C22.9154 12.1093 22.5425 11.1669 22.3693 10.8139C22.2993 10.4229 22.3512 10.3919 22.4263 10.3479C22.5014 10.3038 22.7837 10.1431 22.9383 9.579C23.0929 9.01494 23.5727 8.99651 23.5727 8.99651L23.8677 8.77908L24.3157 9.90002L24.7066 10.9124L24.8282 11.6866L24.9189 12.3467L24.7066 13.7422L23.6582 14.6898L23.2129 13.6704H23.2131Z" fill="#C89D3A"/>
<path fill-rule="evenodd" clip-rule="evenodd" d="M8.58266 29.2248V29.1961C8.60444 29.1825 8.62368 29.1652 8.63949 29.1449C8.65758 29.119 8.67072 29.0879 8.68352 29.0802C8.70946 29.0673 8.83115 29.029 8.89583 29.0413C8.96051 29.0536 9.13152 29.1241 9.22214 29.119C9.40851 29.1139 9.62594 28.9714 9.97035 29.0362C10.4882 29.1319 10.6098 29.484 10.9102 29.6834C11.115 29.8233 11.327 29.761 11.358 29.761H11.4278C11.4408 29.761 11.5366 29.6523 11.5884 29.6576C11.692 29.6627 11.7023 29.7482 11.767 29.7533C11.9197 29.7714 12.215 29.6757 12.3626 29.7146C12.4064 29.7283 12.4462 29.7524 12.4786 29.7848C12.5111 29.8173 12.5352 29.857 12.5489 29.9008C12.58 29.9965 12.5541 30.1182 12.479 30.1882C12.3186 30.3357 12.1658 30.4756 12.1347 30.5978C12.1742 30.6279 12.2122 30.6601 12.2484 30.6941C10.9674 30.3677 9.73492 29.8742 8.58266 29.2263V29.2248Z" fill="#CEB052"/>
<path fill-rule="evenodd" clip-rule="evenodd" d="M22.3689 24.0519C22.3689 24.0519 22.7727 23.5134 22.9127 23.2467C23.0525 22.9717 22.47 19.4901 22.47 19.4901L23.6402 15.6559L23.609 14.408C23.609 14.408 23.666 13.2559 23.8007 12.7561C23.9613 13.0435 24.461 13.3905 24.5697 13.5743C24.6209 13.2221 24.7948 12.4792 24.769 11.6869C24.8648 11.8344 25.0952 13.318 25.0952 13.318L25.3256 14.3172L25.6259 15.3788L25.9599 16.4999L26.1593 17.274L26.2731 17.4604L26.369 17.7865L26.4597 18.1388L26.7211 18.9647L26.8747 19.6429L26.9964 20.8727C27.0229 20.9669 27.0419 21.063 27.0534 21.1601C27.0585 21.2948 27.0353 21.3724 27.0353 21.3958C27.0353 21.4192 27.0793 21.6909 27.0613 21.8955C27.0353 22.1003 27.0353 22.2606 26.8747 22.4075C26.7141 22.5545 26.6133 23.4327 26.6133 23.4327L26.3258 23.2412C26.3258 23.2412 26.3829 22.9796 26.2482 22.7415C26.1135 22.5034 25.8521 22.4541 25.7045 22.493C25.557 22.5241 25.2619 22.5705 25.166 22.6534C25.0754 22.7362 24.8528 22.9926 24.6482 23.1091C24.3922 23.2627 23.9751 23.2748 23.7525 23.3266C23.5273 23.3778 23.2788 23.5314 23.0171 23.7097C22.812 23.8425 22.5954 23.9567 22.37 24.051L22.3689 24.0519Z" fill="#CCA847"/>
<path fill-rule="evenodd" clip-rule="evenodd" d="M22.3689 29.7088C22.3689 29.7088 22.386 29.7199 22.4189 29.738C24.2583 28.8762 25.9064 27.6547 27.2659 26.1455C27.251 25.6215 27.2317 25.0844 27.2106 24.8854C27.1667 24.4634 27.1978 24.0336 27.1848 23.7851C27.1718 23.5366 27.0321 22.5243 26.9674 22.2628C26.8974 22.0013 26.7626 21.8718 26.7421 21.8718C26.724 21.8771 26.6151 22.3638 26.6151 22.4862C26.6151 22.6086 26.5892 22.9031 26.5892 22.9782C26.5711 22.9729 26.5634 22.927 26.5634 22.9083C26.5375 22.9729 26.5064 23.0869 26.4934 23.0999C26.4805 23.1129 26.5115 22.9912 26.4934 22.9653C26.4754 22.9393 26.4422 22.9523 26.4494 22.8876C26.4525 22.8492 26.4585 22.8112 26.4675 22.7738C26.4675 22.7738 26.3898 22.8876 26.333 23.1776C26.276 23.465 26.276 23.4728 26.2554 23.4986C26.2373 23.5298 26.1337 23.6332 26.1284 23.6722C26.1233 23.742 26.2243 23.8119 26.232 23.8507C26.2371 23.9155 26.1414 24.2157 26.1103 24.3627C26.0792 24.5096 26.0922 24.7975 26.0591 24.9452C26.0332 25.0798 26.0079 25.1575 25.9193 25.2143C25.984 25.2273 26.0461 25.2454 26.0461 25.2454C26.0461 25.2454 26.1367 25.6285 25.9063 25.9548C25.8236 26.0687 25.8029 26.1205 25.7149 26.2241C25.5413 26.4156 25.4066 26.6337 25.3937 26.7756C25.3847 26.7337 25.3787 26.6913 25.3756 26.6486C25.3756 26.6486 25.1064 26.9619 24.9924 27.1406C24.845 27.371 24.6403 27.358 24.5828 27.415C24.5253 27.4721 24.5129 27.5755 24.5316 27.6584C24.4804 27.6712 24.3842 27.6895 24.3193 27.8888C24.2883 27.9922 24.2106 28.0936 24.0889 28.1632C23.9672 28.2329 23.8196 28.2539 23.7445 28.272C23.8092 28.2901 23.8351 28.2901 23.8662 28.3107C23.8275 28.3754 23.6488 28.4764 23.4494 28.606C23.2501 28.7276 23.1542 28.9062 23.105 29.0227C23.0538 29.1314 22.9782 29.2014 22.8565 29.2144C22.9077 29.2454 22.9835 29.3178 23.0223 29.3412C22.9653 29.3542 22.8687 29.3542 22.6961 29.5018C22.5149 29.652 22.4527 29.696 22.3698 29.709L22.3689 29.7088Z" fill="#C39D3C"/>
<path fill-rule="evenodd" clip-rule="evenodd" d="M18.7665 30.9086C18.8656 30.8391 18.973 30.7822 19.0862 30.7391C19.49 30.5787 19.9171 30.5476 20.0854 30.4959C20.246 30.4447 20.3728 30.3741 20.5722 30.3353C20.5669 30.3807 20.5624 30.4234 20.5577 30.4637C19.97 30.6484 19.3715 30.797 18.7657 30.9086H18.7665Z" fill="#D2BA6B"/>
<path fill-rule="evenodd" clip-rule="evenodd" d="M26.2144 20.2875C26.2144 20.2875 26.1316 20.7353 25.984 21.0176C25.8364 21.2999 25.6768 21.6907 25.6768 21.6907C25.6778 21.6026 25.6882 21.5149 25.7079 21.4291C25.5215 21.5378 25.0684 21.7994 24.9399 21.9158C24.8182 22.0245 24.6136 22.2162 24.5618 22.3068C24.6835 21.9496 24.8103 21.6286 24.8312 21.481C24.6448 21.6156 23.7747 22.3328 23.3218 22.8065L21.9107 23.9483C21.7479 24.0361 21.5802 24.1146 21.4084 24.1835C21.1652 24.2869 20.8778 24.3749 20.6655 24.4579C20.7225 24.3051 20.813 24.1703 20.94 24.041C21.0746 23.9142 21.4784 23.4766 21.5405 23.273C21.5975 23.0606 21.6105 22.9338 21.5354 22.7552C21.4654 22.7732 21.305 22.7811 21.1963 22.8122C21.0876 22.8432 20.971 22.9596 20.971 22.9596C20.971 22.9596 21.0538 22.4858 21.2325 22.038C21.0978 22.0431 20.8674 22.0819 20.8674 22.0819C20.8674 22.0819 21.1884 21.5434 21.7378 21.1681C21.5696 21.2039 21.4049 21.255 21.246 21.3207C20.9249 21.4554 20.5728 21.6547 20.3114 21.7634C20.4588 21.5586 21.4944 20.0806 22.1107 18.7032C22.7251 17.3285 22.9547 16.9764 23.0893 16.2386C23.1591 15.8735 23.1405 15.3341 23.1591 14.8509C23.1772 14.3718 23.2368 13.9421 23.198 13.6547C23.3585 13.854 23.9592 14.4159 23.9799 15.6716C23.998 16.9272 23.4052 18.6231 22.776 19.5369C22.9296 19.5809 23.3276 19.6328 23.7365 18.9225C24.1454 18.2122 24.1405 18.0139 24.2881 17.7186C24.3062 17.8662 24.3009 17.9179 24.3009 17.9179C24.3009 17.9179 24.8965 17.1957 25.1786 16.2869C25.2356 16.6779 25.4039 17.0223 25.1397 17.7394C24.9042 18.3866 24.5961 18.5446 24.5961 18.5446C24.5961 18.5446 24.7489 18.5187 24.974 18.384C25.0129 18.4798 25.0052 18.5888 25.0699 18.6274C25.1346 18.666 25.2227 18.731 25.2356 18.7931C25.3054 18.6895 25.4141 18.5574 25.4479 18.4591C25.422 18.6639 25.4039 19.5594 25.4991 20.0151C25.6986 19.997 25.9031 19.984 26.0429 19.6241C25.9471 19.9764 25.9471 20.1885 26.0118 20.4889C26.118 20.4165 26.2137 20.287 26.2137 20.287L26.2144 20.2875Z" fill="#C0993A"/>
<path fill-rule="evenodd" clip-rule="evenodd" d="M19.4874 6.01684C19.4874 6.01684 19.2881 6.09961 18.9489 6.09961C18.6539 6.09961 18.7366 5.98578 18.2758 5.98578C17.5665 5.98578 15.0888 6.39538 14.6538 6.38958C14.3715 6.38446 15.6064 6.51126 15.6064 6.51126L18.7626 6.55529L19.3968 6.50409L19.6325 6.02452L19.4874 6.01684Z" fill="#A88F33"/>
<path fill-rule="evenodd" clip-rule="evenodd" d="M11.3036 12.1865C11.3036 12.1865 10.8996 12.4945 10.7288 12.7302C10.5579 12.9659 10.4673 13.121 10.2731 13.3127C10.3187 13.3144 10.3642 13.3083 10.4078 13.2946C10.4078 13.2946 10.4078 13.3458 10.3767 13.3593C10.4035 13.3563 10.4307 13.3593 10.4562 13.3682C10.4817 13.377 10.5049 13.3915 10.5242 13.4105C10.4672 13.4415 10.3118 13.597 10.4335 13.7808C10.5242 13.9206 10.7158 13.9334 10.7158 13.9334C10.7158 13.9334 10.6718 14.0604 10.8556 14.0474C11.2517 14.0293 11.6944 13.8557 11.8989 13.8998C12.1037 13.951 12.2201 13.9697 12.365 14.221C12.5186 14.4695 12.6524 14.5084 12.6524 14.5084C12.6524 14.5084 12.743 14.2778 12.7223 13.9336C12.7966 13.748 12.8378 13.5509 12.844 13.3511L12.7094 12.3595L12.1218 11.6164L11.3606 12.0385L11.3036 12.1859V12.1865Z" fill="#E3C571"/>
<path fill-rule="evenodd" clip-rule="evenodd" d="M12.0258 12.0388C12.0258 12.0388 12.0829 12.1735 12.3211 12.1863C12.2952 12.2433 12.2952 12.2511 12.303 12.295C12.3081 12.339 12.3158 12.4037 12.3158 12.4037C12.342 12.391 12.3657 12.3737 12.3858 12.3525C12.3988 12.4095 12.3728 12.5 12.3858 12.5648C12.3938 12.6043 12.4068 12.6425 12.4245 12.6787C12.4283 12.6698 12.4326 12.6612 12.4375 12.6529C12.4426 12.6399 12.4887 12.7927 12.6162 12.9089C12.6161 12.891 12.6205 12.8734 12.629 12.8577C12.6309 12.8902 12.6417 12.9215 12.66 12.9483C12.6505 12.9438 12.6418 12.9377 12.6343 12.9302C12.6343 12.9302 12.6471 13.3398 12.717 13.5516C12.7287 13.5379 12.7391 13.5232 12.7481 13.5076C12.7481 13.4948 12.743 13.6216 12.73 13.7124C12.7119 13.803 12.7249 13.9298 12.7249 13.9298C12.7716 13.8931 12.8229 13.8626 12.8775 13.8392C12.9551 13.808 13.0823 13.7122 13.1598 13.4999C13.2047 13.3797 13.2394 13.2558 13.2634 13.1297C13.2884 13.1779 13.3057 13.2298 13.3146 13.2833C13.3198 13.348 13.4415 13.3144 13.4415 13.3144L13.4675 13.0321L13.6211 12.3926L13.7608 11.9965L14.434 10.9481L15.6501 10.0115L16.7117 10.2549L17.6073 9.03801L16.0643 8.11111L14.6041 8.26386L13.2789 10.0994L12.2175 11.7642L12.0258 12.0387V12.0388Z" fill="#D8B65B"/>
<path fill-rule="evenodd" clip-rule="evenodd" d="M19.6738 9.38257C19.6738 9.38257 19.5831 9.40066 19.3217 9.53617C19.0602 9.67168 18.879 9.71469 18.7779 9.91402C18.6769 10.1134 18.6692 10.2714 18.6692 10.2714C18.6692 10.2714 18.8479 10.1937 18.9515 10.1678C19.0602 10.142 19.1819 10.1497 19.1689 10.1937C19.1565 10.2239 19.1392 10.2519 19.1177 10.2765C19.1177 10.2765 19.3225 10.2714 19.3171 10.3724C19.3116 10.4735 19.2783 10.5847 19.2396 10.6339C19.2007 10.6851 19.0403 10.7609 19.0222 10.8204C18.9781 10.9421 19.0403 10.9472 19.0169 11.0455C18.9988 11.1415 18.9134 11.3278 18.6337 11.654C18.3463 11.9803 18.2241 12.2107 18.2241 12.2107C18.2241 12.2107 18.0844 11.9492 18.0118 11.7239C17.9606 11.7497 17.6857 11.9025 17.6857 11.9025L17.0487 9.68379L17.0615 9.53617C17.0615 9.53617 17.1185 9.46637 17.1315 9.33683C17.0358 9.30577 17.0228 9.27983 16.8958 9.15831C16.7689 9.0368 16.6654 8.889 16.4533 8.78796C16.4222 8.73096 16.3833 8.65348 16.228 8.62225C16.0727 8.59102 15.9795 8.56542 15.9795 8.56542C15.9795 8.56542 16.0623 8.53418 16.1012 8.4695C16.0053 8.48247 15.9278 8.51353 15.7181 8.50841C15.5057 8.50312 15.4824 8.49544 15.366 8.51353C15.2496 8.53162 15.11 8.58351 15.0579 8.40482C15.0009 8.36079 14.8792 8.3997 14.7756 8.55227C14.672 8.70485 14.6359 8.82671 14.4365 8.88627C14.4225 8.97414 14.3917 9.0585 14.3459 9.13476C14.2889 9.23067 14.1983 9.32642 14.0766 9.46875C13.8849 9.69403 13.916 10.0642 13.6105 10.3465C13.3024 10.6286 13.6617 9.5645 13.6617 9.5645L14.1536 8.3869L15.5542 7.0173L17.729 6.86984L17.9413 7.99624L19.0029 8.3613L19.6734 9.38393L19.6738 9.38257Z" fill="#D3AE4D"/>
<path fill-rule="evenodd" clip-rule="evenodd" d="M20.0182 9.63105L19.1043 8.31333L18.4648 7.8213C18.4648 7.8213 18.0091 6.98265 17.978 6.95671C17.9521 6.93861 17.5223 6.89202 17.2479 6.87393L17.2991 7.00074C17.359 7.02019 17.4122 7.05609 17.4527 7.10433C17.5744 7.24411 17.6521 7.50813 17.3751 7.79041C17.4838 7.82915 17.5287 7.84161 17.6236 7.82915C17.5278 7.94316 17.3104 8.18653 17.2974 8.39884C17.2844 8.57224 17.3932 8.62395 17.3932 8.62395C17.3932 8.62395 17.2274 8.81561 17.2198 9.13595C17.298 9.04769 17.3837 8.96628 17.4758 8.89258C17.6674 8.73898 17.9314 8.56626 18.1101 8.45755C18.1077 8.50317 18.1138 8.54884 18.1282 8.5922C18.1282 8.5922 18.462 8.31777 18.7426 8.43946C18.8694 8.49646 18.8124 8.67515 18.8124 8.67515C18.8124 8.67515 18.986 8.61047 19.1077 8.73215C19.2294 8.85384 19.4028 9.16701 19.4908 9.28887C19.5296 9.34587 19.6306 9.45458 19.734 9.62269C19.8753 9.85833 19.9933 10.1072 20.0863 10.3658C20.0914 10.2622 20.1122 10.1173 20.2911 10.1173L20.0192 9.63054L20.0182 9.63105Z" fill="#CAA13E"/>
<path fill-rule="evenodd" clip-rule="evenodd" d="M6.31723 13.3748C6.31723 13.3748 6.25255 13.2142 6.31723 12.901C6.38191 12.5879 6.48295 12.4402 6.51657 11.9794C6.55019 11.5186 6.85056 10.9438 6.85056 10.9438L7.68154 10.566L8.26932 10.7264L8.44271 11.5135L7.69963 11.9231C7.69963 11.9231 7.66089 12.0965 7.45114 12.2363C7.24139 12.3761 6.95143 12.4848 6.88163 12.6273C6.8399 12.7146 6.80944 12.8068 6.791 12.9017C6.791 12.9017 6.57869 12.8577 6.45189 12.9975C6.31723 13.14 6.32235 13.2668 6.31723 13.3755V13.3748Z" fill="#F4EFC8"/>
<path fill-rule="evenodd" clip-rule="evenodd" d="M7.99487 13.1651C7.99487 13.1651 7.9249 13.2091 7.87319 13.3187C7.82199 13.2359 7.69962 12.7439 7.6945 12.3012C7.68938 11.8584 7.66293 11.7487 7.76533 11.5961C7.86773 11.4436 8.26931 11.2828 8.2123 11.008C8.1553 10.7466 7.91705 10.6378 7.62453 10.7129C7.41973 10.7641 7.26732 11.1997 7.05501 11.4171C6.89442 11.5828 6.70293 11.5569 6.65121 11.6475C6.58124 11.7692 6.64592 11.8909 6.62527 11.9685C6.61998 11.9945 6.5553 12.1342 6.43873 12.3025C6.20321 12.6416 5.80454 13.1207 5.75266 13.5504C5.77075 13.3071 5.75795 13.3019 5.82263 13.0326L5.78372 12.968L6.03972 12.1291L6.20543 11.4379L6.57578 10.2805L7.22807 9.0974L7.86244 8.38794L8.52257 8.43197L8.60023 9.42354L8.97826 11.2852L9.77305 12.2638L8.49919 13.121L7.99436 13.1651H7.99487Z" fill="#EBCC73"/>
<path fill-rule="evenodd" clip-rule="evenodd" d="M8.391 13.5168C8.391 13.5168 8.28229 13.5428 8.24338 13.5221C8.20446 13.5015 8.16589 13.4781 8.17869 13.4521C8.19149 13.4262 8.26147 13.3823 8.26147 13.3615C8.2629 13.3427 8.25695 13.3241 8.24487 13.3096C8.2328 13.2951 8.21555 13.2858 8.19678 13.2839C8.13722 13.2762 8.11913 13.3149 8.11913 13.3149C8.11913 13.3149 8.06213 13.2711 8.01571 13.2637C8.04317 13.2604 8.07081 13.2586 8.09848 13.2584C8.02693 13.226 7.95104 13.2042 7.8732 13.1937C7.93788 13.155 8.06486 13.041 8.14763 13.041C8.2304 13.041 8.28229 13.0282 8.26932 12.9842C8.25635 12.9401 8.19166 12.8754 8.12186 12.8495C8.14763 12.8184 8.16589 12.7719 8.10377 12.6447C8.03892 12.5179 8.06486 12.4324 8.08568 12.4015C8.10377 12.3626 8.16845 12.2928 8.19951 12.2488C8.23058 12.2047 8.25652 12.1452 8.30823 12.1141C8.33417 12.096 8.41694 12.0629 8.49989 12.0313C8.59051 12.0003 8.6656 11.9614 8.71732 12.0003C8.77432 12.039 8.74838 12.0909 8.74838 12.0909C8.74838 12.0909 8.92707 12.026 9.08749 12.109C9.24809 12.1865 9.63909 12.2358 9.63909 12.2358L9.7792 12.5181L8.85231 13.3129L8.46917 13.5045L8.39151 13.5173L8.391 13.5168Z" fill="#E5C66B"/>
<path fill-rule="evenodd" clip-rule="evenodd" d="M9.67766 12.2175C9.67766 12.2175 9.39025 12.4092 9.32557 12.479C9.36431 12.4843 9.429 12.5102 9.40306 12.5489C9.37199 12.5877 9.18563 12.7223 9.08203 12.8493C8.97332 12.9761 8.86972 13.1367 8.83354 13.2144C8.7948 13.2842 8.49955 13.4888 8.39868 13.5146C8.61099 13.5146 9.03817 13.2531 9.1986 13.2531C9.19348 13.3308 9.24263 13.4188 9.33325 13.4265C9.42388 13.4342 9.68534 13.4835 10.0374 13.2661C10.3895 13.0538 10.2731 12.8957 10.4206 12.7923C10.7029 12.6058 10.8167 12.4401 10.972 12.3366C11.1273 12.2332 11.2077 12.2097 11.2077 12.2097C11.2077 12.2097 11.2128 12.132 11.2589 12.1399C11.2715 12.1413 11.2835 12.1462 11.2935 12.1539C11.3036 12.1617 11.3113 12.1721 11.3159 12.1839C11.3159 12.1839 11.5852 11.9922 11.9303 11.9405C11.9222 11.9369 11.9158 11.9305 11.9122 11.9224C11.9122 11.9224 11.938 11.9095 11.9433 11.8965C11.9433 11.8965 11.9613 11.8705 11.9743 11.8835C11.9873 11.8965 12.0054 11.9922 12.0313 12.0311C12.0883 12.0052 12.197 11.7618 12.197 11.7618L12.4587 11.0136V10.3301L12.2539 10.369L10.7179 11.0213L9.78569 11.9871L9.67698 12.2175H9.67766Z" fill="#E6BD62"/>
<path fill-rule="evenodd" clip-rule="evenodd" d="M14.0996 8.86475C14.1827 8.8446 14.2624 8.81228 14.336 8.76884C14.3049 8.85178 14.3049 8.94241 14.1703 9.13919C14.0356 9.33597 14.0305 9.36447 13.9218 9.56892C13.8131 9.78123 13.8001 10.0867 13.6965 10.2212C13.7429 10.1987 13.7927 10.1838 13.844 10.1774C13.844 10.1774 13.7405 10.268 13.6965 10.3637C13.6525 10.4595 13.5748 10.6588 13.3833 10.7807C13.1918 10.9025 12.9483 10.98 12.6868 11.2674C12.4252 11.5495 12.1561 11.9069 12.0212 12.0354C12.0912 11.9137 12.187 11.6703 12.2129 11.5099C12.2388 11.3495 12.2076 11.1577 12.2516 10.9455C12.2957 10.7334 12.2957 10.5805 12.5076 10.2101C12.7196 9.83977 13.0824 8.55312 13.0824 8.55312L13.8643 8.30463L14.1 8.8639L14.0996 8.86475Z" fill="#B6933F"/>
<path fill-rule="evenodd" clip-rule="evenodd" d="M13.5352 8.391C13.5352 8.391 13.2997 8.73012 13.235 9.03049C13.1703 9.33086 13.2297 9.30492 13.191 9.45255C13.1678 9.54256 13.1678 9.63697 13.191 9.72698C13.2726 9.59557 13.3842 9.48547 13.5168 9.40579C13.7395 9.2713 13.9208 9.17539 14.0288 9.06155C14.1375 8.93987 14.2281 8.74053 14.4637 8.58778C14.3679 8.57481 14.2333 8.53078 14.2077 8.53658C14.3036 8.42787 14.5908 8.26215 14.8808 8.06281C15.1682 7.85801 15.1501 7.77541 15.6162 7.57095C15.4634 7.59689 15.3909 7.55798 15.2639 7.57095C15.3151 7.46223 15.4943 7.41035 15.6735 7.23183C15.8527 7.05332 15.5597 6.78912 15.5597 6.78912L14.1943 7.61498L13.5342 8.39168L13.5352 8.391Z" fill="#C49937"/>
<path fill-rule="evenodd" clip-rule="evenodd" d="M9.8304 7.77473L9.86146 7.52624L10.2525 6.89972L10.6615 5.79943V4.29518L10.6305 3.42529L10.6952 2.8556L10.7443 2.67453L10.7962 2.60455L11.13 2.77795L11.591 3.40447L11.635 4.61364L11.187 6.52169L9.90805 7.91724L9.8304 7.77473Z" fill="#DFC068"/>
<path fill-rule="evenodd" clip-rule="evenodd" d="M10.8479 2.53458C10.8479 2.53458 10.6431 2.53988 10.5994 3.39167C10.5557 4.24347 10.5346 4.6913 10.5035 5.11336C10.4724 5.53542 10.4001 5.79159 10.3637 6.04025C10.3274 6.28891 10.3067 6.62785 10.1903 6.83504C10.1391 6.93079 10.0297 7.23116 9.77339 7.45644C9.48599 7.70493 9.05659 7.8785 8.99157 7.89147C8.87756 7.91724 8.3002 7.97424 8.06468 8.10378C7.98191 8.14781 7.8394 8.19952 7.68153 8.34715C7.36819 8.62926 6.95142 9.13409 6.65105 9.74252C6.19025 10.6513 5.72945 13.217 5.72945 13.217L5.83304 13.0436C5.83304 13.0436 5.84601 12.8132 6.07641 12.4092C6.30169 12.0054 6.23701 11.5523 6.55018 10.7781C6.67187 10.483 6.82461 10.0999 7.01098 9.77358C7.30624 9.24281 7.66344 8.78713 8.02338 8.53864C8.61098 8.13484 9.25832 8.04678 9.25832 8.04678L9.95481 7.58598C9.95481 7.58598 10.0765 7.35046 10.2371 7.08114C10.4622 6.70329 10.7491 6.28123 10.8117 5.66768C10.9076 4.75888 10.6771 4.16343 10.69 3.62497C10.703 3.08652 10.7081 2.6904 10.817 2.59449C10.9259 2.49857 10.8481 2.53493 10.8481 2.53493L10.8479 2.53458Z" fill="#A88F33"/>
<path fill-rule="evenodd" clip-rule="evenodd" d="M10.8479 6.59932C10.8479 6.59932 11.1551 5.84327 11.2957 5.17272C11.3217 5.03807 11.3734 4.90358 11.3864 4.79487C11.4511 4.1605 11.4691 3.89904 11.3864 3.55207C11.3217 3.29607 11.0732 3.06533 10.9437 2.88647C10.8169 2.69993 10.7573 2.63047 10.7832 2.59122C10.8092 2.55196 10.91 2.48779 11.0083 2.49547C11.1128 2.49852 11.2156 2.52278 11.3105 2.56679C11.4053 2.6108 11.4902 2.67363 11.5599 2.75147C11.7593 2.98187 11.9171 3.76387 11.9171 3.76387L12.0832 4.79572L12.5053 6.09535L10.8483 6.60035L10.8479 6.59932Z" fill="#C99E3D"/>
<path fill-rule="evenodd" clip-rule="evenodd" d="M13.7346 5.81238C13.7346 5.81238 13.6776 5.83815 13.5741 5.81238C13.5786 5.85465 13.5712 5.89731 13.5529 5.93567C13.5347 5.97404 13.5062 6.00661 13.4706 6.02981C13.3618 5.98578 12.3441 6.07385 12.3441 6.07385C12.3441 6.07385 11.8704 5.9909 11.7228 5.36438C11.6193 4.94745 11.8004 4.37281 11.7408 3.99478C11.6502 3.43807 11.5234 3.32918 11.5104 3.15596C11.4975 2.98273 11.4845 2.93853 11.4845 2.82981C11.4275 2.81684 11.3939 2.79875 11.337 2.79875C11.3241 2.74755 11.3498 2.70284 11.293 2.61221C11.3241 2.62518 11.5364 2.65113 11.7849 2.88665C11.9897 3.0783 11.9897 3.14811 12.0206 3.18702C12.0593 3.22576 12.3727 3.49422 12.5073 3.76182C12.642 4.02943 12.9034 4.88276 12.963 5.02254C12.9811 5.07954 13.02 5.13654 13.1166 5.26591C13.2668 5.45245 13.4868 5.76084 13.7353 5.81204L13.7346 5.81238Z" fill="#B58634"/>
<path fill-rule="evenodd" clip-rule="evenodd" d="M12.0571 3.20001C12.2139 3.45337 12.3548 3.71625 12.479 3.98713C12.6317 4.33136 12.7223 4.61364 12.914 4.84404C12.8104 4.54384 12.6266 3.95351 12.5179 3.74376C12.3962 3.52189 12.1477 3.28296 12.0571 3.20018V3.20001Z" fill="#A88F33"/>
<path fill-rule="evenodd" clip-rule="evenodd" d="M10.2965 7.45644C10.2965 7.45644 10.035 7.52112 9.54829 7.77746C9.38769 7.86024 9.23512 7.93004 9.08749 7.99489C8.704 8.16829 8.2927 8.32855 7.96638 8.41695C7.99232 8.44801 8.00512 8.46081 8.00512 8.46081C8.00512 8.46081 8.00512 8.58779 8.0751 8.66015C8.03636 8.69906 7.51838 9.05115 7.6713 10.2291C7.77472 10.1903 7.89641 10.1385 7.9145 10.1385C7.94573 10.1438 7.95341 10.2291 7.99215 10.2291C8.03089 10.2291 8.15787 10.1779 8.29253 10.0038C8.28741 10.0738 8.20975 10.778 8.62652 11.2517C8.70417 11.1611 8.90095 10.8607 8.90095 10.8607L8.90607 10.765C8.90607 10.765 8.92416 10.431 9.03305 10.1255C9.14193 9.82 9.35407 9.59472 9.35407 9.59472L10.4619 8.01281L10.2962 7.45627L10.2965 7.45644Z" fill="#E6C367"/>
<path fill-rule="evenodd" clip-rule="evenodd" d="M9.26089 9.77921C9.21017 9.81505 9.15429 9.84296 9.09517 9.86198C9.07708 9.7973 9.05114 9.57458 9.20389 9.35715C9.38258 9.09552 9.7734 8.7564 9.88212 8.48675C9.95209 8.31318 9.92103 7.87832 10.5424 7.32161C11.1638 6.76489 11.407 6.57341 11.407 6.57341L12.4116 6.06857L13.6465 6.55531L13.033 8.96001L12.5566 10.0864L10.6622 9.7292L9.26072 9.77921H9.26089Z" fill="#DCBA5A"/>
<path fill-rule="evenodd" clip-rule="evenodd" d="M9.98399 9.12622L10.2197 8.83114V8.62139C10.2197 8.62139 10.4811 8.55141 10.7633 8.26401C11.0454 7.97661 11.4364 7.42519 11.7808 7.45881C12.1252 7.49772 12.1588 8.20701 12.1718 8.40652C12.1847 8.60603 12.2288 9.05881 12.2986 9.30235C12.3762 9.54572 11.4597 10.4673 11.4597 10.4673L10.8373 10.9411L9.98399 9.12622Z" fill="#E9CE77"/>
<path fill-rule="evenodd" clip-rule="evenodd" d="M10.7133 11.5831C10.7133 11.5831 10.9049 11.2828 10.7645 11.2181C10.8472 11.0317 11 10.8349 11 10.8349C11 10.8349 11.1087 10.5658 11.4608 10.2344C11.8129 9.90294 12.0305 9.68278 12.0875 9.46023C12.1226 9.31519 12.1417 9.16673 12.1445 9.01752C12.1825 9.04861 12.2232 9.07631 12.2662 9.10029C12.3232 9.12623 12.5923 9.34878 12.5536 9.79678C12.5148 10.2448 12.3488 10.4311 12.3488 10.4311C12.3488 10.4311 12.1883 10.5916 12.0745 10.6745C11.9526 10.7573 11.9088 10.853 11.7041 10.8609C11.7252 10.8442 11.7488 10.831 11.7741 10.822C11.7741 10.822 11.5618 10.7962 11.4478 10.8996C11.3338 11.0031 11.0915 11.3217 10.9698 11.4176C10.8481 11.4953 10.7138 11.5833 10.7138 11.5833L10.7133 11.5831Z" fill="#CDAE50"/>
<path fill-rule="evenodd" clip-rule="evenodd" d="M19.3217 6.54746C19.0158 6.43598 18.6944 6.37309 18.369 6.36109C17.8253 6.343 17.0305 6.37406 16.2512 6.37918C15.4124 6.3843 14.6512 6.09178 13.595 6.04007C13.4216 5.93647 12.9806 5.48335 11.604 6.44386C11.6867 6.43874 12.6034 6.23155 12.9217 6.6304C13.2427 7.02652 13.1521 7.69963 13.1082 7.86005C13.0253 8.21743 12.756 8.73779 12.6474 9.10285C12.5389 9.46791 12.5645 9.65973 12.4868 9.91573C12.4092 10.1717 12.2383 10.2989 12.3392 10.594C12.4739 10.5112 12.544 10.5112 12.7689 10.0064C12.9939 9.50153 12.9476 9.14159 13.3205 8.71441C13.6856 8.28467 14.2933 7.6969 14.5244 7.54927C14.7555 7.40164 16.5903 6.44898 18.5115 7.35778C18.9749 7.30863 19.3219 6.54729 19.3219 6.54729L19.3217 6.54746Z" fill="#D2A83E"/>
<path fill-rule="evenodd" clip-rule="evenodd" d="M12.3779 6.1952C12.376 6.17574 12.3717 6.1566 12.3651 6.1382C12.3472 6.10033 12.3236 6.06541 12.2952 6.0346C12.2952 6.0346 11.8395 5.95183 11.6091 5.9776C11.2051 6.02163 10.8401 6.52134 10.6692 6.77768C10.4984 7.03403 10.2861 7.42997 10.0557 7.6346C10.0582 7.61467 10.0536 7.59448 10.0427 7.5776C10.0427 7.5776 10.0557 7.59569 10.0299 7.62163C10.0041 7.64757 10.004 7.66037 10.0169 7.67283L10.0558 7.71157C10.0686 7.71157 10.426 7.55098 10.9128 7.09717C11.4306 6.6234 11.8267 6.38037 12.0339 6.29709C12.1444 6.25013 12.2599 6.21595 12.3781 6.1952H12.3779Z" fill="#C29637"/>
<path fill-rule="evenodd" clip-rule="evenodd" d="M21.2169 4.24857C21.2169 4.24857 21.134 4.35199 21.0304 4.46599C20.8 4.70937 20.4996 4.98363 20.2433 5.26591C20.0001 5.53522 19.7257 5.74497 19.4174 6.09706C19.1092 6.44914 18.7518 6.83997 18.6614 6.95397C18.5786 7.06798 18.5139 7.25435 18.5139 7.35009C18.4699 7.31903 18.4182 7.28541 18.4182 7.28541C18.44 7.32606 18.466 7.36427 18.4958 7.39941C18.5605 7.49004 18.6614 7.60421 18.7133 7.67385C18.7769 7.76249 18.8226 7.86273 18.8478 7.96893C18.8788 7.97405 19.0782 8.01296 19.3268 7.60387C19.5755 7.19478 19.9014 6.74695 19.9014 6.74695L20.4192 5.97793L20.7456 5.32564L21.1552 4.59553L21.2175 4.24857H21.2169Z" fill="#AC8132"/>
<path fill-rule="evenodd" clip-rule="evenodd" d="M21.7477 3.72565C21.7477 3.72565 21.4344 3.98165 21.3127 4.13525C21.191 4.28885 20.9031 4.69196 20.9031 4.69196L21.0067 4.67899L21.5323 4.21307L21.7371 3.84801L21.7475 3.72633L21.7477 3.72565Z" fill="#A88F33"/>
<path fill-rule="evenodd" clip-rule="evenodd" d="M21.6518 24.3004C21.6518 24.3004 21.6467 24.0881 21.7658 23.9613C21.8875 23.8343 22.1955 23.6479 22.4959 22.9489C22.7963 22.2498 22.8297 22.0919 22.8297 22.0919C22.8297 22.0919 22.2913 22.5527 21.9593 22.6615C22.037 22.5009 22.081 22.387 22.1199 22.3041C22.0759 22.2653 21.8895 22.2213 21.8715 22.2007C21.9749 22.0971 22.0319 21.8433 22.2416 21.675C22.5109 21.4702 23.0028 21.1183 23.3851 20.8046C23.7674 20.4909 24.519 19.7613 24.6149 19.549C24.6719 19.6318 24.6847 19.6835 24.6847 19.6835C24.6847 19.6835 24.3069 20.1755 24.1101 20.4887C23.9365 20.758 23.9495 20.9108 23.9495 20.9108L24.3069 20.7572C24.3069 20.7572 24.4103 21.1403 23.9418 21.723C24.1466 21.6453 24.2292 21.6919 24.3456 21.627C24.1539 21.7489 23.8899 21.9146 23.6414 22.3701C23.3981 22.8258 23.0666 23.3566 22.5075 23.6878C21.9638 24.0374 21.6504 24.2988 21.6504 24.2988L21.6518 24.3004Z" fill="#A67A2E"/>
<path fill-rule="evenodd" clip-rule="evenodd" d="M20.2486 6.81694C20.2486 6.81694 20.0363 7.25948 20.0052 7.60388C20.0001 7.68683 19.9793 7.75151 19.9793 7.84725C19.9741 8.15531 19.9974 8.49971 19.9281 8.66014C19.9021 8.59546 19.8892 8.55142 19.8632 8.52565C19.8245 8.63437 19.7545 8.97348 19.6975 9.10029C19.6717 9.01752 19.6147 8.73011 19.62 8.391C19.6253 8.05188 19.6328 7.98703 19.6328 7.91723C19.62 8.02065 19.55 8.1606 19.5241 8.24337C19.4854 8.17357 19.4413 8.08295 19.3894 8.00785C19.3584 8.05905 19.3196 8.13466 19.286 8.17357C19.2807 8.14251 19.2679 8.05956 19.2601 7.94317C19.255 7.80851 19.2471 7.63512 19.255 7.59876C19.2678 7.52896 19.3766 7.25453 19.607 7.00331C19.8815 6.70293 20.1638 6.12574 20.2465 5.94705C20.3293 5.76836 20.6814 5.02545 20.6814 5.02545H20.9507L20.5597 5.91599C20.5597 5.91599 20.3242 6.40273 20.2025 6.58159C20.0808 6.76045 19.8245 7.27296 19.7105 7.4723C19.7932 7.36358 19.8632 7.30658 19.9462 7.20299C20.0264 7.13045 20.2489 6.81728 20.2489 6.81728L20.2486 6.81694Z" fill="#8C6228"/>
<path fill-rule="evenodd" clip-rule="evenodd" d="M21.7528 3.69186C21.7088 3.82726 21.6393 3.95297 21.548 4.06221C21.3874 4.25387 21.043 4.51004 20.8749 4.7145C20.7213 4.91384 20.4141 5.45758 20.5537 6.10219C20.6049 5.96241 20.7014 5.68542 20.9577 5.37208C21.214 5.05873 21.4885 4.69897 21.6233 4.41942C21.7578 4.13713 21.7759 3.91458 21.7759 3.91458L21.8271 3.8499L21.796 3.70227L21.752 3.69186H21.7528Z" fill="#CBA94C"/>
<path fill-rule="evenodd" clip-rule="evenodd" d="M26.9955 20.8647C26.9955 20.8647 26.8919 20.5826 26.8609 20.3262C26.8298 20.0699 26.9121 20.019 26.8169 19.7256C26.7599 19.547 26.6564 19.572 26.6305 19.547C26.6045 19.5219 26.5865 19.2519 26.5916 19.1042C26.5967 18.9566 26.5865 18.7651 26.5605 18.6822C26.5218 18.6511 26.4958 18.6252 26.4388 18.4337C26.3741 18.242 26.3431 18.1463 26.312 18.0895C26.281 18.0326 26.1902 17.9807 26.1902 17.9237C26.1902 17.8097 26.2938 17.7503 26.2938 17.7189C26.2886 17.6543 26.211 17.7061 26.1902 17.6879C26.1644 17.6568 26.255 17.4705 26.2214 17.4445C26.2084 17.4317 26.1178 17.5404 26.0944 17.5094C26.0685 17.4781 26.0374 17.1701 25.9908 16.9656C25.947 16.7663 25.9002 16.6214 25.8951 16.5618C25.89 16.5048 25.5377 15.5003 25.4524 15.2569C25.3836 15.0513 25.3257 14.8421 25.279 14.6304C25.253 14.5087 25.2349 14.26 25.222 14.286C25.209 14.3119 25.2169 14.4387 25.196 14.4336C25.1779 14.4283 25.1133 13.9858 25.0926 13.9158C25.0745 13.8458 24.9656 13.6086 24.939 13.4369C24.9131 13.2633 24.8562 12.8102 24.8173 12.5022C24.7784 12.1941 24.7603 12.0673 24.7603 11.9902C24.7667 11.8015 24.7563 11.6126 24.7293 11.4258C24.6781 11.0995 24.5757 10.7033 24.4859 10.4731C24.3125 10.0381 23.8515 8.92483 23.7691 8.64784C23.7691 8.57786 23.8597 8.61678 23.8597 8.61678C23.8597 8.61678 24.0848 9.18117 24.2505 9.61603C24.4111 10.0511 24.5639 10.4342 24.6028 10.4731C24.6339 10.5119 24.8772 10.939 24.9859 11.6381C25.0947 12.3371 25.1334 12.9817 25.1983 13.4115C25.2293 13.6163 25.2553 13.8335 25.3199 14.051C25.3897 14.2867 25.4985 14.53 25.641 14.9028C25.7626 15.2161 25.8533 15.4776 25.9024 15.7029C25.9594 15.9903 25.9594 16.2077 25.993 16.3502C26.0243 16.4719 26.0707 16.7151 26.1796 17.067C26.2885 17.4189 26.4487 17.8722 26.5574 18.1543C26.7699 18.7187 26.8646 19.1899 26.8967 19.4411C26.9251 19.7 27.021 20.5959 26.995 20.865L26.9955 20.8647Z" fill="#A88F33"/>
<path fill-rule="evenodd" clip-rule="evenodd" d="M21.7658 3.66079L21.7528 3.69185C21.7528 3.69185 21.7916 3.70482 21.7839 3.75671C21.7844 3.82769 21.7801 3.89863 21.7709 3.96902C21.7581 4.05964 21.7322 4.12944 21.7271 4.18645C21.7271 4.30813 21.7452 4.44791 21.5735 4.79487C21.5223 4.89062 21.4907 4.97339 21.4647 5.03039C21.4001 5.17017 21.3871 5.19099 21.3301 5.25567C21.4207 5.20447 21.747 4.99967 21.9126 5.03039C21.7987 5.09508 21.6252 5.22205 21.5165 5.38777C21.5424 5.39289 21.6511 5.41371 21.8237 5.38777C22.1111 5.34374 22.4321 5.24014 22.7142 5.26079C23.0224 5.27888 22.9007 4.89062 22.9007 4.89062L22.5451 4.10879L21.872 3.63519L21.7658 3.66096V3.66079Z" fill="#BE9C44"/>
<path fill-rule="evenodd" clip-rule="evenodd" d="M23.5211 9.51723C23.5211 9.51723 23.2207 9.21686 23.099 8.18603C22.9774 7.15043 23.0033 5.62603 23.0033 5.62603L22.7599 5.03058C22.7599 5.03058 22.7087 4.63446 22.5812 4.48701C22.4538 4.33955 22.2034 4.09089 22.0894 3.9692C21.9754 3.84752 21.846 3.6818 21.7684 3.65586C21.8071 3.59118 21.9807 3.22612 22.6459 3.221C23.3112 3.21588 23.5163 3.58606 23.5858 3.72071C23.6552 3.85537 23.9689 4.43751 24.0853 5.54685C24.194 6.65481 24.1993 6.73776 24.1812 7.1209C24.1683 7.33321 24.0983 7.82507 23.9764 8.35056C23.8652 8.796 23.7435 9.29315 23.5208 9.51826L23.5211 9.51723Z" fill="#A17C34"/>
<path fill-rule="evenodd" clip-rule="evenodd" d="M22.5792 10.4001C22.6793 10.4073 22.7793 10.3847 22.8666 10.3352C22.9623 10.3301 23.3093 10.3741 23.5759 10.035C23.594 10.1125 23.6407 10.3224 23.5189 10.5088C23.5837 10.444 23.6795 10.4182 23.6925 10.4001C23.6976 10.4958 23.7882 10.7909 23.4051 11.5081C23.5085 11.3942 23.6302 11.3993 23.7389 11.3864C23.7442 11.521 23.8165 11.974 23.625 12.2175C23.4982 12.3832 23.2911 12.3314 23.2911 12.3314C23.2941 12.2952 23.2941 12.2588 23.2911 12.2226C23.2859 12.1527 23.26 12.0829 23.2783 12.0363C23.1781 11.9905 23.087 11.9274 23.0089 11.8497C22.7837 11.6374 22.4911 11.2751 22.4705 11.0058C22.4445 10.7054 22.7139 10.6407 22.7139 10.6407C22.6913 10.6205 22.6721 10.5969 22.6569 10.5708C22.6439 10.5269 22.6309 10.4569 22.5792 10.4001Z" fill="#8C6228"/>
<path fill-rule="evenodd" clip-rule="evenodd" d="M20.5824 7.14307C20.5824 7.14307 20.5694 7.12498 20.4996 7.20775C20.5126 7.12498 20.5256 7.04715 20.5307 6.97206C20.5637 6.90254 20.6065 6.83806 20.6577 6.78057C20.6188 6.85805 20.5928 6.92803 20.5928 6.92803C20.5928 6.92803 20.6887 6.74934 20.8285 6.64063C20.9243 6.56297 21.0459 6.52679 21.0976 6.45426C21.1547 6.3766 21.1417 6.36363 21.1547 6.35066C21.1547 6.35066 21.2816 6.26789 21.4758 6.02435C21.5016 5.99329 21.5405 5.95967 21.5665 5.9286C21.6103 5.91051 21.7139 5.86392 21.8356 5.80163C21.9626 5.73183 22.1049 5.63608 22.193 5.59683C22.3664 5.51917 22.5504 5.52702 22.6357 5.40517C22.7004 5.38708 22.7702 5.19286 22.7574 5.02731C22.8531 5.06605 23.345 5.37155 23.5134 6.03954C23.6351 6.51331 23.4175 7.24342 23.3269 7.59568C23.2363 7.94793 23.2235 8.20922 23.0965 8.36965C22.9359 8.58213 22.4183 8.88165 22.2913 9.02996C22.1826 9.15164 21.8564 9.4597 21.8692 9.68225C21.8822 9.84796 22.0867 9.93825 22.1309 9.96965C22.1751 10.0011 22.1747 10.0396 22.2577 10.0208C22.3406 10.0021 22.3715 9.96385 22.4053 9.96385C22.444 9.96897 22.444 9.97682 22.4621 9.97682C22.4753 9.97643 22.4883 9.97465 22.501 9.97153C22.501 9.97153 22.4881 10.2072 21.9366 10.2787C21.8977 10.284 21.859 10.2968 21.8097 10.3047C21.8745 10.2736 21.9133 10.2736 21.9832 10.1779C21.9056 10.1649 21.6829 10.1519 21.6259 10.1338C21.644 10.1028 21.7035 10.0198 21.7527 9.98108C21.7967 9.94234 21.7475 9.92988 21.7088 9.95002C21.6421 9.9954 21.5781 10.0446 21.5171 10.0975C21.4525 10.1545 21.3955 10.2321 21.2919 10.3023C21.2608 10.1987 21.2659 10.0019 21.3878 9.85957C21.3565 9.86469 21.297 9.95531 21.2402 9.93722C21.2299 9.84279 21.236 9.74729 21.2582 9.65494C21.2893 9.53837 21.4576 9.33392 21.4576 9.33392L22.2705 7.88137L22.4439 6.78108L20.5824 7.14273V7.14307Z" fill="#92723A"/>
<path fill-rule="evenodd" clip-rule="evenodd" d="M20.5385 7.20522C20.5385 7.20522 20.4945 7.23628 20.5826 7.29584C20.5696 7.31393 20.5385 7.37862 20.4996 7.42265C20.4558 7.47385 20.409 7.50559 20.3909 7.54962C20.3522 7.64025 20.3211 7.70237 20.3211 7.74128C20.3211 7.78019 20.3081 8.02869 20.1994 8.18911C20.1605 8.24611 20.1165 8.34186 20.0854 8.40654C20.0207 8.52038 19.9637 8.61134 19.9508 8.66254C19.925 8.75317 19.9069 9.00166 19.9069 9.00166C19.9069 9.00166 19.9639 8.93168 19.9845 8.90591C19.9533 8.9706 19.9197 9.0404 19.8705 9.09228C19.9016 9.06634 19.9922 9.00166 20.145 8.867C20.3573 8.68848 20.6887 8.38811 21.0927 8.1502C20.9708 8.19423 20.8674 8.19423 20.7846 8.2072C20.8493 8.14252 21.4318 7.459 21.7373 7.39432C21.7558 7.3708 21.7651 7.34127 21.7632 7.31137L21.5016 7.2856L20.9708 7.39944L20.8933 6.98984L20.5385 7.20471V7.20522Z" fill="#B18E3E"/>
<path fill-rule="evenodd" clip-rule="evenodd" d="M21.3827 9.53531C21.3827 9.53531 21.3127 9.60511 21.248 9.77868C21.1982 9.72668 21.1555 9.66832 21.121 9.60511C21.0253 9.44469 20.8778 9.24006 20.5334 9.35662C20.5283 9.24791 20.5205 9.19091 20.5334 9.11325C20.5904 9.10045 20.7638 8.96068 20.9372 8.75605C21.0591 8.61627 21.1729 8.45567 21.2506 8.25122C21.3018 8.2123 21.3903 8.14762 21.5066 8.07253C21.6723 7.95869 21.8716 7.80322 21.9027 7.62982C21.825 7.66088 21.6593 7.73853 21.4107 7.72573C21.5066 7.6817 21.654 7.63511 21.6359 7.44345C21.6748 7.41751 21.7059 7.39942 21.7059 7.39942C21.6767 7.38969 21.646 7.38529 21.6153 7.38645C21.61 7.36836 21.6023 7.34259 21.5583 7.35539C21.5142 7.36819 21.5071 7.36836 21.5013 7.38645C21.4832 7.39174 21.4236 7.38645 21.3796 7.41768C21.3356 7.44891 21.2139 7.55217 21.1673 7.57026C21.1854 7.53919 21.2111 7.49277 21.2111 7.49277C21.2111 7.49277 21.0843 7.50557 20.9937 7.54397C20.828 7.60098 20.6365 7.70457 20.4423 7.80543C20.4604 7.77437 20.4682 7.75423 20.481 7.74843C20.4938 7.74263 20.5251 7.73563 20.5251 7.73034C20.5251 7.72505 20.5123 7.67914 20.5199 7.66054C20.578 7.53753 20.6465 7.41973 20.7247 7.30845C20.8154 7.1866 20.8335 7.0132 20.8335 7.0132L21.2296 6.81386L22.3428 6.55786L23.0653 6.60189L22.9746 7.10161L22.548 7.97405L22.1829 8.76885L21.766 9.25576L21.3828 9.53531H21.3827Z" fill="#543E26"/>
<path fill-rule="evenodd" clip-rule="evenodd" d="M23.1871 7.37281C23.1871 7.37281 22.7521 7.91126 22.6304 7.99421C22.7081 7.82849 23.1871 6.84204 23.3605 6.5676C23.3218 6.53654 23.2699 6.53654 23.3916 6.0556C23.2881 6.2988 23.2518 6.42578 23.1665 6.49046C23.0811 6.55514 23.0705 6.53449 23.0129 6.53449C23.0238 6.51479 23.0282 6.49218 23.0257 6.46981C23.0257 6.46981 22.6606 6.42578 22.4113 6.42578C22.1619 6.42578 21.6684 6.56043 21.3937 6.66915C21.1763 6.75977 21.0546 6.75977 20.977 6.81661C20.8993 6.88129 20.8553 6.95126 20.8164 6.96935C20.7853 6.98744 20.6379 7.03403 20.6041 7.08319C20.573 7.13439 20.5213 7.1919 20.5213 7.20487C20.5213 7.21784 20.5083 7.2361 20.5472 7.22296C20.56 7.21784 20.656 7.16596 20.7647 7.10128C20.9121 7.0185 21.0908 6.92276 21.2204 6.86576C21.5905 6.71813 21.7071 6.74407 21.8726 6.71301C22.046 6.68195 22.2947 6.60942 22.4602 6.60942C22.626 6.6043 22.9393 6.60942 23.0118 6.62239C22.9808 6.64833 22.9548 6.67939 22.9678 6.7881C22.9678 6.81917 22.9419 6.85279 22.9166 6.92788C22.8391 7.14019 22.6915 7.49227 22.6094 7.67096C22.4956 7.91416 22.3662 8.11879 22.3022 8.2456C22.2382 8.3724 22.0974 8.7064 21.958 8.88509C21.8185 9.06377 21.7457 9.17249 21.702 9.2114C21.6583 9.25031 21.3446 9.48054 21.368 9.56349C21.425 9.54539 21.7849 9.40989 22.0462 9.11566C22.3075 8.82143 22.3596 8.64189 22.564 8.48129C22.7685 8.32069 22.9291 8.05155 23.0248 7.829C23.105 7.62181 23.0869 7.55713 23.1878 7.37332L23.1871 7.37281Z" fill="#806031"/>
<path fill-rule="evenodd" clip-rule="evenodd" d="M13.8124 11.3917C13.8124 11.3917 13.7554 11.6272 13.6259 11.7438C13.4991 11.8578 13.2738 11.9561 13.248 12.1477C13.2169 12.3392 13.4733 12.4351 13.4733 12.4351C13.4733 12.4351 13.3333 12.6655 13.3333 12.8389C13.3333 13.0176 13.3282 13.0512 13.3463 13.2221C13.3258 13.2353 13.3083 13.2527 13.2951 13.2733C13.2951 13.2733 13.3079 13.439 13.4349 13.5424C13.5619 13.6458 13.6704 13.7081 13.7351 13.6822C13.745 13.7033 13.7536 13.7249 13.761 13.747C13.761 13.747 13.8569 13.5037 13.9216 13.2914C13.9863 13.0739 14.0433 13.1048 14.0691 12.8123C14.0949 12.5198 14.3763 12.0175 14.3763 12.0175L14.5683 11.5883L14.2551 11.3449L13.8124 11.3915V11.3917Z" fill="#B6903C"/>
<path fill-rule="evenodd" clip-rule="evenodd" d="M14.3949 11.8135C14.3303 11.8798 14.2707 11.9508 14.2165 12.0258C14.1338 12.1399 14.0691 12.2433 13.9474 12.2875C13.8257 12.3317 13.7481 12.3313 13.7557 12.4532C13.7634 12.5751 13.8774 12.6266 13.9421 12.6887C14.0121 12.7534 14.0691 12.8621 14.038 12.984C14.0768 12.9659 14.1467 12.9451 14.2114 12.8053C14.2761 12.6655 14.7285 11.8137 14.7285 11.8137H14.3949V11.8135Z" fill="#685026"/>
<path fill-rule="evenodd" clip-rule="evenodd" d="M16.1792 9.84849C16.1792 9.84849 16.2179 9.74506 16.1792 9.66997C16.1403 9.59231 15.9048 9.56637 15.7882 9.47831C15.6665 9.38769 15.5189 9.32471 15.3972 9.36447C15.4153 9.32044 15.4878 9.22453 15.4283 9.20388C15.3713 9.18579 15.1591 9.28153 15.1021 9.32556C15.0451 9.36959 14.9156 9.42131 14.8898 9.45254C14.864 9.48377 14.8198 9.54316 14.7939 9.51722C14.768 9.49913 14.7552 9.45254 14.7111 9.47831C14.6671 9.50408 14.4551 9.67765 14.416 9.77868C14.377 9.87972 14.2891 10.105 14.025 10.3612C13.761 10.6173 13.647 10.7832 13.7247 10.879C13.8023 10.9747 13.8387 10.9049 13.8516 10.9877C13.8616 11.0689 13.8572 11.1513 13.8387 11.2311C13.8076 11.3657 13.7559 11.4925 13.8257 11.5185C14.0044 11.5755 14.178 11.4673 14.2167 11.5004C14.2944 11.5702 14.1727 11.8214 14.3565 11.8705C14.543 11.9217 14.7268 11.8265 14.7268 11.8265L15.4051 11.4615L16.0575 11.1172L16.3913 10.4569L16.2123 9.90549L16.1782 9.84849H16.1792Z" fill="#D4B968"/>
<path fill-rule="evenodd" clip-rule="evenodd" d="M15.5392 11.4253C15.5392 11.4253 15.4252 11.2519 15.5651 11.099C15.7051 10.9461 15.9043 10.8815 15.9819 10.7858C15.9671 10.7676 15.9473 10.7541 15.9249 10.7471C15.9765 10.6548 16.0551 10.5807 16.1502 10.5346C16.1114 10.4958 16.0596 10.4648 16.0027 10.4648C15.8758 10.4648 15.7979 10.5424 15.6815 10.5424C15.5677 10.5424 15.5547 10.4854 15.5547 10.4854C15.5547 10.4854 15.7464 10.4673 15.7281 10.3818C15.71 10.2912 15.6769 10.2912 15.6769 10.2912C15.6769 10.2912 16.0471 10.1376 16.1118 10.0557C16.1765 9.97377 16.1688 9.877 16.1818 9.83826C16.2256 9.83826 16.482 9.70361 16.5856 9.76061C16.6892 9.81761 16.6166 9.97292 16.6166 9.97292C16.6166 9.97292 16.9301 9.73723 17.0899 9.50614C17.2297 9.51911 17.2947 9.4104 17.3971 9.4104C17.5241 9.4104 17.7234 9.5838 17.7621 9.95397C17.7881 10.1663 17.8268 10.288 17.7881 10.6634C17.77 10.8757 17.7751 11.329 17.8393 11.554C17.8831 11.7327 17.9867 11.7146 17.9867 11.7146C17.9708 11.769 17.9393 11.8176 17.8961 11.8543C17.8261 11.919 17.8185 12.09 17.8261 12.1547C17.8364 12.202 17.8494 12.2487 17.865 12.2945C17.865 12.2945 17.7823 12.3902 17.7614 12.4551C17.7434 12.5198 17.658 12.5638 17.5957 12.5638C17.5334 12.5638 17.5647 12.5585 17.4819 12.5638C17.3991 12.5691 17.3732 12.5819 17.3213 12.5638C17.2694 12.5457 17.2307 12.5249 17.2515 12.359C17.2696 12.1933 16.612 11.8076 16.612 11.8076L15.5368 11.4244L15.5392 11.4253Z" fill="#CCA849"/>
<path fill-rule="evenodd" clip-rule="evenodd" d="M14.3043 13.0615C14.3043 13.0615 14.5398 13.3748 15.5081 13.3748C15.9689 13.3748 16.1295 13.3308 16.2249 13.3048C16.3285 13.2789 16.7168 13.1263 17.1078 12.6654C17.4599 12.2486 17.3822 12.0778 17.3822 12.0778L17.1774 12.0467L16.5118 12.1373L14.5423 12.9761L14.3034 13.0615H14.3043Z" fill="#585136"/>
<path fill-rule="evenodd" clip-rule="evenodd" d="M15.0265 13.1391C15.0265 13.1391 14.1877 13.3257 14.1877 12.7949C14.1877 12.2771 14.7055 11.7333 14.835 11.6376C14.9697 11.5417 15.2907 11.4328 15.2907 11.4328H16.0648L16.2123 11.8238L16.1476 12.6677L15.0265 13.139V13.1391Z" fill="#252211"/>
<path fill-rule="evenodd" clip-rule="evenodd" d="M15.8007 11.591C15.8007 11.591 15.6402 11.4434 15.2752 11.6422C14.9101 11.841 14.6149 12.2566 14.5968 12.6339C14.5787 12.9678 14.8712 13.2164 15.3269 13.2294C15.666 13.2422 15.8706 13.2034 15.9742 13.1782C15.9483 13.1471 15.8136 12.9788 15.8136 12.9788L15.8008 11.5912L15.8007 11.591Z" fill="#C3B378"/>
<path fill-rule="evenodd" clip-rule="evenodd" d="M15.6428 11.6736C15.6428 11.6736 15.604 11.6425 15.4892 11.7047C15.3934 11.7559 15.2537 11.8912 15.145 11.9869C15.075 12.0439 15.031 12.0697 14.9914 12.1137C14.8308 12.3054 14.6961 12.6187 14.7739 12.7741C14.8517 12.9294 15.1079 13.1081 15.7604 12.9864L15.6409 11.6738L15.6428 11.6736Z" fill="#E6D89C"/>
<path fill-rule="evenodd" clip-rule="evenodd" d="M15.4305 11.9948C15.4305 11.9948 15.3269 12.1554 15.3269 12.4117C15.3269 12.6732 15.4745 13.09 16.0183 13.121C16.435 13.147 16.7146 12.5205 17.0175 12.2771C17.2479 12.0907 17.3877 12.0854 17.3877 12.0854C17.3877 12.0854 17.1522 11.8294 16.5231 11.4978C15.9017 11.1638 15.2052 11.1198 14.8272 11.6325C15.0059 11.6195 15.5832 11.4719 15.5832 11.4719L15.8655 11.5625L15.4305 11.995V11.9948Z" fill="#252211"/>
<path fill-rule="evenodd" clip-rule="evenodd" d="M16.2434 12.3339C16.2253 12.2952 16.2123 12.2433 16.2874 12.2305C16.3625 12.2177 16.3961 12.2252 16.4221 12.2817C16.448 12.3382 16.4733 12.3853 16.4349 12.4087C16.3961 12.4293 16.2951 12.4087 16.2432 12.3336L16.2434 12.3339ZM16.1217 11.9688C16.1217 11.9688 16.0957 11.9869 16.1087 11.9508C16.1138 11.9069 16.1476 11.8291 16.2304 11.8473C16.3132 11.8656 16.2953 11.956 16.2816 11.982C16.268 12.0079 16.1988 12.0518 16.1469 12.0332C16.1404 12.0315 16.1343 12.0283 16.1292 12.0238C16.1241 12.0193 16.1201 12.0137 16.1176 12.0074C16.115 12.0011 16.114 11.9943 16.1146 11.9876C16.1152 11.9808 16.1174 11.9743 16.121 11.9685L16.1217 11.9688Z" fill="#6F674D"/>
<path fill-rule="evenodd" clip-rule="evenodd" d="M9.1136 12.1344C9.1136 12.1344 9.3184 12.288 9.55631 12.282C9.79183 12.2767 10.0948 12.0335 10.2345 11.8781C10.3173 11.7874 10.3881 11.6917 10.4649 11.6166C10.5298 11.5519 10.5737 11.5208 10.6047 11.4768C10.6487 11.4256 10.6953 11.3294 10.7187 11.2981C10.6617 11.3422 10.5789 11.42 10.4934 11.4717C10.4107 11.5229 10.232 11.6192 10.1594 11.6451C10.0896 11.671 9.36465 12.0547 9.36465 12.0547L9.1136 12.1344Z" fill="#AC924C"/>
<path fill-rule="evenodd" clip-rule="evenodd" d="M9.42661 10.2214C9.42661 10.2214 9.54044 10.1437 9.7606 10.0944C9.97291 10.0432 10.4001 10.0038 10.4001 10.0038L10.7522 10.1574L10.8919 10.6882L10.6359 11.2398L10.3098 11.4446L9.93946 10.8491L9.42746 10.2224L9.42661 10.2214Z" fill="#9F8E57"/>
<path fill-rule="evenodd" clip-rule="evenodd" d="M8.9658 10.6952L8.84395 10.7861C8.84395 10.7861 8.87518 10.7291 8.90095 10.5557C8.92672 10.3823 9.06155 9.96027 9.25833 9.7169C9.45511 9.47353 9.44999 9.4865 9.44999 9.4865C9.43188 9.48319 9.41327 9.48377 9.39541 9.48822C9.37755 9.49266 9.36084 9.50086 9.34639 9.51227C9.37233 9.45493 9.53805 9.25013 9.70377 9.14773C9.86948 9.04533 9.93417 9.01307 10.1076 9.09653C10.281 9.17998 10.325 9.22333 10.452 9.21821C10.5789 9.21309 10.6875 9.07844 10.6875 9.07844C10.6875 9.07844 10.7134 9.16121 10.6177 9.35287C10.5219 9.54453 10.1439 9.93536 10.1439 9.93536L9.3568 10.4738L8.9658 10.6957V10.6952Z" fill="#EAC970"/>
<path fill-rule="evenodd" clip-rule="evenodd" d="M9.54812 10.1567C9.54812 10.1567 10.1178 10.2344 10.2912 10.0739C10.2963 10.092 10.3171 10.092 10.3171 10.105C10.3158 10.1148 10.3112 10.1238 10.3042 10.1308C10.323 10.1277 10.3421 10.126 10.3612 10.1256C10.384 10.1324 10.4074 10.1368 10.4312 10.1386C10.4503 10.1382 10.4693 10.1364 10.4882 10.1333C10.4864 10.1462 10.482 10.1586 10.4753 10.1697C10.4686 10.1808 10.4598 10.1905 10.4492 10.1982C10.4752 10.1982 10.5004 10.2033 10.5004 10.2239C10.5004 10.2446 10.5056 10.3069 10.4745 10.3199C10.4488 10.327 10.4214 10.3251 10.3968 10.3146C10.3989 10.3636 10.4122 10.4115 10.4358 10.4545C10.487 10.5503 10.5962 10.6593 10.743 10.6279C10.743 10.6279 10.8204 10.8143 10.4943 11.2285C10.4504 11.2855 10.4037 11.3631 10.3468 11.4278C10.3244 11.4768 10.3072 11.528 10.2956 11.5806C10.2956 11.5806 10.8472 11.3683 11.0051 10.8841C11.1657 10.3973 11.1968 9.91845 11.1657 9.47062C11.1604 9.34364 11.1398 9.25319 11.1087 9.18834C11.031 9.02774 10.8134 9.05368 10.7256 9.14431C10.5986 9.27128 10.3863 9.58701 10.0912 9.80444C9.79081 10.0219 9.77801 10.0604 9.54744 10.1567H9.54812Z" fill="#D7BC6B"/>
<path fill-rule="evenodd" clip-rule="evenodd" d="M8.86477 10.8558C8.86477 10.8558 8.75605 10.9204 8.69905 11.163C8.64205 11.4114 8.75025 11.7144 8.81288 11.8101C8.87552 11.9059 9.01768 12.1675 9.3126 12.1805C9.38559 12.1801 9.45778 12.1651 9.5249 12.1364C9.62786 12.0892 9.72442 12.0292 9.81231 11.9577C9.93928 11.862 10.0427 11.7792 10.0297 11.7714C9.99868 11.7584 9.24791 11.137 9.24791 11.137L8.96563 10.822L8.8646 10.8561L8.86477 10.8558Z" fill="#585136"/>
<path fill-rule="evenodd" clip-rule="evenodd" d="M9.57441 11.8861C9.57441 11.8861 9.72715 11.8733 9.81778 11.8163C9.9084 11.7593 9.287 11.1432 9.287 11.1432L9.33103 11.8088L9.57441 11.8861Z" fill="#453A25"/>
<path fill-rule="evenodd" clip-rule="evenodd" d="M8.91393 10.809C8.91393 10.809 8.83627 10.9566 8.83627 10.9955C8.8233 11.1223 8.86221 11.521 8.89328 11.6478C8.92434 11.7825 9.09261 11.9869 9.31021 11.9869C9.4447 11.9869 9.63124 11.9042 9.63124 11.8835C9.63124 11.8576 9.43958 11.8323 9.38787 11.7359C9.35681 11.6847 9.34384 11.5574 9.33667 11.4287C9.33155 11.3459 9.33155 11.2553 9.36261 11.2239C9.43258 11.1462 9.44538 10.9235 9.44538 10.9235L9.69387 10.4619H9.36705L8.97605 10.7052L8.91393 10.809Z" fill="#84754B"/>
<path fill-rule="evenodd" clip-rule="evenodd" d="M8.81818 10.9515C8.81818 10.9515 9.07418 10.6124 9.30492 10.5346C9.53566 10.4567 9.63891 10.5035 9.63891 10.5035L9.50426 10.8479L9.3126 11.0602L9.32557 11.1689C9.32557 11.1689 9.29434 11.4563 9.486 11.6557C9.67765 11.855 9.81999 11.8473 9.90293 11.8473C9.98588 11.8473 10.224 11.7774 10.3456 11.49C10.4544 11.2208 10.545 10.8756 10.3276 10.5294C10.1151 10.185 9.73978 10.1717 9.66724 10.1717C9.59471 10.1717 9.02519 10.2002 8.81818 10.951V10.9515Z" fill="#252211"/>
<path fill-rule="evenodd" clip-rule="evenodd" d="M15.3916 12.1035C15.2958 12.0595 15.3865 11.7904 15.4822 11.7074C15.5779 11.6245 15.6996 11.5289 15.9121 11.5157C15.9896 11.5106 16.0647 11.5598 16.0519 11.6117C16.0338 11.7074 15.8991 11.8421 15.7775 11.9378C15.6092 12.0699 15.5003 12.1527 15.3916 12.1035Z" fill="#F7F7E7"/>
<path fill-rule="evenodd" clip-rule="evenodd" d="M10.2136 10.6356C10.2835 10.6305 10.3742 10.6868 10.3922 10.7626C10.4103 10.8454 10.3482 11.0111 10.2136 11.0111C10.1048 11.0111 10.0478 10.8764 10.0478 10.8377C10.0491 10.8058 10.058 10.7747 10.0738 10.7471C10.0789 10.7392 10.0919 10.6486 10.2136 10.6356Z" fill="#F8F6DE"/>
<path fill-rule="evenodd" clip-rule="evenodd" d="M9.20388 10.6952C9.20388 10.6952 9.02519 10.7779 8.94241 10.9512C8.88327 11.0791 8.86538 11.2222 8.89121 11.3608C8.90418 11.4254 8.96887 11.5859 9.0129 11.6429C9.05693 11.6999 9.11649 11.7388 9.16053 11.7335C9.20456 11.7282 9.29501 11.6118 9.29501 11.542C9.29501 11.4722 9.3003 11.177 9.38564 11.0164C9.46073 10.8559 9.20439 10.6953 9.20439 10.6953L9.20388 10.6952Z" fill="#D4C38B"/>
<path fill-rule="evenodd" clip-rule="evenodd" d="M9.22982 10.6822C9.19876 10.7003 9.14705 10.7262 9.15985 10.7599C9.17282 10.7909 9.28153 10.8111 9.32045 10.8868C9.36448 10.9645 9.36448 11.0473 9.35151 11.0862C9.38533 11.0701 9.41601 11.0482 9.44213 11.0213C9.49913 10.9566 9.56894 10.8688 9.6285 10.8688C9.66741 10.8688 9.70615 10.8868 9.7425 10.8868C9.79951 10.8868 9.85634 10.8688 9.86419 10.8092C9.87699 10.7315 9.75548 10.6616 9.6855 10.6745C9.69847 10.6233 9.71656 10.5477 9.65956 10.4958C9.60256 10.444 9.42404 10.5348 9.38513 10.5607C9.34622 10.5866 9.22982 10.6824 9.22982 10.6824V10.6822Z" fill="#E2D59D"/>
<path fill-rule="evenodd" clip-rule="evenodd" d="M13.3437 16.1217L13.7269 16.0085L13.8356 16.0862C13.8356 16.0862 13.9131 16.2519 14.0349 16.2726C13.996 16.3553 13.895 16.4262 13.9003 16.4849C13.9056 16.5436 13.9573 16.5885 13.9573 16.5885C13.9573 16.5885 13.6129 17.158 14.2913 17.7319C14.1307 17.7966 13.9262 17.8855 13.8175 17.9367C13.895 17.9548 14.0607 17.9879 14.1307 18.0507C14.2007 18.1135 14.2007 18.1335 14.2653 18.1724C14.33 18.2113 14.3688 18.2631 14.356 18.2863C14.3119 18.2603 14.1643 18.1828 14.1385 18.2552C14.1128 18.3276 13.499 18.2992 13.499 18.2992L12.4634 18.4986C12.4634 18.4986 12.5022 18.395 12.3935 18.2992C12.2667 18.1854 12.1114 18.3044 11.9456 18.1775C11.7282 18.0118 11.7204 17.8202 11.6506 17.7478C11.7204 17.7038 11.8629 17.6391 12.202 17.5942C12.189 17.5683 12.145 17.4906 12.1709 17.4208C12.202 17.3302 12.3313 17.2732 12.2926 17.1648C12.3496 17.1518 12.3754 17.1518 12.5179 16.9732C12.6525 16.7945 12.7353 16.7557 12.8389 16.7428C12.9425 16.7298 13.0046 16.7428 13.1963 16.5641C13.3308 16.4373 13.2869 16.3285 13.2869 16.3285C13.2869 16.3285 13.3748 16.3 13.3439 16.1214L13.3437 16.1217Z" fill="#CBAC5A"/>
<path fill-rule="evenodd" clip-rule="evenodd" d="M12.2124 16.1792C12.2175 16.1532 12.2383 16.1403 12.3781 16.1532C12.5179 16.1662 13.4033 16.0705 13.6441 16.0575C13.8875 16.0394 14.7444 16.0522 15.1613 16.1403C15.5783 16.2283 16.0002 16.3319 16.2046 16.3836C16.4094 16.4406 16.4739 16.4611 16.4661 16.4871C16.461 16.513 16.4149 16.5383 16.3884 16.5311C16.3627 16.526 15.6843 16.3188 15.4747 16.2751C15.2651 16.2314 14.5399 16.1145 14.1435 16.1215C13.7733 16.1268 13.6257 16.1164 13.3125 16.1526C12.9992 16.1915 12.4814 16.2432 12.3261 16.2225C12.1725 16.2044 12.2042 16.2044 12.212 16.1785L12.2124 16.1792Z" fill="#D6BC6F"/>
<path fill-rule="evenodd" clip-rule="evenodd" d="M14.2964 18.2084C14.2964 18.2084 14.8272 18.4958 15.0188 18.8479C15.1586 19.1094 14.9361 19.2389 14.9361 19.2389C14.9361 19.2389 15.2364 19.2389 15.1975 19.4046C15.1794 19.508 14.6797 19.7876 14.3457 19.9352C14.0066 20.0828 14.0196 20.0752 13.8539 20.1009C13.6933 20.1269 13.2531 20.0497 13.1625 20.1786C13.0719 20.3074 13.1113 20.4402 13.1366 20.4609C13.1625 20.479 13.3722 20.5049 13.3722 20.5049C13.3722 20.5049 13.3282 20.6266 12.8934 20.6396C12.4585 20.6525 12.3496 20.6834 12.3237 20.7302C12.2977 20.774 12.4064 20.7483 12.606 20.7814C12.8053 20.8124 13.0848 20.8326 13.0848 20.8326C13.0848 20.8326 12.9942 20.9102 12.7587 20.9724C12.4894 21.0422 12.0673 21.107 11.9405 21.1847C12.0052 21.2287 12.1011 21.2934 12.1453 21.2985C12.0366 21.3244 11.8837 21.3814 11.8579 21.4021C11.8967 21.428 11.9485 21.4591 11.9485 21.4591C11.9485 21.4591 11.7309 21.7206 11.6041 21.7854C11.4773 21.8503 10.7472 22.1892 10.496 22.1245C9.86948 21.9588 9.79183 21.2727 9.63908 21.221C9.40868 21.1434 9.29997 21.2985 9.09534 21.1898C9.18596 21.1251 9.23529 21.0864 9.33103 21.0423C9.22744 20.9911 8.69154 20.6513 8.69154 20.6513C8.6355 20.5292 8.5733 20.41 8.50517 20.2941C8.40158 20.1154 8.24917 19.8772 8.13483 19.6674C7.88634 19.2066 7.87337 18.9943 7.64809 18.7329C7.687 18.6817 7.82148 18.6888 7.82148 18.6888L9.70906 19.3102L13.056 19.4072L13.9264 18.1646L14.2966 18.2086L14.2964 18.2084Z" fill="#DFC677"/>
<path fill-rule="evenodd" clip-rule="evenodd" d="M9.33853 20.1035C9.35873 20.126 9.38227 20.1452 9.40833 20.1605C9.47319 20.2045 9.56893 20.2564 9.63361 20.3339C9.65956 20.2952 9.72424 20.2252 9.83841 20.3339C9.95259 20.4426 10.0944 20.3651 10.1826 20.3909C10.2733 20.4221 10.2784 20.4349 10.2784 20.4349C10.2784 20.4349 10.3296 20.3909 10.4441 20.3443C10.5141 20.3184 10.5969 20.3003 10.6875 20.2745C10.7703 20.2564 10.8609 20.2305 10.9232 20.2305C10.9802 20.2692 11.1846 20.4865 12.0054 20.1658C12.7795 19.8654 12.958 19.8318 13.0876 19.8782C13.1005 19.8472 13.1135 19.7876 13.3128 19.7954C13.3128 19.7127 13.1471 19.4304 13.1471 19.4304L12.2332 19.1172H11.7333L10.2344 19.3916L9.40373 19.8656L9.33904 20.1045L9.33853 20.1035Z" fill="#C4A859"/>
<path fill-rule="evenodd" clip-rule="evenodd" d="M8.83882 19.578C8.83882 19.578 8.85691 19.7178 9.0641 19.8654C9.2689 20.0129 9.33324 20.101 9.33324 20.101C9.33324 20.101 9.37215 20.0498 9.40322 19.9975C9.43428 19.9405 9.46022 19.8758 9.51193 19.8578C9.61553 19.8137 9.85105 19.8965 9.90293 19.8835C9.94696 19.8707 9.93399 19.7801 9.98058 19.7801C10.0893 19.7748 10.1591 19.8499 10.198 19.8499C10.2369 19.8499 10.3325 19.8448 10.3455 19.8241C10.3584 19.8035 10.3636 19.5884 10.5112 19.4848C10.6718 19.371 10.8686 19.4202 10.9208 19.4461C10.9208 19.4848 10.9259 19.5808 11.0295 19.5859C11.1331 19.591 11.1433 19.5729 11.2343 19.604C11.3253 19.635 11.4336 19.5989 11.4828 19.7514C11.5268 19.7386 11.6304 19.7257 11.6045 19.578C11.6557 19.5393 11.7004 19.5133 11.8093 19.3606C11.8352 19.3219 11.8791 19.2778 11.9129 19.2208C12.0035 19.2208 12.1122 19.2027 12.2571 19.3295C12.2131 19.3606 12.1871 19.3807 12.1743 19.4123C12.2122 19.4498 12.2468 19.4905 12.2778 19.534C12.3167 19.5852 12.3426 19.648 12.3918 19.661C12.5005 19.692 12.6792 19.648 12.8785 19.661C13.0702 19.6739 13.2306 19.7437 13.3006 19.7878C13.3265 19.775 13.3265 19.7697 13.3912 19.7827C13.4559 19.7956 13.505 19.8007 13.4352 19.718C13.474 19.7361 13.518 19.775 13.5569 19.7361C13.5958 19.6972 13.6267 19.6403 13.7354 19.6274C13.8441 19.6144 13.883 19.6325 13.9271 19.5186C13.9841 19.3789 13.7873 19.3789 13.7873 19.3789C13.7873 19.3789 13.8779 19.2959 13.979 19.1872C14.1006 19.0734 14.2404 18.9257 14.274 18.7445C14.331 18.4105 14.0049 18.3666 14.0049 18.3666L12.423 18.8534L10.489 18.7575L8.83985 19.5782L8.83882 19.578Z" fill="#927D49"/>
<path fill-rule="evenodd" clip-rule="evenodd" d="M7.41751 15.0084C7.41751 15.0084 7.36631 15.0731 7.33474 15.2258C7.30316 15.3786 7.31665 15.3605 7.2907 15.4692C7.26476 15.5779 6.94613 16.6601 7.0656 17.0252C7.18506 17.3902 7.39191 17.5249 7.52128 17.82C7.54722 17.8847 7.57248 17.9236 7.58596 17.9806C7.62999 18.1721 7.59125 18.3197 7.64296 18.5113C7.66105 18.576 7.70781 18.6511 7.77762 18.7288C7.93122 18.8892 8.18158 19.042 8.28962 19.1507C8.44219 19.3113 8.65979 19.6376 8.93678 19.6685C9.08441 19.6866 9.29416 19.6244 9.46756 19.521C9.62116 19.4251 9.71605 19.2906 9.87716 19.2138C9.99099 19.1568 10.1127 19.1362 10.2214 19.1102C10.4467 19.0662 10.6513 19.059 10.773 19.0843C10.9594 19.1232 11.3995 19.2578 11.6434 19.2578C11.834 19.2548 12.0235 19.2287 12.2078 19.1802C12.578 19.0715 13.0258 18.8849 13.321 18.8022C13.4944 18.751 13.6342 18.7375 13.7767 18.7064C14.0201 18.6494 14.2245 18.5718 14.3411 18.4241C14.2635 18.3335 14.1677 18.1937 13.6497 18.1989C13.0621 18.2118 12.3837 18.538 12.0497 18.5899C11.7157 18.6417 11.5709 18.6856 11.1979 18.5509C10.8324 18.4149 10.8203 18.325 10.8203 18.325C10.8203 18.325 10.4364 18.0565 10.2758 17.3721C10.1152 16.6878 10.2758 16.1891 10.6928 15.7151C10.8015 15.5935 10.7755 15.4847 10.7755 15.4847C10.7755 15.4847 11.05 15.1146 10.9749 14.7679C10.8921 14.4235 10.3613 14.4935 10.3613 14.4935L7.41768 15.0084H7.41751Z" fill="#6E6342"/>
<path fill-rule="evenodd" clip-rule="evenodd" d="M7.86023 16.1606C7.8374 16.2035 7.82667 16.2518 7.82917 16.3004C7.83429 16.3702 7.85511 16.4608 8.06469 16.6654C8.24338 16.8439 8.20446 17.0433 8.20446 17.0433C8.20446 17.0433 8.2944 17.0614 8.53846 16.9472C8.73012 16.8566 8.79446 17.0172 8.79446 17.0172C8.85025 16.9879 8.91072 16.9686 8.97315 16.9602C9.02971 16.9549 9.08445 16.9375 9.13357 16.909C9.13357 16.909 9.35885 17.1394 9.55563 17.2481C9.73432 17.344 9.83791 17.4087 9.92598 17.344C10.0088 17.287 10.0088 17.1704 10.0035 17.1187C9.98292 17.071 9.95692 17.0258 9.92598 16.9841C9.86897 16.9013 9.77835 16.8054 9.77238 16.7281C9.75941 16.5495 9.90703 16.3371 9.8758 16.2853C9.84457 16.2336 9.72835 16.2207 9.44094 16.3243C9.1433 16.4226 7.85903 16.1611 7.85903 16.1611L7.86023 16.1606Z" fill="#39331F"/>
<path fill-rule="evenodd" clip-rule="evenodd" d="M8.53846 17.3179C8.53846 17.3179 8.391 17.1781 8.44271 16.4997C8.50532 16.4988 8.56782 16.5049 8.62908 16.5178C8.62908 16.5178 8.70947 17.0435 8.53846 17.3179Z" fill="#292311"/>
<path fill-rule="evenodd" clip-rule="evenodd" d="M7.48749 14.4906C7.50807 14.4754 7.52716 14.4583 7.5445 14.4394C7.4933 14.5352 7.25692 14.9183 7.44858 15.5216C7.64024 16.1222 8.12169 16.57 8.71459 16.5909C9.30748 16.6117 9.61912 16.3215 9.97547 15.8867C10.1152 15.7133 10.2758 15.4957 10.4182 15.3482C10.6305 15.1177 10.7962 15.053 10.7962 14.8304C10.7962 14.3748 10.3301 14.1701 9.64404 13.9657C8.95796 13.7612 8.33912 13.7865 8.0181 13.9264C7.70492 14.079 7.57027 14.2396 7.48732 14.4908L7.48749 14.4906Z" fill="#252211"/>
<path fill-rule="evenodd" clip-rule="evenodd" d="M9.69062 17.5224L9.74182 17.4964C9.74182 17.4964 9.75462 17.2916 9.83756 17.2971C9.92034 17.31 9.95925 17.4189 9.9514 17.4577C9.94628 17.4964 9.92563 17.5613 9.84268 17.5534C9.73397 17.556 9.69011 17.5224 9.69011 17.5224H9.69062Z" fill="#3F3824"/>
<path fill-rule="evenodd" clip-rule="evenodd" d="M9.46022 16.6524C9.46022 16.6524 9.51142 16.6344 9.57405 16.6965C9.62525 16.6965 9.84849 16.6705 9.91846 16.7146C9.98843 16.7586 10.0091 16.7973 10.0091 16.7973C10.0091 16.7973 9.74762 16.8543 9.60512 16.7973C9.46022 16.7482 9.46022 16.6524 9.46022 16.6524Z" fill="#2D2815"/>
<path fill-rule="evenodd" clip-rule="evenodd" d="M10.6124 16.6912C10.6124 16.6782 10.4726 16.5825 10.325 16.5513C10.2991 16.5461 10.2938 16.5642 10.2738 16.5642C10.2608 16.5591 10.2557 16.5202 10.2557 16.5202L10.1717 16.5644C10.1717 16.5644 10.1588 16.5825 10.2028 16.6156C10.2415 16.6467 10.3064 16.6726 10.3245 16.7243C10.3426 16.776 10.3426 16.7941 10.3504 16.802C10.3555 16.8071 10.4462 16.802 10.4902 16.776C10.5342 16.7501 10.6172 16.7078 10.6119 16.6907L10.6124 16.6912Z" fill="#82764F"/>
<path fill-rule="evenodd" clip-rule="evenodd" d="M9.30492 17.2168C9.30492 17.2168 9.33069 17.0383 9.50425 17.0305C9.68277 17.0175 9.71656 17.1909 9.71656 17.1909L9.61297 17.2945C9.61297 17.2919 9.53532 17.1832 9.30577 17.2168H9.30492Z" fill="#2D2816"/>
<path fill-rule="evenodd" clip-rule="evenodd" d="M10.4312 16.4478C10.4312 16.4478 10.3352 16.5514 10.1231 16.5825C10.105 16.5565 10.0661 16.5048 10.1231 16.4221C10.1801 16.3393 10.2448 16.3133 10.3095 16.3391C10.338 16.3437 10.3646 16.3564 10.3862 16.3757C10.4078 16.395 10.4234 16.42 10.4312 16.4478Z" fill="#574F35"/>
<path fill-rule="evenodd" clip-rule="evenodd" d="M10.822 16.5748C10.8273 16.5489 10.8092 16.5437 10.822 16.5308C10.8348 16.5178 10.9049 16.492 10.9179 16.5048C10.923 16.5101 10.9179 16.5308 10.9179 16.556C10.9179 16.5813 10.9179 16.6072 10.9049 16.6258C10.8868 16.6518 10.8351 16.6648 10.8092 16.6571C10.7832 16.6494 10.7781 16.613 10.7781 16.6059C10.7909 16.6008 10.822 16.5878 10.822 16.5748ZM11.264 16.2953C11.264 16.2823 11.308 16.2563 11.334 16.2563C11.3727 16.2563 11.3727 16.2874 11.378 16.2953C11.3908 16.3004 11.3908 16.29 11.4038 16.3133C11.4167 16.3367 11.435 16.378 11.4219 16.404C11.4087 16.4299 11.3572 16.4478 11.3444 16.4427C11.3263 16.4297 11.2693 16.3133 11.264 16.2953Z" fill="#82764F"/>
<path fill-rule="evenodd" clip-rule="evenodd" d="M10.3741 16.6344C10.3741 16.6344 10.4311 16.6472 10.5088 16.712C10.4829 16.7301 10.4439 16.7508 10.4439 16.7508C10.4439 16.7508 10.4388 16.6912 10.3741 16.6342V16.6344Z" fill="#6E6342"/>
<path fill-rule="evenodd" clip-rule="evenodd" d="M10.2473 16.0647C10.2344 16.0519 10.2861 16.0208 10.3171 16.0259C10.3482 16.0311 10.3612 16.0519 10.3948 16.057C10.4284 16.0621 10.4337 16.044 10.446 16.0311C10.4583 16.0181 10.503 16.0259 10.5107 16.0311C10.5155 16.0367 10.5198 16.0428 10.5236 16.0492C10.5242 16.0393 10.5268 16.0297 10.5312 16.0209C10.5356 16.0121 10.5418 16.0043 10.5494 15.998C10.5593 15.9907 10.5708 15.9857 10.5829 15.9835C10.595 15.9812 10.6075 15.9817 10.6194 15.985C10.6245 16.0031 10.6504 16.0678 10.6453 16.0807C10.6402 16.0937 10.5626 16.112 10.5494 16.0988C10.5624 16.13 10.6194 16.1947 10.6271 16.2075C10.6347 16.2203 10.5701 16.2516 10.5443 16.2464C10.5081 16.2439 10.2854 16.1143 10.2466 16.0652L10.2473 16.0647ZM10.5864 15.6349C10.5817 15.6219 10.5725 15.6109 10.5605 15.6039C10.5424 15.5988 10.4829 15.6039 10.4829 15.6349C10.4829 15.666 10.5341 15.8397 10.5916 15.9302C10.6564 16.0208 10.7003 16.0957 10.7443 16.1166C10.7581 16.1229 10.7738 16.1237 10.7882 16.1189C10.8027 16.1141 10.8147 16.104 10.822 16.0906C10.8271 16.0777 10.8401 15.9819 10.8349 15.7566C10.8298 15.5313 10.822 15.3139 10.809 15.3009C10.796 15.288 10.7443 15.2881 10.7262 15.3139C10.7081 15.3397 10.5916 15.5962 10.5863 15.6349H10.5864Z" fill="#585136"/>
<path fill-rule="evenodd" clip-rule="evenodd" d="M10.3561 16.9605C10.3561 16.9605 10.2654 16.9035 10.1774 16.9424C10.0946 16.9813 10.0997 17.1341 10.0997 17.1341C10.1183 17.1414 10.1385 17.144 10.1583 17.1417C10.1782 17.1395 10.1972 17.1324 10.2137 17.1211C10.2707 17.0824 10.3431 17.0177 10.3561 16.9607V16.9605Z" fill="#574F35"/>
<path fill-rule="evenodd" clip-rule="evenodd" d="M10.5269 17.1651C10.5218 17.1139 10.4757 17.1139 10.4757 17.0875C10.4789 17.0748 10.4862 17.0636 10.4965 17.0556C10.5068 17.0477 10.5195 17.0434 10.5325 17.0435C10.5585 17.0435 10.5837 17.0745 10.6155 17.0947C10.6465 17.1127 10.6931 17.1459 10.6982 17.1853C10.7034 17.2247 10.647 17.3327 10.5844 17.3327C10.5218 17.3327 10.5404 17.2162 10.5274 17.1645L10.5269 17.1651ZM11.0266 17.0952C11.0266 17.0952 10.923 17.1262 10.9307 17.0952C10.9384 17.0641 10.9619 17.0564 10.9955 17.0564C11.0126 17.0385 11.0356 17.0275 11.0602 17.0252C11.0743 17.0245 11.0881 17.0291 11.099 17.0382C11.099 17.0382 11.1689 17.0071 11.1896 17.0252C11.2102 17.0433 11.1949 17.0433 11.2077 17.0641C11.224 17.0872 11.2347 17.1138 11.2389 17.1418C11.2389 17.1624 11.1613 17.2064 11.099 17.1988C11.0266 17.1832 11.0394 17.1081 11.0266 17.0952ZM11.6297 16.9786C11.6297 16.9786 11.6608 16.9967 11.635 17.0175C11.6169 17.0356 11.5263 17.0687 11.4485 17.0745C11.3708 17.0745 11.301 17.0873 11.301 17.0615C11.301 17.0358 11.3657 16.9839 11.4045 16.9709C11.4122 16.9612 11.4221 16.9533 11.4333 16.948C11.4446 16.9426 11.4569 16.9398 11.4693 16.9399C11.5004 16.9399 11.6219 16.9269 11.6557 16.9218C11.6867 16.9165 11.7127 16.9346 11.6944 16.9605C11.6867 16.9786 11.6297 16.9786 11.6297 16.9786ZM11.8084 16.1792C11.8084 16.1792 11.7695 16.262 11.7257 16.262C11.6816 16.2569 11.6816 16.2439 11.6816 16.2309C11.6816 16.2128 11.7257 16.1662 11.7204 16.1533C11.7076 16.1533 11.6763 16.1533 11.6816 16.1222C11.6816 16.0963 11.7257 16.0652 11.7644 16.071C11.7937 16.0469 11.8301 16.0333 11.868 16.0323C11.912 16.0323 11.9508 16.0451 11.9508 16.071C11.9508 16.0969 11.8996 16.1538 11.8808 16.1669C11.8601 16.1876 11.8342 16.201 11.8084 16.1797V16.1792ZM11.2181 17.7092C11.2181 17.7092 11.1669 17.7145 11.1669 17.7403C11.1669 17.7533 11.1797 17.7533 11.198 17.7456C11.2085 17.745 11.2189 17.7432 11.229 17.7403C11.2341 17.7456 11.2341 17.7714 11.273 17.7714C11.305 17.767 11.3358 17.7565 11.3637 17.7403C11.3947 17.7275 11.4207 17.7143 11.4207 17.6891C11.4077 17.6451 11.3818 17.6242 11.343 17.6242C11.3232 17.623 11.3034 17.6275 11.286 17.6372C11.286 17.6372 11.273 17.6113 11.229 17.6372C11.185 17.6631 11.1901 17.6631 11.2031 17.6761C11.2263 17.6968 11.2186 17.7103 11.2186 17.7103L11.2181 17.7092ZM10.9256 17.9785C10.9256 17.9656 10.9903 17.9396 11.0083 17.9475C11.0264 17.9526 11.0781 18.0509 11.0781 18.0613C11.0781 18.0743 11.0135 18.1053 10.9875 18.1053C10.9616 18.1053 10.9177 18.0613 10.9177 18.0541C10.9177 18.049 10.9488 18.0413 10.9488 18.0361C10.9565 18.0233 10.9256 17.992 10.9256 17.9791V17.9785ZM10.7208 17.6005C10.7337 17.5954 10.7337 17.5824 10.7518 17.5695C10.7575 17.5657 10.7639 17.5633 10.7707 17.5624C10.7774 17.5615 10.7843 17.5622 10.7907 17.5643C10.7953 17.5562 10.8016 17.5492 10.8092 17.5438C10.8169 17.5384 10.8256 17.5347 10.8348 17.5331C10.8658 17.528 10.8918 17.5331 10.886 17.5461C10.886 17.585 10.9119 17.6108 10.9119 17.6418C10.9119 17.6729 10.8938 17.7118 10.8291 17.7377C10.7645 17.7558 10.6764 17.7558 10.6634 17.7507C10.6505 17.7456 10.6375 17.6937 10.6505 17.6678C10.6634 17.6418 10.6996 17.6135 10.7204 17.6005H10.7208Z" fill="#82764F"/>
<path fill-rule="evenodd" clip-rule="evenodd" d="M10.8032 17.6181C10.8032 17.6181 10.7592 17.644 10.7592 17.657C10.7553 17.6695 10.7535 17.6826 10.7541 17.6958C10.7541 17.7034 10.8111 17.6906 10.8187 17.6828C10.8213 17.6777 10.8032 17.6316 10.8032 17.6181Z" fill="#6E6342"/>
<path fill-rule="evenodd" clip-rule="evenodd" d="M10.4182 17.4964C10.4439 17.5017 10.488 17.4964 10.5216 17.5094C10.5475 17.5224 10.5656 17.5483 10.5397 17.5794C10.5137 17.6104 10.4885 17.657 10.431 17.6492C10.3663 17.644 10.3042 17.6104 10.3042 17.5845C10.3031 17.5681 10.3053 17.5516 10.3106 17.536C10.3159 17.5205 10.3243 17.5061 10.3352 17.4939C10.3612 17.4732 10.374 17.4862 10.418 17.4964H10.4182Z" fill="#585136"/>
<path fill-rule="evenodd" clip-rule="evenodd" d="M10.3871 17.5223C10.3871 17.5223 10.3043 17.587 10.2835 17.6183C10.2576 17.6493 10.1308 17.8097 10.092 17.8434C10.1049 17.8207 10.1196 17.799 10.1359 17.7787C10.0847 17.8114 10.0463 17.8608 10.0272 17.9185C9.99612 18.0144 10.2007 18.0661 10.3352 18.105C10.4697 18.1439 10.5218 18.1562 10.5218 18.1562C10.4723 18.0818 10.4298 18.0029 10.3948 17.9207C10.3436 17.799 10.3171 17.786 10.3508 17.729C10.3767 17.672 10.4156 17.6333 10.4156 17.5892C10.4001 17.5483 10.3871 17.5223 10.3871 17.5223Z" fill="#574F35"/>
<path fill-rule="evenodd" clip-rule="evenodd" d="M7.4356 17.727C7.45444 17.7304 7.47376 17.7304 7.4926 17.727C7.53134 17.7217 7.93531 17.5734 8.35737 17.6C8.67333 17.6191 8.98649 17.6706 9.29194 17.7536C9.82271 17.8934 10.4829 18.1704 10.91 18.3284C11.0239 18.3723 11.1353 18.4501 11.2172 18.481C11.5435 18.608 11.5563 18.608 11.748 18.6416C11.9733 18.6726 12.2037 18.5975 12.4445 18.5458C12.7396 18.481 13.2444 18.4499 13.6871 18.3852C13.8303 18.3654 13.9715 18.3334 14.1092 18.2895C14.1092 18.2895 13.7571 18.6416 12.913 18.7684C12.5718 18.8202 12.2251 18.8246 11.8827 18.7814C11.6133 18.7554 11.4348 18.7165 11.3002 18.6778C11.1474 18.6337 10.8341 18.5172 10.4484 18.4218C10.1791 18.3518 9.87869 18.3001 9.53446 18.2354C8.68522 18.0799 7.76362 17.9014 7.43526 17.728L7.4356 17.727Z" fill="#252211"/>
<path fill-rule="evenodd" clip-rule="evenodd" d="M6.48277 16.127C6.27797 16.3004 6.06071 16.4661 5.84858 16.6265L5.20909 17.1179C4.99166 17.2783 4.77935 17.444 4.56175 17.6046C4.34415 17.7652 4.12689 17.9178 3.89615 18.0654C4.10095 17.892 4.31821 17.7314 4.53564 17.5736C4.75307 17.4157 4.97852 17.2609 5.18827 17.1008L5.82775 16.6088C6.04774 16.4483 6.26005 16.2826 6.48277 16.1273V16.127ZM5.35142 17.9393C5.35142 17.9393 5.58182 17.7476 5.86923 17.4785C6.22643 17.1447 6.66402 16.7173 6.8038 16.6398L5.35125 17.9395L5.35142 17.9393Z" fill="#CFB66C"/>
<path fill-rule="evenodd" clip-rule="evenodd" d="M5.35143 17.9391C5.46543 17.8253 5.58712 17.714 5.7088 17.6051L5.89517 17.4447C5.95217 17.3935 6.01703 17.336 6.07386 17.279C6.18769 17.1651 6.29914 17.0433 6.41297 16.9269C6.46939 16.8683 6.52905 16.813 6.59166 16.7612C6.62296 16.7335 6.65773 16.7099 6.69508 16.6912C6.72632 16.6731 6.75994 16.64 6.8038 16.6342C6.77803 16.6731 6.74697 16.6912 6.72103 16.7248C6.68996 16.7508 6.66402 16.7818 6.63825 16.8076C6.58125 16.8646 6.51657 16.9163 6.45956 16.9682C6.33788 17.0718 6.21107 17.173 6.08939 17.2814C5.9677 17.3897 5.85387 17.5066 5.73201 17.6153C5.60009 17.7268 5.4784 17.8355 5.35143 17.9396V17.9391ZM6.89971 16.9035C6.89971 16.9035 6.05577 17.7295 5.8822 17.864L6.89971 16.9035Z" fill="#CFB66C"/>
<path fill-rule="evenodd" clip-rule="evenodd" d="M6.89972 16.9035C6.8238 16.9914 6.7424 17.0744 6.656 17.152L6.4 17.3954C6.31723 17.4781 6.23941 17.5611 6.15151 17.6439C6.06089 17.7215 5.97812 17.7975 5.8822 17.8691L6.13069 17.6258C6.21364 17.543 6.30426 17.4732 6.39232 17.3902L6.64082 17.1469C6.72615 17.0615 6.80909 16.9786 6.89972 16.9035ZM6.93846 17.3513C6.86067 17.5684 6.769 17.7803 6.66403 17.9857C6.4466 18.4207 6.12045 18.9643 5.97795 19.2415L6.93846 17.3513Z" fill="#CFB66C"/>
<path fill-rule="evenodd" clip-rule="evenodd" d="M6.93845 17.3515C6.93845 17.4472 6.91251 17.5302 6.88145 17.613C6.85117 17.6958 6.81665 17.777 6.77802 17.8563C6.73911 17.934 6.69508 18.0169 6.65105 18.092C6.60702 18.1671 6.5553 18.2446 6.51639 18.3224L6.25493 18.7832C6.16431 18.9368 6.07624 19.0913 5.9805 19.2389C6.04518 19.0732 6.13325 18.9179 6.21619 18.7651C6.30681 18.6115 6.38959 18.4579 6.47219 18.299C6.51252 18.2199 6.5488 18.1387 6.5809 18.0558C6.61965 17.9729 6.65839 17.8952 6.68962 17.8202C6.72836 17.7374 6.75942 17.6596 6.79833 17.5846C6.84219 17.5042 6.87855 17.4266 6.93811 17.3515H6.93845Z" fill="#CFB66C"/>
<path fill-rule="evenodd" clip-rule="evenodd" d="M7.86022 19.4744C7.86022 19.4744 7.60422 19.8135 7.62982 20.2433C7.69962 20.0182 7.78769 19.6738 7.86022 19.4744ZM8.10359 19.8144C8.10359 19.8144 8.01297 20.736 7.93787 21.1891C8.04403 20.6653 8.06468 20.7094 8.10359 19.8144ZM9.79934 21.2436C9.79934 21.2436 9.41619 22.37 9.40834 22.683C9.49128 22.3611 9.65171 21.7035 9.79934 21.2427V21.2436Z" fill="#DEC270"/>
<path fill-rule="evenodd" clip-rule="evenodd" d="M10.6952 19.4048C10.6952 19.4048 11.3166 20.43 11.7826 21.305C11.6565 20.8647 11.3664 20.0571 10.6952 19.4048Z" fill="#CBAF59"/>
<path fill-rule="evenodd" clip-rule="evenodd" d="M12.3651 20.914C12.7063 21.5171 13.014 22.1385 13.2867 22.7755C13.235 22.3353 13.0951 21.582 12.3651 20.914Z" fill="#E3C677"/>
<path fill-rule="evenodd" clip-rule="evenodd" d="M17.2739 22.4256C17.3773 22.3609 17.5819 22.0087 17.7606 21.9208C17.9391 21.8302 18.0738 21.8121 18.2344 21.6334C18.3948 21.4468 18.4392 21.333 18.7909 21.1855C19.2829 20.9731 18.9445 20.6986 18.9445 20.6986C18.9987 20.6454 19.0567 20.5961 19.1179 20.5512C19.2449 20.4554 19.3923 20.3389 19.3795 20.1342C19.3615 19.79 19.2968 19.2903 19.0145 19.0003C19.2889 18.9433 19.8144 18.9046 20.1409 18.8218C20.5187 18.7259 20.6923 18.5912 20.6923 18.5912C20.6923 18.5912 20.4749 18.2211 20.827 17.8483C21.1791 17.4756 21.4665 17.2529 21.6788 16.8359C21.4354 16.8049 21.0644 16.6755 20.1175 17.0353C20.1686 17.0593 20.218 17.087 20.2651 17.118C20.2651 17.118 19.6826 17.2786 19.4703 17.4573C19.1 17.7705 19.0534 18.0268 18.6522 18.2185C18.2509 18.4102 17.847 18.3583 17.5131 18.5136C17.1793 18.6689 17.13 18.801 17.0081 18.858C17.0341 18.8891 17.003 18.9408 17.0522 18.9848C17.0211 19.0288 16.8399 19.3239 16.656 19.3239C16.6741 19.3939 16.8294 19.4456 16.8294 19.4456C16.8294 19.4456 16.7156 19.5285 16.4256 19.5492C16.5731 19.7028 16.713 19.8702 17.0988 20.1136C17.0677 20.1783 16.9382 20.2742 16.99 20.3959C17.047 20.5176 17.1948 20.6833 17.7848 20.8179C17.4845 20.8307 17.1325 20.9007 16.6584 20.836C16.1847 20.779 16.107 20.7454 15.8145 20.8179C15.8455 20.849 15.9283 20.849 16.0009 20.9318C15.9232 20.9369 15.4365 20.8748 15.2707 21.0924C15.0973 21.3175 15.0223 21.6878 15.0352 21.9363C14.9446 21.9803 14.8565 22.058 14.9006 22.2186C14.9446 22.3792 15.175 22.4309 15.3226 22.5318C15.4701 22.6405 15.4831 22.6792 15.623 22.6535C15.7705 22.6224 15.9879 22.4749 16.1149 22.4749C16.2418 22.4749 16.3323 22.5707 16.3323 22.5707C16.3323 22.5707 16.6767 22.405 16.7103 22.436C16.7414 22.4671 16.7154 22.6664 16.7491 22.6975C16.7832 22.7209 17.1711 22.4905 17.2747 22.4256H17.2739Z" fill="#ECD592"/>
<path fill-rule="evenodd" clip-rule="evenodd" d="M24.8001 12.0648C23.182 7.88617 19.1819 7.11203 19.1819 7.11203H7.7696L7.81363 11.3683H10.0864V20.8725H7.76942V25.1211H18.866C21.5403 25.1211 23.6841 22.4336 23.6841 22.4336C27.1171 17.5613 24.7999 12.0648 24.7999 12.0648H24.8001ZM18.9256 19.5702C18.9256 19.5702 18.0552 20.8259 17.1081 20.8259H15.2137L15.1688 11.3787H17.6C17.6 11.3787 18.7264 11.6142 19.5133 13.8433C19.5133 13.8433 20.5566 17.0348 18.9256 19.5702Z" fill="white" fill-opacity="0.8"/>
</g>
<defs>
<clipPath id="clip0_1_4930">
<rect width="32" height="32" fill="white" transform="translate(0.000488281 0.00878906)"/>
</clipPath>
</defs>
</svg>
