<svg width="32" height="32" viewBox="0 0 32 32" fill="none" xmlns="http://www.w3.org/2000/svg">
<g clip-path="url(#clip0_1_4920)">
<path d="M16.0005 32.0088C24.837 32.0088 32.0005 24.8453 32.0005 16.0088C32.0005 7.17223 24.837 0.00878906 16.0005 0.00878906C7.16393 0.00878906 0.000488281 7.17223 0.000488281 16.0088C0.000488281 24.8453 7.16393 32.0088 16.0005 32.0088Z" fill="#E6007A"/>
<g clip-path="url(#clip1_1_4920)">
<path d="M15.9993 10.0151C17.9057 10.0151 19.4511 9.11628 19.4511 8.00754C19.4511 6.89881 17.9057 6 15.9993 6C14.0929 6 12.5475 6.89881 12.5475 8.00754C12.5475 9.11628 14.0929 10.0151 15.9993 10.0151Z" fill="white"/>
<path d="M15.9993 25.1415C17.9057 25.1415 19.4511 24.2427 19.4511 23.134C19.4511 22.0252 17.9057 21.1264 15.9993 21.1264C14.0929 21.1264 12.5475 22.0252 12.5475 23.134C12.5475 24.2427 14.0929 25.1415 15.9993 25.1415Z" fill="white"/>
<path d="M11.1891 12.794C12.1423 11.1431 12.1361 9.35504 11.1753 8.8003C10.2145 8.24555 8.66286 9.13417 7.70968 10.7851C6.75649 12.436 6.76268 14.224 7.72349 14.7788C8.68431 15.3335 10.2359 14.4449 11.1891 12.794Z" fill="white"/>
<path d="M24.2875 20.3563C25.2406 18.7054 25.235 16.9177 24.2748 16.3633C23.3147 15.8089 21.7636 16.6979 20.8104 18.3488C19.8572 19.9997 19.8629 21.7874 20.823 22.3418C21.7832 22.8962 23.3343 22.0072 24.2875 20.3563Z" fill="white"/>
<path d="M11.1756 22.3413C12.1364 21.7866 12.1426 19.9986 11.1894 18.3476C10.2363 16.6967 8.68467 15.8081 7.72385 16.3629C6.76304 16.9176 6.75685 18.7056 7.71003 20.3565C8.66322 22.0075 10.2148 22.8961 11.1756 22.3413Z" fill="white"/>
<path d="M24.2757 14.7792C25.2359 14.2248 25.2415 12.4371 24.2884 10.7862C23.3352 9.13529 21.7841 8.24637 20.8239 8.80073C19.8638 9.3551 19.8581 11.1428 20.8113 12.7937C21.7645 14.4447 23.3156 15.3336 24.2757 14.7792Z" fill="white"/>
</g>
</g>
<defs>
<clipPath id="clip0_1_4920">
<rect width="32" height="32" fill="white" transform="translate(0.000488281 0.00878906)"/>
</clipPath>
<clipPath id="clip1_1_4920">
<rect width="18" height="19.1429" fill="white" transform="translate(7 6)"/>
</clipPath>
</defs>
</svg>
