<svg width="32" height="32" viewBox="0 0 32 32" fill="none" xmlns="http://www.w3.org/2000/svg">
<g clip-path="url(#clip0_1_4906)">
<path d="M16.0005 32.0088C24.837 32.0088 32.0005 24.8453 32.0005 16.0088C32.0005 7.17223 24.837 0.00878906 16.0005 0.00878906C7.16393 0.00878906 0.000488281 7.17223 0.000488281 16.0088C0.000488281 24.8453 7.16393 32.0088 16.0005 32.0088Z" fill="#242D3D"/>
<path d="M23.2645 17.1118C22.7135 14.6848 21.0005 12.0088 21.0005 12.0088C22.9745 17.3958 22.2145 21.4588 21.6915 23.7638C21.6915 23.7638 21.0015 26.3418 22.4865 24.1938C24.3385 21.5058 23.2645 17.1118 23.2645 17.1118Z" fill="white"/>
<path d="M18.2096 7.90779C19.2366 11.5658 19.7016 14.6708 19.8466 17.2598C20.1016 21.6718 19.4286 24.5748 19.0106 26.1078C18.8766 26.6068 19.4346 26.9778 19.7596 26.6008L19.7656 26.5948C20.5776 25.6658 20.9616 23.4898 21.1416 21.5798L21.1936 20.9528C21.3616 18.6528 21.2636 16.3318 20.7236 14.1078C19.7306 10.0038 18.2096 7.90779 18.2096 7.90779ZM16.3696 14.3518C16.1196 8.34379 15.6666 3.00879 15.6666 3.00879C15.6666 3.00879 15.2086 8.07679 14.9586 13.9508C14.9186 14.9038 14.8826 15.8728 14.8536 16.8478C14.8136 18.2648 14.7956 19.6878 14.7956 21.0628C14.8016 23.5068 14.8956 25.7998 15.1156 27.6288C15.2026 28.3538 16.1426 28.3538 16.2296 27.6288C16.3806 26.3808 16.4676 24.8478 16.5026 23.1638C16.5351 21.3432 16.5275 19.5221 16.4796 17.7018C16.4496 16.5868 16.4156 15.4608 16.3696 14.3518ZM9.35165 21.5908C9.21463 20.4585 9.18316 19.3159 9.25765 18.1778C9.31565 17.2838 9.44365 16.3258 9.66465 15.3038C9.86765 14.3688 10.1456 13.3878 10.5236 12.3548C10.5236 12.3548 9.31565 14.2418 8.60765 16.2788C8.46765 16.6688 8.35265 17.0688 8.26465 17.4578C8.26465 17.4578 8.03865 18.4798 8.00465 19.8438C7.98065 20.7898 8.05565 21.9098 8.35765 22.9668C8.51029 23.5201 8.73915 24.0495 9.03765 24.5398C9.03765 24.5398 10.5236 26.7518 9.83265 24.1098C9.61767 23.2814 9.45667 22.44 9.35065 21.5908H9.35165Z" fill="white"/>
<path d="M11.3969 20.5078C11.3484 19.3117 11.3678 18.1137 11.4549 16.9198C11.5152 16.0383 11.6083 15.1594 11.7339 14.2848C11.9939 12.4038 12.4189 10.3198 13.0639 8.00879C13.0639 8.00879 11.5359 10.1048 10.5439 14.2088C10.4909 14.4288 10.4439 14.6498 10.3979 14.8648C10.2179 15.7588 10.1019 16.6648 10.0439 17.5818C9.9739 18.7318 9.9919 19.8918 10.0739 21.0478L10.1259 21.6808C10.3059 23.5908 10.6829 25.7668 11.5009 26.6958L11.5069 26.7018C11.8319 27.0738 12.3949 26.7018 12.2569 26.2088C11.9539 25.0768 11.5069 23.1958 11.3969 20.5078Z" fill="white"/>
<path d="M13.7564 20.9558C13.7236 19.6247 13.7176 18.2931 13.7384 16.9618C13.7504 16.0858 13.7734 15.1618 13.8144 14.1928C13.9134 11.6908 14.3834 8.07379 14.7084 5.00879C14.7084 5.00879 13.1064 8.32379 12.3744 14.3038C12.2764 15.1218 12.1834 16.0038 12.1134 16.9568L12.0614 17.6648C12.0614 17.6648 11.9744 18.9298 12.0084 20.6368C12.0554 22.8308 12.2984 25.7568 13.2044 27.6728C13.2344 27.7308 13.2684 27.7828 13.3144 27.8228L13.3204 27.8298C13.6634 28.1548 14.1914 27.8468 14.1454 27.3418C13.9323 25.219 13.8022 23.0887 13.7554 20.9558H13.7564ZM17.0764 20.9558C17.1064 19.7598 17.1174 18.4258 17.0944 16.9618C17.0824 16.0858 17.0594 15.1618 17.0184 14.1928C16.9204 11.6908 16.4504 8.07379 16.1244 5.00879C16.1244 5.00879 17.7274 8.32379 18.4584 14.3038C18.5574 15.1218 18.6504 16.0038 18.7194 16.9568L18.7724 17.6648C18.7724 17.6648 18.8594 18.9298 18.8244 20.6368C18.7774 22.8308 18.5344 25.7568 17.6284 27.6728C17.6018 27.7294 17.5644 27.7804 17.5184 27.8228L17.5124 27.8298C17.1694 28.1548 16.6424 27.8468 16.6884 27.3418C16.8044 26.2448 17.0014 24.0678 17.0764 20.9558Z" fill="white"/>
</g>
<defs>
<clipPath id="clip0_1_4906">
<rect width="32" height="32" fill="white" transform="translate(0.000488281 0.00878906)"/>
</clipPath>
</defs>
</svg>
