<svg width="32" height="32" viewBox="0 0 32 32" fill="none" xmlns="http://www.w3.org/2000/svg">
<g clip-path="url(#clip0_1_4902)">
<path d="M16.001 32.0088C24.8375 32.0088 32.001 24.8453 32.001 16.0088C32.001 7.17223 24.8375 0.00878906 16.001 0.00878906C7.16442 0.00878906 0.000976562 7.17223 0.000976562 16.0088C0.000976562 24.8453 7.16442 32.0088 16.001 32.0088Z" fill="#74D269"/>
<path d="M24.964 14.5208H24.984L25.001 19.4868L13.824 26.0088L10.832 24.3268V24.3288L10.813 24.3168L8.00098 22.5138V9.49279L11.074 7.67979L11.08 7.68279L13.793 6.00879L24.943 12.5718L24.964 14.5208ZM21.689 17.6328L19.35 16.2938L11.543 20.8878L13.835 22.2508L21.689 17.6328ZM18.823 15.9928L14.007 13.2348L13.986 18.9158L18.823 15.9928ZM14.009 12.6268L21.751 17.1578V14.4528L14.019 9.93779L14.009 12.6268ZM10.821 23.5788L10.851 20.8658L10.833 20.8768V11.3048L8.48598 9.90479V22.1848L10.821 23.5788ZM11.237 20.5778L13.582 19.1598V9.90479L11.237 11.3058V20.5778ZM14.118 22.6088L14.071 25.4448L24.507 19.3088L24.537 16.4888L14.118 22.6088ZM21.911 14.0248L24.34 12.6388L13.885 6.53379L11.479 7.92579L21.911 14.0248Z" fill="white"/>
</g>
<defs>
<clipPath id="clip0_1_4902">
<rect width="32" height="32" fill="white" transform="translate(0.000976562 0.00878906)"/>
</clipPath>
</defs>
</svg>
