<svg width="32" height="32" viewBox="0 0 32 32" fill="none" xmlns="http://www.w3.org/2000/svg">
<g clip-path="url(#clip0_1_4896)">
<path d="M16.001 32.0088C24.8375 32.0088 32.001 24.8453 32.001 16.0088C32.001 7.17223 24.8375 0.00878906 16.001 0.00878906C7.16442 0.00878906 0.000976562 7.17223 0.000976562 16.0088C0.000976562 24.8453 7.16442 32.0088 16.001 32.0088Z" fill="#3C80F1"/>
<path d="M15.911 4.00879C10.441 4.01279 6.00698 8.44479 6.00098 13.9138C6.00598 14.4478 6.06598 14.9798 6.17898 15.5018C6.18473 15.5265 6.1965 15.5494 6.21323 15.5684C6.22996 15.5875 6.25114 15.6021 6.27489 15.611C6.29863 15.6199 6.32421 15.6228 6.34934 15.6195C6.37448 15.6161 6.3984 15.6066 6.41898 15.5918C6.79757 15.3207 7.25134 15.1746 7.71698 15.1738C7.73948 15.1745 7.76186 15.1703 7.78252 15.1613C7.80317 15.1524 7.82158 15.1389 7.83641 15.122C7.85124 15.1051 7.86213 15.0851 7.86828 15.0634C7.87443 15.0417 7.87569 15.019 7.87198 14.9968C7.80613 14.6432 7.77199 14.2844 7.76998 13.9248C7.76998 12.8558 7.98052 11.7973 8.3896 10.8097C8.79867 9.82216 9.39826 8.92481 10.1541 8.16894C10.91 7.41307 11.8073 6.81348 12.7949 6.40441C13.7825 5.99534 14.841 5.78479 15.91 5.78479C16.9789 5.78479 18.0374 5.99534 19.025 6.40441C20.0126 6.81348 20.91 7.41307 21.6658 8.16894C22.4217 8.92481 23.0213 9.82216 23.4304 10.8097C23.8394 11.7973 24.05 12.8558 24.05 13.9248C24.05 18.4148 18.306 24.1498 16.25 26.1748C16.1595 26.2636 16.0378 26.3133 15.911 26.3133C15.7842 26.3133 15.6625 26.2636 15.572 26.1748C14.7016 25.3253 13.8569 24.4499 13.039 23.5498H12.999C12.2124 23.4725 11.4402 23.2874 10.704 22.9998L10.568 22.9448C10.5365 22.9303 10.501 22.927 10.4673 22.9354C10.4337 22.9439 10.404 22.9636 10.3831 22.9912C10.3622 23.0189 10.3513 23.0529 10.3524 23.0875C10.3535 23.1222 10.3664 23.1555 10.389 23.1818C11.6619 24.703 13.0127 26.1572 14.436 27.5388C14.8299 27.9229 15.3583 28.1379 15.9085 28.1379C16.4587 28.1379 16.9871 27.9229 17.381 27.5388C21.001 23.9628 25.821 18.6728 25.821 13.9138C25.815 8.44379 21.381 4.01279 15.911 4.00879Z" fill="white"/>
<path d="M20.1942 14.8798C20.1942 15.0198 20.1832 15.1568 20.1702 15.2928C20.1342 15.8135 20.0137 16.3249 19.8132 16.8068C19.5972 17.2868 19.3092 17.7298 18.9602 18.1228L18.9702 18.1318C18.2789 18.9043 17.4251 19.5142 16.4702 19.9178C15.5246 20.3246 14.4927 20.4903 13.4672 20.3998C12.49 20.3027 11.556 19.9483 10.7602 19.3728C11.0172 19.3648 11.2722 19.3258 11.5202 19.2568C11.7442 19.1948 11.9588 19.103 12.1582 18.9838C12.5894 18.7264 12.924 18.3342 13.1102 17.8678C13.1972 17.6548 13.2562 17.4328 13.2882 17.2048C13.3082 17.0148 13.3132 16.8218 13.3062 16.6298V10.1398C13.3058 10.1335 13.3058 10.1271 13.3062 10.1208V10.0868C13.3207 10.0086 13.3596 9.93698 13.4172 9.8822C13.4749 9.82741 13.5484 9.79227 13.6272 9.78179H15.7702C16.2782 9.82179 16.7752 9.95479 17.2352 10.1748C18.1939 10.628 18.9957 11.3567 19.5382 12.2678C19.6702 12.4918 19.7862 12.7258 19.8832 12.9678C19.9762 13.2078 20.0502 13.4578 20.1032 13.7098C20.1562 13.9618 20.1862 14.2178 20.1932 14.4748V14.8808L20.1942 14.8798ZM21.9582 14.4138C21.9474 14.0536 21.9042 13.6952 21.8292 13.3428C21.6805 12.6457 21.4184 11.9779 21.0532 11.3658C20.3294 10.1485 19.2577 9.17572 17.9762 8.57279C17.3214 8.26188 16.615 8.07409 15.8922 8.01879C15.8012 8.01879 15.7132 8.01879 15.6132 8.00879H13.6152C13.5512 8.00879 13.4852 8.00879 13.4202 8.02279C13.1592 8.05279 12.9052 8.13279 12.6722 8.25679C12.3519 8.42794 12.0804 8.67768 11.8831 8.98257C11.6857 9.28745 11.5692 9.63748 11.5442 9.99979V16.6298C11.5442 16.7458 11.5362 16.8618 11.5202 16.9768C11.5102 17.0548 11.4912 17.1308 11.4632 17.2048C11.4413 17.2598 11.411 17.3111 11.3732 17.3568C11.281 17.4558 11.1611 17.5248 11.0292 17.5548C10.8322 17.6048 10.6292 17.6208 10.4262 17.6018C9.70214 17.5309 9.0208 17.2262 8.48523 16.7338C8.3314 16.5915 8.13204 16.5085 7.9227 16.4996C7.71336 16.4906 7.50765 16.5563 7.34225 16.685C7.17686 16.8136 7.06254 16.9968 7.01967 17.2019C6.97681 17.407 7.00819 17.6207 7.10823 17.8048C7.73219 18.9445 8.5887 19.9403 9.62223 20.7278C10.1553 21.1254 10.7391 21.45 11.3582 21.6928C11.9796 21.9353 12.6314 22.0914 13.2952 22.1568C14.6131 22.2788 15.9405 22.0713 17.1582 21.5528C18.3711 21.0511 19.4466 20.2671 20.2952 19.2658L20.3062 19.2748C20.7744 18.7454 21.1589 18.1475 21.4462 17.5018C21.7186 16.8443 21.8824 16.1468 21.9312 15.4368C21.9452 15.2588 21.9542 15.0978 21.9602 14.9278V14.6768C21.9672 14.6028 21.9612 14.5018 21.9602 14.4138H21.9582Z" fill="white"/>
</g>
<defs>
<clipPath id="clip0_1_4896">
<rect width="32" height="32" fill="white" transform="translate(0.000976562 0.00878906)"/>
</clipPath>
</defs>
</svg>
