<svg width="32" height="32" viewBox="0 0 32 32" fill="none" xmlns="http://www.w3.org/2000/svg">
<g clip-path="url(#clip0_1_4890)">
<path d="M16.001 32.0088C24.8375 32.0088 32.001 24.8453 32.001 16.0088C32.001 7.17223 24.8375 0.00878906 16.001 0.00878906C7.16442 0.00878906 0.000976562 7.17223 0.000976562 16.0088C0.000976562 24.8453 7.16442 32.0088 16.001 32.0088Z" fill="#121747"/>
<path d="M18.0183 22.8728C18.0183 24.0178 17.0983 24.9468 15.9623 24.9468C14.8263 24.9468 13.9073 24.0178 13.9073 22.8718V9.08279C13.9073 7.93779 14.8273 7.00879 15.9623 7.00879C17.0973 7.00879 18.0183 7.93779 18.0183 9.08379V22.8728ZM11.0983 22.8778C11.105 23.2438 11.0146 23.605 10.8363 23.9247C10.658 24.2444 10.3982 24.5111 10.0833 24.6978C9.77019 24.8829 9.41309 24.9805 9.04933 24.9805C8.68557 24.9805 8.32848 24.8829 8.01533 24.6978C7.70065 24.511 7.44105 24.2442 7.26294 23.9245C7.08484 23.6048 6.99457 23.2437 7.00133 22.8778V19.7778C6.99457 19.4119 7.08484 19.0508 7.26294 18.7311C7.44105 18.4114 7.70065 18.1446 8.01533 17.9578C8.32848 17.7727 8.68557 17.675 9.04933 17.675C9.41309 17.675 9.77019 17.7727 10.0833 17.9578C10.398 18.1446 10.6576 18.4114 10.8357 18.7311C11.0138 19.0508 11.1041 19.4119 11.0973 19.7778L11.0983 22.8778Z" fill="white"/>
<path opacity="0.5" d="M25.113 17.3178C25.113 18.4628 24.193 19.3918 23.057 19.3918C21.921 19.3918 21.001 18.4618 21.001 17.3168V12.0838C21.001 10.9378 21.921 10.0088 23.057 10.0088C24.193 10.0088 25.113 10.9378 25.113 12.0838V17.3178Z" fill="white"/>
</g>
<defs>
<clipPath id="clip0_1_4890">
<rect width="32" height="32" fill="white" transform="translate(0.000976562 0.00878906)"/>
</clipPath>
</defs>
</svg>
