<svg width="32" height="33" viewBox="0 0 32 33" fill="none" xmlns="http://www.w3.org/2000/svg">
<g clip-path="url(#clip0_1_4886)">
<path d="M16 32.0103C24.8366 32.0103 32 24.8468 32 16.0103C32 7.1737 24.8366 0.0102539 16 0.0102539C7.16344 0.0102539 0 7.1737 0 16.0103C0 24.8468 7.16344 32.0103 16 32.0103Z" fill="#1693D4"/>
<path fill-rule="evenodd" clip-rule="evenodd" d="M9.928 16.5843C9.90222 16.2248 9.90055 15.864 9.923 15.5043H7.123L4 13.0063H10.494C11.1005 11.5267 12.134 10.2613 13.4627 9.37147C14.7913 8.48167 16.3549 8.00779 17.954 8.01026C22.398 8.01026 26 11.5923 26 16.0103C26 20.4283 22.398 24.0103 17.954 24.0103C16.3674 24.0126 14.8156 23.5461 13.4933 22.6694C12.171 21.7926 11.1373 20.5446 10.522 19.0823H4L7.123 16.5843H9.928ZM22.537 16.1593C22.537 15.3293 22.425 14.6053 22.2 13.9873C21.975 13.3693 21.663 12.8513 21.265 12.4373C20.866 12.0223 20.394 11.7093 19.847 11.4993C19.3 11.2893 18.707 11.1833 18.064 11.1833C17.37 11.1833 16.724 11.3013 16.126 11.5373C15.528 11.7733 15.011 12.1053 14.574 12.5323C14.137 12.9603 13.794 13.4763 13.543 14.0823C13.292 14.6883 13.167 15.3623 13.167 16.1023C13.167 16.8543 13.292 17.5273 13.543 18.1203C13.793 18.7133 14.14 19.2143 14.583 19.6223C15.027 20.0313 15.551 20.3463 16.155 20.5703C16.7918 20.7992 17.4643 20.9126 18.141 20.9053C19.876 20.9053 21.201 20.2923 22.113 19.0673L20.57 17.8433C20.313 18.2133 19.986 18.5033 19.587 18.7133C19.189 18.9233 18.7 19.0293 18.122 19.0293C17.788 19.0293 17.466 18.9723 17.158 18.8573C16.85 18.7423 16.573 18.5863 16.328 18.3883C16.082 18.1925 15.8796 17.9475 15.7336 17.6691C15.5876 17.3907 15.5012 17.0849 15.48 16.7713H22.518C22.531 16.6693 22.537 16.5673 22.537 16.4653V16.1593ZM20.223 15.1253H15.48C15.532 14.4753 15.798 13.9423 16.28 13.5273C16.763 13.1133 17.35 12.9053 18.045 12.9053C18.417 12.9053 18.742 12.9653 19.018 13.0873C19.294 13.2093 19.523 13.3713 19.703 13.5753C19.883 13.7793 20.014 14.0153 20.098 14.2833C20.1823 14.5559 20.2245 14.8399 20.223 15.1253Z" fill="white"/>
</g>
<defs>
<clipPath id="clip0_1_4886">
<rect width="32" height="32" fill="white" transform="translate(0 0.0102539)"/>
</clipPath>
</defs>
</svg>
