<svg width="32" height="33" viewBox="0 0 32 33" fill="none" xmlns="http://www.w3.org/2000/svg">
<g clip-path="url(#clip0_1_4882)">
<path d="M16 32.0103C24.8366 32.0103 32 24.8468 32 16.0103C32 7.1737 24.8366 0.0102539 16 0.0102539C7.16344 0.0102539 0 7.1737 0 16.0103C0 24.8468 7.16344 32.0103 16 32.0103Z" fill="#AA15DD"/>
<path d="M15.999 25.1223C16.239 25.1233 16.434 25.3223 16.435 25.5663C16.4361 25.6828 16.3909 25.795 16.3093 25.8783C16.2278 25.9615 16.1166 26.009 16 26.0103C15.9422 26.0098 15.8851 25.9979 15.8319 25.9753C15.7788 25.9527 15.7306 25.9199 15.6901 25.8786C15.6496 25.8374 15.6176 25.7886 15.596 25.735C15.5744 25.6814 15.5635 25.6241 15.564 25.5663C15.5635 25.5085 15.5744 25.4512 15.596 25.3976C15.6176 25.344 15.6496 25.2952 15.6901 25.254C15.7306 25.2128 15.7788 25.1799 15.8319 25.1573C15.8851 25.1347 15.9422 25.1228 16 25.1223H15.999ZM7.21903 10.8683C7.11801 10.8079 7.04468 10.7103 7.01477 10.5965C6.98486 10.4826 7.00075 10.3616 7.05903 10.2593C7.10181 10.1833 7.16644 10.1218 7.24455 10.0828C7.32267 10.0439 7.41066 10.0293 7.49716 10.0409C7.58366 10.0526 7.66467 10.0899 7.72972 10.1481C7.79477 10.2063 7.84086 10.2826 7.86203 10.3673C7.88452 10.4523 7.88164 10.542 7.85374 10.6253C7.82584 10.7087 7.77414 10.782 7.70503 10.8363C7.63663 10.8899 7.55367 10.9216 7.46697 10.9273C7.38027 10.933 7.29386 10.9125 7.21903 10.8683ZM7.21903 20.1623C7.26877 20.1335 7.32373 20.1148 7.38074 20.1074C7.43775 20.1 7.49566 20.104 7.55111 20.1192C7.60656 20.1344 7.65844 20.1604 7.70375 20.1958C7.74905 20.2312 7.78688 20.2752 7.81503 20.3253C7.87289 20.4272 7.88855 20.5477 7.85864 20.661C7.82873 20.7742 7.75564 20.8713 7.65503 20.9313C7.60536 20.9604 7.55038 20.9793 7.49331 20.9868C7.43624 20.9944 7.37825 20.9904 7.32272 20.9753C7.2672 20.9601 7.21527 20.9339 7.16999 20.8984C7.1247 20.8629 7.08698 20.8186 7.05903 20.7683C7.00116 20.6664 6.9855 20.546 7.01541 20.4327C7.04532 20.3194 7.11841 20.2223 7.21903 20.1623ZM24.779 10.8683C24.7293 10.8971 24.6743 10.9158 24.6173 10.9232C24.5603 10.9306 24.5024 10.9266 24.4469 10.9114C24.3915 10.8963 24.3396 10.8702 24.2943 10.8349C24.249 10.7995 24.2112 10.7554 24.183 10.7053C24.1392 10.6289 24.1188 10.5413 24.1241 10.4533C24.1294 10.3654 24.1603 10.2809 24.213 10.2103C24.265 10.1403 24.3369 10.0876 24.4194 10.0591C24.5018 10.0305 24.5909 10.0275 24.675 10.0503C24.7596 10.0742 24.8353 10.1225 24.8926 10.1891C24.95 10.2557 24.9865 10.3377 24.9976 10.4249C25.0087 10.5121 24.9939 10.6007 24.955 10.6795C24.9161 10.7583 24.8549 10.824 24.779 10.8683ZM16 5.89832C15.8846 5.89544 15.7748 5.84726 15.6946 5.76419C15.6143 5.68112 15.5699 5.56982 15.571 5.45432C15.571 5.27432 15.679 5.11132 15.842 5.04332C15.9223 5.00991 16.0109 5.00158 16.096 5.01942C16.1812 5.03727 16.2589 5.08046 16.319 5.14332C16.3798 5.20671 16.4207 5.2865 16.4367 5.37286C16.4527 5.45922 16.4431 5.54837 16.409 5.62932C16.3756 5.70994 16.3188 5.77868 16.2458 5.82664C16.1729 5.8746 16.0873 5.89957 16 5.89832ZM23.8 20.0923C23.694 20.2794 23.6581 20.4981 23.6988 20.7092C23.7395 20.9204 23.8541 21.1101 24.022 21.2443L16.871 25.4443C16.8435 25.2326 16.7402 25.0381 16.5802 24.8967C16.4203 24.7553 16.2145 24.6767 16.001 24.6753C15.7876 24.6767 15.5818 24.7553 15.4219 24.8967C15.2619 25.0381 15.1586 25.2326 15.131 25.4443L7.97803 21.2443C8.14541 21.1098 8.25947 20.9202 8.29978 20.7093C8.34009 20.4984 8.30402 20.28 8.19803 20.0933C8.09455 19.9076 7.92669 19.7661 7.72609 19.6955C7.52549 19.625 7.30601 19.6302 7.10903 19.7103V11.3103C7.30577 11.3902 7.52493 11.3955 7.72529 11.3251C7.92565 11.2548 8.09341 11.1137 8.19703 10.9283C8.30308 10.742 8.33948 10.5241 8.29973 10.3135C8.25998 10.1028 8.14667 9.91316 7.98003 9.77832L15.131 5.57832C15.1586 5.79001 15.2619 5.98455 15.4219 6.12593C15.5818 6.26732 15.7876 6.34596 16.001 6.34732C16.2147 6.34593 16.4205 6.26714 16.5805 6.12556C16.7405 5.98397 16.8437 5.78919 16.871 5.57732L24.024 9.77732C23.8569 9.91175 23.743 10.1012 23.7027 10.3119C23.6624 10.5226 23.6983 10.7407 23.804 10.9273C23.9075 11.1131 24.0754 11.2546 24.276 11.3251C24.4766 11.3957 24.696 11.3904 24.893 11.3103V19.7053C24.6952 19.6252 24.4748 19.6203 24.2736 19.6916C24.0724 19.7629 23.9042 19.9055 23.801 20.0923H23.8ZM17.688 18.8053C16.9111 19.2621 15.992 19.4133 15.1097 19.2296C14.2274 19.0458 13.445 18.5402 12.915 17.8113L17.633 15.0473L19.241 14.1033L20.003 13.6533L20.047 13.6323L23.287 11.7263C23.487 11.6093 23.557 11.3493 23.443 11.1453C23.4169 11.0964 23.381 11.0533 23.3375 11.0187C23.2941 10.9841 23.2441 10.9588 23.1905 10.9443C23.1369 10.9298 23.0809 10.9264 23.026 10.9343C22.9711 10.9422 22.9183 10.9613 22.871 10.9903L20.489 12.3953C20.0361 11.7178 19.4412 11.1469 18.7457 10.7222C18.0502 10.2974 17.2706 10.0289 16.461 9.93532V7.20632C16.4616 7.14906 16.4508 7.09226 16.4294 7.03916C16.408 6.98606 16.3763 6.9377 16.3362 6.89684C16.296 6.85599 16.2483 6.82343 16.1956 6.80103C16.1429 6.77864 16.0863 6.76684 16.029 6.76632C15.9717 6.76671 15.915 6.77841 15.8622 6.80075C15.8094 6.82309 15.7615 6.85562 15.7212 6.89649C15.681 6.93736 15.6493 6.98577 15.6278 7.03893C15.6063 7.0921 15.5955 7.14898 15.596 7.20632V9.91032C14.7074 9.95385 13.8426 10.2126 13.076 10.6643C12.3842 11.0698 11.7864 11.6175 11.322 12.2713L9.13803 10.9903C9.09045 10.9625 9.03778 10.9444 8.98312 10.9371C8.92846 10.9299 8.8729 10.9337 8.81971 10.9482C8.76652 10.9627 8.71677 10.9877 8.67338 11.0218C8.62999 11.0558 8.59383 11.0981 8.56703 11.1463C8.51195 11.2439 8.49712 11.3591 8.52569 11.4674C8.55427 11.5757 8.62399 11.6686 8.72003 11.7263L10.887 13.0003C10.4235 13.9296 10.2196 14.9668 10.297 16.0023L10.498 17.1463C10.588 17.4563 10.701 17.7583 10.839 18.0493L8.72003 19.2943C8.62336 19.3522 8.55328 19.4457 8.52485 19.5547C8.49643 19.6638 8.51193 19.7796 8.56803 19.8773C8.59511 19.9255 8.63152 19.9678 8.67513 20.0017C8.71874 20.0357 8.76867 20.0606 8.82202 20.075C8.87536 20.0894 8.93104 20.0931 8.98582 20.0858C9.04059 20.0784 9.09335 20.0603 9.14103 20.0323L11.268 18.7863C11.7548 19.4971 12.3974 20.0873 13.147 20.5119C13.8965 20.9365 14.7331 21.1843 15.593 21.2363V23.8143C15.593 24.0573 15.787 24.2543 16.026 24.2543C16.0833 24.2538 16.1399 24.242 16.1926 24.2196C16.2453 24.1972 16.293 24.1647 16.3332 24.1238C16.3733 24.0829 16.405 24.0346 16.4264 23.9815C16.4478 23.9284 16.4586 23.8716 16.458 23.8143V21.2143C17.2361 21.1343 17.9874 20.8852 18.659 20.4843C19.4168 20.034 20.0562 19.4094 20.524 18.6623L22.861 20.0303C23.061 20.1443 23.313 20.0733 23.428 19.8713C23.4835 19.7744 23.4991 19.6596 23.4715 19.5513C23.4439 19.4431 23.3752 19.3498 23.28 19.2913L20.928 17.9113C20.934 17.8983 20.948 17.8833 20.948 17.8673C21.662 16.2233 19.751 15.5173 19.326 16.7833C19.0421 17.6333 18.4599 18.3517 17.687 18.8053H17.688ZM24.78 20.1623C24.8805 20.2227 24.9535 20.3199 24.9833 20.4333C25.0132 20.5467 24.9977 20.6672 24.94 20.7693C24.912 20.8196 24.8742 20.8637 24.8289 20.8991C24.7836 20.9346 24.7316 20.9606 24.6761 20.9757C24.6206 20.9908 24.5626 20.9946 24.5056 20.987C24.4486 20.9794 24.3936 20.9605 24.344 20.9313C24.2434 20.8713 24.1703 20.7742 24.1404 20.661C24.1105 20.5477 24.1262 20.4272 24.184 20.3253C24.212 20.275 24.2497 20.2308 24.295 20.1952C24.3403 20.1597 24.3922 20.1336 24.4477 20.1184C24.5032 20.1032 24.5612 20.0993 24.6183 20.1068C24.6754 20.1144 24.7304 20.1332 24.78 20.1623ZM12.284 16.0973C12.241 14.4303 12.439 13.2673 14.018 12.3393C14.6556 11.964 15.3929 11.7932 16.1306 11.8496C16.8683 11.9061 17.571 12.1873 18.144 12.6553L12.284 16.0973Z" fill="white"/>
</g>
<defs>
<clipPath id="clip0_1_4882">
<rect width="32" height="32" fill="white" transform="translate(0 0.0102539)"/>
</clipPath>
</defs>
</svg>
