<svg width="32" height="33" viewBox="0 0 32 33" fill="none" xmlns="http://www.w3.org/2000/svg">
<g clip-path="url(#clip0_1_4878)">
<path d="M16 32.0103C24.8366 32.0103 32 24.8468 32 16.0103C32 7.1737 24.8366 0.0102539 16 0.0102539C7.16344 0.0102539 0 7.1737 0 16.0103C0 24.8468 7.16344 32.0103 16 32.0103Z" fill="#2B1544"/>
<path d="M24.981 12.5043V19.1603C24.981 19.4563 24.996 19.7583 24.929 20.0493C24.7774 20.7225 24.4286 21.3353 23.927 21.8093C23.691 22.0363 23.397 22.1833 23.116 22.3493C21.209 23.4593 19.308 24.5723 17.402 25.6843C16.82 25.9953 16.132 26.0483 15.486 25.9683C15.1486 25.9272 14.8225 25.8205 14.526 25.6543C12.519 24.4843 10.512 23.3113 8.506 22.1423C8.016 21.8693 7.65 21.4193 7.381 20.9353C7.161 20.5153 7 20.0533 7 19.5723V12.3863C7.037 11.6863 7.347 11.0233 7.788 10.4943C7.96671 10.2707 8.18293 10.0798 8.427 9.93029C10.292 8.84429 12.157 7.75429 14.021 6.66429C14.328 6.49429 14.619 6.28629 14.951 6.17229C15.5124 5.99697 16.1084 5.9633 16.686 6.07429C16.943 6.14629 17.205 6.22229 17.436 6.35829C19.466 7.54929 21.499 8.73129 23.528 9.92329C24.069 10.2433 24.466 10.7783 24.724 11.3493C24.887 11.7093 24.981 12.1063 24.981 12.5043ZM15.931 10.0283C15.5003 10.6669 15.0017 11.257 14.444 11.7883C14.152 12.0653 13.871 12.3643 13.704 12.7353C13.57 12.9973 13.48 13.2953 13.518 13.5953C13.563 13.9993 13.851 14.3553 14.225 14.4993C14.605 14.6513 15.035 14.6173 15.413 14.4693C15.481 14.4389 15.5563 14.4285 15.63 14.4393C15.556 14.9133 15.268 15.3133 15.04 15.7223L15.05 15.7903C15.256 16.0103 15.473 16.2183 15.678 16.4343C15.73 16.4833 15.778 16.5513 15.85 16.5743C16.089 16.3893 16.276 16.1463 16.496 15.9423C16.545 15.8863 16.646 15.8253 16.593 15.7383C16.38 15.3383 16.144 14.9333 16.077 14.4713C16.117 14.3773 16.23 14.4563 16.297 14.4793C16.652 14.6533 17.081 14.6793 17.452 14.5363C17.957 14.3433 18.271 13.7523 18.158 13.2183C18.072 12.7383 17.818 12.2983 17.474 11.9623C16.944 11.4173 16.435 10.8353 16.073 10.1613C16.0602 10.1303 16.0409 10.1023 16.0164 10.0794C15.9919 10.0565 15.9628 10.039 15.931 10.0283ZM12.298 16.5383C11.698 16.8643 11.297 17.5033 11.198 18.1823C11.061 19.1353 11.618 20.1313 12.481 20.5213C13.027 20.7563 13.661 20.7513 14.211 20.5363C14.495 20.4223 14.738 20.2363 14.947 20.0173C15.026 19.9333 15.141 19.8583 15.141 19.7293C15.131 19.6003 15.015 19.5293 14.94 19.4413C14.842 19.3543 14.764 19.2413 14.652 19.1723C14.472 19.0933 14.364 19.2903 14.248 19.3883C13.793 19.8503 12.974 19.8543 12.508 19.4033C12.3578 19.262 12.2448 19.0859 12.1789 18.8906C12.113 18.6952 12.0962 18.4867 12.13 18.2833C12.186 17.9003 12.414 17.5373 12.754 17.3553C12.974 17.2453 13.221 17.1853 13.464 17.1963C13.807 17.2183 14.121 17.4003 14.353 17.6503C15.145 18.4383 15.907 19.2553 16.696 20.0463C17.114 20.4593 17.693 20.7243 18.283 20.7013C18.733 20.7113 19.166 20.5313 19.532 20.2773C20.071 19.9023 20.399 19.2513 20.432 18.5933C20.504 17.5513 19.749 16.5003 18.732 16.2993C18.083 16.1673 17.35 16.3033 16.85 16.7653C16.494 17.0893 16.17 17.4533 15.818 17.7863C15.455 17.4873 15.168 17.1093 14.813 16.8033C14.6614 16.6595 14.4853 16.544 14.293 16.4623C14.257 16.4393 14.245 16.4283 14.197 16.4093C13.8926 16.28 13.562 16.2242 13.2321 16.2467C12.9021 16.2691 12.5821 16.369 12.298 16.5383ZM17.335 17.5903C17.594 17.3323 17.96 17.1813 18.325 17.2113C18.721 17.2223 19.105 17.4343 19.315 17.7753C19.643 18.2753 19.547 18.9943 19.125 19.4063C18.691 19.8273 17.947 19.8803 17.48 19.4823C17.133 19.1873 16.842 18.8353 16.51 18.5253C16.506 18.5033 16.502 18.4613 16.498 18.4423C16.775 18.1543 17.058 17.8783 17.335 17.5903Z" fill="white"/>
</g>
<defs>
<clipPath id="clip0_1_4878">
<rect width="32" height="32" fill="white" transform="translate(0 0.0102539)"/>
</clipPath>
</defs>
</svg>
