<svg width="32" height="33" viewBox="0 0 32 33" fill="none" xmlns="http://www.w3.org/2000/svg">
<g clip-path="url(#clip0_1_4874)">
<path d="M16 32.0103C24.8366 32.0103 32 24.8468 32 16.0103C32 7.1737 24.8366 0.0102539 16 0.0102539C7.16344 0.0102539 0 7.1737 0 16.0103C0 24.8468 7.16344 32.0103 16 32.0103Z" fill="#242424"/>
<path d="M13.06 23.8842L15.743 21.1872L18.437 23.8842L16.718 25.6062C16.5901 25.7345 16.4381 25.8363 16.2708 25.9057C16.1035 25.9751 15.9242 26.0109 15.743 26.0109C15.5619 26.0109 15.3825 25.9751 15.2152 25.9057C15.0479 25.8363 14.8959 25.7345 14.768 25.6062L13.06 23.8842ZM20.01 14.6422L17.318 11.9452L20.011 9.24824L22.703 11.9452L20.01 14.6422ZM19.341 23.0052L16.648 20.3082L23.878 13.0662L25.596 14.7872C26.135 15.3272 26.135 16.2002 25.596 16.7402L19.341 23.0052ZM11.938 22.7272L9.24601 20.0302L16.464 12.8002L19.156 15.4972L11.938 22.7272ZM8.11601 18.9272L6.39701 17.2052C6.1403 16.9444 5.9975 16.5925 5.99994 16.2266C6.00238 15.8606 6.14985 15.5106 6.41001 15.2532L8.12801 13.5312L10.821 16.2292L8.11601 18.9272ZM18.883 8.13924L11.653 15.3772L8.96001 12.6802L15.215 6.41424C15.3429 6.28598 15.4949 6.18422 15.6622 6.11479C15.8295 6.04535 16.0089 6.00961 16.19 6.00961C16.3712 6.00961 16.5505 6.04535 16.7178 6.11479C16.8851 6.18422 17.0371 6.28598 17.165 6.41424L18.883 8.13924Z" fill="white"/>
</g>
<defs>
<clipPath id="clip0_1_4874">
<rect width="32" height="32" fill="white" transform="translate(0 0.0102539)"/>
</clipPath>
</defs>
</svg>
