<svg width="32" height="33" viewBox="0 0 32 33" fill="none" xmlns="http://www.w3.org/2000/svg">
<g clip-path="url(#clip0_1_4870)">
<path d="M16 32.0103C24.8366 32.0103 32 24.8468 32 16.0103C32 7.1737 24.8366 0.0102539 16 0.0102539C7.16344 0.0102539 0 7.1737 0 16.0103C0 24.8468 7.16344 32.0103 16 32.0103Z" fill="#0FACF3"/>
<path d="M9.9707 9.02596H15.4027C17.5567 9.02596 18.6267 8.95796 20.2327 9.10496C21.8397 9.27496 23.4467 9.93096 24.4867 11.188C25.7117 12.648 26.0697 14.618 25.9887 16.451C25.9087 18.274 25.2837 20.186 23.8507 21.431C22.5797 22.575 20.8007 22.994 19.1127 23.005C15.8307 23.016 12.5597 23.005 9.27771 23.005C8.91971 22.982 8.51471 23.016 8.23771 22.767C7.75271 22.281 8.04171 21.239 8.81571 21.284C10.6417 21.228 12.4787 21.284 14.3057 21.25C14.2707 19.711 14.2937 18.172 14.2937 16.644C12.8837 16.632 11.4847 16.644 10.0757 16.644C9.76271 16.632 9.4157 16.632 9.1737 16.428C8.8847 16.168 8.88471 15.727 9.01171 15.388C9.17371 15.014 9.6127 14.946 9.9827 14.946C11.4157 14.934 12.8607 14.946 14.2927 14.946C14.3167 13.542 14.2707 12.138 14.3167 10.746C12.7097 10.735 11.1037 10.746 9.4967 10.746C9.1387 10.735 8.7347 10.735 8.4567 10.486C8.1687 10.112 8.2267 9.57996 8.4687 9.20596C8.93071 8.97996 9.4627 9.02596 9.9707 9.02596ZM16.3047 14.946C16.9627 14.957 17.6217 14.9 18.2807 14.991C19.0667 15.104 19.0667 16.485 18.2687 16.598C17.6217 16.7 16.9517 16.632 16.2927 16.644C16.3047 17.979 16.2927 19.304 16.2927 20.639C16.3047 20.866 16.3157 21.205 16.6047 21.228C17.3907 21.296 18.0747 21.273 18.9627 21.273C20.2797 21.33 21.6667 20.923 22.5907 19.96C23.5387 18.953 23.8857 17.55 23.9087 16.213C23.9437 14.731 23.6657 13.101 22.5787 11.991C21.5977 10.995 20.1187 10.656 18.7427 10.735C17.9587 10.735 17.2867 10.712 16.5587 10.78C16.3277 10.848 16.3157 11.131 16.3047 11.335V14.945V14.946Z" fill="white"/>
</g>
<defs>
<clipPath id="clip0_1_4870">
<rect width="32" height="32" fill="white" transform="translate(0 0.0102539)"/>
</clipPath>
</defs>
</svg>
