<svg width="32" height="33" viewBox="0 0 32 33" fill="none" xmlns="http://www.w3.org/2000/svg">
<g clip-path="url(#clip0_1_4860)">
<path d="M16 32.0103C24.8366 32.0103 32 24.8468 32 16.0103C32 7.1737 24.8366 0.0102539 16 0.0102539C7.16344 0.0102539 0 7.1737 0 16.0103C0 24.8468 7.16344 32.0103 16 32.0103Z" fill="#3FBADF"/>
<path d="M11 21.8303L16 19.0103V24.6453L11 21.8303ZM11 12.8303L16 10.0103V15.6453L11 12.8303Z" fill="white" fill-opacity="0.4"/>
<path d="M26 18.8103L21 21.6963V16.0103L26 18.8103ZM26 9.81025L21 12.6963V7.01025L26 9.81025Z" fill="white" fill-opacity="0.7"/>
<path d="M11 21.6933V16.0103L16 18.8803L11 21.6933ZM11 12.6933V7.01025L16 9.88025L11 12.6933Z" fill="white" fill-opacity="0.8"/>
<path d="M21 21.6963L16 18.8843L21 16.0103V21.6963ZM21 12.6963L16 9.88425L21 7.01025V12.6963Z" fill="white"/>
<path d="M21 21.8223L16 24.6403V19.0103L21 21.8223ZM21 12.8223L16 15.6403V10.0103L21 12.8223Z" fill="white" fill-opacity="0.6"/>
<path d="M11 16.0103V21.6933L6 18.8083L11 16.0103ZM11 7.01025V12.6933L6 9.80825L11 7.01025Z" fill="white" fill-opacity="0.5"/>
</g>
<defs>
<clipPath id="clip0_1_4860">
<rect width="32" height="32" fill="white" transform="translate(0 0.0102539)"/>
</clipPath>
</defs>
</svg>
