<svg width="32" height="33" viewBox="0 0 32 33" fill="none" xmlns="http://www.w3.org/2000/svg">
<g clip-path="url(#clip0_1_4849)">
<path d="M16.0005 32.0103C24.837 32.0103 32.0005 24.8468 32.0005 16.0103C32.0005 7.1737 24.837 0.0102539 16.0005 0.0102539C7.16393 0.0102539 0.000488281 7.1737 0.000488281 16.0103C0.000488281 24.8468 7.16393 32.0103 16.0005 32.0103Z" fill="#2B5EBB"/>
<path fill-rule="evenodd" clip-rule="evenodd" d="M26.0005 15.9722C25.9995 18.3082 24.1905 20.1302 21.8785 20.1232C19.6145 20.1162 17.7765 18.2442 17.7885 15.9572C17.8005 13.6712 19.6585 11.8072 21.9105 11.8222C24.2095 11.8372 26.0015 13.6562 26.0005 15.9722ZM9.09049 23.9302C8.6909 23.9305 8.29522 23.8515 7.92641 23.6977C7.5576 23.5439 7.22298 23.3185 6.94197 23.0344C6.66095 22.7503 6.43913 22.4132 6.28936 22.0428C6.13959 21.6723 6.06486 21.2758 6.06949 20.8762C6.07449 19.1702 7.40849 17.7912 9.08549 17.8302C9.56749 17.8412 10.0515 18.0212 10.5215 18.1682C11.1895 18.3772 11.8415 18.6362 12.5075 18.8542C12.9205 18.9902 13.3155 18.8942 13.6805 18.6682C14.2105 18.3382 14.6605 17.9402 14.9475 17.3562C15.2375 16.7622 15.8975 16.5412 16.4845 16.7932C17.0285 17.0272 17.3115 17.6202 17.1545 18.1962C16.9775 18.8432 16.4445 19.1912 15.7805 19.0752C15.1915 18.9722 14.6075 18.7822 14.0095 18.9992C12.9395 19.3882 12.4695 20.2742 12.1175 21.2852C11.9255 21.8382 11.7215 22.4192 11.3775 22.8752C10.8255 23.6112 10.0135 23.9342 9.09049 23.9302ZM9.02649 8.09224C10.3935 8.09224 11.4585 8.89225 11.9225 10.2092C12.1065 10.7292 12.3825 11.2162 12.6185 11.7172C13.2015 12.9572 14.6645 13.0792 15.5925 12.7402C16.4145 12.4402 17.2065 12.9682 17.2255 13.8202C17.2385 14.4102 16.9355 14.8402 16.3815 15.0142C15.8915 15.1662 15.3395 14.9592 15.0395 14.5122C14.9325 14.3522 14.8325 14.1862 14.7135 14.0352C13.8975 13.0052 12.9915 12.7352 11.7635 13.1972C11.3355 13.3572 10.9345 13.5972 10.5325 13.8202C10.1692 14.0271 9.76698 14.1563 9.35119 14.1996C8.9354 14.2428 8.51515 14.1993 8.11709 14.0716C7.71903 13.9439 7.35184 13.7349 7.03878 13.4579C6.72572 13.1809 6.47363 12.8418 6.29849 12.4622C5.34249 10.4322 6.80249 8.09224 9.02649 8.09224ZM18.5565 24.0002C18.5445 25.1192 17.6315 26.0302 16.5415 26.0102C15.4885 25.9902 14.6085 25.0832 14.5815 24.0632C14.5525 22.9092 15.4005 21.9702 16.5795 21.9592C17.7075 21.9482 18.5695 22.8782 18.5575 23.9992L18.5565 24.0002ZM14.5945 8.03025C14.5945 6.89825 15.4805 6.00025 16.5895 6.01025C17.6675 6.02025 18.5695 6.94324 18.5605 8.02824C18.5525 9.16924 17.6985 10.0842 16.5745 10.0632C15.2955 10.0392 14.5425 9.00825 14.5945 8.03025Z" fill="white"/>
</g>
<defs>
<clipPath id="clip0_1_4849">
<rect width="32" height="32" fill="white" transform="translate(0.000488281 0.0102539)"/>
</clipPath>
</defs>
</svg>
