<svg width="32" height="33" viewBox="0 0 32 33" fill="none" xmlns="http://www.w3.org/2000/svg">
<g clip-path="url(#clip0_1_4841)">
<path d="M16.0005 32.0103C24.837 32.0103 32.0005 24.8468 32.0005 16.0103C32.0005 7.1737 24.837 0.0102539 16.0005 0.0102539C7.16393 0.0102539 0.000488281 7.1737 0.000488281 16.0103C0.000488281 24.8468 7.16393 32.0103 16.0005 32.0103Z" fill="#00ADED"/>
<path d="M10.0005 23.2453L10.0025 23.2413L13.1905 15.6253L10.0005 8.01025L15.8855 15.6253L10.0045 23.2403L10.0005 23.2453ZM21.7765 23.2453L21.7725 23.2403L15.8915 15.6253L21.7765 8.01025L18.5865 15.6253L21.7745 23.2413L21.7765 23.2453Z" fill="white"/>
<path d="M15.8905 15.6303V20.9363L10.0005 23.2463L15.8905 15.6263V10.3203L21.7805 8.01025L15.8905 15.6303Z" fill="white" fill-opacity="0.8"/>
<path d="M15.8905 21.2773V25.9283L10.0005 23.5843L15.8905 21.2693V15.9713L10.0005 8.35125L15.8905 10.6613V6.01025L21.7805 8.35325L15.8905 10.6683V15.9673L21.7805 23.5873L15.8905 21.2773Z" fill="white" fill-opacity="0.5"/>
<path d="M10.0005 8.35325L15.8905 6.01025V10.6683L10.0005 8.35325ZM21.7805 23.5843L15.8905 25.9283V21.2693L21.7805 23.5843Z" fill="white" fill-opacity="0.145"/>
</g>
<defs>
<clipPath id="clip0_1_4841">
<rect width="32" height="32" fill="white" transform="translate(0.000488281 0.0102539)"/>
</clipPath>
</defs>
</svg>
