<svg width="32" height="33" viewBox="0 0 32 33" fill="none" xmlns="http://www.w3.org/2000/svg">
<g clip-path="url(#clip0_1_4837)">
<path d="M16.0005 32.0103C24.837 32.0103 32.0005 24.8468 32.0005 16.0103C32.0005 7.1737 24.837 0.0102539 16.0005 0.0102539C7.16393 0.0102539 0.000488281 7.1737 0.000488281 16.0103C0.000488281 24.8468 7.16393 32.0103 16.0005 32.0103Z" fill="#396A28"/>
<path fill-rule="evenodd" clip-rule="evenodd" d="M18.0735 13.2223L16.0005 11.1503L13.9135 13.2363L11.7495 11.0723L16.0005 5.01025L20.2805 11.0153L18.0735 13.2223ZM13.1905 13.9603L11.1405 16.0103L13.2125 18.0833L11.0565 20.2393L5.00049 16.0103L10.9905 11.7603L13.1905 13.9603ZM18.7745 18.0973L20.8605 16.0103L18.7965 13.9463L21.0225 11.7203L27.0005 16.0103L20.9565 20.2793L18.7745 18.0973ZM13.9365 18.8073L16.0005 20.8703L18.0505 18.8203L20.2325 21.0033L16.0005 27.0103L11.7965 20.9463L13.9365 18.8073ZM16.0005 12.5373L19.4725 16.0103L16.0005 19.4823L12.5285 16.0103L16.0005 12.5373Z" fill="white"/>
</g>
<defs>
<clipPath id="clip0_1_4837">
<rect width="32" height="32" fill="white" transform="translate(0.000488281 0.0102539)"/>
</clipPath>
</defs>
</svg>
