<svg width="32" height="33" viewBox="0 0 32 33" fill="none" xmlns="http://www.w3.org/2000/svg">
<g clip-path="url(#clip0_1_4826)">
<path d="M16.0005 32.0103C24.837 32.0103 32.0005 24.8468 32.0005 16.0103C32.0005 7.1737 24.837 0.0102539 16.0005 0.0102539C7.16393 0.0102539 0.000488281 7.1737 0.000488281 16.0103C0.000488281 24.8468 7.16393 32.0103 16.0005 32.0103Z" fill="#00CCFF"/>
<path d="M7.89449 19.1713H12.2915L10.3985 23.0103H6.00049L7.89449 19.1713ZM10.3995 14.0913H14.7975L12.9105 17.9203H8.51049L10.4005 14.0903L10.3995 14.0913ZM12.9055 9.01125H17.3035L15.4145 12.8413H11.0175L12.9055 9.01025V9.01125Z" fill="white" fill-opacity="0.4"/>
<path d="M11.8945 19.1703H16.2925L14.3985 23.0083H10.0005L11.8945 19.1693V19.1703ZM14.4005 14.0903H18.7975L16.9095 17.9183H12.5115L14.4005 14.0903ZM16.9055 9.01025H21.3035L19.4145 12.8393H15.0175L16.9055 9.01025Z" fill="white" fill-opacity="0.6"/>
<path d="M16.8935 19.1703H21.2915L19.3985 23.0083H15.0005L16.8945 19.1693L16.8935 19.1703ZM19.3995 14.0903H23.7975L21.9095 17.9183H17.5115L19.3995 14.0903ZM21.9055 9.01025H26.3035L24.4145 12.8393H20.0175L21.9055 9.01025Z" fill="white"/>
</g>
<defs>
<clipPath id="clip0_1_4826">
<rect width="32" height="32" fill="white" transform="translate(0.000488281 0.0102539)"/>
</clipPath>
</defs>
</svg>
