<svg width="32" height="33" viewBox="0 0 32 33" fill="none" xmlns="http://www.w3.org/2000/svg">
<g clip-path="url(#clip0_1_4822)">
<path d="M16.0005 32.0103C24.837 32.0103 32.0005 24.8468 32.0005 16.0103C32.0005 7.1737 24.837 0.0102539 16.0005 0.0102539C7.16393 0.0102539 0.000488281 7.1737 0.000488281 16.0103C0.000488281 24.8468 7.16393 32.0103 16.0005 32.0103Z" fill="#2F2F2F"/>
<path fill-rule="evenodd" clip-rule="evenodd" d="M24.6499 10.3053C24.7639 10.3653 25.0249 10.5073 24.9999 10.8163L24.9839 21.2333C24.9912 21.3315 24.968 21.4297 24.9173 21.5142C24.8666 21.5987 24.791 21.6654 24.7009 21.7053L22.4009 23.0483L20.5809 24.1103L15.7369 26.9383C15.6755 26.9852 15.6002 27.0106 15.5229 27.0103C15.4254 27.007 15.3308 26.9766 15.2499 26.9223L11.9079 24.9943C10.0519 23.9233 8.13187 22.8153 6.23987 21.7273C6.08087 21.6503 5.98787 21.4713 6.00187 21.2673L6.00887 18.5153C6.01487 16.0393 6.01887 13.5243 6.02087 11.0923V11.0823C6.02226 11.0656 6.02259 11.0489 6.02187 11.0323V11.0013C6.01787 10.8663 6.01187 10.5893 6.27187 10.4643C7.33187 9.83125 8.41587 9.18825 9.46487 8.56625L11.2019 7.53625C12.5239 6.75325 13.8699 5.95425 15.1719 5.18125L15.1819 5.17525C15.267 5.12652 15.356 5.08472 15.4479 5.05025L15.5509 5.01025L15.6469 5.06725C16.5929 5.61525 17.5549 6.17525 18.4839 6.71725L20.2199 7.72725L21.9149 8.71325L24.5819 10.2653H24.5839L24.5859 10.2673L24.6499 10.3053ZM15.8809 25.9753L18.8429 24.2453C20.6389 23.1983 22.4346 22.1506 24.2299 21.1023L24.2399 15.2533L24.2449 11.3883L20.3949 13.6403V15.4163C20.3905 16.5246 20.3925 17.6329 20.4009 18.7413V18.8173L20.3559 18.8793C20.3068 18.9452 20.244 18.9998 20.1719 19.0393L20.1459 19.0553H20.1449L18.9009 19.7803C18.4509 20.0403 17.9859 20.3103 17.5309 20.5773L15.8869 21.5323L15.8809 25.9753ZM11.6849 13.4203C12.5257 13.9035 13.367 14.3859 14.2089 14.8673L15.5129 15.6163L19.2899 13.4083L15.5069 11.1763L11.6849 13.4203ZM11.2949 14.0703L11.3659 18.4593L15.1339 20.6543L15.1399 16.2753L11.2949 14.0703ZM6.77487 11.4763L6.75587 21.1513L15.1299 25.9813L15.1329 21.5303L13.4929 20.5753L12.4649 19.9763C11.9379 19.6703 11.3929 19.3533 10.8579 19.0403C10.7029 18.9673 10.6059 18.7893 10.6169 18.5943L10.5359 13.6353L6.77487 11.4763ZM23.8689 10.7303L22.3999 9.87425L20.7779 8.92925C19.2339 8.03325 17.4029 6.96925 15.5139 5.86325C13.6007 6.99367 11.6887 8.126 9.77787 9.26025L7.15187 10.8173L10.9299 12.9823L15.2639 10.4373C15.3388 10.389 15.4263 10.3642 15.5154 10.366C15.6045 10.3678 15.691 10.3961 15.7639 10.4473L20.0399 12.9683L23.8689 10.7303ZM15.8869 20.6573C17.15 19.9212 18.414 19.1865 19.6789 18.4533V14.0603L15.8899 16.2743L15.8869 20.6573ZM21.0139 19.8643C20.9763 19.8757 20.9372 19.8814 20.8979 19.8813C20.8448 19.882 20.7921 19.8721 20.7429 19.852C20.6938 19.8319 20.6492 19.802 20.6119 19.7643C20.5515 19.7099 20.5064 19.6407 20.481 19.5635C20.4555 19.4863 20.4507 19.4039 20.4669 19.3243C20.4838 19.2202 20.5367 19.1255 20.6164 19.0566C20.6961 18.9876 20.7975 18.9489 20.9029 18.9473C21.0259 18.9473 21.1459 19.0033 21.2329 19.1003L21.2339 19.1023C21.294 19.1698 21.3333 19.2534 21.3472 19.3428C21.361 19.4322 21.3488 19.5236 21.3119 19.6063C21.2866 19.67 21.2463 19.7268 21.1944 19.7717C21.1426 19.8166 21.0806 19.8484 21.0139 19.8643ZM23.0779 21.2723C23.0195 21.2267 22.9733 21.1675 22.9433 21.0998C22.9133 21.0321 22.9004 20.9581 22.9059 20.8843C22.9139 20.7253 22.9959 20.5843 23.1279 20.5043C23.1933 20.4615 23.2697 20.4386 23.3479 20.4383C23.4339 20.4383 23.5179 20.4653 23.5919 20.5153C23.666 20.5639 23.7245 20.6329 23.7603 20.7139C23.7962 20.795 23.8078 20.8847 23.7939 20.9723C23.7807 21.0823 23.7278 21.1838 23.6452 21.2576C23.5625 21.3315 23.4557 21.3726 23.3449 21.3733C23.2466 21.3729 23.1518 21.3371 23.0779 21.2723ZM9.88887 18.9523C10.0139 18.9523 10.1329 19.0093 10.2159 19.1083C10.2754 19.1746 10.3143 19.2568 10.328 19.3448C10.3417 19.4329 10.3295 19.523 10.2929 19.6043C10.2591 19.6864 10.2014 19.7566 10.1271 19.8054C10.0529 19.8543 9.96572 19.8797 9.87687 19.8783C9.80994 19.8758 9.74436 19.8586 9.68482 19.8279C9.62528 19.7972 9.57322 19.7538 9.53236 19.7007C9.4915 19.6476 9.46284 19.5862 9.44841 19.5208C9.43398 19.4554 9.43414 19.3876 9.44887 19.3223C9.46895 19.2196 9.52354 19.1269 9.60359 19.0596C9.68364 18.9923 9.78431 18.9544 9.88887 18.9523ZM21.8449 20.5283C21.7814 20.4751 21.7331 20.4062 21.7048 20.3284C21.6766 20.2506 21.6693 20.1667 21.6839 20.0853C21.7001 19.9794 21.7527 19.8826 21.8327 19.8114C21.9126 19.7402 22.0149 19.6991 22.1219 19.6953C22.2319 19.6953 22.3379 19.7393 22.4219 19.8173C22.5489 19.9353 22.6019 20.1063 22.5599 20.2663C22.5459 20.3414 22.5125 20.4116 22.4631 20.4698C22.4136 20.528 22.3498 20.5723 22.2779 20.5983C22.206 20.6263 22.128 20.6346 22.0518 20.6223C21.9757 20.61 21.9042 20.5775 21.8449 20.5283ZM8.93987 19.8053C9.07287 19.9153 9.13487 20.0903 9.10087 20.2523C9.09005 20.3248 9.06109 20.3934 9.0167 20.4518C8.9723 20.5102 8.91389 20.5564 8.84687 20.5863H8.84587C8.78645 20.6145 8.72164 20.6295 8.65587 20.6303C8.5772 20.6292 8.50036 20.6063 8.43387 20.5643C8.35947 20.5178 8.29965 20.4513 8.26127 20.3724C8.22289 20.2936 8.20751 20.2055 8.21687 20.1183C8.2223 20.0322 8.25245 19.9495 8.30372 19.8801C8.35498 19.8108 8.42518 19.7577 8.50587 19.7273C8.55484 19.7062 8.60757 19.6953 8.66087 19.6953C8.76087 19.6953 8.85787 19.7333 8.93987 19.8053ZM15.4499 6.17725C15.5799 6.17725 15.7029 6.23325 15.7899 6.33125C15.8969 6.44425 15.9369 6.60125 15.8969 6.75125C15.8774 6.83811 15.832 6.91698 15.7666 6.97736C15.7012 7.03774 15.619 7.07677 15.5309 7.08925H15.5259C15.4354 7.10703 15.3417 7.09728 15.2569 7.06128C15.172 7.02527 15.0999 6.96465 15.0499 6.88725C15.0076 6.82216 14.983 6.74725 14.9782 6.66981C14.9735 6.59236 14.9889 6.515 15.0229 6.44525L15.0239 6.44325C15.0562 6.37406 15.1053 6.31409 15.1668 6.26884C15.2283 6.22359 15.3002 6.1945 15.3759 6.18425C15.4006 6.1797 15.4257 6.17736 15.4509 6.17725H15.4499ZM7.65087 20.5003C7.79587 20.5823 7.88387 20.7303 7.88287 20.8903C7.88716 20.9709 7.86987 21.0512 7.83278 21.1229C7.79569 21.1946 7.74015 21.2552 7.67187 21.2983C7.5993 21.3458 7.51461 21.3715 7.42787 21.3723C7.35626 21.3729 7.2858 21.3542 7.22387 21.3183C7.15125 21.278 7.09093 21.2188 7.04936 21.1469C7.00779 21.0751 6.98654 20.9933 6.98787 20.9103C6.98787 20.7373 7.07687 20.5803 7.21887 20.5003C7.28405 20.4609 7.35874 20.4401 7.43487 20.4401C7.51101 20.4401 7.58569 20.4609 7.65087 20.5003ZM15.6909 9.21525C15.7614 9.25916 15.8187 9.32145 15.8566 9.39544C15.8945 9.46943 15.9115 9.55233 15.9059 9.63525C15.9003 9.71747 15.8719 9.7965 15.8238 9.86346C15.7758 9.93041 15.71 9.98263 15.6339 10.0143C15.5711 10.0429 15.5029 10.0579 15.4339 10.0583C15.3314 10.0593 15.2316 10.0255 15.1509 9.96225C15.0893 9.91673 15.0406 9.85607 15.0094 9.78616C14.9782 9.71625 14.9656 9.63946 14.9729 9.56325C14.9771 9.48766 15.0008 9.41444 15.0416 9.35068C15.0824 9.28691 15.139 9.23475 15.2059 9.19925C15.2746 9.15969 15.3526 9.13899 15.4319 9.13925C15.524 9.1391 15.6143 9.16548 15.6919 9.21525H15.6909ZM15.1209 8.45725C15.0684 8.41106 15.0276 8.35308 15.0019 8.28806C14.9761 8.22305 14.9662 8.15286 14.9729 8.08325V8.08025C14.9794 8.00858 15.0027 7.93942 15.0407 7.87831C15.0787 7.8172 15.1305 7.76581 15.1919 7.72825C15.2641 7.68018 15.3491 7.65476 15.4359 7.65525C15.5159 7.65525 15.5959 7.67625 15.6689 7.71525L15.6699 7.71625C15.7433 7.75578 15.8043 7.81498 15.846 7.88722C15.8877 7.95946 15.9084 8.04189 15.9059 8.12525C15.9051 8.21299 15.8787 8.29858 15.8298 8.37144C15.7809 8.44431 15.7118 8.50126 15.6309 8.53525C15.5681 8.56387 15.4999 8.57887 15.4309 8.57925C15.3156 8.58058 15.2043 8.5368 15.1209 8.45725Z" fill="white"/>
</g>
<defs>
<clipPath id="clip0_1_4822">
<rect width="32" height="32" fill="white" transform="translate(0.000488281 0.0102539)"/>
</clipPath>
</defs>
</svg>
