<svg width="32" height="33" viewBox="0 0 32 33" fill="none" xmlns="http://www.w3.org/2000/svg">
<g clip-path="url(#clip0_1_4818)">
<path d="M16.001 32.0103C24.8375 32.0103 32.001 24.8468 32.001 16.0103C32.001 7.1737 24.8375 0.0102539 16.001 0.0102539C7.16442 0.0102539 0.000976562 7.1737 0.000976562 16.0103C0.000976562 24.8468 7.16442 32.0103 16.001 32.0103Z" fill="#624DBF"/>
<path d="M22.314 9.01025C22.808 9.06725 23.308 9.09825 23.796 9.18625C24.763 9.36925 25.079 9.82925 24.915 10.7623C24.849 11.1403 24.605 11.3733 24.217 11.4363C23.9857 11.4688 23.7525 11.4855 23.519 11.4863C20.346 11.4933 17.166 11.4993 13.993 11.5123C13.513 11.5123 13.038 11.5563 12.571 11.6323C10.997 11.8783 10.405 12.5023 10.273 14.0203C10.213 14.7333 10.213 14.7333 10.958 14.7333H23.986C24.191 14.7393 24.388 14.7773 24.559 14.8833C25.139 15.2373 24.994 15.7913 24.961 16.3023C24.935 16.7123 24.678 16.9383 24.237 17.0203C24.0517 17.0486 23.8644 17.0613 23.677 17.0583H10.687C10.207 17.0583 10.214 17.0583 10.253 17.5123C10.286 17.9283 10.313 18.3383 10.418 18.7413C10.615 19.4913 11.096 19.9573 11.873 20.1653C12.735 20.3983 13.624 20.4493 14.513 20.4553C17.613 20.4743 20.708 20.4683 23.809 20.4683C24.204 20.4683 24.572 20.5183 24.803 20.8653C25.251 21.5333 24.902 22.4653 24.118 22.7053C23.447 22.9133 22.742 22.9633 22.044 22.9703C19.134 23.0203 16.224 23.0273 13.314 22.9703C12.4166 22.9471 11.5227 22.8481 10.642 22.6743C8.56798 22.2643 7.53398 21.2563 7.18498 19.2643C7.10598 18.8043 7.05998 18.3383 7.00098 17.8773V14.2413C7.04098 13.8813 7.07298 13.5233 7.11998 13.1703C7.39598 10.9133 8.44998 9.80425 10.767 9.31325C11.59 9.13625 12.432 9.09825 13.262 9.01625C16.271 9.01025 19.291 9.01025 22.314 9.01025Z" fill="white"/>
</g>
<defs>
<clipPath id="clip0_1_4818">
<rect width="32" height="32" fill="white" transform="translate(0.000976562 0.0102539)"/>
</clipPath>
</defs>
</svg>
