<svg width="32" height="33" viewBox="0 0 32 33" fill="none" xmlns="http://www.w3.org/2000/svg">
<g clip-path="url(#clip0_1_4814)">
<path d="M16.001 32.0103C24.8375 32.0103 32.001 24.8468 32.001 16.0103C32.001 7.1737 24.8375 0.0102539 16.001 0.0102539C7.16442 0.0102539 0.000976562 7.1737 0.000976562 16.0103C0.000976562 24.8468 7.16442 32.0103 16.001 32.0103Z" fill="#FA5836"/>
<path d="M14.305 4.03908C14.197 4.05408 13.78 4.13208 13.379 4.19308C11.141 4.57108 9.07398 5.66708 7.36098 7.38708C5.64098 9.10008 4.59098 11.0831 4.15098 13.4441C3.95098 14.5171 3.95098 16.6151 4.15098 17.6881C4.59098 20.0481 5.64098 22.0311 7.36098 23.7441C9.07398 25.4641 11.056 26.5141 13.417 26.9541C14.49 27.1541 16.588 27.1541 17.661 26.9541C20.021 26.5141 22.005 25.4641 23.718 23.7441C25.438 22.0311 26.488 20.0491 26.928 17.6881C27.128 16.6151 27.128 14.5171 26.928 13.4441C26.488 11.0841 25.438 9.10008 23.718 7.38708C22.043 5.70508 20.153 4.67908 17.862 4.21708C17.152 4.07008 14.791 3.95408 14.305 4.03908ZM18.425 8.12908C18.517 8.16708 18.548 8.28208 18.548 8.59108V9.00808H18.062C17.445 9.00808 16.959 9.23908 16.758 9.62508C16.627 9.87209 16.619 10.1731 16.619 13.8301C16.619 15.9901 16.589 17.8031 16.558 17.8571C16.396 18.1041 15.208 18.1741 14.675 17.9651L14.459 17.8801V13.8921C14.459 10.1721 14.451 9.87209 14.32 9.62508C14.12 9.23908 13.633 9.00808 13.016 9.00808H12.53V8.59108C12.53 8.32908 12.569 8.15908 12.63 8.13608C12.77 8.07408 18.278 8.07408 18.425 8.12808V8.12908ZM13.996 11.3451V12.2951L13.772 12.4251C13.441 12.6191 12.885 13.1971 12.662 13.5751C12.5265 13.8229 12.4175 14.0844 12.337 14.3551L12.214 14.7951H11.327C10.316 14.7951 10.347 14.8331 10.563 13.9851C10.833 12.9581 11.489 11.9161 12.283 11.2841C12.723 10.9291 13.695 10.3961 13.888 10.3961C13.973 10.3961 13.996 10.5971 13.996 11.3461V11.3451ZM17.823 10.6671C18.4822 10.9963 19.0635 11.4625 19.5279 12.0346C19.9924 12.6066 20.3292 13.2713 20.516 13.9841C20.732 14.8331 20.763 14.7941 19.752 14.7941H18.865L18.741 14.3541C18.6607 14.0837 18.5521 13.8226 18.417 13.5751C18.193 13.1971 17.637 12.6191 17.306 12.4251L17.082 12.2951V11.3451C17.082 10.5971 17.105 10.3961 17.19 10.3961C17.244 10.3961 17.53 10.5201 17.823 10.6661V10.6671ZM12.222 15.5201C12.222 15.8821 12.461 16.6231 12.708 17.0091C14.027 19.0991 17.051 19.0991 18.371 17.0091C18.618 16.6231 18.857 15.8821 18.857 15.5191V15.2571H20.701L20.662 15.6581C20.469 17.5331 19.435 19.0461 17.815 19.8481C17.067 20.2181 16.411 20.3731 15.539 20.3731C12.839 20.3731 10.702 18.4051 10.416 15.6581L10.378 15.2581H12.222V15.5201ZM16.658 21.0981C16.758 21.6381 17.314 21.9701 18.147 21.9701H18.548V22.8181H12.53V21.9921L13.093 21.9541C13.456 21.9311 13.749 21.8621 13.911 21.7691C14.151 21.6301 14.459 21.1671 14.459 20.9511C14.459 20.8741 14.706 20.8511 15.531 20.8511H16.611L16.658 21.0981Z" fill="#FEFFFF"/>
</g>
<defs>
<clipPath id="clip0_1_4814">
<rect width="32" height="32" fill="white" transform="translate(0.000976562 0.0102539)"/>
</clipPath>
</defs>
</svg>
