<svg width="32" height="33" viewBox="0 0 32 33" fill="none" xmlns="http://www.w3.org/2000/svg">
<g clip-path="url(#clip0_1_4808)">
<path d="M16.001 32.0103C24.8375 32.0103 32.001 24.8468 32.001 16.0103C32.001 7.1737 24.8375 0.0102539 16.001 0.0102539C7.16442 0.0102539 0.000976562 7.1737 0.000976562 16.0103C0.000976562 24.8468 7.16442 32.0103 16.001 32.0103Z" fill="#443F54"/>
<path opacity="0.7" d="M15.4312 26.9033C14.0152 26.0413 12.2922 24.9953 10.8772 24.1333C10.2612 23.7643 9.58519 23.3953 8.96919 22.9643C8.72319 22.7803 8.72319 22.5953 8.72319 22.4723C9.33819 19.5803 10.0152 16.4423 10.6932 13.6103L10.2612 12.2573C10.2612 12.2573 8.78519 19.3333 8.04619 22.4723C7.92319 22.9023 8.04619 23.1493 8.47619 23.3953C10.8762 24.8103 15.7382 27.8873 15.7382 27.8873L15.4312 26.9033ZM16.6002 26.9033C18.0152 26.0413 19.7382 24.9953 21.1542 24.1333C21.7692 23.7643 22.4462 23.3953 23.0612 22.9643C23.3082 22.7803 23.3082 22.5953 23.3082 22.4723C22.6922 19.5803 22.0152 16.4423 21.3382 13.6103L21.8312 12.3183C21.8312 12.3183 23.3082 19.3333 23.9852 22.4723C24.1082 22.9023 23.9852 23.1493 23.5542 23.3953C21.1542 24.8103 16.2922 27.8873 16.2922 27.8873L16.6002 26.9033ZM21.2772 12.3803L21.0312 12.0103H11.0612L10.8152 12.3803C10.8152 12.3803 11.0002 12.8723 10.9382 12.6873H21.2152C21.0922 12.8103 21.2772 12.3803 21.2772 12.3803Z" fill="#FEFFFE"/>
<path d="M21.3174 11.6393C21.3174 11.6393 17.9324 6.71825 16.4554 4.56425C16.1474 4.19425 15.9634 4.01025 15.7784 4.01025C15.5934 4.01025 15.3484 4.19525 15.1014 4.56425C13.6244 6.65625 10.2404 11.6413 10.2404 11.6413C9.93238 12.0713 9.93238 12.1953 10.1784 12.7483C10.1784 12.7483 12.5784 19.3953 13.5634 22.3483C14.0554 23.7023 15.3474 27.5793 15.3474 27.5793C15.4094 27.7023 15.6554 27.7643 15.7784 27.7643C15.9394 27.7567 16.0922 27.691 16.2084 27.5793C16.2084 27.5793 17.5634 23.7023 17.9934 22.3493C18.9784 19.4563 21.3784 12.7493 21.3784 12.7493C21.6244 12.1953 21.6244 12.0723 21.3174 11.6413V11.6393ZM15.7784 25.5473C14.2109 21.0786 12.6519 16.6069 11.1014 12.1323C11.1014 12.1323 14.4244 7.27125 15.7174 5.36225C17.0094 7.27125 20.3324 12.1323 20.3324 12.1323C20.3324 12.1323 17.1934 21.3623 15.7784 25.5473Z" fill="#FEFFFE"/>
</g>
<defs>
<clipPath id="clip0_1_4808">
<rect width="32" height="32" fill="white" transform="translate(0.000976562 0.0102539)"/>
</clipPath>
</defs>
</svg>
