<svg width="32" height="33" viewBox="0 0 32 33" fill="none" xmlns="http://www.w3.org/2000/svg">
<g clip-path="url(#clip0_1_4796)">
<path d="M16 32.0117C24.8366 32.0117 32 24.8483 32 16.0117C32 7.17516 24.8366 0.0117188 16 0.0117188C7.16344 0.0117188 0 7.17516 0 16.0117C0 24.8483 7.16344 32.0117 16 32.0117Z" fill="#C9A35E"/>
<path d="M9.77731 19.8917C9.74692 19.9545 9.6995 20.0075 9.64044 20.0446C9.58138 20.0818 9.51307 20.1016 9.4433 20.1017H5.3703C5.30653 20.1013 5.24396 20.0843 5.18874 20.0524C5.13352 20.0205 5.08754 19.9748 5.0553 19.9197C5.02093 19.8641 5.00189 19.8004 5.00013 19.7351C4.99838 19.6697 5.01396 19.6051 5.0453 19.5477L12.4493 6.20172C12.5823 5.96272 12.9643 5.96272 13.0973 6.20172L18.8693 16.5797C18.8982 16.6378 18.9125 16.7021 18.9107 16.767C18.909 16.8318 18.8913 16.8953 18.8593 16.9517C18.8287 17.0081 18.7831 17.0549 18.7275 17.0869C18.6718 17.1188 18.6084 17.1347 18.5443 17.1327H16.8563C16.7905 17.1317 16.726 17.1137 16.6693 17.0804C16.6125 17.0471 16.5653 16.9997 16.5323 16.9427L12.7823 10.1227L8.58631 17.8777H10.1883C10.2508 17.8781 10.3123 17.8939 10.3672 17.9237C10.4222 17.9536 10.4689 17.9965 10.5033 18.0487C10.5367 18.1028 10.556 18.1643 10.5593 18.2278C10.5626 18.2912 10.5499 18.3545 10.5223 18.4117L9.7783 19.8897L9.77731 19.8917ZM26.4513 19.5477C26.4848 19.6044 26.5016 19.6694 26.4998 19.7352C26.4981 19.801 26.4778 19.8649 26.4413 19.9197C26.4108 19.976 26.3653 20.0227 26.3099 20.0546C26.2545 20.0866 26.1913 20.1025 26.1273 20.1007H15.0143C14.9156 20.1007 14.821 20.0615 14.7513 19.9918C14.6815 19.922 14.6423 19.8274 14.6423 19.7287V18.2517C14.6423 18.0417 14.8133 17.8797 15.0143 17.8797H22.9223L18.7343 10.1517L17.9423 11.7347C17.8093 11.9827 17.3993 11.9827 17.2753 11.7347L16.5313 10.2567C16.5077 10.2042 16.4955 10.1473 16.4955 10.0897C16.4955 10.0321 16.5077 9.97522 16.5313 9.92272L18.3813 6.21272C18.4136 6.15429 18.4603 6.10512 18.5171 6.06993C18.5738 6.03473 18.6386 6.01469 18.7053 6.01172C18.7726 6.01186 18.8388 6.02943 18.8973 6.06273C18.9559 6.09602 19.0048 6.14391 19.0393 6.20172L26.4513 19.5477ZM21.6343 21.0257L23.4743 24.3647C23.5072 24.4212 23.5245 24.4854 23.5245 24.5507C23.5245 24.6161 23.5072 24.6802 23.4743 24.7367C23.4438 24.793 23.3983 24.8397 23.3429 24.8716C23.2875 24.9036 23.2243 24.9195 23.1603 24.9177H8.3373C8.27132 24.9169 8.20667 24.899 8.1497 24.8657C8.09273 24.8324 8.04538 24.7848 8.01231 24.7277C7.98078 24.6702 7.96509 24.6054 7.96684 24.5399C7.9686 24.4743 7.98774 24.4104 8.02231 24.3547L10.9883 19.5377L13.9453 14.3577C14.0123 14.2347 14.1453 14.1577 14.2793 14.1677C14.347 14.166 14.4138 14.184 14.4715 14.2195C14.5291 14.255 14.5753 14.3065 14.6043 14.3677L15.3483 15.8467C15.3773 15.9014 15.3916 15.9627 15.3899 16.0245C15.3881 16.0864 15.3703 16.1468 15.3383 16.1997L11.5803 22.6857H19.9173L19.1443 21.3977C19.1078 21.3429 19.0875 21.279 19.0858 21.2132C19.084 21.1474 19.1008 21.0824 19.1343 21.0257C19.1674 20.9686 19.2147 20.9211 19.2717 20.8878C19.3287 20.8545 19.3933 20.8365 19.4593 20.8357H21.3093C21.4433 20.8357 21.5673 20.9117 21.6343 21.0257Z" fill="white"/>
</g>
<defs>
<clipPath id="clip0_1_4796">
<rect width="32" height="32" fill="white" transform="translate(0 0.0117188)"/>
</clipPath>
</defs>
</svg>
