<svg width="32" height="33" viewBox="0 0 32 33" fill="none" xmlns="http://www.w3.org/2000/svg">
<g clip-path="url(#clip0_1_4792)">
<path d="M16 32.0117C24.8366 32.0117 32 24.8483 32 16.0117C32 7.17516 24.8366 0.0117188 16 0.0117188C7.16344 0.0117188 0 7.17516 0 16.0117C0 24.8483 7.16344 32.0117 16 32.0117Z" fill="#F68922"/>
<path d="M16.72 10.0897C16.72 10.0897 12.593 10.6957 11.992 15.2827C11.992 15.2827 11.354 20.4167 16.6 21.8027C16.9633 21.8981 17.3374 21.9462 17.713 21.9457H17.971C18.505 21.9457 19.017 22.1597 19.395 22.5397C19.773 22.9197 19.985 23.4357 19.985 23.9737C19.9886 24.483 19.7991 24.9747 19.4548 25.3498C19.1104 25.725 18.6367 25.9558 18.129 25.9957C15.55 26.1697 12.089 24.9037 9.843 21.8597C9.843 21.8597 5.444 15.5347 10.238 9.72273C11.3693 8.34106 12.8444 7.28156 14.515 6.65073C16.485 5.91373 19.371 5.43973 21.876 7.40673C21.876 7.40673 25.229 10.0037 23.51 14.2437C23.51 14.2437 22.306 17.6187 18.18 17.8787L17.607 17.8467C17.3356 17.8396 17.0688 17.7742 16.8249 17.655C16.5809 17.5357 16.3654 17.3655 16.193 17.1557C16.0198 16.9451 15.8933 16.7 15.8221 16.4367C15.7509 16.1734 15.7366 15.898 15.78 15.6287C15.8493 15.1916 16.0686 14.7923 16.4004 14.4994C16.7322 14.2064 17.1557 14.0383 17.598 14.0237L18.18 13.9837C18.18 13.9837 20.157 13.8977 19.985 11.5607C19.985 11.5607 19.813 9.48373 16.719 10.0907" fill="white"/>
</g>
<defs>
<clipPath id="clip0_1_4792">
<rect width="32" height="32" fill="white" transform="translate(0 0.0117188)"/>
</clipPath>
</defs>
</svg>
