<svg width="32" height="33" viewBox="0 0 32 33" fill="none" xmlns="http://www.w3.org/2000/svg">
<g clip-path="url(#clip0_1_4784)">
<path d="M16 32.0117C24.8366 32.0117 32 24.8483 32 16.0117C32 7.17516 24.8366 0.0117188 16 0.0117188C7.16344 0.0117188 0 7.17516 0 16.0117C0 24.8483 7.16344 32.0117 16 32.0117Z" fill="#328332"/>
<path d="M15.989 16.5647L9.268 15.9877L15.988 12.1857V16.5647H15.989ZM15.989 21.0247V27.9647C13.652 24.3267 11.076 20.3227 9 17.0817C11.45 18.4617 14.008 19.9047 15.989 21.0257V21.0247ZM15.989 10.9567L9 14.8567L15.989 4.01172V10.9567Z" fill="white"/>
<path d="M22.721 15.9877L16 16.5647V12.1857L22.72 15.9877H22.721ZM16 21.0257C17.98 19.9057 20.537 18.4617 22.988 17.0817C20.912 20.3237 18.336 24.3277 16 27.9637V21.0257ZM16 10.9567V4.01172L22.988 14.8567L16 10.9567Z" fill="white" fill-opacity="0.601"/>
<path opacity="0.2" fill-rule="evenodd" clip-rule="evenodd" d="M16 16.5887L22.72 16.0117L16 19.7867V16.5887Z" fill="white"/>
<path opacity="0.603" fill-rule="evenodd" clip-rule="evenodd" d="M15.721 16.5887L9 16.0117L15.721 19.7867V16.5887Z" fill="white"/>
</g>
<defs>
<clipPath id="clip0_1_4784">
<rect width="32" height="32" fill="white" transform="translate(0 0.0117188)"/>
</clipPath>
</defs>
</svg>
