<svg width="32" height="33" viewBox="0 0 32 33" fill="none" xmlns="http://www.w3.org/2000/svg">
<g clip-path="url(#clip0_1_4768)">
<path d="M16.0005 32.0117C24.837 32.0117 32.0005 24.8483 32.0005 16.0117C32.0005 7.17516 24.837 0.0117188 16.0005 0.0117188C7.16393 0.0117188 0.000488281 7.17516 0.000488281 16.0117C0.000488281 24.8483 7.16393 32.0117 16.0005 32.0117Z" fill="#00FFBA"/>
<path d="M10.8638 10.9072C10.5892 11.1883 10.4199 11.5554 10.3846 11.9467C10.3492 12.338 10.45 12.7296 10.6698 13.0552C10.8252 13.2891 11.0364 13.4807 11.2842 13.6127C11.5321 13.7447 11.809 13.8129 12.0898 13.8112C12.6702 13.8114 13.2268 14.0421 13.6371 14.4526C14.0475 14.8631 14.2779 15.4198 14.2778 16.0002C14.2776 16.5807 14.0469 17.1373 13.6364 17.5476C13.2259 17.9579 12.6692 18.1884 12.0888 18.1882C10.8814 18.1887 9.70124 17.83 8.6983 17.1579C7.69536 16.4857 6.915 15.5305 6.45647 14.4136C5.99795 13.2967 5.88198 12.0687 6.12332 10.8857C6.36466 9.70273 6.95239 8.61827 7.81178 7.77025C8.88832 6.70541 10.3233 6.08028 11.8361 6.01703C13.349 5.95379 14.8311 6.45697 15.9928 7.42825C15.3091 7.99986 14.7593 8.71467 14.3822 9.52215C14.0052 10.3296 13.8101 11.2101 13.8108 12.1012C13.8105 12.6795 14.0391 13.2343 14.4467 13.6445C14.8542 14.0546 15.4076 14.2868 15.9858 14.2902C15.6984 14.2902 15.4138 14.2336 15.1482 14.1236C14.8827 14.0136 14.6415 13.8523 14.4383 13.649C14.2351 13.4458 14.0739 13.2044 13.964 12.9389C13.8541 12.6733 13.7976 12.3887 13.7978 12.1012C13.7995 11.761 13.6984 11.4281 13.5078 11.1462C13.3216 10.8706 13.0598 10.6546 12.7538 10.5242C12.5431 10.4361 12.3171 10.3907 12.0888 10.3907C11.8605 10.3907 11.6344 10.4361 11.4238 10.5242C11.2135 10.6133 11.0231 10.7435 10.8638 10.9072ZM25.5038 17.5352C25.9688 18.6377 26.0991 19.8527 25.8782 21.0287C25.6573 22.2047 25.0952 23.2896 24.2618 24.1482C23.418 25.0177 22.3338 25.6154 21.1482 25.8648C19.9626 26.1142 18.7295 26.004 17.607 25.5482C16.4844 25.0924 15.5235 24.3118 14.8473 23.3065C14.1712 22.3011 13.8106 21.1168 13.8118 19.9052C13.8056 19.614 13.8575 19.3245 13.9647 19.0537C14.0718 18.7828 14.2319 18.5361 14.4357 18.328C14.6394 18.1198 14.8827 17.9544 15.1512 17.8415C15.4197 17.7286 15.708 17.6705 15.9993 17.6705C16.2905 17.6705 16.5789 17.7286 16.8474 17.8415C17.1159 17.9544 17.3591 18.1198 17.5629 18.328C17.7666 18.5361 17.9268 18.7828 18.0339 19.0537C18.141 19.3245 18.193 19.614 18.1868 19.9052C18.1851 20.2421 18.2836 20.5718 18.4697 20.8525C18.6557 21.1333 18.921 21.3525 19.2318 21.4822C19.6618 21.6622 20.1448 21.6602 20.5728 21.4772C20.982 21.3 21.3064 20.9709 21.4778 20.5592C21.6487 20.1417 21.6484 19.6737 21.477 19.2565C21.3056 18.8392 20.9768 18.5061 20.5618 18.3292C20.3514 18.2402 20.1252 18.1946 19.8968 18.1952C19.3164 18.1952 18.7597 17.9647 18.3493 17.5542C17.9389 17.1438 17.7083 16.5872 17.7083 16.0067C17.7083 15.4263 17.9389 14.8697 18.3493 14.4592C18.7597 14.0488 19.3164 13.8182 19.8968 13.8182C21.0932 13.8176 22.2633 14.1699 23.2605 14.8311C24.2577 15.4923 25.0377 16.4329 25.5028 17.5352H25.5038Z" fill="white"/>
<path opacity="0.7" d="M15.9856 17.7165C17.1936 17.7165 18.1736 18.6965 18.1736 19.9045C18.1744 21.118 17.8123 22.304 17.134 23.3102C16.4556 24.3163 15.4919 25.0967 14.3667 25.551C13.2415 26.0053 12.0061 26.1128 10.8193 25.8597C9.63253 25.6066 8.54852 25.0044 7.70657 24.1305C6.87722 23.2708 6.31917 22.186 6.10196 21.0113C5.88475 19.8367 6.01798 18.6241 6.48504 17.5246C6.9521 16.4251 7.73236 15.4874 8.72859 14.8282C9.72482 14.169 10.893 13.8175 12.0876 13.8175C12.668 13.8175 13.2246 14.0481 13.6351 14.4585C14.0455 14.8689 14.2761 15.4256 14.2761 16.006C14.2761 16.5865 14.0455 17.1431 13.6351 17.5535C13.2246 17.964 12.668 18.1945 12.0876 18.1945C11.7476 18.1935 11.4156 18.2945 11.1336 18.4845C10.8578 18.6709 10.6418 18.9331 10.5116 19.2395C10.3815 19.5482 10.345 19.8882 10.4065 20.2175C10.468 20.5467 10.6249 20.8506 10.8576 21.0915V21.0935C11.1363 21.3829 11.5081 21.5646 11.9076 21.6067C12.3072 21.6487 12.7087 21.5485 13.0416 21.3235C13.2748 21.1675 13.4659 20.9562 13.5976 20.7085C13.7293 20.4607 13.7977 20.1841 13.7966 19.9035C13.7966 18.6965 14.7766 17.7165 15.9856 17.7165ZM25.3116 9.32053C25.7874 10.2487 26.0168 11.2836 25.9778 12.3259C25.9389 13.3682 25.6329 14.3831 25.0892 15.2732C24.5455 16.1633 23.7822 16.8988 22.8726 17.4093C21.9631 17.9198 20.9376 18.1881 19.8946 18.1885C19.314 18.1885 18.7572 17.9579 18.3467 17.5474C17.9362 17.1369 17.7056 16.5801 17.7056 15.9995C17.7056 15.419 17.9362 14.8622 18.3467 14.4517C18.7572 14.0412 19.314 13.8105 19.8946 13.8105C20.2311 13.8108 20.5602 13.7119 20.8407 13.526C21.1213 13.3401 21.3407 13.0756 21.4716 12.7655C21.5678 12.5353 21.6128 12.2869 21.6035 12.0376C21.5941 11.7882 21.5307 11.5439 21.4176 11.3215C21.3081 11.1057 21.1539 10.9157 20.9653 10.7641C20.7766 10.6124 20.5579 10.5027 20.3236 10.4422C20.0893 10.3816 19.8448 10.3717 19.6063 10.4129C19.3678 10.4542 19.1409 10.5458 18.9406 10.6815C18.707 10.8373 18.5157 11.0485 18.3837 11.2963C18.2518 11.5441 18.1834 11.8208 18.1846 12.1015C18.1907 12.3927 18.1387 12.6822 18.0315 12.9531C17.9243 13.2239 17.7641 13.4706 17.5603 13.6787C17.3565 13.8868 17.1132 14.0521 16.8447 14.1649C16.5762 14.2778 16.2878 14.3359 15.9966 14.3358C15.7053 14.3357 15.417 14.2775 15.1485 14.1646C14.88 14.0516 14.6368 13.8862 14.4331 13.678C14.2294 13.4698 14.0693 13.223 13.9623 12.9521C13.8552 12.6813 13.8033 12.3917 13.8096 12.1005C13.8089 10.9722 14.1219 9.86582 14.7137 8.90512C15.3056 7.94442 16.1529 7.1672 17.161 6.6603C18.1691 6.1534 19.2983 5.93678 20.4224 6.03466C21.5465 6.13253 22.6212 6.54103 23.5266 7.21453L23.5306 7.21753C24.2764 7.77369 24.8853 8.49301 25.3106 9.32053H25.3116Z" fill="white"/>
</g>
<defs>
<clipPath id="clip0_1_4768">
<rect width="32" height="32" fill="white" transform="translate(0.000488281 0.0117188)"/>
</clipPath>
</defs>
</svg>
