<svg width="32" height="33" viewBox="0 0 32 33" fill="none" xmlns="http://www.w3.org/2000/svg">
<g clip-path="url(#clip0_1_4764)">
<path d="M16.0005 32.0117C24.837 32.0117 32.0005 24.8483 32.0005 16.0117C32.0005 7.17516 24.837 0.0117188 16.0005 0.0117188C7.16393 0.0117188 0.000488281 7.17516 0.000488281 16.0117C0.000488281 24.8483 7.16393 32.0117 16.0005 32.0117Z" fill="#23BEE2"/>
<path d="M19.8795 13.4807L23.1185 10.0687C24.5125 11.733 25.2749 13.8357 25.2715 16.0067C25.2715 21.1237 21.1215 25.2727 16.0005 25.2727C14.4381 25.2746 12.9008 24.88 11.5325 24.1257L19.7705 19.8797L21.1125 19.1877L19.8695 18.3287L18.9815 17.7147L21.5715 16.3927L22.8595 15.7347L21.7055 14.8627L19.8795 13.4807ZM12.1215 19.0147L9.10149 22.1947C7.5719 20.4969 6.72669 18.2919 6.72949 16.0067C6.72949 10.8887 10.8795 6.73972 16.0005 6.73972C17.7353 6.73738 19.4356 7.22398 20.9065 8.14372L12.2305 12.6157L10.8885 13.3087L12.1315 14.1667L13.0195 14.7807L10.4295 16.1037L9.14149 16.7607L10.2955 17.6337L12.1215 19.0147ZM8.53649 22.7917L7.91149 23.4497C6.03808 21.4241 4.99844 18.7659 5.00049 16.0067C5.00049 9.94372 9.93549 5.01172 16.0005 5.01172C18.4935 5.01172 20.7965 5.84572 22.6435 7.24872L21.7415 7.71372C20.0564 6.54237 18.0527 5.91556 16.0005 5.91772C10.4355 5.91772 5.90749 10.4437 5.90749 16.0067C5.90749 18.6167 6.90349 20.9977 8.53749 22.7907L8.53649 22.7917ZM23.6845 9.47172L24.3125 8.81172C26.0483 10.8066 27.0032 13.3624 27.0005 16.0067C27.0005 22.0687 22.0655 27.0007 16.0005 27.0007C13.7655 27.0033 11.5833 26.3214 9.74749 25.0467L10.6715 24.5697C12.2694 25.5682 14.1162 26.0967 16.0005 26.0947C21.5655 26.0947 26.0935 21.5687 26.0935 16.0067C26.0935 13.5167 25.1865 11.2347 23.6845 9.47272V9.47172ZM10.8425 16.9117L14.7835 14.8987L12.6465 13.4227L24.4765 7.32472L18.5235 13.5927L21.1585 15.5857L17.2175 17.5987L19.3545 19.0747L7.52449 25.1727L13.4775 18.9047L10.8425 16.9117Z" fill="white"/>
</g>
<defs>
<clipPath id="clip0_1_4764">
<rect width="32" height="32" fill="white" transform="translate(0.000488281 0.0117188)"/>
</clipPath>
</defs>
</svg>
