<svg width="32" height="33" viewBox="0 0 32 33" fill="none" xmlns="http://www.w3.org/2000/svg">
<g clip-path="url(#clip0_1_4760)">
<path d="M16.0005 32.0117C24.837 32.0117 32.0005 24.8483 32.0005 16.0117C32.0005 7.17516 24.837 0.0117188 16.0005 0.0117188C7.16393 0.0117188 0.000488281 7.17516 0.000488281 16.0117C0.000488281 24.8483 7.16393 32.0117 16.0005 32.0117Z" fill="#00A5FF"/>
<path fill-rule="evenodd" clip-rule="evenodd" d="M17.5806 12.5848C17.5776 13.4778 17.5716 14.3698 17.5706 15.2618C17.5696 16.7458 17.5676 18.2308 17.5746 19.7148C17.5746 19.8948 17.5246 20.0018 17.3676 20.0968C16.7576 20.4638 16.1576 20.8468 15.5136 21.2498V20.9248C15.5136 18.6278 15.5106 16.3298 15.5176 14.0328C15.5186 13.8418 15.4676 13.7338 15.2956 13.6408C14.7606 13.3508 14.2376 13.0388 13.7096 12.7368C13.6516 12.7038 13.5896 12.6768 13.5006 12.6328V12.9478C13.5006 15.0068 13.4966 17.0658 13.5066 19.1238C13.5066 19.3308 13.4406 19.4388 13.2666 19.5358C12.7416 19.8258 12.2286 20.1358 11.7096 20.4378C11.6366 20.4798 11.5596 20.5168 11.4436 20.5778V20.2578C11.4436 18.1898 11.4386 16.1218 11.4506 14.0548C11.4516 13.8148 11.3706 13.6948 11.1706 13.5848C10.5866 13.2588 10.0136 12.9128 9.40656 12.5578C10.0786 12.1708 10.7246 11.7948 11.3776 11.4338C11.4376 11.4008 11.5626 11.4438 11.6376 11.4868C12.2066 11.8068 12.7736 12.1298 13.3346 12.4628C13.4706 12.5428 13.5696 12.5528 13.7116 12.4658C14.2296 12.1488 14.7656 11.8578 15.2816 11.5358C15.4676 11.4198 15.6016 11.4388 15.7786 11.5448C16.3756 11.9018 16.9826 12.2448 17.5866 12.5918L17.5806 12.5848ZM17.5866 12.5918C17.6306 12.5458 17.6686 12.4868 17.7216 12.4558C18.2846 12.1278 18.8476 11.7978 19.4206 11.4878C19.476 11.4635 19.5359 11.4513 19.5964 11.4518C19.6569 11.4523 19.7166 11.4656 19.7716 11.4908C20.3536 11.8038 20.9276 12.1318 21.4946 12.4698C21.5726 12.5158 21.6506 12.6378 21.6506 12.7248C21.6596 14.8878 21.6586 17.0518 21.6546 19.2148C21.6546 19.2848 21.6366 19.3948 21.5896 19.4228C20.9416 19.8088 20.2866 20.1838 19.5916 20.5858V20.2568C19.5916 18.1728 19.5896 16.0888 19.5956 14.0058C19.5956 13.8288 19.5536 13.7218 19.3876 13.6308C18.7796 13.2928 18.1816 12.9348 17.5806 12.5848L17.5866 12.5918ZM6.43956 18.7988C6.25215 18.801 6.06614 18.7662 5.89224 18.6963C5.71833 18.6264 5.55996 18.5228 5.42623 18.3915C5.2925 18.2602 5.18605 18.1037 5.11299 17.9311C5.03994 17.7585 5.00173 17.5732 5.00056 17.3858C4.99871 17.1981 5.03408 17.012 5.10462 16.8382C5.17517 16.6643 5.27949 16.5062 5.41154 16.3729C5.5436 16.2397 5.70077 16.1339 5.87397 16.0618C6.04716 15.9897 6.23294 15.9526 6.42056 15.9528C6.60815 15.95 6.79442 15.9845 6.96858 16.0542C7.14273 16.124 7.30129 16.2277 7.43506 16.3592C7.56884 16.4908 7.67516 16.6476 7.74785 16.8205C7.82055 16.9935 7.85818 17.1791 7.85856 17.3668C7.86068 17.5543 7.82552 17.7404 7.75512 17.9142C7.68472 18.0881 7.58048 18.2462 7.44847 18.3794C7.31645 18.5127 7.15928 18.6183 6.98608 18.6903C6.81289 18.7623 6.62712 18.7992 6.43956 18.7988ZM8.35456 23.0858C7.99815 23.0887 7.65506 22.9505 7.40023 22.7013C7.14541 22.4521 6.99957 22.1121 6.99456 21.7558C6.99369 21.3992 7.13275 21.0566 7.38183 20.8016C7.63091 20.5465 7.97013 20.3993 8.32656 20.3918C9.05156 20.3758 9.67856 20.9918 9.68656 21.7288C9.68923 22.0851 9.55054 22.4281 9.30088 22.6824C9.05122 22.9368 8.71094 23.0818 8.35456 23.0858ZM7.26756 11.4098C7.98756 11.4118 8.56556 11.9898 8.56556 12.7048C8.56556 13.4318 7.97356 14.0168 7.24556 14.0088C7.07532 14.0076 6.90701 13.9726 6.75041 13.9058C6.59382 13.839 6.45208 13.7417 6.33343 13.6196C6.21479 13.4975 6.1216 13.3531 6.05931 13.1946C5.99701 13.0362 5.96684 12.867 5.97056 12.6968C5.96893 12.5264 6.00144 12.3575 6.06617 12.2C6.1309 12.0425 6.22654 11.8995 6.34743 11.7795C6.46833 11.6596 6.61204 11.565 6.77007 11.5015C6.92811 11.438 7.09727 11.4068 7.26756 11.4098ZM24.7896 16.3158C24.4673 16.3158 24.1583 16.1877 23.9304 15.9599C23.7026 15.732 23.5746 15.423 23.5746 15.1008C23.5746 14.7785 23.7026 14.4695 23.9304 14.2416C24.1583 14.0138 24.4673 13.8858 24.7896 13.8858C25.1118 13.8858 25.4208 14.0138 25.6487 14.2416C25.8765 14.4695 26.0046 14.7785 26.0046 15.1008C26.0046 15.423 25.8765 15.732 25.6487 15.9599C25.4208 16.1877 25.1118 16.3158 24.7896 16.3158ZM9.04256 8.62775C9.0404 8.482 9.06751 8.3373 9.12226 8.2022C9.17702 8.06711 9.25832 7.94437 9.36134 7.84125C9.46437 7.73813 9.58704 7.65672 9.72208 7.60184C9.85712 7.54696 10.0018 7.51973 10.1476 7.52175C10.2934 7.52161 10.4378 7.55045 10.5725 7.60659C10.7071 7.66273 10.8292 7.74507 10.9317 7.84881C11.0343 7.95254 11.1151 8.07562 11.1697 8.21089C11.2243 8.34615 11.2514 8.49091 11.2496 8.63675C11.2501 8.78248 11.2217 8.92687 11.1661 9.06156C11.1104 9.19624 11.0286 9.31856 10.9254 9.42142C10.8222 9.52428 10.6995 9.60564 10.5647 9.6608C10.4298 9.71596 10.2853 9.74381 10.1396 9.74275C9.99378 9.74345 9.84933 9.71496 9.71474 9.65894C9.58015 9.60293 9.45814 9.52053 9.3559 9.41662C9.25366 9.3127 9.17326 9.18936 9.11944 9.05388C9.06563 8.91839 9.03948 8.7735 9.04256 8.62775ZM24.1366 20.9208C23.9909 20.9238 23.8461 20.8976 23.7107 20.8436C23.5754 20.7896 23.4522 20.709 23.3487 20.6064C23.2451 20.5039 23.1633 20.3816 23.1079 20.2468C23.0526 20.112 23.0249 19.9675 23.0266 19.8218C23.0244 19.676 23.0511 19.5313 23.1051 19.396C23.159 19.2606 23.2391 19.1372 23.3409 19.0329C23.4426 18.9285 23.5639 18.8453 23.6979 18.788C23.8319 18.7306 23.9758 18.7003 24.1216 18.6988C24.2672 18.6984 24.4116 18.7267 24.5463 18.7821C24.681 18.8376 24.8034 18.919 24.9066 19.0219C25.0098 19.1247 25.0917 19.2468 25.1476 19.3814C25.2036 19.5159 25.2324 19.6601 25.2326 19.8058C25.2362 19.9516 25.2104 20.0966 25.1569 20.2323C25.1033 20.3679 25.0231 20.4915 24.9208 20.5955C24.8186 20.6995 24.6964 20.7819 24.5617 20.8378C24.427 20.8936 24.2824 20.9219 24.1366 20.9208ZM15.4866 6.86575C15.4862 6.97584 15.4637 7.08474 15.4203 7.18591C15.3769 7.28709 15.3136 7.37847 15.234 7.45456C15.1544 7.53066 15.0603 7.58992 14.9573 7.62879C14.8543 7.66765 14.7446 7.68533 14.6346 7.68075C14.5245 7.67874 14.4159 7.65465 14.3153 7.60992C14.2147 7.5652 14.1241 7.50073 14.0488 7.42036C13.9736 7.33998 13.9152 7.24532 13.8772 7.14198C13.8392 7.03864 13.8223 6.92873 13.8276 6.81875C13.8346 6.60106 13.9265 6.39476 14.0837 6.24395C14.2408 6.09315 14.4508 6.00981 14.6686 6.01175C14.7788 6.01276 14.8876 6.0358 14.9888 6.07952C15.0899 6.12325 15.1813 6.18677 15.2575 6.26636C15.3338 6.34594 15.3933 6.43997 15.4326 6.54291C15.472 6.64585 15.4903 6.75562 15.4866 6.86575ZM21.2576 24.3678C21.1493 24.3683 21.042 24.3472 20.942 24.3058C20.842 24.2644 20.7513 24.2035 20.6751 24.1265C20.5989 24.0496 20.5389 23.9583 20.4984 23.8579C20.458 23.7575 20.438 23.65 20.4396 23.5418C20.439 23.4311 20.4607 23.3215 20.5034 23.2194C20.5462 23.1174 20.609 23.025 20.6883 22.9478C20.7675 22.8706 20.8615 22.8102 20.9647 22.7701C21.0678 22.7301 21.178 22.7113 21.2886 22.7148C21.7486 22.7208 22.1086 23.0848 22.1066 23.5448C22.1066 24.0168 21.7386 24.3718 21.2576 24.3678ZM16.9776 26.0108C16.8737 26.013 16.7705 25.994 16.6742 25.9552C16.5778 25.9163 16.4904 25.8582 16.4172 25.7845C16.344 25.7109 16.2865 25.6231 16.2482 25.5265C16.2099 25.4299 16.1917 25.3266 16.1946 25.2228C16.1941 25.1187 16.2145 25.0156 16.2544 24.9195C16.2944 24.8235 16.3531 24.7363 16.4271 24.6632C16.5011 24.5901 16.589 24.5325 16.6856 24.4938C16.7822 24.4551 16.8855 24.436 16.9896 24.4378C17.1995 24.4401 17.4001 24.5249 17.548 24.6738C17.696 24.8227 17.7795 25.0238 17.7806 25.2338C17.7803 25.3379 17.7592 25.441 17.7185 25.5369C17.6777 25.6328 17.6181 25.7195 17.5433 25.7919C17.4684 25.8644 17.3797 25.9211 17.2826 25.9587C17.1854 25.9963 17.0817 26.014 16.9776 26.0108ZM19.6056 8.28775C19.4173 8.28669 19.2371 8.21087 19.1047 8.07697C18.9723 7.94307 18.8985 7.76206 18.8996 7.57375C18.9006 7.38545 18.9764 7.20528 19.1103 7.07288C19.2442 6.94048 19.4253 6.86669 19.6136 6.86775C19.9976 6.86975 20.3236 7.19875 20.3226 7.58175C20.3176 7.76935 20.2402 7.94773 20.1065 8.07939C19.9728 8.21106 19.7932 8.28575 19.6056 8.28775ZM13.0676 24.5698C13.0673 24.6515 13.0507 24.7324 13.0187 24.8076C12.9867 24.8828 12.94 24.9508 12.8813 25.0077C12.8226 25.0645 12.753 25.1091 12.6768 25.1386C12.6006 25.1682 12.5193 25.1822 12.4376 25.1798C12.3557 25.1797 12.2748 25.1631 12.1996 25.1309C12.1243 25.0987 12.0564 25.0516 11.9999 24.9925C11.9433 24.9333 11.8994 24.8633 11.8706 24.7867C11.8419 24.7101 11.8289 24.6285 11.8326 24.5468C11.8336 24.4652 11.8507 24.3847 11.8829 24.3099C11.9151 24.235 11.9617 24.1672 12.0201 24.1103C12.0786 24.0535 12.1476 24.0087 12.2234 23.9786C12.2991 23.9485 12.3801 23.9336 12.4616 23.9348C12.5431 23.9366 12.6234 23.9544 12.698 23.9874C12.7726 24.0203 12.84 24.0676 12.8963 24.1266C12.9526 24.1855 12.9967 24.255 13.0261 24.3311C13.0554 24.4071 13.0696 24.4882 13.0676 24.5698ZM23.7306 10.5908C23.7335 10.6613 23.7224 10.7317 23.6978 10.7979C23.6733 10.8641 23.6358 10.9247 23.5876 10.9763C23.5394 11.0278 23.4814 11.0693 23.417 11.0982C23.3526 11.1271 23.2831 11.143 23.2126 11.1448C23.0704 11.1472 22.9331 11.0934 22.8305 10.995C22.7279 10.8967 22.6682 10.7618 22.6646 10.6198C22.6617 10.5493 22.6731 10.479 22.6978 10.4129C22.7226 10.3469 22.7603 10.2865 22.8087 10.2353C22.8572 10.184 22.9154 10.143 22.9799 10.1145C23.0445 10.0861 23.114 10.0709 23.1846 10.0698C23.4836 10.0598 23.7246 10.2908 23.7306 10.5918V10.5908Z" fill="white"/>
</g>
<defs>
<clipPath id="clip0_1_4760">
<rect width="32" height="32" fill="white" transform="translate(0.000488281 0.0117188)"/>
</clipPath>
</defs>
</svg>
