<svg width="32" height="33" viewBox="0 0 32 33" fill="none" xmlns="http://www.w3.org/2000/svg">
<g clip-path="url(#clip0_1_4756)">
<path d="M16.0005 32.0117C24.837 32.0117 32.0005 24.8483 32.0005 16.0117C32.0005 7.17516 24.837 0.0117188 16.0005 0.0117188C7.16393 0.0117188 0.000488281 7.17516 0.000488281 16.0117C0.000488281 24.8483 7.16393 32.0117 16.0005 32.0117Z" fill="#0F8FF8"/>
<path fill-rule="evenodd" clip-rule="evenodd" d="M8.00049 19.0157L8.81049 17.0117H9.66749C9.64529 16.6688 9.63395 16.3253 9.63349 15.9817C9.63349 15.5337 9.65249 15.1177 9.68949 14.7317H8.00049L8.81049 12.7287H10.0845C11.2705 8.91772 13.9445 7.01172 18.1035 7.01172C19.4705 7.01172 20.7695 7.18872 22.0005 7.54372V10.0677C20.842 9.55004 19.5864 9.28548 18.3175 9.29172C15.8245 9.29172 14.2215 10.4377 13.5075 12.7297H20.9305L20.1205 14.7327H13.0235C12.981 15.0626 12.9623 15.3951 12.9675 15.7277C12.9675 16.2067 12.9825 16.6347 13.0125 17.0127H19.1955L18.3955 19.0157H13.4405C13.9735 20.4047 14.6235 21.3707 15.3895 21.9157C16.1545 22.4597 17.2475 22.7317 18.6665 22.7317C19.6805 22.7317 20.7915 22.4847 22.0005 21.9907V24.3637C20.8515 24.7957 19.4855 25.0117 17.9005 25.0117C13.7335 25.0117 11.0975 23.0127 9.99449 19.0157H8.00049Z" fill="white"/>
</g>
<defs>
<clipPath id="clip0_1_4756">
<rect width="32" height="32" fill="white" transform="translate(0.000488281 0.0117188)"/>
</clipPath>
</defs>
</svg>
