<svg width="32" height="33" viewBox="0 0 32 33" fill="none" xmlns="http://www.w3.org/2000/svg">
<g clip-path="url(#clip0_1_4752)">
<path d="M16.0005 32.0117C24.837 32.0117 32.0005 24.8483 32.0005 16.0117C32.0005 7.17516 24.837 0.0117188 16.0005 0.0117188C7.16393 0.0117188 0.000488281 7.17516 0.000488281 16.0117C0.000488281 24.8483 7.16393 32.0117 16.0005 32.0117Z" fill="#044AAC"/>
<path fill-rule="evenodd" clip-rule="evenodd" d="M10.0825 17.2217L7.46449 19.8417L6.23449 21.0717C5.42169 19.509 4.99836 17.7731 5.00049 16.0117C5.00049 9.94672 9.93549 5.01172 16.0005 5.01172C22.0655 5.01172 27.0005 9.94672 27.0005 16.0117C27.0005 22.0767 22.0655 27.0117 16.0005 27.0117C13.6545 27.0117 11.4785 26.2727 9.69049 25.0167C9.23937 24.7 8.81252 24.35 8.41349 23.9697L9.57549 22.8067L17.9925 14.3897C18.0254 13.9841 18.2096 13.6057 18.5086 13.3297C18.8076 13.0536 19.1995 12.9001 19.6065 12.8997C20.0073 12.9001 20.3937 13.0491 20.6911 13.3178C20.9885 13.5866 21.1757 13.956 21.2165 14.3547L25.0905 18.2287C25.2674 17.503 25.3567 16.7587 25.3565 16.0117C25.3565 10.8517 21.1595 6.65572 16.0005 6.65572C10.8415 6.65572 6.64449 10.8517 6.64449 16.0117C6.64449 16.7297 6.72549 17.4287 6.87949 18.1007L9.36749 15.6117C9.42833 15.2313 9.62268 14.885 9.91569 14.6348C10.2087 14.3847 10.5812 14.2471 10.9665 14.2467C11.3463 14.2471 11.7139 14.3809 12.005 14.6247C12.2962 14.8685 12.4924 15.2069 12.5595 15.5807L14.1425 17.1627L12.9795 18.3247L11.8655 17.2107C11.6023 17.3879 11.2927 17.4833 10.9755 17.4851C10.6583 17.4869 10.3476 17.3949 10.0825 17.2207V17.2217ZM18.7915 15.9157L10.8735 23.8337C12.3953 24.8363 14.1781 25.3697 16.0005 25.3677C19.7535 25.3677 22.9975 23.1467 24.4865 19.9497L20.4415 15.9037C20.1932 16.0545 19.9086 16.1352 19.6181 16.1373C19.3276 16.1394 19.042 16.0629 18.7915 15.9157ZM19.6355 13.7997C19.5377 13.7962 19.4402 13.8125 19.3488 13.8476C19.2574 13.8826 19.174 13.9357 19.1037 14.0037C19.0333 14.0717 18.9773 14.1532 18.9392 14.2434C18.901 14.3335 18.8814 14.4304 18.8815 14.5283C18.8817 14.6261 18.9015 14.723 18.9399 14.813C18.9784 14.903 19.0345 14.9844 19.1051 15.0522C19.1757 15.12 19.2592 15.1729 19.3507 15.2077C19.4421 15.2425 19.5397 15.2585 19.6375 15.2547C19.8258 15.2475 20.0039 15.1675 20.1344 15.0317C20.265 14.8958 20.3378 14.7147 20.3375 14.5263C20.3373 14.3378 20.264 14.1569 20.1331 14.0214C20.0021 13.8859 19.8238 13.8064 19.6355 13.7997ZM10.9755 15.1267C10.7824 15.1267 10.5972 15.2034 10.4607 15.3399C10.3242 15.4765 10.2475 15.6616 10.2475 15.8547C10.2475 16.0478 10.3242 16.233 10.4607 16.3695C10.5972 16.506 10.7824 16.5827 10.9755 16.5827C11.1686 16.5827 11.3537 16.506 11.4903 16.3695C11.6268 16.233 11.7035 16.0478 11.7035 15.8547C11.7035 15.6616 11.6268 15.4765 11.4903 15.3399C11.3537 15.2034 11.1686 15.1267 10.9755 15.1267Z" fill="white"/>
</g>
<defs>
<clipPath id="clip0_1_4752">
<rect width="32" height="32" fill="white" transform="translate(0.000488281 0.0117188)"/>
</clipPath>
</defs>
</svg>
