<svg width="32" height="33" viewBox="0 0 32 33" fill="none" xmlns="http://www.w3.org/2000/svg">
<g clip-path="url(#clip0_1_4748)">
<path d="M16.0005 32.0117C24.837 32.0117 32.0005 24.8483 32.0005 16.0117C32.0005 7.17516 24.837 0.0117188 16.0005 0.0117188C7.16393 0.0117188 0.000488281 7.17516 0.000488281 16.0117C0.000488281 24.8483 7.16393 32.0117 16.0005 32.0117Z" fill="#347FFB"/>
<path fill-rule="evenodd" clip-rule="evenodd" d="M19.7005 13.0667L16.8315 20.8167L16.8135 20.8637L16.2875 19.8087L15.1875 20.3087L18.0725 12.5117L19.1725 12.0117L19.6995 13.0667H19.7005ZM26.8805 13.2497L24.0125 21.0117L23.4855 19.9537L22.3855 20.4537L22.4525 20.2717L25.3195 12.5117L26.4195 12.0117L26.9445 13.0667L26.8805 13.2497ZM20.7405 19.9617L22.4295 15.3987L21.3265 15.8987L20.8025 14.8417L19.1085 19.4037L19.6335 20.4617L20.7405 19.9617ZM11.6035 15.4617H6.55849L7.41849 16.2617L6.55849 17.0747H11.5985L12.4545 16.2617L11.6035 15.4617ZM5.86049 18.8447H14.0155L13.1585 19.6517L14.0155 20.4567H5.86049L5.00049 19.6517L5.86049 18.8437V18.8447ZM8.36149 12.0767H16.5115L15.6575 12.8847L16.5125 13.6897H8.36249L7.50249 12.8837L8.36249 12.0767H8.36149Z" fill="white"/>
</g>
<defs>
<clipPath id="clip0_1_4748">
<rect width="32" height="32" fill="white" transform="translate(0.000488281 0.0117188)"/>
</clipPath>
</defs>
</svg>
