<svg width="32" height="33" viewBox="0 0 32 33" fill="none" xmlns="http://www.w3.org/2000/svg">
<g clip-path="url(#clip0_1_4744)">
<path d="M16.0005 32.0117C24.837 32.0117 32.0005 24.8483 32.0005 16.0117C32.0005 7.17516 24.837 0.0117188 16.0005 0.0117188C7.16393 0.0117188 0.000488281 7.17516 0.000488281 16.0117C0.000488281 24.8483 7.16393 32.0117 16.0005 32.0117Z" fill="#FFAA5C"/>
<path fill-rule="evenodd" clip-rule="evenodd" d="M26.0005 14.7287C25.9965 14.7677 25.9905 14.8057 25.9905 14.8447C25.9855 16.0647 25.9805 17.2857 25.9785 18.5067L25.9745 21.0137C25.9745 21.0937 25.9675 21.1737 25.9625 21.2737C25.9185 21.2537 25.8865 21.2407 25.8565 21.2237L21.2025 18.6287C21.1195 18.5827 21.1125 18.5417 21.1525 18.4597C21.9455 16.8317 21.9485 15.1997 21.1675 13.5677C21.1305 13.4897 21.1375 13.4507 21.2175 13.4067L25.8735 10.7937C25.9125 10.7717 25.9575 10.7607 26.0005 10.7447V14.7287ZM16.3005 5.01172C16.3785 5.05872 16.4555 5.10872 16.5355 5.15372L25.5845 10.2387C25.6185 10.2577 25.6505 10.2787 25.6975 10.3067C25.6555 10.3337 25.6275 10.3537 25.5965 10.3707L20.9785 12.9497C20.8575 13.0167 20.8585 13.0157 20.7785 12.9017C19.7545 11.4667 18.3505 10.6467 16.5665 10.4387C16.5134 10.4321 16.46 10.4288 16.4065 10.4287C16.3125 10.4287 16.2765 10.3927 16.2765 10.2937C16.2755 9.28072 16.2695 8.26672 16.2665 7.25372L16.2635 5.15472C16.2635 5.10672 16.2745 5.05972 16.2805 5.01172H16.3005ZM15.6805 27.0117C15.6465 26.9867 15.6155 26.9587 15.5805 26.9387L6.46349 21.8137C6.42049 21.7897 6.37949 21.7637 6.32049 21.7297C6.36049 21.7027 6.38649 21.6817 6.41649 21.6647C7.94649 20.8097 9.47649 19.9557 11.0065 19.0987C11.0985 19.0467 11.1415 19.0667 11.1985 19.1457C12.1545 20.4717 13.4605 21.2557 15.0995 21.5227C15.2665 21.5497 15.4375 21.5627 15.6065 21.5707C15.7025 21.5747 15.7405 21.6007 15.7405 21.7007C15.7395 22.5977 15.7435 23.4947 15.7465 24.3907L15.7515 26.9367C15.7515 26.9617 15.7445 26.9867 15.7405 27.0117H15.6805ZM6.00049 20.4617C6.00549 20.4317 6.01549 20.4007 6.01649 20.3697L6.02049 19.1067L6.02749 16.2797L6.04049 11.8207L6.04549 10.8597C6.04549 10.8317 6.04949 10.8037 6.05249 10.7587C6.09649 10.7797 6.12849 10.7927 6.15849 10.8097C7.68049 11.6597 9.20149 12.5097 10.7255 13.3577C10.8145 13.4067 10.8265 13.4447 10.7825 13.5377C9.98249 15.1787 9.98649 16.8217 10.7825 18.4647C10.8475 18.5967 10.8495 18.5957 10.7195 18.6687C9.19149 19.5287 7.66349 20.3867 6.13449 21.2437C6.09549 21.2657 6.04449 21.2677 6.00049 21.2787V20.4627V20.4617ZM19.4735 19.5317C19.6365 18.9587 19.6895 18.3817 19.6535 17.7957C19.6115 17.0777 19.4335 16.3957 19.0595 15.7697C18.6295 15.0477 18.0075 14.5247 17.2495 14.1447C17.0495 14.0437 17.0275 14.0947 17.1465 13.8447C17.4155 13.2817 17.8865 12.9317 18.4665 12.7077C18.8704 12.5604 19.2949 12.4774 19.7245 12.4617C19.7851 12.4643 19.8424 12.49 19.8845 12.5337C20.605 13.285 21.0728 14.2426 21.2225 15.2727C21.6055 17.8797 19.9065 20.3267 17.2685 20.9747C14.3415 21.6947 11.3725 19.8927 10.7645 17.0307C10.1965 14.3517 11.9125 11.7607 14.4725 11.0767C16.3955 10.5637 18.1015 10.9727 19.5945 12.2467L19.7635 12.3907L19.7425 12.4227C19.5955 12.4047 19.4495 12.3827 19.3025 12.3687C18.3895 12.2827 17.4915 12.3427 16.6205 12.6417C15.5515 12.9956 14.6557 13.7403 14.1125 14.7267C14.0325 14.8687 14.0265 14.8697 13.8725 14.8167C13.6751 14.7474 13.4971 14.6319 13.3535 14.4797C13.0689 14.1847 12.854 13.8296 12.7245 13.4407C12.6075 13.1007 12.5215 12.7507 12.4215 12.4057C12.4135 12.3787 12.4075 12.3507 12.3835 12.3217C12.3695 12.4017 12.3535 12.4797 12.3415 12.5597C12.3295 12.6397 12.3195 12.7197 12.3115 12.7997C12.2165 13.6937 12.2675 14.5737 12.5765 15.4267C12.9605 16.4907 13.6835 17.2567 14.7395 17.7227C14.8775 17.7837 14.8775 17.7847 14.8035 17.9107C14.4125 18.5747 13.7995 18.9087 13.0425 19.0227C12.6905 19.0757 12.3385 19.0547 11.9795 19.0287C12.0125 19.0417 12.0445 19.0567 12.0775 19.0687C13.8075 19.6637 15.7075 19.3967 17.1385 17.8827C17.4983 17.4974 17.813 17.0724 18.0765 16.6157C18.1445 16.4977 18.1495 16.4967 18.2595 16.5767C18.7285 16.9187 19.0075 17.3867 19.1995 17.9117C19.3785 18.3947 19.4495 18.8967 19.4665 19.4077C19.4675 19.4487 19.4705 19.4897 19.4735 19.5307V19.5317ZM25.7415 21.7437L16.2785 26.9927C16.2735 26.9377 16.2665 26.9037 16.2665 26.8707C16.2665 25.1407 16.2665 23.4107 16.2645 21.6807C16.2645 21.6037 16.2875 21.5757 16.3705 21.5687C18.2105 21.4167 19.6695 20.6107 20.7405 19.1457C20.8335 19.0167 20.8325 19.0157 20.9705 19.0927L25.6135 21.6677C25.6495 21.6877 25.6855 21.7107 25.7415 21.7437ZM15.7395 5.04772C15.7425 5.10372 15.7455 5.13772 15.7455 5.17172C15.7455 6.87872 15.7455 8.58572 15.7475 10.2917C15.7475 10.3717 15.7355 10.4117 15.6375 10.4187C13.7595 10.5547 12.2745 11.3677 11.1865 12.8617C11.1005 12.9797 11.1025 12.9807 10.9765 12.9107L6.45549 10.4007C6.40249 10.3707 6.35349 10.3347 6.30249 10.3007C6.35449 10.2647 6.40249 10.2237 6.45849 10.1927L15.5685 5.13672C15.6195 5.10872 15.6715 5.08372 15.7385 5.04772H15.7395Z" fill="white"/>
</g>
<defs>
<clipPath id="clip0_1_4744">
<rect width="32" height="32" fill="white" transform="translate(0.000488281 0.0117188)"/>
</clipPath>
</defs>
</svg>
