<svg width="32" height="33" viewBox="0 0 32 33" fill="none" xmlns="http://www.w3.org/2000/svg">
<g clip-path="url(#clip0_1_4740)">
<path d="M16.001 32.0117C24.8375 32.0117 32.001 24.8483 32.001 16.0117C32.001 7.17516 24.8375 0.0117188 16.001 0.0117188C7.16442 0.0117188 0.000976562 7.17516 0.000976562 16.0117C0.000976562 24.8483 7.16442 32.0117 16.001 32.0117Z" fill="#C99705"/>
<path fill-rule="evenodd" clip-rule="evenodd" d="M8.00098 24.2657L8.04398 24.0907C8.19898 23.4937 8.60498 23.1257 9.21098 22.9587C9.82598 22.7887 10.413 22.8537 10.946 23.2157C11.121 23.3337 11.253 23.4847 11.338 23.6737C11.362 23.7247 11.409 23.7667 11.446 23.8137C11.486 23.7677 11.543 23.7277 11.563 23.6757C11.694 23.3267 11.841 22.9817 11.94 22.6257C12.476 20.6857 13 18.7447 13.526 16.8037C13.547 16.7277 13.56 16.6487 13.579 16.5567C13.439 16.5567 13.309 16.5577 13.18 16.5567C12.738 16.5487 12.294 16.5617 11.854 16.5277C11.255 16.4817 10.848 16.1127 10.837 15.5457C10.827 15.0497 11.12 14.6687 11.681 14.5717C12.073 14.5037 12.485 14.5297 12.888 14.5227C13.275 14.5167 13.661 14.5227 14.048 14.5187C14.083 14.5187 14.142 14.4787 14.151 14.4477C14.249 14.1037 14.34 13.7577 14.431 13.4107C14.437 13.3907 14.432 13.3677 14.432 13.3337C13.994 13.3337 13.561 13.3467 13.129 13.3297C12.789 13.3157 12.461 13.2387 12.177 13.0427C11.824 12.7997 11.727 12.4527 11.784 12.0687C11.842 11.6807 12.091 11.4207 12.489 11.3117C12.629 11.2737 12.781 11.2577 12.927 11.2567C13.5513 11.2506 14.1757 11.2519 14.8 11.2607C14.951 11.2637 15.018 11.2147 15.078 11.0887C15.286 10.6557 15.49 10.2187 15.731 9.80372C16.171 9.04672 16.687 8.33572 17.327 7.71772C18.17 6.90572 19.163 6.32972 20.353 6.11872C21.143 5.97872 21.939 5.94472 22.715 6.21072C23.181 6.37072 23.527 6.66772 23.745 7.09472C23.882 7.36472 24.015 7.63172 24 7.94872C23.957 8.84872 23.192 9.42072 22.499 9.44372C21.967 9.46172 21.509 9.31772 21.155 8.93272C20.822 8.57072 20.781 8.14972 20.915 7.70072C20.925 7.66772 20.938 7.63472 20.95 7.60072L20.923 7.56672C20.855 7.61072 20.778 7.64672 20.721 7.70072C20.4221 7.98957 20.1692 8.32242 19.971 8.68772C19.551 9.43972 19.248 10.2357 18.998 11.0517C18.99 11.0767 18.992 11.1047 18.988 11.1477C19.204 11.1477 19.417 11.1507 19.628 11.1477C19.936 11.1427 20.242 11.1437 20.535 11.2537C20.892 11.3877 21.165 11.6067 21.237 11.9817C21.31 12.3627 21.235 12.6617 20.879 12.9527C20.589 13.1907 20.249 13.2397 19.894 13.2517C19.42 13.2677 18.944 13.2717 18.47 13.2797C18.407 13.2807 18.357 13.2797 18.339 13.3597C18.262 13.6867 18.178 14.0127 18.097 14.3387C18.093 14.3547 18.098 14.3727 18.1 14.4007C18.433 14.4007 18.764 14.3907 19.094 14.4027C19.449 14.4157 19.777 14.5087 20.036 14.7647C20.352 15.0787 20.396 15.5287 20.132 15.8817C20.046 15.9967 19.943 16.1017 19.85 16.2117C19.656 16.4397 19.385 16.5187 19.097 16.5297C18.604 16.5497 18.11 16.5547 17.617 16.5517C17.483 16.5517 17.43 16.5917 17.4 16.7097C17.225 17.4037 17.057 18.0997 16.863 18.7897C16.473 20.1767 16.039 21.5497 15.327 22.8257C14.9845 23.4463 14.5529 24.0133 14.046 24.5087C13.303 25.2307 12.423 25.7257 11.371 25.9087C10.653 26.0327 9.92898 26.0757 9.22098 25.8607C8.62098 25.6787 8.20598 25.3057 8.04598 24.7067L8.00098 24.5317V24.2657Z" fill="white"/>
</g>
<defs>
<clipPath id="clip0_1_4740">
<rect width="32" height="32" fill="white" transform="translate(0.000976562 0.0117188)"/>
</clipPath>
</defs>
</svg>
