<svg width="32" height="33" viewBox="0 0 32 33" fill="none" xmlns="http://www.w3.org/2000/svg">
<g clip-path="url(#clip0_1_4736)">
<path d="M16.001 32.0117C24.8375 32.0117 32.001 24.8483 32.001 16.0117C32.001 7.17516 24.8375 0.0117188 16.001 0.0117188C7.16442 0.0117188 0.000976562 7.17516 0.000976562 16.0117C0.000976562 24.8483 7.16442 32.0117 16.001 32.0117Z" fill="#417BA4"/>
<path d="M7.68698 10.6447C7.65398 10.8667 7.66298 11.0207 7.78098 11.1377C7.62898 11.4027 7.51098 11.5997 7.39798 11.8197C7.51198 11.5997 7.62898 11.4067 7.78098 11.1797C8.11998 11.6037 9.17898 11.6037 10.62 11.1377C10.79 11.0957 10.79 11.4767 10.79 11.4767C10.79 11.6887 10.747 11.9847 8.92498 12.2397C8.41598 12.3237 7.69498 12.2817 7.35698 11.8997C7.27198 11.7737 7.22998 11.6037 7.22998 11.3917C7.22998 11.3497 7.22998 11.3077 7.27198 11.2217C7.27364 11.2194 7.27531 11.217 7.27698 11.2147C7.29401 11.1433 7.32094 11.0747 7.35698 11.0107C7.39898 10.8837 7.48398 10.7987 7.56898 10.6717C7.52598 10.7567 7.44198 10.9257 7.35698 11.0107C7.402 10.8836 7.47436 10.7679 7.56898 10.6717L7.68698 10.6447ZM7.94098 10.0997C8.00298 10.0077 8.07098 9.91672 8.16198 9.82472L8.03498 9.99472C8.02753 10.0019 8.0202 10.0093 8.01298 10.0167C8.05798 9.95372 8.10698 9.89072 8.16198 9.82472L8.03498 9.99472C8.00178 10.028 7.9704 10.0631 7.94098 10.0997ZM7.94098 10.0997C7.88798 10.1777 7.83898 10.2547 7.78098 10.3327C7.77549 10.3382 7.77015 10.3439 7.76498 10.3497C7.72988 10.4049 7.69555 10.4606 7.66198 10.5167L7.94098 10.0997ZM8.84198 9.08472C8.96898 8.97872 9.09498 8.85972 9.22198 8.76472C9.10337 8.91573 9.01662 9.08923 8.96698 9.27472C8.92498 9.40072 8.92498 9.52772 9.00898 9.61272C9.00128 9.62036 8.99362 9.62802 8.98598 9.63572C9.26598 9.94772 10.182 9.85572 11.34 9.35872C11.721 9.18872 12.103 9.01872 12.442 8.80872C12.569 8.76572 12.738 8.97772 12.781 9.01872C12.823 9.06172 12.865 9.18872 12.781 9.27372C12.357 9.52772 11.891 9.78172 11.382 9.95172C9.92598 10.5757 8.75498 10.6687 8.43298 10.2707L8.41598 10.2907C8.37398 10.1637 8.33198 10.0787 8.37398 9.90972C8.37398 9.86672 8.37398 9.82472 8.41598 9.78172C8.45441 9.73195 8.49617 9.68484 8.54098 9.64072C8.48183 9.6988 8.42607 9.76023 8.37398 9.82472C8.37398 9.78172 8.41598 9.69772 8.41598 9.65472C8.50098 9.48472 8.58598 9.35872 8.71298 9.18872C8.74298 9.16672 8.77098 9.14372 8.80098 9.11972C8.92898 8.93972 9.11798 8.78472 9.30598 8.59572C9.64598 8.29972 9.64598 8.29972 9.81498 8.17272C9.8508 8.13583 9.88996 8.10236 9.93198 8.07272C9.91763 8.0847 9.90329 8.0967 9.88898 8.10872C10.009 8.01872 10.133 7.92972 10.263 7.84272L10.281 7.83272L10.346 7.78672C10.9537 7.38784 11.5987 7.04892 12.272 6.77472C12.382 6.71272 12.492 6.65872 12.602 6.61072C12.537 6.63672 12.485 6.65972 12.424 6.68572C12.3186 6.73211 12.2119 6.77546 12.104 6.81572C11.934 6.85872 11.934 6.85872 11.594 7.02872C11.424 7.11272 11.424 7.11272 11.128 7.28272C11.001 7.36772 11.001 7.36772 10.704 7.53672C10.5827 7.61729 10.4634 7.70064 10.346 7.78672C13.12 6.42172 12.926 6.48072 12.731 6.55772C12.4892 6.63232 12.2513 6.71876 12.018 6.81672C11.036 7.23672 10.112 7.83272 9.53398 8.38572C9.44698 8.45572 9.40598 8.49572 9.30598 8.59572C9.35998 8.54472 9.41698 8.49372 9.47598 8.44272C9.38577 8.53117 9.30063 8.62465 9.22098 8.72272C9.08798 8.85572 8.95498 8.96272 8.84198 9.08472ZM6.43498 18.9147C6.44498 18.9507 6.45598 18.9847 6.46698 19.0177C6.49768 19.1292 6.55617 19.231 6.63698 19.3137C6.55812 19.0835 6.48377 18.8518 6.41398 18.6187C6.40998 18.8937 6.49298 19.1347 6.63698 19.3137C6.54117 19.053 6.47019 18.7838 6.42498 18.5097C7.18698 19.5687 10.069 19.3137 13.755 17.7467C18.459 15.7557 22.738 12.3667 23.332 10.1637C23.459 9.61272 23.374 9.23172 23.077 8.93472C23.289 9.14672 23.501 9.40072 23.713 9.61272C23.967 9.90972 24.009 10.2907 23.883 10.7987C23.289 13.0437 18.925 16.4757 14.094 18.5087C9.89998 20.3347 6.73698 20.4157 6.43398 18.9157C6.36098 18.6687 6.28698 18.3497 6.21298 18.1277C6.25498 18.2547 6.29798 18.3817 6.38298 18.5097L6.40798 18.5987C6.40554 18.6518 6.40754 18.705 6.41398 18.7577C6.41074 18.7091 6.41007 18.6604 6.41198 18.6117C6.41064 18.6074 6.40931 18.6031 6.40798 18.5987L6.43498 18.9147ZM13.315 6.37472L13.374 6.35072C14.645 6.01172 15.45 6.18072 15.281 6.90072C15.238 7.15572 15.069 7.40972 14.815 7.66372C14.603 7.74872 14.137 7.66372 14.052 7.57872C14.264 7.32472 14.391 7.11272 14.433 6.94372C14.565 6.38372 13.955 6.23372 12.961 6.49272L12.917 6.50872L13.315 6.37472ZM13.238 6.40472L13.416 6.35072C13.3822 6.35806 13.3486 6.36573 13.315 6.37372L13.238 6.40472ZM6.21298 17.4197V17.4497C6.09298 17.3297 6.04798 17.1727 6.04298 16.9777C6.0322 16.8932 6.02986 16.8077 6.03598 16.7227C6.04097 16.8033 6.04364 16.884 6.04398 16.9647C6.03237 16.8816 6.02968 16.7974 6.03598 16.7137C6.02398 16.4917 6.00098 16.2377 6.00098 16.0517C6.00098 16.3067 6.08598 16.4757 6.17098 16.6447C6.17098 16.7727 6.18098 16.9097 6.19098 17.0477C6.17098 16.9097 6.17098 16.7727 6.17098 16.6447C9.00898 19.6527 21.764 11.8577 21.891 8.55372C21.933 7.96072 21.594 7.74872 21.425 7.62172L21.764 7.83372L22.187 8.12972C22.527 8.42672 22.654 8.84972 22.527 9.40072C21.976 11.5187 17.823 14.7807 13.289 16.6877C9.69898 18.2367 6.92598 18.4397 6.21298 17.4197ZM6.19198 14.1877L6.25498 13.9337C6.16998 14.2737 6.21298 14.5697 6.38198 14.7387C6.38097 14.7421 6.37997 14.7454 6.37898 14.7487C6.46198 14.8487 6.57598 14.9207 6.72098 14.9927C6.84798 15.1627 6.76398 15.5857 6.76398 15.5857C6.72098 15.7127 6.67898 15.8827 6.59398 15.8407C6.16998 15.6287 6.00098 15.2897 6.04398 14.7807C6.00302 15.0336 6.06377 15.2925 6.21298 15.5007L6.21698 15.4767C6.09866 15.2809 6.05233 15.05 6.08598 14.8237L6.10298 14.7137C6.09293 14.7496 6.08722 14.7865 6.08598 14.8237L6.16998 14.2307L6.25498 13.8907V13.8067L6.19198 14.1877ZM6.81398 13.1477C6.73387 13.3173 6.67444 13.4959 6.63698 13.6797C6.50898 13.5097 6.46698 13.2987 6.50898 13.0437C6.50898 12.9597 6.50898 12.9167 6.55198 12.8327C6.63279 12.5858 6.73173 12.3451 6.84798 12.1127C6.80717 12.2385 6.79364 12.3715 6.8083 12.5029C6.82295 12.6343 6.86546 12.761 6.93298 12.8747L6.90598 12.9377C7.43698 13.6337 9.37298 13.4577 11.848 12.4087C15.026 11.0107 17.95 8.72272 18.332 7.28272C18.459 6.73272 18.289 6.39272 17.823 6.22272C17.908 6.18072 17.908 6.18072 18.162 6.26572C18.332 6.30872 18.459 6.35072 18.543 6.35072C19.094 6.56272 19.306 6.94372 19.137 7.53672C18.713 9.14672 15.535 11.6467 12.06 13.1287C9.30598 14.2727 7.18698 14.4847 6.63698 13.6797L6.81398 13.1477ZM13.352 25.3577C12.843 25.3747 12.421 25.3217 12.102 25.2027C11.848 25.0757 11.509 24.9487 11.298 24.8217C11.815 25.0357 12.493 25.0887 13.273 25.0117C17.738 24.5717 25.568 19.8797 26.001 16.8147L25.959 16.9417C25.9117 17.1936 25.8832 17.4486 25.874 17.7047C25.874 17.7467 25.874 17.7887 25.832 17.8317C25.323 19.6527 21.722 22.4917 17.781 24.1857C16.006 24.9427 14.471 25.3187 13.354 25.3577C13.3533 25.3577 13.3526 25.3577 13.352 25.3577ZM13.848 23.6157L13.925 23.5087C13.899 23.5437 13.875 23.5787 13.85 23.6147C14.493 23.4347 15.185 23.2017 15.916 22.9147C16.382 22.7877 16.552 23.0847 16.552 23.0847C16.594 23.1267 16.594 23.2967 16.34 23.4237C15.276 23.8397 14.296 24.1387 13.435 24.3187C13.4286 24.331 13.4223 24.3434 13.416 24.3557L13.429 24.3197C11.927 24.6347 10.788 24.5897 10.196 24.1857C9.98398 24.0157 9.68698 23.8057 9.47598 23.6357C10.158 24.2197 11.736 24.2067 13.848 23.6157ZM8.54298 22.7037C8.37298 22.4917 8.16198 22.2797 8.03498 22.0677C8.20498 22.2797 8.45898 22.5757 8.62798 22.7877C8.62633 22.7658 8.61682 22.7452 8.6012 22.7298C8.58558 22.7144 8.5649 22.7051 8.54298 22.7037ZM15.281 6.05372C15.535 6.05372 15.874 6.01172 16.128 6.01172C17.018 6.01172 17.442 6.35072 17.272 7.02872C17.06 7.83372 15.916 8.97772 14.433 9.99372C14.137 10.1207 13.84 9.73972 13.925 9.57072C13.925 9.52772 13.967 9.52772 13.967 9.52772C15.281 8.63772 16.255 7.66372 16.467 6.94372C16.637 6.26572 16.086 5.96972 15.111 6.05372H15.281ZM20.365 7.02872C20.874 7.28272 21.085 7.70672 20.916 8.34172C20.408 10.2477 16.679 13.1717 12.611 14.9087C11.848 15.2467 11.086 15.5017 10.408 15.7127C10.026 15.7557 9.98398 15.2467 10.154 14.9927C10.196 14.9087 10.238 14.9087 10.281 14.8657C10.916 14.6957 11.594 14.4427 12.315 14.1457C16.17 12.4937 19.687 9.69772 20.154 7.91772C20.323 7.28272 20.069 6.85872 19.518 6.64772C19.772 6.77472 20.111 6.90172 20.365 7.02772V7.02872ZM24.772 11.2227L24.899 11.4347C25.026 11.7737 25.026 11.7737 25.026 11.9427V11.9847C24.899 11.9427 24.646 11.4347 24.603 11.2227C24.603 10.9687 24.56 10.7987 24.433 10.6297L24.773 11.2227H24.772ZM25.662 13.4677C25.704 13.6797 25.704 13.9337 25.62 14.2307C25.111 16.0947 21.933 18.8477 18.077 20.8397C17.654 21.0087 17.399 20.7117 17.484 20.4157C17.5183 20.3064 17.5945 20.2151 17.696 20.1617C21.594 18.1277 24.856 15.3317 25.366 13.4257C25.45 13.0857 25.45 12.7897 25.366 12.5357C25.493 12.8747 25.62 13.2137 25.662 13.4677ZM25.959 15.2477V15.5857C25.959 15.7557 25.959 15.8827 25.916 16.0947C25.62 17.2387 24.221 18.7207 22.315 20.1617C22.018 20.3737 21.848 20.0767 21.891 19.8647C21.9306 19.7351 22.0038 19.6181 22.103 19.5257C24.094 18.0437 25.535 16.5177 25.832 15.3317C25.874 15.1197 25.916 14.9087 25.874 14.6967L25.959 15.2467V15.2477ZM8.41598 10.2897C8.37398 10.1627 8.33198 10.0777 8.37398 9.90872C8.33198 10.0777 8.37398 10.1627 8.41598 10.2887V10.2897ZM7.35598 11.8997C7.27198 11.7727 7.22998 11.6027 7.22998 11.3907C7.22998 11.6027 7.22998 11.7307 7.35698 11.8997H7.35598ZM6.63598 13.6787C6.50898 13.5087 6.46698 13.2977 6.50898 13.0427C6.46698 13.2977 6.50898 13.5097 6.63698 13.6787H6.63598ZM22.611 15.1617C22.6441 15.2532 22.6536 15.3515 22.6388 15.4476C22.6239 15.5437 22.5851 15.6345 22.526 15.7117C20.662 17.4067 17.908 19.1017 15.026 20.3297C10.746 22.1097 7.52598 22.2367 7.22998 20.7107C7.18698 20.5837 7.22998 20.6687 7.27198 20.6267C7.27198 20.6687 7.27198 20.8807 7.44198 21.1347C7.39898 21.0497 7.35698 21.0077 7.31498 20.9227C7.27198 20.8807 7.27198 20.8387 7.22998 20.7957C7.14498 20.6687 7.10298 20.4997 7.01798 20.3727C7.82298 21.4317 10.789 21.2197 14.603 19.5677C17.484 18.3387 20.238 16.6017 22.103 14.9497C22.442 14.7797 22.569 15.0347 22.611 15.1617ZM11.891 22.9137C11.933 22.9987 11.976 23.1687 11.806 23.2107C10.281 23.4647 9.17898 23.3377 8.66998 22.7867C8.50098 22.5747 8.24698 22.2787 8.07698 22.0667C8.54298 22.6597 9.68698 22.8297 11.34 22.5747C11.637 22.5747 11.848 22.8297 11.89 22.9147L11.891 22.9137ZM25.238 19.8217C25.365 19.5677 25.493 19.1857 25.578 18.9317C25.068 20.5837 21.806 23.1257 18.247 24.6517C16.043 25.5827 14.221 25.9217 13.247 25.6257C13.501 25.7097 13.882 25.7957 14.179 25.8377C16.891 26.2607 23.755 22.8717 25.239 19.8217H25.238ZM23.035 22.8717C23.035 22.9137 22.95 23.0417 22.781 23.1687C21.848 23.9307 20.577 24.6937 19.264 25.2437C18.162 25.7097 17.187 25.9637 16.467 26.0067H15.407C16.255 26.0487 17.484 25.7527 18.967 25.1597C20.45 24.5237 21.891 23.6767 22.95 22.7867C22.993 22.7867 22.993 22.7447 23.035 22.7447C23.035 22.7447 23.035 22.7867 23.077 22.7867C23.077 22.7867 23.077 22.8297 23.035 22.8717ZM6.50898 12.8747C6.50898 12.8327 6.55198 12.7477 6.55198 12.7047C6.63698 12.4507 6.80598 12.0697 6.89098 11.8147C6.89098 11.9427 6.84798 12.0277 6.80598 12.1547C6.67898 12.3667 6.59398 12.6207 6.50898 12.8747Z" fill="white"/>
</g>
<defs>
<clipPath id="clip0_1_4736">
<rect width="32" height="32" fill="white" transform="translate(0.000976562 0.0117188)"/>
</clipPath>
</defs>
</svg>
