<svg width="32" height="33" viewBox="0 0 32 33" fill="none" xmlns="http://www.w3.org/2000/svg">
<g clip-path="url(#clip0_1_4732)">
<path d="M16.001 32.0117C24.8375 32.0117 32.001 24.8483 32.001 16.0117C32.001 7.17516 24.8375 0.0117188 16.001 0.0117188C7.16442 0.0117188 0.000976562 7.17516 0.000976562 16.0117C0.000976562 24.8483 7.16442 32.0117 16.001 32.0117Z" fill="#42C1CA"/>
<path d="M16.058 13.1424C16.43 11.5794 16.878 10.1744 17.354 9.25744C17.529 8.81944 18.239 7.77044 19.018 7.07744C20.315 5.92244 21.77 5.62944 23.285 6.58044L23.152 6.79144L23.285 6.58044C24.058 7.06544 24.368 7.56444 24.232 8.03444C24.132 8.38444 23.749 8.66444 23.544 8.63544C23.244 8.66544 22.942 8.60544 22.654 8.39344C22.4116 8.2067 22.2245 7.95745 22.113 7.67244C21.901 7.17244 21.623 7.00244 21.282 7.04244C21.035 7.07044 20.748 7.22844 20.657 7.33444L20.422 7.59444C20.2394 7.78897 20.0772 8.00175 19.938 8.22944C19.462 9.02244 19.023 10.4754 18.414 13.4864L22.45 14.0774L22.228 15.6944L18.132 15.0944L17.957 16.1584L17.912 16.4244C17.888 16.5624 17.862 16.7124 17.832 16.8724L21.968 17.4784L21.731 19.0934L17.498 18.4734C17.009 20.5514 16.365 22.7784 15.91 23.6574C15.734 24.0964 15.025 25.1434 14.246 25.8374C12.949 26.9914 11.494 27.2854 9.97902 26.3344C9.20602 25.8494 8.89602 25.3494 9.03202 24.8794C9.13202 24.5294 9.51502 24.2504 9.72002 24.2794C10.02 24.2494 10.322 24.3094 10.61 24.5204C10.832 24.6844 11.016 24.9224 11.151 25.2424C11.363 25.7414 11.641 25.9124 11.982 25.8724C12.229 25.8434 12.516 25.6854 12.607 25.5794C13.514 24.5694 14.233 22.6234 15.142 18.1294L11.106 17.5374L11.328 15.9204L15.424 16.5204L15.6 15.4574C15.6389 15.2186 15.6806 14.9803 15.725 14.7424L11.605 14.1394L11.841 12.5244L16.058 13.1424Z" fill="white"/>
</g>
<defs>
<clipPath id="clip0_1_4732">
<rect width="32" height="32" fill="white" transform="translate(0.000976562 0.0117188)"/>
</clipPath>
</defs>
</svg>
