<svg width="32" height="33" viewBox="0 0 32 33" fill="none" xmlns="http://www.w3.org/2000/svg">
<g clip-path="url(#clip0_1_4725)">
<path d="M16 32.0127C24.8366 32.0127 32 24.8493 32 16.0127C32 7.17614 24.8366 0.0126953 16 0.0126953C7.16344 0.0126953 0 7.17614 0 16.0127C0 24.8493 7.16344 32.0127 16 32.0127Z" fill="#00AFEC"/>
<path d="M20.306 11.7277C20.355 11.6487 20.399 11.5437 20.444 11.4537C21.4624 9.65034 21.9984 7.61475 22 5.5437C20.565 4.7157 19.05 4.1937 17.402 4.0127C18.012 6.6747 18.876 9.2527 20.125 11.6817L20.306 11.7277ZM12.078 11.2727L12.033 11.2627L11.683 11.1827V11.1767H11.678L11.993 9.8037C12.226 9.8537 12.459 9.9087 12.691 9.9657H12.696C13.5453 8.0497 14.2073 6.05609 14.673 4.0127C12.5253 4.24986 10.4818 5.0636 8.759 6.3677V6.3717C7.31345 7.46633 6.13441 8.87395 5.31023 10.4891C4.48605 12.1042 4.03812 13.8849 4 15.6977V15.9377C5.28089 16.6739 6.68513 17.1706 8.144 17.4037L8.151 17.3967C9.68196 15.5063 10.9999 13.4529 12.081 11.2737H12.078V11.2727ZM19.59 13.2977C19.853 13.4377 19.951 13.6377 20.076 14.0297C20.249 14.6217 20.132 15.2447 20.009 15.8297L21.46 16.1667L21.82 14.6037C23.285 16.8587 24.91 19.1877 26.883 21.0157C26.525 21.8287 26.303 22.1127 25.776 22.8267C22.546 21.8327 19.106 21.3057 15.726 21.3387L16.015 20.1837L15.051 19.9587C14.901 19.9207 14.748 19.8537 14.658 19.7217C14.545 19.5717 14.545 19.3737 14.583 19.1967L15.186 16.5747C15.498 16.6497 15.824 16.6987 16.116 16.8377C16.2526 16.8926 16.3744 16.9788 16.4715 17.0895C16.5687 17.2001 16.6384 17.3321 16.675 17.4747C16.754 17.8727 16.585 18.2547 16.517 18.6377L17.815 18.9377L18.897 14.2497L18.787 14.2127L18.702 14.1967C19.002 13.8817 19.264 13.6017 19.535 13.2597L19.591 13.2977H19.59ZM8.182 17.7047L8.213 17.6617C8.465 17.7177 8.659 17.6967 8.917 17.7237C9.84 17.8057 10.736 17.8237 11.655 17.6937C11.725 17.6837 11.797 17.6767 11.868 17.6737L11.655 18.4917C11.617 18.6537 11.546 18.8217 11.407 18.9237C11.3383 18.9693 11.2608 19.0001 11.1796 19.0142C11.0984 19.0283 11.0151 19.0254 10.935 19.0057C10.605 18.9387 10.275 18.8487 9.941 18.7847C9.84 19.2417 9.731 19.6997 9.626 20.1537L11.842 20.6667C11.752 21.0797 11.73 21.1917 11.636 21.6007C9.79132 21.8537 7.96938 22.2512 6.187 22.7897C5.662 22.0767 5.437 21.9047 5.085 21.0907C6.207 20.0507 7.217 18.8937 8.182 17.7047ZM13.327 21.0087L14.216 21.2147L14.186 21.3907L13.237 21.4587L13.327 21.0087ZM11.688 17.4297C11.757 17.4202 11.8264 17.4142 11.896 17.4117V17.4077L13.04 12.4577C13.085 12.2327 13.175 12.0077 13.104 11.7827C13.0765 11.702 13.0308 11.6288 12.9705 11.5686C12.9102 11.5084 12.8368 11.4629 12.756 11.4357L12.719 11.4237C12.529 11.3727 12.675 11.4087 12.482 11.3637C12.461 11.3587 12.365 11.3907 12.343 11.3867C11.2739 13.5404 9.96854 15.5686 8.451 17.4337C8.702 17.4867 8.661 17.4717 8.912 17.4977C9.837 17.5827 10.768 17.5597 11.687 17.4307L11.688 17.4297Z" fill="white"/>
<path d="M14.161 10.3928V10.3968C14.337 9.65378 14.502 8.90778 14.682 8.16578L16.16 8.50578L15.646 10.7378L16.531 10.9438C16.619 10.5728 16.706 10.2008 16.791 9.82878L16.92 9.27078L17.049 8.71278L18.526 9.04978C18.506 9.14978 18.484 9.24978 18.462 9.34978C18.319 9.99678 18.16 10.6378 18.017 11.2868L19.718 11.6828C18.469 9.25278 17.642 6.71278 17.033 4.05078C16.651 4.00578 16.49 4.02078 16.103 4.01378H15.867C15.443 4.01378 15.286 4.00278 14.87 4.05078C14.402 6.09378 13.85 8.23678 13 10.1528L14.161 10.3928ZM16.122 12.3018L16.167 12.3118L16.172 12.3018H16.122Z" fill="white"/>
<path d="M16.195 12.5077L15.509 15.4817C15.935 15.5757 16.379 15.7317 16.817 15.6087C16.9578 15.5644 17.0855 15.4861 17.1889 15.3808C17.2923 15.2754 17.3683 15.1463 17.41 15.0047C17.492 14.7417 17.533 14.4717 17.605 14.2097L18.329 14.3937C18.361 14.3987 18.324 14.4177 18.345 14.3967L18.363 14.3827C18.663 14.0607 19.003 13.7077 19.273 13.3667C18.8301 13.1452 18.3581 12.9873 17.871 12.8977L16.195 12.5077ZM26.965 11.3387C25.93 9.0247 24.455 7.2827 22.262 6.0127C22.26 8.0847 21.762 9.9337 20.744 11.7387C20.6822 11.8516 20.6258 11.9674 20.575 12.0857C21.261 12.2357 21.689 12.3277 22.375 12.4817V12.4887L21.933 14.4757C23.395 16.7297 25.026 19.2117 26.995 21.0417C27.623 19.6097 27.965 18.0687 28 16.5047V15.9417C27.9617 14.3538 27.61 12.7892 26.965 11.3377V11.3387ZM4 16.4827V16.6557C4.023 18.2547 4.365 19.5697 5.005 21.0357C6.06673 20.0563 7.05319 18.9983 7.956 17.8707C6.501 17.6387 5.275 17.2227 4 16.4827ZM15.685 21.8827L15.182 24.0727H15.179L13.694 23.7327L14.107 21.9357L13.162 22.0027L12.812 23.5257H12.81L11.324 23.1847C11.4 22.8467 11.474 22.5167 11.557 22.1837C9.788 22.4237 8.042 22.8087 6.337 23.3347C7.43204 24.8209 8.85481 26.0348 10.4949 26.8821C12.135 27.7295 13.9483 28.1875 15.794 28.2207H16.285C18.117 28.1734 19.9141 27.7088 21.5394 26.8621C23.1647 26.0154 24.5754 24.809 25.664 23.3347C22.4323 22.3395 19.0663 21.8497 15.685 21.8827Z" fill="white"/>
</g>
<defs>
<clipPath id="clip0_1_4725">
<rect width="32" height="32" fill="white" transform="translate(0 0.0126953)"/>
</clipPath>
</defs>
</svg>
