<svg width="32" height="33" viewBox="0 0 32 33" fill="none" xmlns="http://www.w3.org/2000/svg">
<g clip-path="url(#clip0_1_4721)">
<path d="M16 32.0127C24.8366 32.0127 32 24.8493 32 16.0127C32 7.17614 24.8366 0.0126953 16 0.0126953C7.16344 0.0126953 0 7.17614 0 16.0127C0 24.8493 7.16344 32.0127 16 32.0127Z" fill="#C40E09"/>
<path fill-rule="evenodd" clip-rule="evenodd" d="M22.7 7.1527C22.79 7.2227 22.871 7.2827 22.946 7.3477C23.144 7.5227 23.343 7.6977 23.536 7.8787C23.689 8.0247 23.834 8.1807 23.981 8.3337C23.993 8.3457 24.003 8.3737 23.999 8.3897C23.909 8.7377 23.773 9.0657 23.591 9.3717C23.431 9.6397 23.247 9.88569 23.033 10.1067C22.743 10.4067 22.418 10.6567 22.062 10.8617C21.907 10.9517 21.748 11.0317 21.589 11.1117C21.082 11.3687 20.542 11.5127 19.992 11.6147C19.617 11.6847 19.238 11.7347 18.861 11.7867C18.365 11.8547 17.868 11.9097 17.373 11.9817C16.643 12.0877 15.928 12.2537 15.25 12.5687C14.504 12.9157 13.883 13.4227 13.461 14.1717C13.18 14.6717 13.066 15.2167 13.071 15.7947C13.08 16.9017 13.459 17.8587 14.113 18.7097C14.513 19.2297 14.969 19.6917 15.449 20.1277C15.781 20.4307 16.12 20.7247 16.451 21.0277C16.874 21.4177 17.298 21.8067 17.661 22.2617C17.851 22.5017 18.039 22.7477 18.202 23.0087C18.48 23.4547 18.701 23.9337 18.846 24.4467C18.926 24.7267 18.974 25.0117 18.996 25.3037C19.0278 25.7377 18.9893 26.174 18.882 26.5957C18.839 26.7687 18.837 26.7717 18.666 26.8027C18.425 26.8477 18.184 26.8937 17.942 26.9327C17.765 26.9597 17.587 26.9767 17.409 26.9967C17.347 27.0047 17.284 27.0077 17.221 27.0127L17.184 27.0117C17.185 26.9977 17.184 26.9837 17.188 26.9717C17.242 26.8287 17.302 26.6877 17.353 26.5437C17.4653 26.2342 17.5412 25.9127 17.579 25.5857C17.6452 25.0107 17.5398 24.4289 17.276 23.9137C17.0923 23.566 16.8585 23.2472 16.582 22.9677C16.206 22.5727 15.792 22.2267 15.377 21.8817C14.684 21.3047 14.014 20.7017 13.402 20.0297C13.0296 19.6241 12.6912 19.1886 12.39 18.7277C12.0604 18.2307 11.802 17.6902 11.622 17.1217C11.3469 16.2378 11.3382 15.2925 11.597 14.4037C11.743 13.8897 11.94 13.4067 12.244 12.9737C12.646 12.4007 13.165 11.9737 13.76 11.6437C14.36 11.3087 15 11.0887 15.659 10.9237C16.189 10.7897 16.726 10.6897 17.267 10.6237C17.877 10.5497 18.487 10.4877 19.097 10.4187C19.595 10.3627 20.09 10.2937 20.571 10.1417C21.009 10.0094 21.4114 9.77969 21.748 9.4697C22.039 9.1977 22.255 8.8717 22.41 8.49769C22.553 8.15269 22.623 7.7887 22.674 7.4197C22.685 7.3377 22.691 7.2537 22.701 7.1527H22.7ZM15.64 19.9787C15.859 19.9357 16.067 19.8987 16.274 19.8537C16.806 19.7357 17.331 19.5937 17.824 19.3417C18.3091 19.0958 18.7405 18.7559 19.093 18.3417C19.453 17.9157 19.748 17.4467 19.902 16.8907C19.9985 16.5387 20.0324 16.1724 20.002 15.8087C19.9392 15.0683 19.6864 14.3567 19.268 13.7427C18.9521 13.2782 18.5902 12.8467 18.188 12.4547C18.118 12.3837 18.044 12.3147 17.973 12.2447C17.963 12.2347 17.955 12.2227 17.94 12.2047L18.32 12.1457L19.143 12.0207C19.287 11.9987 19.431 11.9747 19.575 11.9557C19.592 11.9537 19.616 11.9727 19.63 11.9877C19.886 12.2857 20.148 12.5777 20.394 12.8847C20.714 13.2827 20.984 13.7187 21.204 14.1887C21.399 14.6077 21.542 15.0437 21.612 15.5057C21.661 15.8287 21.682 16.1547 21.649 16.4807C21.553 17.3937 21.282 18.2387 20.747 18.9767C20.415 19.4357 20.006 19.8067 19.545 20.1167C19.008 20.4709 18.424 20.7479 17.81 20.9397C17.547 21.0237 17.281 21.0957 17.016 21.1697C17.0037 21.1725 16.9911 21.1725 16.9788 21.17C16.9666 21.1674 16.955 21.1622 16.945 21.1547C16.518 20.7747 16.093 20.3917 15.668 20.0097C15.66 20.0037 15.654 19.9947 15.641 19.9797L15.64 19.9787ZM17.756 10.2807L17.112 10.3807L16.382 10.4937C16.297 10.5077 16.211 10.5237 16.124 10.5327C16.0921 10.535 16.0606 10.525 16.036 10.5047C15.7549 10.2465 15.4938 9.96735 15.255 9.66969C15.125 9.50469 14.993 9.33969 14.878 9.16269C14.488 8.55869 14.183 7.9137 14.054 7.1887C13.9386 6.5697 13.9722 5.93214 14.152 5.3287C14.163 5.2887 14.175 5.2687 14.222 5.2597C14.49 5.2137 14.755 5.1537 15.022 5.1097C15.242 5.0747 15.466 5.0567 15.688 5.0307L15.87 5.0127C15.854 5.0487 15.845 5.0727 15.834 5.0937C15.6427 5.4853 15.5109 5.90323 15.443 6.3337C15.3524 6.92191 15.4471 7.52372 15.714 8.0557C15.935 8.5007 16.237 8.8777 16.579 9.2257C16.935 9.5857 17.321 9.9097 17.708 10.2327C17.722 10.2447 17.734 10.2577 17.757 10.2807H17.756ZM14.582 21.5687L14.156 21.6137C13.976 21.6337 13.796 21.6477 13.616 21.6757C13.339 21.7187 13.061 21.7607 12.787 21.8217C11.784 22.0437 11.003 22.5757 10.577 23.5987C10.4209 23.9718 10.3046 24.3603 10.23 24.7577C10.227 24.7757 10.221 24.7937 10.213 24.8257C10.156 24.7817 10.103 24.7457 10.055 24.7037C9.85496 24.5257 9.65596 24.3497 9.46096 24.1677C9.31996 24.0357 9.18696 23.8947 9.04696 23.7607C8.99996 23.7157 8.99096 23.6707 9.00796 23.6067C9.19731 22.9226 9.57049 22.3036 10.087 21.8167C10.4206 21.5071 10.7939 21.2431 11.197 21.0317C11.763 20.7217 12.368 20.5437 12.988 20.4097C13.06 20.3947 13.134 20.3867 13.204 20.3677C13.248 20.3557 13.277 20.3677 13.308 20.3967L13.886 20.9257L14.527 21.5147C14.5461 21.5319 14.5645 21.5499 14.582 21.5687ZM18.909 17.1907C18.859 17.1787 18.809 17.1677 18.761 17.1527L15.31 16.0737C14.867 15.9357 14.425 15.7987 13.983 15.6597C13.813 15.6067 13.726 15.4677 13.739 15.3257C13.757 15.1157 13.827 14.9697 14.024 14.9307C14.0783 14.9224 14.1338 14.9272 14.186 14.9447C14.56 15.0597 14.933 15.1797 15.306 15.2957L17.947 16.1197L19 16.4467C19.0787 16.4684 19.147 16.5177 19.1924 16.5857C19.2377 16.6536 19.2571 16.7356 19.247 16.8167C19.218 17.0397 19.085 17.1847 18.909 17.1907ZM11.619 23.6867C11.651 23.6947 11.689 23.7017 11.726 23.7127L16.531 25.2127C16.696 25.2647 16.794 25.4027 16.779 25.5647C16.76 25.7827 16.646 25.9277 16.475 25.9427C16.422 25.9453 16.3691 25.9378 16.319 25.9207C14.994 25.5087 13.67 25.0947 12.346 24.6807C12.07 24.5947 11.794 24.5107 11.519 24.4237C11.365 24.3747 11.263 24.2437 11.274 24.0937C11.29 23.8957 11.363 23.7447 11.54 23.6997C11.563 23.6927 11.588 23.6917 11.62 23.6867H11.619ZM21.749 7.9227C21.734 7.9667 21.714 8.0587 21.671 8.1357C21.601 8.2617 21.458 8.3087 21.317 8.2647L19 7.5407C18.171 7.2817 17.342 7.0227 16.512 6.7657C16.371 6.7217 16.266 6.6387 16.25 6.4787C16.232 6.2987 16.315 6.0577 16.551 6.0307C16.5957 6.02772 16.6406 6.03384 16.683 6.0487L21.499 7.5517C21.659 7.6017 21.749 7.7197 21.749 7.9227ZM14.834 14.3857C14.844 14.1787 14.934 14.0227 15.096 13.9907C15.1597 13.9794 15.2252 13.9835 15.287 14.0027C15.773 14.1507 16.257 14.3037 16.743 14.4557L18.575 15.0257C18.6563 15.0483 18.7263 15.1003 18.7714 15.1716C18.8165 15.243 18.8335 15.3285 18.819 15.4117C18.782 15.6417 18.645 15.7817 18.459 15.7617C18.364 15.7497 18.271 15.7117 18.177 15.6827L15.795 14.9387L15.077 14.7147C15.005 14.6958 14.9416 14.6529 14.8974 14.593C14.8532 14.5332 14.8308 14.46 14.834 14.3857ZM14.502 16.2757C14.566 16.2927 14.614 16.3017 14.661 16.3157L17.681 17.2597C17.764 17.2857 17.848 17.3097 17.931 17.3367C18.116 17.3967 18.206 17.5687 18.158 17.7647C18.121 17.9197 18.047 18.0387 17.887 18.0657C17.8346 18.0732 17.7813 18.0688 17.731 18.0527C17.347 17.9357 16.964 17.8147 16.581 17.6947C15.868 17.4727 15.156 17.2497 14.444 17.0297C14.312 16.9887 14.212 16.9097 14.19 16.7647C14.165 16.6037 14.207 16.4547 14.336 16.3517C14.386 16.3127 14.452 16.2987 14.502 16.2767V16.2757ZM11.719 25.4627C11.733 25.2467 11.827 25.0777 12.022 25.0567C12.0647 25.0525 12.1079 25.0569 12.149 25.0697C13.257 25.4147 14.365 25.7597 15.473 26.1067C15.651 26.1627 15.738 26.3387 15.693 26.5267C15.655 26.6867 15.573 26.7987 15.416 26.8347C15.3866 26.843 15.3556 26.8437 15.326 26.8367L12.219 25.8667C12.128 25.8377 12.036 25.8107 11.944 25.7807C11.8775 25.7586 11.8198 25.7158 11.7793 25.6586C11.7389 25.6014 11.7177 25.5328 11.719 25.4627ZM12.716 22.7427C12.746 22.7507 12.786 22.7577 12.825 22.7697L16.106 23.7937C16.266 23.8437 16.366 23.9837 16.354 24.1397C16.337 24.3537 16.227 24.5007 16.059 24.5217C16.0021 24.5263 15.9449 24.5191 15.891 24.5007C15.006 24.2257 14.121 23.9477 13.237 23.6707C13.026 23.6057 12.814 23.5407 12.604 23.4737C12.45 23.4237 12.357 23.2967 12.37 23.1387C12.386 22.9327 12.466 22.7987 12.638 22.7537C12.66 22.7477 12.683 22.7477 12.716 22.7437V22.7427ZM20.338 9.1807C20.23 9.1487 20.125 9.1197 20.02 9.0867C18.993 8.7667 17.966 8.4437 16.938 8.12269C16.733 8.05769 16.65 7.8927 16.706 7.6747C16.741 7.5357 16.813 7.4357 16.948 7.4047C17.0075 7.39141 17.0694 7.39348 17.128 7.4107C18.038 7.69169 18.949 7.9767 19.86 8.2607C20.055 8.3207 20.249 8.38269 20.444 8.4437C20.518 8.46745 20.5813 8.5166 20.6226 8.58246C20.664 8.64833 20.6807 8.72668 20.67 8.8037C20.653 8.9357 20.616 9.0637 20.49 9.1287C20.443 9.1527 20.39 9.1627 20.338 9.1807ZM21.321 6.4807C21.302 6.6137 21.266 6.7587 21.114 6.8327C21.0364 6.86723 20.9484 6.86975 20.869 6.8397L18.504 6.0997L17.581 5.8097C17.387 5.7497 17.303 5.5817 17.356 5.3747C17.392 5.2337 17.46 5.1247 17.601 5.0947C17.6628 5.08263 17.7267 5.08607 17.787 5.1047C18.409 5.2967 19.03 5.4927 19.651 5.6867L21.076 6.1307C21.231 6.1797 21.322 6.3007 21.321 6.4807Z" fill="white"/>
</g>
<defs>
<clipPath id="clip0_1_4721">
<rect width="32" height="32" fill="white" transform="translate(0 0.0126953)"/>
</clipPath>
</defs>
</svg>
