<svg width="32" height="33" viewBox="0 0 32 33" fill="none" xmlns="http://www.w3.org/2000/svg">
<g clip-path="url(#clip0_1_4717)">
<path d="M16 32.0127C24.8366 32.0127 32 24.8493 32 16.0127C32 7.17614 24.8366 0.0126953 16 0.0126953C7.16344 0.0126953 0 7.17614 0 16.0127C0 24.8493 7.16344 32.0127 16 32.0127Z" fill="#2080A2"/>
<path fill-rule="evenodd" clip-rule="evenodd" d="M15.98 20.3097C14.835 21.6167 14.807 23.4097 15.993 24.6037C17.114 23.5237 17.115 21.5107 15.98 20.3097ZM15.981 8.11769C13.276 11.2457 13.378 14.9437 15.979 18.0167C18.627 14.8807 18.634 11.2007 15.981 8.1167V8.11769ZM17.893 17.1427C20.143 14.8427 22.888 14.3167 26 14.8147C24.997 17.1147 23.582 18.9517 21.082 19.9127C21.634 19.4797 22.137 19.1257 22.592 18.7197C23.352 18.0427 23.89 17.2227 24.159 16.2377C24.244 15.9267 24.134 15.8387 23.848 15.7927C22.801 15.6247 21.818 15.8447 20.879 16.2727C19.299 16.9927 18.012 18.1017 16.805 19.3067C16.784 19.3287 16.775 19.3607 16.737 19.4297C19.102 19.5197 20.903 20.4637 21.97 22.6447C20.584 22.9527 19.316 22.8877 18.14 22.1317C19.026 22.4037 19.91 22.6017 20.88 22.1417C20.76 21.9417 20.69 21.7077 20.53 21.5767C20.093 21.2197 19.645 20.8587 19.15 20.5867C18.385 20.1687 17.53 19.9727 16.584 19.7787C17.861 22.0157 17.541 24.0467 15.98 26.0127C15.254 25.0977 14.746 24.1407 14.607 23.0107C14.467 21.8767 14.786 20.8467 15.333 19.8607C14.123 19.6667 11.512 21.0677 11.108 22.1477C12.045 22.6217 12.959 22.4057 13.9 22.0557C13.224 22.7517 11.275 23.0367 10.004 22.6177C11.059 20.4677 12.851 19.5207 15.269 19.4307C15.091 19.2507 14.959 19.1117 14.821 18.9787C13.815 18.0087 12.746 17.1187 11.49 16.4707C10.463 15.9407 9.386 15.6087 8.203 15.7857C8.063 15.8067 7.924 15.8407 7.728 15.8807C8.088 17.7307 9.328 18.8777 10.862 19.8447C9.25 19.6497 6.53 16.8327 6 14.8107C9.11 14.3067 11.87 14.8587 14.11 17.2097C12.257 13.0827 13.243 9.4297 15.98 6.0127C18.695 9.4027 19.691 13.0297 17.893 17.1427Z" fill="white"/>
</g>
<defs>
<clipPath id="clip0_1_4717">
<rect width="32" height="32" fill="white" transform="translate(0 0.0126953)"/>
</clipPath>
</defs>
</svg>
