<svg width="32" height="33" viewBox="0 0 32 33" fill="none" xmlns="http://www.w3.org/2000/svg">
<g clip-path="url(#clip0_1_4713)">
<path d="M16 32.0127C24.8366 32.0127 32 24.8493 32 16.0127C32 7.17614 24.8366 0.0126953 16 0.0126953C7.16344 0.0126953 0 7.17614 0 16.0127C0 24.8493 7.16344 32.0127 16 32.0127Z" fill="#1D9AD7"/>
<path fill-rule="evenodd" clip-rule="evenodd" d="M25.999 11.7248C24.99 10.6708 22.917 9.7888 19.051 9.2478C17.8321 9.07713 16.6081 8.94407 15.381 8.8488C14.428 8.7918 13.503 8.7348 12.607 8.7348C11.122 10.9548 9.721 13.6318 8.488 16.8488C7.143 20.3788 5.939 23.8528 5.099 27.0128H4.847C4.931 23.6248 5.491 19.7818 6.64 15.7958C7.397 13.2058 8.293 10.9268 9.302 8.9348C4.762 9.4188 1.512 10.8138 0 12.8058C1.289 9.6458 5.127 6.9698 10.983 6.0308C14.093 1.3898 17.763 -0.689197 20.817 0.222803C21.881 0.535803 22.778 1.2188 23.507 2.1868C23.422 2.1298 23.338 2.0728 23.227 2.0448C20.985 1.1338 17.959 2.4428 15.017 5.6888H15.157C21.741 5.6608 25.075 8.4508 26 11.7248H25.999ZM17.762 15.9948C19.555 15.9948 21.012 17.5038 21.012 19.3548C21.012 21.2048 19.555 22.7138 17.762 22.7138C15.969 22.7138 14.512 21.2048 14.512 19.3538C14.512 17.4758 15.969 15.9948 17.762 15.9948Z" fill="white"/>
</g>
<defs>
<clipPath id="clip0_1_4713">
<rect width="32" height="32" fill="white" transform="translate(0 0.0126953)"/>
</clipPath>
</defs>
</svg>
