<svg width="32" height="33" viewBox="0 0 32 33" fill="none" xmlns="http://www.w3.org/2000/svg">
<g clip-path="url(#clip0_1_4709)">
<path d="M16 32.0127C24.8366 32.0127 32 24.8493 32 16.0127C32 7.17614 24.8366 0.0126953 16 0.0126953C7.16344 0.0126953 0 7.17614 0 16.0127C0 24.8493 7.16344 32.0127 16 32.0127Z" fill="#27323A"/>
<path d="M25.103 6.0127C25.103 6.0127 26.75 7.4767 25.581 10.4557C25.3588 11.0033 25.0502 11.5118 24.667 11.9617L20.602 16.7317L17.34 20.9897C17.34 20.9897 13.594 20.3737 12.138 21.8847L18.312 22.1587C18.312 22.1587 16.994 23.6017 11.792 22.5687C11.792 22.5687 11.862 24.0167 14.221 24.4287C14.221 24.4287 12.138 25.1177 10.889 23.1217C10.889 23.1217 10.889 24.5697 12.345 25.1857C12.345 25.1857 11.165 25.4597 10.193 24.2227L8.53 26.0067C8.53 26.0067 8.185 26.0757 8.392 25.7337L9.779 24.0857C9.779 24.0857 9.917 22.9167 9.083 23.3277C9.083 23.3277 8.53 23.5327 8.737 24.1537C8.737 24.1537 7.903 23.4697 8.876 22.5747L7 20.7167L9.428 22.0217L8.387 19.4787L10.119 21.6797C10.119 21.6797 9.975 19.2057 10.741 18.5207C10.741 18.5207 10.948 20.9267 11.921 21.1327L11.851 16.1147L12.893 15.2207L13.031 18.3787C13.031 18.3787 13.307 18.7207 13.583 18.3107C13.583 18.3107 14.21 17.2787 14.21 14.2567L15.873 12.6767L16.081 13.9147C16.081 13.9147 16.362 14.3937 16.708 13.9827L17.053 11.5777C17.053 11.5777 19.273 9.0347 25.103 6.0127ZM14.003 19.9627C19.757 14.6727 22.813 9.51869 22.807 9.51869C19.965 11.5087 14.003 19.9637 14.003 19.9637V19.9627Z" fill="white"/>
</g>
<defs>
<clipPath id="clip0_1_4709">
<rect width="32" height="32" fill="white" transform="translate(0 0.0126953)"/>
</clipPath>
</defs>
</svg>
