<svg width="32" height="33" viewBox="0 0 32 33" fill="none" xmlns="http://www.w3.org/2000/svg">
<g clip-path="url(#clip0_1_4705)">
<path d="M16 32.0127C24.8366 32.0127 32 24.8493 32 16.0127C32 7.17614 24.8366 0.0126953 16 0.0126953C7.16344 0.0126953 0 7.17614 0 16.0127C0 24.8493 7.16344 32.0127 16 32.0127Z" fill="#4096D0"/>
<path d="M25.532 10.0127H19.037L17.111 14.8427H11.037V12.3557H17.111L18 10.0127H8.802C8.68813 10.0122 8.5787 10.0568 8.49771 10.1369C8.41672 10.2169 8.37079 10.3258 8.37 10.4397V14.8417H6.89L6 17.1837H8.37V21.5807C8.37 21.8187 8.566 22.0127 8.808 22.0127H13.259L14.148 19.6717H11.037V17.1827H16.074L14.148 22.0127H17.111L19.185 17.1827H25.565C25.805 17.1827 26 16.9907 26 16.7537V10.4737C25.9989 10.3506 25.9491 10.2328 25.8613 10.1464C25.7736 10.06 25.6552 10.0119 25.532 10.0127ZM23.482 14.4727C23.482 14.6767 23.315 14.8427 23.108 14.8427H20.074L21.111 12.3567H23.106C23.2048 12.3556 23.2999 12.3938 23.3706 12.4628C23.4413 12.5318 23.4817 12.626 23.483 12.7247L23.482 14.4727Z" fill="white"/>
</g>
<defs>
<clipPath id="clip0_1_4705">
<rect width="32" height="32" fill="white" transform="translate(0 0.0126953)"/>
</clipPath>
</defs>
</svg>
