<svg width="32" height="33" viewBox="0 0 32 33" fill="none" xmlns="http://www.w3.org/2000/svg">
<g clip-path="url(#clip0_1_4701)">
<path d="M16.0005 32.0127C24.837 32.0127 32.0005 24.8493 32.0005 16.0127C32.0005 7.17614 24.837 0.0126953 16.0005 0.0126953C7.16393 0.0126953 0.000488281 7.17614 0.000488281 16.0127C0.000488281 24.8493 7.16393 32.0127 16.0005 32.0127Z" fill="#ED1968"/>
<path d="M12.9631 27.1127C11.6854 26.7587 10.4941 26.146 9.46305 25.3127C8.44707 24.53 7.5684 23.5838 6.86305 22.5127C6.11091 21.386 5.56885 20.1324 5.26305 18.8127C4.91297 17.2318 4.91297 15.5935 5.26305 14.0127C5.56141 12.6754 6.06755 11.3932 6.76305 10.2127C7.78126 8.57912 9.23606 7.26287 10.9631 6.41269C11.5695 6.08627 12.2057 5.8184 12.8631 5.6127C13.8631 6.8127 14.8631 8.11269 15.8631 9.41269C15.9631 9.61269 16.1631 9.7127 16.2631 9.91269C15.26 9.95474 14.2748 10.1925 13.3631 10.6127C12.557 11.0341 11.8431 11.612 11.2631 12.3127C10.6924 13.0671 10.2529 13.9123 9.96305 14.8127C9.696 15.9014 9.73057 17.0422 10.0631 18.1127L14.3631 14.7127C15.3631 16.0127 16.3631 17.2127 17.3631 18.5127C15.9631 19.6127 14.4631 20.7127 13.0631 21.9127C14.4631 23.7127 15.9631 25.6127 17.3631 27.5127C15.8845 27.6875 14.3858 27.5513 12.9631 27.1127ZM22.4931 14.9987C22.4563 14.835 22.413 14.6729 22.3631 14.5127C22.2281 14.6187 19.2531 16.8927 18.0631 17.9127C17.0631 16.6127 16.0631 15.4127 15.0631 14.1127C16.4631 13.0127 17.9631 11.9127 19.3631 10.7127C17.9631 8.9127 16.5631 7.1127 15.0631 5.2127C15.0631 5.1127 14.9631 5.1127 14.9631 5.0127H16.3631C18.9282 5.03664 21.4043 5.95633 23.3631 7.6127C24.3177 8.40153 25.1295 9.34867 25.7631 10.4127C26.5092 11.5581 26.9877 12.857 27.1631 14.2127C27.431 15.7713 27.397 17.3669 27.0631 18.9127C26.7768 20.2079 26.2326 21.4323 25.4631 22.5127C24.7914 23.5499 23.9456 24.4634 22.9631 25.2127C22.0061 26.0442 20.8802 26.6583 19.6631 27.0127C18.7631 25.9127 17.9631 24.9127 17.1631 23.8127C16.8642 23.4706 16.5964 23.1024 16.3631 22.7127C17.3093 22.7159 18.2435 22.501 19.0933 22.0848C19.943 21.6686 20.6855 21.0622 21.2631 20.3127C21.839 19.5759 22.2484 18.723 22.4631 17.8127C22.6491 17.0537 22.6591 16.1157 22.4931 14.9987ZM17.7701 23.3717C18.4606 24.315 19.1776 25.2387 19.9201 26.1417C20.8698 25.7983 21.7474 25.2811 22.5081 24.6167C23.4302 23.9117 24.2233 23.0524 24.8521 22.0767C25.5626 21.0797 26.0652 19.95 26.3301 18.7547C26.6441 17.3027 26.6751 15.8037 26.4201 14.3087C26.2565 13.055 25.8117 11.8544 25.1191 10.7967C24.5278 9.80424 23.7701 8.921 22.8791 8.1857C21.0792 6.66298 18.8092 5.80756 16.4521 5.7637C17.3791 6.9437 18.3181 8.1467 19.9551 10.2527L20.3951 10.8167L19.8511 11.2817C19.1398 11.8867 18.4135 12.4738 17.6731 13.0427C17.6031 13.0977 16.7531 13.7507 16.1151 14.2447C16.3781 14.5797 16.6831 14.9617 17.1491 15.5447C17.6091 16.1197 17.9141 16.5027 18.1771 16.8377C18.6411 16.4547 19.1471 16.0527 19.7531 15.5827C19.8511 15.5067 21.4491 14.2767 21.9001 13.9227L22.7561 13.2497L23.0791 14.2897C23.4517 15.4882 23.4911 16.7655 23.1931 17.9847C22.9542 18.999 22.4984 19.9494 21.8571 20.7707C20.8373 22.0941 19.3726 23.0032 17.7341 23.3297L17.7701 23.3717Z" fill="white"/>
</g>
<defs>
<clipPath id="clip0_1_4701">
<rect width="32" height="32" fill="white" transform="translate(0.000488281 0.0126953)"/>
</clipPath>
</defs>
</svg>
