<svg width="32" height="33" viewBox="0 0 32 33" fill="none" xmlns="http://www.w3.org/2000/svg">
<g clip-path="url(#clip0_1_4697)">
<path d="M16.0005 32.0127C24.837 32.0127 32.0005 24.8493 32.0005 16.0127C32.0005 7.17614 24.837 0.0126953 16.0005 0.0126953C7.16393 0.0126953 0.000488281 7.17614 0.000488281 16.0127C0.000488281 24.8493 7.16393 32.0127 16.0005 32.0127Z" fill="#2D475B"/>
<path d="M12.8695 12.6977H23.9545V15.1857H12.8695V12.6977ZM23.9545 16.8417H24.0005V23.3847C24.0005 23.3847 15.3535 29.6497 8.63748 22.8327C8.63748 22.8327 4.95748 19.1007 6.29148 13.6647C6.29148 13.6647 7.34948 6.89369 15.3995 6.06469C15.3995 6.06469 20.3665 5.37269 23.5865 9.05869L21.6545 10.9467C21.6545 10.9467 17.5605 6.70869 12.0875 10.0267C12.0875 10.0267 7.62548 12.5137 9.46548 18.7787C9.46548 18.7787 11.4895 24.2147 17.8365 23.1087C17.8365 23.1087 19.9985 22.6167 21.1025 21.6647V19.3297H12.8705V16.8417H23.9545Z" fill="white"/>
</g>
<defs>
<clipPath id="clip0_1_4697">
<rect width="32" height="32" fill="white" transform="translate(0.000488281 0.0126953)"/>
</clipPath>
</defs>
</svg>
