<svg width="32" height="33" viewBox="0 0 32 33" fill="none" xmlns="http://www.w3.org/2000/svg">
<g clip-path="url(#clip0_1_4693)">
<path d="M16.0005 32.0127C24.837 32.0127 32.0005 24.8493 32.0005 16.0127C32.0005 7.17614 24.837 0.0126953 16.0005 0.0126953C7.16393 0.0126953 0.000488281 7.17614 0.000488281 16.0127C0.000488281 24.8493 7.16393 32.0127 16.0005 32.0127Z" fill="#58BF00"/>
<path d="M25.0005 22.5927L18.0105 19.3347V12.1147L25.0005 9.6357V22.5927ZM14.8235 26.0127L8.00049 22.8337V9.9707L14.8235 13.1507V26.0127ZM24.8335 9.16969L24.7205 9.20969L18.0105 11.5907L17.8425 11.6507L14.9995 12.6587L8.26949 9.5227L17.8425 6.1267L17.9265 6.0967L18.1035 6.0337L18.1655 6.0127L24.8955 9.14869L24.8325 9.16969H24.8335Z" fill="white"/>
</g>
<defs>
<clipPath id="clip0_1_4693">
<rect width="32" height="32" fill="white" transform="translate(0.000488281 0.0126953)"/>
</clipPath>
</defs>
</svg>
