<svg width="32" height="33" viewBox="0 0 32 33" fill="none" xmlns="http://www.w3.org/2000/svg">
<g clip-path="url(#clip0_1_4689)">
<path d="M16.0005 32.0127C24.837 32.0127 32.0005 24.8493 32.0005 16.0127C32.0005 7.17614 24.837 0.0126953 16.0005 0.0126953C7.16393 0.0126953 0.000488281 7.17614 0.000488281 16.0127C0.000488281 24.8493 7.16393 32.0127 16.0005 32.0127Z" fill="#BC3FE0"/>
<path fill-rule="evenodd" clip-rule="evenodd" d="M11.0875 15.3277V12.9957C11.0875 9.31969 13.3065 7.0127 17.1625 7.0127C20.0945 7.0127 21.7325 8.2547 23.0005 9.8527L20.5175 11.7527C19.5665 10.5877 18.6675 9.9027 17.1895 9.9027C15.4195 9.9027 14.3625 11.1197 14.3625 13.0727V15.3277H20.9405V17.9647H14.3625V22.2997H22.9475V25.0127H9.00049V23.0357L11.0875 22.4267V17.9647H9.00049V15.3277H11.0875Z" fill="white"/>
</g>
<defs>
<clipPath id="clip0_1_4689">
<rect width="32" height="32" fill="white" transform="translate(0.000488281 0.0126953)"/>
</clipPath>
</defs>
</svg>
