<svg width="32" height="33" viewBox="0 0 32 33" fill="none" xmlns="http://www.w3.org/2000/svg">
<g clip-path="url(#clip0_1_4685)">
<path d="M16.0005 32.0127C24.837 32.0127 32.0005 24.8493 32.0005 16.0127C32.0005 7.17614 24.837 0.0126953 16.0005 0.0126953C7.16393 0.0126953 0.000488281 7.17614 0.000488281 16.0127C0.000488281 24.8493 7.16393 32.0127 16.0005 32.0127Z" fill="#1666AF"/>
<path d="M15.6995 11.0187V13.0787H10.9995C10.3895 13.0787 9.63849 13.2927 9.07949 13.6887C8.38649 14.1807 7.99949 14.9177 7.99949 16.0157C7.99949 17.1137 8.38649 17.8507 9.07949 18.3427C9.63849 18.7387 10.3895 18.9527 10.9995 18.9527H12.9995V21.0127H10.9995C9.90695 21.0019 8.84289 20.6629 7.94549 20.0397C6.71749 19.1677 6.00049 17.8017 6.00049 16.0157C6.00049 14.2297 6.71749 12.8637 7.94549 11.9917C8.84258 11.3686 9.90628 11.0296 10.9985 11.0187H15.6995ZM10.6995 17.2007V15.1407H15.6995V21.0127H13.7005V17.2007H10.6995ZM19.0005 13.0727V11.0127H26.0005V21.0127H16.9985V13.0797H18.9985V18.9517H24.0005V13.0737L19.0005 13.0727Z" fill="white"/>
</g>
<defs>
<clipPath id="clip0_1_4685">
<rect width="32" height="32" fill="white" transform="translate(0.000488281 0.0126953)"/>
</clipPath>
</defs>
</svg>
