<svg width="32" height="33" viewBox="0 0 32 33" fill="none" xmlns="http://www.w3.org/2000/svg">
<g clip-path="url(#clip0_1_5504)">
<path d="M16.0005 32.0127C24.837 32.0127 32.0005 24.8493 32.0005 16.0127C32.0005 7.17614 24.837 0.0126953 16.0005 0.0126953C7.16393 0.0126953 0.000488281 7.17614 0.000488281 16.0127C0.000488281 24.8493 7.16393 32.0127 16.0005 32.0127Z" fill="#EFB914"/>
<path fill-rule="evenodd" clip-rule="evenodd" d="M21.0025 9.86769C21.8399 10.5248 22.5368 11.3434 23.0518 12.275C23.5668 13.2065 23.8894 14.2321 24.0005 15.2907L21.1535 14.5827C20.8856 13.688 20.3884 12.879 19.7113 12.2357C19.0342 11.5925 18.2007 11.1374 17.2935 10.9157C14.4275 10.2027 11.5335 11.9067 10.8285 14.7217C10.1235 17.5367 11.8785 20.3967 14.7455 21.1097C15.6517 21.3385 16.6019 21.3269 17.5023 21.0761C18.4026 20.8253 19.222 20.344 19.8795 19.6797L22.7265 20.3867C22.1299 21.2698 21.3624 22.0243 20.4692 22.6057C19.5761 23.1871 18.5755 23.5836 17.5265 23.7717L16.7165 27.0127L14.1205 26.3677L14.7645 23.7927C14.3238 23.7202 13.8897 23.6122 13.4665 23.4697L12.8235 26.0447L10.2275 25.3987L11.0375 22.1577C8.65949 20.2827 7.46249 17.1617 8.23349 14.0767C9.00449 10.9917 11.5305 8.7957 14.5135 8.2537L15.3235 5.0127L17.9195 5.6577L17.2755 8.2327C17.7162 8.30518 18.1502 8.4132 18.5735 8.5557L19.2165 5.9807L21.8125 6.6267L21.0025 9.86769Z" fill="white"/>
</g>
<defs>
<clipPath id="clip0_1_5504">
<rect width="32" height="32" fill="white" transform="translate(0.000488281 0.0126953)"/>
</clipPath>
</defs>
</svg>
