<svg width="32" height="33" viewBox="0 0 32 33" fill="none" xmlns="http://www.w3.org/2000/svg">
<g clip-path="url(#clip0_1_5498)">
<path d="M16.001 32.0127C24.8375 32.0127 32.001 24.8493 32.001 16.0127C32.001 7.17614 24.8375 0.0126953 16.001 0.0126953C7.16442 0.0126953 0.000976562 7.17614 0.000976562 16.0127C0.000976562 24.8493 7.16442 32.0127 16.001 32.0127Z" fill="#008DDE"/>
<path d="M24.0439 17.3527C24.1416 17.3563 24.239 17.3402 24.3303 17.3053C24.4216 17.2704 24.505 17.2175 24.5753 17.1497C24.6457 17.0818 24.7017 17.0005 24.7399 16.9106C24.7782 16.8206 24.7979 16.7239 24.7979 16.6262C24.7979 16.5284 24.7782 16.4317 24.7399 16.3417C24.7017 16.2518 24.6457 16.1705 24.5753 16.1026C24.505 16.0348 24.4216 15.9819 24.3303 15.947C24.239 15.9121 24.1416 15.896 24.0439 15.8997H22.3839V14.2577H25.8549C25.9526 14.2613 26.05 14.2452 26.1413 14.2103C26.2326 14.1754 26.316 14.1225 26.3863 14.0547C26.4567 13.9868 26.5127 13.9055 26.5509 13.8156C26.5892 13.7256 26.6089 13.6289 26.6089 13.5312C26.6089 13.4334 26.5892 13.3367 26.5509 13.2467C26.5127 13.1568 26.4567 13.0755 26.3863 13.0076C26.316 12.9398 26.2326 12.8869 26.1413 12.852C26.05 12.8171 25.9526 12.801 25.8549 12.8047H22.3699C22.2995 12.0267 21.9734 11.2939 21.4426 10.7208C20.9119 10.1477 20.2062 9.76646 19.4359 9.63665V7.88765C19.4396 7.78998 19.4235 7.69258 19.3886 7.60127C19.3537 7.50997 19.3008 7.42663 19.2329 7.35625C19.1651 7.28587 19.0838 7.22988 18.9939 7.19164C18.9039 7.1534 18.8072 7.1337 18.7094 7.1337C18.6117 7.1337 18.515 7.1534 18.425 7.19164C18.3351 7.22988 18.2537 7.28587 18.1859 7.35625C18.1181 7.42663 18.0652 7.50997 18.0303 7.60127C17.9954 7.69258 17.9793 7.78998 17.9829 7.88765V9.58765H16.3409V5.76665C16.3446 5.66898 16.3285 5.57158 16.2936 5.48027C16.2587 5.38897 16.2058 5.30563 16.1379 5.23525C16.0701 5.16487 15.9888 5.10888 15.8989 5.07064C15.8089 5.0324 15.7122 5.0127 15.6144 5.0127C15.5167 5.0127 15.42 5.0324 15.33 5.07064C15.2401 5.10888 15.1587 5.16487 15.0909 5.23525C15.0231 5.30563 14.9702 5.38897 14.9353 5.48027C14.9004 5.57158 14.8843 5.66898 14.8879 5.76665V9.58665H13.2449V7.88665C13.238 7.69864 13.1584 7.52065 13.0229 7.3901C12.8874 7.25955 12.7066 7.18661 12.5184 7.18661C12.3303 7.18661 12.1495 7.25955 12.014 7.3901C11.8785 7.52065 11.7989 7.69864 11.7919 7.88665V9.63665C11.0216 9.76646 10.316 10.1477 9.78522 10.7208C9.25444 11.2939 8.92837 12.0267 8.85793 12.8047H4.75493C4.65726 12.801 4.55986 12.8171 4.46855 12.852C4.37725 12.8869 4.29391 12.9398 4.22353 13.0076C4.15315 13.0755 4.09716 13.1568 4.05892 13.2467C4.02069 13.3367 4.00098 13.4334 4.00098 13.5312C4.00098 13.6289 4.02069 13.7256 4.05892 13.8156C4.09716 13.9055 4.15315 13.9868 4.22353 14.0547C4.29391 14.1225 4.37725 14.1754 4.46855 14.2103C4.55986 14.2452 4.65726 14.2613 4.75493 14.2577H8.84493V15.8997H7.18493C7.08726 15.896 6.98986 15.9121 6.89855 15.947C6.80725 15.9819 6.72391 16.0348 6.65353 16.1026C6.58315 16.1705 6.52716 16.2518 6.48892 16.3417C6.45069 16.4317 6.43098 16.5284 6.43098 16.6262C6.43098 16.7239 6.45069 16.8206 6.48892 16.9106C6.52716 17.0005 6.58315 17.0818 6.65353 17.1497C6.72391 17.2175 6.80725 17.2704 6.89855 17.3053C6.98986 17.3402 7.08726 17.3563 7.18493 17.3527H8.84493V18.9947H5.68193C5.58426 18.991 5.48686 19.0071 5.39555 19.042C5.30425 19.0769 5.22091 19.1298 5.15053 19.1976C5.08015 19.2655 5.02416 19.3468 4.98592 19.4367C4.94769 19.5267 4.92798 19.6234 4.92798 19.7212C4.92798 19.8189 4.94769 19.9156 4.98592 20.0056C5.02416 20.0955 5.08015 20.1768 5.15053 20.2447C5.22091 20.3125 5.30425 20.3654 5.39555 20.4003C5.48686 20.4352 5.58426 20.4513 5.68193 20.4477H8.85793C8.92837 21.2256 9.25444 21.9584 9.78522 22.5315C10.316 23.1046 11.0216 23.4858 11.7919 23.6157V24.7457C11.7883 24.8433 11.8044 24.9407 11.8393 25.032C11.8742 25.1233 11.9271 25.2067 11.9949 25.2771C12.0627 25.3474 12.1441 25.4034 12.234 25.4417C12.324 25.4799 12.4207 25.4996 12.5184 25.4996C12.6162 25.4996 12.7129 25.4799 12.8029 25.4417C12.8928 25.4034 12.9741 25.3474 13.0419 25.2771C13.1098 25.2067 13.1627 25.1233 13.1976 25.032C13.2325 24.9407 13.2486 24.8433 13.2449 24.7457V23.6647H14.8869V26.9557C14.8939 27.1437 14.9735 27.3217 15.109 27.4522C15.2445 27.5828 15.4253 27.6557 15.6134 27.6557C15.8016 27.6557 15.9824 27.5828 16.1179 27.4522C16.2534 27.3217 16.333 27.1437 16.3399 26.9557V23.6647H17.9819V25.3647C17.9783 25.4623 17.9944 25.5597 18.0293 25.651C18.0642 25.7423 18.1171 25.8257 18.1849 25.8961C18.2527 25.9664 18.3341 26.0224 18.424 26.0607C18.514 26.0989 18.6107 26.1186 18.7084 26.1186C18.8062 26.1186 18.9029 26.0989 18.9929 26.0607C19.0828 26.0224 19.1641 25.9664 19.2319 25.8961C19.2998 25.8257 19.3527 25.7423 19.3876 25.651C19.4225 25.5597 19.4386 25.4623 19.4349 25.3647V23.6167C20.2052 23.4868 20.9109 23.1056 21.4416 22.5325C21.9724 21.9594 22.2985 21.2266 22.3689 20.4487H27.1799C27.2776 20.4523 27.375 20.4362 27.4663 20.4013C27.5576 20.3664 27.641 20.3135 27.7113 20.2457C27.7817 20.1778 27.8377 20.0965 27.8759 20.0066C27.9142 19.9166 27.9339 19.8199 27.9339 19.7222C27.9339 19.6244 27.9142 19.5277 27.8759 19.4377C27.8377 19.3478 27.7817 19.2665 27.7113 19.1986C27.641 19.1308 27.5576 19.0779 27.4663 19.043C27.375 19.0081 27.2776 18.992 27.1799 18.9957H22.3849V17.3537H24.0439V17.3527ZM21.2239 20.1347C21.2234 20.7631 20.9735 21.3656 20.5292 21.8099C20.0848 22.2543 19.4823 22.5041 18.8539 22.5047H12.3739C11.7455 22.5041 11.143 22.2543 10.6987 21.8099C10.2543 21.3656 10.0045 20.7631 10.0039 20.1347V13.1167C10.0045 12.4883 10.2543 11.8857 10.6987 11.4414C11.143 10.997 11.7455 10.7472 12.3739 10.7467H18.8539C19.4823 10.7472 20.0848 10.997 20.5292 11.4414C20.9735 11.8857 21.2234 12.4883 21.2239 13.1167V20.1337V20.1347Z" fill="white"/>
<path d="M13.6356 12.0138C13.3549 12.0093 13.0742 12.0189 12.7946 12.0428C12.3526 12.0928 12.0276 12.4928 12.0136 12.9268C11.9916 13.9108 12.0096 14.8968 12.0036 15.8808C12.0176 16.3828 11.9696 16.8908 12.0436 17.3878C12.1146 17.8318 12.5486 18.1178 12.9796 18.1168C14.3196 18.1258 15.6596 18.1198 16.9996 18.1208V18.6758H12.6846L12.1296 20.3408H16.4236C16.9256 20.3268 17.4326 20.3748 17.9306 20.3018C18.3746 20.2308 18.6596 19.7968 18.6586 19.3658C18.6686 17.6128 18.6606 15.8598 18.6636 14.1058C18.6476 13.6358 18.7046 13.1568 18.6096 12.6928C18.5086 12.2198 18.0016 11.9868 17.5536 12.0158H14.4776C14.1976 12.0208 13.9156 12.0148 13.6346 12.0128L13.6356 12.0138ZM13.6686 13.6808H16.9986V16.4558H13.6686V13.6808Z" fill="white"/>
</g>
<defs>
<clipPath id="clip0_1_5498">
<rect width="32" height="32" fill="white" transform="translate(0.000976562 0.0126953)"/>
</clipPath>
</defs>
</svg>
