<svg width="32" height="33" viewBox="0 0 32 33" fill="none" xmlns="http://www.w3.org/2000/svg">
<g clip-path="url(#clip0_1_6358)">
<path d="M16.001 32.0127C24.8375 32.0127 32.001 24.8493 32.001 16.0127C32.001 7.17614 24.8375 0.0126953 16.001 0.0126953C7.16442 0.0126953 0.000976562 7.17614 0.000976562 16.0127C0.000976562 24.8493 7.16442 32.0127 16.001 32.0127Z" fill="#005396"/>
<path d="M12.3072 4.59094C13.3463 4.25627 14.4264 4.0655 15.5172 4.02394C17.0142 3.95594 18.5192 4.19894 19.9342 4.68194C22.2413 5.49627 24.2454 6.99452 25.6792 8.97694C26.0092 9.41694 26.2872 9.88994 26.5552 10.3699C26.8662 10.9779 27.1472 11.6039 27.3592 12.2529C27.6392 13.1439 27.8492 14.0669 27.9142 15.0019C27.9482 15.2039 27.9262 15.4099 27.9542 15.6119C27.9642 15.8649 27.9602 16.1179 27.9542 16.3729C27.9262 16.5759 27.9482 16.7819 27.9142 16.9839C27.8542 17.8259 27.6802 18.6579 27.4402 19.4679C27.238 20.137 26.9769 20.7869 26.6602 21.4099C25.4806 23.7263 23.5826 25.5984 21.2502 26.7459C20.5998 27.0703 19.9188 27.3292 19.2172 27.5189C18.0422 27.8559 16.8172 27.9989 15.5992 27.9649C15.3962 27.9369 15.1872 27.9589 14.9882 27.9249C14.0752 27.8619 13.1772 27.6629 12.3042 27.3909C10.5533 26.8226 8.9561 25.8601 7.63557 24.5776C6.31504 23.295 5.30638 21.7266 4.68723 19.9929C4.29723 18.8579 4.04723 17.6709 4.01723 16.4679C3.97623 15.8909 4.02022 15.3109 4.06722 14.7349C4.15422 13.8839 4.34723 13.0419 4.60923 12.2289C5.40522 9.84423 6.92774 7.7685 8.96323 6.29294C9.40323 5.96294 9.87622 5.68294 10.3562 5.41694C10.9814 5.08561 11.6342 4.80923 12.3072 4.59094ZM14.6172 8.92094V11.7229C14.6112 11.7729 14.6572 11.8009 14.6822 11.8349C15.1122 12.2869 15.5462 12.7349 15.9762 13.1879C15.9731 11.7656 15.9731 10.3433 15.9762 8.92094C15.5242 8.92094 15.0692 8.91794 14.6162 8.92094H14.6172ZM8.70722 10.3709C8.81023 10.4389 8.88523 10.5379 8.97223 10.6229C9.89823 11.5579 10.8272 12.4899 11.7492 13.4309C12.5942 14.2849 13.4422 15.1359 14.2832 15.9899C13.2642 17.0339 12.2262 18.0599 11.2102 19.1039C10.3972 19.9239 9.58322 20.7439 8.77322 21.5629C8.75181 21.5804 8.7298 21.597 8.70722 21.6129C9.90422 21.6129 11.1042 21.6159 12.3042 21.6069C13.5292 20.3249 14.7602 19.0469 15.9822 17.7629C17.2072 19.0439 18.4352 20.3249 19.6602 21.6069C20.8572 21.6159 22.0542 21.6099 23.2502 21.6129C23.0672 21.4659 22.9232 21.2829 22.7522 21.1229C21.8952 20.2569 21.0322 19.3899 20.1772 18.5209C19.3482 17.6759 18.5042 16.8439 17.6812 15.9929C17.8812 15.7929 18.0672 15.5849 18.2732 15.3879C19.8412 13.8079 21.4032 12.2219 22.9702 10.6409C23.0642 10.5509 23.1422 10.4449 23.2502 10.3709C22.0502 10.3709 20.8542 10.3669 19.6572 10.3729C18.4322 11.6539 17.2042 12.9329 15.9792 14.2129C14.7572 12.9289 13.5262 11.6509 12.3012 10.3729C11.1042 10.3699 9.90422 10.3699 8.70722 10.3699V10.3709ZM15.9852 18.7859C15.9852 20.2129 15.9882 21.6379 15.9822 23.0659C16.4372 23.0619 16.8922 23.0659 17.3442 23.0659V20.2599C17.3461 20.2449 17.3443 20.2297 17.3389 20.2156C17.3335 20.2014 17.3247 20.1889 17.3132 20.1789C17.0832 19.9289 16.8392 19.6959 16.6122 19.4469C16.4062 19.2219 16.1852 19.0169 15.9852 18.7859Z" fill="white"/>
</g>
<defs>
<clipPath id="clip0_1_6358">
<rect width="32" height="32" fill="white" transform="translate(0.000976562 0.0126953)"/>
</clipPath>
</defs>
</svg>
