<svg width="32" height="33" viewBox="0 0 32 33" fill="none" xmlns="http://www.w3.org/2000/svg">
<g clip-path="url(#clip0_1_6350)">
<path d="M16.001 32.0127C24.8375 32.0127 32.001 24.8493 32.001 16.0127C32.001 7.17614 24.8375 0.0126953 16.001 0.0126953C7.16442 0.0126953 0.000976562 7.17614 0.000976562 16.0127C0.000976562 24.8493 7.16442 32.0127 16.001 32.0127Z" fill="#372D2C"/>
<path d="M10.4 18.0877L10.501 18.0127H10.467L10.001 18.4427C10.1108 18.3003 10.2465 18.1798 10.401 18.0877H10.4Z" fill="black"/>
<path d="M26.9512 13.3978C26.9017 13.3209 26.8248 13.2659 26.7362 13.2438C26.3907 13.1589 26.044 13.0789 25.6962 13.0038L25.7902 12.5398L25.8502 12.2478L25.8782 12.0998L25.9052 11.9398C25.9431 11.7024 25.9165 11.4593 25.8282 11.2358C25.7348 10.9975 25.5814 10.7874 25.3829 10.6258C25.1844 10.4643 24.9475 10.3568 24.6952 10.3138C24.6121 9.80969 24.4972 9.31136 24.3512 8.82177L24.3342 8.76177L21.8482 5.74177L21.7552 5.71477C21.6542 5.68777 19.4142 5.02577 16.3652 5.02477L16.3992 4.42277C16.6795 4.33054 16.9175 4.14108 17.0703 3.88863C17.2231 3.63619 17.2805 3.33741 17.2322 3.04632C17.1839 2.75522 17.033 2.49102 16.8069 2.30146C16.5807 2.11191 16.2943 2.0095 15.9992 2.01277C15.7047 2.01025 15.4189 2.11299 15.1935 2.30247C14.968 2.49195 14.8176 2.75572 14.7693 3.04627C14.7211 3.33682 14.7782 3.63504 14.9303 3.88722C15.0825 4.13941 15.3197 4.32897 15.5992 4.42177L15.6342 5.02677C12.5722 5.02977 10.3202 5.68777 10.2242 5.71977L10.1312 5.74677L7.6452 8.76677L7.62919 8.82677C7.48319 9.31677 7.36819 9.81377 7.28519 10.3168H7.27719L7.10119 10.3608C6.7725 10.4609 6.49017 10.6748 6.30475 10.9641C6.11934 11.2534 6.04292 11.5993 6.08919 11.9398L6.11619 12.0988L6.14419 12.2468L6.20419 12.5388L6.29819 13.0048C5.95319 13.0808 5.60819 13.1588 5.26419 13.2428C5.17546 13.2647 5.0985 13.3198 5.04919 13.3968C5.01472 13.4545 4.99809 13.5212 5.00139 13.5883C5.00469 13.6555 5.02778 13.7202 5.06775 13.7743C5.10773 13.8284 5.1628 13.8694 5.22604 13.8923C5.28929 13.9151 5.35788 13.9188 5.42319 13.9028C5.75919 13.8208 6.0952 13.7428 6.4322 13.6698L6.45719 13.7978C5.67185 16.2887 5.85248 18.9839 6.96319 21.3478C8.47119 24.5658 11.9412 28.0358 16.0012 28.0358C20.0602 28.0358 23.5312 24.5658 25.0432 21.3428C26.1503 18.9768 26.327 16.281 25.5382 13.7908L25.5622 13.6728C25.9002 13.7468 26.2382 13.8248 26.5752 13.9068C26.6405 13.9228 26.7091 13.9191 26.7723 13.8963C26.8356 13.8734 26.8907 13.8324 26.9306 13.7783C26.9706 13.7242 26.9937 13.6595 26.997 13.5923C27.0003 13.5252 26.9837 13.4585 26.9492 13.4008L26.9512 13.3978ZM15.1132 3.25577C15.114 2.99826 15.2158 2.75134 15.3969 2.56823C15.578 2.38511 15.8237 2.28044 16.0812 2.27677C16.6212 2.27677 16.6212 4.22977 16.0812 4.23477C15.8237 4.2311 15.578 4.12643 15.3969 3.94332C15.2158 3.7602 15.114 3.51329 15.1132 3.25577ZM15.7612 4.46577C15.8402 4.48077 15.9192 4.48877 15.9992 4.48877H16.0372L16.1132 6.59077C16.1623 6.65618 16.1862 6.73716 16.1803 6.81876C16.1744 6.90036 16.1392 6.97708 16.0812 7.03477C16.0494 7.06656 16.0117 7.09176 15.9702 7.10892C15.9286 7.12609 15.8841 7.13487 15.8392 7.13477C15.3332 7.13477 14.9262 6.98077 14.9262 6.79477C14.9262 6.62277 15.2682 6.47977 15.7162 6.45577L15.8392 6.45277H15.8732L15.7612 4.46577ZM8.1572 9.30277L8.44819 9.19877L8.9432 9.03377L9.59319 8.84177C9.8292 8.76977 10.0932 8.70377 10.3682 8.63177L11.2422 8.43477C11.5452 8.37477 11.8582 8.30777 12.1822 8.25277C12.5072 8.19777 12.8322 8.15377 13.1622 8.09877C13.4922 8.04377 13.8222 8.01677 14.1462 7.97877C14.4712 7.93877 14.7902 7.92277 15.1032 7.89577C15.2682 7.88077 15.4372 7.87377 15.5982 7.86777H15.6152L16.0002 11.2948L16.3902 7.83877H16.8082C17.0562 7.83877 17.2872 7.82777 17.4902 7.83877L18.0182 7.86077L18.4802 7.87677L18.0242 7.83277L17.4962 7.78277C17.2922 7.76177 17.0662 7.75577 16.8142 7.73977C16.545 7.71985 16.2752 7.70884 16.0052 7.70677H16.0012C15.7172 7.70677 15.4112 7.68977 15.0992 7.70077C14.7882 7.71177 14.4612 7.70677 14.1312 7.72877L13.1302 7.79477C12.7942 7.82177 12.4592 7.84977 12.1292 7.89377C11.7992 7.93777 11.4742 7.98677 11.1662 8.02577C10.8692 8.06277 10.5762 8.11977 10.3002 8.16877L9.8082 8.12977L10.7872 6.79377L15.6762 5.72777L15.7062 6.25777C15.0462 6.30977 14.5512 6.52877 14.5512 6.79177C14.5512 7.09177 15.2012 7.33577 16.0032 7.33577C16.8052 7.33577 17.4552 7.09277 17.4552 6.79177C17.4552 6.52877 16.9602 6.30977 16.3002 6.25777L16.3302 5.72977L21.1982 6.79277L22.1782 8.12877L20.8162 8.23877L20.7912 8.23577L20.8062 8.23977H20.7862L23.3932 9.53177C23.3932 9.53177 24.5172 13.1418 22.9682 16.2098C22.7914 16.5565 22.5857 16.8877 22.3532 17.1998C22.3532 17.1998 19.9472 18.3108 16.2482 18.5068L16.0012 17.4898C16.3036 17.4999 16.6049 17.4474 16.8862 17.3358L17.6562 17.0828C19.2202 16.6008 20.7862 16.1258 22.3532 15.6588L22.5072 15.6148L22.5572 15.4718L22.6072 15.3288L22.6452 15.1908L22.7162 14.9208C22.8422 14.3908 22.9322 13.8528 22.9862 13.3098L23.0302 12.7598L23.0402 12.4848V12.2048L23.0462 11.9188L23.0192 11.6328L22.9752 11.3468C22.9564 11.2538 22.9323 11.162 22.9032 11.0718L22.8592 10.9288L22.8092 10.7578L22.7742 10.7528L22.7602 10.7088L22.7102 10.5378L22.5132 10.5108C20.8894 10.3214 19.2576 10.2093 17.6232 10.1748L17.4532 10.1698L17.3812 10.3128L16.4852 12.0688L16.0012 12.0768L15.4712 12.0868L14.5112 10.3668L14.4612 10.2738L14.3612 10.2798C13.5482 10.3248 12.7362 10.3908 11.9252 10.4778C11.1171 10.5635 10.3121 10.6752 9.5112 10.8128H9.52719H9.51719L9.4832 10.9228C9.47426 10.9512 9.46626 10.9799 9.4592 11.0088C9.47519 10.9438 9.49419 10.8798 9.51419 10.8128C9.48259 10.9012 9.44586 10.9876 9.40419 11.0718C9.38619 11.1418 9.3662 11.2108 9.3532 11.2808L9.34319 11.3078L9.28319 11.5778L9.23919 11.8468L9.21119 12.1218C9.20119 12.3038 9.19519 12.4908 9.20119 12.6718L9.22219 13.2218C9.25919 13.7718 9.33219 14.3198 9.44219 14.8608L9.5022 15.1308L9.5802 15.4058L9.60219 15.4718L9.6792 15.4988L12.7922 16.5218C13.7082 16.8198 14.6232 17.1268 15.5362 17.4408C15.6142 17.4568 15.6932 17.4678 15.7732 17.4738L15.8282 17.4788H15.8442L15.8722 17.4848L15.9872 17.4898H16.0042L15.7502 18.5248C14.8424 18.5513 13.9338 18.5186 13.0302 18.4268C10.8082 18.1288 9.3462 17.5968 8.9662 17.4458C7.73299 14.915 7.44637 12.0265 8.15819 9.30277H8.1572ZM19.9572 10.8328L17.0162 16.3778L16.8192 16.7478L16.6762 16.7968C16.5049 16.8587 16.3252 16.8938 16.1432 16.9008C15.8643 16.9288 15.5826 16.895 15.3182 16.8018L15.2182 16.7638L15.3442 16.5288L18.4242 10.7288L18.5632 10.4658C19.0632 10.4878 19.5752 10.5268 20.0972 10.5708L19.9572 10.8328ZM20.8612 10.9228L21.0052 10.6508L21.4282 10.6898L21.8302 10.7338L21.8802 10.7388H21.9122L21.7642 11.0188L19.3242 15.6168L19.1242 15.9938L17.9802 16.3568L18.1772 15.9838L20.8612 10.9228ZM6.5112 12.1928L6.49519 12.0448L6.48419 11.9018C6.46907 11.6758 6.53233 11.4516 6.66331 11.2669C6.79429 11.0821 6.98497 10.9482 7.2032 10.8878C7.01084 12.5238 7.15374 14.1818 7.6232 15.7608L7.5782 15.7468C7.41578 15.6894 7.26826 15.5963 7.14645 15.4745C7.02463 15.3527 6.93161 15.2052 6.87419 15.0428C6.83051 14.9051 6.80299 14.7628 6.79219 14.6188L6.5442 12.4928L6.5112 12.1928ZM9.26519 23.6458L9.25019 23.6338L9.25719 23.6438C9.20142 23.6287 9.15002 23.6006 9.10719 23.5618C8.49024 22.7966 7.96593 21.9611 7.5452 21.0728C6.68146 19.23 6.41572 17.1631 6.78519 15.1618L6.78919 15.1718C6.87484 15.335 6.99541 15.4773 7.14233 15.5886C7.28924 15.6999 7.45889 15.7775 7.63919 15.8158C7.8522 16.5178 8.1282 17.1988 8.4642 17.8508L8.51419 17.9388L8.60719 17.9828C8.95919 18.1268 9.3182 18.2528 9.6832 18.3618H9.69219L9.66619 18.3698C9.58537 18.397 9.50564 18.4273 9.42719 18.4608C9.36123 18.4883 9.29588 18.5173 9.23119 18.5478L8.80719 18.7508L8.67019 18.8168L8.6532 18.9548C8.5337 20.0007 8.63801 21.0602 8.9592 22.0628C9.1142 22.5618 9.3322 23.0388 9.6082 23.4828L9.6132 23.4928L9.63019 23.5368C9.65419 23.6478 9.4402 23.6928 9.26519 23.6468V23.6458ZM13.0452 25.8578C12.271 25.5746 11.5633 25.1351 10.9662 24.5668C10.6257 24.2339 10.3351 23.8537 10.1032 23.4378C9.87288 23.0215 9.69551 22.5781 9.5752 22.1178C9.4572 21.6567 9.38518 21.1851 9.3602 20.7098C9.33037 20.2929 9.34344 19.874 9.39919 19.4598L9.6572 19.3568C9.92219 19.2698 10.1902 19.1928 10.4602 19.1268L10.8732 19.0438C11.2302 18.9838 11.5892 18.9408 11.9512 18.9168H11.9942L12.0102 18.9188C11.7012 19.761 11.5454 20.6517 11.5502 21.5488C11.5502 23.3388 12.1402 24.8618 13.0772 25.8768L13.0452 25.8578ZM17.3452 24.7148C16.9312 24.9491 16.4629 25.0705 15.9872 25.0668C15.4915 25.0691 15.0047 24.936 14.5792 24.6818C14.3772 24.4631 14.205 24.2187 14.0672 23.9548C14.3003 24.2252 14.5879 24.4434 14.9112 24.5951C15.2345 24.7467 15.5862 24.8283 15.9432 24.8347C16.3002 24.841 16.6546 24.7719 16.983 24.6318C17.3115 24.4917 17.6066 24.2838 17.8492 24.0218C17.7123 24.2742 17.5428 24.5075 17.3452 24.7158V24.7148ZM15.9872 24.2968C15.7297 24.298 15.4745 24.2484 15.2362 24.1509C14.9979 24.0535 14.7811 23.91 14.5983 23.7287C14.4154 23.5474 14.2701 23.3319 14.1705 23.0945C14.071 22.857 14.0192 22.6022 14.0182 22.3448V22.3378C14.0178 21.9505 14.1322 21.5717 14.3469 21.2494C14.5615 20.927 14.8669 20.6755 15.2245 20.5265C15.582 20.3776 15.9756 20.3379 16.3557 20.4125C16.7357 20.4871 17.0852 20.6726 17.3599 20.9456C17.6346 21.2187 17.8222 21.567 17.8992 21.9466C17.9761 22.3262 17.9388 22.72 17.792 23.0785C17.6453 23.4369 17.3956 23.7438 17.0746 23.9605C16.7535 24.1771 16.3755 24.2938 15.9882 24.2958V24.2968H15.9872ZM18.4752 21.9578C18.3745 21.3628 18.0639 20.8236 17.5997 20.438C17.1355 20.0525 16.5485 19.846 15.9451 19.8562C15.3417 19.8664 14.762 20.0924 14.3111 20.4934C13.8601 20.8944 13.5678 21.4437 13.4872 22.0418C13.4574 21.8152 13.4391 21.5872 13.4322 21.3588C13.6334 20.8454 13.9855 20.405 14.4419 20.0957C14.8984 19.7863 15.4378 19.6225 15.9892 19.6258H15.9992C16.5397 19.6245 17.0685 19.7838 17.5184 20.0834C17.9682 20.383 18.319 20.8095 18.5262 21.3088C18.5194 21.5261 18.5024 21.743 18.4752 21.9588V21.9578ZM18.9072 25.8888H18.9172L18.8972 25.8958C19.8472 24.8798 20.4472 23.3468 20.4472 21.5428C20.4526 20.6455 20.2964 19.7547 19.9862 18.9128H20.0002C21.4152 19.1168 22.1522 19.8428 22.1522 19.8428C22.1522 19.8428 22.3022 23.9888 18.9092 25.8888H18.9072ZM25.3702 16.9488V17.1628C25.3702 17.2118 25.3662 17.2598 25.3652 17.3078C25.3618 17.4172 25.3558 17.5266 25.3472 17.6358C25.3472 17.6698 25.3412 17.7048 25.3382 17.7388C25.3322 17.8098 25.3262 17.8818 25.3182 17.9518C25.3182 17.9678 25.3152 17.9838 25.3132 17.9998C25.3056 18.0685 25.2973 18.1372 25.2882 18.2058V18.2158L25.2602 18.4138V18.4208C25.1017 19.4524 24.7782 20.4519 24.3022 21.3808L24.2682 21.4468C24.2332 21.5138 24.1982 21.5818 24.1612 21.6488C23.7985 22.3253 23.3733 22.9664 22.8912 23.5638C22.8506 23.6025 22.8012 23.6306 22.7472 23.6458L22.7532 23.6358L22.7382 23.6478C22.5652 23.6978 22.3442 23.6548 22.3682 23.5378L22.3852 23.4938L22.3952 23.4838C22.6682 23.0378 22.8852 22.5618 23.0402 22.0638C23.3559 21.0621 23.4588 20.0055 23.3422 18.9618L23.3262 18.8248L23.1882 18.7588C23.0452 18.6868 22.9082 18.6158 22.7652 18.5548L22.3302 18.3788L22.2912 18.3648L22.3012 18.3618C22.6642 18.2548 23.0212 18.1268 23.3702 17.9808L23.4632 17.9368L23.5132 17.8488C23.8482 17.1968 24.1232 16.5168 24.3352 15.8168C24.7102 15.7398 25.0302 15.4998 25.2082 15.1618C25.3132 15.7238 25.3682 16.2948 25.3732 16.8668C25.3714 16.8941 25.3704 16.9214 25.3702 16.9488Z" fill="white"/>
<path d="M9.19298 11.2927L9.42398 11.0127H9.50098H9.38598C9.26998 11.1827 9.12798 11.3457 9.00098 11.5127C9.07398 11.4387 9.13098 11.3697 9.19298 11.2927Z" fill="black"/>
<path d="M16.4866 6.0127C16.9706 6.1397 17.2896 6.3707 17.2896 6.6397C17.2896 6.9097 16.9656 7.1397 16.4866 7.2667C17.1466 7.2067 17.6416 6.9477 17.6416 6.6397C17.6416 6.3317 17.1466 6.0707 16.4866 6.0127ZM14.8956 8.4847C14.9623 8.4847 15.0263 8.45849 15.0738 8.41172C15.1213 8.36495 15.1486 8.30136 15.1496 8.2347C15.1496 8.20122 15.143 8.16808 15.1301 8.13718C15.1173 8.10628 15.0984 8.07825 15.0746 8.0547C15.0509 8.03139 15.0228 8.01316 14.9918 8.00113C14.9609 7.98909 14.9278 7.9835 14.8946 7.9847C14.829 7.98549 14.7664 8.01224 14.7205 8.0591C14.6746 8.10595 14.6491 8.16909 14.6496 8.2347C14.6496 8.3727 14.7596 8.4847 14.8956 8.4847ZM8.25061 9.3267C8.20099 9.32716 8.15262 9.34227 8.11155 9.37011C8.07048 9.39796 8.03855 9.43731 8.01976 9.48323C8.00096 9.52915 7.99614 9.57959 8.0059 9.62824C8.01566 9.67689 8.03956 9.72158 8.07461 9.7567C8.12161 9.8037 8.18461 9.8287 8.25061 9.8267C8.30022 9.82623 8.34859 9.81113 8.38966 9.78328C8.43073 9.75543 8.46266 9.71608 8.48146 9.67016C8.50025 9.62424 8.50507 9.5738 8.49531 9.52515C8.48556 9.4765 8.46166 9.43182 8.42661 9.3967C8.40366 9.37355 8.37619 9.35539 8.3459 9.34335C8.31562 9.3313 8.28318 9.32564 8.25061 9.3267ZM8.94361 17.3997C8.99322 17.3992 9.04159 17.3841 9.08266 17.3563C9.12373 17.3284 9.15566 17.2891 9.17446 17.2432C9.19325 17.1972 9.19807 17.1468 9.18831 17.0981C9.17856 17.0495 9.15466 17.0048 9.11961 16.9697C9.09666 16.9466 9.06919 16.9284 9.0389 16.9163C9.00862 16.9043 8.97618 16.8986 8.94361 16.8997C8.87746 16.9002 8.81418 16.9267 8.76741 16.9735C8.72064 17.0203 8.69413 17.0836 8.69361 17.1497C8.69861 17.2897 8.80861 17.3997 8.94361 17.3997ZM15.0156 18.3567C15.0652 18.3562 15.1136 18.3411 15.1547 18.3133C15.1957 18.2854 15.2277 18.2461 15.2465 18.2002C15.2653 18.1542 15.2701 18.1038 15.2603 18.0552C15.2506 18.0065 15.2267 17.9618 15.1916 17.9267C15.1687 17.9036 15.1412 17.8854 15.1109 17.8733C15.0806 17.8613 15.0482 17.8556 15.0156 17.8567C14.9488 17.858 14.8853 17.8854 14.8385 17.9331C14.7918 17.9808 14.7656 18.0449 14.7656 18.1117C14.77 18.1761 14.7978 18.2366 14.8439 18.2818C14.89 18.327 14.9511 18.3537 15.0156 18.3567ZM16.3806 8.4897C16.4473 8.4897 16.5113 8.46349 16.5588 8.41672C16.6063 8.36995 16.6336 8.30637 16.6346 8.2397C16.6346 8.20622 16.628 8.17308 16.6151 8.14218C16.6023 8.11128 16.5834 8.08325 16.5596 8.0597C16.5359 8.03639 16.5078 8.01816 16.4768 8.00613C16.4459 7.99409 16.4128 7.9885 16.3796 7.9897C16.314 7.99049 16.2514 8.01724 16.2055 8.06409C16.1596 8.11095 16.1341 8.17409 16.1346 8.2397C16.1346 8.3787 16.2446 8.4897 16.3806 8.4897ZM16.2586 17.8627C16.1926 17.8637 16.1296 17.8904 16.083 17.9371C16.0363 17.9837 16.0096 18.0467 16.0086 18.1127C16.0186 18.2497 16.1256 18.3577 16.2586 18.3627C16.3082 18.3622 16.3566 18.3471 16.3977 18.3193C16.4387 18.2914 16.4707 18.2521 16.4895 18.2062C16.5083 18.1602 16.5131 18.1098 16.5033 18.0611C16.4936 18.0125 16.4697 17.9678 16.4346 17.9327C16.4117 17.9096 16.3842 17.8914 16.3539 17.8793C16.3236 17.8673 16.2912 17.8616 16.2586 17.8627ZM9.48161 19.5457C9.43803 19.5425 9.39446 19.5518 9.35589 19.5723C9.31732 19.5928 9.28534 19.6238 9.26361 19.6617C9.24052 19.7006 9.22784 19.7447 9.22679 19.7899C9.22573 19.8351 9.23635 19.8798 9.25761 19.9197C9.30161 19.9997 9.38361 20.0487 9.47161 20.0447H9.48161C9.54704 20.0434 9.60935 20.0165 9.65516 19.9697C9.70097 19.923 9.72662 19.8601 9.72661 19.7947C9.7273 19.7311 9.7037 19.6695 9.66061 19.6227C9.63762 19.598 9.60974 19.5784 9.57874 19.5652C9.54774 19.5519 9.51432 19.5453 9.48061 19.5457H9.48161ZM10.9906 19.0947C10.958 19.095 10.9258 19.1016 10.8959 19.1143C10.8659 19.127 10.8387 19.1455 10.8158 19.1687C10.793 19.192 10.7749 19.2194 10.7627 19.2496C10.7505 19.2798 10.7443 19.3121 10.7446 19.3447C10.7446 19.4827 10.8546 19.5947 10.9906 19.5947C11.0573 19.5947 11.1213 19.5685 11.1688 19.5217C11.2163 19.4749 11.2436 19.4114 11.2446 19.3447C11.2446 19.3112 11.238 19.2781 11.2251 19.2472C11.2123 19.2163 11.1934 19.1882 11.1696 19.1647C11.1459 19.1414 11.1178 19.1232 11.0868 19.1111C11.0559 19.0991 11.0228 19.0935 10.9896 19.0947H10.9906ZM20.2866 19.0947C20.2538 19.0959 20.2215 19.1036 20.1917 19.1174C20.1618 19.1311 20.1349 19.1505 20.1126 19.1746C20.0903 19.1987 20.0729 19.227 20.0615 19.2578C20.0501 19.2886 20.0449 19.3214 20.0461 19.3542C20.0474 19.387 20.0551 19.4193 20.0688 19.4491C20.0825 19.479 20.102 19.5059 20.126 19.5282C20.1501 19.5505 20.1784 19.5679 20.2092 19.5793C20.24 19.5907 20.2728 19.5959 20.3056 19.5947C20.3719 19.592 20.4344 19.5632 20.4795 19.5144C20.5245 19.4656 20.5483 19.401 20.5456 19.3347C20.543 19.2684 20.5141 19.2059 20.4653 19.1608C20.4166 19.1158 20.3519 19.092 20.2856 19.0947H20.2866Z" fill="white"/>
</g>
<defs>
<clipPath id="clip0_1_6350">
<rect width="32" height="32" fill="white" transform="translate(0.000976562 0.0126953)"/>
</clipPath>
</defs>
</svg>
