<svg width="32" height="33" viewBox="0 0 32 33" fill="none" xmlns="http://www.w3.org/2000/svg">
<g clip-path="url(#clip0_1_6346)">
<path d="M16 32.0142C24.8366 32.0142 32 24.8507 32 16.0142C32 7.1776 24.8366 0.0141602 16 0.0141602C7.16344 0.0141602 0 7.1776 0 16.0142C0 24.8507 7.16344 32.0142 16 32.0142Z" fill="#00A6C4"/>
<path d="M24.2771 10.5142L24.4771 10.8452C25.4744 12.5199 26.0006 14.433 26.0001 16.3822C25.9821 22.2502 21.2851 27.0142 15.5001 27.0142H15.4821C9.69705 27.0142 4.98205 22.2132 5.00005 16.3452C5.00005 14.3772 5.54405 12.4642 6.54105 10.8082L6.72305 10.4962L7.68405 11.4712C7.49357 11.7496 7.34121 12.0523 7.23105 12.3712C6.86464 13.3865 6.91446 14.5055 7.36965 15.4843C7.82484 16.463 8.64849 17.2221 9.66105 17.5962C10.2563 17.8082 10.8932 17.877 11.52 17.7971C12.1468 17.7172 12.746 17.4907 13.2691 17.1362L15.5001 19.4172L18.0571 16.8232C18.2931 16.9892 18.5651 17.1182 18.8551 17.2282C20.9051 17.9642 23.1531 16.8782 23.8781 14.8182C24.3131 13.6042 24.1141 12.3352 23.4791 11.3232L24.2771 10.5142ZM8.86305 12.6662L11.8731 15.7012C11.5101 15.9962 11.0571 16.1612 10.5671 16.1612C9.38905 16.1612 8.42705 15.1862 8.42705 13.9912C8.42705 13.4942 8.59105 13.0342 8.86305 12.6662ZM19.3631 15.5172L22.3371 12.5012C22.5731 12.8512 22.6991 13.2732 22.6991 13.7152C22.6991 14.9102 21.7391 15.8852 20.5591 15.8852C20.1061 15.8852 19.7071 15.7562 19.3631 15.5172ZM15.5361 17.7982L6.86805 8.96816L7.21205 8.60116C9.35205 6.30116 12.2721 5.01416 15.4101 5.01416H15.4281C18.6021 5.01416 21.6481 6.39416 23.7701 8.78416L24.0971 9.15316L15.5371 17.7982H15.5361ZM8.28205 8.96816L15.5361 16.3452L22.7001 9.11616C20.7781 7.16616 18.1671 6.04416 15.4471 6.04416H15.4281C12.7261 6.04416 10.2061 7.07416 8.28305 8.96916L8.28205 8.96816Z" fill="white"/>
</g>
<defs>
<clipPath id="clip0_1_6346">
<rect width="32" height="32" fill="white" transform="translate(0 0.0141602)"/>
</clipPath>
</defs>
</svg>
