<svg width="32" height="33" viewBox="0 0 32 33" fill="none" xmlns="http://www.w3.org/2000/svg">
<g clip-path="url(#clip0_1_5932)">
<path d="M16 32.0142C24.8366 32.0142 32 24.8507 32 16.0142C32 7.1776 24.8366 0.0141602 16 0.0141602C7.16344 0.0141602 0 7.1776 0 16.0142C0 24.8507 7.16344 32.0142 16 32.0142Z" fill="#001D57"/>
<path d="M19.9991 5.01416L21.2021 6.21816L18.9251 8.55816C19.4051 9.28816 19.6631 10.1492 19.6631 11.0372C19.6712 12.2055 19.2193 13.3302 18.4051 14.1682C17.8105 14.7962 17.036 15.2245 16.1881 15.3942V17.4332C17.0318 17.6074 17.8033 18.0327 18.4011 18.6532C19.2177 19.4919 19.6711 20.6185 19.6631 21.7892C19.6709 22.9594 19.2175 24.0857 18.4011 24.9242C18.0031 25.3364 17.5262 25.6642 16.9987 25.8879C16.4712 26.1116 15.904 26.2266 15.3311 26.2262C14.7579 26.2279 14.1903 26.1134 13.6627 25.8896C13.135 25.6659 12.6582 25.3374 12.2611 24.9242C11.4471 24.0842 10.9944 22.9588 11.0001 21.7892C11.0001 20.6092 11.4481 19.4902 12.2581 18.6572C12.8527 18.0295 13.6272 17.6016 14.4751 17.4322V15.3922C13.6313 15.2178 12.8599 14.7926 12.2621 14.1722C11.4475 13.3321 10.9944 12.2063 11.0001 11.0362C11.0001 9.85616 11.4481 8.73716 12.2621 7.90116C12.6599 7.48874 13.1368 7.16079 13.6643 6.9369C14.1918 6.71302 14.759 6.59781 15.3321 6.59816C16.1921 6.59816 17.0191 6.86016 17.7271 7.34716L20.0001 5.01416H19.9991ZM15.3321 19.0712C14.9849 19.0684 14.6409 19.1371 14.3214 19.273C14.0019 19.4089 13.7138 19.6091 13.4751 19.8612C12.9746 20.3778 12.6964 21.0699 12.7001 21.7892C12.7001 22.5142 12.9751 23.1912 13.4751 23.7162C13.7156 23.9659 14.004 24.1645 14.3231 24.3003C14.6422 24.436 14.9853 24.506 15.3321 24.5062C15.6791 24.5088 16.0229 24.44 16.3422 24.3041C16.6615 24.1682 16.9494 23.9681 17.1881 23.7162C17.6883 23.1998 17.9664 22.5081 17.9631 21.7892C17.9631 21.0642 17.6881 20.3872 17.1851 19.8582C16.9466 19.607 16.6591 19.4075 16.3403 19.2722C16.0215 19.1368 15.6784 19.0684 15.3321 19.0712ZM17.1851 12.9812C17.6871 12.4641 17.9664 11.7708 17.9631 11.0502C17.9676 10.6935 17.9015 10.3395 17.7685 10.0086C17.6354 9.6777 17.4382 9.37641 17.1881 9.12216C16.9477 8.87248 16.6594 8.67384 16.3405 8.5381C16.0216 8.40236 15.6786 8.33232 15.3321 8.33216C14.9849 8.32938 14.6409 8.39808 14.3214 8.53399C14.0019 8.6699 13.7138 8.87011 13.4751 9.12216C12.9746 9.6388 12.6964 10.3309 12.7001 11.0502C12.7001 11.7752 12.9751 12.4522 13.4751 12.9772C13.7156 13.2269 14.004 13.4255 14.3231 13.5613C14.6422 13.697 14.9853 13.767 15.3321 13.7672C16.0431 13.7672 16.6991 13.4912 17.1851 12.9812Z" fill="white"/>
</g>
<defs>
<clipPath id="clip0_1_5932">
<rect width="32" height="32" fill="white" transform="translate(0 0.0141602)"/>
</clipPath>
</defs>
</svg>
