<svg width="32" height="33" viewBox="0 0 32 33" fill="none" xmlns="http://www.w3.org/2000/svg">
<g clip-path="url(#clip0_1_4673)">
<path d="M16 32.0142C24.8366 32.0142 32 24.8507 32 16.0142C32 7.1776 24.8366 0.0141602 16 0.0141602C7.16344 0.0141602 0 7.1776 0 16.0142C0 24.8507 7.16344 32.0142 16 32.0142Z" fill="#F1B32B"/>
<path d="M15.75 4.01416C9.26 4.01416 4 9.27416 4 15.7642C4 22.2542 9.26 27.5142 15.75 27.5142C22.24 27.5142 27.5 22.2542 27.5 15.7642C27.5 12.6479 26.2621 9.65921 24.0585 7.45566C21.855 5.2521 18.8663 4.01416 15.75 4.01416ZM15.75 24.5842C13.4108 24.5842 11.1674 23.6549 9.51332 22.0008C7.85925 20.3468 6.93 18.1034 6.93 15.7642C6.93 13.425 7.85925 11.1815 9.51332 9.52748C11.1674 7.87341 13.4108 6.94416 15.75 6.94416C18.0892 6.94416 20.3326 7.87341 21.9867 9.52748C23.6408 11.1815 24.57 13.425 24.57 15.7642C24.57 18.1034 23.6408 20.3468 21.9867 22.0008C20.3326 23.6549 18.0892 24.5842 15.75 24.5842ZM12.82 15.7742L15.76 20.1742L18.68 15.7742L15.76 11.3642L12.82 15.7742Z" fill="white"/>
</g>
<defs>
<clipPath id="clip0_1_4673">
<rect width="32" height="32" fill="white" transform="translate(0 0.0141602)"/>
</clipPath>
</defs>
</svg>
