<svg width="32" height="33" viewBox="0 0 32 33" fill="none" xmlns="http://www.w3.org/2000/svg">
<g clip-path="url(#clip0_1_4669)">
<path d="M16 32.0142C24.8366 32.0142 32 24.8507 32 16.0142C32 7.1776 24.8366 0.0141602 16 0.0141602C7.16344 0.0141602 0 7.1776 0 16.0142C0 24.8507 7.16344 32.0142 16 32.0142Z" fill="#5411B3"/>
<path fill-rule="evenodd" clip-rule="evenodd" d="M16.553 5.01416C17.083 5.33316 17.609 5.65916 18.143 5.97016C20.678 7.44016 23.213 8.90816 25.751 10.3722C25.918 10.4682 25.992 10.5752 25.992 10.7802C25.987 14.2722 25.988 17.7642 26 21.2562C26 21.4842 25.896 21.5792 25.73 21.6752C22.713 23.4212 19.698 25.1702 16.683 26.9192C16.637 26.9462 16.596 26.9822 16.553 27.0142H16.443C15.533 26.4782 14.623 25.9372 13.71 25.4062C11.556 24.1552 9.40001 22.9062 7.24201 21.6632C7.05901 21.5582 6.99901 21.4382 7.00001 21.2282C7.01001 17.7642 7.01201 14.3002 7.00501 10.8352C7.00501 10.5872 7.09001 10.4622 7.29401 10.3452C10.283 8.62116 13.267 6.89116 16.252 5.16116C16.321 5.12116 16.38 5.06316 16.443 5.01416H16.553ZM19.359 22.4942C19.772 22.7772 20.176 23.0742 20.592 23.3742C20.615 23.3642 20.649 23.3502 20.68 23.3332C22.03 22.5522 23.383 21.7732 24.729 20.9832C24.809 20.9362 24.879 20.7982 24.879 20.7032C24.886 17.5772 24.885 14.4522 24.876 11.3272C24.8715 11.2728 24.8552 11.22 24.8282 11.1725C24.8013 11.125 24.7644 11.084 24.72 11.0522C23.39 10.2702 22.053 9.50216 20.722 8.72316C20.584 8.64316 20.507 8.66716 20.39 8.75816C20.067 9.01116 16.891 10.9512 15.647 11.6982C14.675 12.2802 13.725 12.8942 12.973 13.7682C11.936 14.9732 11.839 16.6432 12.746 17.9532C13.195 18.6032 13.794 19.0972 14.436 19.5362C14.948 19.8852 15.476 20.2092 15.996 20.5442C15.982 20.5642 15.974 20.5842 15.96 20.5922C15.274 20.9902 14.59 21.3922 13.896 21.7792C13.829 21.8162 13.69 21.7792 13.614 21.7312C12.8767 21.2553 12.2004 20.6912 11.6 20.0512C9.87001 18.2372 9.51801 15.2642 10.78 13.0952C11.3613 12.0946 12.1697 11.2447 13.14 10.6142C14.4 9.79016 17.91 7.70716 18.375 7.42216C18.335 7.37016 18.324 7.34216 18.303 7.32916C17.751 7.00716 17.203 6.67916 16.643 6.37216C16.561 6.32716 16.412 6.34416 16.323 6.39016C16.015 6.54916 15.72 6.73216 15.421 6.90716C15.157 7.06116 14.894 7.21716 14.591 7.39616L16.029 8.30016C15.294 8.73416 14.599 9.15016 13.896 9.55316C13.84 9.58516 13.72 9.56016 13.659 9.51816C13.3109 9.28386 12.9713 9.03704 12.641 8.77816C12.496 8.66316 12.4 8.65216 12.238 8.74716C10.9302 9.51193 9.61887 10.2706 8.30401 11.0232C8.15901 11.1062 8.11201 11.2032 8.11201 11.3712C8.11701 14.4692 8.11601 17.5672 8.11101 20.6642C8.11101 20.8302 8.15401 20.9282 8.30301 21.0142C9.60901 21.7622 10.911 22.5182 12.21 23.2792C12.354 23.3642 12.45 23.3602 12.595 23.2632C13.527 22.6402 17.791 19.9672 18.976 19.2302C19.177 19.1052 19.346 18.9262 19.528 18.7722L19.498 18.7022H15.072C15.522 17.9202 15.942 17.1822 16.377 16.4532C16.417 16.3872 16.564 16.3592 16.662 16.3592C18.669 16.3542 20.677 16.3562 22.684 16.3562C22.764 16.3562 22.844 16.3652 22.941 16.3702C22.946 16.4652 22.968 16.5502 22.95 16.6242C22.818 17.1732 22.73 17.7402 22.53 18.2642C22.056 19.5102 21.177 20.4682 20.106 21.2062C18.936 22.0112 15.211 24.2062 14.579 24.5832C14.609 24.6362 14.613 24.6582 14.626 24.6662C15.011 24.8932 15.424 25.0832 15.775 25.3552C16.28 25.7452 16.72 25.7432 17.225 25.3552C17.589 25.0762 18.015 24.8792 18.456 24.6202L16.992 23.7052C17.032 23.6702 17.055 23.6422 17.084 23.6252C17.754 23.2362 18.424 22.8452 19.1 22.4652C19.164 22.4302 19.294 22.4492 19.359 22.4942ZM22.253 13.1572C22.598 13.7692 22.855 14.5562 22.893 15.1632C22.215 15.1632 21.561 15.1672 20.906 15.1582C20.846 15.1572 20.752 15.0882 20.733 15.0302C20.413 14.0422 19.73 13.3402 18.923 12.7502C18.35 12.3312 17.74 11.9622 17.147 11.5702C17.097 11.5382 17.048 11.5032 16.967 11.4472C17.102 11.3662 17.207 11.3012 17.315 11.2382C17.867 10.9182 18.415 10.5912 18.975 10.2832C19.075 10.2272 19.255 10.1932 19.336 10.2462C20.506 11.0152 21.551 11.9132 22.253 13.1572Z" fill="white"/>
</g>
<defs>
<clipPath id="clip0_1_4669">
<rect width="32" height="32" fill="white" transform="translate(0 0.0141602)"/>
</clipPath>
</defs>
</svg>
