<svg width="32" height="33" viewBox="0 0 32 33" fill="none" xmlns="http://www.w3.org/2000/svg">
<g clip-path="url(#clip0_1_5091)">
<path d="M16 32.0142C24.8366 32.0142 32 24.8507 32 16.0142C32 7.1776 24.8366 0.0141602 16 0.0141602C7.16344 0.0141602 0 7.1776 0 16.0142C0 24.8507 7.16344 32.0142 16 32.0142Z" fill="#FFF300"/>
<path d="M22.505 9.18216C22.165 8.42116 21.85 6.91716 20.98 6.58216C19.86 6.15216 19.169 8.97016 19.004 9.68216H18.837C18.555 8.46216 18.177 6.73216 16.837 6.34816C16.217 8.95316 17.485 11.7622 18.671 14.0172C19.937 13.4112 20.554 11.5172 20.671 10.1822H20.838L22.172 14.1832C23.245 13.8752 23.618 12.8132 24.005 11.8492C24.837 9.78116 25.535 7.23716 25.005 5.01416C23.405 5.46816 22.917 7.75716 22.505 9.18216ZM6.501 14.5172C7.933 13.8332 8.615 11.6672 8.835 10.1822H9.001C9.171 10.8982 9.624 12.7442 10.518 12.8622C11.658 13.0132 12.255 10.4852 12.335 9.68216H12.502C12.865 10.9372 13.248 12.5702 14.502 13.1832C14.966 11.2392 14.412 9.16616 13.701 7.34816C13.518 6.88116 13.143 5.62016 12.498 5.62016C11.442 5.62016 10.848 8.40416 10.668 9.18216H10.502L9.168 5.18116C6.822 6.30116 5.548 12.2582 6.501 14.5172ZM4 16.5172C5.74 24.1112 13.771 28.4172 21.005 25.2092C23.6277 24.0438 25.7343 21.9606 26.929 19.3512C27.24 18.6772 27.851 17.4562 27.495 16.5712C27.14 15.6892 23.7 17.1292 22.84 17.5062C22.7806 17.5324 22.7288 17.5732 22.6893 17.6248C22.6498 17.6763 22.6239 17.737 22.614 17.8012C22.6 17.8927 22.605 17.9862 22.6288 18.0757C22.6526 18.1652 22.6946 18.2488 22.7523 18.3213C22.8099 18.3938 22.882 18.4536 22.9638 18.497C23.0457 18.5403 23.1356 18.5662 23.228 18.5732L24.672 18.6852C22.057 23.7472 14.986 25.9852 10.002 21.9412C8.886 21.0362 7.891 19.9612 7.221 18.6852C6.897 18.0682 6.596 17.2792 6.046 16.8552C5.516 16.4492 4.714 16.3092 4 16.5172Z" fill="white"/>
</g>
<defs>
<clipPath id="clip0_1_5091">
<rect width="32" height="32" fill="white" transform="translate(0 0.0141602)"/>
</clipPath>
</defs>
</svg>
