<svg width="32" height="33" viewBox="0 0 32 33" fill="none" xmlns="http://www.w3.org/2000/svg">
<g clip-path="url(#clip0_1_5620)">
<path d="M16 32.0142C24.8366 32.0142 32 24.8507 32 16.0142C32 7.1776 24.8366 0.0141602 16 0.0141602C7.16344 0.0141602 0 7.1776 0 16.0142C0 24.8507 7.16344 32.0142 16 32.0142Z" fill="#377E96"/>
<path fill-rule="evenodd" clip-rule="evenodd" d="M23.625 30.0842L23.709 30.0222C23.477 29.5972 23.101 29.3742 22.678 29.2732C22.074 29.1292 21.46 28.9962 20.844 28.9532C19.475 28.8542 18.102 28.8312 16.732 28.7482C15.206 28.6552 13.682 28.5262 12.155 28.4262C12.022 28.4162 11.831 28.4662 11.755 28.5612C11.355 29.0512 10.968 29.5552 10.608 30.0752C10.432 30.3302 10.323 30.6302 10.186 30.9052L10.291 30.9652C9.68908 30.7353 9.10166 30.4692 8.532 30.1682C8.636 30.1882 8.772 30.1722 8.823 30.1212C9.449 29.4942 10.055 28.8472 10.664 28.2072C10.209 27.8432 9.764 27.5202 9.359 27.1542C8.981 26.8122 8.823 26.3592 8.856 25.8402C8.906 25.0432 9.255 24.3642 9.768 23.7942C10.375 23.1212 11.056 22.5142 11.706 21.8802C11.786 21.8032 11.869 21.7322 11.943 21.6642C11.918 21.6202 11.915 21.6072 11.908 21.6022L11.718 21.4922C9.63 20.2882 8.589 18.4592 8.562 16.0722C8.538 14.0282 9.408 12.3732 10.947 11.0662C12.447 9.79317 14.214 9.34617 16.153 9.39017C17.588 9.42317 18.929 9.74017 20.178 10.4532C20.248 10.4932 20.424 10.4462 20.488 10.3792C21.079 9.76017 21.678 9.14717 22.232 8.49417C22.92 7.68417 23.502 6.80417 23.743 5.74217C23.931 4.91417 23.851 4.13617 23.251 3.49017C22.37 2.54117 20.854 2.66917 20.081 3.75017C19.929 3.96217 19.841 4.22017 19.692 4.43717C19.637 4.51717 19.497 4.54017 19.395 4.59017C19.371 4.50017 19.315 4.40717 19.328 4.32417C19.362 4.09617 19.406 3.86417 19.481 3.64817C19.861 2.55817 20.567 1.81417 21.751 1.64817C22.136 1.59417 22.536 1.63917 22.938 1.63917C22.918 1.61217 22.91 1.58917 22.894 1.58217C22.8196 1.54208 22.7439 1.50439 22.667 1.46917C21.9123 1.12439 21.1328 0.836914 20.335 0.609167C21.8333 1.02984 23.2619 1.66796 24.575 2.50317C24.583 2.59017 24.578 2.61317 24.588 2.62517C25.471 3.71417 25.358 4.86917 24.802 6.04517C24.33 7.04017 23.642 7.88217 22.899 8.68417C22.219 9.41817 21.535 10.1492 20.85 10.8842C20.878 10.9022 20.894 10.9222 20.91 10.9222C21.957 10.9232 23.004 10.9382 24.05 10.9162C24.596 10.9062 25.081 10.7252 25.418 10.2422C25.482 10.1492 25.656 10.1322 25.78 10.0802L25.85 10.1772C25.56 11.0132 25.274 11.8502 24.968 12.6792C24.942 12.7492 24.788 12.8062 24.69 12.8102C24.32 12.8262 23.95 12.8172 23.58 12.8172H22.25L22.401 13.1172C23.121 14.5272 23.312 16.0222 22.948 17.5472C22.411 19.7972 20.939 21.2512 18.798 22.0072C17.05 22.6252 15.256 22.6032 13.461 22.1742C13.302 22.1362 13.056 22.1042 12.971 22.1892C12.585 22.5752 12.177 22.9642 11.899 23.4262C11.326 24.3782 11.659 25.0402 12.751 25.2702L12.782 25.2742C13.854 25.3572 14.925 25.4592 15.998 25.5182C17.516 25.6012 19.036 25.6342 20.553 25.7252C21.472 25.7802 22.379 25.9422 23.207 26.3812C24.273 26.9442 25.028 27.7742 25.359 28.9872C25.437 28.9322 25.515 28.8772 25.593 28.8202C24.97 29.2872 24.313 29.7102 23.623 30.0842H23.625ZM18.775 31.7742C17.8044 31.944 16.8203 32.0243 15.835 32.0142C16.8195 32.0045 17.802 31.9243 18.775 31.7742ZM32 16.0642V16.0142C32 14.6342 31.825 13.2952 31.497 12.0182C31.8237 13.3426 31.9926 14.701 32 16.0652V16.0642ZM28.28 5.75917C27.3527 4.64961 26.28 3.67012 25.091 2.84717C26.308 3.72717 27.374 4.69717 28.281 5.75917H28.28ZM8.306 30.0442C7.51672 29.6105 6.76539 29.1111 6.06 28.5512C6.773 29.0922 7.551 29.5562 8.306 30.0442ZM2.06306e-06 16.0452C0.00196388 15.1928 0.067815 14.3417 0.197002 13.4992C0.0641618 14.341 -0.00171139 15.192 2.06306e-06 16.0442V16.0452ZM2.916 6.80217C3.54362 5.9291 4.2499 5.11536 5.026 4.37117C4.24321 5.1086 3.53634 5.92268 2.916 6.80117V6.80217ZM11.133 0.768167C12.7101 0.281834 14.3497 0.0278341 16 0.0141669C14.3485 0.0126465 12.7067 0.266996 11.133 0.768167ZM19.566 16.6702L19.506 16.6552C19.471 16.1712 19.452 15.6852 19.4 15.2032C19.282 14.0872 18.965 13.0332 18.35 12.0832C17.44 10.6752 15.92 10.1072 14.462 10.6712C13.265 11.1332 12.63 12.0832 12.344 13.2942C12.072 14.4402 12.094 15.6012 12.232 16.7572C12.365 17.8572 12.679 18.9042 13.312 19.8352C14.126 21.0302 15.261 21.5522 16.672 21.3162C18.012 21.0942 18.854 20.2272 19.197 18.9382C19.394 18.2022 19.448 17.4282 19.567 16.6702H19.566Z" fill="white"/>
</g>
<defs>
<clipPath id="clip0_1_5620">
<rect width="32" height="32.0009" fill="white" transform="translate(0 0.0141602)"/>
</clipPath>
</defs>
</svg>
