<svg width="32" height="33" viewBox="0 0 32 33" fill="none" xmlns="http://www.w3.org/2000/svg">
<g clip-path="url(#clip0_1_5087)">
<path d="M16.0005 32.0142C24.837 32.0142 32.0005 24.8507 32.0005 16.0142C32.0005 7.1776 24.837 0.0141602 16.0005 0.0141602C7.16393 0.0141602 0.000488281 7.1776 0.000488281 16.0142C0.000488281 24.8507 7.16393 32.0142 16.0005 32.0142Z" fill="#FF0060"/>
<path d="M25.0705 12.0612H15.9225C15.2142 12.0601 14.5191 12.2531 13.9128 12.6192C13.3064 12.9854 12.812 13.5107 12.4833 14.1381C12.1545 14.7655 12.0039 15.471 12.0479 16.178C12.092 16.8849 12.3288 17.5663 12.7329 18.1481C13.1369 18.7299 13.6927 19.1898 14.3397 19.478C14.9868 19.7661 15.7005 19.8714 16.4032 19.7825C17.1059 19.6935 17.7708 19.4137 18.3257 18.9734C18.8805 18.5332 19.3042 17.9493 19.5505 17.2852H15.9225C15.7881 17.2853 15.655 17.2589 15.5309 17.2076C15.4067 17.1562 15.2939 17.0808 15.1988 16.9858C15.1038 16.8908 15.0285 16.778 14.9771 16.6538C14.9257 16.5296 14.8994 16.3965 14.8995 16.2622V16.1382C14.8994 16.0038 14.9257 15.8707 14.9771 15.7465C15.0285 15.6223 15.1038 15.5095 15.1988 15.4145C15.2939 15.3195 15.4067 15.2441 15.5309 15.1928C15.655 15.1414 15.7881 15.115 15.9225 15.1152H21.9695C22.0135 15.3972 22.0345 15.6822 22.0315 15.9672C22.0256 17.1741 21.6623 18.3523 20.9874 19.3529C20.3125 20.3536 19.3564 21.1319 18.2396 21.5897C17.1228 22.0475 15.8955 22.1642 14.7124 21.9251C13.5294 21.686 12.4437 21.1018 11.5923 20.2463C10.7409 19.3907 10.1621 18.3022 9.92878 17.118C9.69548 15.9338 9.8182 14.707 10.2814 13.5925C10.7447 12.4779 11.5277 11.5256 12.5317 10.8557C13.5356 10.1857 14.7155 9.82817 15.9225 9.82816L16.1095 9.79716C16.1485 9.81516 16.1895 9.82516 16.2335 9.82816H21.6595C24.6205 9.82816 25.8295 8.24716 25.8295 6.01416H15.9225C10.4505 6.01416 6.0105 10.4472 6.0005 15.9212C5.9925 21.3952 10.4185 25.8412 15.8925 25.8592C21.3665 25.8762 25.8195 21.4572 25.8455 15.9832V12.8512C25.8475 12.7481 25.8289 12.6457 25.7909 12.55C25.7528 12.4542 25.696 12.367 25.6239 12.2934C25.5517 12.2199 25.4656 12.1614 25.3706 12.1216C25.2756 12.0817 25.1735 12.0611 25.0705 12.0612Z" fill="white"/>
</g>
<defs>
<clipPath id="clip0_1_5087">
<rect width="32" height="32" fill="white" transform="translate(0.000488281 0.0141602)"/>
</clipPath>
</defs>
</svg>
