<svg width="32" height="33" viewBox="0 0 32 33" fill="none" xmlns="http://www.w3.org/2000/svg">
<g clip-path="url(#clip0_1_5494)">
<path d="M16.0005 32.0142C24.837 32.0142 32.0005 24.8507 32.0005 16.0142C32.0005 7.1776 24.837 0.0141602 16.0005 0.0141602C7.16393 0.0141602 0.000488281 7.1776 0.000488281 16.0142C0.000488281 24.8507 7.16393 32.0142 16.0005 32.0142Z" fill="#7F27FF"/>
<path d="M15.3765 14.0141H8.02049V21.2361C8.01249 21.9751 8.30849 22.6861 8.84049 23.2081C9.37249 23.7301 10.0975 24.0211 10.8505 24.0141H15.3775L15.3765 14.0141ZM15.5465 10.2351H16.3385C17.1225 8.88515 17.8405 7.96715 18.5155 7.47115C19.3475 6.85815 20.1995 6.85315 20.8675 7.50915C21.4915 8.12115 21.6085 8.88915 21.1975 9.62915C21.0815 9.83515 20.9275 10.0371 20.7345 10.2351H23.6425C24.3215 10.2351 25.0005 10.7931 25.0005 11.5681C25.0005 12.2351 24.4315 12.9021 23.6425 12.9021H16.5085V11.1241H15.3765V12.9021H8.35849C7.68049 12.9021 7.00049 12.3441 7.00049 11.5681C7.00049 10.9021 7.56949 10.2351 8.35849 10.2351H11.2985C11.1145 10.0637 10.9508 9.87181 10.8105 9.66315C10.3235 8.91915 10.3825 8.13315 11.0175 7.50915C11.6855 6.85315 12.5375 6.85915 13.3705 7.47115C14.0445 7.96715 14.7625 8.88615 15.5475 10.2351H15.5465ZM14.2315 10.2351C13.6515 9.31215 13.1335 8.68515 12.6915 8.36015C12.2825 8.06015 12.0585 8.05815 11.8175 8.29415C11.5705 8.53715 11.5555 8.74515 11.7625 9.06115C11.9985 9.42215 12.4955 9.82915 13.2115 10.2351H14.2315ZM17.6535 10.2351H18.8735C19.5565 9.84315 20.0075 9.44715 20.2035 9.09515C20.3735 8.79115 20.3375 8.56015 20.0675 8.29515C19.8265 8.05815 19.6025 8.05915 19.1945 8.36015C18.7515 8.68515 18.2325 9.31215 17.6545 10.2351H17.6535ZM16.5085 14.0131H23.8655V21.2361C23.8686 21.6031 23.7976 21.967 23.6567 22.3058C23.5158 22.6447 23.3079 22.9516 23.0455 23.2081C22.5088 23.7327 21.7859 24.0226 21.0355 24.0141H16.5085V14.0131Z" fill="white"/>
</g>
<defs>
<clipPath id="clip0_1_5494">
<rect width="32" height="32" fill="white" transform="translate(0.000488281 0.0141602)"/>
</clipPath>
</defs>
</svg>
