<svg width="32" height="33" viewBox="0 0 32 33" fill="none" xmlns="http://www.w3.org/2000/svg">
<g clip-path="url(#clip0_1_5490)">
<path d="M16.0005 32.0142C24.837 32.0142 32.0005 24.8507 32.0005 16.0142C32.0005 7.1776 24.837 0.0141602 16.0005 0.0141602C7.16393 0.0141602 0.000488281 7.1776 0.000488281 16.0142C0.000488281 24.8507 7.16393 32.0142 16.0005 32.0142Z" fill="#37DCD8"/>
<path d="M15.9905 12.6932L13.2065 9.88916C14.0417 8.53085 14.9756 7.2357 16.0005 6.01416C17.0237 7.23046 17.9562 8.52026 18.7905 9.87316L15.9905 12.6932ZM21.7085 15.5032C22.4945 17.7052 23.6475 19.9072 22.5485 22.0212C21.8492 23.3548 20.7649 24.4471 19.4365 25.1562C15.8175 27.0762 11.3375 25.6662 9.43148 22.0212C8.32148 19.9072 9.61448 17.5312 10.4015 15.3302C11.1225 13.7072 11.8515 12.2112 12.6795 10.7732L15.9895 14.1072L19.3185 10.7552C20.1935 12.2692 20.9495 13.8272 21.7085 15.5042V15.5032Z" fill="white"/>
</g>
<defs>
<clipPath id="clip0_1_5490">
<rect width="32" height="32" fill="white" transform="translate(0.000488281 0.0141602)"/>
</clipPath>
</defs>
</svg>
