<svg width="32" height="33" viewBox="0 0 32 33" fill="none" xmlns="http://www.w3.org/2000/svg">
<g clip-path="url(#clip0_1_5486)">
<path d="M16.0005 32.0142C24.837 32.0142 32.0005 24.8507 32.0005 16.0142C32.0005 7.1776 24.837 0.0141602 16.0005 0.0141602C7.16393 0.0141602 0.000488281 7.1776 0.000488281 16.0142C0.000488281 24.8507 7.16393 32.0142 16.0005 32.0142Z" fill="#00DCFA"/>
<path d="M19.3785 5.01416C15.5085 5.01416 12.2215 7.99016 11.8085 11.8212C7.97549 12.2352 5.00049 15.5222 5.00049 19.3912C5.00155 21.4124 5.80489 23.3506 7.23403 24.7799C8.66317 26.2092 10.6012 27.0128 12.6225 27.0142C16.4925 27.0142 19.7925 24.0382 20.1925 20.2072C24.0245 19.7932 27.0005 16.5062 27.0005 12.6372C26.9994 10.6159 26.1961 8.67774 24.7669 7.24841C23.3378 5.81908 21.3997 5.01548 19.3785 5.01416ZM25.2145 13.4902C25.0242 14.7402 24.4393 15.8967 23.5452 16.7908C22.6511 17.685 21.4946 18.2699 20.2445 18.4602V13.4902H25.2145ZM6.78649 18.5382C6.97424 17.2857 7.55802 16.1263 8.45234 15.2296C9.34666 14.333 10.5046 13.7462 11.7565 13.5552V18.5252H6.78649V18.5382ZM18.4595 20.2582C18.253 21.6583 17.5497 22.9375 16.478 23.8619C15.4063 24.7864 14.0378 25.2944 12.6225 25.2932C11.2074 25.2944 9.83918 24.7865 8.76768 23.8622C7.69618 22.938 6.99296 21.6591 6.78649 20.2592H18.4595V20.2582ZM18.5245 13.4902V18.5252H13.4765V13.4902H18.5245ZM25.2145 11.7702H13.5415C13.748 10.37 14.4513 9.09084 15.523 8.1664C16.5947 7.24196 17.9632 6.73394 19.3785 6.73516C20.7935 6.73394 22.1618 7.24185 23.2333 8.16611C24.3048 9.09036 25.008 10.3693 25.2145 11.7692V11.7702Z" fill="white"/>
</g>
<defs>
<clipPath id="clip0_1_5486">
<rect width="32" height="32" fill="white" transform="translate(0.000488281 0.0141602)"/>
</clipPath>
</defs>
</svg>
