<svg width="32" height="33" viewBox="0 0 32 33" fill="none" xmlns="http://www.w3.org/2000/svg">
<g clip-path="url(#clip0_1_5482)">
<path d="M16.0005 32.0142C24.837 32.0142 32.0005 24.8507 32.0005 16.0142C32.0005 7.1776 24.837 0.0141602 16.0005 0.0141602C7.16393 0.0141602 0.000488281 7.1776 0.000488281 16.0142C0.000488281 24.8507 7.16393 32.0142 16.0005 32.0142Z" fill="#16B9AD"/>
<path d="M26.0005 13.2072C26.0005 18.6152 21.5135 23.0142 16.0005 23.0142C10.4875 23.0142 6.00049 18.6142 6.00049 13.2092C6.00049 12.8112 6.02449 12.4122 6.07449 12.0162H7.87049C7.81049 12.4112 7.78049 12.8102 7.78049 13.2092C7.78049 17.6542 11.4685 21.2712 16.0015 21.2712C20.3275 21.2712 23.8835 17.9792 24.2015 13.8162H11.4805C11.7505 15.7602 13.2835 17.3042 15.2575 17.6232C17.2325 17.9412 19.1875 16.9592 20.0795 15.2032H22.0045C21.1295 17.7252 18.7145 19.4212 15.9985 19.4232C12.5025 19.4232 9.65749 16.6342 9.65749 13.2072C9.65749 12.8072 9.69749 12.4072 9.77449 12.0142H25.9265C25.9765 12.4102 26.0005 12.8082 26.0005 13.2072Z" fill="white"/>
</g>
<defs>
<clipPath id="clip0_1_5482">
<rect width="32" height="32" fill="white" transform="translate(0.000488281 0.0141602)"/>
</clipPath>
</defs>
</svg>
