<svg width="32" height="33" viewBox="0 0 32 33" fill="none" xmlns="http://www.w3.org/2000/svg">
<g clip-path="url(#clip0_1_5944)">
<path d="M16.0005 32.0142C24.837 32.0142 32.0005 24.8507 32.0005 16.0142C32.0005 7.1776 24.837 0.0141602 16.0005 0.0141602C7.16393 0.0141602 0.000488281 7.1776 0.000488281 16.0142C0.000488281 24.8507 7.16393 32.0142 16.0005 32.0142Z" fill="#35A5F3"/>
<path d="M7.02049 7.04117C8.29049 5.71417 10.6105 5.66117 11.9215 6.95117C13.2915 8.29117 14.6475 9.64317 15.9895 11.0082C17.4175 9.65117 18.7535 8.20317 20.1875 6.85217C21.5515 5.62017 23.8715 5.76917 25.0825 7.14917C26.3245 8.45117 26.3045 10.7222 25.0155 11.9862C23.6885 13.3372 22.3445 14.6682 21.0055 16.0082C22.3735 17.4172 23.7985 18.7712 25.1555 20.1982C26.3715 21.5312 26.2555 23.8032 24.9365 25.0282C23.6395 26.3382 21.3135 26.3422 20.0185 25.0262C18.6715 23.7042 17.3535 22.3502 16.0155 21.0222C14.5875 22.3962 13.2255 23.8382 11.7825 25.1982C10.4005 26.4242 8.07049 26.2412 6.88049 24.8342C5.68049 23.5352 5.71049 21.3222 6.96049 20.0642C8.13531 18.8614 9.32406 17.6723 10.5265 16.4972L12.0335 18.0022C10.8575 19.2162 9.62049 20.3782 8.46249 21.6102C7.68149 22.4102 8.36949 23.9022 9.46649 23.8842C10.1315 23.9432 10.5905 23.3922 11.0225 22.9762C12.1695 21.8082 13.3335 20.6612 14.4805 19.4932C11.9805 16.9712 9.44049 14.4842 6.95249 11.9512C5.65449 10.6432 5.69549 8.31117 7.02249 7.04117H7.02049ZM8.47349 10.4312C9.79649 11.8112 11.1705 13.1422 12.5175 14.4992C13.1675 13.8412 13.8215 13.1872 14.4795 12.5362C13.1765 11.2232 11.8785 9.90117 10.5575 8.60617C10.1365 8.15117 9.41649 7.98217 8.86749 8.30817C8.10349 8.67817 7.86249 9.81417 8.47249 10.4312H8.47349ZM21.4135 8.64117C18.9275 11.0812 16.4915 13.5732 14.0185 16.0252C14.6855 16.6722 15.3505 17.3212 16.0015 17.9852C16.5005 17.4932 16.9965 16.9952 17.4935 16.4972C17.9955 16.9982 18.4945 17.5022 19.0005 18.0002C18.5095 18.5002 18.0155 18.9962 17.5165 19.4902C18.8575 20.8392 20.1725 22.2132 21.5575 23.5182C22.2605 24.2582 23.6245 23.8092 23.8275 22.8342C24.0455 22.1442 23.5495 21.5472 23.0815 21.1132C20.8781 18.9203 18.6794 16.7226 16.4855 14.5202C16.9878 14.0192 17.4882 13.5162 17.9865 13.0112C18.4865 13.5092 18.9855 14.0072 19.4965 14.4972C20.8115 13.1342 22.2055 11.8472 23.5005 10.4632C24.1535 9.82917 23.8925 8.61417 23.0585 8.27117C22.4985 7.98217 21.8155 8.18617 21.4125 8.64117H21.4135Z" fill="white"/>
</g>
<defs>
<clipPath id="clip0_1_5944">
<rect width="32" height="32" fill="white" transform="translate(0.000488281 0.0141602)"/>
</clipPath>
</defs>
</svg>
