<svg width="32" height="33" viewBox="0 0 32 33" fill="none" xmlns="http://www.w3.org/2000/svg">
<g clip-path="url(#clip0_1_5936)">
<path d="M16.0005 32.0142C24.837 32.0142 32.0005 24.8507 32.0005 16.0142C32.0005 7.1776 24.837 0.0141602 16.0005 0.0141602C7.16393 0.0141602 0.000488281 7.1776 0.000488281 16.0142C0.000488281 24.8507 7.16393 32.0142 16.0005 32.0142Z" fill="#56C9E9"/>
<path d="M23.6831 9.45582C22.9291 9.17782 21.2631 9.59382 21.1831 9.71282C21.5011 9.77282 21.6001 9.81282 22.0761 9.89182C22.5861 9.98482 23.0761 10.1658 23.5241 10.4278C24.0001 10.7048 24.1981 10.3278 24.1981 10.3278C24.2781 10.1498 24.0601 9.59382 23.6831 9.45582ZM10.1361 6.16282C10.0143 5.97054 9.88174 5.78525 9.73914 5.60782C9.36214 5.21082 8.62914 5.01282 8.23114 5.21082C8.01314 5.31082 7.91414 5.44882 8.09314 5.68682C8.31014 5.90182 8.58614 6.04682 8.88614 6.10382C9.06414 6.14382 9.85814 6.32182 10.0561 6.36082C10.2561 6.36082 10.1361 6.16282 10.1361 6.16282ZM10.9291 8.16582C10.9133 8.1304 10.8848 8.10221 10.8491 8.08682C10.3598 8.14845 9.86391 8.04385 9.44114 7.78982C9.34547 7.72228 9.23124 7.68602 9.11414 7.68602C8.99704 7.68602 8.88281 7.72228 8.78714 7.78982C8.52914 8.00782 8.90614 8.26582 8.92614 8.26582C9.08414 8.36482 9.26314 8.32582 9.42214 8.36482C9.81047 8.47732 10.2092 8.55036 10.6121 8.58282C10.9491 8.58282 11.0281 8.46282 10.9291 8.16582ZM24.0601 7.43282C24.1001 7.31282 24.0601 6.91682 23.3451 7.01582C22.7501 7.11582 22.3341 7.27382 22.3541 7.35282C22.3741 7.43282 23.0281 7.55182 23.1671 7.57082C23.7221 7.67082 24.0401 7.51082 24.0601 7.43282ZM16.8401 4.11982C16.7707 4.05549 16.6805 4.01813 16.5858 4.01446C16.4912 4.01079 16.3984 4.04106 16.3241 4.09982C15.7291 4.47682 16.1651 5.76582 16.2241 5.76582C16.2841 5.76582 16.3441 5.30982 16.9391 4.63582C16.9673 4.59567 16.9872 4.55025 16.9974 4.50227C17.0077 4.45429 17.0081 4.40473 16.9988 4.35656C16.9895 4.3084 16.9705 4.26261 16.9431 4.22193C16.9157 4.18125 16.8803 4.14652 16.8391 4.11982H16.8401ZM14.9491 7.95082C14.8991 7.90082 14.9491 7.90082 14.9491 7.95082V7.95082Z" fill="white"/>
<path d="M14.3476 6.93811C13.9706 6.74011 14.2876 5.76811 14.1496 5.41111C14.1366 5.35607 14.1102 5.30511 14.0727 5.26277C14.0352 5.22042 13.9878 5.188 13.9347 5.1684C13.8817 5.1488 13.8246 5.14263 13.7686 5.15043C13.7126 5.15823 13.6593 5.17976 13.6136 5.21311C13.5622 5.23406 13.5159 5.26604 13.4781 5.3068C13.4404 5.34757 13.412 5.39612 13.395 5.44904C13.3781 5.50196 13.3729 5.55796 13.3799 5.61309C13.3869 5.66821 13.406 5.72113 13.4356 5.76811C13.5156 5.92711 13.9906 6.83911 13.6136 6.99811C13.4746 7.05811 13.1776 6.93811 12.9796 6.81911C12.2656 6.50211 12.1466 5.41111 11.9276 5.27211C11.8264 5.1974 11.703 5.15877 11.5772 5.1624C11.4514 5.16602 11.3305 5.21169 11.2336 5.29211C11.136 5.34713 11.0619 5.43604 11.0254 5.54201C10.989 5.64797 10.9926 5.76364 11.0356 5.86711C11.1346 6.04611 11.5116 6.14511 11.5906 6.76011L11.8286 6.93811C11.9486 7.03811 12.0666 7.13711 12.2056 7.23611C12.5626 7.59311 12.4836 7.65311 13.2176 7.53411C13.4556 7.45411 13.4156 7.13711 13.6536 7.05811C13.8016 7.03855 13.9522 7.05892 14.0896 7.11711C14.3086 7.23311 14.4926 7.40411 14.6256 7.61311C14.9426 7.99011 15.0816 8.46611 15.3596 8.88311C15.4556 9.05711 15.5756 9.21711 15.7166 9.35811L16.0136 9.59611C16.4306 9.87411 16.8076 9.85411 17.1046 9.53611C17.1855 9.47831 17.2536 9.40457 17.3049 9.31944C17.3561 9.23431 17.3894 9.13959 17.4026 9.04111C17.5608 8.56306 17.7616 8.10019 18.0026 7.65811C18.0047 7.6563 18.0071 7.65493 18.0096 7.65407C18.0122 7.65321 18.0149 7.65288 18.0176 7.65311C18.0186 7.64281 18.0231 7.63315 18.0304 7.62583C18.0377 7.61852 18.0473 7.61401 18.0577 7.61311C18.1127 7.57442 18.1784 7.55367 18.2456 7.55367C18.3129 7.55367 18.3786 7.57442 18.4336 7.61311C18.4936 7.69311 18.3736 8.42611 18.4336 8.50511C18.4736 8.66511 18.7706 8.56511 19.0286 8.54511C19.0531 8.51463 19.0732 8.48099 19.0886 8.44511C19.5246 8.30711 19.9416 8.08911 20.3776 7.97011H20.6156C20.8586 7.93011 21.1056 7.93011 21.3496 7.97011C21.5876 7.97011 21.6666 8.10911 21.6466 8.32711C22.0436 8.30711 22.4406 8.30711 22.8366 8.26711C23.0156 8.24711 23.2936 8.24711 23.2736 7.91011C23.2336 7.71211 22.9166 7.15711 21.4686 7.49411C21.3296 7.53411 20.5366 7.77211 20.2586 7.63311C20.6817 7.35911 21.1186 7.10811 21.5676 6.87911C21.7656 6.72011 21.9246 6.50211 21.8056 6.26411C21.6866 6.02611 21.4486 6.04611 21.2306 6.12511C20.8197 6.2528 20.4455 6.47745 20.1396 6.78011C19.9386 6.98411 19.7196 7.17011 19.4846 7.33511C18.9096 7.61311 18.9096 7.61311 18.7706 7.57311C18.5926 7.49311 18.3936 7.35511 18.5326 7.15711C18.6136 7.02811 18.6736 6.88711 18.7116 6.74011C18.7716 6.48211 18.6916 6.40311 18.5127 6.40311C18.1557 6.42311 18.0367 6.93811 17.9777 7.01811C17.9397 7.09611 17.8927 7.16811 17.8387 7.23611C17.7926 7.28158 17.7348 7.31318 17.6716 7.32733C17.6085 7.34148 17.5427 7.33759 17.4816 7.31611C17.3626 7.29611 17.2636 7.23611 17.3626 7.07711C17.5416 6.80011 18.0967 6.36311 18.2557 5.78811C18.2557 5.78811 18.5326 5.03411 17.7596 5.01511C17.3426 4.99511 17.0056 5.29211 16.8866 5.74811C16.7676 6.22411 17.0256 6.87911 16.8866 7.19611C16.8366 7.33011 16.7696 7.45611 16.6886 7.57311C16.5551 7.69286 16.382 7.75909 16.2026 7.75909C16.0233 7.75909 15.8502 7.69286 15.7166 7.57311C15.6403 7.48411 15.5847 7.3793 15.5537 7.26621C15.5228 7.15312 15.5173 7.03458 15.5376 6.91911C15.6056 6.65766 15.6587 6.39257 15.6966 6.12511C15.7166 5.92711 15.3596 5.57011 15.0616 5.80811C14.9226 5.90811 14.9816 6.06611 15.0416 6.20511C15.1416 6.50211 15.3196 7.35511 14.3476 6.93811ZM14.9036 7.55311C14.8836 7.53311 14.9036 7.53311 14.9036 7.55311V7.55311Z" fill="white"/>
<path d="M16.0005 9.01849H17.3105C17.4285 8.99249 17.5455 9.08449 17.6275 9.26649C17.6335 9.36649 17.6095 9.46449 17.5675 9.51449C17.3503 9.41254 17.1134 9.35969 16.8735 9.35969C16.6336 9.35969 16.3966 9.41254 16.1795 9.51449H16.1195L16.0005 9.01849Z" fill="white"/>
<path d="M20.2985 8.52225C19.7932 8.66497 19.2966 8.83727 18.8115 9.03825C18.7683 9.05161 18.722 9.05108 18.6791 9.03673C18.6363 9.02237 18.599 8.99493 18.5725 8.95825C18.5529 8.91472 18.5427 8.86751 18.5427 8.81975C18.5427 8.772 18.5529 8.72479 18.5725 8.68125C18.5923 8.61674 18.5923 8.54777 18.5725 8.48325C18.5321 8.37481 18.4638 8.27893 18.3745 8.20525C18.3358 8.17318 18.2905 8.15008 18.2418 8.13763C18.1931 8.12518 18.1422 8.12368 18.0929 8.13325C18.0435 8.14281 17.9969 8.1632 17.9564 8.19294C17.9159 8.22268 17.8824 8.26104 17.8585 8.30525C17.5923 8.72147 17.3916 9.1761 17.2635 9.65325C17.2159 9.84441 17.1126 10.0171 16.9665 10.1493C16.6685 10.4073 16.3915 10.4273 15.9945 10.2093C15.884 10.129 15.7782 10.0425 15.6775 9.95025C15.5411 9.79851 15.4214 9.63256 15.3205 9.45525C15.1605 9.15725 15.0025 8.84025 14.8445 8.56225C14.6255 8.20525 14.4075 7.86825 14.0115 7.68925C13.8841 7.64307 13.7459 7.63611 13.6145 7.66925C13.5566 7.68047 13.5018 7.70405 13.4538 7.7384C13.4058 7.77274 13.3658 7.81703 13.3365 7.86825C13.2765 7.96725 12.4835 7.98725 12.2065 7.82825C12.0665 7.74825 11.6705 7.35225 11.5315 7.39225C11.4125 7.39225 11.3535 7.31225 11.2735 7.25325C11.0958 7.13113 10.8916 7.05303 10.6777 7.02538C10.4638 6.99774 10.2465 7.02134 10.0435 7.09425C9.95857 7.11427 9.88137 7.15876 9.82147 7.22221C9.76156 7.28567 9.72159 7.3653 9.70651 7.45125C9.70756 7.5429 9.7367 7.63201 9.78998 7.70658C9.84327 7.78114 9.91815 7.83757 10.0045 7.86825C10.2015 7.94225 10.3935 8.02825 10.5795 8.12625C10.6795 8.16625 10.8375 8.18625 10.8175 8.36425C10.8159 8.41141 10.8226 8.45848 10.8375 8.50325C10.8575 8.76025 10.6785 8.78025 10.5005 8.78025C10.2465 8.76002 9.99441 8.72023 9.74651 8.66125C9.47227 8.56879 9.18164 8.53506 8.89351 8.56225C8.81351 8.66225 8.71551 8.60225 8.61551 8.62225C8.25851 8.68225 7.98151 8.93925 8.00151 9.23625C8.02151 9.57425 8.29851 9.65325 8.57651 9.71225C9.25051 9.87225 9.92551 9.81225 10.5995 9.83225C11.4125 9.83225 11.8695 10.2283 11.9875 11.0423C12.0675 11.6363 13.8525 27.2663 13.8725 27.6033C13.8741 27.6721 13.8983 27.7385 13.9413 27.7924C13.9843 27.8462 14.0437 27.8844 14.1105 27.9013C14.7845 28.1063 15.4885 28.2013 16.1925 28.1793C16.9835 28.1993 17.7725 28.0993 18.5325 27.8813C18.6525 27.8413 18.7515 27.8013 18.7515 27.6433C18.7715 27.2273 19.9015 12.2913 19.9015 12.0533C19.8897 11.3586 20.1135 10.6804 20.5365 10.1293C20.8735 9.73225 21.2505 9.37525 21.5875 8.97925C21.6875 8.42325 20.9725 8.42325 20.2985 8.52225Z" fill="white"/>
</g>
<defs>
<clipPath id="clip0_1_5936">
<rect width="32" height="32" fill="white" transform="translate(0.000488281 0.0141602)"/>
</clipPath>
</defs>
</svg>
