<svg width="32" height="33" viewBox="0 0 32 33" fill="none" xmlns="http://www.w3.org/2000/svg">
<g clip-path="url(#clip0_1_5083)">
<path d="M16.001 32.0142C24.8375 32.0142 32.001 24.8507 32.001 16.0142C32.001 7.1776 24.8375 0.0141602 16.001 0.0141602C7.16442 0.0141602 0.000976562 7.1776 0.000976562 16.0142C0.000976562 24.8507 7.16442 32.0142 16.001 32.0142Z" fill="#117FC0"/>
<path d="M26.3374 10.1923L17.8824 24.1323H12.8404L16.7154 17.7353H12.8644L8.37444 25.1393C10.5148 26.8792 13.1929 27.8219 15.9512 27.8063C18.7094 27.7907 21.3767 26.8179 23.4973 25.0539C25.6178 23.2899 27.06 20.8443 27.5775 18.135C28.095 15.4256 27.6556 12.6207 26.3344 10.1993L26.3374 10.1923ZM18.9554 7.69034L15.2854 13.7303H19.1414L23.4154 6.68134C21.2751 4.94145 18.597 3.99876 15.8387 4.01435C13.0804 4.02994 10.4132 5.00283 8.29262 6.76681C6.17208 8.53078 4.72986 10.9764 4.21238 13.6857C3.6949 16.395 4.13428 19.2 5.45544 21.6213L13.9074 7.69134H18.9544L18.9554 7.69034Z" fill="white"/>
</g>
<defs>
<clipPath id="clip0_1_5083">
<rect width="32" height="32" fill="white" transform="translate(0.000976562 0.0141602)"/>
</clipPath>
</defs>
</svg>
