<svg width="32" height="33" viewBox="0 0 32 33" fill="none" xmlns="http://www.w3.org/2000/svg">
<g clip-path="url(#clip0_1_4677)">
<path d="M16.001 32.0142C24.8375 32.0142 32.001 24.8507 32.001 16.0142C32.001 7.1776 24.8375 0.0141602 16.001 0.0141602C7.16442 0.0141602 0.000976562 7.1776 0.000976562 16.0142C0.000976562 24.8507 7.16442 32.0142 16.001 32.0142Z" fill="#D59143"/>
<path d="M7.9588 16.4579C7.4408 16.8699 6.9788 17.6019 7.0018 18.7209C7.0188 19.4949 7.4348 20.0249 7.9588 20.3849V21.7669C7.9588 22.6309 8.3788 23.4399 9.0868 23.9349L13.9398 27.2539V10.2949L7.9588 12.0449V16.4579ZM9.2618 16.0499C10.2688 16.7869 10.2688 21.1659 10.2688 21.1659C10.2688 21.1659 9.1298 21.0559 8.1888 20.5299C8.9648 20.7909 9.5878 20.7329 9.8588 20.7629L9.8768 20.7639H9.8808L9.8948 20.7659L9.9328 20.7689L9.9458 20.7709H9.9588C9.9588 20.7709 10.1188 16.9489 8.9618 16.2789C8.7738 16.2139 8.4418 16.2519 8.0758 16.3689C8.5418 16.0549 9.0288 15.9489 9.2618 16.0499ZM14.3588 22.9539H17.6218V27.2599H14.3598V22.9549L14.3588 22.9539ZM13.6188 9.97391L7.9588 11.5959V5.52491C7.95865 5.42406 7.98841 5.32542 8.04432 5.24147C8.10022 5.15753 8.17976 5.09204 8.27288 5.05329C8.36599 5.01455 8.46851 5.00428 8.56746 5.02379C8.66641 5.04331 8.75736 5.09172 8.8288 5.16291L13.9088 10.2629L13.6188 9.97291V9.97391ZM14.3588 16.0449H17.6218V22.5389H14.3598V16.0449H14.3588ZM18.3518 9.97491L18.1418 10.1849L23.1418 5.16491C23.2131 5.0935 23.3039 5.04482 23.4029 5.02505C23.5018 5.00528 23.6044 5.0153 23.6976 5.05383C23.7909 5.09237 23.8706 5.1577 23.9267 5.24156C23.9828 5.32541 24.0128 5.42402 24.0128 5.52491V11.5949L18.3528 9.97491H18.3518ZM14.3598 10.2959H17.6218V15.6259H14.3598V10.2959ZM24.0128 16.4579V12.0449L18.0418 10.2989V27.2599L22.8848 23.9349C23.2331 23.6909 23.5174 23.3665 23.7137 22.9893C23.9101 22.6121 24.0127 22.1932 24.0128 21.7679V20.3849C24.5368 20.0249 24.9528 19.4949 24.9698 18.7209C24.9938 17.6019 24.5308 16.8699 24.0128 16.4579ZM22.0528 20.8319H22.0658L22.0778 20.8309L22.0948 20.8289H22.0988L22.1338 20.8259H22.1358L22.1518 20.8239L22.3008 20.8069H22.3078C22.6338 20.7649 23.0338 20.7689 23.6478 20.5769L23.7838 20.5319C22.8418 21.0579 21.7038 21.1679 21.7038 21.1679C21.7038 21.1679 21.7038 16.7899 22.7108 16.0529C22.9438 15.9509 23.4308 16.0569 23.8958 16.3729C23.5298 16.2559 23.1988 16.2179 23.0098 16.2829C21.8528 16.9519 22.0518 20.8329 22.0518 20.8329L22.0528 20.8319Z" fill="white"/>
</g>
<defs>
<clipPath id="clip0_1_4677">
<rect width="32" height="32" fill="white" transform="translate(0.000976562 0.0141602)"/>
</clipPath>
</defs>
</svg>
