<svg width="32" height="33" viewBox="0 0 32 33" fill="none" xmlns="http://www.w3.org/2000/svg">
<g clip-path="url(#clip0_1_5612)">
<path d="M16.001 32.0142C24.8375 32.0142 32.001 24.8507 32.001 16.0142C32.001 7.1776 24.8375 0.0141602 16.001 0.0141602C7.16442 0.0141602 0.000976562 7.1776 0.000976562 16.0142C0.000976562 24.8507 7.16442 32.0142 16.001 32.0142Z" fill="#8834FF"/>
<path d="M7.00098 21.2442C7.19198 21.2442 7.39298 21.2542 7.58398 21.2442C7.94698 21.2172 8.31098 21.1442 8.66598 21.0542C9.36607 20.863 10.0214 20.535 10.594 20.0892C10.758 19.9622 10.921 19.8262 11.076 19.6802C11.403 19.3532 11.686 18.9802 11.913 18.5802C12.113 18.2252 12.258 17.8432 12.368 17.4522C12.377 17.4252 12.377 17.3882 12.386 17.3612H10.958C10.6612 17.3598 10.3655 17.3263 10.076 17.2612C10.0499 17.2505 10.0221 17.2445 9.99398 17.2432C9.98008 17.2361 9.96755 17.2266 9.95698 17.2152C10.039 17.0342 10.112 16.8612 10.185 16.6792L10.74 15.3962C10.7577 15.3349 10.7851 15.2768 10.821 15.2242C10.8606 15.1875 10.913 15.1677 10.967 15.1692C11.413 15.1602 11.849 15.1692 12.295 15.1692H12.413C12.395 15.0962 12.395 15.0422 12.377 14.9792C12.2159 14.3638 11.9311 13.7878 11.54 13.2862C11.3476 13.0412 11.1378 12.8106 10.912 12.5962C10.6296 12.3305 10.3151 12.101 9.97598 11.9132C9.62253 11.7144 9.25083 11.55 8.86598 11.4222C8.54543 11.3217 8.21691 11.2488 7.88398 11.2042C7.61998 11.1762 7.36498 11.1672 7.10198 11.1492C7.03798 11.1492 6.97398 11.1402 6.91098 11.1312C6.89797 11.1273 6.88614 11.1202 6.87654 11.1106C6.86694 11.101 6.85987 11.0892 6.85598 11.0762C6.76498 10.8672 6.67398 10.6672 6.58298 10.4582C6.47298 10.2122 6.37298 9.96715 6.26498 9.73015C6.18298 9.53015 6.09198 9.34015 6.00098 9.13015L6.19198 9.07515C6.59198 9.02115 7.00198 9.00315 7.41098 9.02115C8.06215 9.04298 8.70883 9.13757 9.33898 9.30315C9.73898 9.41215 10.139 9.54815 10.521 9.71215C11.058 9.93915 11.567 10.2222 12.041 10.5582C12.249 10.7122 12.458 10.8762 12.659 11.0402C12.749 11.1132 12.84 11.1952 12.931 11.2762C13.386 11.7132 13.786 12.2132 14.123 12.7502C14.459 13.2862 14.705 13.8682 14.869 14.4782C14.923 14.6782 14.959 14.8882 15.005 15.0882C15.0102 15.1035 15.02 15.1169 15.0331 15.1265C15.0461 15.1362 15.0618 15.1416 15.078 15.1422H16.924C16.961 14.9962 16.988 14.8512 17.015 14.7052C17.125 14.2782 17.27 13.8682 17.452 13.4772C17.597 13.1502 17.779 12.8322 17.988 12.5412C18.179 12.2772 18.379 12.0132 18.598 11.7682C18.7588 11.5781 18.9318 11.3987 19.116 11.2312C19.4985 10.8839 19.9126 10.5732 20.353 10.3032C20.808 10.0212 21.281 9.79315 21.781 9.61215C22.127 9.49415 22.472 9.38515 22.818 9.29415C23.081 9.23015 23.336 9.18415 23.609 9.14815C23.827 9.11215 24.055 9.09415 24.282 9.07515C24.428 9.06615 24.564 9.05715 24.71 9.05715C24.928 9.05715 25.137 9.04815 25.346 9.05715C25.556 9.06715 25.765 9.11215 25.974 9.14815C25.983 9.14815 25.983 9.15815 26.001 9.17515L25.846 9.53915C25.683 9.92115 25.519 10.3032 25.346 10.6942C25.2799 10.8314 25.2192 10.9712 25.164 11.1132C25.128 11.2032 25.037 11.1672 24.974 11.1852C24.919 11.1952 24.874 11.1952 24.819 11.1852C23.8893 11.1942 22.9731 11.4087 22.136 11.8132C21.7444 12.0044 21.3777 12.2429 21.044 12.5232C20.908 12.6412 20.754 12.7592 20.626 12.8952C20.298 13.2232 20.016 13.5952 19.789 14.0052C19.6065 14.3435 19.4604 14.7001 19.353 15.0692C19.343 15.0962 19.343 15.1332 19.334 15.1602H19.434C19.907 15.1602 20.389 15.1502 20.862 15.1602C21.144 15.1602 21.426 15.2052 21.699 15.2962C21.709 15.3062 21.717 15.3062 21.726 15.3152L21.463 15.9152C21.281 16.3422 21.09 16.7702 20.908 17.2062C20.853 17.3342 20.817 17.3612 20.671 17.3612H19.343C19.38 17.4882 19.407 17.5972 19.443 17.7072C19.571 18.0892 19.753 18.4522 19.98 18.7892C20.117 18.9892 20.262 19.1712 20.417 19.3532C20.507 19.4622 20.607 19.5712 20.707 19.6622C21.044 19.9892 21.427 20.2722 21.835 20.4992C22.181 20.6992 22.554 20.8632 22.936 20.9892C23.3 21.1172 23.682 21.1992 24.073 21.2352L24.791 21.2902C24.882 21.3002 24.973 21.3002 25.064 21.3082C25.082 21.3182 25.101 21.3262 25.11 21.3452C25.264 21.7082 25.419 22.0722 25.583 22.4362L25.973 23.3272C25.846 23.3552 25.728 23.3822 25.601 23.3912C25.291 23.4092 24.973 23.4272 24.664 23.4272C24.382 23.4272 24.1 23.4002 23.827 23.3642C23.4487 23.3107 23.0725 23.244 22.699 23.1642C22.2512 23.0542 21.8131 22.9081 21.389 22.7272C20.8839 22.5109 20.4027 22.2428 19.953 21.9272C19.7186 21.7534 19.4882 21.5744 19.262 21.3902C19.1137 21.2694 18.9737 21.1388 18.843 20.9992C18.2685 20.4148 17.7954 19.7389 17.443 18.9992C17.2369 18.561 17.0842 18.0997 16.988 17.6252C16.97 17.5792 16.961 17.5252 16.951 17.4792C16.951 17.3892 16.906 17.3702 16.824 17.3702H14.987C14.8955 17.864 14.7489 18.346 14.55 18.8072C14.3887 19.1985 14.1844 19.5708 13.941 19.9172C13.7506 20.1848 13.547 20.4428 13.331 20.6902C13.1754 20.8789 13.0052 21.0551 12.822 21.2172C12.54 21.4632 12.24 21.6902 11.94 21.9172C11.5792 22.1735 11.1956 22.3961 10.794 22.5822C10.0464 22.9376 9.24884 23.1767 8.42898 23.2912C8.14698 23.3362 7.86498 23.3642 7.58398 23.3912C7.42344 23.4003 7.26251 23.4003 7.10198 23.3912C6.86498 23.3912 6.62898 23.3812 6.40198 23.3732C6.31898 23.3632 6.23698 23.3552 6.15598 23.3362C6.10998 23.3272 6.09198 23.3092 6.11898 23.2552C6.30098 22.8362 6.49198 22.4182 6.67398 21.9992C6.78398 21.7452 6.88398 21.5092 7.00098 21.2452V21.2442Z" fill="white"/>
</g>
<defs>
<clipPath id="clip0_1_5612">
<rect width="32" height="32" fill="white" transform="translate(0.000976562 0.0141602)"/>
</clipPath>
</defs>
</svg>
