<svg width="32" height="33" viewBox="0 0 32 33" fill="none" xmlns="http://www.w3.org/2000/svg">
<g clip-path="url(#clip0_1_5606)">
<path d="M16 32.0156C24.8366 32.0156 32 24.8522 32 16.0156C32 7.17907 24.8366 0.015625 16 0.015625C7.16344 0.015625 0 7.17907 0 16.0156C0 24.8522 7.16344 32.0156 16 32.0156Z" fill="#1591CA"/>
<path d="M16.4947 15.7378C16.4947 15.7378 17.8217 12.7878 15.2197 9.93784C15.2197 9.93784 13.7397 8.03784 10.6797 8.18784L11.2907 7.94784C11.3927 7.90784 11.4997 7.87984 11.6077 7.86584L12.2097 7.78784L16.4437 7.13784C16.4437 7.13784 17.9407 6.84384 19.0757 7.16784C19.3987 7.26084 19.6927 7.43584 19.9257 7.67384C20.5517 8.30784 21.8087 9.98484 20.9857 12.6378C20.9857 12.6378 20.1687 15.5878 17.1077 16.2878C17.1077 16.2878 16.3417 16.4878 16.4947 15.7378ZM16.3057 17.3818C16.3057 17.3818 18.2187 20.0048 22.0477 19.2658C22.0477 19.2658 24.4697 18.9868 25.8987 16.3288L25.7967 16.9678C25.7797 17.0738 25.7497 17.1778 25.7067 17.2768L25.4687 17.8238L23.8807 21.7238C23.8807 21.7238 23.3757 23.1348 22.5127 23.9268C22.265 24.1525 21.9633 24.3106 21.6367 24.3858C20.7617 24.5888 18.6487 24.7938 16.7387 22.7478C16.7387 22.7478 14.5657 20.5558 15.5117 17.6178C15.5117 17.6158 15.7257 16.8708 16.3057 17.3818ZM14.9207 16.4348C14.9207 16.4348 11.6507 16.7788 10.4257 20.4098C10.4257 20.4098 9.48173 22.6138 11.1397 25.1398L10.6227 24.7398C10.5368 24.6734 10.4595 24.5965 10.3927 24.5108L10.0227 24.0388L7.33873 20.7658C7.33873 20.7658 6.33173 19.6388 6.05473 18.5158C5.97473 18.1938 5.98273 17.8558 6.07673 17.5378C6.32573 16.6908 7.18273 14.7878 9.93973 14.1658C9.93973 14.1658 12.9567 13.3888 15.1017 15.6418C15.1037 15.6418 15.6617 16.1918 14.9217 16.4348H14.9207Z" fill="white"/>
<path opacity="0.5" d="M17.106 16.8116C17.106 16.8116 20.366 16.3876 21.496 12.7266C21.496 12.7266 22.383 10.4996 20.659 8.01562L21.187 8.40263C21.274 8.46763 21.354 8.54263 21.423 8.62563L21.804 9.08763L24.574 12.2936C24.574 12.2936 25.608 13.3936 25.916 14.5116C26.003 14.8316 26.003 15.1676 25.916 15.4876C25.689 16.3406 24.882 18.2656 22.141 18.9556C22.141 18.9556 19.145 19.8056 16.943 17.6096C16.945 17.6096 16.373 17.0736 17.106 16.8116ZM15.468 17.4156C15.468 17.4156 14.067 20.3316 16.595 23.2446C16.595 23.2446 18.024 25.1796 21.09 25.1046L20.472 25.3296C20.369 25.3668 20.2619 25.3913 20.153 25.4026L19.55 25.4666L15.3 26.0126C15.3 26.0126 13.797 26.2696 12.67 25.9176C12.3504 25.8167 12.0621 25.6352 11.833 25.3906C11.223 24.7406 10.01 23.0346 10.901 20.4036C10.901 20.4036 11.791 17.4736 14.87 16.8496C14.87 16.8526 15.643 16.6696 15.468 17.4156ZM15.577 15.8786C15.577 15.8786 13.625 13.2826 9.808 14.0786C9.808 14.0786 7.39 14.3906 6 17.0686L6.092 16.4276C6.10772 16.3211 6.13661 16.217 6.178 16.1176L6.408 15.5676L7.938 11.6436C7.938 11.6436 8.423 10.2256 9.274 9.42163C9.51948 9.19287 9.81982 9.03133 10.146 8.95263C11.018 8.73563 13.128 8.50263 15.066 10.5216C15.066 10.5216 17.271 12.6826 16.368 15.6336C16.368 15.6316 16.164 16.3816 15.577 15.8786Z" fill="white"/>
</g>
<defs>
<clipPath id="clip0_1_5606">
<rect width="32" height="32" fill="white" transform="translate(0 0.015625)"/>
</clipPath>
</defs>
</svg>
