<svg width="32" height="33" viewBox="0 0 32 33" fill="none" xmlns="http://www.w3.org/2000/svg">
<g clip-path="url(#clip0_1_5602)">
<path d="M16 32.0156C24.8366 32.0156 32 24.8522 32 16.0156C32 7.17907 24.8366 0.015625 16 0.015625C7.16344 0.015625 0 7.17907 0 16.0156C0 24.8522 7.16344 32.0156 16 32.0156Z" fill="#56428E"/>
<path d="M10.75 8.01562H15.104C14.58 8.84562 14.259 9.76262 14.279 10.7556C15.574 10.7686 16.873 10.7686 18.169 10.7556C18.186 9.76862 17.921 8.82563 17.354 8.01562H21.738C21.436 8.64863 20.923 9.23563 20.972 9.97863C20.952 13.3026 20.979 16.6286 20.969 19.9526C21.399 19.9526 21.834 19.9526 22.269 19.9556C22.586 19.3256 22.868 18.6826 23.093 18.0156C24.395 18.0486 25.704 17.9786 27 18.1526C25.718 19.2586 25.048 20.8326 24.213 22.2656C20.899 22.2726 17.586 22.2556 14.269 22.2756C14.113 23.4856 14.859 24.3186 15.723 25.0156H10.126C10.613 24.3726 11.594 23.9586 11.491 23.0156C11.524 19.8026 11.491 16.5856 11.501 13.3686H14.341V15.3486H18.109V13.0786H10.242L8.287 16.5156C8.937 17.6626 9.589 18.8076 10.245 19.9526H11.213V22.2656H8.254C7.174 20.3456 6.054 18.4486 5 16.5156V16.5126C6.057 14.5826 7.18 12.6856 8.254 10.7656C9.358 10.7656 10.461 10.7656 11.564 10.7556C11.5787 9.78047 11.2943 8.82422 10.749 8.01562H10.75ZM14.342 17.6826V19.9526H18.109V17.6826H14.342ZM21.257 10.7656H24.207C25.015 12.0656 25.571 13.5656 26.737 14.6056C26.761 14.6826 26.804 14.8396 26.827 14.9156C25.581 15.0796 24.319 14.9526 23.063 15.0156C22.903 14.3226 22.589 13.6856 22.241 13.0756L21.257 13.0786V10.7656ZM18.212 22.5556C19.083 22.5586 19.958 22.5556 20.83 22.5526C20.81 23.6656 21.589 24.3556 22.354 25.0156H16.717C17.44 24.3296 18.285 23.6786 18.212 22.5556Z" fill="white"/>
</g>
<defs>
<clipPath id="clip0_1_5602">
<rect width="32" height="32" fill="white" transform="translate(0 0.015625)"/>
</clipPath>
</defs>
</svg>
