<svg width="32" height="33" viewBox="0 0 32 33" fill="none" xmlns="http://www.w3.org/2000/svg">
<g clip-path="url(#clip0_1_5596)">
<path d="M16 32.0156C24.8366 32.0156 32 24.8522 32 16.0156C32 7.17907 24.8366 0.015625 16 0.015625C7.16344 0.015625 0 7.17907 0 16.0156C0 24.8522 7.16344 32.0156 16 32.0156Z" fill="#2A3069"/>
<path d="M18.3128 10.5085C18.3128 6.9885 16.6058 4.0025 15.3258 3.0425C15.3258 3.0425 15.2188 2.9355 15.2188 3.1485C15.1128 9.8685 11.6988 11.6825 9.88585 14.2425C5.51285 19.8955 9.56585 26.1885 13.7258 27.3625C16.0728 28.0025 13.1928 26.1885 12.8728 22.4555C12.3388 17.7625 18.3128 14.3485 18.3128 10.5085Z" fill="white"/>
<path d="M20.4686 13.0156C20.2546 13.8686 19.4016 15.6826 18.2286 17.3886C14.2816 23.0426 16.5216 25.8156 17.8016 27.3086C18.5486 28.1626 17.8016 27.3086 19.6146 26.4556C19.7216 26.3486 23.2416 24.5356 23.5616 20.3756C23.9886 16.3226 21.4286 13.7626 20.4686 13.0156Z" fill="white"/>
</g>
<defs>
<clipPath id="clip0_1_5596">
<rect width="32" height="32" fill="white" transform="translate(0 0.015625)"/>
</clipPath>
</defs>
</svg>
