<svg width="32" height="33" viewBox="0 0 32 33" fill="none" xmlns="http://www.w3.org/2000/svg">
<g clip-path="url(#clip0_1_5592)">
<path d="M16 32.0156C24.8366 32.0156 32 24.8522 32 16.0156C32 7.17907 24.8366 0.015625 16 0.015625C7.16344 0.015625 0 7.17907 0 16.0156C0 24.8522 7.16344 32.0156 16 32.0156Z" fill="#CFA967"/>
<path d="M16.02 17.4606V25.4536L21.967 23.8516L23.364 8.46163H16.02V14.9936L16.324 14.0466H17.12L16.02 17.4606ZM8.636 24.9846L7 7.01562H25L23.364 24.9846L15.98 27.0156L8.636 24.9846ZM13.799 18.1916V17.4506L11.33 16.4666L13.8 15.4766V14.7346L10.273 16.1676V16.7596L13.799 18.1916ZM21.732 16.7596L18.205 18.1916V17.4506L20.675 16.4636L18.205 15.4766V14.7346L21.732 16.1676V16.7596ZM16.02 17.4596V14.9936L14.703 19.1006H15.491L16.02 17.4596Z" fill="white"/>
</g>
<defs>
<clipPath id="clip0_1_5592">
<rect width="32" height="32" fill="white" transform="translate(0 0.015625)"/>
</clipPath>
</defs>
</svg>
