<svg width="32" height="33" viewBox="0 0 32 33" fill="none" xmlns="http://www.w3.org/2000/svg">
<g clip-path="url(#clip0_1_5584)">
<path d="M16 32.0156C24.8366 32.0156 32 24.8522 32 16.0156C32 7.17907 24.8366 0.015625 16 0.015625C7.16344 0.015625 0 7.17907 0 16.0156C0 24.8522 7.16344 32.0156 16 32.0156Z" fill="#292929"/>
<path fill-rule="evenodd" clip-rule="evenodd" d="M15.507 18.6736C15.507 18.2136 15.509 17.7546 15.506 17.2956C15.505 17.1676 15.542 17.0696 15.661 17.0176C15.771 16.9696 15.886 17.0036 15.982 17.1156C16.268 17.4496 16.552 17.7856 16.837 18.1216C16.937 18.2386 17.038 18.3546 17.135 18.4756C17.1578 18.5042 17.1711 18.5392 17.173 18.5756C17.175 19.0606 17.176 19.5456 17.174 20.0296C17.1766 20.243 17.0987 20.4496 16.9558 20.608C16.8129 20.7665 16.6155 20.8653 16.403 20.8846C16.1906 20.8982 15.981 20.8309 15.8163 20.6962C15.6515 20.5615 15.5439 20.3695 15.515 20.1586C15.506 20.1036 15.507 20.0466 15.507 19.9906V18.6736ZM15.51 9.66365C15.509 9.64365 15.507 9.62465 15.507 9.60465V6.87265C15.508 6.45265 15.796 6.09865 16.186 6.02965C16.3063 6.00727 16.43 6.01172 16.5484 6.04269C16.6667 6.07367 16.7768 6.13039 16.8707 6.20882C16.9646 6.28725 17.04 6.38544 17.0916 6.49639C17.1432 6.60734 17.1696 6.7283 17.169 6.85065C17.179 7.78165 17.173 8.71365 17.175 9.64465L17.17 9.69265C16.976 9.36065 16.708 9.19465 16.342 9.19565C15.98 9.19565 15.71 9.35565 15.51 9.66365ZM15.507 22.2766C15.711 22.5866 15.983 22.7446 16.348 22.7436C16.712 22.7426 16.977 22.5766 17.175 22.2686V24.5826C17.174 24.8096 17.181 25.0386 17.161 25.2626C17.1416 25.4764 17.0402 25.6742 16.8779 25.8147C16.7157 25.9551 16.5053 26.0271 16.291 26.0156C16.0796 26.0015 15.8815 25.9078 15.7364 25.7534C15.5913 25.5991 15.51 25.3955 15.509 25.1836C15.504 24.2906 15.507 23.3976 15.507 22.5036V22.2766ZM17.175 13.4506V15.1116C17.175 15.2696 17.125 15.3556 17.005 15.4036C16.9429 15.4292 16.8742 15.4339 16.8093 15.4169C16.7443 15.3999 16.6867 15.3623 16.645 15.3096L15.921 14.4616C15.796 14.3156 15.671 14.1706 15.548 14.0216C15.5244 13.9934 15.5104 13.9584 15.508 13.9216C15.506 13.2076 15.505 12.4926 15.508 11.7786C15.5067 11.5678 15.5847 11.3641 15.7266 11.2081C15.8685 11.0521 16.0639 10.9552 16.274 10.9366C16.669 10.8926 17.061 11.1866 17.153 11.6006C17.168 11.6696 17.173 11.7416 17.173 11.8126C17.175 12.3586 17.175 12.9046 17.175 13.4506ZM18.906 10.0736V7.85365C18.908 7.45165 19.137 7.12365 19.493 7.01165C20.033 6.84065 20.573 7.24865 20.576 7.83665C20.579 8.39065 20.576 8.94465 20.576 9.49765V12.2926C20.576 12.7056 20.328 13.0396 19.949 13.1426C19.456 13.2756 18.953 12.9126 18.912 12.3936C18.9083 12.3427 18.9067 12.2917 18.907 12.2406V10.0736H18.906ZM13.862 20.7766V23.3416C13.8657 23.5421 13.7981 23.7373 13.6711 23.8925C13.5442 24.0476 13.3662 24.1526 13.169 24.1886C12.689 24.2806 12.21 23.8906 12.196 23.3916C12.192 23.2486 12.195 23.1056 12.195 22.9626V18.2096C12.195 17.8106 12.451 17.4736 12.823 17.3776C12.9463 17.3465 13.0751 17.344 13.1995 17.3703C13.3239 17.3967 13.4407 17.4511 13.5409 17.5294C13.641 17.6078 13.722 17.708 13.7774 17.8224C13.8329 17.9369 13.8615 18.0625 13.861 18.1896C13.864 19.0516 13.861 19.9146 13.861 20.7766H13.862ZM13.862 11.3306V14.8296C13.8658 15.0237 13.8026 15.2131 13.6831 15.3661C13.5637 15.5191 13.3952 15.6263 13.206 15.6696C13.0848 15.6954 12.9594 15.694 12.8388 15.6653C12.7183 15.6367 12.6056 15.5817 12.5089 15.5041C12.4123 15.4266 12.334 15.3286 12.2799 15.2171C12.2258 15.1056 12.1971 14.9836 12.196 14.8596C12.191 14.3536 12.195 13.8486 12.194 13.3426V7.83665C12.194 7.42465 12.462 7.08065 12.847 6.99365C12.9694 6.96678 13.0963 6.96781 13.2182 6.99665C13.3402 7.0255 13.4541 7.08142 13.5515 7.16028C13.6488 7.23913 13.7272 7.33889 13.7808 7.45217C13.8344 7.56545 13.8618 7.68934 13.861 7.81465C13.864 8.71365 13.861 9.61165 13.861 10.5106L13.862 11.3306ZM18.906 19.5166V15.7166C18.906 15.3376 19.068 15.0566 19.406 14.8986C19.948 14.6476 20.556 15.0486 20.576 15.6616V23.3096C20.576 23.7276 20.337 24.0596 19.96 24.1676C19.466 24.3096 18.954 23.9476 18.912 23.4266C18.9082 23.3734 18.9065 23.32 18.907 23.2666V19.5146L18.906 19.5166ZM24 15.6506V21.5906C24.0049 21.7886 23.9405 21.982 23.818 22.1376C23.6955 22.2931 23.5226 22.401 23.329 22.4426C22.837 22.5496 22.347 22.1566 22.333 21.6436V9.72365C22.333 9.33865 22.526 9.03165 22.852 8.89565C23.402 8.66565 23.999 9.07965 23.999 9.69365V15.6496L24 15.6506ZM10.667 15.6416V21.5906C10.667 22.0106 10.407 22.3476 10.015 22.4406C9.515 22.5606 9.014 22.1666 9 21.6416V9.70465C9 9.29565 9.245 8.96365 9.62 8.85965C9.74302 8.82731 9.87181 8.82354 9.99651 8.84863C10.1212 8.87372 10.2385 8.927 10.3395 9.0044C10.4404 9.0818 10.5223 9.18126 10.5789 9.29518C10.6355 9.40909 10.6653 9.53445 10.666 9.66165C10.671 10.3166 10.667 10.9726 10.667 11.6286V15.6406V15.6416Z" fill="white"/>
</g>
<defs>
<clipPath id="clip0_1_5584">
<rect width="32" height="32" fill="white" transform="translate(0 0.015625)"/>
</clipPath>
</defs>
</svg>
