<svg width="32" height="32" viewBox="0 0 32 32" fill="none" xmlns="http://www.w3.org/2000/svg">
<g clip-path="url(#clip0_101_556)">
<path d="M16 32C24.8667 32 32 24.8667 32 16C32 7.13328 24.8667 0 16 0C7.13328 0 0 7.13328 0 16C0 24.8667 7.13328 32 16 32Z" fill="#F4F6F8"/>
<path d="M22.2344 10.8909C20.8881 10.8909 19.4204 11.5702 17.8691 12.9082C17.1332 13.5422 16.4976 14.2214 16.021 14.7648C16.021 14.7648 16.021 14.7648 16.0252 14.769V14.7648C16.0252 14.7648 16.7778 15.5717 17.6099 16.4363C18.0573 15.9134 18.7012 15.2012 19.4413 14.559C20.8211 13.3692 21.7201 13.1181 22.2344 13.1181C24.1704 13.1181 25.7425 14.629 25.7425 16.4857C25.7425 18.33 24.1662 19.8409 22.2344 19.8532C22.1466 19.8532 22.0337 19.8409 21.8915 19.812C22.456 20.0508 23.0623 20.2237 23.6394 20.2237C27.1851 20.2237 27.8792 17.9471 27.9252 17.7825C28.0297 17.3666 28.0841 16.9303 28.0841 16.4815C28.0841 13.4022 25.4582 10.8909 22.2344 10.8909Z" fill="url(#paint0_linear_101_556)"/>
<path d="M9.84967 22.0883C11.1961 22.0883 12.6637 21.409 14.215 20.0711C14.9509 19.4371 15.5865 18.7578 16.0631 18.2144C16.0631 18.2144 16.0631 18.2144 16.0589 18.2103V18.2144C16.0589 18.2144 15.3063 17.4075 14.4742 16.543C14.0268 17.0658 13.3829 17.778 12.6428 18.4202C11.263 19.61 10.364 19.8611 9.84967 19.8611C7.91372 19.857 6.34154 18.3462 6.34154 16.4895C6.34154 14.6451 7.9179 13.1343 9.84967 13.1219C9.93748 13.1219 10.0504 13.1343 10.1925 13.1631C9.62808 12.9243 9.02175 12.7514 8.44476 12.7514C4.89899 12.7514 4.20907 15.028 4.15889 15.1885C4.05436 15.6085 4 16.0407 4 16.4895C4 19.5771 6.62587 22.0883 9.84967 22.0883Z" fill="url(#paint1_linear_101_556)"/>
<path d="M23.6308 20.1744C21.8161 20.1291 19.9303 18.7211 19.5457 18.3712C18.5506 17.4655 16.2549 15.016 16.0752 14.8225C14.3943 12.9659 12.1155 10.891 9.84917 10.891H9.84499H9.84081C7.08951 10.9033 4.77724 12.7394 4.1584 15.1889C4.2044 15.0284 5.11175 12.7065 8.44008 12.7888C10.2548 12.8341 12.1489 14.2626 12.5378 14.6126C13.5329 15.5183 15.8285 17.9678 16.0083 18.1612C17.6892 20.0138 19.968 22.0887 22.2342 22.0887H22.2384H22.2426C24.9939 22.0764 27.3104 20.2402 27.925 17.7908C27.8749 17.9513 26.9633 20.2526 23.6308 20.1744Z" fill="#29ABE2"/>
</g>
<defs>
<linearGradient id="paint0_linear_101_556" x1="19.1893" y1="11.6293" x2="27.0147" y2="19.8597" gradientUnits="userSpaceOnUse">
<stop offset="0.21" stop-color="#F15A24"/>
<stop offset="0.6841" stop-color="#FBB03B"/>
</linearGradient>
<linearGradient id="paint1_linear_101_556" x1="12.8947" y1="21.35" x2="5.06935" y2="13.1195" gradientUnits="userSpaceOnUse">
<stop offset="0.21" stop-color="#ED1E79"/>
<stop offset="0.8929" stop-color="#522785"/>
</linearGradient>
<clipPath id="clip0_101_556">
<rect width="32" height="32" fill="white"/>
</clipPath>
</defs>
</svg>
