<svg width="32" height="33" viewBox="0 0 32 33" fill="none" xmlns="http://www.w3.org/2000/svg">
<g clip-path="url(#clip0_1_5576)">
<path d="M16.0005 32.0156C24.837 32.0156 32.0005 24.8522 32.0005 16.0156C32.0005 7.17907 24.837 0.015625 16.0005 0.015625C7.16393 0.015625 0.000488281 7.17907 0.000488281 16.0156C0.000488281 24.8522 7.16393 32.0156 16.0005 32.0156Z" fill="#1FC5C9"/>
<path fill-rule="evenodd" clip-rule="evenodd" d="M11.2965 22.4876L13.4605 20.3236C14.4155 20.8878 15.531 21.1183 16.6314 20.979C17.7318 20.8397 18.7547 20.3384 19.539 19.5541C20.3233 18.7698 20.8246 17.747 20.9639 16.6465C21.1032 15.5461 20.8726 14.4306 20.3085 13.4756L22.4725 11.3116C23.5942 12.8527 24.1289 14.7436 23.9802 16.6438C23.8315 18.5441 23.0092 20.3288 21.6614 21.6766C20.3136 23.0243 18.5289 23.8466 16.6287 23.9953C14.7284 24.144 12.8375 23.6094 11.2965 22.4876ZM9.52849 20.7196C8.40675 19.1786 7.87209 17.2877 8.02079 15.3874C8.16948 13.4872 8.99177 11.7025 10.3396 10.3547C11.6873 9.0069 13.4721 8.18462 15.3723 8.03592C17.2726 7.88723 19.1635 8.42189 20.7045 9.54362L18.5405 11.7076C17.5855 11.1435 16.47 10.9129 15.3696 11.0523C14.2692 11.1916 13.2463 11.6928 12.462 12.4771C11.6777 13.2614 11.1764 14.2843 11.0371 15.3847C10.8978 16.4851 11.1284 17.6006 11.6925 18.5556L9.52849 20.7196ZM24.0005 10.0156C23.4701 10.0156 22.9613 9.80491 22.5863 9.42984C22.2112 9.05477 22.0005 8.54606 22.0005 8.01562C22.0005 7.48519 22.2112 6.97648 22.5863 6.60141C22.9613 6.22634 23.4701 6.01563 24.0005 6.01562C24.5309 6.01563 25.0396 6.22634 25.4147 6.60141C25.7898 6.97648 26.0005 7.48519 26.0005 8.01562C26.0005 8.54606 25.7898 9.05477 25.4147 9.42984C25.0396 9.80491 24.5309 10.0156 24.0005 10.0156ZM8.00049 26.0156C7.47006 26.0156 6.96135 25.8049 6.58627 25.4298C6.2112 25.0548 6.00049 24.5461 6.00049 24.0156C6.00049 23.4852 6.2112 22.9765 6.58627 22.6014C6.96135 22.2263 7.47006 22.0156 8.00049 22.0156C8.53092 22.0156 9.03963 22.2263 9.4147 22.6014C9.78977 22.9765 10.0005 23.4852 10.0005 24.0156C10.0005 24.5461 9.78977 25.0548 9.4147 25.4298C9.03963 25.8049 8.53092 26.0156 8.00049 26.0156Z" fill="white"/>
</g>
<defs>
<clipPath id="clip0_1_5576">
<rect width="32" height="32" fill="white" transform="translate(0.000488281 0.015625)"/>
</clipPath>
</defs>
</svg>
