<svg width="32" height="33" viewBox="0 0 32 33" fill="none" xmlns="http://www.w3.org/2000/svg">
<g clip-path="url(#clip0_1_5572)">
<path d="M16.0005 32.0156C24.837 32.0156 32.0005 24.8522 32.0005 16.0156C32.0005 7.17907 24.837 0.015625 16.0005 0.015625C7.16393 0.015625 0.000488281 7.17907 0.000488281 16.0156C0.000488281 24.8522 7.16393 32.0156 16.0005 32.0156Z" fill="#F9C011"/>
<path d="M14.8125 6.01562C16.3305 6.90263 17.7585 7.92962 19.2625 8.84062L13.7185 18.5116C12.9825 17.2206 12.2925 15.9036 11.5655 14.6056C12.6125 11.7306 13.8085 8.90563 14.8125 6.01562ZM10.0005 26.0156C13.1395 20.3066 16.4005 14.6606 19.5045 8.93662C20.3345 10.3936 21.1655 11.8496 22.0005 13.3066C19.5945 17.5386 17.1705 21.7606 14.7835 26.0016C13.1885 26.0016 11.5955 25.9816 10.0005 26.0156ZM15.0825 25.9926C16.4125 23.7176 17.6655 21.4026 19.0125 19.1376C19.8155 20.1646 20.6305 21.1856 21.4275 22.2176C19.3201 23.4887 17.205 24.747 15.0825 25.9926Z" fill="white"/>
</g>
<defs>
<clipPath id="clip0_1_5572">
<rect width="32" height="32" fill="white" transform="translate(0.000488281 0.015625)"/>
</clipPath>
</defs>
</svg>
