<svg width="32" height="33" viewBox="0 0 32 33" fill="none" xmlns="http://www.w3.org/2000/svg">
<g clip-path="url(#clip0_1_5568)">
<path d="M16.0005 32.0156C24.837 32.0156 32.0005 24.8522 32.0005 16.0156C32.0005 7.17907 24.837 0.015625 16.0005 0.015625C7.16393 0.015625 0.000488281 7.17907 0.000488281 16.0156C0.000488281 24.8522 7.16393 32.0156 16.0005 32.0156Z" fill="#98C23A"/>
<path d="M15.7905 4.01562C9.27949 4.01562 4.00049 9.29462 4.00049 15.8056C4.00049 22.3166 9.27949 27.5956 15.7905 27.5956C22.3015 27.5956 27.5805 22.3166 27.5805 15.8056C27.5695 9.29862 22.2975 4.02662 15.7905 4.01562ZM15.7905 26.0156C10.1585 26.0156 5.59249 21.4506 5.59049 15.8186C5.58849 10.1866 10.1515 5.61862 15.7835 5.61562C21.4155 5.61162 25.9845 10.1736 25.9905 15.8056C25.9845 21.4366 21.4215 25.9996 15.7905 26.0056V26.0156ZM10.5805 14.7556H8.68049V10.5956C8.68049 9.81563 9.05049 9.42562 9.79049 9.42562H13.9105C14.0693 9.39871 14.2323 9.41056 14.3856 9.46018C14.5388 9.50979 14.6778 9.5957 14.7907 9.71058C14.9037 9.82547 14.9872 9.96594 15.0341 10.12C15.0811 10.2741 15.0901 10.4373 15.0605 10.5956V14.7556H13.1805V11.0556H10.5805V14.7556ZM13.1805 15.9756H15.0805V20.9756C15.1083 21.1332 15.0979 21.2952 15.0501 21.448C15.0023 21.6007 14.9185 21.7397 14.8059 21.8534C14.6932 21.9671 14.5549 22.052 14.4025 22.1011C14.2502 22.1502 14.0883 22.1621 13.9305 22.1356H9.79049C9.63446 22.1541 9.47628 22.1356 9.32875 22.0815C9.18123 22.0274 9.04853 21.9394 8.94139 21.8244C8.83426 21.7095 8.75571 21.571 8.71212 21.42C8.66853 21.2691 8.66112 21.11 8.69049 20.9556V15.9556H13.1905L13.1805 15.9756ZM20.9805 16.0456H22.9005V21.0456C22.9288 21.2042 22.9183 21.3673 22.87 21.5209C22.8217 21.6746 22.737 21.8144 22.6231 21.9283C22.5092 22.0422 22.3695 22.1269 22.2158 22.1752C22.0621 22.2234 21.8991 22.2339 21.7405 22.2056H17.5705C17.4134 22.2303 17.2527 22.2171 17.1017 22.1672C16.9507 22.1172 16.8138 22.032 16.7023 21.9186C16.5909 21.8052 16.5081 21.6668 16.4608 21.515C16.4135 21.3632 16.4031 21.2023 16.4305 21.0456V10.6856C16.3998 10.5253 16.4089 10.36 16.4568 10.204C16.5048 10.048 16.5902 9.90612 16.7056 9.79073C16.821 9.67533 16.9629 9.58993 17.1189 9.54198C17.2748 9.49403 17.4402 9.48498 17.6005 9.51562H21.7005C21.8629 9.47916 22.0318 9.48382 22.192 9.52917C22.3522 9.57452 22.4985 9.65914 22.6176 9.77534C22.7368 9.89154 22.8251 10.0357 22.8745 10.1946C22.9239 10.3536 22.9328 10.5223 22.9005 10.6856V13.6856H20.9005V11.1456H18.4005V16.0456H20.9805Z" fill="white"/>
</g>
<defs>
<clipPath id="clip0_1_5568">
<rect width="32" height="32" fill="white" transform="translate(0.000488281 0.015625)"/>
</clipPath>
</defs>
</svg>
