<svg width="32" height="33" viewBox="0 0 32 33" fill="none" xmlns="http://www.w3.org/2000/svg">
<g clip-path="url(#clip0_1_5564)">
<path d="M16.0005 32.0156C24.837 32.0156 32.0005 24.8522 32.0005 16.0156C32.0005 7.17907 24.837 0.015625 16.0005 0.015625C7.16393 0.015625 0.000488281 7.17907 0.000488281 16.0156C0.000488281 24.8522 7.16393 32.0156 16.0005 32.0156Z" fill="#DF1A14"/>
<path d="M14.8602 11.0426C15.1672 10.9456 15.5162 11.1186 15.6432 11.4206C15.9502 12.1226 16.2252 12.8456 16.5432 13.5466C16.7332 13.9676 17.3802 14.0216 17.6332 13.6336C18.0572 12.9316 18.3962 12.1866 18.8092 11.4736C19.1482 11.0316 19.7622 11.2476 20.2282 11.2046C20.7152 11.1726 21.0752 11.7876 20.7992 12.2086C19.4652 14.7016 18.1212 17.1846 16.7872 19.6786C16.5642 20.1316 15.8342 20.1316 15.6332 19.6566C15.3362 18.9336 15.1032 18.1776 14.8172 17.4546C14.6472 16.9796 13.9172 16.9046 13.6742 17.3576C13.2612 18.1026 12.9012 18.8796 12.4882 19.6136C12.2872 19.9476 11.8632 19.8936 11.5352 19.8936C11.2172 19.8726 10.8362 19.9696 10.5932 19.6996C10.4868 19.5894 10.4197 19.4472 10.4023 19.2949C10.385 19.1427 10.4183 18.989 10.4972 18.8576C11.7472 16.4936 13.0172 14.1196 14.2672 11.7336C14.4152 11.4636 14.5422 11.1286 14.8602 11.0436V11.0426ZM10.4972 11.2266C10.8676 11.205 11.2389 11.205 11.6092 11.2266C12.0222 11.2696 12.2872 11.7986 12.0862 12.1766C10.8462 14.5186 9.59724 16.8496 8.35924 19.1816C8.21024 19.4416 8.09424 19.7866 7.77624 19.8716C7.40624 19.9266 7.02524 19.8946 6.65424 19.8946C6.19924 19.9156 5.81824 19.3216 6.09324 18.9226C7.38524 16.5046 8.67624 14.0756 9.96824 11.6476C10.0742 11.4426 10.2542 11.2376 10.4982 11.2266H10.4972ZM23.6372 11.2476C24.0392 11.1286 24.4632 11.2156 24.8762 11.1826C25.1932 11.1936 25.5962 11.1286 25.8292 11.4096C26.1152 11.7016 26.0292 12.2516 25.6692 12.4356C24.9392 12.8996 24.2192 13.3956 23.4792 13.8496C23.0122 14.1726 22.3242 13.6226 22.5252 13.0826C22.7052 12.6506 22.9592 12.2526 23.1612 11.8306C23.2772 11.6146 23.3832 11.3346 23.6372 11.2476ZM20.1322 17.7026C20.3442 17.5726 20.6092 17.6166 20.8102 17.7246C21.3712 18.0046 21.9322 18.3076 22.5042 18.5776C22.7482 18.6856 23.0022 18.8906 23.0122 19.1816C23.0552 19.5706 22.7262 19.9476 22.3452 19.9156C21.5302 19.9156 20.7152 19.9256 19.9102 19.9156C19.5082 19.9156 19.1902 19.4406 19.3382 19.0526C19.4442 18.7716 19.6032 18.5226 19.7302 18.2526C19.8252 18.0486 19.9202 17.7996 20.1322 17.7026Z" fill="white"/>
</g>
<defs>
<clipPath id="clip0_1_5564">
<rect width="32" height="32" fill="white" transform="translate(0.000488281 0.015625)"/>
</clipPath>
</defs>
</svg>
