<svg width="32" height="33" viewBox="0 0 32 33" fill="none" xmlns="http://www.w3.org/2000/svg">
<g clip-path="url(#clip0_1_5558)">
<path d="M16.0005 32.0156C24.837 32.0156 32.0005 24.8522 32.0005 16.0156C32.0005 7.17907 24.837 0.015625 16.0005 0.015625C7.16393 0.015625 0.000488281 7.17907 0.000488281 16.0156C0.000488281 24.8522 7.16393 32.0156 16.0005 32.0156Z" fill="#B2A3F6"/>
<path d="M13.4465 12.3026C12.6865 12.3026 12.0715 11.7016 12.0715 10.9606C12.0715 10.2196 12.6865 9.61762 13.4465 9.61762C14.2055 9.61762 14.8215 10.2186 14.8215 10.9606C14.8215 11.7026 14.2055 12.3026 13.4465 12.3026ZM17.3735 10.7686C16.6145 10.7686 15.9985 10.1676 15.9985 9.42662C15.9985 8.68462 16.6145 8.08362 17.3735 8.08362C18.1335 8.08362 18.7485 8.68462 18.7485 9.42662C18.7485 10.1676 18.1335 10.7686 17.3735 10.7686ZM18.9465 19.9736C18.1865 19.9736 17.5715 19.3736 17.5715 18.6316C17.5715 17.8896 18.1865 17.2886 18.9465 17.2886C19.7055 17.2886 20.3215 17.8896 20.3215 18.6316C20.3215 19.3736 19.7055 19.9736 18.9465 19.9736ZM5.78649 18.0556C5.6845 18.0569 5.58325 18.0381 5.48853 18.0003C5.39381 17.9625 5.30748 17.9063 5.23448 17.8351C5.16147 17.7638 5.10323 17.6789 5.06308 17.5851C5.02293 17.4914 5.00166 17.3906 5.00049 17.2886C5.00049 16.8656 5.35249 16.5216 5.78549 16.5216C6.21849 16.5216 6.57149 16.8656 6.57149 17.2886C6.57031 17.3906 6.54904 17.4914 6.50889 17.5851C6.46874 17.6789 6.4105 17.7638 6.3375 17.8351C6.2645 17.9063 6.17817 17.9625 6.08345 18.0003C5.98873 18.0381 5.88748 18.0569 5.78549 18.0556H5.78649ZM7.94649 23.0436C7.86993 23.0445 7.79393 23.0304 7.72285 23.0019C7.65176 22.9735 7.58697 22.9313 7.53218 22.8778C7.4774 22.8243 7.43368 22.7606 7.40353 22.6902C7.37339 22.6198 7.3574 22.5442 7.35649 22.4676C7.35649 22.1496 7.62049 21.8926 7.94649 21.8926C8.27249 21.8926 8.53649 22.1496 8.53649 22.4676C8.53558 22.5442 8.51959 22.6198 8.48944 22.6902C8.4593 22.7606 8.41558 22.8243 8.36079 22.8778C8.30601 22.9313 8.24122 22.9735 8.17013 23.0019C8.09905 23.0304 8.02305 23.0445 7.94649 23.0436ZM14.2315 26.8786C13.9055 26.8786 13.6415 26.6206 13.6415 26.3026C13.6415 25.9846 13.9055 25.7276 14.2315 25.7276C14.5575 25.7276 14.8215 25.9846 14.8215 26.3026C14.8215 26.6206 14.5575 26.8786 14.2315 26.8786ZM24.4465 23.4266C24.1205 23.4266 23.8565 23.1686 23.8565 22.8506C23.8565 22.5326 24.1205 22.2746 24.4465 22.2746C24.7715 22.2746 25.0365 22.5326 25.0365 22.8506C25.0365 23.1686 24.7715 23.4266 24.4465 23.4266ZM18.1605 22.2766C18.0839 22.2775 18.0079 22.2634 17.9368 22.2349C17.8658 22.2065 17.801 22.1643 17.7462 22.1108C17.6914 22.0573 17.6477 21.9936 17.6175 21.9232C17.5874 21.8528 17.5714 21.7772 17.5705 21.7006C17.5705 21.3826 17.8355 21.1256 18.1605 21.1256C18.4855 21.1256 18.7505 21.3826 18.7505 21.7006C18.7496 21.7772 18.7336 21.8528 18.7034 21.9232C18.6733 21.9936 18.6296 22.0573 18.5748 22.1108C18.52 22.1643 18.4552 22.2065 18.3841 22.2349C18.313 22.2634 18.2371 22.2775 18.1605 22.2766ZM21.6965 19.5916C21.3705 19.5916 21.1065 19.3336 21.1065 19.0156C21.1065 18.6976 21.3705 18.4406 21.6965 18.4406C22.0215 18.4406 22.2865 18.6976 22.2865 19.0156C22.2865 19.3336 22.0215 19.5916 21.6965 19.5916ZM17.5715 26.8786C17.1375 26.8786 16.7855 26.5346 16.7855 26.1116C16.7855 25.6886 17.1375 25.3446 17.5715 25.3446C18.0045 25.3446 18.3565 25.6876 18.3565 26.1116C18.3565 26.5356 18.0045 26.8786 17.5715 26.8786ZM21.1065 17.2886C21.0046 17.2898 20.9034 17.2709 20.8088 17.233C20.7142 17.1951 20.628 17.1389 20.5551 17.0677C20.4822 16.9965 20.4241 16.9116 20.384 16.8179C20.3439 16.7242 20.3227 16.6235 20.3215 16.5216C20.3215 16.0986 20.6725 15.7546 21.1065 15.7546C21.5405 15.7546 21.8915 16.0986 21.8915 16.5216C21.8903 16.6235 21.8691 16.7242 21.829 16.8179C21.7889 16.9116 21.7307 16.9965 21.6579 17.0677C21.585 17.1389 21.4987 17.1951 21.4041 17.233C21.3095 17.2709 21.2084 17.2898 21.1065 17.2886ZM22.2865 24.9606C22.1845 24.9619 22.0832 24.9431 21.9885 24.9053C21.8938 24.8675 21.8075 24.8113 21.7345 24.7401C21.6615 24.6688 21.6032 24.5839 21.5631 24.4901C21.5229 24.3964 21.5017 24.2956 21.5005 24.1936C21.5005 23.7696 21.8525 23.4266 22.2855 23.4266C22.7195 23.4266 23.0715 23.7696 23.0715 24.1936C23.0703 24.2956 23.049 24.3964 23.0089 24.4901C22.9687 24.5839 22.9105 24.6688 22.8375 24.7401C22.7645 24.8113 22.6782 24.8675 22.5835 24.9053C22.4887 24.9431 22.3875 24.9619 22.2855 24.9606H22.2865ZM6.76549 21.1256C6.22349 21.1256 5.78349 20.6956 5.78349 20.1666C5.78349 19.6376 6.22349 19.2086 6.76549 19.2086C7.30749 19.2086 7.74749 19.6386 7.74749 20.1666C7.74749 20.6946 7.30749 21.1256 6.76549 21.1256ZM16.1955 24.9606C15.4355 24.9606 14.8205 24.3596 14.8205 23.6176C14.8205 22.8756 15.4355 22.2746 16.1955 22.2746C16.9545 22.2746 17.5705 22.8766 17.5705 23.6176C17.5705 24.3586 16.9545 24.9606 16.1955 24.9606ZM8.73049 18.4406C7.97049 18.4406 7.35549 17.8386 7.35549 17.0976C7.35549 16.3566 7.97049 15.7546 8.73049 15.7546C9.49049 15.7546 10.1055 16.3556 10.1055 17.0976C10.1055 17.8396 9.48949 18.4406 8.73049 18.4406ZM16.1955 21.5076C15.6525 21.5076 15.2125 21.0786 15.2125 20.5496C15.2125 20.0206 15.6525 19.5916 16.1955 19.5916C16.7375 19.5916 17.1775 20.0206 17.1775 20.5496C17.1775 21.0786 16.7375 21.5076 16.1955 21.5076ZM11.4805 13.0716C11.1545 13.0716 10.8905 12.8136 10.8905 12.4956C10.8905 12.1776 11.1545 11.9196 11.4805 11.9196C11.8065 11.9196 12.0705 12.1776 12.0705 12.4956C12.0705 12.8136 11.8065 13.0716 11.4805 13.0716ZM15.2125 15.3716C14.5625 15.3716 14.0345 14.8566 14.0345 14.2216C14.0345 13.5856 14.5625 13.0696 15.2125 13.0696C15.8625 13.0696 16.3905 13.5856 16.3905 14.2206C16.3905 14.8566 15.8635 15.3726 15.2125 15.3726V15.3716ZM17.9625 16.5216C17.8606 16.5228 17.7594 16.5039 17.6648 16.466C17.5702 16.4281 17.484 16.3719 17.4111 16.3007C17.3382 16.2295 17.2801 16.1446 17.24 16.0509C17.1999 15.9572 17.1787 15.8565 17.1775 15.7546C17.1775 15.3316 17.5285 14.9876 17.9625 14.9876C18.3965 14.9876 18.7475 15.3316 18.7475 15.7546C18.7463 15.8565 18.7251 15.9572 18.685 16.0509C18.6449 16.1446 18.5868 16.2295 18.5139 16.3007C18.441 16.3719 18.3547 16.4281 18.2601 16.466C18.1655 16.5039 18.0644 16.5228 17.9625 16.5216ZM19.3375 6.93362C19.0115 6.93362 18.7475 6.67662 18.7475 6.35862C18.7475 6.04062 19.0115 5.78262 19.3375 5.78262C19.6635 5.78262 19.9275 6.04062 19.9275 6.35862C19.9275 6.67662 19.6635 6.93362 19.3375 6.93362ZM16.5875 6.93262C16.46 6.93421 16.3335 6.91065 16.2151 6.8633C16.0968 6.81595 15.9889 6.74574 15.8977 6.65667C15.8065 6.5676 15.7338 6.46143 15.6836 6.34423C15.6335 6.22703 15.6069 6.10109 15.6055 5.97362C15.6071 5.84624 15.6337 5.72041 15.6839 5.60332C15.7341 5.48623 15.8069 5.38018 15.8981 5.29122C15.9892 5.20226 16.0971 5.13213 16.2154 5.08485C16.3337 5.03756 16.4601 5.01404 16.5875 5.01562C16.715 5.0139 16.8415 5.03733 16.9599 5.08456C17.0783 5.13178 17.1863 5.20189 17.2776 5.29086C17.3689 5.37984 17.4417 5.48593 17.492 5.60309C17.5422 5.72024 17.5689 5.84615 17.5705 5.97362C17.5691 6.10118 17.5425 6.2272 17.4923 6.34446C17.4421 6.46173 17.3692 6.56795 17.2779 6.65703C17.1866 6.74611 17.0786 6.8163 16.9602 6.86359C16.8417 6.91088 16.715 6.93434 16.5875 6.93262ZM17.1775 13.0696C16.7435 13.0696 16.3925 12.7266 16.3925 12.3026C16.3925 11.8786 16.7435 11.5356 17.1775 11.5356C17.6115 11.5356 17.9625 11.8796 17.9625 12.3026C17.9625 12.7256 17.6115 13.0696 17.1775 13.0696ZM9.71249 21.5096C9.06249 21.5096 8.53449 20.9946 8.53449 20.3586C8.53449 19.7226 9.06249 19.2076 9.71249 19.2076C10.3625 19.2076 10.8905 19.7226 10.8905 20.3576C10.8905 20.9946 10.3635 21.5096 9.71249 21.5096ZM21.1055 22.6596C20.4555 22.6596 19.9275 22.1436 19.9275 21.5076C19.9275 20.8726 20.4545 20.3576 21.1055 20.3576C21.7565 20.3576 22.2835 20.8726 22.2835 21.5076C22.2835 22.1436 21.7555 22.6596 21.1055 22.6596ZM19.5355 25.3446C18.8845 25.3446 18.3565 24.8286 18.3565 24.1936C18.3565 23.5576 18.8845 23.0416 19.5345 23.0416C20.1845 23.0416 20.7125 23.5576 20.7125 24.1936C20.7125 24.8286 20.1855 25.3436 19.5345 25.3436L19.5355 25.3446ZM10.3025 25.3446C9.54249 25.3446 8.92749 24.7436 8.92749 24.0016C8.92749 23.2596 9.54349 22.6596 10.3025 22.6596C11.0615 22.6596 11.6775 23.2596 11.6775 24.0016C11.6775 24.7436 11.0615 25.3446 10.3025 25.3446ZM6.17749 15.3726C5.52749 15.3726 4.99949 14.8566 4.99949 14.2206C4.99949 13.5856 5.52649 13.0706 6.17749 13.0706C6.82849 13.0706 7.35549 13.5856 7.35549 14.2206C7.35549 14.8566 6.82749 15.3726 6.17749 15.3726Z" fill="white"/>
<path opacity="0.5" d="M12.4995 17.1396C11.6315 17.1396 10.9275 16.4536 10.9275 15.6056C10.9275 14.7586 11.6315 14.0716 12.5005 14.0716C13.3695 14.0716 14.0725 14.7586 14.0725 15.6056C14.0725 16.4536 13.3685 17.1396 12.5005 17.1396H12.4995ZM20.7495 14.8396C19.8815 14.8396 19.1775 14.1526 19.1775 13.3046C19.1775 12.4576 19.8815 11.7706 20.7505 11.7706C21.6185 11.7706 22.3225 12.4576 22.3225 13.3046C22.3225 14.1526 21.6185 14.8386 20.7505 14.8386L20.7495 14.8396ZM25.0705 21.3606C24.4205 21.3606 23.8925 20.8456 23.8925 20.2096C23.8925 19.5736 24.4205 19.0586 25.0705 19.0586C25.7205 19.0586 26.2485 19.5736 26.2485 20.2086C26.2485 20.8456 25.7215 21.3606 25.0705 21.3606ZM26.2505 16.7576C26.0975 16.7593 25.9457 16.7309 25.8037 16.6739C25.6617 16.617 25.5323 16.5326 25.4229 16.4256C25.3135 16.3186 25.2262 16.1912 25.1661 16.0505C25.106 15.9098 25.0742 15.7586 25.0725 15.6056C25.0725 14.9706 25.5995 14.4556 26.2505 14.4556C26.9005 14.4556 27.4275 14.9706 27.4275 15.6056C27.4275 16.2416 26.9005 16.7576 26.2505 16.7576ZM21.7325 11.3876C21.6049 11.3892 21.4783 11.3656 21.3599 11.3182C21.2415 11.2708 21.1336 11.2005 21.0424 11.1113C20.9511 11.0221 20.8784 10.9159 20.8283 10.7985C20.7782 10.6812 20.7518 10.5552 20.7505 10.4276C20.7521 10.3002 20.7787 10.1744 20.8289 10.0573C20.8791 9.94024 20.9519 9.83418 21.0431 9.74522C21.1342 9.65626 21.2421 9.58614 21.3604 9.53885C21.4787 9.49156 21.6051 9.46804 21.7325 9.46962C21.86 9.46804 21.9865 9.4916 22.1048 9.53895C22.2232 9.5863 22.3311 9.65651 22.4223 9.74558C22.5135 9.83464 22.5862 9.94081 22.6364 10.058C22.6865 10.1752 22.7131 10.3012 22.7145 10.4286C22.7129 10.556 22.6863 10.6818 22.6361 10.7989C22.5859 10.916 22.5131 11.0221 22.4219 11.111C22.3307 11.2 22.2229 11.2701 22.1046 11.3174C21.9863 11.3647 21.8599 11.3882 21.7325 11.3866V11.3876ZM21.9275 8.31862C21.4945 8.31862 21.1425 7.97562 21.1425 7.55162C21.1425 7.12762 21.4945 6.78463 21.9275 6.78463C22.3615 6.78463 22.7135 7.12862 22.7135 7.55162C22.7135 7.97462 22.3615 8.31862 21.9275 8.31862ZM23.6955 9.08562C23.3695 9.08562 23.1055 8.82762 23.1055 8.51062C23.1055 8.19362 23.3695 7.93462 23.6955 7.93462C24.0215 7.93462 24.2855 8.19262 24.2855 8.51062C24.2855 8.82862 24.0215 9.08562 23.6955 9.08562ZM26.8395 13.6896C26.5145 13.6896 26.2495 13.4316 26.2495 13.1136C26.2495 12.7956 26.5145 12.5376 26.8395 12.5376C27.1645 12.5376 27.4295 12.7956 27.4295 13.1136C27.4295 13.4316 27.1655 13.6896 26.8395 13.6896ZM9.94549 8.70263C9.61949 8.70263 9.35549 8.44562 9.35549 8.12762C9.35549 7.80962 9.61949 7.55162 9.94549 7.55162C10.2715 7.55162 10.5355 7.80962 10.5355 8.12762C10.5355 8.44562 10.2715 8.70263 9.94549 8.70263ZM9.16049 13.6896C8.83449 13.6896 8.57049 13.4316 8.57049 13.1136C8.57049 12.7956 8.83449 12.5376 9.16049 12.5376C9.48649 12.5376 9.75049 12.7956 9.75049 13.1136C9.75049 13.4316 9.48649 13.6896 9.16049 13.6896ZM10.7325 14.4566C10.4065 14.4566 10.1425 14.1986 10.1425 13.8806C10.1425 13.5626 10.4065 13.3046 10.7325 13.3046C11.0585 13.3046 11.3225 13.5626 11.3225 13.8806C11.3225 14.1986 11.0585 14.4566 10.7325 14.4566ZM12.6955 7.16663C12.3695 7.16663 12.1055 6.90862 12.1055 6.59062C12.1055 6.27262 12.3695 6.01562 12.6955 6.01562C13.0215 6.01562 13.2855 6.27262 13.2855 6.59062C13.2855 6.90862 13.0215 7.16663 12.6955 7.16663ZM26.8395 18.6756C26.5145 18.6756 26.2495 18.4176 26.2495 18.0996C26.2495 17.7816 26.5145 17.5246 26.8395 17.5246C27.1645 17.5246 27.4295 17.7816 27.4295 18.0996C27.4295 18.4176 27.1655 18.6756 26.8395 18.6756ZM24.8755 12.5376C24.1155 12.5376 23.5005 11.9376 23.5005 11.1956C23.5005 10.4536 24.1155 9.85262 24.8755 9.85262C25.6345 9.85262 26.2505 10.4536 26.2505 11.1956C26.2505 11.9366 25.6345 12.5376 24.8755 12.5376ZM23.6955 15.6056C23.5681 15.6072 23.4417 15.5837 23.3234 15.5364C23.2051 15.4891 23.0972 15.419 23.0061 15.33C22.9149 15.2411 22.8421 15.135 22.7919 15.0179C22.7417 14.9008 22.7151 14.775 22.7135 14.6476C22.7135 14.1176 23.1535 13.6896 23.6955 13.6896C23.8229 13.688 23.9493 13.7116 24.0676 13.7588C24.1859 13.8061 24.2937 13.8763 24.3849 13.9652C24.4761 14.0542 24.5489 14.1602 24.5991 14.2773C24.6493 14.3944 24.6759 14.5202 24.6775 14.6476C24.6759 14.775 24.6493 14.9008 24.5991 15.0179C24.5489 15.135 24.4761 15.2411 24.3849 15.33C24.2937 15.419 24.1859 15.4891 24.0676 15.5364C23.9493 15.5837 23.8229 15.6072 23.6955 15.6056ZM10.3395 11.3866C10.2121 11.3882 10.0857 11.3647 9.96736 11.3174C9.84907 11.2701 9.74125 11.2 9.65006 11.111C9.55887 11.0221 9.4861 10.916 9.4359 10.7989C9.3857 10.6818 9.35905 10.556 9.35749 10.4286C9.35749 9.89863 9.79749 9.46962 10.3395 9.46962C10.8815 9.46962 11.3225 9.89963 11.3225 10.4286C11.3209 10.5561 11.2942 10.682 11.244 10.7992C11.1937 10.9163 11.1209 11.0224 11.0296 11.1114C10.9383 11.2004 10.8303 11.2705 10.7119 11.3177C10.5935 11.3649 10.467 11.3883 10.3395 11.3866ZM14.6595 8.70162C14.5321 8.70321 14.4057 8.67969 14.2874 8.6324C14.1691 8.58511 14.0612 8.51499 13.9701 8.42603C13.8789 8.33706 13.8061 8.23101 13.7559 8.11393C13.7057 7.99684 13.6791 7.87101 13.6775 7.74362C13.6775 7.21362 14.1175 6.78463 14.6605 6.78463C15.2035 6.78463 15.6425 7.21462 15.6425 7.74362C15.6409 7.87101 15.6143 7.99684 15.5641 8.11393C15.5139 8.23101 15.4411 8.33706 15.3499 8.42603C15.2587 8.51499 15.1509 8.58511 15.0326 8.6324C14.9143 8.67969 14.7879 8.70321 14.6605 8.70162H14.6595ZM12.1075 9.08562C11.6735 9.08562 11.3225 8.74262 11.3225 8.31862C11.3225 7.89462 11.6735 7.55162 12.1075 7.55162C12.5415 7.55162 12.8925 7.89562 12.8925 8.31862C12.8925 8.74162 12.5415 9.08562 12.1075 9.08562ZM7.78549 12.1536C7.68358 12.1548 7.58244 12.1359 7.48783 12.098C7.39323 12.0601 7.30702 12.0039 7.23412 11.9327C7.16123 11.8615 7.10307 11.7766 7.06299 11.6829C7.0229 11.5892 7.00166 11.4885 7.00049 11.3866C7.00049 10.9636 7.35149 10.6196 7.78549 10.6196C8.21949 10.6196 8.57049 10.9636 8.57049 11.3866C8.56931 11.4885 8.54808 11.5892 8.50799 11.6829C8.4679 11.7766 8.40975 11.8615 8.33685 11.9327C8.26396 12.0039 8.17775 12.0601 8.08314 12.098C7.98854 12.1359 7.8874 12.1548 7.78549 12.1536ZM24.2855 18.2916C24.1836 18.2928 24.0824 18.2739 23.9878 18.236C23.8932 18.1981 23.807 18.1419 23.7341 18.0707C23.6612 17.9995 23.6031 17.9146 23.563 17.8209C23.5229 17.7272 23.5017 17.6265 23.5005 17.5246C23.5005 17.1006 23.8515 16.7576 24.2855 16.7576C24.7195 16.7576 25.0705 17.1006 25.0705 17.5246C25.0693 17.6265 25.0481 17.7272 25.008 17.8209C24.9679 17.9146 24.9097 17.9995 24.8369 18.0707C24.764 18.1419 24.6777 18.1981 24.5831 18.236C24.4885 18.2739 24.3874 18.2928 24.2855 18.2916ZM15.8395 18.6756C15.0795 18.6756 14.4645 18.0746 14.4645 17.3326C14.4645 16.5906 15.0805 15.9906 15.8395 15.9906C16.5995 15.9906 17.2145 16.5906 17.2145 17.3326C17.2145 18.0746 16.5995 18.6756 15.8395 18.6756ZM13.2855 19.4426C13.1836 19.4438 13.0824 19.4249 12.9878 19.387C12.8932 19.3491 12.807 19.2929 12.7341 19.2217C12.6612 19.1505 12.6031 19.0656 12.563 18.9719C12.5229 18.8782 12.5017 18.7775 12.5005 18.6756C12.5005 18.2516 12.8515 17.9086 13.2855 17.9086C13.7195 17.9086 14.0705 18.2516 14.0705 18.6756C14.0693 18.7775 14.0481 18.8782 14.008 18.9719C13.9679 19.0656 13.9097 19.1505 13.8369 19.2217C13.764 19.2929 13.6777 19.3491 13.5831 19.387C13.4885 19.4249 13.3874 19.4438 13.2855 19.4426ZM13.6775 22.5106C13.0275 22.5106 12.5005 21.9946 12.5005 21.3586C12.5005 20.7236 13.0275 20.2086 13.6775 20.2086C14.3275 20.2086 14.8555 20.7236 14.8555 21.3586C14.8555 21.9946 14.3285 22.5106 13.6775 22.5106ZM13.6775 24.8106C13.4718 24.813 13.2737 24.7337 13.1265 24.5901C12.9793 24.4464 12.8951 24.2503 12.8925 24.0446C12.8925 23.6206 13.2445 23.2776 13.6775 23.2776C14.1105 23.2776 14.4635 23.6206 14.4635 24.0446C14.4623 24.1466 14.441 24.2474 14.4009 24.3411C14.3607 24.4349 14.3025 24.5198 14.2295 24.5911C14.1565 24.6623 14.0702 24.7185 13.9754 24.7563C13.8807 24.7941 13.7795 24.8129 13.6775 24.8116V24.8106Z" fill="white"/>
</g>
<defs>
<clipPath id="clip0_1_5558">
<rect width="32" height="32" fill="white" transform="translate(0.000488281 0.015625)"/>
</clipPath>
</defs>
</svg>
