<svg width="32" height="33" viewBox="0 0 32 33" fill="none" xmlns="http://www.w3.org/2000/svg">
<g clip-path="url(#clip0_1_5554)">
<path d="M16.0005 32.0156C24.837 32.0156 32.0005 24.8522 32.0005 16.0156C32.0005 7.17907 24.837 0.015625 16.0005 0.015625C7.16393 0.015625 0.000488281 7.17907 0.000488281 16.0156C0.000488281 24.8522 7.16393 32.0156 16.0005 32.0156Z" fill="#57BEEA"/>
<path d="M7.02649 19.0246C6.64589 19.069 6.26022 19.0322 5.89488 18.9167C5.52953 18.8012 5.19282 18.6095 4.90691 18.3544C4.62101 18.0993 4.3924 17.7865 4.23617 17.4367C4.07993 17.0868 3.99961 16.7078 4.00049 16.3246C3.99886 15.6095 4.27977 14.9227 4.78207 14.4136C5.28436 13.9046 5.96739 13.6145 6.68249 13.6066C7.64249 9.19662 11.5525 5.89563 16.2285 5.89563C17.1015 5.89563 17.9485 6.01063 18.7535 6.22563C18.9997 5.85359 19.3342 5.54835 19.7272 5.3372C20.1202 5.12605 20.5594 5.01557 21.0055 5.01563C21.7246 5.01748 22.4135 5.30485 22.9208 5.81455C23.428 6.32424 23.7121 7.01453 23.7105 7.73362C23.7105 8.20263 23.5925 8.64363 23.3845 9.02763C25.0701 10.8456 26.0047 13.2344 26.0005 15.7136C26.0028 17.0122 25.7473 18.2982 25.2488 19.4973C24.7503 20.6963 24.0187 21.7845 23.0965 22.6986C23.4225 23.1466 23.6145 23.6996 23.6145 24.2976C23.6153 24.6538 23.5459 25.0066 23.4103 25.3359C23.2748 25.6653 23.0757 25.9647 22.8244 26.2171C22.5731 26.4694 22.2746 26.6699 21.9459 26.8069C21.6171 26.9439 21.2646 27.0148 20.9085 27.0156C20.3639 27.015 19.8322 26.8501 19.3828 26.5425C18.9334 26.235 18.5872 25.799 18.3895 25.2916C17.6807 25.4518 16.9562 25.5323 16.2295 25.5316C11.9885 25.5316 8.37849 22.8176 7.02649 19.0246ZM7.51649 18.9196C8.81649 22.4876 12.2265 25.0346 16.2285 25.0346C16.9235 25.0346 17.6005 24.9576 18.2515 24.8126C18.1747 24.4201 18.1856 24.0155 18.2835 23.6278C18.3814 23.24 18.5638 22.8787 18.8178 22.5697C19.0717 22.2607 19.3908 22.0117 19.7523 21.8406C20.1137 21.6694 20.5086 21.5803 20.9085 21.5796C21.6285 21.5796 22.2845 21.8626 22.7685 22.3236C23.6379 21.4566 24.3272 20.4263 24.797 19.2919C25.2667 18.1575 25.5075 16.9414 25.5055 15.7136C25.5055 13.3036 24.5955 11.1076 23.1005 9.45362C22.6045 10.0636 21.8505 10.4526 21.0055 10.4526C20.6493 10.4518 20.2967 10.3809 19.9679 10.2438C19.6391 10.1067 19.3405 9.9062 19.0892 9.6537C18.8379 9.40121 18.6388 9.10168 18.5033 8.77223C18.3678 8.44278 18.2986 8.08985 18.2995 7.73362C18.2995 7.35962 18.3755 7.00263 18.5115 6.67763C17.7653 6.48835 16.9983 6.39295 16.2285 6.39362C11.8125 6.39362 8.11649 9.49463 7.18149 13.6486C7.80799 13.7624 8.37458 14.0927 8.78221 14.5819C9.18985 15.071 9.41258 15.6879 9.41149 16.3246C9.4124 16.9026 9.22907 17.4657 8.88812 17.9324C8.54717 18.399 8.06636 18.7448 7.51549 18.9196H7.51649ZM16.2285 18.4356C15.872 18.4347 15.5191 18.3636 15.19 18.2263C14.861 18.089 14.5622 17.8882 14.3107 17.6355C14.0593 17.3827 13.8601 17.0829 13.7245 16.7531C13.5889 16.4234 13.5196 16.0702 13.5205 15.7136C13.5205 14.2106 14.7325 12.9926 16.2285 12.9926C17.7245 12.9926 18.9375 14.2106 18.9375 15.7136C18.9384 16.0702 18.8691 16.4236 18.7334 16.7534C18.5978 17.0832 18.3984 17.3831 18.1469 17.6358C17.8953 17.8886 17.5964 18.0893 17.2673 18.2266C16.9381 18.3638 16.5851 18.4348 16.2285 18.4356Z" fill="white"/>
</g>
<defs>
<clipPath id="clip0_1_5554">
<rect width="32" height="32" fill="white" transform="translate(0.000488281 0.015625)"/>
</clipPath>
</defs>
</svg>
