<svg width="32" height="33" viewBox="0 0 32 33" fill="none" xmlns="http://www.w3.org/2000/svg">
<g clip-path="url(#clip0_1_5547)">
<path d="M16.001 32.0156C24.8375 32.0156 32.001 24.8522 32.001 16.0156C32.001 7.17907 24.8375 0.015625 16.001 0.015625C7.16442 0.015625 0.000976562 7.17907 0.000976562 16.0156C0.000976562 24.8522 7.16442 32.0156 16.001 32.0156Z" fill="#0CAFA5"/>
<path d="M8.06098 12.0243C8.02798 12.0043 8.00098 12.0203 8.00098 12.0593V14.3613C8.00205 14.3822 8.00804 14.4027 8.01846 14.4209C8.02888 14.4392 8.04345 14.4547 8.06098 14.4663L10.971 16.1483C10.9885 16.1598 11.0031 16.1754 11.0135 16.1936C11.0239 16.2118 11.0299 16.2323 11.031 16.2533V24.5833C11.0323 24.6044 11.0387 24.6249 11.0494 24.6432C11.0602 24.6614 11.0751 24.6769 11.093 24.6883L13.086 25.8383C13.119 25.8583 13.146 25.8423 13.146 25.8033V15.0333C13.1451 15.0121 13.1391 14.9915 13.1287 14.973C13.1183 14.9546 13.1036 14.9389 13.086 14.9273L8.06098 12.0243ZM23.235 12.0243C23.268 12.0043 23.295 12.0203 23.295 12.0593V14.3613C23.2939 14.3822 23.2879 14.4027 23.2775 14.4209C23.2671 14.4392 23.2525 14.4547 23.235 14.4663L20.325 16.1463C20.3073 16.1579 20.2927 16.1736 20.2822 16.192C20.2718 16.2105 20.2659 16.2311 20.265 16.2523V24.5823C20.2639 24.6035 20.2578 24.6241 20.2472 24.6426C20.2366 24.661 20.2218 24.6766 20.204 24.6883L18.211 25.8383C18.177 25.8583 18.15 25.8423 18.15 25.8033V15.0333C18.151 15.0121 18.1569 14.9915 18.1673 14.9731C18.1778 14.9547 18.1924 14.939 18.21 14.9273L23.235 12.0243Z" fill="white"/>
<path d="M23.962 7.05908C23.962 7.02108 23.935 7.00508 23.902 7.02408L16.042 11.5701C16.0234 11.5794 16.0028 11.5843 15.982 11.5843C15.9611 11.5843 15.9406 11.5794 15.922 11.5701L8.06198 7.02408C8.02798 7.00408 8.00098 7.02108 8.00098 7.05908V9.36108C8.00205 9.38206 8.00803 9.40249 8.01846 9.42073C8.02888 9.43897 8.04345 9.45451 8.06098 9.46608L14.865 13.4001C14.8825 13.4117 14.897 13.4273 14.9074 13.4455C14.9178 13.4637 14.9238 13.4841 14.925 13.5051V27.7901C14.926 27.8113 14.9321 27.832 14.9427 27.8504C14.9533 27.8689 14.9681 27.8845 14.986 27.8961L15.921 28.4361C15.94 28.4454 15.9608 28.4503 15.982 28.4503C16.0031 28.4503 16.024 28.4454 16.043 28.4361L16.978 27.8961C16.9956 27.8844 17.0103 27.8687 17.0207 27.8503C17.0311 27.8319 17.0371 27.8112 17.038 27.7901V13.5061C17.0392 13.485 17.0454 13.4646 17.056 13.4463C17.0666 13.4281 17.0813 13.4126 17.099 13.4011L23.902 9.46608C23.9196 9.45441 23.9343 9.43872 23.9447 9.42029C23.9551 9.40187 23.9611 9.38123 23.962 9.36008V7.06008V7.05908ZM16.018 12.8751C16.01 12.8751 16.007 12.8691 16.011 12.8621C16.015 12.8551 16.021 12.8551 16.025 12.8621C16.029 12.8691 16.025 12.8751 16.018 12.8751Z" fill="white"/>
<path d="M15.07 7.1908C15.0507 7.19505 15.0335 7.20564 15.021 7.22087C15.0084 7.2361 15.0014 7.25509 15.001 7.2748V10.1478C15.0022 10.1688 15.0084 10.1893 15.019 10.2075C15.0296 10.2258 15.0443 10.2413 15.062 10.2528L15.997 10.7928C16.035 10.8128 16.08 10.8128 16.119 10.7928L17.054 10.2528C17.0715 10.2412 17.086 10.2256 17.0964 10.2074C17.1068 10.1892 17.1128 10.1688 17.114 10.1478V7.2738C17.1138 7.25418 17.1069 7.23521 17.0946 7.21996C17.0823 7.20471 17.0651 7.19408 17.046 7.1898L16.126 7.0208C16.0806 7.0139 16.0344 7.0139 15.989 7.0208L15.07 7.1908Z" fill="white"/>
</g>
<defs>
<clipPath id="clip0_1_5547">
<rect width="32" height="32" fill="white" transform="translate(0.000976562 0.015625)"/>
</clipPath>
</defs>
</svg>
