<svg width="32" height="33" viewBox="0 0 32 33" fill="none" xmlns="http://www.w3.org/2000/svg">
<g clip-path="url(#clip0_1_5543)">
<path d="M16.001 32.0156C24.8375 32.0156 32.001 24.8522 32.001 16.0156C32.001 7.17907 24.8375 0.015625 16.001 0.015625C7.16442 0.015625 0.000976562 7.17907 0.000976562 16.0156C0.000976562 24.8522 7.16442 32.0156 16.001 32.0156Z" fill="#1C1C1C"/>
<path d="M25.001 11.0156V21.0156L16.501 26.0156L8.00098 21.0156V11.0156L16.501 6.01562L25.001 11.0156ZM16.233 16.4226L15.443 16.8896L16.919 17.7516L17.704 17.2886L19.803 18.5236L16.672 20.3636L10.177 16.5776L10.15 18.4206L16.676 22.2106L22.946 18.5236L19.272 16.3616L20.012 15.9246L18.536 15.0626L17.801 15.4966L16.771 14.8906L17.672 14.3576L16.196 13.4946L15.299 14.0246L13.545 12.9926L16.675 11.1516L21.003 13.6806L22.589 12.7426L16.672 9.30462L10.402 12.9926L13.731 14.9516L13.103 15.3216L14.579 16.1846L15.202 15.8166L16.233 16.4226Z" fill="white"/>
</g>
<defs>
<clipPath id="clip0_1_5543">
<rect width="32" height="32" fill="white" transform="translate(0.000976562 0.015625)"/>
</clipPath>
</defs>
</svg>
