<svg width="32" height="33" viewBox="0 0 32 33" fill="none" xmlns="http://www.w3.org/2000/svg">
<g clip-path="url(#clip0_1_5516)">
<path d="M16.001 32.0156C24.8375 32.0156 32.001 24.8522 32.001 16.0156C32.001 7.17907 24.8375 0.015625 16.001 0.015625C7.16442 0.015625 0.000976562 7.17907 0.000976562 16.0156C0.000976562 24.8522 7.16442 32.0156 16.001 32.0156Z" fill="#00D4D5"/>
<path d="M17.001 5.01562V10.4726L21.739 7.74762L17.001 5.01562Z" fill="white"/>
<path opacity="0.9" d="M21.001 8.01562V13.4726L25.738 10.7406L21.001 8.01562Z" fill="white"/>
<path opacity="0.8" d="M17.001 10.0156V15.4726L21.739 12.7476L17.001 10.0156ZM21.739 12.7486V18.2046L26.476 15.4726L21.739 12.7486Z" fill="white"/>
<path opacity="0.8" d="M17.001 16.0156V21.4726L21.739 18.7476L17.001 16.0156Z" fill="white"/>
<path d="M21.001 19.0156V24.4726L25.738 21.7406L21.001 19.0156Z" fill="white"/>
<path opacity="0.4" d="M4.00098 10.0156V15.4726L8.73898 12.7406L4.00098 10.0156Z" fill="white"/>
<path opacity="0.2" d="M10.001 12.0156V17.4726L14.731 14.7476L10.001 12.0156Z" fill="white"/>
<path opacity="0.3" d="M7.00098 16.0156V21.4726L11.738 18.7406L7.00098 16.0156Z" fill="white"/>
<path opacity="0.9" d="M10.001 20.0156V25.4726L14.731 22.7406L10.001 20.0156Z" fill="white"/>
<path opacity="0.7" d="M16.001 22.0156V27.4736L20.731 24.7406L16.001 22.0156Z" fill="white"/>
<path opacity="0.9" d="M11.001 10.0156V15.4736L15.731 12.7486L11.001 10.0156Z" fill="white"/>
<path opacity="0.8" d="M16.739 5.01562V10.4726L12.001 7.74762L16.739 5.01562Z" fill="white"/>
<path opacity="0.6" d="M10.74 7.01562V12.4716L6.00098 9.73962L10.74 7.01562Z" fill="white"/>
<path opacity="0.6" d="M15.739 10.0156V15.4736L11.001 12.7406L15.739 10.0156Z" fill="white"/>
<path opacity="0.95" d="M9.73898 12.0156V17.4726L5.00098 14.7476L9.73898 12.0156Z" fill="white"/>
<path opacity="0.6" d="M16.731 16.0156V21.4726L12.001 18.7476L16.731 16.0156Z" fill="white"/>
<path opacity="0.55" d="M6.73898 17.0156V22.4726L2.00098 19.7396L6.73898 17.0156Z" fill="white"/>
<path d="M25.738 10.0156V15.4726L21.001 12.7476L25.738 10.0156Z" fill="white"/>
<path opacity="0.95" d="M21.739 13.0156V18.4716L17.001 15.7396L21.739 13.0156Z" fill="white"/>
<path opacity="0.9" d="M25.738 16.0156V21.4726L21.001 18.7476L25.738 16.0156Z" fill="white"/>
<path opacity="0.7" d="M21.739 19.0156V24.4726L17.001 21.7406L21.739 19.0156Z" fill="white"/>
<path opacity="0.4" d="M15.738 21.0156V26.4726L11.001 23.7476L15.738 21.0156Z" fill="white"/>
<path d="M21.739 8.01562V13.4726L17.001 10.7406L21.739 8.01562Z" fill="white"/>
</g>
<defs>
<clipPath id="clip0_1_5516">
<rect width="32" height="32" fill="white" transform="translate(0.000976562 0.015625)"/>
</clipPath>
</defs>
</svg>
