<svg width="32" height="33" viewBox="0 0 32 33" fill="none" xmlns="http://www.w3.org/2000/svg">
<g clip-path="url(#clip0_1_5512)">
<path d="M16 32.0166C24.8366 32.0166 32 24.8532 32 16.0166C32 7.18005 24.8366 0.0166016 16 0.0166016C7.16344 0.0166016 0 7.18005 0 16.0166C0 24.8532 7.16344 32.0166 16 32.0166Z" fill="#55DDFF"/>
<path d="M11.8272 10.1366C11.8337 8.24055 12.5468 6.415 13.8272 5.0166C14.1772 4.6666 14.2172 4.5966 14.2172 4.3166C14.2172 4.0366 14.2172 4.0166 14.0072 4.0166C13.7476 4.04535 13.4903 4.09213 13.2372 4.1566C10.2525 4.86167 7.64691 6.67381 5.94724 9.2266C5.12663 10.4371 4.54925 11.7957 4.24724 13.2266C3.99686 14.5445 3.93624 15.8915 4.06724 17.2266C4.43465 20.1891 5.9234 22.8982 8.22724 24.7966C9.45724 25.7966 10.8372 26.5966 10.8372 26.2366C10.7565 26.0815 10.6481 25.9426 10.5172 25.8266C9.89845 25.1446 9.43566 24.3359 9.16107 23.4569C8.88649 22.5779 8.80669 21.6496 8.92724 20.7366C9.01619 19.6022 9.37016 18.5045 9.96069 17.5319C10.5512 16.5593 11.3618 15.7388 12.3272 15.1366C12.5711 14.9629 12.8286 14.809 13.0972 14.6766C13.2472 14.6766 13.1572 14.3766 12.7872 13.6766C12.1542 12.6046 11.8225 11.3815 11.8272 10.1366ZM27.3372 13.2566C26.9836 11.5341 26.2557 9.9103 25.205 8.50021C24.1544 7.09013 22.8067 5.92818 21.2572 5.0966C20.6972 4.7866 20.4172 4.7166 20.4172 4.9066C20.4701 5.06651 20.5514 5.21557 20.6572 5.3466C21.2771 6.22715 21.6248 7.27027 21.6572 8.3466C21.7202 8.90778 21.6637 9.47593 21.4913 10.0137C21.319 10.5514 21.0347 11.0466 20.6572 11.4666C20.4634 11.6721 20.1968 11.7935 19.9145 11.8047C19.6322 11.8159 19.3568 11.7161 19.1472 11.5266C18.7472 11.2366 18.7472 11.0366 18.9972 10.6666C19.527 9.8875 19.7901 8.95777 19.7472 8.0166C19.7861 7.63822 19.7398 7.25594 19.6118 6.89777C19.4837 6.53959 19.2772 6.2146 19.0072 5.9466C18.7617 5.69196 18.4508 5.50971 18.1087 5.41977C17.7666 5.32983 17.4063 5.33565 17.0672 5.4366C16.5824 5.63195 16.1534 5.94417 15.8184 6.34546C15.4834 6.74675 15.2528 7.22464 15.1472 7.7366C14.9179 8.4766 14.7835 9.24273 14.7472 10.0166C14.7546 11.2016 15.0461 12.3675 15.5972 13.4166C15.9817 14.0196 16.4574 14.5593 17.0072 15.0166C17.1172 15.0886 17.2142 15.1766 17.2972 15.2766C17.2006 15.3561 17.0881 15.414 16.9672 15.4466C16.1944 15.8123 15.5025 16.329 14.9323 16.9661C14.3622 17.6033 13.9252 18.348 13.6472 19.1566C13.2812 20.0951 13.1176 21.1004 13.1672 22.1066C13.147 22.5809 13.2255 23.0541 13.3976 23.4965C13.5697 23.9389 13.8318 24.3407 14.1672 24.6766C14.5469 25.0052 14.9961 25.2434 15.4811 25.3733C15.9661 25.5032 16.4742 25.5215 16.9672 25.4266C18.2882 25.3278 19.5235 24.7351 20.4272 23.7666C20.8372 23.3266 20.9172 23.2766 20.9972 23.3766C21.0772 23.4766 21.0572 23.5366 20.9072 23.7866C19.9577 25.4085 18.4338 26.6147 16.6372 27.1666C16.2872 27.2566 16.1372 27.3266 16.1372 27.4066C16.1372 27.6666 18.3272 27.3066 19.6572 26.8366C21.3537 26.2168 22.8898 25.2251 24.153 23.9342C25.4162 22.6433 26.3743 21.086 26.9572 19.3766C27.3885 18.1861 27.5755 16.921 27.5072 15.6566C27.5528 14.8526 27.4957 14.0461 27.3372 13.2566Z" fill="white"/>
</g>
<defs>
<clipPath id="clip0_1_5512">
<rect width="32" height="32" fill="white" transform="translate(0 0.0166016)"/>
</clipPath>
</defs>
</svg>
