<svg width="32" height="33" viewBox="0 0 32 33" fill="none" xmlns="http://www.w3.org/2000/svg">
<g clip-path="url(#clip0_1_5508)">
<path d="M16 32.0166C24.8366 32.0166 32 24.8532 32 16.0166C32 7.18005 24.8366 0.0166016 16 0.0166016C7.16344 0.0166016 0 7.18005 0 16.0166C0 24.8532 7.16344 32.0166 16 32.0166Z" fill="#102044"/>
<path d="M24.248 19.3666C24.698 19.5396 24.996 19.9676 25 20.4466C25.0002 20.6473 24.9479 20.8445 24.8483 21.0187C24.7486 21.1929 24.6051 21.338 24.432 21.4396C24.2583 21.5417 24.0611 21.5972 23.8597 21.6007C23.6582 21.6042 23.4592 21.5556 23.282 21.4596L17.252 24.7496C17.2669 24.9086 17.2488 25.069 17.1988 25.2207C17.1488 25.3724 17.0679 25.5121 16.9614 25.6311C16.8548 25.7501 16.7248 25.8457 16.5795 25.9121C16.4342 25.9784 16.2767 26.014 16.117 26.0166C15.8095 26.0241 15.5116 25.9092 15.2888 25.6971C15.066 25.485 14.9366 25.1931 14.929 24.8856L11.989 23.2026H11.922V23.1676L8.82402 21.3966C8.63058 21.53 8.40101 21.6012 8.16602 21.6006C7.88626 21.6021 7.61539 21.5024 7.40333 21.3199C7.19127 21.1374 7.0523 20.8845 7.01202 20.6076C6.97337 20.3309 7.03639 20.0496 7.1894 19.8159C7.3424 19.5822 7.57499 19.4119 7.84402 19.3366V12.7206C7.61767 12.6571 7.41604 12.5261 7.26598 12.3452C7.11592 12.1642 7.02454 11.9418 7.00402 11.7076C6.96402 11.2296 7.22502 10.7766 7.66202 10.5696C7.8752 10.4684 8.11399 10.434 8.34707 10.4709C8.58015 10.5079 8.7966 10.6144 8.96802 10.7766L14.938 7.35661C14.912 7.19074 14.9222 7.0212 14.9681 6.85969C15.014 6.69818 15.0944 6.54855 15.2037 6.42114C15.313 6.29373 15.4487 6.19158 15.6014 6.12173C15.7541 6.05189 15.9201 6.01602 16.088 6.01661C16.2608 6.01633 16.4315 6.05464 16.5875 6.12876C16.7436 6.20288 16.8811 6.31092 16.9901 6.445C17.0991 6.57908 17.1767 6.7358 17.2174 6.90373C17.258 7.07166 17.2606 7.24654 17.225 7.41561L23.053 10.7536C23.266 10.5616 23.543 10.4556 23.832 10.4566C23.9896 10.3977 24.1582 10.374 24.326 10.3872C24.4937 10.4004 24.6565 10.4502 24.803 10.533C24.9495 10.6158 25.076 10.7296 25.1738 10.8665C25.2716 11.0034 25.3383 11.1601 25.3691 11.3255C25.3999 11.4909 25.3941 11.6611 25.3522 11.824C25.3103 11.987 25.2332 12.1388 25.1264 12.2687C25.0195 12.3987 24.8856 12.5038 24.7338 12.5765C24.5821 12.6492 24.4163 12.6878 24.248 12.6896V19.3676V19.3666ZM20.13 16.7616V22.4446L22.802 20.9876C22.7187 20.8282 22.6737 20.6517 22.6703 20.4719C22.667 20.2922 22.7055 20.1141 22.7828 19.9517C22.8601 19.7894 22.974 19.6472 23.1157 19.5365C23.2574 19.4257 23.4228 19.3494 23.599 19.3136V12.7436C23.3364 12.6917 23.0997 12.5505 22.9293 12.344C22.7589 12.1375 22.6652 11.8784 22.664 11.6106C22.664 11.5046 22.679 11.3986 22.708 11.2956L20.175 9.84361V15.1276H20.171L20.161 15.4736L20.018 15.5406L19.105 16.0866L19.978 16.6066L20.117 16.6726L20.121 16.7346L20.126 16.7616H20.13ZM16.09 8.32561C15.758 8.32561 15.442 8.18561 15.221 7.93861L12.571 9.45761V15.0696L13.659 15.7176L15.033 14.9096C15.0047 14.761 15.0096 14.6079 15.0474 14.4614C15.0852 14.3149 15.155 14.1786 15.2518 14.0622C15.3485 13.9459 15.4698 13.8524 15.607 13.7885C15.7441 13.7246 15.8937 13.6918 16.045 13.6926C16.1927 13.6923 16.3387 13.7238 16.473 13.7852C16.6073 13.8465 16.7268 13.9361 16.8233 14.0478C16.9197 14.1596 16.9909 14.2909 17.032 14.4327C17.073 14.5746 17.0829 14.7236 17.061 14.8696L18.48 15.7136L19.532 15.0836V9.47461L16.918 7.97761C16.8101 8.0877 16.6812 8.1751 16.5391 8.23469C16.3969 8.29428 16.2442 8.32485 16.09 8.32461V8.32561ZM16.77 16.7476L17.853 16.0956L16.765 15.4466C16.576 15.6302 16.3241 15.7349 16.0606 15.7391C15.7971 15.7434 15.5419 15.647 15.347 15.4696L14.277 16.0906L15.342 16.7256C15.5373 16.5451 15.7946 16.4468 16.0604 16.4508C16.3263 16.4549 16.5804 16.5612 16.77 16.7476ZM9.24202 20.8946L11.922 22.4306V16.9386L11.927 16.7616L11.972 16.7166L12.196 16.5836L13.028 16.0956L12.276 15.6516L11.927 15.4736V15.2606H11.923V9.82561L9.29502 11.3316C9.45002 11.9316 9.09502 12.5456 8.49502 12.7166V19.3406C8.81202 19.4326 9.07502 19.6556 9.21802 19.9516C9.36102 20.2486 9.37002 20.5916 9.24202 20.8946ZM16.09 23.6876C16.455 23.6876 16.798 23.8576 17.016 24.1496L19.486 22.7996V17.0636L18.48 16.4636L17.06 17.3166C17.07 17.3666 17.074 17.4166 17.074 17.4666C17.074 18.0316 16.614 18.4886 16.044 18.4886C15.8943 18.4887 15.7464 18.456 15.6107 18.3928C15.4749 18.3295 15.3547 18.2374 15.2584 18.1227C15.1622 18.008 15.0922 17.8736 15.0534 17.729C15.0146 17.5844 15.008 17.4331 15.034 17.2856L13.641 16.4596L12.567 17.0856V22.7996L15.092 24.2466C15.302 23.8986 15.681 23.6866 16.09 23.6876Z" fill="white"/>
</g>
<defs>
<clipPath id="clip0_1_5508">
<rect width="32" height="32" fill="white" transform="translate(0 0.0166016)"/>
</clipPath>
</defs>
</svg>
