<svg width="32" height="33" viewBox="0 0 32 33" fill="none" xmlns="http://www.w3.org/2000/svg">
<g clip-path="url(#clip0_1_5928)">
<path d="M16 32.0166C24.8366 32.0166 32 24.8532 32 16.0166C32 7.18005 24.8366 0.0166016 16 0.0166016C7.16344 0.0166016 0 7.18005 0 16.0166C0 24.8532 7.16344 32.0166 16 32.0166Z" fill="#0050DB"/>
<path d="M16 26.0166C15.3512 26.0163 14.7144 25.8419 14.156 25.5116L8.85001 22.3916C8.285 22.0555 7.81727 21.5781 7.49288 21.0063C7.16848 20.4344 6.99862 19.788 7.00001 19.1306V12.9006C7.00015 12.2438 7.17068 11.5982 7.49494 11.027C7.8192 10.4557 8.2861 9.97841 8.85001 9.6416L14.156 6.5216C14.7175 6.19167 15.3568 6.01736 16.008 6.0166C16.653 6.0166 17.288 6.1906 17.844 6.5216L23.15 9.6426C23.7147 9.97852 24.1823 10.4557 24.5066 11.0271C24.831 11.5985 25.001 12.2445 25 12.9016V19.1316C25 19.7886 24.8296 20.4344 24.5053 21.0058C24.1811 21.5772 23.7141 22.0547 23.15 22.3916L17.844 25.5116C17.284 25.8416 16.648 26.0166 16 26.0166ZM12.948 19.5876L11.965 20.5876C12.2184 20.8502 12.5226 21.0585 12.859 21.1998C13.1954 21.3411 13.5571 21.4125 13.922 21.4096C15.452 21.4076 16.694 20.1456 16.696 18.5866V17.7346C17.116 17.9816 17.593 18.1116 18.078 18.1106C18.4437 18.1175 18.807 18.0489 19.1451 17.9092C19.4831 17.7695 19.7888 17.5617 20.043 17.2986L19.061 16.2986C18.801 16.5646 18.447 16.7146 18.078 16.7146C17.7084 16.7106 17.3554 16.5603 17.0963 16.2966C16.8373 16.0329 16.6933 15.6773 16.696 15.3076V10.6116H15.314V18.5956C15.314 19.3746 14.694 20.0056 13.929 20.0056C13.7459 20.005 13.5647 19.9678 13.3962 19.896C13.2277 19.8242 13.0753 19.7193 12.948 19.5876Z" fill="white"/>
</g>
<defs>
<clipPath id="clip0_1_5928">
<rect width="32" height="32" fill="white" transform="translate(0 0.0166016)"/>
</clipPath>
</defs>
</svg>
