<svg width="32" height="33" viewBox="0 0 32 33" fill="none" xmlns="http://www.w3.org/2000/svg">
<g clip-path="url(#clip0_1_5920)">
<path d="M16 32.0166C24.8366 32.0166 32 24.8532 32 16.0166C32 7.18005 24.8366 0.0166016 16 0.0166016C7.16344 0.0166016 0 7.18005 0 16.0166C0 24.8532 7.16344 32.0166 16 32.0166Z" fill="#0093DD"/>
<path fill-rule="evenodd" clip-rule="evenodd" d="M14.04 16.0157L19.214 21.3457L22.479 17.9827C22.614 17.8419 22.776 17.7298 22.9555 17.6532C23.1349 17.5767 23.3279 17.5372 23.523 17.5372C23.7181 17.5372 23.9111 17.5767 24.0905 17.6532C24.27 17.7298 24.432 17.8419 24.567 17.9827C24.8447 18.2721 24.9998 18.6576 24.9998 19.0587C24.9998 19.4598 24.8447 19.8453 24.567 20.1347L20.258 24.5747C20.1223 24.7143 19.96 24.8253 19.7807 24.901C19.6014 24.9768 19.4087 25.0158 19.214 25.0158C19.0193 25.0158 18.8266 24.9768 18.6473 24.901C18.468 24.8253 18.3057 24.7143 18.17 24.5747L11.954 18.1687V21.9767C11.954 22.8127 11.288 23.4987 10.477 23.4987C9.661 23.4987 9 22.8167 9 21.9767V10.0557C9 9.21571 9.661 8.53371 10.477 8.53371C11.292 8.53371 11.954 9.21571 11.954 10.0557V13.8637L18.17 7.45771C18.3057 7.31813 18.468 7.20717 18.6473 7.13141C18.8266 7.05564 19.0193 7.0166 19.214 7.0166C19.4087 7.0166 19.6014 7.05564 19.7807 7.13141C19.96 7.20717 20.1223 7.31813 20.258 7.45771L24.568 11.8977C24.8457 12.1871 25.0008 12.5726 25.0008 12.9737C25.0008 13.3748 24.8457 13.7603 24.568 14.0497C24.433 14.1909 24.2708 14.3032 24.0912 14.38C23.9116 14.4567 23.7183 14.4963 23.523 14.4963C23.3277 14.4963 23.1344 14.4567 22.9548 14.38C22.7752 14.3032 22.613 14.1909 22.478 14.0497L19.214 10.6857L14.04 16.0157ZM19.216 14.4927C20.032 14.4927 20.694 15.1747 20.694 16.0157C20.694 16.8567 20.032 17.5387 19.216 17.5387C18.4 17.5387 17.738 16.8567 17.738 16.0157C17.738 15.1747 18.4 14.4927 19.216 14.4927Z" fill="white"/>
</g>
<defs>
<clipPath id="clip0_1_5920">
<rect width="32" height="32" fill="white" transform="translate(0 0.0166016)"/>
</clipPath>
</defs>
</svg>
