<svg width="32" height="33" viewBox="0 0 32 33" fill="none" xmlns="http://www.w3.org/2000/svg">
<g clip-path="url(#clip0_1_5916)">
<path d="M16 32.0166C24.8366 32.0166 32 24.8532 32 16.0166C32 7.18005 24.8366 0.0166016 16 0.0166016C7.16344 0.0166016 0 7.18005 0 16.0166C0 24.8532 7.16344 32.0166 16 32.0166Z" fill="#005FFF"/>
<path fill-rule="evenodd" clip-rule="evenodd" d="M13.701 18.0236V13.2066H14.826C15.069 13.2066 15.266 13.4006 15.266 13.6396V14.0556C15.266 14.5076 15.658 14.8956 16.115 14.8956C16.572 14.8956 16.919 14.5076 16.919 14.0556V13.6556C16.919 13.4076 17.122 13.2056 17.374 13.2056H18.627V14.4236C18.627 14.6716 18.423 14.8736 18.172 14.8736H17.747C17.529 14.8725 17.3194 14.9579 17.1642 15.1111C17.009 15.2642 16.9208 15.4726 16.919 15.6906C16.919 16.1416 17.343 16.5076 17.8 16.5076H18.175C18.425 16.5076 18.627 16.7076 18.627 16.9536V18.0236H19.636C19.986 18.0236 20.269 18.3016 20.269 18.6436V19.0106C20.269 19.3526 19.985 19.6306 19.636 19.6306H19.26C19.1777 19.6315 19.096 19.6162 19.0197 19.5855C18.9433 19.5549 18.8737 19.5094 18.8149 19.4519C18.7561 19.3943 18.7093 19.3257 18.677 19.2499C18.6448 19.1742 18.6278 19.0929 18.627 19.0106V18.1846H17.37C17.12 18.1846 16.919 17.9846 16.919 17.7386V17.3266C16.9148 17.1053 16.8245 16.8944 16.6673 16.7387C16.5101 16.5829 16.2983 16.4946 16.077 16.4926C15.62 16.4926 15.265 16.8926 15.265 17.3676V17.7416C15.265 17.9866 15.065 18.1846 14.817 18.1846H13.701V19.0106C13.701 19.3526 13.418 19.6306 13.068 19.6306H12.693C12.6107 19.6315 12.529 19.6162 12.4527 19.5855C12.3763 19.5549 12.3067 19.5094 12.2479 19.4519C12.1891 19.3943 12.1423 19.3257 12.11 19.2499C12.0778 19.1742 12.0608 19.0929 12.06 19.0106V18.6436C12.06 18.3016 12.343 18.0236 12.693 18.0236H13.701ZM19.636 13.0456H18.626V12.0596C18.626 11.7176 18.91 11.4396 19.26 11.4396H19.636C19.986 11.4396 20.269 11.7176 20.269 12.0596V12.4266C20.269 12.7686 19.985 13.0466 19.636 13.0466V13.0456ZM13.701 13.0456H12.693C12.6108 13.0465 12.5292 13.0312 12.4529 13.0006C12.3766 12.97 12.3071 12.9247 12.2483 12.8672C12.1895 12.8097 12.1426 12.7412 12.1103 12.6656C12.078 12.59 12.0609 12.5088 12.06 12.4266V12.0596C12.06 11.7176 12.343 11.4396 12.693 11.4396H13.068C13.418 11.4396 13.701 11.7176 13.701 12.0596V13.0456ZM15.976 11.6006C15.8937 11.6015 15.812 11.5862 15.7357 11.5555C15.6593 11.5249 15.5897 11.4794 15.5309 11.4219C15.4721 11.3643 15.4253 11.2957 15.393 11.2199C15.3608 11.1442 15.3438 11.0629 15.343 10.9806V10.6136C15.343 10.2716 15.627 9.9946 15.976 9.9946H16.352C16.702 9.9946 16.985 10.2716 16.985 10.6146V10.9816C16.9841 11.0638 16.967 11.145 16.9347 11.2206C16.9024 11.2962 16.8555 11.3647 16.7967 11.4222C16.7379 11.4797 16.6684 11.525 16.5921 11.5556C16.5158 11.5862 16.4342 11.6015 16.352 11.6006H15.976ZM15.976 21.3966C15.8937 21.3975 15.812 21.3822 15.7357 21.3515C15.6593 21.3209 15.5897 21.2754 15.5309 21.2179C15.4721 21.1603 15.4253 21.0917 15.393 21.0159C15.3608 20.9402 15.3438 20.8589 15.343 20.7766V20.4096C15.343 20.0676 15.627 19.7896 15.976 19.7896H16.352C16.702 19.7896 16.985 20.0676 16.985 20.4096V20.7776C16.9841 20.8598 16.967 20.941 16.9347 21.0166C16.9024 21.0922 16.8555 21.1607 16.7967 21.2182C16.7379 21.2757 16.6684 21.321 16.5921 21.3516C16.5158 21.3822 16.4342 21.3975 16.352 21.3966H15.976ZM20.902 16.4176C20.8198 16.4185 20.7382 16.4032 20.6619 16.3726C20.5856 16.342 20.5161 16.2967 20.4573 16.2392C20.3985 16.1817 20.3516 16.1132 20.3193 16.0376C20.287 15.962 20.2699 15.8808 20.269 15.7986V15.4316C20.269 15.0896 20.552 14.8116 20.902 14.8116H21.277C21.627 14.8116 21.91 15.0896 21.91 15.4316V15.7986C21.91 16.1406 21.627 16.4186 21.277 16.4186L20.902 16.4176ZM10.887 16.4176C10.8048 16.4185 10.7232 16.4032 10.6469 16.3726C10.5706 16.342 10.5011 16.2967 10.4423 16.2392C10.3835 16.1817 10.3366 16.1132 10.3043 16.0376C10.272 15.962 10.2549 15.8808 10.254 15.7986V15.4316C10.254 15.0896 10.537 14.8116 10.887 14.8116H11.262C11.612 14.8116 11.896 15.0896 11.896 15.4316V15.7986C11.896 16.1406 11.612 16.4186 11.262 16.4186L10.887 16.4176ZM18.653 21.4386C18.7931 21.3816 18.9499 21.3816 19.09 21.4386C19.2301 21.4956 19.3424 21.605 19.403 21.7436C19.4317 21.812 19.4465 21.8855 19.4464 21.9598C19.4463 22.034 19.4314 22.1075 19.4025 22.1759C19.3736 22.2442 19.3314 22.3062 19.2782 22.358C19.2251 22.4098 19.1621 22.4505 19.093 22.4776C18.953 22.5347 18.7963 22.5348 18.6562 22.478C18.5161 22.4212 18.4038 22.312 18.343 22.1736C18.3143 22.1051 18.2995 22.0315 18.2996 21.9572C18.2996 21.8829 18.3145 21.8094 18.3434 21.7409C18.3723 21.6724 18.4146 21.6104 18.4677 21.5585C18.5209 21.5066 18.5839 21.4658 18.653 21.4386ZM13.4 8.9136C13.54 8.85655 13.6967 8.8564 13.8368 8.91318C13.9769 8.96996 14.0892 9.07919 14.15 9.2176C14.1786 9.28607 14.1932 9.35954 14.1931 9.43373C14.1929 9.50793 14.178 9.58134 14.1491 9.64969C14.1202 9.71804 14.078 9.77994 14.025 9.83178C13.9719 9.88362 13.909 9.92436 13.84 9.9516C13.6999 10.009 13.5429 10.0093 13.4026 9.95247C13.2623 9.89567 13.1497 9.78626 13.089 9.6476C13.0604 9.57914 13.0458 9.50566 13.0459 9.43147C13.0461 9.35728 13.061 9.28386 13.0899 9.21551C13.1188 9.14717 13.161 9.08526 13.214 9.03342C13.2671 8.98158 13.33 8.94085 13.399 8.9136H13.4ZM21.954 13.3416C21.9253 13.273 21.9106 13.1994 21.9107 13.125C21.9108 13.0507 21.9258 12.9771 21.9548 12.9086C21.9838 12.8402 22.0261 12.7782 22.0794 12.7263C22.1327 12.6744 22.1958 12.6337 22.265 12.6066C22.405 12.5496 22.5617 12.5494 22.7018 12.6062C22.8419 12.663 22.9542 12.7722 23.015 12.9106C23.0437 12.9791 23.0585 13.0527 23.0584 13.127C23.0584 13.2013 23.0435 13.2748 23.0146 13.3433C22.9857 13.4118 22.9434 13.4738 22.8903 13.5257C22.8371 13.5776 22.7741 13.6184 22.705 13.6456C22.565 13.7027 22.4083 13.7028 22.2682 13.646C22.1281 13.5892 22.0158 13.48 21.955 13.3416H21.954ZM9.312 18.4796C9.28344 18.4111 9.26884 18.3375 9.26906 18.2633C9.26928 18.1891 9.28432 18.1156 9.31328 18.0473C9.34224 17.9789 9.38455 17.917 9.43774 17.8652C9.49092 17.8134 9.5539 17.7728 9.623 17.7456C9.76307 17.688 9.92014 17.6875 10.0605 17.7444C10.2009 17.8012 10.3135 17.9108 10.374 18.0496C10.4026 18.1181 10.4172 18.1915 10.4171 18.2657C10.4169 18.3399 10.402 18.4133 10.3731 18.4817C10.3442 18.55 10.302 18.6119 10.249 18.6638C10.1959 18.7156 10.133 18.7564 10.064 18.7836C9.92379 18.8413 9.76658 18.8417 9.62602 18.7849C9.48547 18.7281 9.37275 18.6185 9.312 18.4796ZM9.312 12.9106C9.37275 12.7719 9.4853 12.6625 9.62562 12.6057C9.76594 12.5489 9.92291 12.5492 10.063 12.6066C10.1322 12.6337 10.1953 12.6744 10.2486 12.7263C10.3019 12.7782 10.3442 12.8402 10.3732 12.9086C10.4022 12.9771 10.4172 13.0507 10.4173 13.125C10.4174 13.1994 10.4027 13.273 10.374 13.3416C10.3132 13.48 10.2009 13.5892 10.0608 13.646C9.92069 13.7028 9.76398 13.7027 9.624 13.6456C9.55469 13.6186 9.49149 13.5779 9.43812 13.5261C9.38475 13.4743 9.34227 13.4123 9.3132 13.3438C9.28413 13.2753 9.26905 13.2017 9.26885 13.1273C9.26864 13.0529 9.28331 12.9792 9.312 12.9106ZM18.489 9.9516C18.42 9.92436 18.3571 9.88362 18.304 9.83178C18.251 9.77994 18.2088 9.71804 18.1799 9.64969C18.151 9.58134 18.1361 9.50793 18.1359 9.43373C18.1358 9.35954 18.1504 9.28607 18.179 9.2176C18.2398 9.07919 18.3521 8.96996 18.4922 8.91318C18.6323 8.8564 18.789 8.85655 18.929 8.9136C18.998 8.94085 19.0609 8.98158 19.114 9.03342C19.167 9.08526 19.2092 9.14717 19.2381 9.21551C19.267 9.28386 19.2819 9.35728 19.2821 9.43147C19.2822 9.50566 19.2676 9.57914 19.239 9.6476C19.1783 9.78601 19.0659 9.89524 18.9258 9.95202C18.7857 10.0088 18.629 10.0087 18.489 9.9516ZM21.954 18.0496C22.0145 17.911 22.1269 17.8016 22.2671 17.7448C22.4072 17.688 22.564 17.6883 22.704 17.7456C22.7732 17.7727 22.8363 17.8132 22.8896 17.865C22.9429 17.9168 22.9853 17.9786 23.0143 18.047C23.0434 18.1154 23.0585 18.1888 23.0588 18.2631C23.0591 18.3374 23.0445 18.411 23.016 18.4796C22.9552 18.618 22.8429 18.7272 22.7028 18.784C22.5627 18.8408 22.406 18.8407 22.266 18.7836C22.1968 18.7565 22.1337 18.716 22.0804 18.6642C22.0271 18.6124 21.9847 18.5506 21.9557 18.4822C21.9266 18.4138 21.9115 18.3404 21.9112 18.2661C21.9109 18.1918 21.9255 18.1182 21.954 18.0496ZM13.071 22.6376C13.0019 22.6105 12.9389 22.5698 12.8858 22.518C12.8326 22.4662 12.7904 22.4042 12.7615 22.3359C12.7326 22.2675 12.7177 22.194 12.7176 22.1198C12.7175 22.0455 12.7323 21.972 12.761 21.9036C12.8217 21.7652 12.9341 21.656 13.0742 21.5992C13.2143 21.5424 13.371 21.5426 13.511 21.5996C13.58 21.6268 13.6429 21.6676 13.696 21.7194C13.749 21.7713 13.7912 21.8332 13.8201 21.9015C13.849 21.9699 13.8639 22.0433 13.8641 22.1175C13.8642 22.1917 13.8496 22.2651 13.821 22.3336C13.7603 22.472 13.6479 22.5812 13.5078 22.638C13.3677 22.6948 13.211 22.6947 13.071 22.6376ZM21.514 21.0076C21.5763 20.9475 21.6594 20.9139 21.746 20.9139C21.8326 20.9139 21.9157 20.9475 21.978 21.0076C22.107 21.1336 22.107 21.3376 21.978 21.4626C21.849 21.5876 21.643 21.5876 21.514 21.4626C21.4836 21.4331 21.4594 21.3979 21.4429 21.3589C21.4263 21.3199 21.4178 21.278 21.4178 21.2356C21.4178 21.1933 21.4263 21.1513 21.4429 21.1123C21.4594 21.0733 21.4836 21.0381 21.514 21.0086V21.0076ZM10.35 9.9286C10.478 9.8036 10.686 9.8036 10.814 9.9286C10.942 10.0536 10.942 10.2586 10.814 10.3836C10.7517 10.4437 10.6686 10.4773 10.582 10.4773C10.4954 10.4773 10.4123 10.4437 10.35 10.3836C10.3196 10.3541 10.2954 10.3189 10.2789 10.2799C10.2623 10.2409 10.2538 10.199 10.2538 10.1566C10.2538 10.1143 10.2623 10.0723 10.2789 10.0333C10.2954 9.99434 10.3196 9.95906 10.35 9.9296V9.9286ZM21.514 10.3836C21.4836 10.3541 21.4594 10.3189 21.4429 10.2799C21.4263 10.2409 21.4178 10.199 21.4178 10.1566C21.4178 10.1143 21.4263 10.0723 21.4429 10.0333C21.4594 9.99434 21.4836 9.95906 21.514 9.9296C21.643 9.8036 21.85 9.8036 21.978 9.9296C22.106 10.0556 22.107 10.2576 21.978 10.3836C21.9157 10.4437 21.8326 10.4773 21.746 10.4773C21.6594 10.4773 21.5763 10.4437 21.514 10.3836ZM10.35 21.4626C10.3196 21.4331 10.2954 21.3979 10.2789 21.3589C10.2623 21.3199 10.2538 21.278 10.2538 21.2356C10.2538 21.1933 10.2623 21.1513 10.2789 21.1123C10.2954 21.0733 10.3196 21.0381 10.35 21.0086C10.4123 20.9485 10.4954 20.9149 10.582 20.9149C10.6686 20.9149 10.7517 20.9485 10.814 21.0086C10.942 21.1336 10.942 21.3376 10.814 21.4626C10.686 21.5876 10.478 21.5876 10.35 21.4626ZM23.88 15.6156C23.88 15.4376 24.028 15.2936 24.209 15.2936C24.39 15.2936 24.537 15.4376 24.537 15.6156C24.5357 15.7014 24.5004 15.7833 24.439 15.8432C24.3775 15.9032 24.2949 15.9364 24.209 15.9356C24.1231 15.9364 24.0405 15.9032 23.979 15.8432C23.9176 15.7833 23.8823 15.7014 23.881 15.6156H23.88ZM7.955 15.6156C7.955 15.4376 8.102 15.2936 8.284 15.2936C8.464 15.2936 8.612 15.4376 8.612 15.6156C8.61068 15.7014 8.57545 15.7833 8.51399 15.8432C8.45254 15.9032 8.36985 15.9364 8.284 15.9356C8.19797 15.9367 8.11503 15.9036 8.05336 15.8436C7.99169 15.7836 7.95632 15.7016 7.955 15.6156ZM16.165 8.2286C16.1222 8.22926 16.0798 8.22148 16.04 8.20569C16.0003 8.1899 15.964 8.16643 15.9334 8.13661C15.9027 8.10678 15.8782 8.0712 15.8614 8.03191C15.8445 7.99261 15.8355 7.95037 15.835 7.9076C15.835 7.7296 15.983 7.5856 16.165 7.5856C16.345 7.5856 16.493 7.7296 16.493 7.9076C16.4917 7.99362 16.4563 8.07562 16.3946 8.1356C16.333 8.19559 16.25 8.22867 16.164 8.2276L16.165 8.2286ZM16.165 23.8046C16.1223 23.8053 16.0799 23.7975 16.0402 23.7818C16.0006 23.7661 15.9644 23.7427 15.9337 23.713C15.9031 23.6832 15.8786 23.6478 15.8616 23.6086C15.8447 23.5694 15.8357 23.5273 15.835 23.4846C15.835 23.3066 15.983 23.1626 16.165 23.1626C16.345 23.1626 16.493 23.3066 16.493 23.4836C16.4925 23.5263 16.4836 23.5684 16.4667 23.6077C16.4499 23.6469 16.4255 23.6824 16.395 23.7122C16.3644 23.7421 16.3283 23.7656 16.2887 23.7814C16.249 23.7972 16.2067 23.8051 16.164 23.8046H16.165ZM26.343 15.6146C26.343 15.4376 26.491 15.2946 26.672 15.2946C26.852 15.2946 27 15.4376 27 15.6146C26.9996 15.6573 26.9908 15.6995 26.9741 15.7387C26.9574 15.778 26.9332 15.8136 26.9027 15.8435C26.8722 15.8734 26.8362 15.897 26.7966 15.913C26.757 15.929 26.7147 15.937 26.672 15.9366C26.6293 15.9371 26.587 15.9292 26.5473 15.9134C26.5077 15.8976 26.4716 15.8741 26.441 15.8442C26.4105 15.8144 26.3861 15.7789 26.3693 15.7397C26.3524 15.7004 26.3435 15.6583 26.343 15.6156V15.6146ZM5.246 15.4546C5.382 15.4546 5.493 15.5626 5.493 15.6946C5.493 15.8266 5.383 15.9366 5.246 15.9366C5.11 15.9366 5 15.8286 5 15.6956C5 15.5626 5.11 15.4546 5.246 15.4546ZM15.672 5.3376C15.672 5.1606 15.819 5.0166 16 5.0166C16.181 5.0166 16.328 5.1606 16.328 5.3376C16.328 5.5146 16.181 5.6586 16 5.6586C15.819 5.6586 15.672 5.5146 15.672 5.3386V5.3376ZM25.397 19.4426C25.4497 19.3241 25.5467 19.2308 25.6672 19.1828C25.7877 19.1348 25.9222 19.1358 26.042 19.1856C26.1011 19.2094 26.1549 19.2447 26.2002 19.2895C26.2455 19.3343 26.2815 19.3877 26.306 19.4465C26.3304 19.5053 26.343 19.5684 26.3428 19.6321C26.3426 19.6959 26.3298 19.7589 26.305 19.8176C26.2527 19.9367 26.1556 20.0305 26.0346 20.0784C25.9137 20.1263 25.7787 20.1246 25.659 20.0736C25.6 20.0498 25.5464 20.0145 25.5012 19.9698C25.4559 19.9251 25.4201 19.8718 25.3957 19.813C25.3713 19.7543 25.3589 19.6913 25.3591 19.6277C25.3593 19.5641 25.3722 19.5012 25.397 19.4426ZM20.067 24.6326C20.1067 24.6487 20.1429 24.6725 20.1732 24.7028C20.2036 24.733 20.2277 24.769 20.244 24.8086C20.2603 24.8474 20.2686 24.8891 20.2685 24.9312C20.2683 24.9733 20.2596 25.0149 20.243 25.0536C20.2168 25.1122 20.174 25.162 20.12 25.1968C20.0659 25.2315 20.0029 25.2498 19.9387 25.2494C19.8744 25.249 19.8117 25.2298 19.7581 25.1944C19.7046 25.1589 19.6625 25.1086 19.637 25.0496C19.6205 25.0109 19.612 24.9692 19.612 24.9271C19.612 24.885 19.6205 24.8433 19.637 24.8046C19.654 24.7653 19.6787 24.7297 19.7096 24.7C19.7405 24.6703 19.777 24.6471 19.817 24.6316C19.8975 24.6002 19.987 24.6009 20.067 24.6336V24.6326ZM6.442 11.3056C6.522 11.3396 6.585 11.4016 6.618 11.4806C6.63446 11.5195 6.64285 11.5614 6.64268 11.6037C6.64251 11.646 6.63377 11.6878 6.617 11.7266C6.59075 11.7852 6.548 11.835 6.49397 11.8698C6.43993 11.9045 6.37695 11.9228 6.31269 11.9224C6.24844 11.922 6.18571 11.9028 6.13213 11.8674C6.07856 11.8319 6.03647 11.7816 6.011 11.7226C5.99454 11.6837 5.98615 11.6418 5.98632 11.5995C5.98649 11.5572 5.99523 11.5154 6.012 11.4766C6.02897 11.4375 6.05353 11.4022 6.08426 11.3727C6.11499 11.3431 6.15127 11.32 6.191 11.3046C6.27165 11.2725 6.3616 11.2729 6.442 11.3056ZM5.526 19.5556C5.56991 19.4567 5.65081 19.3789 5.75137 19.3389C5.85193 19.2989 5.96415 19.2999 6.064 19.3416C6.11325 19.3613 6.15806 19.3907 6.19579 19.428C6.23353 19.4652 6.26343 19.5097 6.28374 19.5587C6.30405 19.6077 6.31436 19.6603 6.31406 19.7133C6.31376 19.7664 6.30286 19.8188 6.282 19.8676C6.2379 19.9663 6.15693 20.0439 6.05639 20.0837C5.95585 20.1235 5.84373 20.1224 5.744 20.0806C5.69475 20.0609 5.64994 20.0315 5.61221 19.9942C5.57447 19.957 5.54457 19.9125 5.52426 19.8635C5.50395 19.8145 5.49364 19.7619 5.49394 19.7089C5.49424 19.6558 5.50514 19.6034 5.526 19.5546V19.5556ZM19.863 6.2686C19.8137 6.24898 19.7688 6.21969 19.7309 6.18245C19.6931 6.1452 19.6631 6.10077 19.6427 6.05175C19.6222 6.00274 19.6119 5.95013 19.6121 5.89704C19.6123 5.84395 19.6232 5.79144 19.644 5.7426C19.6879 5.64369 19.7688 5.56591 19.8694 5.52591C19.9699 5.48591 20.0821 5.48688 20.182 5.5286C20.2312 5.54832 20.2761 5.57768 20.3138 5.61497C20.3515 5.65225 20.3814 5.6967 20.4017 5.74571C20.422 5.79471 20.4324 5.84728 20.4321 5.90033C20.4318 5.95338 20.4209 6.00583 20.4 6.0546C20.3561 6.15327 20.2754 6.23086 20.175 6.27084C20.0747 6.31082 19.9627 6.31002 19.863 6.2686ZM26.004 11.1356C26.0647 11.1113 26.1325 11.1117 26.193 11.1366C26.2372 11.1548 26.275 11.1858 26.3014 11.2257C26.3279 11.2655 26.3419 11.3123 26.3415 11.3601C26.3412 11.4079 26.3266 11.4546 26.2996 11.494C26.2726 11.5335 26.2345 11.564 26.19 11.5816C26.1298 11.6057 26.0627 11.6054 26.0027 11.5807C25.9428 11.5561 25.8948 11.5091 25.869 11.4496C25.8566 11.4203 25.8503 11.3888 25.8504 11.357C25.8506 11.3252 25.8573 11.2938 25.87 11.2646C25.8827 11.2353 25.9011 11.2089 25.9241 11.1867C25.9471 11.1646 25.9743 11.1472 26.004 11.1356ZM11.587 5.9666C11.6131 5.90728 11.6615 5.86061 11.7218 5.83667C11.782 5.81272 11.8493 5.81341 11.909 5.8386C11.9536 5.85644 11.9918 5.88731 12.0186 5.92718C12.0454 5.96706 12.0596 6.01408 12.0592 6.06212C12.0589 6.11017 12.0441 6.157 12.0168 6.1965C11.9895 6.23601 11.9508 6.26636 11.906 6.2836C11.8456 6.30774 11.7782 6.30738 11.718 6.2826C11.6885 6.27066 11.6616 6.25297 11.639 6.23055C11.6164 6.20813 11.5985 6.18144 11.5863 6.15204C11.5741 6.12263 11.5679 6.09109 11.568 6.05925C11.5681 6.02741 11.5746 5.99592 11.587 5.9666ZM11.65 24.9286C11.682 24.9286 11.714 24.9356 11.745 24.9486C11.7745 24.9604 11.8013 24.978 11.8239 25.0004C11.8465 25.0227 11.8644 25.0493 11.8766 25.0786C11.8888 25.1079 11.895 25.1394 11.8949 25.1712C11.8948 25.2029 11.8884 25.2344 11.876 25.2636C11.8497 25.3227 11.8012 25.3692 11.7411 25.3932C11.6809 25.4171 11.6138 25.4165 11.554 25.3916C11.5245 25.3797 11.4977 25.3622 11.4751 25.3399C11.4524 25.3176 11.4345 25.291 11.4222 25.2617C11.4099 25.2324 11.4036 25.2009 11.4035 25.1692C11.4035 25.1374 11.4098 25.1059 11.422 25.0766C11.4414 25.0323 11.4733 24.9947 11.5138 24.9684C11.5543 24.9421 11.6017 24.9283 11.65 24.9286ZM23.292 23.2286C23.2297 23.289 23.1463 23.3228 23.0595 23.3228C22.9727 23.3228 22.8893 23.289 22.827 23.2286C22.7966 23.1991 22.7724 23.1639 22.7559 23.1249C22.7393 23.0859 22.7308 23.044 22.7308 23.0016C22.7308 22.9593 22.7393 22.9173 22.7559 22.8783C22.7724 22.8393 22.7966 22.8041 22.827 22.7746C22.8892 22.7138 22.973 22.68 23.06 22.6806C23.1467 22.6803 23.23 22.714 23.292 22.7746C23.3226 22.8041 23.3469 22.8394 23.3635 22.8785C23.3801 22.9176 23.3887 22.9596 23.3887 23.0021C23.3887 23.0446 23.3801 23.0866 23.3635 23.1257C23.3469 23.1648 23.3226 23.2001 23.292 23.2296V23.2286ZM7.935 8.0496C8.02845 7.95912 8.15342 7.90853 8.2835 7.90853C8.41357 7.90853 8.53855 7.95912 8.632 8.0496C8.67751 8.09387 8.71368 8.14681 8.73839 8.20529C8.76309 8.26377 8.77581 8.32662 8.77581 8.3901C8.77581 8.45359 8.76309 8.51643 8.73839 8.57491C8.71368 8.6334 8.67751 8.68634 8.632 8.7306C8.53904 8.82203 8.41388 8.87326 8.2835 8.87326C8.15312 8.87326 8.02796 8.82203 7.935 8.7306C7.88949 8.68634 7.85332 8.6334 7.82861 8.57491C7.80391 8.51643 7.79119 8.45359 7.79119 8.3901C7.79119 8.32662 7.80391 8.26377 7.82861 8.20529C7.85332 8.14681 7.88949 8.09387 7.935 8.0496ZM23.46 8.1396C23.5064 8.09392 23.5689 8.06832 23.634 8.06832C23.6991 8.06832 23.7616 8.09392 23.808 8.1396C23.8306 8.16176 23.8486 8.18821 23.8609 8.2174C23.8731 8.24659 23.8794 8.27794 23.8794 8.3096C23.8794 8.34127 23.8731 8.37261 23.8609 8.4018C23.8486 8.43099 23.8306 8.45744 23.808 8.4796C23.7614 8.52481 23.699 8.55009 23.634 8.55009C23.569 8.55009 23.5066 8.52481 23.46 8.4796C23.4371 8.45758 23.4189 8.43118 23.4065 8.40197C23.3941 8.37276 23.3877 8.34134 23.3877 8.3096C23.3877 8.27786 23.3941 8.24644 23.4065 8.21723C23.4189 8.18802 23.4371 8.16162 23.46 8.1396ZM8.027 22.7516C8.07339 22.7059 8.13589 22.6803 8.201 22.6803C8.26611 22.6803 8.32861 22.7059 8.375 22.7516C8.39774 22.7737 8.41582 22.8001 8.42816 22.8293C8.44051 22.8585 8.44687 22.8899 8.44687 22.9216C8.44687 22.9533 8.44051 22.9847 8.42816 23.0139C8.41582 23.0431 8.39774 23.0695 8.375 23.0916C8.32836 23.1368 8.26596 23.1621 8.201 23.1621C8.13605 23.1621 8.07364 23.1368 8.027 23.0916C8.00426 23.0695 7.98618 23.0431 7.97384 23.0139C7.96149 22.9847 7.95513 22.9533 7.95513 22.9216C7.95513 22.8899 7.96149 22.8585 7.97384 22.8293C7.98618 22.8001 8.00426 22.7737 8.027 22.7516ZM16.082 27.0166C15.9745 27.0177 15.8709 26.976 15.7941 26.9009C15.7172 26.8257 15.6733 26.7231 15.672 26.6156C15.672 26.3936 15.855 26.2136 16.082 26.2136C16.309 26.2136 16.492 26.3936 16.492 26.6156C16.4907 26.7231 16.4468 26.8257 16.3699 26.9009C16.2931 26.976 16.1895 27.0177 16.082 27.0166Z" fill="white"/>
</g>
<defs>
<clipPath id="clip0_1_5916">
<rect width="32" height="32" fill="white" transform="translate(0 0.0166016)"/>
</clipPath>
</defs>
</svg>
