<svg width="32" height="33" viewBox="0 0 32 33" fill="none" xmlns="http://www.w3.org/2000/svg">
<g clip-path="url(#clip0_1_5909)">
<path d="M16.0005 32.0166C24.837 32.0166 32.0005 24.8532 32.0005 16.0166C32.0005 7.18005 24.837 0.0166016 16.0005 0.0166016C7.16393 0.0166016 0.000488281 7.18005 0.000488281 16.0166C0.000488281 24.8532 7.16393 32.0166 16.0005 32.0166Z" fill="#EA0017"/>
<path d="M20.7491 15.2286C20.7801 15.2286 20.8551 15.2606 20.9191 15.2986C21.0951 15.4056 21.1861 15.6206 21.1691 15.8786C21.1591 16.0546 21.1161 16.1746 20.9391 16.5346C20.8191 16.7786 20.5931 17.1876 20.4391 17.4446C20.1731 17.8826 20.0461 18.1126 20.0461 18.1476C20.0461 18.1576 20.2261 17.9956 20.4461 17.7876C20.8581 17.3996 21.1471 17.2156 21.2781 17.2576C21.4551 17.3146 21.5081 17.6496 21.3911 17.9856C21.3241 18.1856 21.1441 18.5496 20.9641 18.8566C20.8601 19.0266 20.8511 19.0606 21.0261 18.9606L21.1721 18.8746C21.5361 18.6556 21.7691 18.6316 21.8961 18.8046C22.0361 18.9946 22.0121 19.5736 21.8391 20.0746C21.8001 20.1876 21.7791 20.2896 21.7891 20.3006C21.8001 20.3106 21.9091 20.2756 22.0291 20.2226C22.1531 20.1666 22.3371 20.1026 22.4431 20.0786C22.7991 19.9936 22.9511 20.1456 23.0181 20.6496C23.0781 21.0876 22.9121 21.4516 22.6081 21.5606C22.5561 21.5786 22.5481 21.5706 22.5661 21.5046C22.5801 21.4586 22.5981 21.3776 22.6121 21.3206C22.6301 21.2286 22.6261 21.2256 22.5621 21.2606C22.4601 21.3136 22.3441 21.5256 22.3021 21.7376C22.1751 22.3656 22.0161 22.6756 21.5991 23.0996C21.1401 23.5656 20.6641 23.8796 19.9231 24.2116C19.5771 24.3666 19.0901 24.6736 18.5711 25.0656L18.4191 25.1816L18.1191 24.9066L17.9691 24.7746C17.6681 24.5206 17.3661 24.3226 17.1241 24.2246C17.0519 24.1971 16.9802 24.1681 16.9091 24.1376C16.9021 24.1306 16.9621 24.0526 17.0431 23.9606C17.1221 23.8695 17.1831 23.7643 17.2231 23.6506C17.2731 23.4556 17.3001 23.4106 17.4101 23.3466C17.5371 23.2766 17.7421 23.3326 18.2291 23.5766C18.4441 23.6816 18.6271 23.7706 18.6451 23.7706C18.6841 23.7706 18.6771 23.6676 18.6271 23.5376C18.5891 23.4316 18.6031 23.3676 18.7651 22.8806C18.9801 22.2386 19.0371 22.0056 18.9951 21.9626C18.9421 21.9096 18.8991 21.9946 18.6521 22.6226C18.5221 22.9516 18.4091 23.2306 18.4021 23.2376C18.3911 23.2476 18.3131 23.2196 18.2251 23.1776C18.0801 23.1066 18.0661 23.0856 18.0841 23.0076C18.1861 22.5976 18.2461 21.6736 18.1831 21.4476C18.1371 21.2886 18.0871 21.3556 18.0451 21.6346C17.9531 22.2276 17.8511 22.6976 17.8091 22.7396C17.7691 22.7786 17.7451 22.7676 17.6671 22.6756L17.5761 22.5626V19.2466L18.3591 18.2366L18.5201 18.0286C19.7731 16.4116 20.1321 15.9456 20.4101 15.5896C20.5651 15.3916 20.7171 15.2296 20.7491 15.2296V15.2286ZM13.8771 20.2486C14.2121 19.9296 14.2871 19.9016 14.4031 20.0646C14.4911 20.1846 14.5401 20.4666 14.5401 20.8516V21.1686L14.7031 21.3416L14.7691 21.4176C14.8341 21.4976 14.8931 21.5876 14.9141 21.6376C14.9671 21.7686 14.9891 22.2696 14.9461 22.4396C14.9321 22.4956 14.9671 22.6016 15.0631 22.7856C15.7161 24.0356 15.8501 24.3066 15.8331 24.3276L15.8111 24.3316L15.7711 24.3286C15.733 24.3219 15.6955 24.3118 15.6591 24.2986C15.5071 24.2506 15.3271 24.2426 14.6891 24.2606C14.3041 24.2706 14.0741 24.2076 14.0531 24.0846C14.0431 24.0346 14.1871 23.8046 14.4911 23.3846C14.5831 23.2586 14.5931 23.1846 14.5411 23.0996C14.5161 23.0576 14.3921 23.0426 13.9411 23.0296C13.1851 23.0046 13.1611 22.9616 13.6931 22.5596C13.9161 22.3896 14.1771 22.1216 14.2081 22.0296C14.2191 21.9946 14.2011 21.9276 14.1701 21.8786L14.1101 21.7866L13.6801 21.8116L13.5631 21.8176C13.0891 21.8376 13.0031 21.7696 13.1631 21.5466C13.2031 21.4936 13.2231 21.4406 13.2101 21.4266C13.2001 21.4166 12.9901 21.4056 12.7541 21.4056C12.3481 21.4056 11.9811 21.3596 11.9181 21.3026C11.9041 21.2886 12.0771 21.2186 12.3061 21.1476C12.6981 21.0276 13.2241 20.7876 13.4641 20.6176C13.6064 20.4995 13.7442 20.3761 13.8771 20.2476V20.2486ZM15.1841 17.2086C15.2001 17.2186 15.2391 17.5336 15.2811 17.9116C15.3211 18.2886 15.3521 18.6346 15.3521 18.6766C15.3521 18.7226 15.3661 18.7586 15.3841 18.7586C15.4011 18.7586 15.5071 18.6166 15.6201 18.4406C15.7371 18.2676 15.8401 18.1226 15.8501 18.1226C15.8781 18.1226 15.8961 18.2566 15.9901 19.2596C16.0371 19.7216 16.0831 20.0996 16.0931 20.0996C16.1031 20.0996 16.1601 19.9016 16.2131 19.6586C16.2701 19.4146 16.3261 19.2166 16.3401 19.2166C16.3611 19.2166 17.3321 22.0266 17.3291 22.0826C17.3291 22.1606 17.2441 22.0686 16.9051 21.6316C16.7001 21.3626 16.5061 21.1156 16.4751 21.0736L16.4111 20.9996L16.3161 21.1056L16.2761 21.1506C16.1853 21.2527 16.0937 21.354 16.0011 21.4546L15.7791 21.6986L15.7611 21.5786L15.7581 21.5486C15.7421 21.4186 15.6971 20.9486 15.6521 20.4416C15.6061 19.8806 15.5571 19.4076 15.5421 19.3896C15.5321 19.3726 15.3981 19.4716 15.2421 19.6126C15.0871 19.7536 14.9461 19.8766 14.9251 19.8806C14.9041 19.8876 14.9001 19.8386 14.9111 19.7566C14.9361 19.5766 15.1761 17.3116 15.1761 17.2436C15.1761 17.2156 15.1831 17.2016 15.1931 17.2086H15.1841ZM10.6541 15.2606C10.9081 15.2286 11.4341 15.2566 11.6781 15.3236C11.9461 15.3906 12.2461 15.5186 12.4861 15.6556C12.7231 15.7966 13.3051 16.3586 13.3931 16.5356C13.4631 16.6756 13.4991 16.6936 13.0721 16.3686C12.735 16.1186 12.3612 15.9223 11.9641 15.7866C11.7661 15.7246 11.6541 15.7086 11.3491 15.7066L11.2051 15.7056C10.7601 15.7056 10.6831 15.7156 10.4281 15.8006C8.81513 16.3476 8.00013 18.3986 8.84413 19.7856C9.09413 20.2016 9.49713 20.5726 10.0401 20.8856C10.3471 21.0656 10.3231 21.0956 9.94513 20.9996C9.60885 20.9159 9.29536 20.7585 9.02731 20.5389C8.75925 20.3193 8.54333 20.0428 8.39513 19.7296C8.20113 19.3336 8.11713 18.9666 8.09213 18.4406C8.05713 17.5906 8.27913 16.9156 8.80813 16.2736C9.22813 15.7616 9.97313 15.3556 10.6541 15.2606ZM9.35513 18.0106C9.40813 17.8476 9.41513 17.8586 9.55013 18.2326C9.81904 18.9416 10.227 19.5896 10.7501 20.1386C10.8731 20.2686 10.9751 20.3856 10.9751 20.3986C10.9751 20.4556 10.6971 20.3856 10.4321 20.2656C9.79013 19.9656 9.41213 19.3406 9.33113 18.4256C9.31713 18.2356 9.32113 18.1086 9.35513 18.0096V18.0106ZM12.3171 12.7406C12.7611 12.6736 12.7831 12.6806 12.4931 12.8146C12.3481 12.8816 12.2071 12.9446 12.1831 12.9626L12.1551 12.9796C12.0751 13.0376 12.2221 13.0596 12.7301 13.0756C13.3761 13.0936 13.3801 13.0966 13.3261 13.3086C13.3051 13.3936 13.2981 13.3936 12.9061 13.3936C12.6805 13.3966 12.4554 13.4143 12.2321 13.4466C11.9571 13.4966 11.5581 13.6616 11.5581 13.7286C11.5581 13.7466 11.7241 13.7816 11.9281 13.8066C12.5571 13.8806 13.1681 14.0466 13.5911 14.2586C13.7571 14.3466 13.8451 14.4586 14.1771 15.0346C15.0701 16.5766 15.2041 16.7956 15.5251 17.2226C15.9351 17.7666 16.3751 18.2606 16.8551 18.7156L17.2931 19.1286V19.7016C17.2891 19.9096 17.2761 20.0696 17.2581 20.0816C17.2231 20.1026 17.2441 20.1386 16.7641 19.3226C16.4142 18.7282 16.0361 18.1509 15.6311 17.5926C15.5278 17.4528 15.431 17.3083 15.3411 17.1596C15.3311 17.1276 15.2991 17.0996 15.2741 17.0956C15.2501 17.0956 15.1341 16.9826 15.0171 16.8456C14.6851 16.4566 13.9371 15.7826 13.4281 15.4196C13.1361 15.2076 12.7511 14.9466 12.7301 14.9466C12.7231 14.9466 12.5991 14.8826 12.4541 14.8016C12.1339 14.6317 11.7985 14.4925 11.4521 14.3856C11.2081 14.3186 10.7221 14.3006 10.4111 14.3426C9.96257 14.4226 9.53143 14.5803 9.13713 14.8086C9.03908 14.8718 8.93759 14.9296 8.83313 14.9816C8.80813 14.9816 8.49813 15.2036 8.25813 15.3986C8.14813 15.4866 8.06013 15.5356 8.05313 15.5146C8.03513 15.4646 8.33213 15.0526 8.59013 14.7596C8.93946 14.392 9.32622 14.0619 9.74413 13.7746C10.4741 13.2876 11.5441 12.8566 12.3171 12.7406ZM9.90613 17.1416C9.77613 16.7856 9.77913 16.7566 9.94513 16.8516C10.0618 16.9242 10.1759 17.0009 10.2871 17.0816C10.9701 17.5895 11.5209 18.2541 11.8931 19.0196C12.0451 19.3406 12.1511 19.6406 12.1261 19.6656L12.1071 19.6696L12.0741 19.6596C11.9041 19.5896 11.3741 19.1596 10.9751 18.7586C10.4711 18.2466 10.1181 17.7206 9.90613 17.1416ZM11.0811 16.1886C11.0811 16.1466 11.4591 16.2456 11.6811 16.3476C12.1441 16.5556 12.4831 16.9576 12.6311 17.4596C12.7301 17.7986 12.7581 18.0556 12.7231 18.3206C12.6941 18.5566 12.6981 18.5646 12.4761 18.0666C12.2103 17.5146 11.8586 17.0083 11.4341 16.5666C11.3125 16.4444 11.1947 16.3183 11.0811 16.1886ZM16.8701 10.2946C17.0431 10.2446 17.0401 10.2446 17.0961 10.3296C17.1911 10.4776 17.3641 11.0536 17.4381 11.4736C17.4841 11.7486 17.5161 12.1266 17.5301 12.5776L17.5501 13.2626L17.3781 13.2386L17.3391 13.2326C17.0951 13.1926 16.8961 13.1176 15.5741 12.5636C14.8611 12.2636 14.2721 12.0276 14.2611 12.0376C14.2441 12.0556 14.5971 12.7506 14.8331 13.1636C15.2631 13.9126 16.0611 14.3186 16.9831 14.2586C17.2471 14.2406 17.3431 14.2476 17.4231 14.2866C17.6141 14.3886 17.7381 14.5656 17.8541 14.9106C17.9991 15.3346 18.2641 15.8506 18.4901 16.1466C18.5851 16.2736 18.6601 16.3796 18.6601 16.3796C18.6561 16.3826 18.5431 16.3616 18.4051 16.3366C17.7871 16.2096 16.7181 15.7616 16.4291 15.5076C16.0971 15.2146 16.4001 15.6836 16.7531 16.0056C17.1831 16.4006 17.8051 16.7426 18.5141 16.9796C18.7261 17.0496 18.9061 17.1136 18.9101 17.1166C18.9491 17.1526 17.9071 18.3696 17.8441 18.3696C17.7801 18.3696 17.4201 18.1546 17.0711 17.9116C16.6861 17.6426 15.8141 16.7856 15.5041 16.3756C14.6123 15.1789 13.9603 13.8209 13.5841 12.3766L13.4741 11.9746L13.6121 11.8336L13.7011 11.7496C14.2261 11.2896 15.5541 10.6796 16.8701 10.2946ZM22.2801 9.10159C22.3576 9.10915 22.4326 9.13301 22.5001 9.17159C22.5563 9.21108 22.605 9.26017 22.6441 9.31659C22.6761 9.36259 23.0501 10.7666 23.4741 12.4296C24.3211 15.7436 24.3141 15.6986 24.1231 15.8996C24.0631 15.9587 23.9925 16.0062 23.9151 16.0396C23.7521 16.0936 21.2351 16.6396 21.2221 16.6266C21.2358 16.5526 21.2608 16.4811 21.2961 16.4146C21.4761 16.0046 21.4861 15.6246 21.3161 15.3526C21.2001 15.1626 20.9001 14.9826 20.7061 14.9826C20.5931 14.9826 20.5581 15.0166 19.9581 15.7926C19.6121 16.2426 19.3161 16.5946 19.3021 16.5806C19.2871 16.5666 18.9661 15.1906 18.5821 13.5276C18.0871 11.3816 17.8931 10.4706 17.9111 10.3976C17.9478 10.2621 18.0333 10.1449 18.1511 10.0686C18.3031 9.98759 22.1431 9.08759 22.2811 9.10159H22.2801ZM22.8631 13.1076C22.8561 13.0936 22.7291 13.1956 22.5801 13.3376C22.4321 13.4746 22.1291 13.7576 21.9101 13.9656L21.5071 14.3426L20.6431 14.0636C20.3489 13.9624 20.051 13.872 19.7501 13.7926C19.7361 13.7956 20.0671 14.1096 20.4911 14.4876C20.9181 14.8656 21.3811 15.2816 21.5251 15.4156C21.6701 15.5456 21.8001 15.6416 21.8151 15.6276C21.8531 15.5886 22.8731 13.1356 22.8631 13.1076ZM20.7491 14.2086C20.9921 14.2896 21.2641 14.3636 21.3521 14.3786L21.5111 14.3986L21.6281 14.9256C21.6911 15.2146 21.7371 15.4586 21.7261 15.4656C21.7191 15.4726 21.6351 15.4016 21.5431 15.3096C21.3009 15.0799 21.0548 14.8542 20.8051 14.6326C20.6085 14.4589 20.4168 14.2799 20.2301 14.0956C20.2091 14.0426 20.2931 14.0606 20.7491 14.2086ZM12.1221 9.80759C12.7151 9.65959 12.9511 9.62359 12.9511 9.68359C12.9511 9.70159 12.8661 9.73659 12.7671 9.75759C12.4781 9.82859 11.7331 10.0896 11.3631 10.2526C10.9601 10.4286 10.4451 10.7286 10.2511 10.8976L10.1101 11.0176L10.2331 11.0466L10.3851 11.0826C10.8891 11.2166 11.8151 11.5656 12.2551 11.7946C12.5771 11.9606 12.9861 12.2396 12.9861 12.2956C12.9861 12.3096 12.8801 12.3346 12.7501 12.3486C12.2101 12.4016 11.3241 12.6206 10.6921 12.8536C9.91913 13.1436 8.93813 13.6686 8.33813 14.1206C7.94613 14.4166 7.94613 14.4166 8.08413 14.2196C8.25013 13.9796 8.75413 13.4566 9.06113 13.2096C9.72513 12.6836 10.5971 12.3026 11.5211 12.1366L11.6631 12.1126L11.4131 11.9956L11.2881 11.9426C10.7411 11.7246 9.59413 11.4426 8.91013 11.3636C8.82152 11.3551 8.73404 11.3373 8.64913 11.3106C8.55713 11.2616 9.75313 10.6196 10.4631 10.3406C11.0048 10.1294 11.5588 9.95136 12.1221 9.80759ZM20.5921 10.4706C20.3281 11.2506 19.6921 13.2206 19.6921 13.2626C19.6921 13.2946 19.6781 13.3296 19.6571 13.3406C19.5441 13.4106 19.6751 13.4706 20.5011 13.7426C20.9841 13.8986 21.4041 14.0286 21.4361 14.0286C21.5061 14.0286 22.8161 12.8036 22.8161 12.7406C22.8161 12.7156 22.3641 12.2256 21.8171 11.6536C21.4549 11.279 21.0972 10.8999 20.7441 10.5166C20.6701 10.4216 20.6171 10.4036 20.5921 10.4706ZM15.8841 13.4186C15.8491 13.3186 15.8491 13.3186 15.9621 13.3406C16.0221 13.3546 16.1621 13.4076 16.2691 13.4606C16.5261 13.5836 16.5371 13.6406 16.3041 13.6406C16.0851 13.6406 15.9301 13.5596 15.8841 13.4186ZM20.6421 10.6616C20.6591 10.6796 20.7551 11.0566 20.8541 11.5016L21.0371 12.3136L20.9381 12.4086C20.8011 12.5426 19.7521 13.3266 19.7381 13.3086C19.7281 13.3016 19.7521 13.2346 19.7911 13.1566C19.8611 13.0196 20.5571 10.9196 20.5921 10.7326C20.6061 10.6756 20.6281 10.6436 20.6421 10.6616ZM12.8661 10.1116L12.8381 10.3646L12.8271 10.4656C12.8061 10.6776 12.8191 10.7286 12.8801 10.7286C12.9201 10.7286 12.9441 10.8026 12.9721 11.0106C13.0321 11.4136 13.0461 11.8126 13.0041 11.8306C12.9831 11.8336 12.8341 11.7596 12.6691 11.6636C12.2838 11.4349 11.8801 11.2389 11.4621 11.0776C11.3101 11.0216 11.1861 10.9656 11.1861 10.9546C11.1861 10.8806 11.6201 10.5486 11.8821 10.4216C12.2171 10.2596 12.6371 10.1146 12.7781 10.1116H12.8661ZM18.2641 8.41659C19.4991 8.18359 19.7571 8.16259 19.9761 8.27559C20.0501 8.31459 20.1461 8.39259 20.1841 8.44859C20.2721 8.56859 20.5051 9.05259 20.5051 9.10859C20.5051 9.13359 20.3071 9.17859 20.0041 9.22859C17.7841 9.57859 15.9631 10.1036 14.5761 10.7986C14.2393 10.9582 13.9179 11.1487 13.6161 11.3676C13.3791 11.5476 13.4041 11.5976 13.3191 10.7956C13.2591 10.2526 13.2591 10.2206 13.3191 10.0616C13.3761 9.91359 13.4071 9.88459 13.6161 9.77959C14.1075 9.55402 14.6106 9.35474 15.1231 9.18259C16.0651 8.88259 17.0071 8.65259 18.2631 8.41659H18.2641ZM14.8401 6.03359H14.8761C14.8961 6.03359 14.9601 6.13359 15.0241 6.24959C15.3241 6.79659 15.9311 8.48759 15.8571 8.56159C15.8081 8.59025 15.7536 8.60831 15.6971 8.61459L15.5741 8.63559L15.4541 8.37759L15.3941 8.24859C15.0341 7.49859 14.3881 6.47659 14.3111 6.54959C14.3011 6.55959 14.3251 6.66259 14.3641 6.77959C14.5441 7.29459 14.7871 8.44859 14.7871 8.77659C14.7871 8.87559 14.7701 8.90659 14.6991 8.93959C14.6559 8.96154 14.6092 8.97575 14.5611 8.98159C14.5411 8.98159 14.4241 8.85459 14.3111 8.69959C14.1981 8.54359 14.0921 8.42759 14.0781 8.44159C14.0681 8.45959 14.0321 8.63559 14.0001 8.83659C13.9471 9.20059 13.8941 9.32659 13.8381 9.23659C13.8241 9.21059 13.7921 8.85459 13.7681 8.44159C13.7561 8.15875 13.7361 7.8763 13.7081 7.59459C13.6971 7.54159 13.7041 7.49959 13.7211 7.49959C13.7391 7.49959 13.8771 7.61559 14.0251 7.75959C14.1731 7.90159 14.3001 8.01059 14.3071 7.99659C14.3361 7.94359 13.9541 6.80359 13.7141 6.22459C13.6941 6.17559 13.7281 6.15759 13.9301 6.12659C14.1731 6.08359 14.8121 6.02359 14.8761 6.03459L14.8401 6.03359ZM11.9671 6.78959C12.2501 6.60959 12.4901 6.54959 12.6481 6.61359C12.6961 6.63059 12.7081 6.66359 12.7091 6.90659V7.13159C12.7065 7.38008 12.6982 7.62848 12.6841 7.87659L12.6591 8.12659L12.0031 8.10959L11.7351 8.10559C11.1892 8.0976 10.6448 8.16661 10.1181 8.31059C9.89513 8.36759 9.69113 8.42059 9.66613 8.42359C9.64113 8.43059 9.61613 8.40959 9.61013 8.38159C9.58813 8.25459 10.4001 7.67559 11.3101 7.16759C11.5831 7.01159 11.8791 6.84259 11.9671 6.78959ZM15.5171 6.01659L15.7301 6.37659L15.8001 6.49659C16.1591 7.12859 16.6581 8.18659 16.6581 8.32459C16.6581 8.38459 16.4211 8.44459 16.3791 8.39559C16.343 8.33506 16.3122 8.27148 16.2871 8.20559C16.026 7.61983 15.7391 7.04593 15.4271 6.48559C15.3388 6.33789 15.2551 6.18748 15.1761 6.03459C15.1761 6.02459 15.2531 6.01659 15.3451 6.01659H15.5181H15.5171ZM16.1671 6.05159H16.2241C16.3541 6.05159 16.7541 6.07659 17.1101 6.10459C17.4631 6.13359 17.7901 6.16459 17.8401 6.17559L18.0171 6.21059C18.1271 6.23559 18.2111 6.37059 18.4581 6.89959C18.6201 7.25559 18.8601 7.88759 18.8361 7.90459C18.4099 7.97097 17.9852 8.04632 17.5621 8.13059C17.1021 8.22659 17.0111 8.22659 17.0111 8.12359C17.0111 8.04959 16.4531 6.90359 16.2211 6.50059C15.9381 6.01659 15.9381 6.05159 16.2241 6.05159H16.1671Z" fill="white"/>
<path d="M17.0088 11.0766C17.0968 11.2916 17.1428 11.5216 17.1888 12.0046C17.2348 12.5206 17.3188 13.2336 17.3688 13.5296C17.3898 13.6816 17.4498 13.7136 17.4498 13.5756C17.4498 13.5256 17.4248 13.3316 17.3968 13.1416C17.3566 12.8221 17.3213 12.5021 17.2908 12.1816C17.2689 11.9239 17.2382 11.6671 17.1988 11.4116C17.1538 11.1966 17.0718 11.0166 17.0228 11.0166C16.9978 11.0166 16.9948 11.0416 17.0088 11.0766ZM17.7678 15.2066C17.7678 15.3616 18.2618 16.4976 18.4238 16.7136C18.5338 16.8646 18.5048 16.7276 18.3778 16.4976C18.1939 16.166 18.0367 15.8202 17.9078 15.4636C17.8278 15.2376 17.7678 15.1286 17.7678 15.2066Z" fill="white"/>
<path d="M13.3685 5.3266C16.1571 4.6461 19.1017 5.09541 21.5605 6.5766C23.1205 7.5046 24.5505 8.9656 25.4365 10.5396C26.3965 12.2376 26.8665 13.9946 26.8665 15.8796C26.8695 17.1606 26.7035 18.1916 26.3115 19.3666C25.9394 20.4629 25.4 21.4951 24.7125 22.4266C24.1458 23.1519 23.5057 23.8168 22.8025 24.4106C21.0625 25.8186 19.0475 26.6236 16.7505 26.8176C14.3045 27.0296 11.6005 26.2706 9.5885 24.8096C7.2205 23.0936 5.6535 20.6056 5.1585 17.7856C4.6265 14.7506 5.4525 11.5556 7.3965 9.1386C7.6965 8.7646 8.3815 8.0546 8.8015 7.6846C10.0615 6.5726 11.6955 5.7286 13.3685 5.3266ZM16.5915 5.8916C15.52 5.82482 14.4447 5.92604 13.4045 6.1916C12.1585 6.5156 10.7245 7.2146 9.8145 7.9416L9.4445 8.2346C8.9925 8.5846 8.0075 9.6646 7.6365 10.2186C6.4365 12.0086 5.8615 13.8716 5.8615 15.9536C5.8615 17.6266 6.2005 19.0276 6.9805 20.5536C7.9267 22.4056 9.43039 23.9138 11.2795 24.8656C12.4795 25.4836 13.8205 25.8716 15.1095 25.9736C17.3255 26.1506 19.4005 25.6356 21.3595 24.4246C22.2635 23.8666 23.4205 22.7976 23.9995 21.9896C25.0795 20.4746 25.6765 19.0386 25.9295 17.3296C26.0215 16.7196 26.0255 15.0536 25.9335 14.5136C25.6165 12.5906 24.8185 10.8116 23.6855 9.4986C23.5755 9.3716 23.4385 9.2086 23.3815 9.1416C23.0334 8.75826 22.6544 8.40408 22.2485 8.0826C21.2085 7.2856 20.4135 6.8476 19.2205 6.4166C18.4125 6.1276 17.6215 5.9686 16.5905 5.8916H16.5915Z" fill="white"/>
</g>
<defs>
<clipPath id="clip0_1_5909">
<rect width="32" height="32" fill="white" transform="translate(0.000488281 0.0166016)"/>
</clipPath>
</defs>
</svg>
