<svg width="32" height="33" viewBox="0 0 32 33" fill="none" xmlns="http://www.w3.org/2000/svg">
<g clip-path="url(#clip0_1_5904)">
<path d="M16.0005 32.0166C24.8372 32.0166 32.0005 24.8533 32.0005 16.0166C32.0005 7.17993 24.8372 0.0166016 16.0005 0.0166016C7.16382 0.0166016 0.000488281 7.17993 0.000488281 16.0166C0.000488281 24.8533 7.16382 32.0166 16.0005 32.0166Z" fill="#2B6680"/>
<path d="M5.00049 16.0166C4.99488 18.934 6.14842 21.7341 8.20735 23.801C10.2663 25.8678 13.0619 27.0322 15.9793 27.0378C18.8967 27.0434 21.6968 25.8898 23.7637 23.8309C25.8306 21.772 26.9949 18.9763 27.0005 16.0589V15.9746C26.9967 15.128 26.8957 14.2845 26.6995 13.4609C26.6662 13.3076 26.6026 13.1624 26.5125 13.0339C26.4224 12.9054 26.3076 12.7962 26.1747 12.7127C26.0419 12.6291 25.8937 12.5729 25.7389 12.5473C25.5841 12.5217 25.4257 12.5272 25.273 12.5636C25.1203 12.5999 24.9765 12.6664 24.8498 12.759C24.7231 12.8517 24.6162 12.9686 24.5353 13.1031C24.4544 13.2376 24.4011 13.3868 24.3786 13.5421C24.3561 13.6975 24.3648 13.8557 24.4042 14.0076C24.8426 15.8388 24.6712 17.7631 23.9159 19.4879C23.1606 21.2128 21.8628 22.6438 20.2198 23.5636C18.5768 24.4834 16.6784 24.8416 14.8132 24.5837C12.948 24.3258 11.218 23.466 9.88615 22.1349C8.55433 20.8039 7.69351 19.0744 7.43457 17.2093C7.17563 15.3442 7.53271 13.4456 8.45155 11.8021C9.37039 10.1585 10.8007 8.85994 12.5251 8.10369C14.2495 7.34743 16.1737 7.17489 18.0052 7.61227C18.307 7.67785 18.6225 7.62245 18.884 7.45797C19.1455 7.29349 19.332 7.03305 19.4036 6.73256C19.4751 6.43207 19.426 6.1155 19.2668 5.85082C19.1075 5.58614 18.8508 5.39446 18.5518 5.31694C16.9356 4.93131 15.2531 4.91687 13.6305 5.2747C12.0079 5.63254 10.4875 6.35335 9.18341 7.38301C7.87933 8.41266 6.82549 9.7244 6.10102 11.2197C5.37656 12.715 5.00029 14.355 5.00049 16.0166Z" fill="white"/>
<path d="M21.633 7.52535C21.617 7.54035 21.6067 7.55802 21.5917 7.57402C21.3235 7.85833 21.1589 8.22469 21.1244 8.61402V8.80102C21.1244 8.84435 21.115 8.88602 21.1104 8.92902C21.0643 9.39467 20.9147 9.84414 20.6726 10.2446C20.4306 10.645 20.1021 10.9864 19.7113 11.2436C19.3204 11.5009 18.877 11.6676 18.4135 11.7316C17.9499 11.7955 17.478 11.7551 17.032 11.6134C16.3808 11.4546 15.7003 11.4601 15.0516 11.6294C14.403 11.7987 13.8066 12.1265 13.316 12.5834C13.276 12.6207 13.232 12.6524 13.1927 12.6917C12.4294 13.455 12.0005 14.4902 12.0005 15.5697C12.0005 16.6492 12.4293 17.6845 13.1925 18.4479C13.9558 19.2112 14.9911 19.64 16.0706 19.6401C17.1501 19.6401 18.1854 19.2113 18.9487 18.448C19.117 18.2774 19.2697 18.0914 19.4047 17.893C19.7333 17.4226 19.9587 16.8879 20.066 16.3241C20.1733 15.7604 20.1602 15.1803 20.0274 14.622C20.0047 14.5489 19.9847 14.475 19.9674 14.4004C19.9674 14.3894 19.9607 14.379 19.958 14.3677C19.8567 13.9287 19.851 13.473 19.9412 13.0316C20.0314 12.5902 20.2155 12.1733 20.481 11.8093C20.7465 11.4453 21.0871 11.1426 21.4798 10.9217C21.8725 10.7009 22.3081 10.5671 22.757 10.5294C22.7804 10.5294 22.803 10.5227 22.8264 10.522C22.8927 10.522 22.959 10.5144 23.0254 10.5144H23.0414C23.4478 10.4769 23.8282 10.298 24.116 10.0087C24.1844 9.93802 24.2467 9.86169 24.3027 9.78069C24.5556 9.42224 24.6649 8.98202 24.6091 8.54692C24.5533 8.11181 24.3364 7.71343 24.0013 7.4304C23.6662 7.14736 23.2371 7.00024 22.7988 7.01807C22.3605 7.03589 21.9448 7.21737 21.6337 7.52669" fill="white"/>
</g>
<defs>
<clipPath id="clip0_1_5904">
<rect width="32" height="32" fill="white" transform="translate(0.000488281 0.0166016)"/>
</clipPath>
</defs>
</svg>
