<svg width="32" height="33" viewBox="0 0 32 33" fill="none" xmlns="http://www.w3.org/2000/svg">
<g clip-path="url(#clip0_1_5900)">
<path d="M16.0005 32.0166C24.837 32.0166 32.0005 24.8532 32.0005 16.0166C32.0005 7.18005 24.837 0.0166016 16.0005 0.0166016C7.16393 0.0166016 0.000488281 7.18005 0.000488281 16.0166C0.000488281 24.8532 7.16393 32.0166 16.0005 32.0166Z" fill="#188C92"/>
<path d="M21.8365 21.0466C21.78 21.1277 21.7465 21.2227 21.7399 21.3213C21.7332 21.42 21.7534 21.5186 21.7985 21.6066L15.8725 26.2446C15.7959 26.1842 15.7055 26.1437 15.6095 26.1266L15.4295 14.7106C15.4929 14.6973 15.5537 14.6736 15.6095 14.6406L21.8365 21.0476V21.0466ZM22.0025 20.8886L15.7805 14.4866C15.8303 14.4195 15.864 14.3419 15.8791 14.2597C15.8942 14.1775 15.8902 14.093 15.8675 14.0126L22.1935 10.9326C22.2758 11.0333 22.3896 11.1034 22.5165 11.1316L22.2015 20.8096C22.1312 20.8241 22.0641 20.8512 22.0035 20.8896L22.0025 20.8886ZM15.2625 26.1656L11.9125 21.6626C12.0117 21.5602 12.0673 21.4232 12.0675 21.2806C12.0649 21.1383 12.0094 21.0021 11.9118 20.8985C11.8141 20.795 11.6814 20.7315 11.5395 20.7206L10.4935 11.2536C10.6176 11.2253 10.7286 11.1561 10.8086 11.057C10.8886 10.958 10.933 10.8349 10.9345 10.7076C10.9344 10.5775 10.8879 10.4516 10.8035 10.3526L15.0085 5.8396C15.0625 5.8696 15.1225 5.8926 15.1865 5.9056V13.6096C15.0568 13.633 14.9393 13.7008 14.8541 13.8013C14.7689 13.9018 14.7213 14.0288 14.7195 14.1606C14.7216 14.2939 14.7704 14.4222 14.8574 14.5232C14.9444 14.6243 15.064 14.6916 15.1955 14.7136L15.3755 26.1296C15.3371 26.1379 15.2995 26.1499 15.2635 26.1656H15.2625ZM15.4205 13.6096V5.9066C15.5216 5.88656 15.6158 5.84036 15.6935 5.7726L22.1205 10.3476C22.0621 10.4677 22.05 10.6051 22.0865 10.7336L15.7615 13.8136C15.6748 13.7085 15.5542 13.6367 15.4205 13.6106V13.6096ZM15.3035 5.0166C15.4965 5.0166 15.6535 5.1676 15.6535 5.3536C15.6527 5.39878 15.643 5.44336 15.625 5.4848C15.607 5.52623 15.581 5.56372 15.5485 5.5951C15.516 5.62649 15.4776 5.65117 15.4356 5.66773C15.3936 5.68428 15.3487 5.6924 15.3035 5.6916C15.2583 5.6924 15.2134 5.68428 15.1714 5.66773C15.1293 5.65117 15.091 5.62649 15.0585 5.5951C15.026 5.56372 15 5.52623 14.982 5.4848C14.9639 5.44336 14.9543 5.39878 14.9535 5.3536C14.9535 5.1676 15.1095 5.0166 15.3035 5.0166ZM10.3505 10.3706C10.5445 10.3706 10.7005 10.5206 10.7005 10.7076C10.6997 10.7528 10.69 10.7974 10.672 10.8388C10.654 10.8802 10.628 10.9177 10.5955 10.9491C10.563 10.9805 10.5246 11.0052 10.4826 11.0217C10.4406 11.0383 10.3957 11.0464 10.3505 11.0456C10.3053 11.0464 10.2604 11.0383 10.2184 11.0217C10.1763 11.0052 10.138 10.9805 10.1055 10.9491C10.073 10.9177 10.047 10.8802 10.029 10.8388C10.0109 10.7974 10.0013 10.7528 10.0005 10.7076C10.0005 10.5216 10.1575 10.3706 10.3505 10.3706ZM11.4835 20.9426C11.6775 20.9426 11.8335 21.0936 11.8335 21.2806C11.8316 21.3717 11.7938 21.4583 11.7282 21.5215C11.6625 21.5846 11.5746 21.6192 11.4835 21.6176C11.3924 21.6192 11.3044 21.5846 11.2388 21.5215C11.1732 21.4583 11.1353 21.3717 11.1335 21.2806C11.1335 21.0936 11.2905 20.9426 11.4835 20.9426ZM22.6505 10.2466C22.8435 10.2466 23.0005 10.3976 23.0005 10.5836C22.9997 10.6288 22.99 10.6734 22.972 10.7148C22.954 10.7562 22.928 10.7937 22.8955 10.8251C22.863 10.8565 22.8246 10.8812 22.7826 10.8977C22.7406 10.9143 22.6957 10.9224 22.6505 10.9216C22.6053 10.9224 22.5604 10.9143 22.5184 10.8977C22.4763 10.8812 22.438 10.8565 22.4055 10.8251C22.373 10.7937 22.347 10.7562 22.329 10.7148C22.3109 10.6734 22.3013 10.6288 22.3005 10.5836C22.3005 10.3976 22.4565 10.2466 22.6505 10.2466ZM15.3035 13.8236C15.4965 13.8236 15.6535 13.9736 15.6535 14.1606C15.6527 14.2058 15.643 14.2504 15.625 14.2918C15.607 14.3332 15.581 14.3707 15.5485 14.4021C15.516 14.4335 15.4776 14.4582 15.4356 14.4747C15.3936 14.4913 15.3487 14.4994 15.3035 14.4986C15.2583 14.4994 15.2134 14.4913 15.1714 14.4747C15.1293 14.4582 15.091 14.4335 15.0585 14.4021C15.026 14.3707 15 14.3332 14.982 14.2918C14.9639 14.2504 14.9543 14.2058 14.9535 14.1606C14.9535 13.9746 15.1095 13.8236 15.3035 13.8236ZM15.5015 26.3416C15.6955 26.3416 15.8515 26.4926 15.8515 26.6796C15.8496 26.7707 15.8118 26.8573 15.7462 26.9205C15.6805 26.9836 15.5926 27.0182 15.5015 27.0166C15.4104 27.0182 15.3224 26.9836 15.2568 26.9205C15.1912 26.8573 15.1533 26.7707 15.1515 26.6796C15.1515 26.4926 15.3085 26.3416 15.5015 26.3416ZM22.3235 21.0216C22.5165 21.0216 22.6735 21.1726 22.6735 21.3596C22.6716 21.4507 22.6338 21.5373 22.5682 21.6005C22.5025 21.6636 22.4146 21.6982 22.3235 21.6966C22.2324 21.6982 22.1444 21.6636 22.0788 21.6005C22.0132 21.5373 21.9753 21.4507 21.9735 21.3596C21.9735 21.1726 22.1295 21.0216 22.3235 21.0216Z" fill="white"/>
</g>
<defs>
<clipPath id="clip0_1_5900">
<rect width="32" height="32" fill="white" transform="translate(0.000488281 0.0166016)"/>
</clipPath>
</defs>
</svg>
