<svg width="32" height="33" viewBox="0 0 32 33" fill="none" xmlns="http://www.w3.org/2000/svg">
<g clip-path="url(#clip0_1_5896)">
<path d="M16.0005 32.0166C24.837 32.0166 32.0005 24.8532 32.0005 16.0166C32.0005 7.18005 24.837 0.0166016 16.0005 0.0166016C7.16393 0.0166016 0.000488281 7.18005 0.000488281 16.0166C0.000488281 24.8532 7.16393 32.0166 16.0005 32.0166Z" fill="#00AEEF"/>
<path d="M16.2605 14.7227C16.4985 14.6817 16.7085 14.5927 16.8925 14.4577C17.0765 14.3227 17.2505 14.0947 17.4135 13.7827L21.0385 6.79573C21.1805 6.56173 21.3545 6.37573 21.5545 6.22973C21.76 6.08759 22.0047 6.01312 22.2545 6.01673H24.5535L20.0395 14.2347C19.8395 14.5727 19.6125 14.8477 19.3595 15.0607C19.1067 15.2709 18.8186 15.4345 18.5085 15.5437C18.9925 15.6687 19.3975 15.8717 19.7285 16.1567C20.0545 16.4367 20.3655 16.8327 20.6545 17.3417L25.0005 26.0167H22.4705C21.9595 26.0167 21.5485 25.7417 21.2385 25.1967L17.6765 17.8457C17.4925 17.5177 17.2925 17.2847 17.0765 17.1437C16.8615 17.0037 16.5875 16.9207 16.2615 16.8997V20.6297H14.2725V16.8837H12.8105V26.0167H10.0005V6.01673H12.8105V14.7547H14.2725V10.4327H16.2615V14.7227H16.2605Z" fill="white"/>
</g>
<defs>
<clipPath id="clip0_1_5896">
<rect width="32" height="32" fill="white" transform="translate(0.000488281 0.0166016)"/>
</clipPath>
</defs>
</svg>
