<svg width="32" height="33" viewBox="0 0 32 33" fill="none" xmlns="http://www.w3.org/2000/svg">
<g clip-path="url(#clip0_1_5892)">
<path d="M16.0005 32.0166C24.837 32.0166 32.0005 24.8532 32.0005 16.0166C32.0005 7.18005 24.837 0.0166016 16.0005 0.0166016C7.16393 0.0166016 0.000488281 7.18005 0.000488281 16.0166C0.000488281 24.8532 7.16393 32.0166 16.0005 32.0166Z" fill="#006149"/>
<path d="M24.1575 16.7526L23.3605 16.5536L23.6025 15.5836L26.0875 16.2046L25.4675 18.6896L24.4965 18.4476L24.7115 17.5856L15.8395 23.0786L6.00049 18.1626V14.4106L16.2245 8.0166L25.5995 12.5896V14.1336L15.8405 20.1966L8.59349 16.6036L9.03749 15.7076L15.7865 19.0536L24.5995 13.5776V13.2146L16.2845 9.1586L7.00149 14.9646V17.5446L15.7885 21.9346L24.1575 16.7526Z" fill="white"/>
</g>
<defs>
<clipPath id="clip0_1_5892">
<rect width="32" height="32" fill="white" transform="translate(0.000488281 0.0166016)"/>
</clipPath>
</defs>
</svg>
