<svg width="32" height="33" viewBox="0 0 32 33" fill="none" xmlns="http://www.w3.org/2000/svg">
<g clip-path="url(#clip0_1_5888)">
<path d="M16.0005 32.0166C24.837 32.0166 32.0005 24.8532 32.0005 16.0166C32.0005 7.18005 24.837 0.0166016 16.0005 0.0166016C7.16393 0.0166016 0.000488281 7.18005 0.000488281 16.0166C0.000488281 24.8532 7.16393 32.0166 16.0005 32.0166Z" fill="#0FA9C9"/>
<path d="M17.1475 20.4626L11.6975 26.0166L10.1435 24.3116L13.9205 20.4616L10.0005 16.4686L11.6735 14.7626L17.1475 20.4626ZM20.3275 17.2716L22.0005 15.5656L18.0805 11.5706L21.8575 7.7216L20.3035 6.0166L14.8295 11.5706L20.3275 17.2716ZM12.3675 14.1046L17.8655 19.8046L19.5385 18.0996L14.0405 12.4966L12.3675 14.1046Z" fill="white"/>
</g>
<defs>
<clipPath id="clip0_1_5888">
<rect width="32" height="32" fill="white" transform="translate(0.000488281 0.0166016)"/>
</clipPath>
</defs>
</svg>
