<svg width="32" height="33" viewBox="0 0 32 33" fill="none" xmlns="http://www.w3.org/2000/svg">
<g clip-path="url(#clip0_1_5880)">
<path d="M16.0005 32.0166C24.837 32.0166 32.0005 24.8532 32.0005 16.0166C32.0005 7.18005 24.837 0.0166016 16.0005 0.0166016C7.16393 0.0166016 0.000488281 7.18005 0.000488281 16.0166C0.000488281 24.8532 7.16393 32.0166 16.0005 32.0166Z" fill="#11021E"/>
<path d="M10.4295 14.0326H10.4395L10.5925 14.0906L10.7555 14.1476L10.9085 14.2056L11.0715 14.2726L11.2245 14.3306L11.3875 14.3776L11.5415 14.4356L11.6945 14.5026L12.0015 14.6176L12.1645 14.6656L12.3175 14.7326L12.4805 14.7906L12.6345 14.8476L12.7975 14.9056L12.9505 14.9626L13.1135 15.0206L13.2665 15.0776L13.4295 15.1356L13.5835 15.2026L13.7465 15.2506V13.0166H10.2085L10.0555 13.0936L9.69149 13.2856L9.31749 13.4766L8.95349 13.6686L8.58849 13.8606L8.21449 14.0526L7.84149 14.2436L7.47649 14.4356L7.11249 14.6276L6.73849 14.8186L6.37449 15.0106L6.03849 15.1926L6.00049 20.6866L6.37449 20.9456L6.73849 21.2046L7.11249 21.4536L7.84149 21.9716L8.21449 22.2296L8.37749 22.3546L8.58849 22.0956L8.95349 21.6156L8.98149 21.5686L8.95349 21.5396L8.58849 21.2806L8.21449 21.0126L7.84149 20.7536L7.47649 20.4946L7.11249 20.2366L7.00749 20.1686L7.03549 15.7306L7.11249 15.6926L7.47649 15.5106L7.84149 15.3186L8.21449 15.1456L8.58849 14.9546L8.95349 14.7716L9.31749 14.5896L9.69149 14.4076L10.0555 14.2256L10.4295 14.0326Z" fill="white"/>
<path d="M16.7565 24.9046L16.4395 25.0296L16.0945 25.1636L15.7495 25.3076L15.4045 25.4416L15.2515 25.5086L15.0695 25.4136L14.7235 25.2406L14.3885 25.0676L14.0435 24.8956L13.6985 24.7226L13.3535 24.5506L13.0085 24.3776L12.6625 24.1956L12.3175 24.0326L11.9825 23.8506L11.6375 23.6776L11.3015 23.5156L10.9565 23.3326L10.9185 23.3136V18.8376H9.92149V23.9276L11.3015 24.6176L11.6375 24.7896L11.9825 24.9726L12.3175 25.1356L12.6625 25.3176L13.0085 25.4896L13.3535 25.6526L13.6985 25.8346L14.3885 26.1796L14.7235 26.3526L15.2035 26.5926L15.4045 26.5056L15.7495 26.3716L16.0945 26.2376L16.4395 26.0936L16.7845 25.9496L17.1305 25.8256L16.7845 24.9626L16.7565 24.9046ZM22.8815 18.6646L22.9015 20.7826L22.8055 20.8506L22.2205 21.2626L21.6455 21.6846L21.0605 22.0966L20.4755 22.5186L19.8815 22.9206L19.3065 23.3426L18.7215 23.7646L18.3765 24.0136L18.1365 23.8216L17.5615 23.3816L16.9765 22.9306L16.3915 22.4896L15.8165 22.0396L15.7115 21.9716V19.6916L15.8165 19.5956L16.3915 18.9816L16.9765 18.3776L17.5615 17.7646L18.1365 17.1606L18.7025 16.5666H11.7335L12.3175 17.1796L12.8935 17.7836L13.4875 18.3876L14.0725 19.0006L14.6475 19.6046L14.7235 19.6916V22.4516L15.2325 22.8446L15.8165 23.2856L16.3915 23.7366L16.9765 24.1766L17.5615 24.6276L18.1365 25.0686L18.3565 25.2416L18.7215 24.9736L19.3065 24.5606L19.8815 24.1396L20.4755 23.7266L21.0605 23.3146L21.6455 22.9026L22.2205 22.4806L22.8055 22.0686L23.3895 21.6566L23.8695 21.3016L23.9645 18.7036L23.3895 18.6846L22.8815 18.6646ZM6.93049 13.7656H6.99749L7.00749 10.9476L7.39049 10.7076L7.85049 10.4306L8.32049 10.1526L8.77049 9.8546L9.24049 9.5766L9.70049 9.2896L10.1605 9.0116L10.6205 8.7336L11.0805 8.4456L11.5505 8.1676L11.5605 8.1576L12.0015 8.4176L12.4715 8.6756L13.3915 9.2126L13.8515 9.4716L14.3215 9.7306L14.7715 9.9986L15.2225 10.2486L15.2425 10.2096L15.7025 9.3856L15.2425 9.1166L14.7725 8.8576L14.3215 8.5996L13.8515 8.3396L13.3915 8.0626L12.9315 7.8036L12.4715 7.5446L12.0015 7.2856L11.5515 7.0266L11.5315 7.0166L11.0815 7.2866L10.6215 7.5736L10.1615 7.8516L9.70149 8.1386L9.24149 8.4166L8.77149 8.6946L8.32049 8.9826L7.85049 9.2606L7.39049 9.5486L6.93049 9.8356L6.47049 10.1136L6.02049 10.3916L6.00049 13.7566H6.47049L6.93049 13.7656Z" fill="white"/>
<path d="M25.0585 10.8926L24.8285 10.7106L24.5805 10.5096L24.3405 10.3176L24.1005 10.1256L23.8605 9.9256L23.6205 9.7426L23.3725 9.5506L23.1325 9.3496L22.8825 9.1576L22.7105 9.0136L22.6435 9.0906L22.4035 9.3876L22.1545 9.6946L22.0975 9.7806L22.1545 9.8476L22.4045 10.0496L22.6445 10.2406L22.8835 10.4516L23.1325 10.6536L23.3725 10.8536L23.6215 11.0656L23.8615 11.2666L23.9765 11.3626L23.9865 15.8966L23.8615 15.9736L23.6215 16.1366L23.3715 16.2806L23.1325 16.4436L22.8825 16.5866L22.6435 16.7496L22.4035 16.8936L22.1545 17.0566L21.9145 17.2006L21.6745 17.3636L21.4355 17.5076L21.1955 17.6706L20.9465 17.8136L20.7065 17.9766L20.4675 18.1206L20.2275 18.2836L19.9785 18.4276L20.2285 18.8106L20.4685 19.2036L20.5155 19.2706L20.7075 19.1466L20.9475 18.9926L21.1965 18.8496L21.4365 18.6956L21.6755 18.5426L21.9155 18.3896L22.1555 18.2456L22.4035 18.0916L22.6435 17.9486L22.8835 17.7946L23.1325 17.6416L23.3725 17.4876L23.6215 17.3446L23.8615 17.1906L24.1015 17.0476L24.3405 16.8936L24.5805 16.7406L24.8295 16.5866L25.0695 16.4436L25.0585 10.8926ZM17.1605 13.5966V15.5616L17.2375 15.5316L17.5535 15.3986L17.8795 15.2736L18.1955 15.1396L18.5215 15.0146L18.8475 14.8806L19.1635 14.7466L19.4895 14.6216L19.8155 14.4876L20.1325 14.3626L20.4575 14.2286L20.7745 14.1046V8.1606L20.4105 7.9406L20.0365 7.7296L19.6715 7.5096L19.2985 7.2886L18.9245 7.0776L18.5505 6.8576L18.1865 6.6366L17.8215 6.4266L17.4475 6.2056L17.0745 5.9856L16.7005 5.7736L16.3355 5.5536L15.9715 5.3336L15.5975 5.1216L15.4065 5.0166L15.2245 5.1026L14.8505 5.3136L14.4855 5.5056L14.1215 5.7066L13.7475 5.9176L13.3735 6.1096L13.0005 6.3106L13.3735 6.5306L13.7475 6.7416L13.9775 6.8766L14.1215 6.8096L14.4855 6.6076L14.8505 6.4166L15.2245 6.2246L15.3775 6.1476L15.5975 6.2726L15.9715 6.4926L16.7005 6.9146L17.4475 7.3556L17.8215 7.5656L18.5505 8.0076L18.9245 8.2176L19.6715 8.6596L19.7865 8.7166V13.0976H17.1695" fill="white"/>
<path d="M16.6345 15.4806L20.2485 14.0236L16.6245 13.0166L16.6345 15.4806ZM13.3085 15.4806V13.0546L10.0005 14.0426L13.3085 15.4706" fill="white"/>
</g>
<defs>
<clipPath id="clip0_1_5880">
<rect width="32" height="32" fill="white" transform="translate(0.000488281 0.0166016)"/>
</clipPath>
</defs>
</svg>
