<svg width="32" height="33" viewBox="0 0 32 33" fill="none" xmlns="http://www.w3.org/2000/svg">
<g clip-path="url(#clip0_1_5876)">
<path d="M16.001 32.0166C24.8375 32.0166 32.001 24.8532 32.001 16.0166C32.001 7.18005 24.8375 0.0166016 16.001 0.0166016C7.16442 0.0166016 0.000976562 7.18005 0.000976562 16.0166C0.000976562 24.8532 7.16442 32.0166 16.001 32.0166Z" fill="#2A5ADA"/>
<path d="M15.501 6.0166L13.702 7.0716L8.80098 9.9616L7.00098 11.0166V21.0166L8.79998 22.0716L13.747 24.9616L15.546 26.0166L17.345 24.9616L22.202 22.0716L24.001 21.0166V11.0166L22.202 9.9616L17.3 7.0716L15.501 6.0166ZM10.599 18.9066V13.1266L15.501 10.2366L20.403 13.1266V18.9066L15.501 21.7966L10.599 18.9066Z" fill="white"/>
</g>
<defs>
<clipPath id="clip0_1_5876">
<rect width="32" height="32" fill="white" transform="translate(0.000976562 0.0166016)"/>
</clipPath>
</defs>
</svg>
