<svg width="32" height="33" viewBox="0 0 32 33" fill="none" xmlns="http://www.w3.org/2000/svg">
<g clip-path="url(#clip0_1_5872)">
<path d="M16.001 32.0166C24.8375 32.0166 32.001 24.8532 32.001 16.0166C32.001 7.18005 24.8375 0.0166016 16.001 0.0166016C7.16442 0.0166016 0.000976562 7.18005 0.000976562 16.0166C0.000976562 24.8532 7.16442 32.0166 16.001 32.0166Z" fill="#9D01EB"/>
<path d="M10.006 26.0166V22.3606L16.001 16.2566L21.977 22.3616V26.0166L16.001 19.9106L10.006 26.0166ZM5.00098 13.6496H13.47L16.001 16.2566H7.53198L5.00098 13.6496ZM27.001 13.6496L24.47 16.2556H16.001V5.0166L18.532 7.6026V13.6496H27.001Z" fill="white"/>
</g>
<defs>
<clipPath id="clip0_1_5872">
<rect width="32" height="32" fill="white" transform="translate(0.000976562 0.0166016)"/>
</clipPath>
</defs>
</svg>
