<svg width="32" height="33" viewBox="0 0 32 33" fill="none" xmlns="http://www.w3.org/2000/svg">
<g clip-path="url(#clip0_1_5865)">
<path d="M16.001 32.0166C24.8375 32.0166 32.001 24.8532 32.001 16.0166C32.001 7.18005 24.8375 0.0166016 16.001 0.0166016C7.16442 0.0166016 0.000976562 7.18005 0.000976562 16.0166C0.000976562 24.8532 7.16442 32.0166 16.001 32.0166Z" fill="#48BEFF"/>
<path d="M22.1935 26.2556L5.80953 14.7606C5.25123 14.3688 4.79549 13.8484 4.48087 13.2433C4.16624 12.6381 4.00198 11.9661 4.00198 11.2841C4.00198 10.6021 4.16624 9.93007 4.48087 9.32494C4.79549 8.71981 5.25123 8.19936 5.80953 7.8076L9.77953 5.0166L26.1655 16.5106C26.7238 16.9024 27.1796 17.4228 27.4942 18.0279C27.8088 18.6331 27.9731 19.3051 27.9731 19.9871C27.9731 20.6691 27.8088 21.3411 27.4942 21.9463C27.1796 22.5514 26.7238 23.0718 26.1655 23.4636L22.1935 26.2556ZM9.77553 6.8796L6.68253 9.0436C6.32273 9.29518 6.02895 9.62984 5.8261 10.0192C5.62326 10.4085 5.51734 10.8411 5.51734 11.2801C5.51734 11.7191 5.62326 12.1517 5.8261 12.541C6.02895 12.9304 6.32273 13.265 6.68253 13.5166L22.1965 24.3936L25.2905 22.2296C25.6503 21.978 25.9441 21.6434 26.1469 21.254C26.3498 20.8647 26.4557 20.4321 26.4557 19.9931C26.4557 19.5541 26.3498 19.1215 26.1469 18.7322C25.9441 18.3428 25.6503 18.0082 25.2905 17.7566L9.77553 6.8796Z" fill="white"/>
<path d="M9.76252 24.3736L6.67252 22.2066C6.31273 21.955 6.01894 21.6204 5.81609 21.231C5.61325 20.8417 5.50733 20.4091 5.50733 19.9701C5.50733 19.5311 5.61325 19.0985 5.81609 18.7092C6.01894 18.3198 6.31273 17.9852 6.67252 17.7336L14.6725 12.1506L13.3525 11.2226L5.80852 16.4906C5.25022 16.8824 4.79449 17.4028 4.47986 18.0079C4.16524 18.6131 4.00098 19.2851 4.00098 19.9671C4.00098 20.6491 4.16524 21.3211 4.47986 21.9263C4.79449 22.5314 5.25022 23.0518 5.80852 23.4436L9.76552 26.2226L14.6625 22.7936L13.3485 21.8676L9.76252 24.3736ZM26.1695 7.7936L22.2095 5.0166L17.3095 8.4456L18.6235 9.3706L22.2035 6.8656L25.2935 9.0326C25.6533 9.28418 25.9471 9.61884 26.1499 10.0082C26.3528 10.3975 26.4587 10.8301 26.4587 11.2691C26.4587 11.7081 26.3528 12.1407 26.1499 12.53C25.9471 12.9194 25.6533 13.254 25.2935 13.5056L17.2935 19.0876L18.6085 20.0136L26.1625 14.7366C26.7208 14.3448 27.1766 13.8244 27.4912 13.2193C27.8058 12.6141 27.9701 11.9421 27.9701 11.2601C27.9701 10.5781 27.8058 9.90607 27.4912 9.30094C27.1766 8.69581 26.7208 8.17536 26.1625 7.7836L26.1705 7.7936H26.1695Z" fill="white"/>
<path d="M7.00098 15.3786L13.231 11.0166L14.099 12.2566L7.86798 16.6186L7.00098 15.3786ZM24.751 13.6206L21.716 15.7456L22.584 16.9866L25.726 14.7826C25.392 14.4006 25.069 14.0106 24.745 13.6196L24.751 13.6206Z" fill="white"/>
</g>
<defs>
<clipPath id="clip0_1_5865">
<rect width="32" height="32" fill="white" transform="translate(0.000976562 0.0166016)"/>
</clipPath>
</defs>
</svg>
