<svg width="32" height="33" viewBox="0 0 32 33" fill="none" xmlns="http://www.w3.org/2000/svg">
<g clip-path="url(#clip0_1_5861)">
<path d="M16 32.0181C24.8366 32.0181 32 24.8546 32 16.0181C32 7.18151 24.8366 0.0180664 16 0.0180664C7.16344 0.0180664 0 7.18151 0 16.0181C0 24.8546 7.16344 32.0181 16 32.0181Z" fill="black"/>
<path fill-rule="evenodd" clip-rule="evenodd" d="M14.225 23.5011H17.733V27.0091H14.225V23.5011ZM14.225 8.01807H17.733V11.5261H14.225V8.01807ZM22.492 8.01807H26V11.5261H22.492V8.01807ZM6 8.01807H9.508V11.5261H6V8.01807ZM18.358 15.7601H21.866V19.2681H18.358V15.7601ZM10.083 15.7601H13.591V19.2681H10.083V15.7601Z" fill="white"/>
</g>
<defs>
<clipPath id="clip0_1_5861">
<rect width="32" height="32" fill="white" transform="translate(0 0.0180664)"/>
</clipPath>
</defs>
</svg>
