<svg width="32" height="33" viewBox="0 0 32 33" fill="none" xmlns="http://www.w3.org/2000/svg">
<g clip-path="url(#clip0_1_5853)">
<path d="M16 32.0181C24.8366 32.0181 32 24.8546 32 16.0181C32 7.18151 24.8366 0.0180664 16 0.0180664C7.16344 0.0180664 0 7.18151 0 16.0181C0 24.8546 7.16344 32.0181 16 32.0181Z" fill="#0D4EA0"/>
<path d="M14.249 24.9761C14.235 24.9901 14.207 25.0041 14.193 25.0181H12.641C12.613 25.0181 12.599 25.0041 12.585 24.9901L8.00999 19.8221C8.00333 19.8092 7.99985 19.795 7.99985 19.7806C7.99985 19.7661 8.00333 19.7519 8.00999 19.7391L13.708 9.90407C13.736 9.86307 13.805 9.86307 13.833 9.90407L15.427 12.6621C15.441 12.6761 15.441 12.7041 15.427 12.7321L11.573 19.3771C11.559 19.4041 11.573 19.4321 11.587 19.4601L13.888 22.0511C13.9034 22.0659 13.9229 22.0756 13.944 22.0791H16.661C16.731 22.0791 16.758 22.1491 16.716 22.1901L14.249 24.9761ZM15.939 6.06007C15.968 6.00407 16.037 6.00407 16.051 6.06007L23.994 19.7101C24.008 19.7391 23.994 19.7671 23.98 19.7941L19.406 24.9621C19.3906 24.9769 19.3711 24.9866 19.35 24.9901H15.635C15.565 24.9901 15.538 24.9201 15.58 24.8791L18.061 22.0651L20.39 19.4461C20.418 19.4181 20.418 19.3901 20.404 19.3631L15.995 11.7571L14.332 8.88707C14.318 8.87407 14.318 8.84607 14.332 8.81707L15.939 6.06007Z" fill="white"/>
</g>
<defs>
<clipPath id="clip0_1_5853">
<rect width="32" height="32" fill="white" transform="translate(0 0.0180664)"/>
</clipPath>
</defs>
</svg>
