<svg width="32" height="33" viewBox="0 0 32 33" fill="none" xmlns="http://www.w3.org/2000/svg">
<g clip-path="url(#clip0_1_5845)">
<path d="M16 32.0181C24.8366 32.0181 32 24.8546 32 16.0181C32 7.18151 24.8366 0.0180664 16 0.0180664C7.16344 0.0180664 0 7.18151 0 16.0181C0 24.8546 7.16344 32.0181 16 32.0181Z" fill="#F55749"/>
<path d="M15.813 6.06606C15.8698 6.03427 15.9339 6.01758 15.999 6.01758C16.0641 6.01758 16.1282 6.03427 16.185 6.06606L24.41 10.6841C24.4662 10.7151 24.513 10.7605 24.5457 10.8157C24.5784 10.871 24.5958 10.9339 24.596 10.9981C24.596 11.1281 24.526 11.2481 24.411 11.3121L17.256 15.3461C17.0037 15.0592 16.6599 14.8684 16.283 14.8061V12.6131C17.058 12.4841 17.649 11.8281 17.649 11.0351C17.649 10.1501 16.913 9.43206 16.004 9.43206C15.095 9.43206 14.359 10.1501 14.359 11.0351C14.359 11.8231 14.944 12.4771 15.713 12.6111V14.8091C15.3412 14.873 15.0025 15.0622 14.753 15.3451L7.599 11.3281C7.54263 11.2973 7.49557 11.252 7.46275 11.1968C7.42993 11.1416 7.41256 11.0786 7.41245 11.0144C7.41235 10.9501 7.42952 10.8871 7.46217 10.8318C7.49481 10.7765 7.54173 10.731 7.598 10.7001L15.814 6.06907L15.813 6.06606ZM24.434 11.8861C24.4907 11.8539 24.5547 11.837 24.6199 11.8368C24.685 11.8366 24.7491 11.8532 24.806 11.8851C24.8622 11.9161 24.9092 11.9616 24.942 12.0167C24.9749 12.0719 24.9925 12.1348 24.993 12.1991L25 21.1651C25 21.2951 24.93 21.4141 24.814 21.4791L16.849 25.9691C16.602 26.1091 16.292 25.9341 16.292 25.6551L16.285 17.9621C16.671 17.8981 17.021 17.7011 17.272 17.4071L19.262 18.5221C19.2071 18.7267 19.1946 18.9404 19.225 19.1501C19.351 20.0271 20.184 20.6371 21.083 20.5141C21.983 20.3901 22.609 19.5791 22.483 18.7021C22.357 17.8251 21.523 17.2151 20.624 17.3391C20.4006 17.369 20.1856 17.4445 19.9926 17.5609C19.7996 17.6774 19.6326 17.8323 19.502 18.0161L17.552 16.9231C17.692 16.5521 17.682 16.1431 17.527 15.7781L24.435 11.8841L24.434 11.8861ZM7.008 12.1981C7.008 11.9861 7.186 11.8351 7.38 11.8351C7.445 11.8351 7.51 11.8521 7.566 11.8851L14.481 15.7831C14.328 16.1471 14.32 16.5531 14.458 16.9231L12.509 18.0161C12.3783 17.8324 12.2113 17.6775 12.0183 17.561C11.8253 17.4446 11.6104 17.369 11.387 17.3391C10.487 17.2151 9.656 17.8261 9.529 18.7021C9.402 19.5781 10.029 20.3891 10.929 20.5131C11.829 20.6371 12.659 20.0261 12.787 19.1501C12.8176 18.9401 12.805 18.726 12.75 18.5211L14.739 17.4061C14.988 17.6981 15.334 17.8941 15.716 17.9601L15.71 25.6551C15.71 25.9341 15.4 26.1081 15.152 25.9681L7.186 21.4781C7.12983 21.4471 7.08296 21.4016 7.05026 21.3464C7.01756 21.2912 7.00021 21.2282 7 21.1641L7.008 12.1981Z" fill="white"/>
</g>
<defs>
<clipPath id="clip0_1_5845">
<rect width="32" height="32" fill="white" transform="translate(0 0.0180664)"/>
</clipPath>
</defs>
</svg>
