<svg width="32" height="32" viewBox="0 0 32 32" fill="none" xmlns="http://www.w3.org/2000/svg">
<g clip-path="url(#clip0_1_6792)">
<path d="M16 32C24.8366 32 32 24.8366 32 16C32 7.16344 24.8366 0 16 0C7.16344 0 0 7.16344 0 16C0 24.8366 7.16344 32 16 32Z" fill="#172852"/>
<path d="M12.888 7.15044C14.7616 6.44964 16.8704 6.44804 18.7792 7.02404C21.264 7.79524 23.3616 9.67044 24.4576 12.024C24.76 12.6944 25.0496 13.3936 25.0784 14.1392C23.6816 13.3296 22.1504 12.8048 20.616 12.3264C18.1616 11.4416 15.592 10.8272 13.2688 9.61124C12.728 9.28804 12.0384 8.95684 11.8912 8.28324C11.832 7.70084 12.448 7.37604 12.888 7.15044Z" fill="#FFD83D"/>
<path d="M7.232 12.8145C7.7744 11.3425 8.664 9.97606 9.872 8.96326C10.1792 11.4897 11.2544 13.9313 13.0304 15.7681C15.16 17.9809 18.1936 19.3393 21.28 19.2881C22.5056 19.3265 23.704 19.0433 24.8992 18.8145C23.7232 23.0641 19.0656 25.8849 14.7504 25.2065C12.1456 24.8737 9.7408 23.3313 8.2896 21.1537C6.6528 18.7473 6.24 15.5521 7.232 12.8145Z" fill="#FFD83D"/>
<path d="M20.616 12.3264C22.1504 12.8048 23.6816 13.3296 25.0784 14.1392L25.1728 14.1888C25.3024 15.1632 25.3968 16.1568 25.224 17.1328C24.5216 16.8352 23.952 16.312 23.3568 15.8496C22.2112 14.896 21.0416 13.8048 20.616 12.3264Z" fill="#FF6F03"/>
</g>
<defs>
<clipPath id="clip0_1_6792">
<rect width="32" height="32" fill="white"/>
</clipPath>
</defs>
</svg>
