<svg width="32" height="33" viewBox="0 0 32 33" fill="none" xmlns="http://www.w3.org/2000/svg">
<g clip-path="url(#clip0_1_5838)">
<path d="M16 32.0181C24.8366 32.0181 32 24.8546 32 16.0181C32 7.18151 24.8366 0.0180664 16 0.0180664C7.16344 0.0180664 0 7.18151 0 16.0181C0 24.8546 7.16344 32.0181 16 32.0181Z" fill="#5592D7"/>
<path d="M19.9926 12.0191V24.9921L9.03662 18.6851C5.79662 16.7881 6.00262 15.6081 6.00262 13.0451L17.2656 19.5571V13.6081L19.9916 12.0181L19.9926 12.0191Z" fill="white"/>
<path opacity="0.6" d="M17.263 19.9365L6 13.4235L16.954 7.1165C20.194 5.2695 21.12 6.0395 23.383 7.3215L12.12 13.8345L17.263 16.8085V19.9365Z" fill="white"/>
<path opacity="0.2" d="M12.001 13.5311L23.264 7.01807V19.6331C23.264 23.3771 22.133 23.7871 19.87 25.0691V12.0951L14.674 15.0681L12 13.5301L12.001 13.5311Z" fill="white"/>
</g>
<defs>
<clipPath id="clip0_1_5838">
<rect width="32" height="32" fill="white" transform="translate(0 0.0180664)"/>
</clipPath>
</defs>
</svg>
