<svg width="32" height="33" viewBox="0 0 32 33" fill="none" xmlns="http://www.w3.org/2000/svg">
<g clip-path="url(#clip0_1_5834)">
<path d="M16.0005 32.0181C24.837 32.0181 32.0005 24.8546 32.0005 16.0181C32.0005 7.18151 24.837 0.0180664 16.0005 0.0180664C7.16393 0.0180664 0.000488281 7.18151 0.000488281 16.0181C0.000488281 24.8546 7.16393 32.0181 16.0005 32.0181Z" fill="#FF2D55"/>
<path d="M12.7935 11.5521L5.7485 20.0061C5.25204 18.7352 4.99832 17.3825 5.0005 16.0181C5.0005 9.94107 9.9235 5.01807 16.0005 5.01807C22.0785 5.01807 27.0005 9.94107 27.0005 16.0181C27.0005 19.3781 25.4935 22.3871 23.1175 24.4051H8.8835C8.26041 23.8711 7.6962 23.272 7.2005 22.6181H19.7625V17.8551L23.7275 22.6181H24.8005L19.7575 16.5681L18.3655 18.2401L12.7945 11.5521H12.7935ZM19.7585 9.41807C19.042 9.43739 18.3613 9.7356 17.8614 10.2492C17.3614 10.7628 17.0817 11.4513 17.0817 12.1681C17.0817 12.8848 17.3614 13.5733 17.8614 14.0869C18.3613 14.6005 19.042 14.8987 19.7585 14.9181C20.475 14.8987 21.1557 14.6005 21.6556 14.0869C22.1556 13.5733 22.4353 12.8848 22.4353 12.1681C22.4353 11.4513 22.1556 10.7628 21.6556 10.2492C21.1557 9.7356 20.475 9.43739 19.7585 9.41807ZM12.7955 7.42707C12.6117 7.42211 12.4289 7.45402 12.2576 7.52092C12.0864 7.58782 11.9304 7.68834 11.7986 7.81656C11.6669 7.94478 11.5622 8.09809 11.4907 8.26744C11.4192 8.43679 11.3824 8.61875 11.3824 8.80257C11.3824 8.98639 11.4192 9.16834 11.4907 9.3377C11.5622 9.50705 11.6669 9.66035 11.7986 9.78857C11.9304 9.91679 12.0864 10.0173 12.2576 10.0842C12.4289 10.1511 12.6117 10.183 12.7955 10.1781C13.1539 10.1684 13.4943 10.0192 13.7444 9.76234C13.9945 9.50544 14.1344 9.16108 14.1344 8.80257C14.1344 8.44405 13.9945 8.09969 13.7444 7.84279C13.4943 7.58589 13.1539 7.43673 12.7955 7.42707ZM9.9895 25.2301H22.0125C20.2252 26.3985 18.1358 27.0199 16.0005 27.0181C13.8655 27.0197 11.7765 26.3983 9.9895 25.2301ZM17.8325 18.8841L15.4065 21.7931H6.6395C6.28921 21.2255 5.99099 20.6274 5.7485 20.0061H12.7945V12.8381L17.8325 18.8831V18.8841Z" fill="#16141A"/>
</g>
<defs>
<clipPath id="clip0_1_5834">
<rect width="32" height="32" fill="white" transform="translate(0.000488281 0.0180664)"/>
</clipPath>
</defs>
</svg>
