<svg width="32" height="33" viewBox="0 0 32 33" fill="none" xmlns="http://www.w3.org/2000/svg">
<g clip-path="url(#clip0_1_5830)">
<path d="M16.0005 32.0181C24.837 32.0181 32.0005 24.8546 32.0005 16.0181C32.0005 7.18151 24.837 0.0180664 16.0005 0.0180664C7.16393 0.0180664 0.000488281 7.18151 0.000488281 16.0181C0.000488281 24.8546 7.16393 32.0181 16.0005 32.0181Z" fill="#033B4A"/>
<path d="M15.5325 7.08207C16.0895 6.91907 16.6805 7.08507 17.1615 7.37607C19.3066 8.60469 21.4613 9.81639 23.6255 11.0111C24.4585 11.4521 25.0125 12.3571 25.0005 13.2911C24.9985 16.3851 24.9905 19.4811 24.9955 22.5751C25.0295 22.7901 24.8835 23.0351 24.6395 23.0131C23.6785 23.0191 22.7175 23.0151 21.7565 23.0141C21.5465 23.0451 21.3445 22.8691 21.3665 22.6561C21.2745 20.0211 21.3095 17.3831 21.3365 14.7461C21.3365 14.4161 21.2725 14.0681 21.0595 13.8011C20.8435 13.5181 20.5025 13.3731 20.1975 13.2051C19.6975 12.9431 19.2265 12.6261 18.7085 12.3971C18.5125 12.3191 18.2575 12.2351 18.0725 12.3841C17.8675 12.5771 17.8695 12.8821 17.8485 13.1421C17.8107 14.4351 17.807 15.7289 17.8375 17.0221C17.8365 17.3281 17.8465 17.6841 17.6125 17.9221C17.3735 18.1561 17.0125 18.1601 16.6985 18.1651C16.1305 18.1591 15.5625 18.1801 14.9965 18.1521C14.7565 18.1261 14.4685 18.1121 14.3125 17.9021C14.1725 17.6951 14.1785 17.4341 14.1665 17.1961C14.1635 15.8371 14.1805 14.4771 14.1665 13.1191C14.1525 12.8791 14.1565 12.6091 13.9865 12.4191C13.8235 12.2511 13.5635 12.3061 13.3675 12.3771C12.9425 12.5431 12.5615 12.7971 12.1585 13.0071C11.7555 13.2391 11.3225 13.4371 10.9765 13.7531C10.7515 13.9581 10.6915 14.2701 10.6845 14.5581C10.6795 17.2281 10.6875 19.8961 10.6645 22.5661C10.6875 22.7681 10.5675 23.0141 10.3315 23.0101C9.34149 23.0221 8.35149 23.0151 7.36149 23.0131C7.16349 23.0321 6.98149 22.8581 7.00149 22.6611C7.04149 19.4161 7.01649 16.1701 7.01949 12.9241C7.0102 12.5847 7.09459 12.2492 7.26341 11.9546C7.43223 11.66 7.67895 11.4176 7.97649 11.2541C10.2315 9.99007 12.4905 8.73407 14.7365 7.45507C14.9905 7.31107 15.2465 7.16007 15.5325 7.08207Z" fill="white"/>
</g>
<defs>
<clipPath id="clip0_1_5830">
<rect width="32" height="32" fill="white" transform="translate(0.000488281 0.0180664)"/>
</clipPath>
</defs>
</svg>
