<svg width="32" height="33" viewBox="0 0 32 33" fill="none" xmlns="http://www.w3.org/2000/svg">
<g clip-path="url(#clip0_1_5826)">
<path d="M16.0005 32.0181C24.837 32.0181 32.0005 24.8546 32.0005 16.0181C32.0005 7.18151 24.837 0.0180664 16.0005 0.0180664C7.16393 0.0180664 0.000488281 7.18151 0.000488281 16.0181C0.000488281 24.8546 7.16393 32.0181 16.0005 32.0181Z" fill="#103F68"/>
<path d="M16.4805 5.01807L26.0005 10.5011V21.5011L16.4915 27.0001L16.4145 26.9811L7.00049 21.5011V10.5011L16.4145 5.01807H16.4805ZM16.4495 6.15607L8.00049 11.0761V20.9261L16.4485 25.8451L17.4805 25.2481L25.0005 20.9231V11.0781L17.4805 6.72807L16.4495 6.15607ZM9.30949 16.7661L11.8105 14.8961L14.0215 16.3081V18.8481L15.6945 20.4601L15.6935 21.2161L14.0815 22.7261H12.7205L9.31049 16.7661H9.30949ZM17.2125 21.2181L17.2095 20.4581L18.8765 18.8481V16.3081L21.0635 14.8781L23.5595 16.7671L20.1665 22.7091H18.8225L17.2125 21.2181ZM14.8425 16.3081L14.0285 14.1771H18.8665L18.0685 16.3081L18.3045 18.6901L16.4375 18.6941L14.5925 18.6971L14.8425 16.3081ZM16.4375 13.5931L11.8395 13.5911L12.6945 9.77107H20.1585L21.0585 13.5961L16.4375 13.5931Z" fill="white"/>
</g>
<defs>
<clipPath id="clip0_1_5826">
<rect width="32" height="32" fill="white" transform="translate(0.000488281 0.0180664)"/>
</clipPath>
</defs>
</svg>
