<svg width="32" height="33" viewBox="0 0 32 33" fill="none" xmlns="http://www.w3.org/2000/svg">
<g clip-path="url(#clip0_1_5822)">
<path d="M16.0005 32.0181C24.837 32.0181 32.0005 24.8546 32.0005 16.0181C32.0005 7.18151 24.837 0.0180664 16.0005 0.0180664C7.16393 0.0180664 0.000488281 7.18151 0.000488281 16.0181C0.000488281 24.8546 7.16393 32.0181 16.0005 32.0181Z" fill="#01A64F"/>
<path d="M21.1635 8.01007C22.3795 9.31007 23.0005 10.9421 23.0005 12.8501C23.0005 14.7871 22.3795 16.4201 21.1625 17.7201C20.1895 18.7431 19.0275 19.3511 17.6765 19.5731V20.7071H20.4325V21.9521H17.6485V22.6161H20.4325V23.7771H17.6765V26.0181H15.3245V23.7781H12.5945V22.6161H15.3515V21.9521H12.5955V20.7071H15.3255V19.5451C14.0005 19.3241 12.8385 18.7151 11.8655 17.6921C10.6225 16.3921 10.0005 14.7591 10.0005 12.8231C10.0005 10.8591 10.5955 9.22707 11.8385 7.95407C13.0805 6.65407 14.6225 6.01807 16.5145 6.01807C18.3795 6.01807 19.9195 6.65407 21.1635 8.01007ZM18.6225 15.3961C19.1355 14.7321 19.4065 13.8741 19.4065 12.8231C19.4065 11.8001 19.1365 10.9431 18.5685 10.2781C18.0285 9.58707 17.3255 9.25507 16.5145 9.25507C15.6765 9.25507 14.9745 9.58707 14.4335 10.2511C13.8915 10.9151 13.6215 11.7441 13.6215 12.7961C13.6215 13.8741 13.8925 14.7321 14.4335 15.3961C14.9745 16.0601 15.6765 16.3921 16.5135 16.3921C17.3795 16.3921 18.1085 16.0601 18.6225 15.3961Z" fill="white"/>
</g>
<defs>
<clipPath id="clip0_1_5822">
<rect width="32" height="32" fill="white" transform="translate(0.000488281 0.0180664)"/>
</clipPath>
</defs>
</svg>
