<svg width="32" height="33" viewBox="0 0 32 33" fill="none" xmlns="http://www.w3.org/2000/svg">
<g clip-path="url(#clip0_1_5818)">
<path d="M16.0005 32.0181C24.837 32.0181 32.0005 24.8546 32.0005 16.0181C32.0005 7.18151 24.837 0.0180664 16.0005 0.0180664C7.16393 0.0180664 0.000488281 7.18151 0.000488281 16.0181C0.000488281 24.8546 7.16393 32.0181 16.0005 32.0181Z" fill="#1E252C"/>
<path d="M14.2205 15.6071C13.8208 15.6071 13.4375 15.4483 13.1549 15.1657C12.8723 14.8831 12.7135 14.4998 12.7135 14.1001C12.7135 13.7004 12.8723 13.3171 13.1549 13.0345C13.4375 12.7518 13.8208 12.5931 14.2205 12.5931C14.6202 12.5931 15.0035 12.7518 15.2861 13.0345C15.5687 13.3171 15.7275 13.7004 15.7275 14.1001C15.7275 14.4998 15.5687 14.8831 15.2861 15.1657C15.0035 15.4483 14.6202 15.6071 14.2205 15.6071ZM17.9185 15.6071C17.5188 15.6071 17.1355 15.4483 16.8529 15.1657C16.5703 14.8831 16.4115 14.4998 16.4115 14.1001C16.4115 13.7004 16.5703 13.3171 16.8529 13.0345C17.1355 12.7518 17.5188 12.5931 17.9185 12.5931C18.3182 12.5931 18.7015 12.7518 18.9841 13.0345C19.2667 13.3171 19.4255 13.7004 19.4255 14.1001C19.4255 14.4998 19.2667 14.8831 18.9841 15.1657C18.7015 15.4483 18.3182 15.6071 17.9185 15.6071ZM14.2195 19.3061C13.8198 19.3061 13.4365 19.1473 13.1539 18.8647C12.8713 18.5821 12.7125 18.1988 12.7125 17.7991C12.7125 17.3994 12.8713 17.0161 13.1539 16.7335C13.4365 16.4508 13.8198 16.2921 14.2195 16.2921C14.6192 16.2921 15.0025 16.4508 15.2851 16.7335C15.5677 17.0161 15.7265 17.3994 15.7265 17.7991C15.7265 18.1988 15.5677 18.5821 15.2851 18.8647C15.0025 19.1473 14.6192 19.3061 14.2195 19.3061ZM17.9185 19.3061C17.5188 19.3061 17.1355 19.1473 16.8529 18.8647C16.5703 18.5821 16.4115 18.1988 16.4115 17.7991C16.4115 17.3994 16.5703 17.0161 16.8529 16.7335C17.1355 16.4508 17.5188 16.2921 17.9185 16.2921C18.3182 16.2921 18.7015 16.4508 18.9841 16.7335C19.2667 17.0161 19.4255 17.3994 19.4255 17.7991C19.4255 18.1988 19.2667 18.5821 18.9841 18.8647C18.7015 19.1473 18.3182 19.3061 17.9185 19.3061ZM21.6165 15.1961C21.4726 15.1961 21.33 15.1677 21.1971 15.1126C21.0641 15.0576 20.9433 14.9768 20.8415 14.8751C20.7397 14.7733 20.659 14.6525 20.6039 14.5195C20.5488 14.3865 20.5205 14.244 20.5205 14.1001C20.5205 13.9561 20.5488 13.8136 20.6039 13.6806C20.659 13.5477 20.7397 13.4269 20.8415 13.3251C20.9433 13.2233 21.0641 13.1426 21.1971 13.0875C21.33 13.0324 21.4726 13.0041 21.6165 13.0041C21.9072 13.0041 22.1859 13.1195 22.3915 13.3251C22.597 13.5306 22.7125 13.8094 22.7125 14.1001C22.7125 14.3907 22.597 14.6695 22.3915 14.8751C22.1859 15.0806 21.9072 15.1961 21.6165 15.1961ZM21.6165 18.8951C21.3258 18.8951 21.047 18.7796 20.8415 18.5741C20.636 18.3685 20.5205 18.0897 20.5205 17.7991C20.5205 17.5084 20.636 17.2296 20.8415 17.0241C21.047 16.8185 21.3258 16.7031 21.6165 16.7031C21.9072 16.7031 22.1859 16.8185 22.3915 17.0241C22.597 17.2296 22.7125 17.5084 22.7125 17.7991C22.7125 18.0897 22.597 18.3685 22.3915 18.5741C22.1859 18.7796 21.9072 18.8951 21.6165 18.8951ZM10.3845 15.1961C10.0938 15.1961 9.81504 15.0806 9.6095 14.8751C9.40396 14.6695 9.28849 14.3907 9.28849 14.1001C9.28849 13.8094 9.40396 13.5306 9.6095 13.3251C9.81504 13.1195 10.0938 13.0041 10.3845 13.0041C10.6752 13.0041 10.9539 13.1195 11.1595 13.3251C11.365 13.5306 11.4805 13.8094 11.4805 14.1001C11.4805 14.3907 11.365 14.6695 11.1595 14.8751C10.9539 15.0806 10.6752 15.1961 10.3845 15.1961ZM10.3845 18.8951C10.0938 18.8951 9.81504 18.7796 9.6095 18.5741C9.40396 18.3685 9.28849 18.0897 9.28849 17.7991C9.28849 17.5084 9.40396 17.2296 9.6095 17.0241C9.81504 16.8185 10.0938 16.7031 10.3845 16.7031C10.6752 16.7031 10.9539 16.8185 11.1595 17.0241C11.365 17.2296 11.4805 17.5084 11.4805 17.7991C11.4805 18.0897 11.365 18.3685 11.1595 18.5741C10.9539 18.7796 10.6752 18.8951 10.3845 18.8951ZM14.2195 22.5931C14.0728 22.5975 13.9268 22.5724 13.79 22.5194C13.6532 22.4663 13.5285 22.3863 13.4232 22.2842C13.3179 22.182 13.2342 22.0597 13.177 21.9246C13.1198 21.7895 13.0904 21.6443 13.0904 21.4976C13.0904 21.3509 13.1198 21.2056 13.177 21.0705C13.2342 20.9354 13.3179 20.8131 13.4232 20.711C13.5285 20.6088 13.6532 20.5288 13.79 20.4758C13.9268 20.4227 14.0728 20.3976 14.2195 20.4021C14.5043 20.4107 14.7746 20.5299 14.973 20.7344C15.1714 20.9389 15.2824 21.2126 15.2824 21.4976C15.2824 21.7825 15.1714 22.0563 14.973 22.2608C14.7746 22.4653 14.5043 22.5845 14.2195 22.5931ZM17.9185 22.5931C17.7718 22.5975 17.6258 22.5724 17.489 22.5194C17.3522 22.4663 17.2275 22.3863 17.1222 22.2842C17.0169 22.182 16.9332 22.0597 16.876 21.9246C16.8188 21.7895 16.7894 21.6443 16.7894 21.4976C16.7894 21.3509 16.8188 21.2056 16.876 21.0705C16.9332 20.9354 17.0169 20.8131 17.1222 20.711C17.2275 20.6088 17.3522 20.5288 17.489 20.4758C17.6258 20.4227 17.7718 20.3976 17.9185 20.4021C18.2033 20.4107 18.4736 20.5299 18.672 20.7344C18.8704 20.9389 18.9814 21.2126 18.9814 21.4976C18.9814 21.7825 18.8704 22.0563 18.672 22.2608C18.4736 22.4653 18.2033 22.5845 17.9185 22.5931ZM14.2195 11.4981C14.0728 11.5025 13.9268 11.4774 13.79 11.4244C13.6532 11.3713 13.5285 11.2913 13.4232 11.1892C13.3179 11.087 13.2342 10.9647 13.177 10.8296C13.1198 10.6945 13.0904 10.5493 13.0904 10.4026C13.0904 10.2559 13.1198 10.1106 13.177 9.97551C13.2342 9.84039 13.3179 9.71813 13.4232 9.61596C13.5285 9.5138 13.6532 9.43382 13.79 9.38076C13.9268 9.3277 14.0728 9.30264 14.2195 9.30707C14.5043 9.31568 14.7746 9.43487 14.973 9.63937C15.1714 9.84388 15.2824 10.1176 15.2824 10.4026C15.2824 10.6875 15.1714 10.9613 14.973 11.1658C14.7746 11.3703 14.5043 11.4895 14.2195 11.4981ZM17.9185 11.4981C17.7718 11.5025 17.6258 11.4774 17.489 11.4244C17.3522 11.3713 17.2275 11.2913 17.1222 11.1892C17.0169 11.087 16.9332 10.9647 16.876 10.8296C16.8188 10.6945 16.7894 10.5493 16.7894 10.4026C16.7894 10.2559 16.8188 10.1106 16.876 9.97551C16.9332 9.84039 17.0169 9.71813 17.1222 9.61596C17.2275 9.5138 17.3522 9.43382 17.489 9.38076C17.6258 9.3277 17.7718 9.30264 17.9185 9.30707C18.2033 9.31568 18.4736 9.43487 18.672 9.63937C18.8704 9.84388 18.9814 10.1176 18.9814 10.4026C18.9814 10.6875 18.8704 10.9613 18.672 11.1658C18.4736 11.3703 18.2033 11.4895 17.9185 11.4981ZM14.2195 7.38807C14.1274 7.39159 14.0355 7.37649 13.9494 7.34368C13.8633 7.31087 13.7847 7.26101 13.7183 7.1971C13.6519 7.13319 13.5991 7.05654 13.563 6.97174C13.5269 6.88694 13.5083 6.79573 13.5083 6.70357C13.5083 6.61141 13.5269 6.5202 13.563 6.4354C13.5991 6.3506 13.6519 6.27395 13.7183 6.21004C13.7847 6.14613 13.8633 6.09627 13.9494 6.06346C14.0355 6.03065 14.1274 6.01555 14.2195 6.01907C14.4012 6.01907 14.5754 6.09124 14.7039 6.2197C14.8323 6.34816 14.9045 6.5224 14.9045 6.70407C14.9045 6.88574 14.8323 7.05998 14.7039 7.18844C14.5754 7.3169 14.4012 7.38907 14.2195 7.38907V7.38807ZM17.9185 7.38807C17.8264 7.39159 17.7345 7.37649 17.6484 7.34368C17.5623 7.31087 17.4837 7.26101 17.4173 7.1971C17.3509 7.13319 17.2981 7.05654 17.262 6.97174C17.2259 6.88694 17.2073 6.79573 17.2073 6.70357C17.2073 6.61141 17.2259 6.5202 17.262 6.4354C17.2981 6.3506 17.3509 6.27395 17.4173 6.21004C17.4837 6.14613 17.5623 6.09627 17.6484 6.06346C17.7345 6.03065 17.8264 6.01555 17.9185 6.01907C18.1002 6.01907 18.2744 6.09124 18.4029 6.2197C18.5313 6.34816 18.6035 6.5224 18.6035 6.70407C18.6035 6.88574 18.5313 7.05998 18.4029 7.18844C18.2744 7.3169 18.1002 7.38907 17.9185 7.38907V7.38807ZM25.3155 14.7861C25.1338 14.7861 24.9596 14.7139 24.8311 14.5854C24.7027 14.457 24.6305 14.2827 24.6305 14.1011C24.6305 13.9194 24.7027 13.7452 24.8311 13.6167C24.9596 13.4882 25.1338 13.4161 25.3155 13.4161C25.4972 13.4161 25.6714 13.4882 25.7999 13.6167C25.9283 13.7452 26.0005 13.9194 26.0005 14.1011C26.0005 14.2827 25.9283 14.457 25.7999 14.5854C25.6714 14.7139 25.4972 14.7861 25.3155 14.7861ZM25.3155 18.4851C25.1338 18.4851 24.9596 18.4129 24.8311 18.2844C24.7027 18.156 24.6305 17.9817 24.6305 17.8001C24.6305 17.6184 24.7027 17.4442 24.8311 17.3157C24.9596 17.1872 25.1338 17.1151 25.3155 17.1151C25.4972 17.1151 25.6714 17.1872 25.7999 17.3157C25.9283 17.4442 26.0005 17.6184 26.0005 17.8001C26.0005 17.9817 25.9283 18.156 25.7999 18.2844C25.6714 18.4129 25.4972 18.4851 25.3155 18.4851ZM6.68549 14.7861C6.50381 14.7861 6.32958 14.7139 6.20112 14.5854C6.07266 14.457 6.00049 14.2827 6.00049 14.1011C6.00049 13.9194 6.07266 13.7452 6.20112 13.6167C6.32958 13.4882 6.50381 13.4161 6.68549 13.4161C6.86716 13.4161 7.04139 13.4882 7.16986 13.6167C7.29832 13.7452 7.37049 13.9194 7.37049 14.1011C7.37049 14.2827 7.29832 14.457 7.16986 14.5854C7.04139 14.7139 6.86716 14.7861 6.68549 14.7861ZM6.68549 18.4851C6.50381 18.4851 6.32958 18.4129 6.20112 18.2844C6.07266 18.156 6.00049 17.9817 6.00049 17.8001C6.00049 17.6184 6.07266 17.4442 6.20112 17.3157C6.32958 17.1872 6.50381 17.1151 6.68549 17.1151C6.86716 17.1151 7.04139 17.1872 7.16986 17.3157C7.29832 17.4442 7.37049 17.6184 7.37049 17.8001C7.37049 17.9817 7.29832 18.156 7.16986 18.2844C7.04139 18.4129 6.86716 18.4851 6.68549 18.4851ZM14.2195 26.0181C14.0378 26.0181 13.8636 25.9459 13.7351 25.8174C13.6067 25.689 13.5345 25.5147 13.5345 25.3331C13.5345 25.1514 13.6067 24.9772 13.7351 24.8487C13.8636 24.7202 14.0378 24.6481 14.2195 24.6481C14.4012 24.6481 14.5754 24.7202 14.7039 24.8487C14.8323 24.9772 14.9045 25.1514 14.9045 25.3331C14.9045 25.5147 14.8323 25.689 14.7039 25.8174C14.5754 25.9459 14.4012 26.0181 14.2195 26.0181ZM17.9185 26.0181C17.7368 26.0181 17.5626 25.9459 17.4341 25.8174C17.3057 25.689 17.2335 25.5147 17.2335 25.3331C17.2335 25.1514 17.3057 24.9772 17.4341 24.8487C17.5626 24.7202 17.7368 24.6481 17.9185 24.6481C18.1002 24.6481 18.2744 24.7202 18.4029 24.8487C18.5313 24.9772 18.6035 25.1514 18.6035 25.3331C18.6035 25.5147 18.5313 25.689 18.4029 25.8174C18.2744 25.9459 18.1002 26.0181 17.9185 26.0181Z" fill="white"/>
</g>
<defs>
<clipPath id="clip0_1_5818">
<rect width="32" height="32" fill="white" transform="translate(0.000488281 0.0180664)"/>
</clipPath>
</defs>
</svg>
