<svg width="32" height="33" viewBox="0 0 32 33" fill="none" xmlns="http://www.w3.org/2000/svg">
<g clip-path="url(#clip0_1_5814)">
<path d="M16.0005 32.0181C24.837 32.0181 32.0005 24.8546 32.0005 16.0181C32.0005 7.18151 24.837 0.0180664 16.0005 0.0180664C7.16393 0.0180664 0.000488281 7.18151 0.000488281 16.0181C0.000488281 24.8546 7.16393 32.0181 16.0005 32.0181Z" fill="#00B0FF"/>
<path d="M24.0005 12.0791V20.9941L21.4645 22.4741V16.5241L16.0005 19.7941L10.5365 16.5211V22.4741L8.00049 20.9941V12.0781L16.0005 16.8831L24.0005 12.0781V12.0791ZM16.0305 23.1961L18.3705 21.7971L20.6805 23.1961L16.0305 26.0181L11.3825 23.1961L13.6925 21.7971L16.0315 23.1961H16.0305ZM20.6505 8.84007L18.3395 10.2391L16.0005 8.84007L13.6615 10.2391L11.3515 8.84007L16.0005 6.01807L20.6505 8.84007Z" fill="white"/>
</g>
<defs>
<clipPath id="clip0_1_5814">
<rect width="32" height="32" fill="white" transform="translate(0.000488281 0.0180664)"/>
</clipPath>
</defs>
</svg>
