<svg width="32" height="33" viewBox="0 0 32 33" fill="none" xmlns="http://www.w3.org/2000/svg">
<g clip-path="url(#clip0_1_5808)">
<path d="M16.0005 32.0181C24.837 32.0181 32.0005 24.8546 32.0005 16.0181C32.0005 7.18151 24.837 0.0180664 16.0005 0.0180664C7.16393 0.0180664 0.000488281 7.18151 0.000488281 16.0181C0.000488281 24.8546 7.16393 32.0181 16.0005 32.0181Z" fill="black"/>
<path d="M9.00049 21.9125L15.9565 26.2885H16.7985L23.6425 21.9125L22.5765 21.0715L16.3495 25.0545L9.89849 21.0715L9.00049 21.9125ZM12.3665 11.7595L16.2935 5.81251L20.3325 11.8155L21.2865 10.9735L16.7985 4.24251C16.7985 4.24251 16.4055 3.73751 15.7885 4.24251L11.1885 11.1425L12.3665 11.7595Z" fill="white" fill-opacity="0.703"/>
<path d="M16.537 23.8653C16.761 23.0793 17.042 22.3503 17.267 21.5653C18.277 18.4233 19.286 15.2253 20.296 12.0843C20.352 11.9163 20.408 11.6913 20.464 11.5243C20.576 11.1863 20.744 11.0183 21.081 11.0183C21.2273 11.0144 21.3702 11.0633 21.4834 11.156C21.5967 11.2487 21.6729 11.3791 21.698 11.5233C21.978 12.6453 22.203 13.8233 22.483 14.9453C22.988 17.0773 23.437 19.2653 23.942 21.3963C24.054 21.9013 23.886 22.2383 23.493 22.3503C23.1 22.4623 22.82 22.1823 22.708 21.6773C22.147 19.2653 21.586 16.8523 21.081 14.3843C21.081 14.2723 21.025 14.2163 20.969 14.0473C20.9224 14.2008 20.866 14.3511 20.8 14.4973C19.735 17.7503 18.725 21.0043 17.659 24.2573C17.491 24.8743 17.266 25.4353 17.098 26.0523C16.986 26.4453 16.761 26.6133 16.425 26.6133C16.088 26.6133 15.864 26.4453 15.752 26.0533C14.518 22.1823 13.283 18.3113 12.105 14.4403C12.049 14.3283 12.049 14.2723 11.993 14.0473C11.8929 14.5549 11.7809 15.06 11.657 15.5623C11.207 17.5823 10.759 19.6573 10.31 21.6773C10.198 22.2373 9.75 22.5183 9.3 22.2373C9.02 22.0693 8.964 21.7893 9.02 21.4523C9.637 18.6473 10.31 15.8423 10.927 13.0383C11.039 12.5883 11.152 12.1403 11.207 11.6913C11.32 11.2433 11.544 11.0183 11.881 11.0183C12.218 11.0183 12.441 11.2433 12.554 11.6913C13.844 15.7313 15.134 19.8263 16.369 23.8653H16.537Z" fill="white"/>
</g>
<defs>
<clipPath id="clip0_1_5808">
<rect width="32" height="32" fill="white" transform="translate(0.000488281 0.0180664)"/>
</clipPath>
</defs>
</svg>
