<svg width="32" height="33" viewBox="0 0 32 33" fill="none" xmlns="http://www.w3.org/2000/svg">
<g clip-path="url(#clip0_1_6734)">
<path d="M16.001 32.0181C24.8375 32.0181 32.001 24.8546 32.001 16.0181C32.001 7.18151 24.8375 0.0180664 16.001 0.0180664C7.16442 0.0180664 0.000976562 7.18151 0.000976562 16.0181C0.000976562 24.8546 7.16442 32.0181 16.001 32.0181Z" fill="#DA1157"/>
<path d="M20.9892 19.0241C21.7917 19.0241 22.5614 18.7053 23.1289 18.1378C23.6964 17.5703 24.0152 16.8006 24.0152 15.9981C24.0152 15.1955 23.6964 14.4258 23.1289 13.8584C22.5614 13.2909 21.7917 12.9721 20.9892 12.9721C20.1866 12.9721 19.4169 13.2909 18.8495 13.8584C18.282 14.4258 17.9632 15.1955 17.9632 15.9981C17.9632 16.8006 18.282 17.5703 18.8495 18.1378C19.4169 18.7053 20.1866 19.0241 20.9892 19.0241ZM20.9892 9.01907C22.1415 9.01838 23.2761 9.30301 24.2917 9.84755C25.3073 10.3921 26.1722 11.1796 26.8094 12.1398C27.4465 13.1 27.836 14.203 27.9431 15.3504C28.0502 16.4977 27.8716 17.6538 27.4231 18.7153C26.9747 19.7768 26.2704 20.7108 25.3732 21.4339C24.4759 22.157 23.4136 22.6467 22.281 22.8593C21.1484 23.0719 19.9808 23.0007 18.8824 22.6522C17.784 22.3037 16.789 21.6887 15.9862 20.8621C17.2553 19.5613 17.965 17.8154 17.9632 15.9981C17.9651 14.1807 17.2554 12.4348 15.9862 11.1341C16.6356 10.464 17.4132 9.93148 18.2727 9.56814C19.1322 9.20479 20.056 9.01806 20.9892 9.01907ZM10.9842 19.0241C11.7867 19.0241 12.5564 18.7053 13.1239 18.1378C13.6914 17.5703 14.0102 16.8006 14.0102 15.9981C14.0102 15.1955 13.6914 14.4258 13.1239 13.8584C12.5564 13.2909 11.7867 12.9721 10.9842 12.9721C10.1816 12.9721 9.41194 13.2909 8.84446 13.8584C8.27697 14.4258 7.95816 15.1955 7.95816 15.9981C7.95816 16.8006 8.27697 17.5703 8.84446 18.1378C9.41194 18.7053 10.1816 19.0241 10.9842 19.0241ZM15.9872 11.1341C14.7184 12.435 14.0091 14.1808 14.0112 15.9981C14.0112 17.8901 14.7652 19.6051 15.9872 20.8621C15.0192 21.8583 13.776 22.5431 12.4166 22.8288C11.0572 23.1145 9.6435 22.9881 8.35636 22.4658C7.06922 21.9435 5.96721 21.049 5.19132 19.8968C4.41544 18.7446 4.00098 17.3871 4.00098 15.9981C4.00098 14.609 4.41544 13.2515 5.19132 12.0993C5.96721 10.9471 7.06922 10.0526 8.35636 9.53032C9.6435 9.008 11.0572 8.8816 12.4166 9.1673C13.776 9.453 15.0192 10.1378 15.9872 11.1341ZM14.0102 15.9991C14.0102 17.8911 14.7642 19.6061 15.9872 20.8631C17.2561 19.5622 17.9653 17.8163 17.9632 15.9991C17.9653 14.1818 17.2561 12.4359 15.9872 11.1351C14.7179 12.4358 14.0083 14.1817 14.0102 15.9991Z" fill="white"/>
</g>
<defs>
<clipPath id="clip0_1_6734">
<rect width="32" height="32" fill="white" transform="translate(0.000976562 0.0180664)"/>
</clipPath>
</defs>
</svg>
