<svg width="32" height="33" viewBox="0 0 32 33" fill="none" xmlns="http://www.w3.org/2000/svg">
<g clip-path="url(#clip0_1_6730)">
<path d="M16.001 32.0181C24.8375 32.0181 32.001 24.8546 32.001 16.0181C32.001 7.18151 24.8375 0.0180664 16.001 0.0180664C7.16442 0.0180664 0.000976562 7.18151 0.000976562 16.0181C0.000976562 24.8546 7.16442 32.0181 16.001 32.0181Z" fill="#242424"/>
<path d="M22.2576 7.28807C22.2576 7.98907 21.6876 8.55807 20.9836 8.55807C20.8166 8.55833 20.6511 8.52569 20.4967 8.46201C20.3423 8.39833 20.2019 8.30485 20.0836 8.18692C19.9653 8.06899 19.8714 7.92891 19.8072 7.77469C19.7431 7.62046 19.7099 7.45511 19.7096 7.28807C19.7096 6.58607 20.2796 6.01807 20.9836 6.01807C21.6876 6.01807 22.2576 6.58607 22.2576 7.28807ZM21.3396 11.7121C20.7436 11.7121 20.2596 11.2301 20.2596 10.6361C20.2596 10.0421 20.7436 9.56107 21.3396 9.56107C21.9356 9.56107 22.4186 10.0421 22.4186 10.6361C22.4186 11.2301 21.9356 11.7121 21.3386 11.7121H21.3396ZM21.0046 14.3651C20.885 14.3653 20.7664 14.342 20.6558 14.2964C20.5451 14.2508 20.4446 14.1838 20.3599 14.0992C20.2752 14.0147 20.208 13.9143 20.1621 13.8038C20.1162 13.6932 20.0926 13.5747 20.0926 13.4551C20.0928 13.3355 20.1165 13.2171 20.1624 13.1067C20.2083 12.9962 20.2755 12.896 20.3602 12.8115C20.4449 12.7271 20.5454 12.6602 20.656 12.6147C20.7666 12.5691 20.885 12.5458 21.0046 12.5461C21.1243 12.5458 21.2429 12.5691 21.3535 12.6148C21.4641 12.6604 21.5647 12.7274 21.6494 12.8119C21.7341 12.8964 21.8013 12.9968 21.8472 13.1074C21.893 13.2179 21.9166 13.3364 21.9166 13.4561C21.9165 13.5757 21.8928 13.694 21.8469 13.8045C21.801 13.9149 21.7337 14.0152 21.649 14.0996C21.5643 14.184 21.4638 14.2509 21.3533 14.2965C21.2427 14.342 21.1242 14.3653 21.0046 14.3651ZM20.9506 15.7371C20.9506 15.9439 20.8685 16.1423 20.7222 16.2886C20.5759 16.4349 20.3775 16.5171 20.1706 16.5171C19.9638 16.5171 19.7654 16.4349 19.6191 16.2886C19.4728 16.1423 19.3906 15.9439 19.3906 15.7371C19.3906 15.5302 19.4728 15.3318 19.6191 15.1855C19.7654 15.0392 19.9638 14.9571 20.1706 14.9571C20.3775 14.9571 20.5759 15.0392 20.7222 15.1855C20.8685 15.3318 20.9506 15.5302 20.9506 15.7371ZM19.7166 17.4611C19.7166 17.8311 19.4166 18.1281 19.0476 18.1281C18.9156 18.1277 18.7866 18.0881 18.677 18.0144C18.5673 17.9408 18.482 17.8362 18.4318 17.7141C18.3816 17.5919 18.3687 17.4576 18.3948 17.3282C18.4209 17.1987 18.4848 17.0798 18.5784 16.9867C18.672 16.8935 18.7911 16.8301 18.9207 16.8046C19.0503 16.7791 19.1845 16.7926 19.3064 16.8434C19.4283 16.8942 19.5325 16.9799 19.6057 17.0899C19.6789 17.1998 19.7178 17.329 19.7176 17.4611H19.7166ZM18.3666 18.6841C18.3666 18.8363 18.3062 18.9823 18.1985 19.0899C18.0909 19.1976 17.9449 19.2581 17.7926 19.2581C17.6404 19.2581 17.4944 19.1976 17.3868 19.0899C17.2791 18.9823 17.2186 18.8363 17.2186 18.6841C17.2186 18.5318 17.2791 18.3858 17.3868 18.2782C17.4944 18.1705 17.6404 18.1101 17.7926 18.1101C17.9449 18.1101 18.0909 18.1705 18.1985 18.2782C18.3062 18.3858 18.3666 18.5318 18.3666 18.6841ZM25.2406 11.2751C25.1666 11.5453 24.9908 11.7764 24.7501 11.9199C24.5093 12.0633 24.2224 12.108 23.9495 12.0445C23.6765 11.981 23.4388 11.8142 23.2861 11.5792C23.1335 11.3442 23.0777 11.0593 23.1306 10.7841C23.1957 10.5043 23.3693 10.2618 23.6132 10.11C23.8571 9.95816 24.1513 9.90946 24.4311 9.97457C24.7109 10.0397 24.9534 10.2133 25.1052 10.4572C25.257 10.7011 25.3057 10.9953 25.2406 11.2751ZM24.7226 14.0781C24.6673 14.3149 24.5202 14.5201 24.3137 14.6484C24.1071 14.7768 23.858 14.8179 23.6211 14.7626C23.3843 14.7073 23.1791 14.5602 23.0508 14.3536C22.9224 14.147 22.8813 13.8979 22.9366 13.6611C22.9919 13.4242 23.139 13.2191 23.3456 13.0907C23.5522 12.9623 23.8013 12.9213 24.0381 12.9766C24.275 13.0319 24.4801 13.179 24.6085 13.3856C24.7369 13.5921 24.7779 13.8412 24.7226 14.0781ZM23.7586 16.3151C23.712 16.5153 23.5876 16.6888 23.413 16.7974C23.2385 16.906 23.0279 16.9407 22.8276 16.8941C22.6274 16.8474 22.4539 16.7231 22.3453 16.5485C22.2367 16.3739 22.202 16.1633 22.2486 15.9631C22.3026 15.7706 22.4287 15.6064 22.6007 15.5046C22.7727 15.4028 22.9774 15.3713 23.172 15.4167C23.3667 15.4621 23.5363 15.5808 23.6456 15.7482C23.7549 15.9155 23.7954 16.1186 23.7586 16.3151ZM22.5166 18.0181C22.47 18.1818 22.3622 18.3214 22.2156 18.4078C22.0689 18.4942 21.8946 18.5209 21.7288 18.4824C21.563 18.4438 21.4183 18.3429 21.3248 18.2006C21.2314 18.0584 21.1962 17.8856 21.2266 17.7181C21.2464 17.6335 21.2827 17.5536 21.3333 17.483C21.384 17.4124 21.4481 17.3525 21.5219 17.3068C21.5958 17.261 21.6779 17.2302 21.7637 17.2162C21.8494 17.2021 21.9371 17.2052 22.0216 17.2251C22.1063 17.2445 22.1862 17.2805 22.257 17.3309C22.3277 17.3813 22.3877 17.4452 22.4337 17.5188C22.4797 17.5925 22.5107 17.6745 22.5249 17.7602C22.5392 17.8459 22.5363 17.9335 22.5166 18.0181ZM21.1596 19.2071C21.1426 19.2798 21.1113 19.3485 21.0677 19.4092C21.0241 19.4699 20.969 19.5214 20.9054 19.5607C20.8419 19.6001 20.7713 19.6266 20.6975 19.6386C20.6238 19.6507 20.5484 19.6481 20.4756 19.6311C20.4029 19.614 20.3342 19.5828 20.2735 19.5391C20.2128 19.4955 20.1613 19.4404 20.122 19.3769C20.0826 19.3134 20.0561 19.2427 20.0441 19.169C20.032 19.0952 20.0346 19.0198 20.0516 18.9471C20.0861 18.8001 20.1775 18.6729 20.3058 18.5934C20.4341 18.5139 20.5887 18.4886 20.7356 18.5231C20.8826 18.5575 21.0098 18.649 21.0893 18.7773C21.1688 18.9055 21.1941 19.0601 21.1596 19.2071ZM19.8046 19.9581C19.768 20.0765 19.6879 20.1766 19.5804 20.2383C19.4728 20.3 19.3459 20.3186 19.2252 20.2905C19.1045 20.2623 18.999 20.1895 18.9298 20.0866C18.8607 19.9837 18.8331 19.8585 18.8526 19.7361C18.8893 19.6176 18.9694 19.5175 19.0769 19.4558C19.1844 19.3941 19.3113 19.3755 19.432 19.4036C19.5528 19.4318 19.6583 19.5046 19.7275 19.6075C19.7966 19.7104 19.8242 19.8357 19.8046 19.9581ZM26.9086 15.1021C26.8017 15.3219 26.6119 15.4903 26.3809 15.5703C26.15 15.6504 25.8967 15.6355 25.6766 15.5291C25.5675 15.4768 25.4699 15.4035 25.3892 15.3133C25.3086 15.2231 25.2466 15.1179 25.2068 15.0036C25.167 14.8894 25.1503 14.7684 25.1574 14.6477C25.1646 14.5269 25.1956 14.4088 25.2486 14.3001C25.3556 14.0805 25.5452 13.9123 25.7759 13.8323C26.0067 13.7522 26.2597 13.7669 26.4796 13.8731C26.5885 13.9255 26.686 13.999 26.7665 14.0892C26.8471 14.1793 26.909 14.2845 26.9488 14.3987C26.9887 14.5128 27.0056 14.6337 26.9987 14.7544C26.9918 14.8751 26.9612 14.9932 26.9086 15.1021ZM25.9476 17.3171C25.852 17.4954 25.6912 17.6299 25.4988 17.6926C25.3064 17.7552 25.0973 17.7411 24.915 17.6533C24.7327 17.5654 24.5914 17.4106 24.5205 17.2211C24.4497 17.0315 24.4547 16.822 24.5346 16.6361C24.626 16.4495 24.7875 16.3066 24.9837 16.2384C25.18 16.1702 25.3952 16.1823 25.5826 16.2721C25.6755 16.3164 25.7586 16.3787 25.8272 16.4554C25.8959 16.532 25.9487 16.6215 25.9826 16.7186C26.0166 16.8157 26.0309 16.9186 26.0249 17.0213C26.0189 17.124 25.9927 17.2245 25.9476 17.3171ZM24.7396 18.9971C24.6607 19.1585 24.5212 19.2821 24.3514 19.3409C24.1816 19.3998 23.9955 19.389 23.8336 19.3111C23.7537 19.2726 23.6821 19.2187 23.623 19.1525C23.5639 19.0863 23.5185 19.0091 23.4893 18.9253C23.4601 18.8415 23.4478 18.7527 23.453 18.6641C23.4582 18.5756 23.4808 18.4889 23.5196 18.4091C23.6023 18.2551 23.7413 18.139 23.9075 18.085C24.0737 18.0311 24.2543 18.0433 24.4117 18.1193C24.5691 18.1953 24.691 18.3291 24.7521 18.4928C24.8132 18.6566 24.8088 18.8376 24.7396 18.9981V18.9971ZM23.3936 20.1851C23.3251 20.3248 23.2041 20.4317 23.0571 20.4827C22.9101 20.5336 22.7489 20.5244 22.6086 20.4571C22.5372 20.4248 22.4729 20.3785 22.4197 20.3209C22.3664 20.2634 22.3252 20.1958 22.2985 20.122C22.2718 20.0483 22.2602 19.97 22.2642 19.8917C22.2683 19.8133 22.288 19.7366 22.3222 19.6661C22.3565 19.5955 22.4045 19.5325 22.4634 19.4808C22.5224 19.4291 22.5911 19.3898 22.6655 19.3651C22.7399 19.3404 22.8185 19.3308 22.8967 19.337C22.9749 19.3432 23.051 19.365 23.1206 19.4011C23.19 19.4346 23.2522 19.4815 23.3034 19.5391C23.3547 19.5966 23.3942 19.6637 23.4195 19.7365C23.4449 19.8093 23.4556 19.8864 23.4512 19.9634C23.4467 20.0403 23.4272 20.1157 23.3936 20.1851ZM22.0386 20.9171C21.9771 21.031 21.8741 21.1169 21.7509 21.1568C21.6277 21.1967 21.4938 21.1875 21.3772 21.1312C21.2606 21.0749 21.1702 20.9758 21.1249 20.8545C21.0795 20.7332 21.0826 20.5991 21.1336 20.4801C21.1975 20.3704 21.3004 20.2888 21.4218 20.2517C21.5431 20.2146 21.6741 20.2246 21.7884 20.2798C21.9026 20.335 21.9919 20.4313 22.0383 20.5494C22.0847 20.6675 22.0848 20.7988 22.0386 20.9171ZM20.7656 21.2861C20.716 21.3877 20.6283 21.4655 20.5215 21.5026C20.4147 21.5397 20.2975 21.533 20.1956 21.4841C20.1453 21.4596 20.1003 21.4255 20.0632 21.3837C20.0261 21.3419 19.9976 21.2932 19.9793 21.2404C19.961 21.1875 19.9533 21.1316 19.9566 21.0758C19.9599 21.02 19.9742 20.9654 19.9986 20.9151C20.0231 20.8648 20.0572 20.8198 20.099 20.7827C20.1408 20.7455 20.1895 20.717 20.2423 20.6987C20.2952 20.6804 20.3511 20.6727 20.4069 20.676C20.4627 20.6794 20.5173 20.6936 20.5676 20.7181C20.618 20.7423 20.663 20.7763 20.7002 20.818C20.7374 20.8596 20.766 20.9083 20.7844 20.961C20.8028 21.0138 20.8106 21.0696 20.8074 21.1254C20.8042 21.1812 20.79 21.2358 20.7656 21.2861ZM21.8016 26.1421C21.6568 26.0592 21.5297 25.9486 21.4277 25.8165C21.3257 25.6844 21.2508 25.5334 21.2073 25.3723C21.1638 25.2112 21.1526 25.0431 21.1743 24.8776C21.196 24.7121 21.2501 24.5526 21.3336 24.4081C21.5032 24.1162 21.7814 23.9033 22.1075 23.816C22.4335 23.7287 22.7809 23.774 23.0736 23.9421C23.6836 24.2921 23.8936 25.0691 23.5426 25.6761C23.3733 25.9681 23.095 26.1812 22.7689 26.2685C22.4428 26.3559 22.0953 26.3104 21.8026 26.1421H21.8016ZM18.8116 24.6101C18.6889 24.54 18.5813 24.4463 18.4949 24.3345C18.4086 24.2227 18.3451 24.0949 18.3083 23.9584C18.2715 23.822 18.2621 23.6796 18.2805 23.5395C18.2989 23.3994 18.3448 23.2644 18.4156 23.1421C18.5591 22.8949 18.7946 22.7146 19.0706 22.6405C19.3466 22.5665 19.6408 22.6048 19.8886 22.7471C20.4046 23.0431 20.5816 23.7011 20.2846 24.2151C20.1414 24.4624 19.9059 24.6429 19.6298 24.717C19.3537 24.791 19.0595 24.7526 18.8116 24.6101ZM16.6096 22.7701C16.5058 22.7107 16.4147 22.6313 16.3416 22.5366C16.2686 22.4419 16.2149 22.3337 16.1838 22.2182C16.1526 22.1027 16.1447 21.9822 16.1602 21.8636C16.1758 21.745 16.2147 21.6306 16.2746 21.5271C16.3961 21.3181 16.5954 21.1657 16.8289 21.1033C17.0624 21.0409 17.3111 21.0735 17.5206 21.1941C17.6242 21.2534 17.715 21.3325 17.7879 21.427C17.8608 21.5214 17.9143 21.6294 17.9454 21.7446C17.9766 21.8597 17.9847 21.9799 17.9692 22.0983C17.9538 22.2166 17.9152 22.3307 17.8556 22.4341C17.7349 22.6438 17.5358 22.7969 17.3022 22.8599C17.0685 22.9229 16.8195 22.8906 16.6096 22.7701ZM15.1086 20.7961C15.0203 20.7449 14.9428 20.6769 14.8807 20.5958C14.8187 20.5147 14.7732 20.4222 14.7468 20.3235C14.7205 20.2249 14.7139 20.122 14.7273 20.0208C14.7407 19.9195 14.774 19.8219 14.8251 19.7336C14.8763 19.6452 14.9443 19.5677 15.0254 19.5057C15.1065 19.4436 15.199 19.3981 15.2977 19.3718C15.3963 19.3454 15.4992 19.3388 15.6004 19.3522C15.7017 19.3657 15.7993 19.3989 15.8876 19.4501C16.2596 19.6641 16.3876 20.1391 16.1726 20.5101C16.0693 20.6889 15.8992 20.8194 15.6998 20.8731C15.5003 20.9267 15.2877 20.899 15.1086 20.7961ZM14.2256 18.8701C14.1495 18.8265 14.0828 18.7684 14.0292 18.699C13.9757 18.6296 13.9363 18.5503 13.9135 18.4657C13.8906 18.381 13.8847 18.2927 13.896 18.2058C13.9074 18.1188 13.9358 18.035 13.9796 17.9591C14.0687 17.8055 14.215 17.6935 14.3865 17.6475C14.558 17.6016 14.7407 17.6255 14.8946 17.7141C15.2146 17.8981 15.3246 18.3061 15.1406 18.6241C15.0519 18.778 14.9057 18.8904 14.7341 18.9366C14.5625 18.9827 14.3796 18.9588 14.2256 18.8701ZM13.8366 17.0931C13.7713 17.0556 13.714 17.0055 13.6681 16.9458C13.6222 16.8861 13.5885 16.8179 13.569 16.7452C13.5495 16.6724 13.5445 16.5965 13.5544 16.5219C13.5643 16.4472 13.5888 16.3752 13.6266 16.3101C13.7031 16.1787 13.8285 16.0829 13.9754 16.0435C14.1222 16.0042 14.2787 16.0245 14.4106 16.1001C14.4758 16.1378 14.533 16.1879 14.5788 16.2477C14.6246 16.3075 14.6582 16.3757 14.6777 16.4484C14.6971 16.5212 14.702 16.5971 14.6922 16.6717C14.6823 16.7464 14.6578 16.8184 14.6201 16.8836C14.5824 16.9488 14.5323 17.0059 14.4725 17.0517C14.4127 17.0975 14.3445 17.1311 14.2718 17.1506C14.199 17.17 14.1231 17.175 14.0485 17.1651C13.9738 17.1552 13.9018 17.1308 13.8366 17.0931ZM17.5866 27.0191C17.4446 27.0193 17.3039 26.9916 17.1726 26.9375C17.0413 26.8833 16.9219 26.8038 16.8213 26.7035C16.7207 26.6032 16.6409 26.4841 16.5864 26.3529C16.5319 26.2217 16.5038 26.0811 16.5036 25.9391C16.5038 25.7971 16.5319 25.6565 16.5864 25.5254C16.6409 25.3943 16.7208 25.2752 16.8214 25.175C16.922 25.0748 17.0413 24.9954 17.1726 24.9413C17.304 24.8873 17.4446 24.8597 17.5866 24.8601C18.1846 24.8601 18.6696 25.3431 18.6696 25.9401C18.6696 26.5361 18.1846 27.0191 17.5866 27.0191ZM14.6686 24.8811C14.5807 24.7992 14.5099 24.7008 14.4601 24.5915C14.4104 24.4821 14.3827 24.3641 14.3787 24.244C14.3747 24.124 14.3944 24.0043 14.4368 23.8919C14.4792 23.7795 14.5434 23.6766 14.6256 23.5891C14.7924 23.4121 15.0224 23.3083 15.2655 23.3004C15.5085 23.2926 15.7448 23.3812 15.9226 23.5471C16.2926 23.8921 16.3106 24.4701 15.9646 24.8391C15.7979 25.0158 15.5681 25.1193 15.3253 25.1272C15.0825 25.1351 14.8464 25.0466 14.6686 24.8811ZM13.2036 22.9331C13.1294 22.8637 13.0696 22.7803 13.0277 22.6878C12.9858 22.5953 12.9625 22.4954 12.9592 22.3938C12.956 22.2923 12.9728 22.1911 13.0087 22.0961C13.0447 22.0011 13.099 21.9141 13.1686 21.8401C13.3094 21.6903 13.5038 21.6025 13.7092 21.5957C13.9146 21.589 14.1143 21.6639 14.2646 21.8041C14.3392 21.8732 14.3992 21.9565 14.4414 22.049C14.4836 22.1415 14.507 22.2414 14.5104 22.3431C14.5137 22.4447 14.4969 22.546 14.4609 22.641C14.4249 22.7361 14.3704 22.8231 14.3006 22.8971C14.1597 23.0469 13.9651 23.1347 13.7596 23.1415C13.554 23.1482 13.3541 23.0733 13.2036 22.9331ZM12.3446 21.0091C12.2812 20.9499 12.23 20.8788 12.1941 20.7998C12.1582 20.7208 12.1383 20.6355 12.1355 20.5488C12.1328 20.4621 12.1471 20.3757 12.1779 20.2946C12.2086 20.2134 12.2551 20.1392 12.3146 20.0761C12.4349 19.9483 12.6009 19.8733 12.7762 19.8675C12.9516 19.8616 13.1222 19.9255 13.2506 20.0451C13.3141 20.1043 13.3652 20.1755 13.4012 20.2545C13.4371 20.3335 13.457 20.4189 13.4599 20.5056C13.4628 20.5924 13.4485 20.6789 13.4179 20.7601C13.3873 20.8413 13.341 20.9158 13.2816 20.9791C13.1612 21.107 12.995 21.182 12.8193 21.1877C12.6437 21.1933 12.473 21.1291 12.3446 21.0091ZM11.9886 19.2451C11.9343 19.1942 11.8904 19.1332 11.8597 19.0654C11.8289 18.9976 11.8119 18.9244 11.8095 18.85C11.807 18.7756 11.8193 18.7014 11.8456 18.6318C11.8719 18.5621 11.9117 18.4983 11.9626 18.4441C12.0659 18.3338 12.2086 18.2691 12.3596 18.264C12.5105 18.259 12.6573 18.314 12.7676 18.4171C12.9976 18.6311 13.0076 18.9901 12.7936 19.2191C12.6903 19.3291 12.5474 19.3937 12.3965 19.3986C12.2456 19.4035 12.0989 19.3482 11.9886 19.2451ZM12.0126 17.6991C11.9657 17.6555 11.9279 17.6031 11.9014 17.5449C11.8748 17.4867 11.8601 17.4238 11.8579 17.3599C11.8558 17.2959 11.8663 17.2322 11.8889 17.1723C11.9115 17.1124 11.9458 17.0576 11.9896 17.0111C12.0785 16.9168 12.2011 16.8615 12.3306 16.8574C12.4601 16.8533 12.5859 16.9006 12.6806 16.9891C12.7631 17.0802 12.8082 17.199 12.807 17.3219C12.8058 17.4448 12.7584 17.5627 12.6742 17.6523C12.59 17.7418 12.4752 17.7963 12.3526 17.805C12.23 17.8136 12.1086 17.7758 12.0126 17.6991ZM12.6876 26.2591C12.6196 26.1593 12.572 26.047 12.5475 25.9287C12.5229 25.8105 12.522 25.6886 12.5446 25.5699C12.5673 25.4513 12.6131 25.3383 12.6796 25.2374C12.746 25.1366 12.8316 25.0498 12.9316 24.9821C13.134 24.8446 13.3825 24.7931 13.6229 24.8386C13.8632 24.8842 14.0756 25.0231 14.2136 25.2251C14.2817 25.3248 14.3295 25.4369 14.3541 25.5551C14.3787 25.6733 14.3796 25.7952 14.357 25.9138C14.3343 26.0324 14.2884 26.1453 14.2219 26.2461C14.1555 26.3469 14.0697 26.4335 13.9696 26.5011C13.7673 26.6383 13.5189 26.6899 13.2787 26.6446C13.0385 26.5992 12.826 26.4606 12.6876 26.2591ZM11.2416 24.3231C11.1835 24.2382 11.1428 24.1427 11.1217 24.042C11.1007 23.9414 11.0998 23.8375 11.119 23.7365C11.1383 23.6355 11.1773 23.5393 11.2338 23.4534C11.2904 23.3675 11.3634 23.2936 11.4486 23.2361C11.6207 23.1195 11.8319 23.0758 12.0361 23.1144C12.2403 23.153 12.421 23.2708 12.5386 23.4421C12.5967 23.5269 12.6375 23.6224 12.6585 23.7231C12.6796 23.8238 12.6805 23.9276 12.6613 24.0286C12.642 24.1297 12.603 24.2259 12.5464 24.3118C12.4899 24.3976 12.4169 24.4715 12.3316 24.5291C12.1596 24.6459 11.9484 24.6898 11.7441 24.6512C11.5398 24.6126 11.3591 24.4946 11.2416 24.3231ZM10.3836 22.4401C10.3336 22.3668 10.2986 22.2843 10.2805 22.1975C10.2625 22.1106 10.2617 22.021 10.2784 21.9339C10.295 21.8468 10.3287 21.7637 10.3774 21.6896C10.4262 21.6155 10.4892 21.5518 10.5626 21.5021C10.7113 21.4013 10.8938 21.3635 11.0703 21.3968C11.2468 21.4302 11.403 21.532 11.5046 21.6801C11.5549 21.7535 11.5901 21.8361 11.6083 21.9232C11.6264 22.0103 11.6272 22.1002 11.6104 22.1876C11.5937 22.275 11.5598 22.3582 11.5108 22.4324C11.4617 22.5066 11.3985 22.5704 11.3246 22.6201C11.1758 22.7203 10.9933 22.7576 10.8171 22.7239C10.6408 22.6902 10.485 22.5882 10.3836 22.4401ZM10.0236 20.6861C9.98022 20.6224 9.94979 20.5508 9.93408 20.4754C9.91837 20.3999 9.91769 20.3221 9.93209 20.2464C9.94649 20.1707 9.97568 20.0986 10.018 20.0342C10.0603 19.9698 10.1149 19.9143 10.1786 19.8711C10.3078 19.7835 10.4663 19.7506 10.6196 19.7797C10.7729 19.8087 10.9085 19.8973 10.9966 20.0261C11.0403 20.0897 11.0709 20.1614 11.0866 20.2369C11.1024 20.3124 11.1031 20.3903 11.0886 20.4661C11.0741 20.5419 11.0447 20.614 11.0021 20.6784C10.9596 20.7427 10.9047 20.798 10.8406 20.8411C10.7116 20.9283 10.5532 20.961 10.4002 20.932C10.2471 20.9029 10.1118 20.8145 10.0236 20.6861ZM10.0636 19.1501C10.0265 19.0957 10.0004 19.0346 9.98695 18.9702C9.97347 18.9058 9.97285 18.8393 9.98511 18.7747C9.99738 18.71 10.0223 18.6484 10.0584 18.5934C10.0945 18.5384 10.1412 18.491 10.1956 18.4541C10.3059 18.3791 10.4414 18.351 10.5724 18.3757C10.7034 18.4004 10.8193 18.4761 10.8946 18.5861C10.9605 18.6963 10.9817 18.8275 10.9539 18.9528C10.9261 19.0781 10.8515 19.1881 10.7453 19.2602C10.6391 19.3323 10.5093 19.3611 10.3826 19.3406C10.2558 19.3201 10.1417 19.2519 10.0636 19.1501ZM10.3776 17.8671C10.3444 17.8208 10.3208 17.7683 10.3081 17.7127C10.2955 17.6571 10.2941 17.5996 10.304 17.5435C10.314 17.4873 10.3351 17.4338 10.366 17.3859C10.397 17.3381 10.4373 17.2969 10.4844 17.2649C10.5315 17.2328 10.5846 17.2106 10.6405 17.1993C10.6964 17.1881 10.7539 17.1882 10.8098 17.1996C10.8656 17.211 10.9186 17.2335 10.9657 17.2656C11.0127 17.2978 11.0528 17.3391 11.0836 17.3871C11.1439 17.4807 11.1651 17.5942 11.1429 17.7033C11.1206 17.8124 11.0566 17.9085 10.9646 17.9711C10.8725 18.0337 10.7596 18.0579 10.6499 18.0385C10.5403 18.019 10.4426 17.9575 10.3776 17.8671ZM5.63764 16.3251C5.93031 16.1567 6.27777 16.1113 6.6039 16.1986C6.93004 16.286 7.20826 16.499 7.37764 16.7911C7.46107 16.9355 7.51518 17.095 7.53686 17.2604C7.55854 17.4258 7.54737 17.5939 7.50399 17.755C7.4606 17.9161 7.38586 18.067 7.28404 18.1991C7.18223 18.3313 7.05533 18.442 6.91064 18.5251C6.30064 18.8751 5.52264 18.6661 5.17164 18.0601C5.08801 17.9156 5.03371 17.7561 5.01188 17.5906C4.99004 17.4252 5.00108 17.257 5.04438 17.0958C5.08767 16.9346 5.16236 16.7836 5.26417 16.6513C5.36597 16.519 5.49289 16.4082 5.63764 16.3251ZM8.46764 14.5151C8.7153 14.3721 9.00956 14.3331 9.28589 14.4068C9.56221 14.4805 9.79804 14.6608 9.94164 14.9081C10.2386 15.4231 10.0616 16.0801 9.54564 16.3771C9.29782 16.5191 9.00389 16.5574 8.72794 16.4836C8.452 16.4098 8.21644 16.2299 8.07264 15.9831C8.00177 15.8608 7.95576 15.7257 7.93726 15.5855C7.91876 15.4454 7.92813 15.303 7.96484 15.1665C8.00154 15.03 8.06486 14.9021 8.15114 14.7901C8.23743 14.6781 8.34499 14.5843 8.46764 14.5141V14.5151ZM11.1686 13.5381C11.3782 13.4178 11.6268 13.3853 11.8603 13.4477C12.0937 13.5101 12.293 13.6623 12.4146 13.8711C12.4743 13.9746 12.5131 14.0889 12.5286 14.2074C12.5441 14.3259 12.5361 14.4463 12.5051 14.5618C12.4741 14.6772 12.4206 14.7854 12.3478 14.8801C12.275 14.9749 12.1842 15.0544 12.0806 15.1141C11.8709 15.2342 11.6222 15.2666 11.3888 15.204C11.1553 15.1414 10.9561 14.989 10.8346 14.7801C10.7748 14.6766 10.736 14.5624 10.7204 14.444C10.7049 14.3255 10.7128 14.2051 10.7438 14.0897C10.7749 13.9744 10.8284 13.8662 10.9013 13.7716C10.9742 13.6769 11.065 13.5976 11.1686 13.5381ZM13.6356 13.2321C13.8146 13.1291 14.0271 13.1012 14.2265 13.1546C14.426 13.2081 14.5961 13.3384 14.6996 13.5171C14.7507 13.6053 14.7838 13.7028 14.7971 13.8039C14.8104 13.905 14.8036 14.0077 14.7771 14.1062C14.7507 14.2047 14.705 14.297 14.6428 14.3778C14.5806 14.4586 14.5031 14.5263 14.4146 14.5771C14.3259 14.6284 14.228 14.6617 14.1264 14.6752C14.0248 14.6886 13.9216 14.6819 13.8226 14.6554C13.7236 14.629 13.6308 14.5833 13.5495 14.5209C13.4681 14.4586 13.3999 14.3808 13.3486 14.2921C13.2977 14.2037 13.2647 14.1061 13.2515 14.0049C13.2384 13.9037 13.2453 13.8009 13.272 13.7025C13.2987 13.604 13.3445 13.5117 13.4069 13.431C13.4693 13.3503 13.547 13.2827 13.6356 13.2321ZM15.7496 13.4361C15.9034 13.3476 16.0859 13.3237 16.2573 13.3696C16.4286 13.4156 16.5748 13.5276 16.6636 13.6811C16.7411 13.8341 16.7569 14.011 16.7078 14.1753C16.6587 14.3397 16.5485 14.4789 16.3998 14.5644C16.2511 14.6499 16.0753 14.6751 15.9086 14.6349C15.7419 14.5946 15.5969 14.492 15.5036 14.3481C15.4597 14.2721 15.4311 14.1882 15.4197 14.1011C15.4082 14.0141 15.4141 13.9257 15.437 13.8409C15.4598 13.7562 15.4992 13.6768 15.5529 13.6073C15.6065 13.5378 15.6734 13.4796 15.7496 13.4361ZM17.4876 13.9901C17.6197 13.9145 17.7763 13.8941 17.9234 13.9334C18.0704 13.9728 18.1959 14.0686 18.2726 14.2001C18.3106 14.2652 18.3352 14.3372 18.3452 14.4119C18.3551 14.4866 18.3502 14.5625 18.3307 14.6353C18.3112 14.7081 18.2774 14.7763 18.2314 14.836C18.1854 14.8957 18.1281 14.9457 18.0626 14.9831C17.9974 15.0208 17.9254 15.0454 17.8507 15.0553C17.7761 15.0652 17.7002 15.0603 17.6274 15.0409C17.5545 15.0215 17.4863 14.988 17.4265 14.9422C17.3666 14.8964 17.3164 14.8393 17.2786 14.7741C17.2409 14.7089 17.2163 14.6369 17.2064 14.5622C17.1965 14.4875 17.2014 14.4116 17.2208 14.3388C17.2402 14.266 17.2737 14.1977 17.3195 14.1379C17.3653 14.078 17.4224 14.0278 17.4876 13.9901ZM7.61464 11.7581C7.8894 11.6752 8.18581 11.7047 8.43888 11.84C8.69195 11.9754 8.88102 12.2055 8.96464 12.4801C9.03024 12.7496 8.98999 13.0341 8.85218 13.2749C8.71437 13.5156 8.48949 13.6944 8.22383 13.7744C7.95817 13.8544 7.67197 13.8294 7.42414 13.7047C7.17632 13.58 6.98573 13.3651 6.89164 13.1041C6.85027 12.9682 6.83617 12.8255 6.85015 12.6842C6.86414 12.5429 6.90593 12.4058 6.97313 12.2807C7.04033 12.1556 7.1316 12.045 7.24169 11.9553C7.35179 11.8656 7.47853 11.7986 7.61464 11.7581ZM10.3086 10.8051C10.5373 10.7458 10.7801 10.7773 10.9861 10.893C11.1921 11.0086 11.3454 11.1995 11.4139 11.4256C11.4823 11.6517 11.4607 11.8955 11.3535 12.1061C11.2463 12.3166 11.0618 12.4775 10.8386 12.5551C10.7237 12.5899 10.6031 12.6017 10.4836 12.5899C10.3641 12.5781 10.2482 12.5428 10.1423 12.4862C9.92851 12.3718 9.76892 12.1771 9.69864 11.9451C9.62835 11.713 9.65314 11.4625 9.76753 11.2487C9.88193 11.0349 10.0766 10.8753 10.3086 10.8051ZM12.7346 10.5181C12.9309 10.4588 13.1427 10.4799 13.3234 10.5768C13.504 10.6736 13.6389 10.8383 13.6981 11.0346C13.7574 11.2308 13.7363 11.4426 13.6394 11.6233C13.5426 11.804 13.3779 11.9388 13.1816 11.9981C13.0845 12.0274 12.9825 12.0373 12.8814 12.0273C12.7804 12.0172 12.6824 11.9873 12.5929 11.9394C12.5034 11.8914 12.4243 11.8263 12.36 11.7477C12.2957 11.6692 12.2475 11.5787 12.2181 11.4816C12.1888 11.3844 12.1789 11.2824 12.1889 11.1814C12.199 11.0804 12.2289 10.9823 12.2768 10.8928C12.3248 10.8034 12.3899 10.7242 12.4685 10.6599C12.547 10.5956 12.6375 10.5474 12.7346 10.5181ZM14.8346 10.7411C15.0024 10.6904 15.1834 10.7085 15.3378 10.7913C15.4923 10.8741 15.6075 11.0148 15.6581 11.1826C15.7088 11.3503 15.6907 11.5313 15.6079 11.6858C15.5251 11.8402 15.3844 11.9554 15.2166 12.0061C15.0486 12.0565 14.8675 12.0383 14.7128 11.9555C14.5582 11.8727 14.4427 11.7319 14.3916 11.5641C14.3666 11.4809 14.3582 11.3936 14.367 11.3071C14.3757 11.2207 14.4015 11.1368 14.4427 11.0604C14.484 10.9839 14.5399 10.9163 14.6074 10.8615C14.6748 10.8068 14.7524 10.7658 14.8356 10.7411H14.8346ZM16.5446 11.3181C16.6859 11.2833 16.8352 11.3041 16.9616 11.3762C17.088 11.4483 17.1819 11.5661 17.224 11.7054C17.2661 11.8447 17.2531 11.9948 17.1877 12.1248C17.1223 12.2548 17.0095 12.3548 16.8726 12.4041C16.8013 12.4256 16.7265 12.4329 16.6524 12.4255C16.5782 12.4181 16.5063 12.3962 16.4406 12.361C16.375 12.3258 16.3169 12.278 16.2697 12.2204C16.2225 12.1627 16.1872 12.0964 16.1656 12.0251C16.1441 11.9538 16.1368 11.8789 16.1442 11.8048C16.1516 11.7307 16.1735 11.6587 16.2087 11.5931C16.2439 11.5274 16.2917 11.4693 16.3493 11.4222C16.407 11.375 16.4733 11.3396 16.5446 11.3181ZM17.8746 12.1131C17.9358 12.0945 18.0001 12.0881 18.0637 12.0944C18.1274 12.1006 18.1892 12.1194 18.2456 12.1495C18.302 12.1796 18.3519 12.2206 18.3925 12.27C18.4331 12.3194 18.4636 12.3764 18.4821 12.4376C18.5007 12.4988 18.5071 12.563 18.5008 12.6267C18.4946 12.6903 18.4758 12.7521 18.4457 12.8085C18.4156 12.8649 18.3746 12.9149 18.3252 12.9554C18.2758 12.996 18.2188 13.0265 18.1576 13.0451C18.034 13.0826 17.9006 13.0695 17.7867 13.0086C17.6728 12.9478 17.5877 12.8442 17.5501 12.7206C17.5126 12.597 17.5257 12.4635 17.5866 12.3496C17.6474 12.2357 17.751 12.1506 17.8746 12.1131ZM10.1046 8.40607C10.2254 8.39679 10.3467 8.41144 10.4618 8.44917C10.5768 8.4869 10.6833 8.54698 10.7751 8.62595C10.8669 8.70491 10.9422 8.80122 10.9967 8.90935C11.0512 9.01748 11.0838 9.13531 11.0926 9.25607C11.1104 9.50007 11.0305 9.74113 10.8706 9.92623C10.7106 10.1113 10.4836 10.2253 10.2396 10.2431C9.99564 10.2608 9.75457 10.1809 9.56947 10.021C9.38438 9.86101 9.27041 9.63407 9.25264 9.39007C9.24392 9.26942 9.25909 9.14825 9.29726 9.03347C9.33543 8.9187 9.39585 8.81257 9.47508 8.72118C9.55431 8.62978 9.65078 8.55491 9.75898 8.50084C9.86718 8.44676 9.98498 8.41456 10.1056 8.40607H10.1046ZM12.5116 8.12807C12.7126 8.12347 12.9075 8.1963 13.0562 8.33148C13.205 8.46667 13.296 8.65385 13.3105 8.85429C13.325 9.05473 13.2619 9.25308 13.1342 9.40829C13.0066 9.56349 12.8241 9.66366 12.6246 9.68807C12.5193 9.70095 12.4125 9.6923 12.3107 9.66265C12.2088 9.63299 12.114 9.58295 12.0321 9.51556C11.9502 9.44816 11.8828 9.36483 11.8341 9.2706C11.7853 9.17638 11.7563 9.07324 11.7486 8.96743C11.7409 8.86162 11.7548 8.75537 11.7895 8.6551C11.8241 8.55484 11.8788 8.46266 11.9502 8.38417C12.0215 8.30567 12.1081 8.24249 12.2046 8.19847C12.3011 8.15445 12.4056 8.13049 12.5116 8.12807ZM14.5756 8.33207C14.7481 8.32991 14.915 8.39369 15.042 8.51038C15.1691 8.62707 15.2468 8.78786 15.2593 8.95992C15.2718 9.13199 15.2182 9.30233 15.1093 9.43617C15.0005 9.57001 14.8446 9.65725 14.6736 9.68007C14.4975 9.68835 14.3252 9.62751 14.1933 9.51052C14.0614 9.39354 13.9804 9.22966 13.9677 9.05383C13.9549 8.878 14.0113 8.70414 14.1249 8.5693C14.2384 8.43447 14.4002 8.34934 14.5756 8.33207ZM16.2786 8.90007C16.4302 8.89506 16.5779 8.94892 16.6906 9.05036C16.8034 9.1518 16.8725 9.29295 16.8835 9.44421C16.8945 9.59548 16.8465 9.74513 16.7496 9.8618C16.6527 9.97848 16.5144 10.0531 16.3636 10.0701C16.2851 10.0789 16.2056 10.0718 16.1298 10.0491C16.0541 10.0265 15.9838 9.9888 15.923 9.9383C15.8622 9.8878 15.8122 9.82554 15.776 9.75526C15.7399 9.68497 15.7183 9.60811 15.7126 9.52928C15.7068 9.45045 15.7171 9.37127 15.7427 9.2965C15.7683 9.22173 15.8088 9.1529 15.8616 9.09414C15.9145 9.03539 15.9787 8.98791 16.0503 8.95456C16.122 8.92121 16.1996 8.90267 16.2786 8.90007Z" fill="white"/>
</g>
<defs>
<clipPath id="clip0_1_6730">
<rect width="32" height="32" fill="white" transform="translate(0.000976562 0.0180664)"/>
</clipPath>
</defs>
</svg>
