<svg width="32" height="33" viewBox="0 0 32 33" fill="none" xmlns="http://www.w3.org/2000/svg">
<g clip-path="url(#clip0_1_6726)">
<path d="M16.001 32.0181C24.8375 32.0181 32.001 24.8546 32.001 16.0181C32.001 7.18151 24.8375 0.0180664 16.001 0.0180664C7.16442 0.0180664 0.000976562 7.18151 0.000976562 16.0181C0.000976562 24.8546 7.16442 32.0181 16.001 32.0181Z" fill="#00316D"/>
<path d="M18.157 19.9051C18.144 19.8811 18.142 19.8711 18.137 19.8681C17.517 19.5751 16.897 19.2811 16.275 18.9921C16.242 18.9761 16.175 18.9801 16.154 19.0031C15.884 19.2931 15.62 19.5901 15.352 19.8871C15.546 20.0301 17.995 20.0311 18.157 19.9051ZM12.483 12.7421L12.421 12.6121C12.369 12.6491 12.301 12.6761 12.267 12.7261C11.6941 13.5784 11.1248 14.433 10.559 15.2901C10.524 15.3441 10.526 15.4231 10.509 15.4901C10.579 15.4761 10.657 15.4791 10.714 15.4441C11.1997 15.1519 11.6811 14.8526 12.158 14.5461C12.2418 14.487 12.2995 14.3977 12.319 14.2971C12.383 13.7971 12.427 13.2941 12.483 12.7421ZM24.48 19.9921H25.306C25.465 19.9921 25.526 19.9321 25.425 19.7791C24.9 18.9771 24.377 18.1741 23.85 17.3751C23.822 17.3311 23.758 17.3121 23.71 17.2821C23.685 17.3321 23.642 17.3821 23.637 17.4351C23.576 18.2171 23.521 18.9991 23.461 19.7811C23.45 19.9301 23.502 19.9971 23.654 19.9941C23.929 19.9881 24.204 19.9921 24.48 19.9921ZM6.74597 19.9321C6.87197 19.9621 6.93397 19.9901 6.99497 19.9911C7.88797 19.9931 8.78097 19.9911 9.67297 19.9931C9.84597 19.9931 9.88997 19.9321 9.81697 19.7651C9.53682 19.1297 9.26281 18.4917 8.99497 17.8511C8.91697 17.6641 8.84497 17.6731 8.72197 17.8051C8.24597 18.3191 7.76597 18.8281 7.28797 19.3391C7.12097 19.5191 6.95797 19.6991 6.74597 19.9321ZM19.941 15.3191C19.999 15.4321 20.018 15.4811 20.047 15.5231L21.255 17.2771C21.754 18.0021 22.252 18.7271 22.755 19.4491C22.789 19.4991 22.855 19.5261 22.905 19.5631C22.931 19.5031 22.973 19.4461 22.981 19.3841C23.001 19.2141 23.005 19.0441 23.016 18.8741C23.07 18.0991 23.13 17.3251 23.176 16.5511C23.196 16.2211 23.053 16.0511 22.74 15.9731C21.905 15.7641 21.07 15.5541 20.234 15.3471C20.159 15.3291 20.08 15.3321 19.941 15.3191ZM19.729 10.1841L19.653 10.1971C19.643 10.3501 19.628 10.5041 19.623 10.6591L19.512 14.4301C19.507 14.5681 19.548 14.6401 19.691 14.6741C20.557 14.8841 21.421 15.1051 22.287 15.3181C22.362 15.3361 22.445 15.3191 22.524 15.3181C22.504 15.2411 22.5 15.1541 22.463 15.0861C21.6 13.5161 20.735 11.9461 19.868 10.3781C19.83 10.3091 19.776 10.2481 19.729 10.1841ZM15.844 17.8911C15.868 17.7581 15.891 17.6781 15.894 17.5981C15.907 17.1791 15.908 16.7601 15.927 16.3411C15.9449 16.0218 15.85 15.7064 15.659 15.4501C14.865 14.3484 14.0733 13.2451 13.284 12.1401C13.248 12.0901 13.233 12.0251 13.208 11.9671L13.114 12.0231C13.091 12.1071 13.055 12.1901 13.046 12.2751C12.976 12.9551 12.916 13.6351 12.841 14.3131C12.8296 14.3844 12.8351 14.4574 12.8572 14.5262C12.8792 14.595 12.9172 14.6577 12.968 14.7091C13.863 15.7061 14.752 16.7091 15.645 17.7091C15.693 17.7631 15.751 17.8071 15.844 17.8911ZM16.421 17.6821L16.481 17.7221C16.536 17.6791 16.601 17.6451 16.645 17.5921C17.4053 16.6689 18.163 15.7436 18.918 14.8161C18.9643 14.7573 18.9915 14.6858 18.996 14.6111C19.032 13.3761 19.063 12.1411 19.091 10.9061C19.093 10.8381 19.054 10.7691 19.033 10.7011C18.978 10.7541 18.901 10.7971 18.87 10.8611C18.17 12.3431 17.501 13.8401 16.767 15.3031C16.379 16.0771 16.441 16.8761 16.421 17.6831V17.6821ZM12.918 19.9931C13.399 19.9931 13.881 20.0001 14.362 19.9871C14.4718 19.9819 14.576 19.9375 14.656 19.8621C14.991 19.5111 15.305 19.1391 15.639 18.7871C15.764 18.6571 15.736 18.5771 15.63 18.4611C15.0656 17.849 14.5063 17.2323 13.952 16.6111C13.818 16.4611 13.741 16.4621 13.621 16.6261C12.86 17.6671 12.091 18.7011 11.326 19.7401C11.288 19.7921 11.274 19.8611 11.248 19.9221C11.315 19.9461 11.382 19.9891 11.45 19.9891C11.94 19.9951 12.428 19.9931 12.918 19.9931ZM13.416 16.0271C13.15 15.7181 12.889 15.4271 12.642 15.1221C12.538 14.9951 12.458 14.9821 12.318 15.0691C11.482 15.5951 10.637 16.1071 9.80297 16.6361C9.65197 16.7321 9.53297 16.8811 9.40497 17.0121C9.28597 17.1341 9.30197 17.2681 9.36697 17.4181C9.69197 18.1611 10.009 18.9071 10.33 19.6521C10.452 19.9321 10.498 19.9371 10.685 19.6871C11.18 19.0271 11.673 18.3641 12.166 17.7031L13.416 16.0271ZM19.211 15.2391C19.146 15.3441 19.115 15.4081 19.071 15.4601C18.279 16.4261 17.486 17.3921 16.688 18.3541C16.558 18.5111 16.625 18.5731 16.772 18.6401C17.689 19.0601 18.602 19.4871 19.521 19.9051C19.6387 19.9581 19.7659 19.9867 19.895 19.9891C20.651 19.9961 21.408 19.9941 22.165 19.9901C22.235 19.9901 22.306 19.9581 22.377 19.9401C22.352 19.8661 22.341 19.7811 22.297 19.7181C21.5994 18.6993 20.8997 17.682 20.198 16.6661C19.888 16.2161 19.576 15.7661 19.211 15.2391ZM15.994 21.0161C12.552 21.0161 9.10997 21.0151 5.66797 21.0181C5.39997 21.0181 5.15797 20.9881 5.04197 20.7001C4.93197 20.4271 5.05997 20.2251 5.23897 20.0341C6.26697 18.9361 7.30897 17.8501 8.30897 16.7281C8.69097 16.3001 8.98597 15.7911 9.30897 15.3101C10.344 13.7621 11.371 12.2081 12.411 10.6641C12.513 10.5131 12.669 10.3601 12.833 10.3001C13.059 10.2161 13.252 10.3461 13.396 10.5521C14.233 11.7481 15.076 12.9401 15.917 14.1341C16.09 14.3781 16.152 14.3701 16.28 14.0921L18.874 8.44207C18.976 8.22007 19.111 8.03107 19.374 8.01907C19.649 8.00607 19.816 8.17307 19.945 8.40907C21.247 10.7711 22.519 13.1531 23.872 15.4851C24.69 16.8951 25.637 18.2261 26.526 19.5931C26.636 19.7611 26.747 19.9281 26.855 20.0981C26.985 20.3031 27.062 20.5281 26.94 20.7551C26.82 20.9751 26.598 21.0171 26.365 21.0171C22.908 21.0151 19.451 21.0161 15.994 21.0161Z" fill="white"/>
</g>
<defs>
<clipPath id="clip0_1_6726">
<rect width="32" height="32" fill="white" transform="translate(0.000976562 0.0180664)"/>
</clipPath>
</defs>
</svg>
