<svg width="32" height="33" viewBox="0 0 32 33" fill="none" xmlns="http://www.w3.org/2000/svg">
<g clip-path="url(#clip0_1_6722)">
<path d="M16 32.0195C24.8366 32.0195 32 24.8561 32 16.0195C32 7.18297 24.8366 0.0195312 16 0.0195312C7.16344 0.0195312 0 7.18297 0 16.0195C0 24.8561 7.16344 32.0195 16 32.0195Z" fill="#1AAB9B"/>
<path d="M7.558 21.2728V13.2278L13.659 17.8198V21.2728H15.217V17.4968C15.2169 17.3559 15.184 17.217 15.121 17.091C15.058 16.965 14.9666 16.8554 14.854 16.7708L7.455 11.2018C7.3201 11.1004 7.15966 11.0386 6.99163 11.0233C6.8236 11.008 6.65462 11.0397 6.5036 11.1149C6.35258 11.1902 6.22549 11.306 6.13655 11.4494C6.0476 11.5927 6.00032 11.7581 6 11.9268V21.2728H7.558ZM24.432 21.2728V13.2278L18.331 17.8198V21.2728H16.773V17.4968C16.773 17.2108 16.907 16.9418 17.135 16.7708L24.535 11.2018C24.67 11.1004 24.8305 11.0386 24.9986 11.0233C25.1667 11.008 25.3358 11.0398 25.4868 11.1152C25.6379 11.1905 25.765 11.3065 25.8538 11.45C25.9427 11.5935 25.9899 11.759 25.99 11.9278V21.2738H24.432V21.2728Z" fill="white"/>
</g>
<defs>
<clipPath id="clip0_1_6722">
<rect width="32" height="32" fill="white" transform="translate(0 0.0195312)"/>
</clipPath>
</defs>
</svg>
