<svg width="32" height="33" viewBox="0 0 32 33" fill="none" xmlns="http://www.w3.org/2000/svg">
<g clip-path="url(#clip0_1_6718)">
<path d="M16 32.0195C24.8366 32.0195 32 24.8561 32 16.0195C32 7.18297 24.8366 0.0195312 16 0.0195312C7.16344 0.0195312 0 7.18297 0 16.0195C0 24.8561 7.16344 32.0195 16 32.0195Z" fill="#0B1529"/>
<path fill-rule="evenodd" clip-rule="evenodd" d="M8.627 20.1435L13.899 23.2355V24.9645L7 20.9045V10.3145L16 5.01953L25 10.3145V20.9045L18.101 24.9645V23.2345L23.372 20.1435L22.012 19.3575L22.19 19.0485L23.533 19.8245V11.9725L16.713 16.0145V27.5745L16 28.0195L15.286 27.5745V16.0145L8.467 11.9725V19.8235L9.809 19.0485L9.987 19.3585L8.627 20.1435ZM15.802 6.83353L9.18 10.7185L16 14.7615L22.82 10.7185L16.159 6.81053V8.41453H15.802V6.83353ZM15.802 9.42553H16.159V11.0825H15.802V9.42553ZM15.802 12.0935H16.159V13.7505L15.98 13.8315L15.802 13.7515V12.0935ZM21.362 18.5435L21.184 18.8535L19.748 18.0235L19.927 17.7145L21.362 18.5445V18.5435ZM19.097 17.2095L18.918 17.5195L17.483 16.6895L17.503 16.4955L17.661 16.3815L19.097 17.2095ZM10.637 18.5435L12.072 17.7145L12.251 18.0245L10.816 18.8525L10.637 18.5435ZM12.903 17.2095L14.338 16.3815L14.498 16.4955L14.516 16.6905L13.081 17.5185L12.903 17.2095Z" fill="white"/>
</g>
<defs>
<clipPath id="clip0_1_6718">
<rect width="32" height="32" fill="white" transform="translate(0 0.0195312)"/>
</clipPath>
</defs>
</svg>
