<svg width="32" height="33" viewBox="0 0 32 33" fill="none" xmlns="http://www.w3.org/2000/svg">
<g clip-path="url(#clip0_1_6714)">
<path d="M16 32.0195C24.8366 32.0195 32 24.8561 32 16.0195C32 7.18297 24.8366 0.0195312 16 0.0195312C7.16344 0.0195312 0 7.18297 0 16.0195C0 24.8561 7.16344 32.0195 16 32.0195Z" fill="#00ADEF"/>
<path fill-rule="evenodd" clip-rule="evenodd" d="M14.863 27.0055C9.32 26.4245 5 21.7275 5 16.0195C5 10.3115 9.32 5.61453 14.863 5.03353V8.40353C13.0446 8.68382 11.3866 9.60597 10.1893 11.003C8.99206 12.4001 8.3346 14.1796 8.336 16.0195C8.3346 17.8594 8.99206 19.639 10.1893 21.0361C11.3866 22.4331 13.0446 23.3552 14.863 23.6355V27.0055ZM17.038 5.01953C22.268 5.49853 26.441 9.63653 26.986 14.8565H23.623C23.3728 13.2106 22.5959 11.69 21.4087 10.5229C20.2215 9.35567 18.688 8.60471 17.038 8.38253V5.01953ZM27 17.0365C26.518 22.3265 22.316 26.5365 17.038 27.0195V23.6565C18.713 23.431 20.2673 22.6607 21.4612 21.4643C22.655 20.268 23.4221 18.712 23.644 17.0365H27Z" fill="white"/>
</g>
<defs>
<clipPath id="clip0_1_6714">
<rect width="32" height="32" fill="white" transform="translate(0 0.0195312)"/>
</clipPath>
</defs>
</svg>
