<svg width="32" height="33" viewBox="0 0 32 33" fill="none" xmlns="http://www.w3.org/2000/svg">
<g clip-path="url(#clip0_1_6710)">
<path d="M16 32.0195C24.8366 32.0195 32 24.8561 32 16.0195C32 7.18297 24.8366 0.0195312 16 0.0195312C7.16344 0.0195312 0 7.18297 0 16.0195C0 24.8561 7.16344 32.0195 16 32.0195Z" fill="#7F368A"/>
<path d="M25.148 21.6345C25.213 21.8975 24.951 22.0285 24.754 21.9635H21.476C21.279 21.9635 21.148 21.8975 21.016 21.8315C20.82 21.7655 20.689 21.5035 20.623 21.2405V21.1745L17.541 9.80853C17.476 9.80853 17.279 10.0055 17.213 10.0055C17.148 10.0705 17.016 10.1365 16.951 10.0705C16.82 10.0055 16.754 9.80853 16.82 9.67653C16.95 9.34853 17.279 9.15053 17.607 9.08553C18 9.01953 18.328 9.01953 18.721 9.01953H21.148C21.344 9.01953 21.541 9.01953 21.738 9.08553C21.935 9.21653 22 9.47953 22.066 9.67653C22.196 10.1365 22.262 10.5965 22.394 11.0565L23.967 16.9705L24.557 19.3355C24.754 20.0585 25.017 20.8475 25.147 21.6355L25.148 21.6345ZM17.541 21.6345C17.607 21.8975 17.344 22.0285 17.148 21.9635H13.869C13.672 21.9635 13.541 21.8975 13.409 21.8315C13.213 21.7655 13.082 21.5035 13.016 21.2405V21.1745L9.935 9.80853C9.869 9.80853 9.672 10.0055 9.607 10.0055C9.541 10.0705 9.41 10.1365 9.344 10.0705C9.214 10.0055 9.148 9.80853 9.214 9.67653C9.344 9.34853 9.672 9.15053 10 9.08553C10.394 9.01953 10.721 9.01953 11.115 9.01953H13.541C13.738 9.01953 13.935 9.01953 14.131 9.08553C14.328 9.21653 14.394 9.47953 14.459 9.67653C14.59 10.1365 14.656 10.5965 14.787 11.0565L16.361 16.9705L16.951 19.3355C17.148 20.0585 17.41 20.8475 17.541 21.6355V21.6345ZM11.508 19.1375L10.721 21.6345C10.6847 21.7642 10.6079 21.8788 10.5017 21.9616C10.3955 22.0444 10.2656 22.091 10.131 22.0945H6.656C6.48201 22.094 6.31531 22.0246 6.19237 21.9015C6.06943 21.7783 6.00026 21.6115 6 21.4375V21.3055L8.754 10.9245C8.82 10.7925 8.951 10.6615 9.082 10.6615C9.279 10.6615 9.41 10.7925 9.41 10.9245L11.508 19.1375ZM19.246 18.9405L18.787 20.3205C18.721 20.4515 18.656 20.5175 18.525 20.5175C18.394 20.5175 18.328 20.4515 18.262 20.3205L15.967 12.3035L16.427 10.6615C16.427 10.5295 16.557 10.4645 16.689 10.4645C16.819 10.4645 16.951 10.5295 16.951 10.6615L19.246 18.9405Z" fill="white"/>
</g>
<defs>
<clipPath id="clip0_1_6710">
<rect width="32" height="32" fill="white" transform="translate(0 0.0195312)"/>
</clipPath>
</defs>
</svg>
