<svg width="32" height="33" viewBox="0 0 32 33" fill="none" xmlns="http://www.w3.org/2000/svg">
<g clip-path="url(#clip0_1_6696)">
<path d="M16.0005 32.0195C24.837 32.0195 32.0005 24.8561 32.0005 16.0195C32.0005 7.18297 24.837 0.0195312 16.0005 0.0195312C7.16393 0.0195312 0.000488281 7.18297 0.000488281 16.0195C0.000488281 24.8561 7.16393 32.0195 16.0005 32.0195Z" fill="#DEC799"/>
<path d="M23.5305 13.4335L22.1055 7.01953L19.3085 11.4335C17.1341 10.9085 14.8659 10.9085 12.6915 11.4335L9.90249 7.01953L8.47249 13.4335C6.93749 14.6615 6.00049 16.2665 6.00049 18.0285C6.00049 21.8885 10.4765 25.0175 15.9975 25.0175C21.5185 25.0175 25.9945 21.8875 25.9945 18.0285C25.9935 16.2665 25.0645 14.6615 23.5295 13.4335H23.5305ZM10.4425 16.3695H9.77649L11.4035 14.4935H12.5875L10.4425 16.3695ZM15.9465 20.9535L13.1805 16.0815L13.8635 15.6915L14.4805 16.7765H17.5015L18.1455 15.6865L18.8215 16.0885L15.9465 20.9535ZM21.5595 16.3695L19.4135 14.4935H20.6055L22.2305 16.3695H21.5595ZM15.9595 19.3845L14.9265 17.5645H17.0345L15.9595 19.3845Z" fill="white"/>
</g>
<defs>
<clipPath id="clip0_1_6696">
<rect width="32" height="32" fill="white" transform="translate(0.000488281 0.0195312)"/>
</clipPath>
</defs>
</svg>
