<svg width="32" height="33" viewBox="0 0 32 33" fill="none" xmlns="http://www.w3.org/2000/svg">
<g clip-path="url(#clip0_1_6690)">
<path d="M16.0005 32.0195C24.837 32.0195 32.0005 24.8561 32.0005 16.0195C32.0005 7.18297 24.837 0.0195312 16.0005 0.0195312C7.16393 0.0195312 0.000488281 7.18297 0.000488281 16.0195C0.000488281 24.8561 7.16393 32.0195 16.0005 32.0195Z" fill="#47B95C"/>
<path d="M16.0005 6.01953C10.4805 6.01953 6.00049 10.4995 6.00049 16.0195C6.00049 16.1525 6.01349 16.2795 6.02049 16.4125H10.7135L12.9805 12.5125L16.0005 16.8395L19.0135 12.5125L21.2805 16.4125H25.9735C25.9805 16.2795 25.9935 16.1525 25.9935 16.0195C26.0005 10.4995 21.5205 6.01953 16.0005 6.01953ZM22.8935 15.2065C22.4875 11.7595 19.5535 9.07953 16.0005 9.07953C12.4475 9.07953 9.51349 11.7665 9.10749 15.2065H7.89349C8.30049 11.0925 11.7805 7.87253 16.0005 7.87253C20.2205 7.87253 23.6935 11.0925 24.1075 15.2065H22.8935Z" fill="white"/>
<path d="M18.7875 15.0195L15.8605 19.2195L12.9335 15.0195L11.2675 17.8865H6.00049C6.76749 22.6465 10.8805 26.2865 15.8605 26.2865C20.8405 26.2865 24.9535 22.6465 25.7205 17.8795H20.4535L18.7875 15.0195ZM22.2075 19.0865H23.5005C22.3535 22.1995 19.3675 24.4335 15.8605 24.4335C12.3535 24.4335 9.36749 22.1995 8.22049 19.0865H9.51349C10.5935 21.5195 13.0275 23.2265 15.8605 23.2265C18.6935 23.2265 21.1275 21.5195 22.2075 19.0865Z" fill="white"/>
</g>
<defs>
<clipPath id="clip0_1_6690">
<rect width="32" height="32" fill="white" transform="translate(0.000488281 0.0195312)"/>
</clipPath>
</defs>
</svg>
