<svg width="32" height="33" viewBox="0 0 32 33" fill="none" xmlns="http://www.w3.org/2000/svg">
<g clip-path="url(#clip0_1_6682)">
<path d="M16.0005 32.0195C24.837 32.0195 32.0005 24.8561 32.0005 16.0195C32.0005 7.18297 24.837 0.0195312 16.0005 0.0195312C7.16393 0.0195312 0.000488281 7.18297 0.000488281 16.0195C0.000488281 24.8561 7.16393 32.0195 16.0005 32.0195Z" fill="#104FCA"/>
<path d="M7.00049 10.0195L11.2345 17.1225V24.4515C8.89649 24.4515 7.00049 22.6155 7.00049 20.3505V10.0195Z" fill="white" fill-opacity="0.5"/>
<path d="M21.0005 17.1185L25.2325 10.0195H25.2345V20.3555C25.2355 22.6195 23.3395 24.4555 21.0005 24.4555V17.1185Z" fill="white" fill-opacity="0.6"/>
<path d="M15.9975 16.4598L13.8805 20.0118C13.4415 19.9018 12.9695 19.4758 12.4645 18.7348L7.00049 9.56984C9.02549 8.43684 11.6155 9.10984 12.7845 11.0698L15.9975 16.4598Z" fill="white" fill-opacity="0.8"/>
<path d="M19.3365 11.071C20.5055 9.10902 23.0955 8.43702 25.1205 9.57002L19.6565 18.735C19.2618 19.3071 18.7334 19.7742 18.1172 20.0955C17.5009 20.4169 16.8155 20.5829 16.1205 20.579C15.4623 20.5803 14.8125 20.4315 14.2205 20.144L14.0005 20.021L19.3365 11.071Z" fill="white"/>
</g>
<defs>
<clipPath id="clip0_1_6682">
<rect width="32" height="32" fill="white" transform="translate(0.000488281 0.0195312)"/>
</clipPath>
</defs>
</svg>
