<svg width="32" height="33" viewBox="0 0 32 33" fill="none" xmlns="http://www.w3.org/2000/svg">
<g clip-path="url(#clip0_1_6674)">
<path d="M16.0005 32.0195C24.837 32.0195 32.0005 24.8561 32.0005 16.0195C32.0005 7.18297 24.837 0.0195312 16.0005 0.0195312C7.16393 0.0195312 0.000488281 7.18297 0.000488281 16.0195C0.000488281 24.8561 7.16393 32.0195 16.0005 32.0195Z" fill="white"/>
<path d="M18.6505 0.245531C17.775 0.0967847 16.8886 0.0211902 16.0005 0.0195312C7.16049 0.0195313 0.000488281 7.17953 0.000488281 16.0195C0.000488281 19.4135 1.06749 22.5495 2.86049 25.1505C3.96049 23.5345 6.49749 22.4195 9.43849 22.4195C11.4585 22.4195 13.2855 22.9525 14.5945 23.8095L18.6505 0.245531ZM27.1525 4.56053C29.9155 10.6705 27.4915 13.9345 27.4915 13.9345C25.6165 8.29453 20.1865 7.47053 20.1865 7.47053C20.1865 7.47053 16.6145 26.7185 16.6145 26.9605C16.6145 29.0455 14.4005 30.8075 11.3945 31.3405C12.8885 31.7901 14.4403 32.0188 16.0005 32.0195C24.8405 32.0195 32.0005 24.8595 32.0005 16.0195C32.0005 11.5265 30.1415 7.46953 27.1525 4.56053Z" fill="#FBBF02"/>
</g>
<defs>
<clipPath id="clip0_1_6674">
<rect width="32" height="32" fill="white" transform="translate(0.000488281 0.0195312)"/>
</clipPath>
</defs>
</svg>
