<svg width="32" height="33" viewBox="0 0 32 33" fill="none" xmlns="http://www.w3.org/2000/svg">
<g clip-path="url(#clip0_1_6670)">
<path d="M16.0005 32.0195C24.837 32.0195 32.0005 24.8561 32.0005 16.0195C32.0005 7.18297 24.837 0.0195312 16.0005 0.0195312C7.16393 0.0195312 0.000488281 7.18297 0.000488281 16.0195C0.000488281 24.8561 7.16393 32.0195 16.0005 32.0195Z" fill="#FFAA05"/>
<path fill-rule="evenodd" clip-rule="evenodd" d="M16.8115 11.5865V13.4495H19.0255L18.0255 14.5975H16.5385V16.0405H18.0855L17.3275 17.1885H16.5385V20.1325L15.2655 21.8685V17.1885H13.5055L14.4765 16.0405H15.2655V14.5975H12.7785L13.7785 13.4495H15.2655V11.5195C14.5325 10.7265 13.5215 10.3295 12.2325 10.3295C9.76049 10.3295 7.80449 12.9645 7.80449 15.5845C7.80449 17.3305 8.20449 18.8125 9.00249 20.0295L7.62249 21.6335C6.54149 20.0315 6.00049 18.2015 6.00049 16.1435C6.00049 11.6245 9.89049 9.01953 12.6415 9.01953C14.3255 9.01953 15.6155 9.72553 16.5115 11.1365C18.2255 9.96053 19.9785 9.37253 21.7705 9.37253C24.5145 9.37253 26.0005 12.7225 26.0005 15.9225C26.0005 20.1805 23.1345 21.8245 22.0885 22.0165C22.0501 22.0236 22.0104 22.0197 21.9741 22.0051C21.9379 21.9906 21.9064 21.9662 21.8835 21.9345C21.8681 21.9133 21.8572 21.8891 21.8514 21.8635C21.8457 21.8379 21.8452 21.8114 21.8499 21.7856C21.8547 21.7598 21.8647 21.7353 21.8792 21.7134C21.8937 21.6916 21.9125 21.6729 21.9345 21.6585C23.5535 20.5705 24.3625 18.9035 24.3625 16.6585C24.3625 11.7575 21.8455 10.6235 19.9955 10.6235C18.862 10.6204 17.7533 10.9557 16.8115 11.5865Z" fill="white"/>
</g>
<defs>
<clipPath id="clip0_1_6670">
<rect width="32" height="32" fill="white" transform="translate(0.000488281 0.0195312)"/>
</clipPath>
</defs>
</svg>
