<svg width="32" height="33" viewBox="0 0 32 33" fill="none" xmlns="http://www.w3.org/2000/svg">
<g clip-path="url(#clip0_1_6666)">
<path d="M16.0005 32.0195C24.837 32.0195 32.0005 24.8561 32.0005 16.0195C32.0005 7.18297 24.837 0.0195312 16.0005 0.0195312C7.16393 0.0195312 0.000488281 7.18297 0.000488281 16.0195C0.000488281 24.8561 7.16393 32.0195 16.0005 32.0195Z" fill="#4A90E2"/>
<path d="M25.4505 11.0195C24.5925 11.0195 23.8675 11.7125 23.8675 12.6025C23.8675 13.8565 23.6695 14.1855 22.2835 14.1855H22.1515C21.7635 14.2182 21.4021 14.3959 21.1393 14.6832C20.8765 14.9704 20.7316 15.3462 20.7335 15.7355V15.7695C20.7335 16.9895 20.5035 17.2865 19.1505 17.2865C19.0845 17.2865 19.0185 17.2865 18.9855 17.3195C18.1935 17.4185 17.5675 18.0775 17.5675 18.8695C17.5675 19.7275 18.2595 20.4525 19.1505 20.4525C19.9755 20.4525 20.6675 19.7925 20.7005 19.0015V18.8695C20.7005 17.7485 21.0635 17.3195 22.2505 17.2865H22.2835C23.1085 17.2865 23.8015 16.6265 23.8335 15.8025V15.7025C23.8335 14.5485 24.1965 14.1195 25.4175 14.1195C26.2745 14.1195 27.0005 13.4275 27.0005 12.5365C27.0005 11.7125 26.3075 11.0195 25.4505 11.0195ZM16.1485 14.1855C16.5332 14.2202 16.8922 14.3931 17.1592 14.6722C17.4262 14.9513 17.5829 15.3177 17.6005 15.7035C17.6005 16.5935 16.9075 17.2865 16.0165 17.2865C15.1265 17.2865 14.4335 16.5605 14.4335 15.7035C14.4335 14.5815 14.0705 14.1535 12.8505 14.1535C11.6305 14.1535 11.2675 14.5815 11.2675 15.7365V15.8355C11.2345 16.6265 10.5415 17.2855 9.71749 17.2855C8.82749 17.2855 8.13349 16.5605 8.13349 15.7035C8.13349 14.8785 8.76049 14.2185 9.55249 14.1535H9.68449C11.0695 14.1535 11.2675 13.8565 11.2675 12.6035C11.2821 12.1934 11.4552 11.805 11.7505 11.52C12.0458 11.2351 12.4401 11.0758 12.8505 11.0758C13.2608 11.0758 13.6552 11.2351 13.9505 11.52C14.2457 11.805 14.4189 12.1934 14.4335 12.6035C14.4335 13.8565 14.6315 14.1855 16.0165 14.1855H16.1485ZM6.58349 20.4525C6.16365 20.4525 5.76101 20.2858 5.46414 19.9889C5.16727 19.692 5.00049 19.2894 5.00049 18.8695C5.00049 18.4497 5.16727 18.0471 5.46414 17.7502C5.76101 17.4533 6.16365 17.2865 6.58349 17.2865C7.00333 17.2865 7.40597 17.4533 7.70284 17.7502C7.99971 18.0471 8.16649 18.4497 8.16649 18.8695C8.16649 19.2894 7.99971 19.692 7.70284 19.9889C7.40597 20.2858 7.00333 20.4525 6.58349 20.4525Z" fill="white"/>
</g>
<defs>
<clipPath id="clip0_1_6666">
<rect width="32" height="32" fill="white" transform="translate(0.000488281 0.0195312)"/>
</clipPath>
</defs>
</svg>
