<svg width="32" height="33" viewBox="0 0 32 33" fill="none" xmlns="http://www.w3.org/2000/svg">
<g clip-path="url(#clip0_1_6662)">
<path d="M16.001 32.0195C24.8375 32.0195 32.001 24.8561 32.001 16.0195C32.001 7.18297 24.8375 0.0195312 16.001 0.0195312C7.16442 0.0195312 0.000976562 7.18297 0.000976562 16.0195C0.000976562 24.8561 7.16442 32.0195 16.001 32.0195Z" fill="#222222"/>
<path fill-rule="evenodd" clip-rule="evenodd" d="M12.731 18.6745L15.877 25.0565L17.493 20.2835L12.732 18.6745H12.731ZM6.97798 15.9055L11.742 17.5225L13.36 12.7525L6.97798 15.9055ZM13.009 17.9295C13.084 17.9695 13.115 17.9935 13.15 18.0055C14.686 18.5275 16.22 19.0535 17.76 19.5625C17.885 19.6025 18.063 19.5685 18.186 19.5085C19.947 18.6495 21.703 17.7805 23.459 16.9135C23.959 16.6665 24.457 16.4165 25.002 16.1445C24.882 16.0985 24.82 16.0725 24.755 16.0505C23.268 15.5455 21.781 15.0375 20.289 14.5465C20.1314 14.5001 19.9625 14.5107 19.812 14.5765C17.94 15.4865 16.075 16.4115 14.209 17.3325C13.82 17.5245 13.433 17.7185 13.009 17.9295ZM19.508 13.8645C18.378 11.5705 17.262 9.31053 16.118 6.98953L12.638 17.2565L19.508 13.8645ZM5.00098 16.0215C6.09498 15.4805 7.12698 14.9665 8.16098 14.4565C9.91898 13.5895 11.677 12.7215 13.438 11.8605C13.5252 11.8223 13.603 11.7654 13.6659 11.6939C13.7288 11.6224 13.7752 11.5379 13.802 11.4465C14.49 9.39353 15.188 7.34453 15.884 5.29453C15.91 5.21853 15.941 5.14453 15.989 5.01953C16.059 5.15553 16.111 5.25153 16.159 5.34853C17.504 8.07853 18.847 10.8085 20.203 13.5325C20.269 13.6645 20.443 13.7745 20.592 13.8255C22.628 14.5275 24.668 15.2175 26.707 15.9105C26.784 15.9365 26.86 15.9645 27.001 16.0145C26.813 16.1095 26.674 16.1825 26.534 16.2515C23.906 17.5485 21.279 18.8485 18.647 20.1365C18.5283 20.1886 18.4225 20.2662 18.3373 20.3639C18.2521 20.4616 18.1895 20.5769 18.154 20.7015C17.475 22.7355 16.779 24.7635 16.088 26.7935C16.069 26.8495 16.046 26.9035 16.001 27.0195C15.824 26.6645 15.671 26.3615 15.521 26.0575C14.297 23.5755 13.072 21.0935 11.855 18.6075C11.8136 18.5109 11.7514 18.4246 11.673 18.3546C11.5945 18.2846 11.5017 18.2327 11.401 18.2025C9.35898 17.5195 7.32098 16.8225 5.28198 16.1295C5.20698 16.1035 5.13398 16.0725 5.00098 16.0215Z" fill="white"/>
</g>
<defs>
<clipPath id="clip0_1_6662">
<rect width="32" height="32" fill="white" transform="translate(0.000976562 0.0195312)"/>
</clipPath>
</defs>
</svg>
