<svg width="32" height="33" viewBox="0 0 32 33" fill="none" xmlns="http://www.w3.org/2000/svg">
<g clip-path="url(#clip0_1_6654)">
<path d="M16.001 32.0195C24.8375 32.0195 32.001 24.8561 32.001 16.0195C32.001 7.18297 24.8375 0.0195312 16.001 0.0195312C7.16442 0.0195312 0.000976562 7.18297 0.000976562 16.0195C0.000976562 24.8561 7.16442 32.0195 16.001 32.0195Z" fill="#36A9CF"/>
<path fill-rule="evenodd" clip-rule="evenodd" d="M25.8113 18.4941C25.9873 18.5711 26.0523 18.8101 25.9573 19.0281C25.9289 19.1003 25.8821 19.1639 25.8216 19.2125C25.7611 19.2611 25.6889 19.293 25.6123 19.3051L23.3873 23.4081C23.4069 23.4997 23.4023 23.5948 23.3739 23.6841C23.3455 23.7734 23.2942 23.8537 23.2253 23.9171C23.1703 23.9745 23.1034 24.0192 23.0293 24.0481C22.9551 24.0769 22.8756 24.0892 22.7963 24.0841L18.4573 26.6821C18.4235 26.7676 18.3679 26.8428 18.2959 26.9C18.2239 26.9572 18.1382 26.9945 18.0473 27.0081C17.8333 27.0491 17.6293 26.9711 17.5313 26.8261L12.4333 26.4691C12.3699 26.5174 12.2965 26.5509 12.2184 26.5672C12.1404 26.5835 12.0597 26.5821 11.9823 26.5631C11.7303 26.5081 11.5563 26.3071 11.5663 26.1001L7.62726 23.2581C7.54497 23.2728 7.46037 23.2678 7.38039 23.2435C7.30042 23.2191 7.22737 23.1762 7.16726 23.1181C6.99526 22.9621 6.93326 22.7351 6.99926 22.5631L5.37926 18.8061C5.20226 18.7711 5.04926 18.5971 5.00926 18.3671C4.97626 18.1601 5.04426 17.9651 5.17126 17.8611L5.41026 12.1741C5.35646 12.1007 5.32187 12.0151 5.30964 11.925C5.29742 11.8349 5.30794 11.7431 5.34026 11.6581C5.42026 11.4251 5.61326 11.2781 5.80326 11.2881L10.0553 6.83308C10.0183 6.62308 10.1783 6.40008 10.4293 6.32108C10.5071 6.29452 10.5901 6.28638 10.6717 6.29731C10.7532 6.30824 10.8311 6.33794 10.8993 6.38408L17.0173 5.27208C17.0963 5.09208 17.3203 4.98608 17.5623 5.02908C17.7823 5.06708 17.9473 5.21808 17.9863 5.39208L20.8123 7.00408C20.8906 6.97904 20.9735 6.97126 21.0551 6.98127C21.1368 6.99129 21.2153 7.01885 21.2853 7.06208C21.3624 7.10694 21.4282 7.16882 21.4778 7.24299C21.5273 7.31716 21.5593 7.40167 21.5713 7.49008L22.7873 8.30808C22.8657 8.2868 22.948 8.28386 23.0277 8.29946C23.1075 8.31507 23.1826 8.34881 23.2473 8.39808C23.4753 8.56208 23.5573 8.84808 23.4273 9.03808L23.4193 9.04808L25.2023 12.5281C25.3723 12.5051 25.5463 12.6371 25.6083 12.8461C25.6763 13.0751 25.5823 13.3081 25.4003 13.3661C25.2173 13.4261 25.0143 13.2881 24.9473 13.0601L24.9353 13.0101L21.2663 11.0451C21.2078 11.1272 21.1284 11.1922 21.0363 11.2331V21.0271C21.1561 21.0799 21.2539 21.1727 21.313 21.2896C21.372 21.4065 21.3888 21.5402 21.3603 21.6681L22.8503 23.1861C22.9266 23.1537 23.01 23.142 23.0923 23.1521L25.3423 19.1761C25.3034 19.1121 25.2812 19.0395 25.2775 18.9647C25.2739 18.89 25.2889 18.8155 25.3213 18.7481C25.4163 18.5301 25.6363 18.4171 25.8113 18.4941ZM25.8153 18.9691C25.8533 18.8811 25.8263 18.7861 25.7563 18.7551C25.6863 18.7251 25.5983 18.7701 25.5603 18.8571C25.5223 18.9441 25.5483 19.0391 25.6193 19.0711C25.6893 19.1011 25.7763 19.0561 25.8153 18.9691ZM23.1503 23.7611C23.2303 23.6811 23.2443 23.5631 23.1813 23.4971C23.1183 23.4311 23.0023 23.4421 22.9213 23.5211C22.8413 23.6011 22.8273 23.7201 22.8903 23.7861C22.9533 23.8521 23.0703 23.8411 23.1503 23.7611ZM22.5213 23.5111L22.5323 23.4871L21.1033 22.0331C21.0178 22.0865 20.919 22.1149 20.8183 22.1151C20.7132 22.1148 20.6105 22.0846 20.5221 22.0279C20.4336 21.9712 20.3633 21.8904 20.3193 21.7951H18.4013C18.3517 21.8993 18.2714 21.9858 18.1713 22.0431L18.3583 24.7501C18.4323 24.7821 18.4983 24.8281 18.5483 24.8851L22.5213 23.5111ZM18.3533 26.2971L21.8203 24.2211L18.6603 25.3131C18.6393 25.3921 18.6001 25.465 18.5457 25.526C18.4913 25.587 18.4233 25.6343 18.3473 25.6641L18.2513 26.2281C18.2883 26.2462 18.3227 26.2694 18.3533 26.2971ZM18.0283 26.8351C18.1383 26.8151 18.2133 26.7251 18.1973 26.6331C18.1813 26.5431 18.0773 26.4851 17.9673 26.5071C17.8583 26.5271 17.7823 26.6171 17.7983 26.7081C17.8153 26.7991 17.9183 26.8561 18.0283 26.8351ZM17.5243 26.4371C17.5906 26.3277 17.6943 26.246 17.8163 26.2071L17.9073 25.6721C17.8262 25.6419 17.7533 25.5933 17.6943 25.5301L13.7163 26.1721L17.5243 26.4371ZM13.8033 22.1011L12.5093 25.9181L17.5253 25.1081L13.9763 22.0281C13.9232 22.0621 13.8647 22.0868 13.8033 22.1011ZM12.1383 25.6561L13.3723 22.0171C13.291 21.9607 13.2261 21.8837 13.1843 21.7941H10.9283C10.9144 21.8218 10.8987 21.8485 10.8813 21.8741L12.1383 25.6561ZM11.9853 26.3911C12.0953 26.4151 12.1993 26.3611 12.2173 26.2711C12.2373 26.1811 12.1643 26.0881 12.0543 26.0631C11.9443 26.0401 11.8403 26.0931 11.8213 26.1831C11.8023 26.2751 11.8753 26.3671 11.9853 26.3911ZM7.89826 22.9791L11.7033 25.7251L10.5013 22.1091C10.4146 22.1204 10.3265 22.1108 10.2442 22.0813C10.1619 22.0517 10.0879 22.003 10.0283 21.9391L7.90526 22.8641C7.9083 22.9025 7.90629 22.9412 7.89926 22.9791H7.89826ZM7.54226 22.3811C7.59635 22.4049 7.64684 22.4362 7.69226 22.4741L9.87526 21.5241C9.87958 21.416 9.91423 21.3114 9.97526 21.2221L6.59926 17.7331L7.54226 22.3811ZM7.51926 22.9901C7.57926 22.9221 7.55926 22.8041 7.47626 22.7281C7.39226 22.6531 7.27626 22.6471 7.21626 22.7161C7.15626 22.7861 7.17426 22.9041 7.25826 22.9791C7.34226 23.0541 7.45926 23.0591 7.51826 22.9901H7.51926ZM5.72926 18.6571L6.89126 21.3501L6.11226 17.5121L5.80526 18.1661C5.83018 18.2484 5.83629 18.3352 5.82313 18.4202C5.80998 18.5052 5.7779 18.5862 5.72926 18.6571ZM5.70126 14.3171L5.56126 17.6691L5.83926 17.0791C5.79336 16.992 5.77131 16.8943 5.77535 16.796C5.77939 16.6976 5.80937 16.6021 5.86226 16.5191L5.70126 14.3171ZM5.50126 11.6661C5.46326 11.7741 5.50426 11.8861 5.58926 11.9171C5.67526 11.9471 5.77326 11.8851 5.81026 11.7771C5.84726 11.6691 5.80826 11.5571 5.72226 11.5261C5.63626 11.4961 5.53826 11.5581 5.50026 11.6661H5.50126ZM6.34526 16.8191C6.34526 16.7051 6.26226 16.6131 6.16226 16.6131C6.06126 16.6131 5.97826 16.7051 5.97826 16.8191C5.97826 16.9341 6.06126 17.0261 6.16226 17.0261C6.26226 17.0261 6.34526 16.9341 6.34526 16.8191ZM6.11526 11.9331C6.08709 12.018 6.04028 12.0956 5.97826 12.1601L6.26826 16.1501L8.04826 10.5211L6.14326 11.8141C6.13766 11.8545 6.12828 11.8944 6.11526 11.9331ZM9.14126 8.34808L6.70726 10.8981L7.95426 10.0521C7.971 9.93819 8.02032 9.83158 8.09626 9.74508C8.17444 9.65217 8.28024 9.58665 8.39826 9.55808L9.14126 8.34808ZM10.3953 7.14108L8.80826 9.72308C8.8466 9.79442 8.86328 9.87539 8.85626 9.95608L10.0313 10.3171C10.0926 10.2513 10.1693 10.2017 10.2545 10.1727C10.3396 10.1437 10.4306 10.1361 10.5194 10.1508C10.6082 10.1654 10.6919 10.2018 10.7633 10.2566C10.8346 10.3115 10.8913 10.3831 10.9283 10.4651H12.8953C12.9317 10.3867 12.986 10.3178 13.0537 10.264C13.1214 10.2102 13.2006 10.1729 13.2853 10.1551L14.3543 7.88108C14.2966 7.80523 14.2588 7.71621 14.2443 7.62208L10.9763 6.89808C10.9022 7.00573 10.7935 7.08478 10.6683 7.12208C10.5801 7.15028 10.4866 7.15713 10.3953 7.14208V7.14108ZM10.4533 6.48808C10.3463 6.52108 10.2813 6.62008 10.3073 6.70808C10.3343 6.79708 10.4423 6.84108 10.5483 6.80808C10.6553 6.77508 10.7213 6.67608 10.6943 6.58808C10.6683 6.49908 10.5613 6.45408 10.4533 6.48808ZM16.7013 5.72408L11.7693 6.62208L14.3493 7.19308C14.4188 7.09799 14.5172 7.02786 14.6298 6.9931C14.7424 6.95833 14.8632 6.96078 14.9743 7.00008L16.7013 5.72408ZM17.3063 5.82108L15.4673 7.18108L20.5123 7.32108L20.5233 7.28308L17.8493 5.75908C17.7884 5.80368 17.7189 5.83516 17.6452 5.85151C17.5716 5.86786 17.4953 5.86874 17.4213 5.85408C17.3819 5.847 17.3434 5.83594 17.3063 5.82108ZM17.5443 5.20208C17.4343 5.18208 17.3313 5.24008 17.3163 5.33208C17.3013 5.42208 17.3763 5.51208 17.4873 5.53208C17.5973 5.55208 17.6993 5.49408 17.7153 5.40208C17.7313 5.31208 17.6543 5.22208 17.5443 5.20208ZM20.7773 7.92708C20.709 7.88491 20.6496 7.82989 20.6023 7.76508L15.3393 7.61908C15.3352 7.65035 15.3282 7.68116 15.3183 7.71108L17.4423 10.1601C17.565 10.1334 17.6931 10.1492 17.8057 10.2047C17.9183 10.2603 18.0088 10.3524 18.0623 10.4661H20.3193C20.3744 10.3487 20.4683 10.2541 20.5853 10.1981L20.7773 7.92708ZM20.8173 10.4851C20.6963 10.4851 20.5973 10.5871 20.5973 10.7121C20.5973 10.8371 20.6963 10.9381 20.8173 10.9381C20.9403 10.9381 21.0403 10.8371 21.0403 10.7121C21.0403 10.5871 20.9403 10.4851 20.8183 10.4851H20.8173ZM20.9163 7.28508C20.8613 7.38108 20.9023 7.51108 21.0083 7.57308C21.1133 7.63708 21.2443 7.61008 21.2983 7.51308C21.3543 7.41708 21.3133 7.28808 21.2073 7.22508C21.1013 7.16208 20.9713 7.18908 20.9163 7.28508ZM24.8313 12.6031L21.2043 8.01608L21.0213 10.1851C21.1183 10.2248 21.2025 10.2907 21.2643 10.3755C21.3261 10.4602 21.3631 10.5605 21.3713 10.6651L24.8313 12.6031ZM22.5383 8.60608L21.7243 8.06008L24.3513 11.4801L23.0733 9.19308C22.9664 9.18479 22.864 9.14706 22.7773 9.08408C22.6073 8.96308 22.5173 8.77408 22.5373 8.60608H22.5383ZM22.9183 8.54908C22.8663 8.62508 22.8983 8.73908 22.9903 8.80508C23.0813 8.87008 23.1983 8.86208 23.2503 8.78508C23.3023 8.71008 23.2703 8.59508 23.1793 8.53008C23.0863 8.46508 22.9703 8.47308 22.9193 8.55008L22.9183 8.54908ZM17.3483 10.7121C17.3483 10.8341 17.4433 10.9331 17.5643 10.9331C17.6223 10.9323 17.6776 10.9086 17.7182 10.8672C17.7589 10.8258 17.7815 10.7701 17.7813 10.7121C17.7818 10.6539 17.7593 10.5979 17.7186 10.5563C17.6779 10.5147 17.6224 10.4909 17.5643 10.4901C17.5061 10.4909 17.4506 10.5147 17.4099 10.5563C17.3693 10.5979 17.3467 10.6539 17.3473 10.7121H17.3483ZM17.4673 15.4851C17.4378 15.4853 17.4088 15.4914 17.3817 15.5029C17.3546 15.5144 17.3301 15.5311 17.3094 15.5521C17.2888 15.5731 17.2726 15.5979 17.2615 15.6252C17.2505 15.6525 17.245 15.6817 17.2453 15.7111C17.2453 15.8361 17.3453 15.9381 17.4673 15.9381C17.4967 15.9377 17.5257 15.9315 17.5528 15.9199C17.5798 15.9083 17.6043 15.8914 17.6248 15.8704C17.6453 15.8493 17.6615 15.8244 17.6724 15.797C17.6833 15.7697 17.6887 15.7405 17.6883 15.7111C17.6887 15.6817 17.6832 15.6525 17.6723 15.6253C17.6614 15.598 17.6453 15.5732 17.6247 15.5522C17.6042 15.5312 17.5797 15.5144 17.5527 15.5029C17.5257 15.4914 17.4966 15.4853 17.4673 15.4851ZM14.5703 7.46108C14.5703 7.58608 14.6693 7.68708 14.7913 7.68708C14.8207 7.68682 14.8497 7.68076 14.8768 7.66926C14.9039 7.65776 14.9285 7.64104 14.9491 7.62006C14.9697 7.59907 14.986 7.57423 14.997 7.54695C15.008 7.51967 15.0135 7.49049 15.0133 7.46108C15.0133 7.33608 14.9133 7.23408 14.7913 7.23408C14.7618 7.23447 14.7328 7.24065 14.7058 7.25227C14.6787 7.26389 14.6543 7.28072 14.6337 7.3018C14.6132 7.32288 14.597 7.3478 14.5862 7.37512C14.5753 7.40245 14.5699 7.43166 14.5703 7.46108ZM14.7323 8.09808L13.7183 10.2531C13.8316 10.3364 13.91 10.4588 13.9383 10.5966C13.9666 10.7345 13.9427 10.8779 13.8713 10.9991L17.2513 15.1891C17.2823 15.1762 17.3144 15.1662 17.3473 15.1591V11.2331C17.2731 11.2008 17.2067 11.153 17.1526 11.0928C17.0985 11.0327 17.0579 10.9617 17.0335 10.8846C17.0092 10.8074 17.0016 10.726 17.0114 10.6457C17.0212 10.5654 17.0481 10.4881 17.0903 10.4191L15.0303 8.04508C14.9378 8.09011 14.8346 8.10847 14.7323 8.09808ZM13.1723 10.7121C13.1723 10.8371 13.2723 10.9381 13.3943 10.9381C13.5153 10.9381 13.6153 10.8371 13.6153 10.7121C13.6153 10.5871 13.5153 10.4851 13.3943 10.4851C13.3348 10.4859 13.278 10.5102 13.2364 10.5527C13.1948 10.5953 13.1717 10.6526 13.1723 10.7121ZM10.2123 10.7121C10.2123 10.8341 10.3083 10.9331 10.4283 10.9331C10.5483 10.9331 10.6453 10.8341 10.6453 10.7121C10.6453 10.5891 10.5483 10.4901 10.4283 10.4901C10.3083 10.4901 10.2123 10.5901 10.2123 10.7121ZM10.4283 21.3221C10.399 21.3225 10.37 21.3286 10.3431 21.3402C10.3162 21.3518 10.2919 21.3685 10.2714 21.3895C10.251 21.4105 10.2349 21.4353 10.2241 21.4625C10.2132 21.4897 10.2079 21.5188 10.2083 21.5481C10.2083 21.6731 10.3063 21.7741 10.4283 21.7741C10.4577 21.7738 10.4868 21.7678 10.5138 21.7563C10.5409 21.7448 10.5655 21.728 10.5861 21.7071C10.6067 21.6861 10.623 21.6612 10.634 21.634C10.645 21.6067 10.6505 21.5775 10.6503 21.5481C10.6507 21.5186 10.6452 21.4894 10.6342 21.462C10.6233 21.4347 10.607 21.4098 10.5864 21.3888C10.5657 21.3678 10.5411 21.3511 10.514 21.3396C10.4868 21.3282 10.4577 21.3222 10.4283 21.3221ZM8.23226 9.86208C8.15926 9.94808 8.15326 10.0671 8.22226 10.1281C8.28926 10.1881 8.40426 10.1701 8.47826 10.0831C8.55226 9.99808 8.55726 9.87908 8.48926 9.81808C8.42126 9.75608 8.30726 9.77608 8.23226 9.86208ZM6.60726 16.5211C6.66331 16.6103 6.69279 16.7137 6.69226 16.8191C6.69226 16.9291 6.66226 17.0311 6.61026 17.1141L10.2123 20.8361V11.2331C10.1145 11.19 10.0309 11.12 9.97122 11.0314C9.91157 10.9427 9.87829 10.8389 9.87526 10.7321L8.65326 10.3571C8.61529 10.3915 8.57292 10.4208 8.52726 10.4441L6.60726 16.5211ZM17.9013 20.9811C18.1403 20.9811 18.3433 21.1361 18.4213 21.3511H20.2993C20.3249 21.2794 20.3649 21.2137 20.4169 21.158C20.4688 21.1022 20.5315 21.0577 20.6013 21.0271V11.2331C20.5315 11.2025 20.4687 11.158 20.4168 11.1023C20.3649 11.0465 20.3249 10.9808 20.2993 10.9091H18.0833C18.0573 10.9806 18.0172 11.0462 17.9653 11.1019C17.9134 11.1576 17.8508 11.2022 17.7813 11.2331V15.2431C17.8559 15.2961 17.9167 15.3663 17.9585 15.4477C18.0002 15.5292 18.0218 15.6195 18.0213 15.7111C18.0229 15.8597 17.9654 16.0029 17.8615 16.1092C17.7577 16.2155 17.6159 16.2762 17.4673 16.2781C17.3936 16.2773 17.3209 16.262 17.2532 16.2331C17.1855 16.2041 17.1241 16.1621 17.0727 16.1095C17.0212 16.0568 16.9806 15.9945 16.9533 15.9261C16.9259 15.8578 16.9123 15.7847 16.9133 15.7111C16.9133 15.6411 16.9253 15.5741 16.9493 15.5111L13.5213 11.2631C13.3888 11.2936 13.2497 11.2743 13.1305 11.2091C13.0112 11.1438 12.92 11.0371 12.8743 10.9091H10.9483C10.9222 10.9807 10.882 11.0464 10.8299 11.1021C10.7778 11.1577 10.715 11.2023 10.6453 11.2331V21.0271C10.7853 21.0871 10.8943 21.2051 10.9483 21.3511H13.1633C13.1893 21.2794 13.2296 21.2138 13.2816 21.1581C13.3337 21.1024 13.3965 21.0578 13.4663 21.0271V16.9571C13.3847 16.9059 13.3175 16.8348 13.271 16.7505C13.2244 16.6661 13.2001 16.5714 13.2003 16.4751C13.1993 16.4014 13.213 16.3282 13.2404 16.2598C13.2678 16.1913 13.3085 16.129 13.36 16.0763C13.4116 16.0237 13.473 15.9817 13.5409 15.9528C13.6087 15.9239 13.6815 15.9087 13.7553 15.9081C13.8462 15.9084 13.9356 15.9308 14.0159 15.9734C14.0962 16.0161 14.1649 16.0776 14.2161 16.1527C14.2673 16.2278 14.2994 16.3143 14.3097 16.4046C14.32 16.4949 14.3082 16.5864 14.2753 16.6711L17.7583 21.0011C17.8049 20.9886 17.853 20.9819 17.9013 20.9811ZM18.1413 25.0281C18.0213 25.0281 17.9213 25.1181 17.9213 25.2301C17.9213 25.3421 18.0213 25.4311 18.1413 25.4311C18.2643 25.4311 18.3643 25.3411 18.3643 25.2311C18.3643 25.1211 18.2643 25.0281 18.1423 25.0281H18.1413ZM17.6803 21.5481C17.6803 21.6731 17.7793 21.7741 17.9003 21.7741C17.9298 21.7739 17.9589 21.768 17.9861 21.7565C18.0133 21.7451 18.038 21.7284 18.0587 21.7074C18.0794 21.6864 18.0958 21.6615 18.1069 21.6342C18.118 21.6068 18.1235 21.5776 18.1233 21.5481C18.1235 21.5187 18.118 21.4895 18.107 21.4622C18.096 21.4349 18.0797 21.4101 18.0591 21.3891C18.0384 21.3681 18.0139 21.3514 17.9868 21.3399C17.9598 21.3284 17.9307 21.3223 17.9013 21.3221C17.842 21.3229 17.7855 21.3471 17.7441 21.3894C17.7027 21.4318 17.6797 21.4888 17.6803 21.5481ZM13.5333 16.4751C13.5333 16.6001 13.6333 16.7011 13.7553 16.7011C13.8773 16.7011 13.9763 16.6001 13.9763 16.4751C13.9763 16.3491 13.8773 16.2491 13.7553 16.2491C13.6333 16.2491 13.5333 16.3491 13.5333 16.4751ZM13.6833 21.3221C13.6538 21.3223 13.6248 21.3284 13.5977 21.3399C13.5706 21.3514 13.5461 21.3681 13.5254 21.3891C13.5048 21.4101 13.4886 21.4349 13.4775 21.4622C13.4665 21.4895 13.461 21.5187 13.4613 21.5481C13.4613 21.6731 13.5613 21.7741 13.6833 21.7741C13.8053 21.7741 13.9043 21.6731 13.9043 21.5481C13.9047 21.5187 13.8992 21.4896 13.8883 21.4623C13.8774 21.435 13.8613 21.4102 13.8407 21.3892C13.8202 21.3682 13.7957 21.3514 13.7687 21.3399C13.7417 21.3284 13.7126 21.3223 13.6833 21.3221ZM13.8993 21.0271C14.0186 21.0795 14.1163 21.1715 14.1757 21.2875C14.2351 21.4036 14.2526 21.5366 14.2253 21.6641L17.8183 24.7811C17.851 24.7621 17.8855 24.7463 17.9213 24.7341L17.7373 22.0901C17.6233 22.0526 17.5241 21.98 17.454 21.8826C17.3839 21.7852 17.3466 21.6681 17.3473 21.5481C17.3473 21.4481 17.3723 21.3551 17.4173 21.2751L13.9743 16.9951C13.95 17.0057 13.9249 17.0144 13.8993 17.0211V21.0271ZM21.0393 21.5471C21.0395 21.5178 21.034 21.4887 21.0231 21.4616C21.0121 21.4344 20.9959 21.4097 20.9754 21.3888C20.9548 21.3679 20.9304 21.3513 20.9034 21.3398C20.8765 21.3284 20.8475 21.3223 20.8183 21.3221C20.7888 21.3223 20.7598 21.3284 20.7327 21.3399C20.7056 21.3514 20.6811 21.3681 20.6604 21.3891C20.6398 21.4101 20.6236 21.4349 20.6125 21.4622C20.6015 21.4895 20.596 21.5187 20.5963 21.5481C20.5963 21.6731 20.6963 21.7741 20.8183 21.7741C20.9403 21.7741 21.0403 21.6731 21.0403 21.5481L21.0393 21.5471ZM5.32926 18.5261C5.41926 18.5111 5.47626 18.4071 5.45726 18.2951C5.43726 18.1821 5.35026 18.1031 5.26126 18.1191C5.17126 18.1341 5.11526 18.2391 5.13426 18.3511C5.15226 18.4641 5.24026 18.5431 5.32926 18.5261ZM25.3013 12.8121C25.2293 12.8351 25.1913 12.9291 25.2183 13.0201C25.2453 13.1111 25.3263 13.1661 25.3983 13.1431C25.4723 13.1201 25.5083 13.0261 25.4823 12.9351C25.4563 12.8431 25.3743 12.7891 25.3023 12.8121H25.3013Z" fill="white"/>
</g>
<defs>
<clipPath id="clip0_1_6654">
<rect width="32" height="32" fill="white" transform="translate(0.000976562 0.0195312)"/>
</clipPath>
</defs>
</svg>
