<svg width="32" height="33" viewBox="0 0 32 33" fill="none" xmlns="http://www.w3.org/2000/svg">
<g clip-path="url(#clip0_1_6650)">
<path d="M16 32.0205C24.8366 32.0205 32 24.8571 32 16.0205C32 7.18395 24.8366 0.0205078 16 0.0205078C7.16344 0.0205078 0 7.18395 0 16.0205C0 24.8571 7.16344 32.0205 16 32.0205Z" fill="#622FBA"/>
<path fill-rule="evenodd" clip-rule="evenodd" d="M18.586 17.3965C18.499 17.4235 18.415 17.4565 18.333 17.4945L14.657 13.6735C14.8025 13.4213 14.8885 13.1392 14.9082 12.8487C14.928 12.5582 14.8811 12.267 14.7711 11.9974C14.6611 11.7278 14.4909 11.4869 14.2736 11.2932C14.0562 11.0994 13.7974 10.9579 13.517 10.8795V8.20651L12.533 7.65651L14.806 6.34151C15.1689 6.13153 15.5807 6.02096 16 6.02096C16.4193 6.02096 16.8311 6.13153 17.194 6.34151L21.713 8.95751L19.927 9.99051C19.636 9.86142 19.3175 9.80705 19.0002 9.83235C18.6829 9.85764 18.3769 9.96179 18.1101 10.1353C17.8432 10.3089 17.624 10.5463 17.4722 10.8261C17.3204 11.1059 17.241 11.4192 17.241 11.7375C17.2411 12.1453 17.3717 12.5423 17.6137 12.8705C17.8558 13.1987 18.1965 13.4409 18.586 13.5615V17.3965ZM19.724 17.3965V13.5605C19.9972 13.4758 20.248 13.3307 20.4577 13.1361C20.6673 12.9415 20.8306 12.7022 20.9354 12.4361C21.0403 12.1699 21.084 11.8835 21.0633 11.5982C21.0426 11.3129 20.9581 11.0358 20.816 10.7875L22.846 9.61351L23.816 10.1735C24.1762 10.3819 24.4752 10.6814 24.683 11.042C24.8908 11.4025 25.0002 11.8114 25 12.2275V19.8135C25 20.6595 24.549 21.4415 23.815 21.8665L19.725 24.2345V21.0425C20.1134 20.921 20.4529 20.6785 20.6938 20.3505C20.9348 20.0225 21.0647 19.6261 21.0646 19.2191C21.0645 18.8121 20.9344 18.4158 20.6932 18.088C20.4521 17.7601 20.1125 17.5178 19.724 17.3965ZM17.497 18.2655C17.3541 18.5138 17.2689 18.791 17.2476 19.0766C17.2263 19.3623 17.2696 19.649 17.3742 19.9157C17.4787 20.1824 17.6419 20.4221 17.8517 20.6172C18.0615 20.8122 18.3124 20.9576 18.586 21.0425V24.8935L17.194 25.6995C16.8311 25.9095 16.4193 26.0201 16 26.0201C15.5807 26.0201 15.1689 25.9095 14.806 25.6995L9.94 22.8835L11.768 21.4555C12.1128 21.7449 12.5488 21.9032 12.999 21.9025C13.2501 21.9029 13.4989 21.8538 13.731 21.758C13.9631 21.6622 14.1741 21.5216 14.3519 21.3442C14.5296 21.1668 14.6707 20.9561 14.767 20.7242C14.8632 20.4923 14.9129 20.2436 14.913 19.9925C14.9126 19.5757 14.7759 19.1704 14.5236 18.8386C14.2714 18.5067 13.9175 18.2665 13.516 18.1545V14.5565C13.621 14.5275 13.723 14.4895 13.82 14.4435L17.497 18.2655ZM12.379 18.1865C11.9196 18.3434 11.5372 18.6693 11.3095 19.098C11.0817 19.5267 11.0258 20.026 11.153 20.4945L8.882 22.2705L8.185 21.8675C7.82463 21.6592 7.52541 21.3598 7.31741 20.9992C7.1094 20.6387 6.99994 20.2297 7 19.8135V12.2275C7 11.3815 7.451 10.5995 8.185 10.1745L11.39 8.31851L12.38 8.87151V10.9115C12.0036 11.0406 11.6769 11.2841 11.4456 11.6079C11.2142 11.9317 11.0898 12.3197 11.0897 12.7177C11.0896 13.1156 11.2138 13.5037 11.4449 13.8276C11.6761 14.1515 12.0026 14.3952 12.379 14.5245V18.1865ZM13 13.5435C12.889 13.5475 12.7784 13.5291 12.6747 13.4894C12.571 13.4498 12.4764 13.3896 12.3965 13.3126C12.3165 13.2356 12.2529 13.1432 12.2094 13.0411C12.1659 12.9389 12.1434 12.8291 12.1433 12.718C12.1431 12.607 12.1654 12.4971 12.2086 12.3949C12.2519 12.2926 12.3153 12.2001 12.395 12.1229C12.4748 12.0457 12.5693 11.9853 12.6729 11.9454C12.7765 11.9054 12.887 11.8868 12.998 11.8905C13.2122 11.8977 13.4153 11.9878 13.5644 12.1418C13.7135 12.2958 13.797 12.5017 13.7973 12.716C13.7975 12.9304 13.7145 13.1365 13.5658 13.2909C13.4171 13.4452 13.2142 13.5358 13 13.5435ZM13 20.8185C12.889 20.8225 12.7784 20.8041 12.6747 20.7644C12.571 20.7248 12.4764 20.6646 12.3965 20.5876C12.3165 20.5106 12.2529 20.4182 12.2094 20.3161C12.1659 20.2139 12.1434 20.1041 12.1433 19.993C12.1431 19.882 12.1654 19.7721 12.2086 19.6699C12.2519 19.5676 12.3153 19.4751 12.395 19.3979C12.4748 19.3207 12.5693 19.2603 12.6729 19.2204C12.7765 19.1804 12.887 19.1618 12.998 19.1655C13.2122 19.1727 13.4153 19.2628 13.5644 19.4168C13.7135 19.5708 13.797 19.7767 13.7973 19.991C13.7975 20.2054 13.7145 20.4115 13.5658 20.5659C13.4171 20.7202 13.2142 20.8108 13 20.8185ZM19.155 12.5635C19.0441 12.5675 18.9334 12.5491 18.8297 12.5094C18.726 12.4698 18.6314 12.4096 18.5515 12.3326C18.4715 12.2556 18.4079 12.1632 18.3644 12.0611C18.3209 11.9589 18.2984 11.8491 18.2983 11.738C18.2981 11.627 18.3204 11.5171 18.3636 11.4149C18.4069 11.3126 18.4703 11.2201 18.55 11.1429C18.6298 11.0657 18.7243 11.0053 18.8279 10.9654C18.9315 10.9254 19.042 10.9068 19.153 10.9105C19.3672 10.9177 19.5703 11.0078 19.7194 11.1618C19.8685 11.3158 19.952 11.5217 19.9523 11.736C19.9525 11.9504 19.8695 12.1565 19.7208 12.3109C19.5721 12.4652 19.3692 12.5558 19.155 12.5635ZM19.155 20.0455C18.9357 20.0458 18.7252 19.9589 18.5699 19.804C18.4146 19.6491 18.3273 19.4388 18.327 19.2195C18.3267 19.0002 18.4136 18.7897 18.5685 18.6344C18.7234 18.4792 18.9337 18.3918 19.153 18.3915C19.3723 18.3912 19.5828 18.4781 19.7381 18.633C19.8933 18.7879 19.9807 18.9982 19.981 19.2175C19.9813 19.4368 19.8944 19.6473 19.7395 19.8026C19.5846 19.9579 19.3743 20.0452 19.155 20.0455Z" fill="white"/>
</g>
<defs>
<clipPath id="clip0_1_6650">
<rect width="32" height="32" fill="white" transform="translate(0 0.0205078)"/>
</clipPath>
</defs>
</svg>
