<svg width="32" height="33" viewBox="0 0 32 33" fill="none" xmlns="http://www.w3.org/2000/svg">
<g clip-path="url(#clip0_1_6646)">
<path d="M16 32.0205C24.8366 32.0205 32 24.8571 32 16.0205C32 7.18395 24.8366 0.0205078 16 0.0205078C7.16344 0.0205078 0 7.18395 0 16.0205C0 24.8571 7.16344 32.0205 16 32.0205Z" fill="#50479E"/>
<path d="M20.86 13.681V18.465L16.553 20.832V16.05L20.859 13.683L20.86 13.681ZM26 12.455V19.586C26 20.093 25.86 20.589 25.597 21.02C25.337 21.45 24.96 21.815 24.493 22.072L21.281 23.837V19.131L21.687 18.908V13.229L25.621 11.066C25.865 11.486 26 11.961 26 12.456V12.455ZM8.507 22.072C8.06913 21.8329 7.69922 21.4864 7.432 21.065C7.15085 20.6233 7.00103 20.1107 7 19.587V15.021L11.424 18.476V18.668L11.431 18.866L11.775 19.069L16.191 21.497L16.555 21.697V26.021C16.01 26.0319 15.4715 25.9002 14.993 25.639L8.507 22.071V22.072ZM8.323 10.081L13 7.52103L16.18 10.601L11.424 13.224V13.624L7.01 16.048L7 12.454C7 11.947 7.14 11.449 7.405 11.018C7.637 10.638 7.951 10.318 8.323 10.08V10.081ZM24.493 9.97003C24.9614 10.2259 25.3514 10.6044 25.621 11.065L21.687 13.228V13.192L21.281 12.969L16.947 10.587L21.281 8.20403L24.493 9.97003ZM7.01 16.05L11.424 13.623V18.476L7.01 16.049V16.05ZM16.555 10.401V6.02103C17.0629 6.02874 17.5613 6.16021 18.007 6.40403L21.281 8.20403L16.947 10.586L16.555 10.401ZM16.191 10.601L11.783 8.17903L15.185 6.30803C15.6143 6.1105 16.0826 6.0124 16.555 6.02103V10.401L16.191 10.601ZM16.583 21.712L16.947 21.512L21.229 23.866L18.007 25.638C17.5612 25.8814 17.0628 26.0125 16.555 26.02V21.697L16.583 21.712ZM21.281 19.13V23.837L21.229 23.866L16.947 21.512L21.281 19.13Z" fill="white"/>
</g>
<defs>
<clipPath id="clip0_1_6646">
<rect width="32" height="32" fill="white" transform="translate(0 0.0205078)"/>
</clipPath>
</defs>
</svg>
