<svg width="32" height="33" viewBox="0 0 32 33" fill="none" xmlns="http://www.w3.org/2000/svg">
<g clip-path="url(#clip0_1_6642)">
<path d="M16 32.0205C24.8366 32.0205 32 24.8571 32 16.0205C32 7.18395 24.8366 0.0205078 16 0.0205078C7.16344 0.0205078 0 7.18395 0 16.0205C0 24.8571 7.16344 32.0205 16 32.0205Z" fill="#58BF00"/>
<path d="M25 22.6005L18.01 19.3425V12.1225L25 9.64351V22.6005ZM14.823 26.0205L8 22.8415V9.97851L14.823 13.1585V26.0205ZM24.833 9.17751L24.72 9.21751L18.01 11.5985L17.842 11.6585L14.999 12.6665L8.269 9.53051L17.842 6.13451L17.926 6.10451L18.103 6.04151L18.165 6.02051L24.895 9.15651L24.832 9.17751H24.833Z" fill="white"/>
</g>
<defs>
<clipPath id="clip0_1_6642">
<rect width="32" height="32" fill="white" transform="translate(0 0.0205078)"/>
</clipPath>
</defs>
</svg>
