<svg width="32" height="33" viewBox="0 0 32 33" fill="none" xmlns="http://www.w3.org/2000/svg">
<g clip-path="url(#clip0_1_6632)">
<path d="M16 32.0205C24.8366 32.0205 32 24.8571 32 16.0205C32 7.18395 24.8366 0.0205078 16 0.0205078C7.16344 0.0205078 0 7.18395 0 16.0205C0 24.8571 7.16344 32.0205 16 32.0205Z" fill="#B3BA00"/>
<path d="M13.13 10.6845L13 10.7635L19 20.0205V10.7555L16.004 9.02051L13.13 10.6845ZM13 21.1855L16.136 23.0205L19 21.3485L13 12.0205V21.1855ZM10 12.3765V19.6645L12 21.0205V11.0205L10 12.3765ZM20 21.0205L22 19.6335V12.4075L20 11.0205V21.0205Z" fill="white"/>
<path d="M16 4.02051C9.375 4.02051 4 9.39551 4 16.0205C4 22.6455 9.375 28.0205 16 28.0205C22.625 28.0205 28 22.6455 28 16.0205C28 9.39551 22.625 4.02051 16 4.02051ZM15.95 23.6405L9.474 19.8005V12.1325L15.951 8.30251L22.427 12.1325V19.8015L15.951 23.6395L15.95 23.6405Z" fill="white"/>
</g>
<defs>
<clipPath id="clip0_1_6632">
<rect width="32" height="32" fill="white" transform="translate(0 0.0205078)"/>
</clipPath>
</defs>
</svg>
