<svg width="32" height="33" viewBox="0 0 32 33" fill="none" xmlns="http://www.w3.org/2000/svg">
<g clip-path="url(#clip0_1_6622)">
<path d="M16 32.0205C24.8366 32.0205 32 24.8571 32 16.0205C32 7.18395 24.8366 0.0205078 16 0.0205078C7.16344 0.0205078 0 7.18395 0 16.0205C0 24.8571 7.16344 32.0205 16 32.0205Z" fill="#1A4199"/>
<path opacity="0.7" d="M10.676 7.07678L21.408 13.2678V19.5868L5 10.1108L10.265 7.07678C10.3288 7.03991 10.4013 7.02051 10.475 7.02051C10.5487 7.02051 10.6212 7.03991 10.685 7.07678" fill="white"/>
<path opacity="0.9" d="M21.467 7.02051L16 10.1805L21.467 13.3365V7.02051Z" fill="white"/>
<path d="M21 7.02051L26.264 10.0565C26.3302 10.0924 26.3855 10.1453 26.4242 10.2099C26.4629 10.2745 26.4836 10.3482 26.484 10.4235V22.8125L21 19.6555V7.02051Z" fill="white"/>
<path opacity="0.9" d="M26.416 22.5055L21.152 25.5385C21.0875 25.5735 21.0154 25.5919 20.942 25.5919C20.8686 25.5919 20.7965 25.5735 20.732 25.5385L10 19.3485V13.0205L26.416 22.5055Z" fill="white"/>
<path opacity="0.6" d="M5 10.0205V22.4075C5.00024 22.483 5.02079 22.5569 5.05951 22.6217C5.09822 22.6865 5.15366 22.7396 5.22 22.7755L10.485 25.8115V13.1675L5 10.0205Z" fill="white"/>
<path opacity="0.7" d="M10 26.3355L15.465 23.1775L10 20.0205V26.3355Z" fill="white"/>
</g>
<defs>
<clipPath id="clip0_1_6622">
<rect width="32" height="32" fill="white" transform="translate(0 0.0205078)"/>
</clipPath>
</defs>
</svg>
