<svg width="32" height="33" viewBox="0 0 32 33" fill="none" xmlns="http://www.w3.org/2000/svg">
<g clip-path="url(#clip0_1_6618)">
<path d="M16.0005 32.0205C24.837 32.0205 32.0005 24.8571 32.0005 16.0205C32.0005 7.18395 24.837 0.0205078 16.0005 0.0205078C7.16393 0.0205078 0.000488281 7.18395 0.000488281 16.0205C0.000488281 24.8571 7.16393 32.0205 16.0005 32.0205Z" fill="#F80000"/>
<path d="M21.0005 16.8625L14.3045 26.0205L14.5515 18.5795H13.0005L13.6345 12.0475L20.7185 11.0715L18.3925 16.9965L21.0005 16.8625ZM15.5025 23.3605V21.6105C15.5025 21.4805 15.3925 21.3745 15.2565 21.3745C15.1205 21.3745 15.0095 21.4795 15.0095 21.6095V23.3605C15.0095 23.4905 15.1195 23.5965 15.2565 23.5965C15.3935 23.5965 15.5025 23.4905 15.5025 23.3605ZM13.6705 18.0745H15.0805L15.0155 20.7675C15.0145 20.8385 15.0425 20.9075 15.0945 20.9575C15.1465 21.0075 15.2175 21.0375 15.2915 21.0375H15.3035C15.3739 21.0389 15.4421 21.0127 15.4935 20.9645C15.5449 20.9163 15.5754 20.8499 15.5785 20.7795L15.6435 17.6025H14.2335L14.7065 12.3835C14.7115 12.3235 14.6905 12.2635 14.6475 12.2185C14.6045 12.1735 14.5445 12.1485 14.4805 12.1485H14.4405C14.3851 12.1474 14.3312 12.1669 14.2894 12.2034C14.2477 12.2398 14.2209 12.2905 14.2145 12.3455L13.6705 18.0745ZM13.6705 11.4745L16.2785 9.32051C16.4185 7.16551 15.0085 6.82851 15.0085 6.82851L15.2205 6.02051C17.5465 6.69351 17.1945 9.25251 17.1945 9.25251L20.5775 10.6665L13.6705 11.4745Z" fill="white"/>
</g>
<defs>
<clipPath id="clip0_1_6618">
<rect width="32" height="32" fill="white" transform="translate(0.000488281 0.0205078)"/>
</clipPath>
</defs>
</svg>
