<svg width="32" height="33" viewBox="0 0 32 33" fill="none" xmlns="http://www.w3.org/2000/svg">
<g clip-path="url(#clip0_1_6610)">
<path d="M16.0005 32.0205C24.837 32.0205 32.0005 24.8571 32.0005 16.0205C32.0005 7.18395 24.837 0.0205078 16.0005 0.0205078C7.16393 0.0205078 0.000488281 7.18395 0.000488281 16.0205C0.000488281 24.8571 7.16393 32.0205 16.0005 32.0205Z" fill="#F28F01"/>
<path fill-rule="evenodd" clip-rule="evenodd" d="M18.1515 14.2395L16.2105 10.4235C16.6145 9.54351 16.8165 9.04351 16.8165 8.92851C16.8165 8.51551 16.5445 8.21351 16.0015 8.02051H21.9495C21.2165 8.35051 20.5645 9.17551 19.9945 10.4965L18.1515 14.2395ZM15.2355 20.1675L14.3305 22.0075H19.6675C22.0845 22.0075 23.7005 21.5545 24.5155 20.6475L21.6635 25.0205H7.07849C8.65349 24.7175 10.2425 22.8205 11.8445 19.3265C12.3845 18.2525 12.8795 17.2605 13.3315 16.3525L15.2355 20.1675ZM5.00049 20.7705C6.18149 20.0695 10.5005 12.5985 10.5005 10.4965C10.5005 10.0015 10.2015 9.53351 9.60449 9.09351H14.2485L18.2815 17.0155L22.1935 9.09351H27.0005C24.9635 9.62951 20.9305 19.2395 20.9305 20.3575C20.9305 20.5775 20.9705 20.7155 21.0525 20.7705H16.8155L13.1895 13.5085L9.60449 20.7705H5.00049Z" fill="white"/>
</g>
<defs>
<clipPath id="clip0_1_6610">
<rect width="32" height="32" fill="white" transform="translate(0.000488281 0.0205078)"/>
</clipPath>
</defs>
</svg>
