<svg width="32" height="33" viewBox="0 0 32 33" fill="none" xmlns="http://www.w3.org/2000/svg">
<g clip-path="url(#clip0_1_6606)">
<path d="M16.0005 32.0205C24.837 32.0205 32.0005 24.8571 32.0005 16.0205C32.0005 7.18395 24.837 0.0205078 16.0005 0.0205078C7.16393 0.0205078 0.000488281 7.18395 0.000488281 16.0205C0.000488281 24.8571 7.16393 32.0205 16.0005 32.0205Z" fill="#2AB0FD"/>
<path fill-rule="evenodd" clip-rule="evenodd" d="M25.5153 14.8258C25.6803 14.8238 25.7853 14.8458 25.8513 14.9058C25.9213 14.9698 25.9493 15.0738 25.9643 15.2368C26.4303 20.6158 22.3623 25.4778 16.9663 25.9768C11.4023 26.4918 6.57231 22.4768 6.04431 16.8968C5.53031 11.4778 9.59931 6.56182 15.0303 6.06782C18.1063 5.78782 20.7623 6.75382 22.9983 8.88382C23.0213 8.90582 23.0163 8.99782 22.9903 9.02382C22.4882 9.53536 21.9815 10.0424 21.4703 10.5448C21.4413 10.5728 21.3373 10.5688 21.3053 10.5398C18.9983 8.42582 16.3253 7.79982 13.4023 8.86482C10.4463 9.94182 8.75531 12.1718 8.42031 15.3118C7.97031 19.5608 11.1773 23.3058 15.4553 23.6288C19.3333 23.9208 22.8473 21.1758 23.4903 17.3438C23.4963 17.3058 23.4103 17.2108 23.3663 17.2108C20.9713 17.2038 18.5763 17.2058 16.1823 17.1968C16.1203 17.1968 16.0053 17.0818 16.0033 17.0188C15.9907 16.3495 15.9907 15.6801 16.0033 15.0108C16.0043 14.9508 16.1113 14.8428 16.1703 14.8418C17.7663 14.8328 23.9963 14.8468 25.5143 14.8248L25.5153 14.8258Z" fill="white"/>
</g>
<defs>
<clipPath id="clip0_1_6606">
<rect width="32" height="32" fill="white" transform="translate(0.000488281 0.0205078)"/>
</clipPath>
</defs>
</svg>
