<svg width="32" height="33" viewBox="0 0 32 33" fill="none" xmlns="http://www.w3.org/2000/svg">
<g clip-path="url(#clip0_1_6602)">
<path d="M16.0005 32.0205C24.837 32.0205 32.0005 24.8571 32.0005 16.0205C32.0005 7.18395 24.837 0.0205078 16.0005 0.0205078C7.16393 0.0205078 0.000488281 7.18395 0.000488281 16.0205C0.000488281 24.8571 7.16393 32.0205 16.0005 32.0205Z" fill="#186C9D"/>
<path d="M19.2615 24.0205L19.2625 24.0185C19.4167 24.0215 19.5706 24.0047 19.7205 23.9685C20.5965 23.7635 21.3375 22.9985 21.5135 22.1725L25.0005 9.07651L22.2285 9.06251L19.9425 17.6305L13.7625 9.03351L13.7585 9.03751L13.7615 9.02751L12.7405 9.02051V9.02151C12.5861 9.01913 12.4319 9.03558 12.2815 9.07051C11.4065 9.27651 10.6655 10.0415 10.4885 10.8665L7.00049 23.9655L9.77349 23.9775L12.0585 15.4095L18.2385 24.0075H18.2415L19.2615 24.0205ZM12.6685 13.1265L13.1515 11.3165L19.3325 19.9155L18.8495 21.7255L12.6695 13.1255L12.6685 13.1265Z" fill="white"/>
</g>
<defs>
<clipPath id="clip0_1_6602">
<rect width="32" height="32" fill="white" transform="translate(0.000488281 0.0205078)"/>
</clipPath>
</defs>
</svg>
