<svg width="32" height="33" viewBox="0 0 32 33" fill="none" xmlns="http://www.w3.org/2000/svg">
<g clip-path="url(#clip0_1_6598)">
<path d="M16.0005 32.0205C24.837 32.0205 32.0005 24.8571 32.0005 16.0205C32.0005 7.18395 24.837 0.0205078 16.0005 0.0205078C7.16393 0.0205078 0.000488281 7.18395 0.000488281 16.0205C0.000488281 24.8571 7.16393 32.0205 16.0005 32.0205Z" fill="#050708"/>
<path d="M16.3545 5.03462C16.4639 5.01338 16.5767 5.01614 16.6849 5.04273C16.7932 5.06932 16.8944 5.1191 16.9815 5.18862L25.6835 11.6536C25.8835 11.8036 26.0085 12.0536 25.9985 12.3076V19.7316C26.0022 19.8651 25.9725 19.9974 25.912 20.1165C25.8516 20.2356 25.7624 20.3377 25.6525 20.4136L16.9815 26.8556C16.8388 26.9669 16.6619 27.0252 16.481 27.0206C16.3002 27.0161 16.1264 26.9489 15.9895 26.8306C13.1095 24.6906 10.2305 22.5506 7.35052 20.4126C7.24169 20.3359 7.15302 20.234 7.09208 20.1156C7.03113 19.9972 6.99972 19.8658 7.00052 19.7326V12.3126C6.99938 12.1797 7.03034 12.0485 7.09075 11.9301C7.15116 11.8117 7.23924 11.7097 7.34752 11.6326L15.9885 5.21262C16.0953 5.12615 16.2205 5.06526 16.3545 5.03462ZM16.2505 25.0486C16.2455 25.1646 16.2435 25.2816 16.2425 25.3976L16.2445 26.0946C16.3945 26.0966 16.5445 26.0976 16.6945 26.0946V25.0706C16.5469 25.0567 16.3988 25.0494 16.2505 25.0486ZM14.5405 24.1306L14.2885 24.1316C14.4685 24.4466 14.6395 24.7666 14.8235 25.0786C14.9735 25.0786 15.1235 25.0786 15.2755 25.0686C15.1555 24.7366 14.9485 24.4476 14.7935 24.1326C14.6252 24.1301 14.4568 24.1301 14.2885 24.1326L14.5405 24.1306ZM17.2675 24.6106C17.2647 24.7633 17.2657 24.916 17.2705 25.0686H17.6905C17.7095 24.9196 17.7105 24.7706 17.7075 24.6206C17.561 24.6118 17.4143 24.6084 17.2675 24.6106ZM16.7925 22.1536C16.1625 22.1576 15.5315 22.1496 14.9005 22.1586C14.8985 22.3019 14.8985 22.4453 14.9005 22.5886C15.4585 22.6016 16.0175 22.5916 16.5765 22.5946V23.6236C16.4605 23.6246 16.3465 23.6206 16.2325 23.6326C16.1995 23.7686 16.2165 23.9096 16.2145 24.0486C16.4165 24.0546 16.6185 24.0536 16.8205 24.0496C16.8815 23.9806 16.9445 23.9136 17.0075 23.8456C17.0075 23.3556 17.0065 22.8656 17.0085 22.3756C16.9367 22.3014 16.8647 22.2274 16.7925 22.1536ZM20.1365 22.7296C19.9935 22.6596 19.8415 22.4216 19.6745 22.5646C19.1775 22.8956 18.6655 23.2046 18.1745 23.5446C18.1765 23.6866 18.1775 23.8286 18.1875 23.9696C18.6475 23.9736 19.1065 23.9756 19.5655 23.9686C19.5675 23.8186 19.5675 23.6686 19.5665 23.5186C19.4539 23.516 19.3412 23.5147 19.2285 23.5146L19.0165 23.5166C19.3815 23.2586 19.7635 23.0276 20.1365 22.7826V22.7296ZM13.5945 22.9776L12.6995 22.9806C12.6965 23.1306 12.6965 23.2806 12.6995 23.4326C13.2955 23.4356 13.8925 23.4386 14.4895 23.4306V22.9816C13.8925 22.9746 13.2955 22.9776 12.6995 22.9806L13.5945 22.9776ZM12.0915 22.3206L11.8705 22.3216C11.8685 22.4716 11.8675 22.6226 11.8705 22.7736C12.0175 22.7756 12.1655 22.7756 12.3135 22.7736C12.3155 22.6236 12.3155 22.4736 12.3135 22.3236C12.1659 22.3204 12.0182 22.3197 11.8705 22.3216L12.0915 22.3206ZM20.6845 20.7066C20.6785 20.9526 20.6805 21.1986 20.6815 21.4446C20.9215 21.8146 21.1565 22.1876 21.3995 22.5556C21.6015 22.2456 21.7995 21.9296 22.0045 21.6206C22.0425 21.5526 22.1035 21.4866 22.0985 21.4026C22.1035 21.1776 22.1005 20.9526 22.0945 20.7276C21.9085 21.0306 21.7095 21.3246 21.5245 21.6276C21.4825 21.6856 21.4515 21.7596 21.3845 21.7896C21.1425 21.4336 20.9195 21.0656 20.6845 20.7066ZM19.2495 20.1536C18.9685 20.1546 18.6875 20.1516 18.4055 20.1566C18.2412 20.7709 18.0699 21.3833 17.8915 21.9936L18.3255 21.9966L18.7135 20.5756L18.9495 20.5876C19.0755 21.0566 19.2095 21.5226 19.3325 21.9926C19.4765 21.9956 19.6225 21.9956 19.7665 21.9956L19.2495 20.1536ZM10.4975 21.1836L10.1045 21.1916V21.6356C10.4955 21.6426 10.8875 21.6526 11.2785 21.6326C11.2975 21.4856 11.2885 21.3366 11.2855 21.1876C10.8915 21.1856 10.4975 21.1786 10.1045 21.1916L10.4975 21.1836ZM13.6475 20.1356C13.1045 20.4726 12.5705 20.8246 12.0355 21.1746C12.0335 21.3186 12.0335 21.4626 12.0375 21.6066C12.8805 21.6156 13.7235 21.6116 14.5665 21.6086C14.5705 21.4566 14.5705 21.3046 14.5675 21.1526C13.9975 21.1446 13.4295 21.1566 12.8605 21.1456C13.2535 20.9066 13.6335 20.6486 14.0225 20.4026C13.8985 20.3116 13.7725 20.2246 13.6475 20.1356ZM15.5475 19.8016L15.3235 19.8026C15.3175 20.3646 15.3235 20.9276 15.3205 21.4896L15.4555 21.5146C15.5615 21.5046 15.6675 21.4996 15.7735 21.4946C15.7705 20.9306 15.7745 20.3666 15.7705 19.8026C15.6215 19.801 15.4725 19.801 15.3235 19.8026L15.5475 19.8016ZM16.9255 20.2176C16.7705 20.2386 16.6135 20.2476 16.4565 20.2476C16.6335 20.5576 16.8085 20.8706 16.9815 21.1846L17.4215 21.1816C17.3265 20.8316 17.1095 20.5256 16.9255 20.2176ZM22.8845 20.4306L22.6545 20.4346C22.6515 20.5826 22.6515 20.7306 22.6545 20.8786C22.8075 20.8856 22.9615 20.8856 23.1145 20.8816V20.4326C22.9612 20.4292 22.8078 20.4298 22.6545 20.4346L22.8845 20.4306ZM12.0965 18.6386C11.8515 19.0006 11.6295 19.3786 11.3825 19.7376C11.1515 19.3736 10.9175 19.0106 10.6835 18.6476C10.678 18.8966 10.677 19.1456 10.6805 19.3946C10.9235 19.7486 11.1485 20.1146 11.3805 20.4746C11.6315 20.1156 11.8555 19.7376 12.1005 19.3736C12.0985 19.1286 12.1015 18.8836 12.0965 18.6386ZM13.2465 19.1136C13.2365 19.2686 13.2375 19.4236 13.2435 19.5786C13.3915 19.5806 13.5395 19.5796 13.6865 19.5786C13.6899 19.4273 13.6899 19.2759 13.6865 19.1246C13.5401 19.1141 13.3933 19.1105 13.2465 19.1136ZM19.3625 17.8896L19.1385 18.0996C19.1385 18.2996 19.1375 18.4986 19.1415 18.6976C19.2845 18.6976 19.4285 18.6976 19.5715 18.6956C19.5745 18.5726 19.5755 18.4496 19.5745 18.3256L20.5785 18.3266C20.5735 18.7316 20.5765 19.1356 20.5775 19.5396C20.7225 19.5436 20.8675 19.5446 21.0135 19.5436V18.1006L20.7965 17.8906C20.3185 17.8896 19.8405 17.8926 19.3625 17.8886V17.8896ZM8.16552 17.6026H7.88352L7.67152 17.8136L7.66952 18.7946L7.67552 19.2846C7.71252 19.3736 7.79552 19.4506 7.87752 19.4986C8.36752 19.5126 8.85852 19.4986 9.34952 19.5046H9.55452L9.76052 19.5036C9.76152 19.3616 9.76152 19.2196 9.75852 19.0776C9.20652 19.0716 8.65352 19.0766 8.10052 19.0746C8.09652 18.7306 8.10052 18.3876 8.09752 18.0436L8.44752 18.0386C8.44881 17.8943 8.44847 17.7499 8.44652 17.6056C8.25887 17.6025 8.07119 17.6018 7.88352 17.6036L8.16552 17.6026ZM17.8195 17.9826C17.2875 18.3426 16.7395 18.6756 16.2065 19.0356C16.2085 19.1816 16.2085 19.3266 16.2295 19.4706C17.0695 19.4706 17.9105 19.4746 18.7505 19.4696C18.7546 19.3123 18.7546 19.1549 18.7505 18.9976C18.1905 18.9906 17.6285 19.0016 17.0665 18.9916C17.4415 18.7386 17.8325 18.5096 18.2005 18.2466C18.0715 18.1606 17.9465 18.0706 17.8205 17.9816L17.8195 17.9826ZM23.8085 17.9126C23.2735 18.2556 22.7385 18.5976 22.2085 18.9486C22.2065 19.0946 22.2065 19.2416 22.2085 19.3886C23.0485 19.3916 23.8875 19.3916 24.7265 19.3886C24.7285 19.2366 24.7285 19.0826 24.7265 18.9306C24.1615 18.9266 23.5965 18.9336 23.0325 18.9276L24.1855 18.1806C24.0615 18.0906 23.9355 17.9986 23.8085 17.9126ZM13.8585 15.9296L13.6365 15.9306C13.6335 16.7856 13.6335 17.6396 13.6365 18.4936C13.7865 18.4976 13.9365 18.4976 14.0855 18.4966C14.1035 17.9266 14.0585 17.3546 14.1135 16.7886C14.4175 17.3096 14.7505 17.8146 15.0685 18.3286L15.2215 18.3256C15.1975 18.0926 15.2885 17.8246 15.1355 17.6246C14.7825 17.0606 14.4255 16.4996 14.0785 15.9316C13.9312 15.9289 13.7838 15.9289 13.6365 15.9316L13.8585 15.9296ZM22.0415 16.8536C21.8955 16.8306 21.7465 16.8406 21.5985 16.8436C21.5936 17.3723 21.5936 17.901 21.5985 18.4296C21.7475 18.4326 21.8965 18.4336 22.0455 18.4296C22.0475 17.9046 22.0555 17.3786 22.0415 16.8536ZM12.1315 17.4486C11.6165 17.4646 11.0975 17.4196 10.5835 17.4766C10.5825 17.6256 10.5825 17.7736 10.5855 17.9226C11.2345 17.9276 11.8815 17.9226 12.5315 17.9246V17.4666C12.3987 17.4528 12.2651 17.4468 12.1315 17.4486ZM25.0595 15.4266C24.5729 15.4175 24.0862 15.4168 23.5995 15.4246L23.4025 15.6286C23.4025 15.8226 23.4025 16.0186 23.4045 16.2126C23.5475 16.2136 23.6905 16.2126 23.8335 16.2106L23.8365 15.8556C24.1765 15.8586 24.5165 15.8516 24.8565 15.8606L24.8555 17.7686L25.2705 17.7696C25.2635 17.6316 25.3005 17.4956 25.2925 17.3576C25.2975 17.1876 25.2895 17.0186 25.2945 16.8496C25.2915 16.4976 25.2945 16.1446 25.2945 15.7926C25.3205 15.6286 25.1825 15.5026 25.0595 15.4266ZM17.7375 17.1526L17.5205 17.1536V17.6086C17.6655 17.6106 17.8095 17.6106 17.9535 17.6086C17.9555 17.4566 17.9555 17.3046 17.9535 17.1546C17.8092 17.1532 17.6649 17.1529 17.5205 17.1536L17.7375 17.1526ZM15.8275 16.2566L15.6025 16.2596C15.5985 16.6316 15.5995 17.0046 15.6015 17.3766C15.7515 17.3806 15.9015 17.3806 16.0525 17.3786C16.0535 17.0046 16.0545 16.6316 16.0525 16.2586C15.9025 16.2556 15.7525 16.2556 15.6025 16.2586L15.8275 16.2566ZM20.4395 16.7746L19.7535 16.7786C19.7485 16.9286 19.7485 17.0786 19.7515 17.2286C20.1385 17.2736 20.5295 17.2386 20.9185 17.2506C20.9965 17.2426 21.0995 17.2776 21.1435 17.1886C21.1537 17.0511 21.148 16.9128 21.1265 16.7766C20.6685 16.7766 20.2115 16.7726 19.7535 16.7786L20.4395 16.7746ZM18.5435 16.7576L18.3225 16.7586C18.3205 16.9106 18.3205 17.0626 18.3225 17.2136C18.4695 17.2146 18.6165 17.2156 18.7645 17.2146C18.7673 17.0626 18.7673 16.9106 18.7645 16.7586C18.6172 16.7572 18.4698 16.7572 18.3225 16.7586L18.5435 16.7576ZM10.1935 15.4426H9.74152L9.74052 16.8906H10.1945V15.4426H10.1935ZM11.8285 14.8676L11.4095 14.8696C11.2335 15.4826 11.0625 16.0976 10.8895 16.7116L11.3235 16.7136C11.4385 16.2406 11.5895 15.7776 11.6955 15.3036L11.9355 15.2856C12.0825 15.7576 12.1935 16.2396 12.3375 16.7136L12.7575 16.7126C12.5975 16.0956 12.4175 15.4846 12.2475 14.8706C11.9675 14.8666 11.6895 14.8686 11.4095 14.8706L11.8285 14.8676ZM17.2245 14.7316L17.1555 14.7336H15.4405C15.4391 14.8796 15.4391 15.0256 15.4405 15.1716C15.9975 15.1866 16.5575 15.1446 17.1125 15.1956V16.2046L16.7565 16.2086V16.6486C16.9465 16.6506 17.1355 16.6506 17.3245 16.6506L17.5445 16.4106V15.1286C17.5715 14.9196 17.3645 14.7006 17.1555 14.7336L17.2245 14.7316ZM8.32252 15.8466C8.31752 15.9936 8.31752 16.1406 8.31852 16.2876C8.46852 16.2906 8.61852 16.2896 8.76752 16.2876V15.8576C8.6194 15.8478 8.47094 15.8442 8.32252 15.8466ZM18.9625 14.0016H18.6775C18.5965 14.1086 18.4395 14.1886 18.4595 14.3446C18.4575 14.7576 18.4575 15.1706 18.4595 15.5846C18.4405 15.7386 18.5945 15.8196 18.6745 15.9256C19.3035 15.9236 19.9325 15.9276 20.5605 15.9236C20.5645 15.7776 20.5645 15.6306 20.5635 15.4836C20.0045 15.4776 19.4465 15.4836 18.8885 15.4796V14.4446L19.2485 14.4416C19.2511 14.296 19.2504 14.1503 19.2465 14.0046C19.0565 14.0006 18.8665 14.0026 18.6765 14.0016H18.9625ZM14.1295 14.7336H13.0365C13.0305 14.8876 13.0315 15.0416 13.0375 15.1956H14.1295C14.1325 15.0416 14.1325 14.8876 14.1295 14.7336ZM23.0225 14.2026L22.0465 14.2066C22.0445 14.3566 22.0455 14.5086 22.0465 14.6586C22.6965 14.6676 23.3465 14.6616 23.9965 14.6616C23.9985 14.5096 23.9985 14.3566 23.9975 14.2036C23.3475 14.2036 22.6975 14.1976 22.0475 14.2066L23.0225 14.2026ZM20.8075 14.2026L20.5765 14.2066C20.5745 14.3566 20.5745 14.5066 20.5765 14.6566C20.7305 14.6626 20.8845 14.6626 21.0385 14.6566C21.0405 14.5066 21.0415 14.3566 21.0385 14.2066C20.8846 14.2009 20.7305 14.2009 20.5765 14.2066L20.8075 14.2026ZM8.79152 13.2626L7.67152 13.2656C7.66852 13.4176 7.66852 13.5706 7.67152 13.7226C8.13952 13.7276 8.60852 13.7226 9.07752 13.7246C8.89752 13.8516 8.71052 13.9666 8.52552 14.0846C8.64952 14.1746 8.75952 14.2976 8.90452 14.3516C9.24752 14.1446 9.58152 13.9216 9.91452 13.6986L9.91352 13.2666C9.16552 13.2596 8.41752 13.2616 7.67052 13.2656L8.79152 13.2626ZM11.8895 12.8936C11.5305 13.1396 11.1575 13.3646 10.8075 13.6236C11.1545 13.8756 11.5195 14.0996 11.8715 14.3426C12.1155 14.3426 12.3595 14.3446 12.6035 14.3396C12.2415 14.1046 11.8835 13.8606 11.5195 13.6276C11.8735 13.3746 12.2495 13.1536 12.6015 12.8976C12.3635 12.8936 12.1275 12.8976 11.8895 12.8936ZM15.0335 13.7066H14.0635C14.0635 13.8566 14.0635 14.0076 14.0655 14.1596C14.7095 14.1596 15.3525 14.1606 15.9975 14.1586C16.0175 14.0086 16.0195 13.8586 16.0035 13.7086C15.3575 13.7026 14.7105 13.7086 14.0635 13.7056L15.0335 13.7066ZM16.6585 13.7066L16.4255 13.7086V14.1546C16.5805 14.1566 16.7355 14.1566 16.8915 14.1526V13.7106C16.7362 13.7056 16.5808 13.7049 16.4255 13.7086L16.6585 13.7066ZM17.7375 12.3676H17.5205V13.8176H17.9545C17.9545 13.3346 17.9575 12.8516 17.9545 12.3686C17.8099 12.3673 17.6652 12.3673 17.5205 12.3686L17.7375 12.3676ZM23.2465 13.2006L23.0215 13.2036C23.0185 13.3546 23.0195 13.5066 23.0215 13.6576C23.1715 13.6616 23.3215 13.6616 23.4695 13.6576C23.4739 13.506 23.4742 13.3543 23.4705 13.2026C23.3205 13.1996 23.1705 13.2006 23.0215 13.2026L23.2465 13.2006ZM21.7425 11.4236C21.4625 11.3776 21.1795 11.4216 20.8985 11.4236C20.7275 12.0356 20.5595 12.6476 20.3815 13.2556C20.5265 13.2566 20.6715 13.2576 20.8165 13.2566C20.9385 12.7826 21.0805 12.3146 21.1975 11.8396L21.4355 11.8366C21.5775 12.3076 21.6955 12.7856 21.8325 13.2566H22.2645L21.7425 11.4236ZM19.2625 12.5006L19.0435 12.5016C19.0417 12.6529 19.0417 12.8043 19.0435 12.9556H19.4805C19.4825 12.8056 19.4825 12.6546 19.4815 12.5036C19.3355 12.4999 19.1895 12.4993 19.0435 12.5016L19.2625 12.5006ZM24.5825 11.9886C24.4155 11.9886 24.2485 11.9886 24.0825 11.9916L24.6145 12.9316C24.7655 12.9316 24.9185 12.9316 25.0695 12.9256C24.9465 12.5936 24.7465 12.2996 24.5815 11.9886H24.5825ZM16.3625 10.6136L16.1475 10.6166C16.1405 11.1806 16.1455 11.7466 16.1445 12.3106C15.8035 12.3026 15.4625 12.3306 15.1235 12.2916C15.1256 12.1783 15.1249 12.0649 15.1215 11.9516H14.7095C14.7095 12.1496 14.6915 12.3496 14.7165 12.5466C14.7745 12.6146 14.8415 12.6746 14.9065 12.7386C15.3985 12.7356 15.8905 12.7406 16.3835 12.7356C16.4485 12.6696 16.5145 12.6046 16.5815 12.5406C16.5765 11.8986 16.5845 11.2566 16.5775 10.6156C16.4342 10.6134 16.2908 10.6134 16.1475 10.6156L16.3625 10.6136ZM12.9675 11.6746H12.7505C12.7405 12.0286 12.7455 12.3816 12.7465 12.7346H13.1865C13.1865 12.3816 13.1885 12.0286 13.1845 11.6766C13.0395 11.6746 12.8945 11.6746 12.7505 11.6756L12.9675 11.6746ZM23.2445 11.0556L23.0215 11.0586C23.0171 11.5429 23.0171 12.0273 23.0215 12.5116C23.1705 12.5136 23.3195 12.5146 23.4685 12.5116C23.4735 12.0276 23.4735 11.5426 23.4685 11.0586C23.3195 11.0551 23.1705 11.0551 23.0215 11.0586L23.2445 11.0556ZM9.84252 11.6526L8.86952 11.6566C8.86752 11.8066 8.86752 11.9596 8.86952 12.1116C9.51852 12.1156 10.1665 12.1166 10.8155 12.1116C10.8191 11.96 10.8191 11.8083 10.8155 11.6566C10.1669 11.6517 9.51818 11.6517 8.86952 11.6566L9.84252 11.6526ZM11.5625 11.6566H11.1205V12.1126C11.2685 12.1136 11.4155 12.1146 11.5635 12.1126C11.5668 11.9606 11.5668 11.8086 11.5635 11.6566H11.5625ZM14.7725 9.97462C14.5315 10.3396 14.2995 10.7126 14.0605 11.0796C13.8205 10.7176 13.5905 10.3476 13.3535 9.98262C13.3525 10.2286 13.3345 10.4766 13.3595 10.7226C13.4335 10.8456 13.5095 10.9686 13.5875 11.0906L14.0585 11.8176C14.2945 11.4466 14.5485 11.0846 14.7685 10.7026C14.7885 10.4606 14.7725 10.2166 14.7725 9.97462ZM17.7015 8.87862L17.4855 8.88062C17.4805 9.73462 17.4825 10.5886 17.4845 11.4426C17.6345 11.4456 17.7845 11.4456 17.9345 11.4426L17.9375 9.72662C18.2675 10.2346 18.5755 10.7586 18.9095 11.2646L19.0775 11.2946C19.0815 11.1076 19.0805 10.9206 19.0805 10.7346C18.6875 10.1196 18.3075 9.49662 17.9175 8.87962C17.7735 8.87719 17.6295 8.87753 17.4855 8.88062L17.7015 8.87862ZM12.3995 9.35862L12.0775 9.37162C11.9569 9.37012 11.8362 9.37012 11.7155 9.37162C11.7135 9.52162 11.7145 9.67262 11.7175 9.82362C11.8785 9.82562 12.0405 9.82362 12.2025 9.83262C11.8825 10.0226 11.5735 10.2296 11.2575 10.4246C11.3735 10.5216 11.4825 10.6376 11.6245 10.6926C12.1075 10.4146 12.5645 10.0926 13.0415 9.80162C13.0435 9.65962 13.0435 9.51662 13.0425 9.37462C12.7212 9.35323 12.3989 9.35223 12.0775 9.37162L12.3995 9.35862ZM20.9775 10.0416L19.9105 10.0436V10.4846C20.6225 10.4866 21.3325 10.4856 22.0435 10.4846V10.0446C21.3335 10.0406 20.6215 10.0406 19.9105 10.0446L20.9775 10.0416ZM15.7465 9.53762L15.5245 9.54062C15.5215 9.69162 15.5215 9.84262 15.5245 9.99362C15.6725 9.99762 15.8205 9.99762 15.9685 9.99362C15.9715 9.84162 15.9715 9.69162 15.9685 9.54062C15.8205 9.53649 15.6725 9.53649 15.5245 9.54062L15.7465 9.53762ZM19.4985 9.22462L19.2685 9.22762L19.2695 9.66962C19.4225 9.67262 19.5755 9.67262 19.7285 9.66862V9.22862C19.5752 9.22442 19.4218 9.22409 19.2685 9.22762L19.4985 9.22462ZM14.5885 7.38562L14.3585 7.39062C14.3685 8.05262 14.3285 8.71762 14.3785 9.37862C14.5255 9.37862 14.6725 9.37862 14.8195 9.37562C14.8265 8.71362 14.8235 8.05162 14.8215 7.38862C14.6669 7.38433 14.5121 7.385 14.3575 7.39062L14.5885 7.38562ZM16.2905 8.32562C16.1245 8.32562 15.9585 8.32562 15.7925 8.32862C15.9645 8.64462 16.1385 8.95862 16.3195 9.26862C16.4715 9.26862 16.6245 9.26862 16.7765 9.26162C16.6485 8.93162 16.4485 8.63962 16.2905 8.32562ZM18.9025 8.09962L18.2855 8.10262C18.2835 8.25462 18.2835 8.40762 18.2855 8.55962C18.6965 8.56662 19.1075 8.56462 19.5185 8.55962C19.5204 8.40696 19.5204 8.25428 19.5185 8.10162C19.1075 8.09783 18.6965 8.09816 18.2855 8.10262L18.9025 8.09962ZM16.4695 6.59762L15.7835 6.59862C15.6495 6.58062 15.5715 6.71862 15.4955 6.80562C15.4685 6.99562 15.4885 7.19062 15.4875 7.38262H15.9135L15.9165 7.02262H16.9225C16.9525 7.37962 16.9215 7.73762 16.9215 8.09562L16.9545 8.22962C17.0895 8.23962 17.2265 8.23262 17.3625 8.23062C17.3605 7.75162 17.3605 7.27262 17.3625 6.79362L17.2285 6.66062L17.1545 6.60362C16.6985 6.59162 16.2405 6.60162 15.7845 6.59862L16.4695 6.59762Z" fill="white"/>
</g>
<defs>
<clipPath id="clip0_1_6598">
<rect width="32" height="32" fill="white" transform="translate(0.000488281 0.0205078)"/>
</clipPath>
</defs>
</svg>
