<svg width="32" height="33" viewBox="0 0 32 33" fill="none" xmlns="http://www.w3.org/2000/svg">
<g clip-path="url(#clip0_1_6592)">
<path d="M16.0005 32.0205C24.837 32.0205 32.0005 24.8571 32.0005 16.0205C32.0005 7.18395 24.837 0.0205078 16.0005 0.0205078C7.16393 0.0205078 0.000488281 7.18395 0.000488281 16.0205C0.000488281 24.8571 7.16393 32.0205 16.0005 32.0205Z" fill="#F5D100"/>
<path d="M15.9725 4.02051C9.37249 4.02051 4.00049 9.39251 4.00049 15.9925C4.00049 22.5925 9.37249 27.9745 15.9825 27.9745C22.5915 27.9745 27.9635 22.6025 27.9635 15.9925C27.9635 9.38351 22.5825 4.02051 15.9735 4.02051H15.9725ZM15.9725 27.0505C9.88049 27.0505 4.91449 22.0945 4.91449 15.9925C4.92449 9.90051 9.88049 4.94351 15.9725 4.94351C22.0655 4.94351 27.0315 9.90051 27.0315 16.0025C27.0315 22.0945 22.0745 27.0515 15.9725 27.0515V27.0505Z" fill="white"/>
<path d="M10.0005 10.9015L10.8805 10.0205L15.5685 14.7075L14.6875 15.5875L10.0005 10.9015ZM16.8185 17.7225L17.6995 16.8415L22.3865 21.5285L21.5055 22.4085L16.8185 17.7225ZM15.3235 16.2205L16.2035 15.3405L17.0915 16.2265L16.2115 17.1085L15.3235 16.2205ZM16.8315 14.7455L21.5185 10.0595L22.3985 10.9405L17.7125 15.6275L16.8315 14.7455ZM10.0345 21.5335L14.7205 16.8475L15.6015 17.7275L10.9155 22.4145L10.0345 21.5335Z" fill="white"/>
</g>
<defs>
<clipPath id="clip0_1_6592">
<rect width="32" height="32" fill="white" transform="translate(0.000488281 0.0205078)"/>
</clipPath>
</defs>
</svg>
