<svg width="32" height="33" viewBox="0 0 32 33" fill="none" xmlns="http://www.w3.org/2000/svg">
<g clip-path="url(#clip0_1_6588)">
<path d="M16.001 32.0205C24.8375 32.0205 32.001 24.8571 32.001 16.0205C32.001 7.18395 24.8375 0.0205078 16.001 0.0205078C7.16442 0.0205078 0.000976562 7.18395 0.000976562 16.0205C0.000976562 24.8571 7.16442 32.0205 16.001 32.0205Z" fill="#82BD39"/>
<path d="M14.404 19.3805L16.001 21.4845V26.0205L10.001 23.3575V11.6395C10.001 11.4665 10.078 11.3015 10.213 11.1865L10.896 10.6015C10.9618 10.5446 11.0385 10.5018 11.1215 10.4757C11.2045 10.4497 11.292 10.4409 11.3785 10.45C11.465 10.4591 11.5487 10.4859 11.6245 10.5286C11.7003 10.5713 11.7664 10.6292 11.819 10.6985L17.284 17.8625L20.303 19.7085V9.82851L17.635 8.49751L17.505 14.6935L16.093 12.8205L16.029 6.02051L22.001 8.79951V20.4635L20.644 21.5815L16.37 19.1945L11.626 12.9715L11.561 22.4255L14.386 23.8725L14.404 19.3805Z" fill="white"/>
</g>
<defs>
<clipPath id="clip0_1_6588">
<rect width="32" height="32" fill="white" transform="translate(0.000976562 0.0205078)"/>
</clipPath>
</defs>
</svg>
