<svg width="32" height="33" viewBox="0 0 32 33" fill="none" xmlns="http://www.w3.org/2000/svg">
<g clip-path="url(#clip0_1_6584)">
<path d="M16.001 32.0205C24.8375 32.0205 32.001 24.8571 32.001 16.0205C32.001 7.18395 24.8375 0.0205078 16.001 0.0205078C7.16442 0.0205078 0.000976562 7.18395 0.000976562 16.0205C0.000976562 24.8571 7.16442 32.0205 16.001 32.0205Z" fill="#4099CD"/>
<path fill-rule="evenodd" clip-rule="evenodd" d="M2.00098 24.2732C2.60598 22.5092 3.77198 20.5992 5.39598 18.7132C5.10704 18.3292 4.96606 17.8539 4.99882 17.3744C5.03159 16.895 5.23591 16.4433 5.57441 16.1021C5.9129 15.761 6.36293 15.5531 6.84213 15.5166C7.32134 15.48 7.79768 15.6173 8.18398 15.9032C9.47373 14.7674 10.8454 13.7283 12.288 12.7942C19.222 8.29119 26.55 6.85419 30.124 8.99619C31.1537 10.9274 31.7736 13.0504 31.945 15.2322C30.791 19.0102 26.979 23.5242 21.547 27.0522C17.8 29.4852 13.937 31.0242 10.614 31.5852C6.95174 30.2722 3.89101 27.6738 2.00098 24.2732ZM5.75098 19.0782C3.40698 21.7862 2.46798 24.5722 3.60398 26.3222C5.31998 28.9652 11.124 28.2422 16.565 24.7092C22.007 21.1752 25.027 16.1672 23.311 13.5242C21.594 10.8812 15.791 11.6042 10.349 15.1372C9.74598 15.5292 9.17198 15.9392 8.63198 16.3622C8.90894 16.7557 9.03476 17.2358 8.98635 17.7146C8.93794 18.1933 8.71855 18.6386 8.36842 18.9686C8.01829 19.2987 7.5609 19.4915 7.08013 19.5116C6.59937 19.5317 6.12746 19.3779 5.75098 19.0782Z" fill="white"/>
</g>
<defs>
<clipPath id="clip0_1_6584">
<rect width="32" height="32" fill="white" transform="translate(0.000976562 0.0205078)"/>
</clipPath>
</defs>
</svg>
