<svg width="32" height="33" viewBox="0 0 32 33" fill="none" xmlns="http://www.w3.org/2000/svg">
<g clip-path="url(#clip0_1_6580)">
<path d="M16.001 32.0205C24.8375 32.0205 32.001 24.8571 32.001 16.0205C32.001 7.18395 24.8375 0.0205078 16.001 0.0205078C7.16442 0.0205078 0.000976562 7.18395 0.000976562 16.0205C0.000976562 24.8571 7.16442 32.0205 16.001 32.0205Z" fill="#008FBB"/>
<path fill-rule="evenodd" clip-rule="evenodd" d="M26.083 17.3535C25.576 17.3535 25.165 16.9805 25.165 16.5205V15.6865H20.553C20.046 15.6865 19.635 15.3135 19.635 14.8535C19.635 14.3935 20.046 14.0205 20.553 14.0205H26.083C26.59 14.0205 27.001 14.3935 27.001 14.8535V16.5205C27.001 16.9805 26.591 17.3535 26.083 17.3535ZM21.534 17.3535H23.369C23.876 17.3535 24.287 17.7265 24.287 18.1865C24.287 18.6465 23.877 19.0205 23.369 19.0205H20.553C20.4068 19.0209 20.2623 18.9888 20.13 18.9265L14.778 15.6865H13.236C12.729 15.6865 12.318 15.3135 12.318 14.8535C12.318 14.3935 12.728 14.0205 13.236 14.0205H15.071C15.269 14.0205 15.452 14.0775 15.602 14.1745L20.834 17.3545H21.534V17.3535ZM15.071 17.3535C15.578 17.3535 15.989 17.7265 15.989 18.1865C15.989 18.6465 15.578 19.0205 15.071 19.0205H13.236C13.0898 19.0209 12.9453 18.9888 12.813 18.9265L7.46098 15.6865H5.91898C5.41198 15.6865 5.00098 15.3135 5.00098 14.8535C5.00098 14.3935 5.41098 14.0205 5.91898 14.0205H7.75398C7.94209 14.0198 8.12643 14.0733 8.28498 14.1745L13.517 17.3545H15.071V17.3535ZM5.91898 17.3535H7.75398C8.26098 17.3535 8.67198 17.7265 8.67198 18.1875C8.67198 18.6475 8.26098 19.0205 7.75398 19.0205H5.91898C5.41198 19.0205 5.00098 18.6475 5.00098 18.1875C5.00098 17.7275 5.41098 17.3535 5.91898 17.3535Z" fill="white"/>
</g>
<defs>
<clipPath id="clip0_1_6580">
<rect width="32" height="32" fill="white" transform="translate(0.000976562 0.0205078)"/>
</clipPath>
</defs>
</svg>
