<svg width="32" height="33" viewBox="0 0 32 33" fill="none" xmlns="http://www.w3.org/2000/svg">
<g clip-path="url(#clip0_1_6576)">
<path d="M16 32.022C24.8366 32.022 32 24.8585 32 16.022C32 7.18542 24.8366 0.0219727 16 0.0219727C7.16344 0.0219727 0 7.18542 0 16.022C0 24.8585 7.16344 32.022 16 32.022Z" fill="#164B79"/>
<path d="M14.0913 18.69L13.4683 20.02H12.0863L15.8393 12.022L18.3423 17.355H16.9273L15.8073 15.04L14.6853 17.394L14.0913 18.69ZM19.5453 19.99L22.4753 16.04L19.5243 12.06H21.1393L23.2803 14.97L22.5013 16.04L23.2803 17.11L21.1403 20.02H18.1773L17.5513 18.69H18.9333L19.5453 19.99ZM24.0713 16.023L23.2803 14.936L25.4213 12.026H27.0013L24.0713 16.023ZM24.0713 16.023L27.0013 20.021H25.4213L23.2813 17.111L24.0713 16.023ZM11.4233 13.181C11.7824 13.5601 12.0632 14.0064 12.2494 14.4942C12.4356 14.9821 12.5235 15.502 12.5083 16.024C12.522 17.075 12.1339 18.0915 11.4233 18.866C10.7013 19.675 9.80826 20.022 8.75526 20.022C8.25438 20.027 7.75805 19.9266 7.29843 19.7275C6.83881 19.5283 6.42617 19.2348 6.08726 18.866C5.36506 18.0987 4.9748 17.0774 5.00126 16.024C4.98517 15.1992 5.22672 14.39 5.69226 13.709L6.61226 14.689C6.32426 15.2029 6.2043 15.794 6.26922 16.3796C6.33414 16.9651 6.58068 17.5156 6.97426 17.954C7.19732 18.2066 7.47114 18.4093 7.77786 18.5488C8.08458 18.6884 8.41729 18.7617 8.75426 18.764C9.42626 18.764 10.0683 18.471 10.5343 17.954C10.7733 17.7011 10.9602 17.4035 11.0842 17.0784C11.2083 16.7532 11.2671 16.4068 11.2573 16.059C11.2596 15.359 11.0015 14.6832 10.5333 14.163C10.3091 13.9145 10.0342 13.7171 9.72707 13.5842C9.41994 13.4514 9.08783 13.3862 8.75326 13.393C8.31114 13.3808 7.8757 13.5029 7.50426 13.743L6.58426 12.763C7.20209 12.2745 7.96974 12.0145 8.75726 12.027C9.2581 12.018 9.75504 12.1164 10.2147 12.3154C10.6744 12.5145 11.0861 12.8096 11.4223 13.181H11.4233Z" fill="white"/>
</g>
<defs>
<clipPath id="clip0_1_6576">
<rect width="32" height="32" fill="white" transform="translate(0 0.0219727)"/>
</clipPath>
</defs>
</svg>
