<svg width="32" height="33" viewBox="0 0 32 33" fill="none" xmlns="http://www.w3.org/2000/svg">
<g clip-path="url(#clip0_1_6572)">
<path d="M16 32.022C24.8366 32.022 32 24.8585 32 16.022C32 7.18542 24.8366 0.0219727 16 0.0219727C7.16344 0.0219727 0 7.18542 0 16.022C0 24.8585 7.16344 32.022 16 32.022Z" fill="black"/>
<path d="M27.9582 14.6908V14.7548C26.5712 15.6228 25.1742 16.4808 23.7812 17.3468C23.7548 17.3659 23.7341 17.3918 23.7212 17.4218C24.0932 17.5218 24.4782 17.5968 24.8312 17.7588C25.1572 17.9038 25.4912 18.0928 25.6752 18.4098C25.8512 18.7318 25.8952 19.1098 25.7972 19.4628C25.7442 19.7268 25.6332 19.9748 25.5332 20.2258C25.1152 21.2278 24.6952 22.2268 24.2802 23.2328C24.2601 23.2825 24.2332 23.3293 24.2002 23.3718C24.0632 23.3688 23.9322 23.3188 23.7982 23.2878C23.1222 23.1208 22.4422 22.9568 21.7662 22.7878C21.5462 22.7258 21.3202 22.6898 21.1032 22.6178C21.1092 22.4808 21.1872 22.3638 21.2332 22.2408L22.1612 20.0198C22.2312 19.8658 22.2722 19.6738 22.1722 19.5238C22.0472 19.3098 21.7962 19.2288 21.5742 19.1678C20.7582 18.9578 19.9362 18.7638 19.1182 18.5608C19.0012 18.5358 18.8872 18.4828 18.7642 18.4988C18.6922 18.6248 18.6502 18.7668 18.5922 18.9028C18.2442 19.7188 17.9102 20.5398 17.5642 21.3558C17.5142 21.4698 17.4842 21.5958 17.4082 21.6958C17.2722 21.6958 17.1442 21.6428 17.0132 21.6118C16.3142 21.4398 15.6152 21.2638 14.9132 21.0938C14.7162 21.0408 14.5102 21.0078 14.3152 20.9408C14.3176 20.8854 14.3298 20.8309 14.3512 20.7798L17.8842 12.3098C17.8964 12.2814 17.9157 12.2566 17.9402 12.2378C18.0632 12.2458 18.1802 12.2958 18.3002 12.3238C18.8952 12.4658 19.4912 12.6188 20.0872 12.7638C20.3962 12.8438 20.7132 12.9058 21.0202 12.9978C21.0362 13.0558 21.0082 13.1148 20.9862 13.1698C20.7462 13.7158 20.5262 14.2698 20.2932 14.8158L19.5722 16.5478C19.4912 16.7508 19.3852 16.9458 19.3292 17.1598C19.4332 17.1238 19.5222 17.0628 19.6132 17.0008L24.3192 14.0508C24.4052 13.9968 24.4832 13.9248 24.5812 13.8998C24.7252 13.8888 24.8612 13.9438 24.9982 13.9748C25.4782 14.0778 25.9502 14.2148 26.4262 14.3248C26.9422 14.4398 27.4482 14.5818 27.9582 14.6908ZM16.8542 12.9918C16.8792 13.4958 16.6872 13.9748 16.4902 14.4258C15.9582 15.7038 15.4202 16.9788 14.8912 18.2568C14.6992 18.7078 14.5322 19.1788 14.2372 19.5768C14.0272 19.8728 13.7352 20.1008 13.3972 20.2308C12.9712 20.364 12.52 20.3965 12.0792 20.3258C11.3192 20.2308 10.5792 20.0258 9.83523 19.8468C8.82523 19.5938 7.80823 19.3488 6.79823 19.0948C6.12723 18.9338 5.45023 18.7608 4.82623 18.4548C4.55698 18.3242 4.32819 18.1231 4.16423 17.8728C4.0376 17.6662 3.98178 17.4239 4.00523 17.1828C4.05823 16.7398 4.22223 16.3188 4.40023 15.9128L6.03023 11.9978C6.16023 11.6978 6.27423 11.3878 6.44123 11.1048C6.5841 10.843 6.77393 10.6098 7.00123 10.4168C7.26923 10.2128 7.58423 10.0818 7.91723 10.0348C8.16223 10.0128 8.40723 10.0248 8.65223 10.0298C9.40989 10.1417 10.1602 10.2987 10.8992 10.4998C11.9352 10.7498 12.9682 11.0128 14.0032 11.2628C14.4792 11.3798 14.9532 11.4998 15.4182 11.6588C15.7292 11.7728 16.0472 11.8888 16.3202 12.0868C16.6302 12.2878 16.8282 12.6228 16.8542 12.9918ZM13.2342 13.8828C13.2542 13.7358 13.1492 13.6098 13.0262 13.5458C12.7762 13.4098 12.4912 13.3598 12.2192 13.2898C11.4972 13.1098 10.7752 12.9318 10.0492 12.7558C9.8435 12.6955 9.62691 12.6818 9.41523 12.7158C9.17023 12.7858 9.04723 13.0338 8.96423 13.2508C8.55423 14.2258 8.15423 15.2028 7.74223 16.1748C7.69723 16.2888 7.65223 16.4028 7.64223 16.5248C7.64223 16.6648 7.73923 16.7868 7.85823 16.8448C8.03723 16.9368 8.23223 16.9878 8.42123 17.0378L10.6762 17.5918C10.9382 17.6528 11.2132 17.7198 11.4812 17.6618C11.7062 17.5888 11.8212 17.3578 11.9042 17.1548L13.0092 14.5038C13.0962 14.3038 13.2072 14.1058 13.2352 13.8838L13.2342 13.8828Z" fill="white"/>
</g>
<defs>
<clipPath id="clip0_1_6572">
<rect width="32" height="32" fill="white" transform="translate(0 0.0219727)"/>
</clipPath>
</defs>
</svg>
