<svg width="32" height="33" viewBox="0 0 32 33" fill="none" xmlns="http://www.w3.org/2000/svg">
<g clip-path="url(#clip0_1_6568)">
<path d="M16 32.022C24.8366 32.022 32 24.8585 32 16.022C32 7.18542 24.8366 0.0219727 16 0.0219727C7.16344 0.0219727 0 7.18542 0 16.022C0 24.8585 7.16344 32.022 16 32.022Z" fill="#101010"/>
<path d="M16.057 17.798L14.027 12.2H12.3V19.523H13.545V14.364L15.429 19.523H16.653L18.535 14.364V19.523H19.811V12.2H18.086L16.057 17.798ZM7.671 12.022C5.423 12.022 4 13.717 4 15.867C4 18.016 5.423 19.707 7.671 19.707C9.919 19.707 11.345 18.028 11.345 15.867C11.345 13.705 9.922 12.022 7.67 12.022H7.671ZM7.671 18.405C6.238 18.405 5.381 17.327 5.381 15.872C5.381 14.416 6.238 13.331 7.671 13.331C9.104 13.331 9.964 14.419 9.964 15.867C9.964 17.314 9.106 18.405 7.671 18.405ZM24.138 16.858H26.24C26.116 17.926 25.34 18.428 24.346 18.428C22.923 18.428 22.13 17.381 22.13 15.874C22.13 14.461 22.829 13.301 24.316 13.301C25.288 13.301 26.074 13.797 26.158 14.63H27.548C27.36 12.956 26.083 12.024 24.358 12.024C21.909 12.024 20.768 13.908 20.768 15.916C20.768 18.073 22.088 19.704 24.138 19.704C25.34 19.704 26.012 19.148 26.282 18.678V19.515H27.548V15.599H24.138V16.859V16.858Z" fill="white"/>
</g>
<defs>
<clipPath id="clip0_1_6568">
<rect width="32" height="32" fill="white" transform="translate(0 0.0219727)"/>
</clipPath>
</defs>
</svg>
