<svg width="32" height="33" viewBox="0 0 32 33" fill="none" xmlns="http://www.w3.org/2000/svg">
<g clip-path="url(#clip0_1_6564)">
<path d="M16 32.022C24.8366 32.022 32 24.8585 32 16.022C32 7.18542 24.8366 0.0219727 16 0.0219727C7.16344 0.0219727 0 7.18542 0 16.022C0 24.8585 7.16344 32.022 16 32.022Z" fill="#1C347A"/>
<path d="M10.065 6.90997C8.79079 7.74165 7.70428 8.83021 6.875 10.106V6.90997H10.065ZM25.069 10.02C24.2468 8.7809 23.1804 7.72265 21.935 6.90997H25.069V10.02ZM21.981 25.104C23.2067 24.2951 24.257 23.2476 25.069 22.024V25.104H21.981ZM6.875 21.938C7.69415 23.1983 8.76445 24.2761 10.019 25.104H6.875V21.938ZM26 16.022C26 21.536 21.514 26.022 16 26.022C10.486 26.022 6 21.536 6 16.022C6 10.508 10.486 6.02197 16 6.02197C21.514 6.02197 26 10.508 26 16.022ZM16 23.314C20.02 23.314 23.292 20.043 23.292 16.022C23.292 12.002 20.021 8.72997 16 8.72997C11.98 8.72997 8.708 12.001 8.708 16.022C8.708 20.042 11.979 23.314 16 23.314Z" fill="white"/>
</g>
<defs>
<clipPath id="clip0_1_6564">
<rect width="32" height="32" fill="white" transform="translate(0 0.0219727)"/>
</clipPath>
</defs>
</svg>
