<svg width="32" height="33" viewBox="0 0 32 33" fill="none" xmlns="http://www.w3.org/2000/svg">
<g clip-path="url(#clip0_1_6557)">
<path d="M16 32.022C24.8366 32.022 32 24.8585 32 16.022C32 7.18542 24.8366 0.0219727 16 0.0219727C7.16344 0.0219727 0 7.18542 0 16.022C0 24.8585 7.16344 32.022 16 32.022Z" fill="black"/>
<path fill-rule="evenodd" clip-rule="evenodd" d="M15.943 25.9C21.683 25.9 26.031 22.054 26.933 17.022H22.036C21.304 19.694 19.032 21.65 16.001 21.65C12.992 21.65 10.691 19.68 9.928 17.022H5C5.869 22.072 10.18 25.9 15.943 25.9Z" fill="white"/>
<path d="M15.527 10.076C16.9226 10.076 18.054 8.9446 18.054 7.54897C18.054 6.15335 16.9226 5.02197 15.527 5.02197C14.1314 5.02197 13 6.15335 13 7.54897C13 8.9446 14.1314 10.076 15.527 10.076Z" fill="white"/>
<path fill-rule="evenodd" clip-rule="evenodd" d="M10 17.598V17.548C10 13.955 12.574 11.022 16.285 11.022C19.997 11.022 22.625 14.005 22.631 17.598H10Z" fill="white"/>
</g>
<defs>
<clipPath id="clip0_1_6557">
<rect width="32" height="32" fill="white" transform="translate(0 0.0219727)"/>
</clipPath>
</defs>
</svg>
