<svg width="32" height="33" viewBox="0 0 32 33" fill="none" xmlns="http://www.w3.org/2000/svg">
<g clip-path="url(#clip0_1_6549)">
<path d="M16.0005 32.022C24.837 32.022 32.0005 24.8585 32.0005 16.022C32.0005 7.18542 24.837 0.0219727 16.0005 0.0219727C7.16393 0.0219727 0.000488281 7.18542 0.000488281 16.022C0.000488281 24.8585 7.16393 32.022 16.0005 32.022Z" fill="#25AAE1"/>
<path fill-rule="evenodd" clip-rule="evenodd" d="M16.3465 25.015C14.7065 25.033 13.3295 24.737 12.0315 24.092C11.9515 24.052 11.8915 24.05 11.8115 24.095C11.0231 24.5405 10.1576 24.833 9.26049 24.957C8.87649 25.007 8.48849 25.061 8.10249 24.982C7.8648 24.9353 7.64379 24.8263 7.46212 24.6661C7.28044 24.5059 7.14463 24.3002 7.06862 24.0702C6.9926 23.8403 6.9791 23.5942 7.02951 23.3573C7.07992 23.1203 7.19243 22.9011 7.35549 22.722C7.81373 22.2014 8.15779 21.5906 8.36549 20.929C8.3777 20.896 8.38162 20.8605 8.37691 20.8256C8.37221 20.7907 8.35901 20.7576 8.33849 20.729C7.63058 19.6053 7.19342 18.3325 7.06149 17.011C6.76749 14.089 7.67649 11.586 9.77149 9.53397C11.09 8.22798 12.7962 7.3845 14.6345 7.12997C17.1715 6.75897 19.4835 7.34497 21.5145 8.91797C23.3265 10.322 24.4545 12.171 24.8475 14.429C25.3455 17.287 24.6245 19.833 22.7075 22.009C21.2905 23.617 19.4905 24.572 17.3725 24.911C16.9705 24.976 16.5625 24.994 16.3465 25.015ZM9.91649 22.627C9.98149 22.609 10.0195 22.599 10.0565 22.587C10.6253 22.3949 11.1624 22.1195 11.6505 21.77C12.0025 21.522 12.3495 21.51 12.7205 21.722C13.5165 22.178 14.3695 22.462 15.2845 22.559C16.7715 22.718 18.1745 22.435 19.4295 21.629C21.5995 20.237 22.6795 18.233 22.5625 15.638C22.4875 13.976 21.8365 12.541 20.6575 11.372C19.2365 9.96397 17.5075 9.32197 15.5045 9.45997C14.1545 9.55397 12.9345 10.018 11.8955 10.885C9.88249 12.565 9.10549 14.719 9.55149 17.302C9.69749 18.152 10.0365 18.932 10.5145 19.652C10.6057 19.7806 10.6682 19.9274 10.6977 20.0824C10.7272 20.2373 10.723 20.3968 10.6855 20.55C10.5712 21.0472 10.4105 21.5327 10.2055 22C10.1165 22.203 10.0205 22.402 9.91749 22.627H9.91649ZM16.0075 12.215L16.5775 13.372C16.7775 13.782 16.9835 14.192 17.1775 14.606C17.2275 14.714 17.2945 14.752 17.4065 14.767C18.2465 14.884 19.0855 15.007 19.9245 15.128C19.9535 15.133 19.9825 15.141 20.0185 15.148C19.8635 15.308 19.7195 15.464 19.5685 15.611C19.0945 16.074 18.6195 16.535 18.1415 16.993C18.0585 17.073 18.0255 17.148 18.0475 17.271C18.1975 18.114 18.3375 18.959 18.4795 19.804C18.4825 19.825 18.4825 19.847 18.4855 19.888C18.4395 19.87 18.4045 19.859 18.3725 19.842C17.6305 19.451 16.8875 19.061 16.1485 18.664C16.0485 18.61 15.9705 18.605 15.8665 18.661C15.1225 19.058 14.3755 19.449 13.6285 19.841C13.5985 19.858 13.5665 19.871 13.5085 19.899C13.5455 19.672 13.5775 19.469 13.6125 19.267C13.7305 18.585 13.8475 17.902 13.9725 17.221C13.9905 17.121 13.9345 17.074 13.8785 17.019C13.2831 16.4337 12.6864 15.8497 12.0885 15.267C12.0545 15.233 12.0065 15.214 11.9645 15.188L11.9955 15.14L12.9115 15.008C13.4875 14.926 14.0625 14.842 14.6395 14.763C14.7315 14.75 14.7735 14.701 14.8115 14.623C15.1885 13.854 15.5695 13.087 15.9485 12.319C15.9625 12.292 15.9785 12.267 16.0085 12.215H16.0075Z" fill="white"/>
</g>
<defs>
<clipPath id="clip0_1_6549">
<rect width="32" height="32" fill="white" transform="translate(0.000488281 0.0219727)"/>
</clipPath>
</defs>
</svg>
