<svg width="32" height="33" viewBox="0 0 32 33" fill="none" xmlns="http://www.w3.org/2000/svg">
<g clip-path="url(#clip0_1_6543)">
<path d="M16.0005 32.022C24.837 32.022 32.0005 24.8585 32.0005 16.022C32.0005 7.18542 24.837 0.0219727 16.0005 0.0219727C7.16393 0.0219727 0.000488281 7.18542 0.000488281 16.022C0.000488281 24.8585 7.16393 32.022 16.0005 32.022Z" fill="#34445B"/>
<path d="M15.8753 10.1701L17.8853 7.03415C18.401 7.1178 18.9292 6.99938 19.3598 6.70353C19.7905 6.40768 20.0905 5.95718 20.1974 5.44576C20.3043 4.93435 20.2099 4.4014 19.9339 3.9578C19.6578 3.5142 19.2214 3.19412 18.7153 3.06415C18.3122 2.98067 17.8933 3.02172 17.514 3.18185C17.1348 3.34198 16.8132 3.61362 16.5919 3.96073C16.3706 4.30785 16.2601 4.71404 16.275 5.12543C16.2899 5.53681 16.4295 5.93394 16.6753 6.26415L14.1813 10.1551C13.1405 10.2575 12.1301 10.564 11.2078 11.0571C10.2854 11.5501 9.46933 12.2201 8.80606 13.0287C8.14279 13.8373 7.64537 14.7687 7.34222 15.7696C7.03908 16.7706 6.93615 17.8214 7.03931 18.8621C7.24735 20.9635 8.28128 22.8962 9.91382 24.2354C11.5464 25.5747 13.6439 26.2109 15.7453 26.0041C17.8468 25.7964 19.7798 24.7625 21.1192 23.13C22.4587 21.4974 23.095 19.3997 22.8883 17.2982C22.7088 15.4879 21.9152 13.7936 20.6394 12.4969C19.3635 11.2002 17.6824 10.3791 15.8753 10.1701ZM14.9603 22.2921C14.4055 22.2927 13.8561 22.1838 13.3435 21.9718C12.8308 21.7598 12.365 21.4487 11.9727 21.0565C11.5803 20.6643 11.2692 20.1985 11.0571 19.6859C10.8449 19.1733 10.7359 18.6239 10.7363 18.0691C10.7358 17.5143 10.8447 16.9648 11.0568 16.4521C11.2689 15.9394 11.58 15.4735 11.9723 15.0812C12.3647 14.6888 12.8305 14.3777 13.3432 14.1656C13.856 13.9535 14.4055 13.8446 14.9603 13.8451C15.8184 13.8449 16.6561 14.1063 17.3619 14.5944C18.0676 15.0825 18.6077 15.7742 18.9103 16.5771C18.5134 16.066 17.9299 15.7334 17.2879 15.6522C16.6459 15.571 15.9979 15.7479 15.4863 16.1441C14.975 16.5409 14.6421 17.1244 14.5609 17.7665C14.4797 18.4086 14.6568 19.0566 15.0533 19.5681C15.2811 19.8611 15.5726 20.0983 15.9058 20.2617C16.239 20.4251 16.605 20.5104 16.9761 20.5111C17.3472 20.5117 17.7135 20.4278 18.0473 20.2656C18.3811 20.1034 18.6735 19.8673 18.9023 19.5751C18.5985 20.3745 18.0587 21.0625 17.3546 21.5478C16.6505 22.0331 15.8155 22.2927 14.9603 22.2921Z" fill="white"/>
<path d="M15.8753 10.1701L17.8853 7.03415C18.401 7.1178 18.9292 6.99938 19.3598 6.70353C19.7905 6.40768 20.0905 5.95718 20.1974 5.44576C20.3043 4.93435 20.2099 4.4014 19.9339 3.9578C19.6578 3.5142 19.2214 3.19412 18.7153 3.06415C18.3122 2.98067 17.8933 3.02172 17.514 3.18185C17.1348 3.34198 16.8132 3.61362 16.5919 3.96073C16.3706 4.30785 16.2601 4.71404 16.275 5.12543C16.2899 5.53681 16.4295 5.93394 16.6753 6.26415L14.1813 10.1551C13.1405 10.2575 12.1301 10.564 11.2078 11.0571C10.2854 11.5501 9.46933 12.2201 8.80606 13.0287C8.14279 13.8373 7.64537 14.7687 7.34222 15.7696C7.03908 16.7706 6.93615 17.8214 7.03931 18.8621C7.24735 20.9635 8.28128 22.8962 9.91382 24.2354C11.5464 25.5747 13.6439 26.2109 15.7453 26.0041C17.8468 25.7964 19.7798 24.7625 21.1192 23.13C22.4587 21.4974 23.095 19.3997 22.8883 17.2982C22.7088 15.4879 21.9152 13.7936 20.6394 12.4969C19.3635 11.2002 17.6824 10.3791 15.8753 10.1701ZM14.9603 22.2921C14.4055 22.2927 13.8561 22.1838 13.3435 21.9718C12.8308 21.7598 12.365 21.4487 11.9727 21.0565C11.5803 20.6643 11.2692 20.1985 11.0571 19.6859C10.8449 19.1733 10.7359 18.6239 10.7363 18.0691C10.7358 17.5143 10.8447 16.9648 11.0568 16.4521C11.2689 15.9394 11.58 15.4735 11.9723 15.0812C12.3647 14.6888 12.8305 14.3777 13.3432 14.1656C13.856 13.9535 14.4055 13.8446 14.9603 13.8451C15.8184 13.8449 16.6561 14.1063 17.3619 14.5944C18.0676 15.0825 18.6077 15.7742 18.9103 16.5771C18.5134 16.066 17.9299 15.7334 17.2879 15.6522C16.6459 15.571 15.9979 15.7479 15.4863 16.1441C14.975 16.5409 14.6421 17.1244 14.5609 17.7665C14.4797 18.4086 14.6568 19.0566 15.0533 19.5681C15.2811 19.8611 15.5726 20.0983 15.9058 20.2617C16.239 20.4251 16.605 20.5104 16.9761 20.5111C17.3472 20.5117 17.7135 20.4278 18.0473 20.2656C18.3811 20.1034 18.6735 19.8673 18.9023 19.5751C18.5985 20.3745 18.0587 21.0625 17.3546 21.5478C16.6505 22.0331 15.8155 22.2927 14.9603 22.2921Z" fill="white"/>
</g>
<defs>
<clipPath id="clip0_1_6543">
<rect width="32" height="32" fill="white" transform="translate(0.000488281 0.0219727)"/>
</clipPath>
</defs>
</svg>
