<svg width="32" height="33" viewBox="0 0 32 33" fill="none" xmlns="http://www.w3.org/2000/svg">
<g clip-path="url(#clip0_1_6539)">
<path d="M16.0005 32.022C24.837 32.022 32.0005 24.8585 32.0005 16.022C32.0005 7.18542 24.837 0.0219727 16.0005 0.0219727C7.16393 0.0219727 0.000488281 7.18542 0.000488281 16.022C0.000488281 24.8585 7.16393 32.022 16.0005 32.022Z" fill="#4392CD"/>
<path fill-rule="evenodd" clip-rule="evenodd" d="M16.8585 25.023H15.1425C13.8545 25.023 13.4895 23.829 13.4895 22.917C13.4895 22.005 13.5545 21.592 13.5545 21.18C13.5545 20.53 13.2265 18.907 12.6315 18.227C11.4725 16.902 10.7425 15.715 10.7425 13.993C9.73449 13.472 7.95249 12.994 7.26649 12.213C6.58049 11.432 6.00049 10.323 6.00049 8.73697C6.00049 8.33197 6.08649 7.75997 6.25849 7.02197C6.65349 8.25597 7.26149 9.10197 8.08249 9.56197C9.28349 10.236 10.6375 10.735 11.7945 10.735H20.2065C21.3635 10.735 22.7165 10.235 23.9185 9.56197C24.7385 9.10197 25.3475 8.25597 25.7425 7.02197C25.9145 7.75997 26.0005 8.33197 26.0005 8.73697C26.0005 10.322 25.4205 11.43 24.7345 12.211C24.0485 12.992 22.2665 13.471 21.2585 13.991C21.2585 15.714 20.5285 16.901 19.3695 18.226C18.7745 18.906 18.4465 20.529 18.4465 21.179C18.4465 21.591 18.5115 22.004 18.5115 22.916C18.5115 23.828 18.1465 25.022 16.8585 25.022V25.023Z" fill="white"/>
</g>
<defs>
<clipPath id="clip0_1_6539">
<rect width="32" height="32" fill="white" transform="translate(0.000488281 0.0219727)"/>
</clipPath>
</defs>
</svg>
