<svg width="32" height="33" viewBox="0 0 32 33" fill="none" xmlns="http://www.w3.org/2000/svg">
<g clip-path="url(#clip0_1_6535)">
<path d="M16.0005 32.022C24.837 32.022 32.0005 24.8585 32.0005 16.022C32.0005 7.18542 24.837 0.0219727 16.0005 0.0219727C7.16393 0.0219727 0.000488281 7.18542 0.000488281 16.022C0.000488281 24.8585 7.16393 32.022 16.0005 32.022Z" fill="#5F45BA"/>
<path d="M10.196 8.68296C10.0851 8.86997 9.92117 9.01987 9.72501 9.11369C9.52886 9.20752 9.30928 9.24104 9.09407 9.21003C8.87885 9.17902 8.67767 9.08487 8.51599 8.93949C8.3543 8.79411 8.23937 8.60403 8.18575 8.39331C8.13212 8.18259 8.14221 7.96069 8.21473 7.75571C8.28726 7.55072 8.41896 7.37186 8.59317 7.24174C8.76738 7.11163 8.97627 7.03612 9.19341 7.02477C9.41055 7.01341 9.62618 7.06673 9.81301 7.17796C10.334 7.48796 10.506 8.16096 10.196 8.68296ZM6.44601 8.19496C6.36763 8.32729 6.25174 8.43338 6.11301 8.4998C5.97429 8.56621 5.81898 8.58996 5.66675 8.56804C5.51452 8.54612 5.37221 8.47951 5.25787 8.37666C5.14352 8.2738 5.06226 8.13932 5.0244 7.99026C4.98654 7.84119 4.99377 7.68424 5.04517 7.53928C5.09658 7.39432 5.18985 7.26788 5.31316 7.17597C5.43648 7.08406 5.5843 7.03082 5.73791 7.02298C5.89151 7.01515 6.04398 7.05307 6.17601 7.13196C6.54401 7.35196 6.66601 7.82696 6.44601 8.19496ZM16.885 24.095C18.005 23.9627 19.0878 23.6102 20.071 23.0577C21.0541 22.5052 21.9183 21.7636 22.6136 20.8757C23.3089 19.9878 23.8217 18.9711 24.1224 17.8841C24.423 16.7971 24.5057 15.6614 24.3655 14.5424C24.2253 13.4233 23.8651 12.3431 23.3056 11.3639C22.7462 10.3847 21.9985 9.52581 21.1056 8.83681C20.2128 8.14781 19.1924 7.64228 18.1034 7.34934C17.0143 7.0564 15.878 6.98184 14.76 7.12996C14.0411 7.1972 13.3366 7.3739 12.671 7.65396C11.896 8.03396 11.396 8.66696 11.396 9.51396C11.396 10.614 12.288 11.508 13.39 11.508C13.574 11.508 14.211 11.306 14.363 11.254C15.0808 11.0035 15.8495 10.9346 16.6004 11.0534C17.3513 11.1722 18.0611 11.4751 18.6665 11.9349C19.2719 12.3948 19.7541 12.9973 20.07 13.6888C20.3859 14.3803 20.5257 15.1393 20.477 15.898C20.4164 16.8625 20.0541 17.7836 19.4413 18.5309C18.8284 19.2782 17.9962 19.8139 17.0622 20.0623C16.1282 20.3106 15.1397 20.259 14.2367 19.9147C13.3336 19.5705 12.5617 18.951 12.03 18.144V18.145C11.11 16.94 11.322 15.014 11.321 14.989C11.303 14.5121 11.1149 14.0575 10.7907 13.7074C10.4665 13.3572 10.0276 13.1348 9.55357 13.0803C9.07951 13.0258 8.60161 13.1428 8.20639 13.4102C7.81117 13.6776 7.52475 14.0776 7.39901 14.538C7.35401 14.705 7.33101 15.194 7.33801 15.259C7.28758 16.4947 7.50594 17.7267 7.97802 18.8699C8.4501 20.013 9.16466 21.0401 10.0724 21.8802C10.98 22.7203 12.0592 23.3534 13.2355 23.7358C14.4117 24.1181 15.6568 24.2407 16.885 24.095ZM9.05301 11.733C8.90921 11.9751 8.69686 12.1691 8.44279 12.2906C8.18872 12.412 7.90435 12.4554 7.62563 12.4152C7.34691 12.3751 7.08635 12.2532 6.87689 12.065C6.66743 11.8768 6.51848 11.6307 6.44887 11.3578C6.37926 11.0849 6.39211 10.7976 6.4858 10.532C6.57949 10.2665 6.74981 10.0346 6.97523 9.86587C7.20065 9.6971 7.47105 9.59896 7.75224 9.58384C8.03344 9.56873 8.3128 9.63732 8.55501 9.78096C9.23101 10.183 9.45301 11.057 9.05201 11.733" fill="white"/>
</g>
<defs>
<clipPath id="clip0_1_6535">
<rect width="32" height="32" fill="white" transform="translate(0.000488281 0.0219727)"/>
</clipPath>
</defs>
</svg>
