<svg width="32" height="33" viewBox="0 0 32 33" fill="none" xmlns="http://www.w3.org/2000/svg">
<g clip-path="url(#clip0_1_6531)">
<path d="M16.0005 32.022C24.837 32.022 32.0005 24.8585 32.0005 16.022C32.0005 7.18542 24.837 0.0219727 16.0005 0.0219727C7.16393 0.0219727 0.000488281 7.18542 0.000488281 16.022C0.000488281 24.8585 7.16393 32.022 16.0005 32.022Z" fill="#03E8B0"/>
<path d="M15.425 6.19747C16.069 5.91747 16.529 6.51147 16.927 6.90947C17.637 7.51247 18.313 8.15347 18.953 8.82947C19.32 9.23047 19.171 9.96347 18.672 10.1865C18.288 10.3965 17.819 10.2385 17.525 9.94647C16.752 9.20647 16.013 8.42947 15.211 7.72247C14.713 7.31547 14.815 6.43247 15.425 6.19747ZM22.459 8.24847C22.896 8.01347 23.596 8.20447 23.717 8.72547C23.902 9.18847 23.605 9.64547 23.279 9.95447C22.564 10.6595 21.869 11.3845 21.174 12.1105C20.921 12.4165 20.474 12.4985 20.116 12.3335C19.599 12.1195 19.459 11.3435 19.849 10.9495C20.726 10.0575 21.5 9.05747 22.459 8.24947V8.24847ZM8.49099 8.39247C8.94599 8.11747 9.50899 8.29947 9.84599 8.67247C10.604 9.43747 11.386 10.1765 12.151 10.9295C12.658 11.3975 12.304 12.3895 11.597 12.3935C11.005 12.4835 10.691 11.8985 10.295 11.5785C9.60099 11.0035 8.96499 10.3635 8.33499 9.71847C7.97899 9.35147 8.08499 8.67747 8.49199 8.39247H8.49099ZM9.07899 12.9125C9.84199 12.6175 10.587 13.5795 10.111 14.2425C9.54799 14.9765 8.81499 15.5675 8.20099 16.2605C7.83799 16.6335 7.50099 17.2075 6.89599 17.1345C6.18899 17.1075 5.83399 16.1245 6.34799 15.6475C7.27699 14.7585 8.01399 13.6345 9.07999 12.9115L9.07899 12.9125ZM24.555 15.0395C25.08 14.6965 25.872 15.0865 25.889 15.7195C25.966 16.3135 25.376 16.6275 25.051 17.0275C24.479 17.7155 23.851 18.3575 23.203 18.9755C22.729 19.4225 21.845 19.1085 21.76 18.4605C21.649 17.7915 22.277 17.3765 22.673 16.9485C23.329 16.3395 23.883 15.6225 24.555 15.0395ZM11.07 19.7445C11.58 19.4395 12.353 19.8015 12.365 20.4205C12.46 21.0185 11.869 21.3355 11.546 21.7345C10.976 22.4245 10.34 23.0575 9.69799 23.6825C9.28099 24.1045 8.39099 23.9015 8.27299 23.2965C8.07099 22.7115 8.56699 22.2405 8.94499 21.8735C9.67799 21.1875 10.315 20.4035 11.07 19.7445ZM20.132 19.7215C20.414 19.6245 20.772 19.6165 21.01 19.8205C21.893 20.6595 22.833 21.4385 23.663 22.3345C23.919 22.5945 23.942 23.0295 23.772 23.3415C23.532 23.9025 22.71 23.9165 22.311 23.5195C21.505 22.7595 20.731 21.9605 19.921 21.2035C19.431 20.8235 19.546 19.9415 20.131 19.7215H20.132ZM13.332 21.8665C13.752 21.6395 14.246 21.8545 14.548 22.1745C15.3047 22.9351 16.0761 23.681 16.862 24.4115C17.382 24.9055 17.03 25.9085 16.297 25.9165C15.705 25.9865 15.397 25.3985 15 25.0765C14.3148 24.498 13.6637 23.8803 13.05 23.2265C12.676 22.8285 12.828 22.0865 13.332 21.8665ZM11.982 6.95947C11.982 7.18968 11.8905 7.41046 11.7278 7.57324C11.565 7.73602 11.3442 7.82747 11.114 7.82747C10.8838 7.82747 10.663 7.73602 10.5002 7.57324C10.3374 7.41046 10.246 7.18968 10.246 6.95947C10.2536 6.73449 10.3484 6.52128 10.5102 6.36483C10.6721 6.20838 10.8884 6.12093 11.1135 6.12093C11.3386 6.12093 11.5549 6.20838 11.7168 6.36483C11.8786 6.52128 11.9733 6.73449 11.981 6.95947H11.982ZM14.51 9.26747C14.51 9.49755 14.4186 9.7182 14.2559 9.88089C14.0932 10.0436 13.8726 10.135 13.6425 10.135C13.4124 10.135 13.1918 10.0436 13.0291 9.88089C12.8664 9.7182 12.775 9.49755 12.775 9.26747C12.775 9.0374 12.8664 8.81675 13.0291 8.65406C13.1918 8.49137 13.4124 8.39997 13.6425 8.39997C13.8726 8.39997 14.0932 8.49137 14.2559 8.65406C14.4186 8.81675 14.51 9.0374 14.51 9.26747ZM7.73599 11.3875C7.73994 11.5039 7.72043 11.6199 7.67861 11.7286C7.63679 11.8373 7.57353 11.9365 7.49259 12.0202C7.41164 12.1039 7.31467 12.1705 7.20745 12.216C7.10023 12.2615 6.98496 12.2849 6.86849 12.2849C6.75202 12.2849 6.63675 12.2615 6.52953 12.216C6.42231 12.1705 6.32534 12.1039 6.24439 12.0202C6.16345 11.9365 6.10018 11.8373 6.05837 11.7286C6.01655 11.6199 5.99704 11.5039 6.00099 11.3875C6.00863 11.1625 6.10337 10.9493 6.26522 10.7928C6.42708 10.6364 6.64338 10.5489 6.86849 10.5489C7.0936 10.5489 7.3099 10.6364 7.47175 10.7928C7.63361 10.9493 7.72835 11.1625 7.73599 11.3875ZM21.508 6.89047C21.508 7.12068 21.4165 7.34146 21.2538 7.50424C21.091 7.66702 20.8702 7.75847 20.64 7.75847C20.4098 7.75847 20.189 7.66702 20.0262 7.50424C19.8634 7.34146 19.772 7.12068 19.772 6.89047C19.772 6.66013 19.8635 6.43923 20.0264 6.27635C20.1892 6.11348 20.4101 6.02197 20.6405 6.02197C20.8708 6.02197 21.0917 6.11348 21.2546 6.27635C21.4175 6.43923 21.509 6.66013 21.509 6.89047H21.508ZM26.001 11.1705C26.001 11.4005 25.9096 11.6212 25.7469 11.7839C25.5842 11.9466 25.3636 12.038 25.1335 12.038C24.9034 12.038 24.6828 11.9466 24.5201 11.7839C24.3574 11.6212 24.266 11.4005 24.266 11.1705C24.266 10.9404 24.3574 10.7197 24.5201 10.5571C24.6828 10.3944 24.9034 10.303 25.1335 10.303C25.3636 10.303 25.5842 10.3944 25.7469 10.5571C25.9096 10.7197 26.001 10.9404 26.001 11.1705ZM23.63 13.6625C23.63 13.8925 23.5386 14.1132 23.3759 14.2759C23.2132 14.4386 22.9926 14.53 22.7625 14.53C22.5324 14.53 22.3118 14.4386 22.1491 14.2759C21.9864 14.1132 21.895 13.8925 21.895 13.6625C21.895 13.4324 21.9864 13.2117 22.1491 13.0491C22.3118 12.8864 22.5324 12.795 22.7625 12.795C22.9926 12.795 23.2132 12.8864 23.3759 13.0491C23.5386 13.2117 23.63 13.4324 23.63 13.6625ZM25.997 20.6685C25.997 20.8985 25.9056 21.1192 25.7429 21.2819C25.5802 21.4446 25.3596 21.536 25.1295 21.536C24.8994 21.536 24.6788 21.4446 24.5161 21.2819C24.3534 21.1192 24.262 20.8985 24.262 20.6685C24.262 20.4384 24.3534 20.2177 24.5161 20.0551C24.6788 19.8924 24.8994 19.801 25.1295 19.801C25.3596 19.801 25.5802 19.8924 25.7429 20.0551C25.9056 20.2177 25.997 20.4384 25.997 20.6685ZM19.231 22.7845C19.2349 22.9009 19.2154 23.0169 19.1736 23.1256C19.1318 23.2343 19.0685 23.3335 18.9876 23.4172C18.9066 23.5009 18.8097 23.5675 18.7024 23.613C18.5952 23.6585 18.48 23.6819 18.3635 23.6819C18.247 23.6819 18.1317 23.6585 18.0245 23.613C17.9173 23.5675 17.8203 23.5009 17.7394 23.4172C17.6584 23.3335 17.5952 23.2343 17.5534 23.1256C17.5115 23.0169 17.492 22.9009 17.496 22.7845C17.5036 22.5595 17.5984 22.3463 17.7602 22.1898C17.9221 22.0334 18.1384 21.9459 18.3635 21.9459C18.5886 21.9459 18.8049 22.0334 18.9668 22.1898C19.1286 22.3463 19.2233 22.5595 19.231 22.7845ZM21.727 25.1565C21.7309 25.2729 21.7114 25.3889 21.6696 25.4976C21.6278 25.6063 21.5645 25.7055 21.4836 25.7892C21.4026 25.8729 21.3057 25.9395 21.1985 25.985C21.0912 26.0305 20.976 26.0539 20.8595 26.0539C20.743 26.0539 20.6277 26.0305 20.5205 25.985C20.4133 25.9395 20.3163 25.8729 20.2354 25.7892C20.1544 25.7055 20.0912 25.6063 20.0494 25.4976C20.0075 25.3889 19.988 25.2729 19.992 25.1565C19.9996 24.9315 20.0944 24.7183 20.2562 24.5618C20.4181 24.4054 20.6344 24.3179 20.8595 24.3179C21.0846 24.3179 21.3009 24.4054 21.4628 24.5618C21.6246 24.7183 21.7193 24.9315 21.727 25.1565ZM12.227 25.1565C12.227 25.3867 12.1355 25.6075 11.9728 25.7702C11.81 25.933 11.5892 26.0245 11.359 26.0245C11.1288 26.0245 10.908 25.933 10.7452 25.7702C10.5824 25.6075 10.491 25.3867 10.491 25.1565C10.4986 24.9315 10.5934 24.7183 10.7552 24.5618C10.9171 24.4054 11.1334 24.3179 11.3585 24.3179C11.5836 24.3179 11.7999 24.4054 11.9618 24.5618C12.1236 24.7183 12.2183 24.9315 12.226 25.1565H12.227ZM10.11 18.3625C10.1139 18.4789 10.0944 18.5949 10.0526 18.7036C10.0108 18.8123 9.94753 18.9115 9.86659 18.9952C9.78564 19.0789 9.68867 19.1455 9.58145 19.191C9.47423 19.2365 9.35896 19.2599 9.24249 19.2599C9.12602 19.2599 9.01075 19.2365 8.90353 19.191C8.79631 19.1455 8.69934 19.0789 8.61839 18.9952C8.53745 18.9115 8.47418 18.8123 8.43237 18.7036C8.39055 18.5949 8.37104 18.4789 8.37499 18.3625C8.38263 18.1375 8.47737 17.9243 8.63922 17.7678C8.80108 17.6114 9.01738 17.5239 9.24249 17.5239C9.4676 17.5239 9.6839 17.6114 9.84575 17.7678C10.0076 17.9243 10.1023 18.1375 10.11 18.3625ZM7.73599 20.8835C7.73994 20.9999 7.72043 21.1159 7.67861 21.2246C7.63679 21.3333 7.57353 21.4325 7.49259 21.5162C7.41164 21.5999 7.31467 21.6665 7.20745 21.712C7.10023 21.7575 6.98496 21.7809 6.86849 21.7809C6.75202 21.7809 6.63675 21.7575 6.52953 21.712C6.42231 21.6665 6.32534 21.5999 6.24439 21.5162C6.16345 21.4325 6.10018 21.3333 6.05837 21.2246C6.01655 21.1159 5.99704 20.9999 6.00099 20.8835C6.00863 20.6585 6.10337 20.4453 6.26522 20.2888C6.42708 20.1324 6.64338 20.0449 6.86849 20.0449C7.0936 20.0449 7.3099 20.1324 7.47175 20.2888C7.63361 20.4453 7.72835 20.6585 7.73599 20.8835Z" fill="white"/>
</g>
<defs>
<clipPath id="clip0_1_6531">
<rect width="32" height="32" fill="white" transform="translate(0.000488281 0.0219727)"/>
</clipPath>
</defs>
</svg>
