<svg width="32" height="33" viewBox="0 0 32 33" fill="none" xmlns="http://www.w3.org/2000/svg">
<g clip-path="url(#clip0_1_6527)">
<path d="M16.0005 32.022C24.837 32.022 32.0005 24.8585 32.0005 16.022C32.0005 7.18542 24.837 0.0219727 16.0005 0.0219727C7.16393 0.0219727 0.000488281 7.18542 0.000488281 16.022C0.000488281 24.8585 7.16393 32.022 16.0005 32.022Z" fill="#F7931E"/>
<path d="M16.0005 4.02197C9.37349 4.02197 4.00049 9.39497 4.00049 16.022C4.00049 22.649 9.37349 28.022 16.0005 28.022C22.6275 28.022 28.0005 22.649 28.0005 16.022C28.0005 12.8394 26.7362 9.78713 24.4858 7.53669C22.2353 5.28625 19.1831 4.02197 16.0005 4.02197ZM22.0005 9.83497C22.5972 9.83497 23.1695 10.072 23.5915 10.494C24.0134 10.9159 24.2505 11.4882 24.2505 12.085V15.459C24.2505 16.0557 24.0134 16.628 23.5915 17.05C23.1695 17.4719 22.5972 17.709 22.0005 17.709H19.2145L19.0345 18.553C19.01 18.6564 18.9524 18.749 18.8704 18.8167C18.7885 18.8844 18.6867 18.9234 18.5805 18.928H18.0175C17.9709 18.9299 17.9246 18.9208 17.8822 18.9014C17.8399 18.8819 17.8028 18.8526 17.774 18.816C17.7452 18.7794 17.7255 18.7364 17.7165 18.6907C17.7076 18.645 17.7096 18.5978 17.7225 18.553L17.9025 17.71H16.5895L16.4095 18.553C16.385 18.6564 16.3274 18.749 16.2454 18.8167C16.1635 18.8844 16.0617 18.9234 15.9555 18.928H15.3925C15.3459 18.9299 15.2996 18.9208 15.2572 18.9014C15.2149 18.8819 15.1778 18.8526 15.149 18.816C15.1202 18.7794 15.1005 18.7364 15.0915 18.6907C15.0826 18.645 15.0846 18.5978 15.0975 18.553L15.2775 17.71H13.8705L12.6345 23.522H9.63449L11.8265 13.209H14.8265L14.3485 15.459H20.1255C20.7465 15.459 21.2505 14.956 21.2505 14.335V13.209C21.2505 12.589 20.7465 12.085 20.1255 12.085H7.75049L9.62549 9.83497H16.9515L17.1305 8.99097C17.155 8.88755 17.2126 8.79497 17.2946 8.72728C17.3765 8.6596 17.4783 8.62051 17.5845 8.61597H18.1475C18.194 8.614 18.2404 8.62312 18.2828 8.64259C18.3251 8.66205 18.3622 8.69131 18.391 8.72793C18.4198 8.76456 18.4395 8.80751 18.4485 8.85325C18.4574 8.89898 18.4554 8.94619 18.4425 8.99097L18.2635 9.83497H19.5765L19.7555 8.99097C19.78 8.88755 19.8376 8.79497 19.9196 8.72728C20.0015 8.6596 20.1033 8.62051 20.2095 8.61597H20.7725C20.819 8.614 20.8654 8.62312 20.9078 8.64259C20.9501 8.66205 20.9872 8.69131 21.016 8.72793C21.0448 8.76456 21.0645 8.80751 21.0735 8.85325C21.0824 8.89898 21.0804 8.94619 21.0675 8.99097L20.8885 9.83497H22.0005Z" fill="white"/>
</g>
<defs>
<clipPath id="clip0_1_6527">
<rect width="32" height="32" fill="white" transform="translate(0.000488281 0.0219727)"/>
</clipPath>
</defs>
</svg>
