<svg width="32" height="33" viewBox="0 0 32 33" fill="none" xmlns="http://www.w3.org/2000/svg">
<g clip-path="url(#clip0_1_6523)">
<path d="M16.0005 32.022C24.837 32.022 32.0005 24.8585 32.0005 16.022C32.0005 7.18542 24.837 0.0219727 16.0005 0.0219727C7.16393 0.0219727 0.000488281 7.18542 0.000488281 16.022C0.000488281 24.8585 7.16393 32.022 16.0005 32.022Z" fill="#00ACFF"/>
<path fill-rule="evenodd" clip-rule="evenodd" d="M15.5803 20.178C15.6424 20.1522 15.7091 20.139 15.7764 20.139C15.8437 20.1391 15.9103 20.1525 15.9724 20.1784C16.0345 20.2044 16.0908 20.2423 16.1382 20.2901C16.1855 20.338 16.2229 20.3947 16.2483 20.457C16.3001 20.5828 16.3 20.7239 16.2481 20.8496C16.1962 20.9753 16.0967 21.0754 15.9713 21.128L12.5653 22.542L12.1133 25.022H9.76928L10.0263 23.596L8.64428 24.169C8.58213 24.1948 8.51549 24.2081 8.44819 24.208C8.3809 24.2079 8.31429 24.1945 8.25219 24.1686C8.1901 24.1426 8.13375 24.1047 8.0864 24.0569C8.03904 24.0091 8.00162 23.9523 7.97628 23.89C7.92481 23.7644 7.92503 23.6235 7.97691 23.498C8.02878 23.3725 8.12811 23.2726 8.25328 23.22L10.2433 22.394L10.3933 21.555L7.70628 22.67C7.64418 22.6957 7.57763 22.7088 7.51045 22.7086C7.44327 22.7085 7.37678 22.6951 7.3148 22.6691C7.25282 22.6432 7.19657 22.6053 7.14929 22.5576C7.10201 22.5098 7.06462 22.4532 7.03928 22.391C6.9875 22.2653 6.98756 22.1241 7.03946 21.9984C7.09135 21.8727 7.19087 21.7726 7.31628 21.72L10.6093 20.353L13.0073 7.03201H19.7803C23.9273 6.88901 26.0003 8.27401 26.0003 11.187C26.0003 14.882 23.2983 17.74 18.7153 17.74H13.4403L13.1573 19.296L14.6443 18.679C14.7064 18.6534 14.7729 18.6402 14.8401 18.6404C14.9073 18.6405 14.9738 18.654 15.0358 18.6799C15.0977 18.7058 15.154 18.7437 15.2013 18.7915C15.2486 18.8392 15.2859 18.8958 15.3113 18.958C15.3628 19.0837 15.3625 19.2245 15.3107 19.35C15.2588 19.4755 15.1594 19.5754 15.0343 19.628L12.9373 20.499L12.7843 21.339L15.5803 20.178ZM15.0103 9.13101L13.8383 15.556H19.0563C22.2683 15.556 23.4863 13.371 23.4863 11.786C23.4863 10.202 22.7203 9.13101 20.1643 9.13101H15.0103Z" fill="white"/>
</g>
<defs>
<clipPath id="clip0_1_6523">
<rect width="32" height="32" fill="white" transform="translate(0.000488281 0.0219727)"/>
</clipPath>
</defs>
</svg>
