<svg width="32" height="33" viewBox="0 0 32 33" fill="none" xmlns="http://www.w3.org/2000/svg">
<g clip-path="url(#clip0_1_6519)">
<path d="M16.001 32.022C24.8375 32.022 32.001 24.8585 32.001 16.022C32.001 7.18542 24.8375 0.0219727 16.001 0.0219727C7.16442 0.0219727 0.000976562 7.18542 0.000976562 16.022C0.000976562 24.8585 7.16442 32.022 16.001 32.022Z" fill="#EDE708"/>
<path d="M26.8847 13.392L27.3847 14.142C28.3847 11.622 28.1547 9.65197 27.2547 8.79197C25.6347 7.23197 23.2547 8.10197 20.6747 7.02197C18.5247 5.44197 17.2247 5.02197 15.4347 5.02197C14.2121 5.23229 13.0803 5.80343 12.1847 6.66197C11.4627 6.61974 10.7401 6.73467 10.0668 6.99882C9.39343 7.26296 8.78544 7.67004 8.28472 8.19197C7.22472 9.44197 6.98472 12.872 6.82472 13.742C6.66472 14.612 4.82472 18.122 5.01472 20.042C5.20472 21.962 6.61472 24.042 10.6047 24.532C11.3445 25.3912 12.2675 26.0735 13.3059 26.5286C14.3443 26.9838 15.4716 27.2002 16.6047 27.162C18.6947 26.942 21.6047 23.742 23.2947 22.472C24.9847 21.202 31.0047 20.102 27.4147 14.192C27.2608 13.9337 27.094 13.6834 26.9147 13.442L26.8847 13.392ZM17.7547 22.192C16.2346 22.4868 14.6592 22.2428 13.2995 21.5018C11.9399 20.7608 10.8809 19.5693 10.3047 18.132C10.0847 17.272 9.65472 12.892 13.3047 10.722C16.0247 9.18197 19.8547 8.97197 21.4647 12.562C23.0747 16.152 22.4847 21.182 17.7547 22.192Z" fill="white"/>
</g>
<defs>
<clipPath id="clip0_1_6519">
<rect width="32" height="32" fill="white" transform="translate(0.000976562 0.0219727)"/>
</clipPath>
</defs>
</svg>
