<svg width="32" height="33" viewBox="0 0 32 33" fill="none" xmlns="http://www.w3.org/2000/svg">
<g clip-path="url(#clip0_1_6515)">
<path d="M16.001 32.022C24.8375 32.022 32.001 24.8585 32.001 16.022C32.001 7.18542 24.8375 0.0219727 16.001 0.0219727C7.16442 0.0219727 0.000976562 7.18542 0.000976562 16.022C0.000976562 24.8585 7.16442 32.022 16.001 32.022Z" fill="#302C2C"/>
<path d="M26.911 15.718C26.8561 15.6069 26.7835 15.5056 26.696 15.418C24.794 13.264 20.923 9.02197 20.923 9.02197L16.006 14.4L11.026 9.07297C11.026 9.07297 7.10998 13.352 5.19098 15.529C4.94098 15.775 4.94098 16.219 5.16498 16.481C6.16198 17.617 11.059 23.017 11.059 23.017L15.999 17.603L20.905 23.022L26.822 16.476C26.822 16.476 26.947 16.346 26.974 16.259C27.032 16.079 26.99 15.883 26.911 15.718ZM7.91898 16.317C7.75898 16.128 7.81298 15.831 7.96198 15.652C8.58798 14.939 11.093 12.252 11.093 12.252L14.583 15.957L11.087 19.781C11.087 19.781 8.94698 17.497 7.91898 16.317ZM23.907 16.443C23.8333 16.5693 23.7476 16.6882 23.651 16.798L20.941 19.743L17.441 16.022L20.885 12.247C20.885 12.247 22.869 14.302 23.778 15.407C23.855 15.503 23.946 15.594 23.985 15.716C24.068 15.955 24.015 16.221 23.906 16.442" fill="white"/>
</g>
<defs>
<clipPath id="clip0_1_6515">
<rect width="32" height="32" fill="white" transform="translate(0.000976562 0.0219727)"/>
</clipPath>
</defs>
</svg>
