<svg width="32" height="33" viewBox="0 0 32 33" fill="none" xmlns="http://www.w3.org/2000/svg">
<g clip-path="url(#clip0_1_6509)">
<path d="M16.001 32.022C24.8375 32.022 32.001 24.8585 32.001 16.022C32.001 7.18542 24.8375 0.0219727 16.001 0.0219727C7.16442 0.0219727 0.000976562 7.18542 0.000976562 16.022C0.000976562 24.8585 7.16442 32.022 16.001 32.022Z" fill="#663300"/>
<path d="M12.001 10.085L13.251 7.02197L21.813 7.05297C23.063 7.14697 24.563 7.14697 25.407 8.20997C26.407 9.36597 26.188 11.022 25.688 12.334C25.2061 13.7459 24.3696 15.0105 23.2588 16.0065C22.148 17.0024 20.8 17.6964 19.344 18.022C17.282 18.335 15.188 18.241 13.094 18.241C13.511 17.224 13.928 16.203 14.344 15.178C16.063 15.178 17.813 15.272 19.563 14.991C21.157 14.585 22.626 12.991 22.376 11.241C22.219 10.491 21.376 10.147 20.656 10.147C17.782 10.022 14.906 10.147 12.032 10.084H12.001V10.085Z" fill="white"/>
<path d="M8.00098 11.022H18.157L16.814 14.491H6.62498L8.00098 11.053V11.023V11.022ZM9.62598 15.272H13.157L9.47098 24.647H6.00098L9.65698 15.272H9.62598Z" fill="white"/>
</g>
<defs>
<clipPath id="clip0_1_6509">
<rect width="32" height="32" fill="white" transform="translate(0.000976562 0.0219727)"/>
</clipPath>
</defs>
</svg>
