<svg width="32" height="33" viewBox="0 0 32 33" fill="none" xmlns="http://www.w3.org/2000/svg">
<g clip-path="url(#clip0_1_6503)">
<path d="M16 32.0234C24.8366 32.0234 32 24.86 32 16.0234C32 7.18688 24.8366 0.0234375 16 0.0234375C7.16344 0.0234375 0 7.18688 0 16.0234C0 24.86 7.16344 32.0234 16 32.0234Z" fill="#ED79AA"/>
<path opacity="0.5" fill-rule="evenodd" clip-rule="evenodd" d="M22.952 8.95244L21.082 10.8354C20.4083 10.154 19.6059 9.61318 18.7215 9.24428C17.8371 8.87538 16.8883 8.68577 15.93 8.68644C12.015 8.68644 8.82002 11.7964 8.65202 15.6964H8.64402V22.8184C6.93919 20.9668 5.99508 18.5404 6.00002 16.0234C6.00002 10.5004 10.446 6.02344 15.93 6.02344C17.2361 6.02251 18.5293 6.28094 19.7348 6.78374C20.9402 7.28654 22.0337 8.02369 22.952 8.95244ZM22.952 23.0944C21.1368 24.931 18.6739 25.9825 16.092 26.0234V23.3594C17.971 23.3188 19.7605 22.5488 21.082 21.2124L22.952 23.0944Z" fill="white"/>
<path fill-rule="evenodd" clip-rule="evenodd" d="M11 24.8074V15.6974H11.007C11.147 13.0924 13.289 11.0234 15.911 11.0234C18.623 11.0234 20.822 13.2374 20.822 15.9694C20.822 18.7004 18.623 20.9144 15.912 20.9144C15.0385 20.9159 14.1808 20.682 13.429 20.2374V25.7484C12.5812 25.5443 11.7643 25.2282 11 24.8084V24.8074ZM15.911 18.4694C16.2382 18.4684 16.562 18.4029 16.8639 18.2767C17.1658 18.1505 17.4398 17.966 17.6704 17.7338C17.901 17.5017 18.0836 17.2264 18.2077 16.9236C18.3319 16.6209 18.3952 16.2966 18.394 15.9694C18.394 14.5884 17.282 13.4694 15.911 13.4694C15.5839 13.4706 15.2602 13.5362 14.9584 13.6625C14.6566 13.7888 14.3827 13.9732 14.1522 14.2054C13.9218 14.4375 13.7393 14.7128 13.6152 15.0155C13.4911 15.3182 13.4278 15.6423 13.429 15.9694C13.429 17.3494 14.54 18.4694 15.911 18.4694Z" fill="white"/>
</g>
<defs>
<clipPath id="clip0_1_6503">
<rect width="32" height="32" fill="white" transform="translate(0 0.0234375)"/>
</clipPath>
</defs>
</svg>
