<svg width="32" height="33" viewBox="0 0 32 33" fill="none" xmlns="http://www.w3.org/2000/svg">
<g clip-path="url(#clip0_1_6499)">
<path d="M16 32.0234C24.8366 32.0234 32 24.86 32 16.0234C32 7.18688 24.8366 0.0234375 16 0.0234375C7.16344 0.0234375 0 7.18688 0 16.0234C0 24.86 7.16344 32.0234 16 32.0234Z" fill="#96B73D"/>
<path d="M11.594 16.1284C11.68 16.3864 11.807 16.6284 11.971 16.8464L9.478 14.3284C9.21823 14.0664 9.07247 13.7124 9.07247 13.3434C9.07247 12.9745 9.21823 12.6204 9.478 12.3584L12.623 9.21144C12.688 9.16344 12.75 9.11144 12.81 9.05744L12.901 8.97744L15.448 6.42844C15.5761 6.2998 15.7284 6.19779 15.8961 6.12827C16.0638 6.05875 16.2436 6.0231 16.4251 6.02338C16.6067 6.02366 16.7864 6.05986 16.9538 6.12989C17.1213 6.19993 17.2733 6.30241 17.401 6.43144L25.744 14.8344C25.9341 15.1046 26.0232 15.4331 25.9956 15.7624C25.968 16.0916 25.8255 16.4007 25.593 16.6354C25.3635 16.8669 25.0615 17.0125 24.7375 17.048C24.4135 17.0835 24.0872 17.0067 23.813 16.8304L16.443 9.39044L16.435 9.38044L16.411 9.35444L12.468 13.2984L12.408 13.3484C12.4057 13.3511 12.4034 13.3538 12.401 13.3564L16.297 17.2834C16.4685 17.4568 16.5918 17.672 16.6545 17.9076C16.7172 18.1433 16.7173 18.3912 16.6546 18.6269C16.592 18.8626 16.4688 19.0778 16.2973 19.2512C16.1258 19.4246 15.912 19.5502 15.677 19.6154C15.4421 19.6787 15.1947 19.6787 14.9598 19.6152C14.725 19.5518 14.5111 19.4273 14.34 19.2544L12.344 17.2444C12.315 17.2184 12.286 17.1844 12.25 17.1484L12.158 17.0564C12.0911 16.9811 12.0287 16.902 11.971 16.8194L12.016 16.8724L11.986 16.8334C11.8185 16.6209 11.6861 16.3829 11.594 16.1284ZM19.74 18.7014L15.839 14.7724C15.5792 14.5104 15.4335 14.1564 15.4335 13.7874C15.4335 13.4185 15.5792 13.0644 15.839 12.8024C15.9674 12.6737 16.1199 12.5715 16.2879 12.502C16.4559 12.4325 16.636 12.3968 16.8178 12.3972C16.9997 12.3976 17.1796 12.4339 17.3473 12.5042C17.515 12.5744 17.6672 12.6771 17.795 12.8064L19.792 14.8164C19.82 14.8414 19.849 14.8764 19.886 14.9114L19.977 15.0034C20.029 15.0614 20.077 15.1234 20.121 15.1864L20.143 15.2134C20.1149 15.1733 20.0863 15.1337 20.057 15.0944L22.667 17.7214C22.9271 17.9837 23.0731 18.3381 23.0731 18.7074C23.0731 19.0768 22.9271 19.4312 22.667 19.6934L19.52 22.8414C19.4541 22.8885 19.3907 22.9389 19.33 22.9924L16.706 25.6164C16.5781 25.7454 16.4259 25.8478 16.2582 25.9177C16.0905 25.9875 15.9107 26.0235 15.729 26.0235C15.5473 26.0235 15.3675 25.9875 15.1998 25.9177C15.0321 25.8478 14.8799 25.7454 14.752 25.6164L6.275 17.0694C6.06846 16.7892 5.97306 16.4424 6.00723 16.0959C6.04139 15.7495 6.2027 15.4279 6.46 15.1934C6.71649 14.9602 7.05125 14.8317 7.39795 14.8336C7.74466 14.8354 8.07802 14.9674 8.332 15.2034L15.716 22.6584L15.741 22.6884L19.676 18.7544L19.734 18.7074C19.736 18.7054 19.738 18.7034 19.74 18.7014Z" fill="white"/>
</g>
<defs>
<clipPath id="clip0_1_6499">
<rect width="32" height="32" fill="white" transform="translate(0 0.0234375)"/>
</clipPath>
</defs>
</svg>
