<svg width="32" height="33" viewBox="0 0 32 33" fill="none" xmlns="http://www.w3.org/2000/svg">
<g clip-path="url(#clip0_1_6495)">
<path d="M16 32.0234C24.8366 32.0234 32 24.86 32 16.0234C32 7.18688 24.8366 0.0234375 16 0.0234375C7.16344 0.0234375 0 7.18688 0 16.0234C0 24.86 7.16344 32.0234 16 32.0234Z" fill="#5E4778"/>
<path fill-rule="evenodd" clip-rule="evenodd" d="M11 12.2644H17.153V13.5194H11V12.2644ZM23 12.8544C23 15.8284 20.89 17.7494 17.972 17.7494H13.93V24.0234H12.33V16.3304H17.755C19.93 16.3304 21.35 15.0384 21.35 12.8544C21.35 10.6964 19.93 9.44144 17.78 9.44144H16.092L12.049 9.45444V8.02344H17.959C20.889 8.02344 22.999 9.88044 22.999 12.8544H23Z" fill="white" stroke="white"/>
</g>
<defs>
<clipPath id="clip0_1_6495">
<rect width="32" height="32" fill="white" transform="translate(0 0.0234375)"/>
</clipPath>
</defs>
</svg>
