<svg width="32" height="33" viewBox="0 0 32 33" fill="none" xmlns="http://www.w3.org/2000/svg">
<g clip-path="url(#clip0_1_6491)">
<path d="M16 32.0234C24.8366 32.0234 32 24.86 32 16.0234C32 7.18688 24.8366 0.0234375 16 0.0234375C7.16344 0.0234375 0 7.18688 0 16.0234C0 24.86 7.16344 32.0234 16 32.0234Z" fill="#00BFFF"/>
<path d="M8.41 20.9254H8.312V25.0234H6V11.1484H8.26V11.7884H8.349C9.138 11.0324 10.143 11.0114 10.707 11.0114C13.071 11.0114 14.621 13.2644 14.621 16.2734V16.6634C14.621 19.7944 12.827 21.6604 10.667 21.6604C9.656 21.6634 8.907 21.4324 8.41 20.9254ZM12.474 16.8494V16.1664C12.474 14.2064 11.727 12.8954 10.396 12.8954C8.958 12.8954 8.187 14.4194 8.187 16.1664V16.8464C8.187 18.5114 8.946 19.7864 10.436 19.7864C11.609 19.7824 12.474 18.8684 12.474 16.8494ZM15.74 7.02344H18.055V21.5994H15.74V7.02344ZM24.669 13.4324C23.371 13.4324 22.082 14.4624 22.082 15.7644V21.6084H19.78V11.2464H21.913V11.8834H22C22.518 11.3374 23.785 11.0814 24.827 11.0964C24.931 11.0964 24.845 11.0994 24.946 11.0994L24.958 13.4324H24.669ZM23.697 19.1184H26V21.5994H23.697V19.1184Z" fill="white"/>
</g>
<defs>
<clipPath id="clip0_1_6491">
<rect width="32" height="32" fill="white" transform="translate(0 0.0234375)"/>
</clipPath>
</defs>
</svg>
