<svg width="32" height="33" viewBox="0 0 32 33" fill="none" xmlns="http://www.w3.org/2000/svg">
<g clip-path="url(#clip0_1_6487)">
<path d="M16 32.0234C24.8366 32.0234 32 24.86 32 16.0234C32 7.18688 24.8366 0.0234375 16 0.0234375C7.16344 0.0234375 0 7.18688 0 16.0234C0 24.86 7.16344 32.0234 16 32.0234Z" fill="#444FA1"/>
<path d="M5 24.0234L16 5.02344L27 24.0234H5ZM11.872 14.3474C13.157 13.4894 14.535 13.0564 16 13.0564C17.465 13.0564 18.843 13.4894 20.128 14.3474L16 7.21744L11.872 14.3474ZM9.921 17.7174L6.924 22.8944H25.076L22.079 17.7184C20.269 19.7074 18.236 20.7174 16 20.7174C13.764 20.7174 11.73 19.7074 9.92 17.7174H9.921ZM16 19.5884C17.938 19.5884 19.711 18.6984 21.338 16.8884C19.711 15.0754 17.938 14.1864 16 14.1864C14.062 14.1864 12.289 15.0764 10.662 16.8874C12.289 18.6994 14.062 19.5894 16 19.5894V19.5884ZM16 19.1054C14.84 19.1054 13.899 18.1304 13.899 16.9274C13.899 15.7254 14.839 14.7504 16 14.7504C17.161 14.7504 18.101 15.7254 18.101 16.9274C18.101 18.1304 17.161 19.1054 16 19.1054ZM16 17.9754C16.559 17.9754 17.012 17.5064 17.012 16.9274C17.012 16.3484 16.559 15.8794 16 15.8794C15.441 15.8794 14.988 16.3494 14.988 16.9274C14.988 17.5074 15.441 17.9764 16 17.9764V17.9754Z" fill="white"/>
</g>
<defs>
<clipPath id="clip0_1_6487">
<rect width="32" height="32" fill="white" transform="translate(0 0.0234375)"/>
</clipPath>
</defs>
</svg>
