<svg width="32" height="33" viewBox="0 0 32 33" fill="none" xmlns="http://www.w3.org/2000/svg">
<g clip-path="url(#clip0_1_6483)">
<path d="M16 32.0234C24.8366 32.0234 32 24.86 32 16.0234C32 7.18688 24.8366 0.0234375 16 0.0234375C7.16344 0.0234375 0 7.18688 0 16.0234C0 24.86 7.16344 32.0234 16 32.0234Z" fill="#DCD6CC"/>
<path d="M24.758 8.25545C23.9542 7.46353 22.8704 7.02079 21.742 7.02345C20.597 7.02345 19.531 7.46345 18.726 8.25545L8.87 17.9614C8.8203 18.0113 8.78169 18.0711 8.7567 18.137C8.73171 18.2028 8.72091 18.2732 8.725 18.3434V23.3394L6 26.0234H7.503L9.521 24.0364H14.565C14.6358 24.0372 14.706 24.0231 14.7711 23.9952C14.8361 23.9673 14.8947 23.9262 14.943 23.8744L24.749 14.2164L24.759 14.2064C25.1514 13.8199 25.4631 13.3593 25.6761 12.8514C25.8891 12.3434 25.9992 11.7982 26 11.2474C26.0027 10.6914 25.8942 10.1405 25.681 9.62702C25.4677 9.11354 25.1539 8.64789 24.758 8.25745V8.25545ZM19.026 9.38345L19.443 8.97345C20.0555 8.36984 20.8821 8.03331 21.742 8.03745C22.605 8.03745 23.42 8.37145 24.041 8.97345C24.051 8.98345 24.061 9.00145 24.08 9.01145C24.671 9.61345 24.991 10.3964 24.991 11.2374C24.991 12.0874 24.651 12.8894 24.041 13.5014L23.614 13.9214H19.802L22.305 11.4564C22.4007 11.363 22.4562 11.236 22.4597 11.1023C22.4633 10.9686 22.4146 10.8388 22.324 10.7404C22.314 10.7304 22.314 10.7204 22.304 10.7114C22.2037 10.6152 22.07 10.5615 21.931 10.5615C21.792 10.5615 21.6584 10.6152 21.558 10.7114L19.036 13.1954V9.38245L19.026 9.38345ZM10.55 23.0244L12.606 20.9984H16.418L14.362 23.0244H10.55ZM16.534 17.1204L18.969 14.7224H22.781L20.346 17.1204H16.534ZM19.512 17.9424L17.242 20.1774H13.43L15.7 17.9424H19.512ZM15.759 12.6024L18.203 10.1944V13.9964L15.759 16.4134V12.6024ZM12.655 15.6584L14.925 13.4234V17.2254L12.655 19.4604V15.6584ZM9.745 18.5244L11.83 16.4804V20.2824L9.745 22.3264V18.5244Z" fill="white"/>
</g>
<defs>
<clipPath id="clip0_1_6483">
<rect width="32" height="32" fill="white" transform="translate(0 0.0234375)"/>
</clipPath>
</defs>
</svg>
