<svg width="32" height="33" viewBox="0 0 32 33" fill="none" xmlns="http://www.w3.org/2000/svg">
<g clip-path="url(#clip0_1_6479)">
<path d="M16.0005 32.0234C24.837 32.0234 32.0005 24.86 32.0005 16.0234C32.0005 7.18688 24.837 0.0234375 16.0005 0.0234375C7.16393 0.0234375 0.000488281 7.18688 0.000488281 16.0234C0.000488281 24.86 7.16393 32.0234 16.0005 32.0234Z" fill="#2C3E50"/>
<path d="M25.6365 22.7034V21.7034C25.6365 21.5054 25.5035 21.3734 25.3015 21.3734H24.6365V20.3694C24.6365 20.1704 24.5035 20.0354 24.3055 20.0354H23.6395V12.6904H24.3015C24.5005 12.6904 24.6365 12.5584 24.6365 12.3564V11.3564H25.3015C25.3798 11.3597 25.4567 11.3343 25.5176 11.285C25.5786 11.2356 25.6194 11.1657 25.6325 11.0884C25.6665 10.9224 25.5995 10.7904 25.4675 10.7204L16.1495 6.04844C16.0529 6.01537 15.9481 6.01537 15.8515 6.04844L6.19949 10.7204C6.13612 10.7549 6.08567 10.8091 6.05573 10.8747C6.0258 10.9404 6.01799 11.014 6.03349 11.0844C6.03349 11.2544 6.16649 11.3564 6.33149 11.3564H7.33149V12.3564C7.33149 12.5544 7.46449 12.6864 7.66249 12.6864H8.32849V20.0354H7.66649C7.46649 20.0354 7.33149 20.1674 7.33149 20.3654V21.3694H6.66649C6.46649 21.3694 6.33449 21.5014 6.33449 21.7004V22.7034C6.13649 22.7034 6.00049 22.8364 6.00049 23.0384C6.00049 23.2404 6.13249 23.3724 6.33149 23.3724H25.6365C25.8345 23.3724 25.9705 23.2404 25.9705 23.0424C25.9705 22.8424 25.8385 22.7034 25.6405 22.7034H25.6365ZM7.99349 12.0214V11.3564H23.9675V12.0214H7.99349ZM21.6365 12.6914V20.0354H20.3085V12.6904H21.6365V12.6914ZM18.3085 12.6914V20.0354H16.9775V12.6904H18.3075L18.3085 12.6914ZM14.9805 12.6914V20.0354H13.6525V12.6904H14.9805V12.6914ZM11.6525 12.6914V20.0354H10.3255V12.6904H11.6525V12.6914ZM23.9675 21.3694H7.99749V20.7004H23.9705V21.3694H23.9675Z" fill="white"/>
</g>
<defs>
<clipPath id="clip0_1_6479">
<rect width="32" height="32" fill="white" transform="translate(0.000488281 0.0234375)"/>
</clipPath>
</defs>
</svg>
