<svg width="32" height="33" viewBox="0 0 32 33" fill="none" xmlns="http://www.w3.org/2000/svg">
<g clip-path="url(#clip0_1_6475)">
<path d="M16.0005 32.0234C24.837 32.0234 32.0005 24.86 32.0005 16.0234C32.0005 7.18688 24.837 0.0234375 16.0005 0.0234375C7.16393 0.0234375 0.000488281 7.18688 0.000488281 16.0234C0.000488281 24.86 7.16393 32.0234 16.0005 32.0234Z" fill="#4C5A95"/>
<path d="M27.0005 11.2864L26.9565 10.5794L26.7385 11.1724L25.5125 12.2024L24.1085 12.4114L23.6885 12.0224L24.9195 10.3894L26.1795 10.0234L24.8155 10.0514L22.8325 11.4334L20.9735 11.3054L18.3635 10.0234L16.8215 10.3224L12.0105 14.1684L9.69249 14.8854L8.73849 15.8164L7.03249 15.8394L6.18749 17.3494L5.00049 17.6774L6.12249 17.8244L7.16549 16.4714L8.77749 16.7944L8.74749 18.2424L7.94249 20.3264L7.48249 22.2544L6.98749 23.0234L8.24349 22.7574L8.10049 21.9694L9.16849 19.8514L11.2245 19.0544L12.0205 17.7864L13.3655 16.8464L16.0355 17.2214L18.7245 16.0864L18.2695 17.8814L17.0735 17.9854L16.7325 19.4574L17.7555 18.8024L19.4515 18.0954L20.7765 16.0964L20.8605 15.1514L21.5725 15.8584L23.6435 17.1074L24.8205 16.5704L24.7515 13.9314L24.4095 12.9104L25.9475 12.5354L27.0005 11.2864Z" fill="white"/>
</g>
<defs>
<clipPath id="clip0_1_6475">
<rect width="32" height="32" fill="white" transform="translate(0.000488281 0.0234375)"/>
</clipPath>
</defs>
</svg>
