<svg width="32" height="33" viewBox="0 0 32 33" fill="none" xmlns="http://www.w3.org/2000/svg">
<g clip-path="url(#clip0_1_6471)">
<path d="M16.0005 32.0234C24.837 32.0234 32.0005 24.86 32.0005 16.0234C32.0005 7.18688 24.837 0.0234375 16.0005 0.0234375C7.16393 0.0234375 0.000488281 7.18688 0.000488281 16.0234C0.000488281 24.86 7.16393 32.0234 16.0005 32.0234Z" fill="#105B2F"/>
<path fill-rule="evenodd" clip-rule="evenodd" d="M12.0335 18.2034L11.6435 20.1904L10.9335 23.8414C10.9135 23.9514 10.8855 24.0254 10.7455 24.0234C9.86349 24.0104 8.98149 24.0034 8.09949 23.9934C8.07849 23.9934 8.05649 23.9794 8.00049 23.9584L9.99049 14.0184H8.31349C8.31749 13.9444 8.31549 13.9004 8.32349 13.8584C8.42649 13.3214 8.53749 12.7854 8.63049 12.2464C8.65649 12.0964 8.72349 12.0584 8.86349 12.0594C9.27349 12.0634 9.68349 12.0484 10.0915 12.0624C10.2865 12.0684 10.3615 12.0124 10.3995 11.8204C10.6275 10.6324 10.8715 9.44844 11.1055 8.26244C11.1335 8.12144 11.1645 8.02444 11.3485 8.02444C13.3565 8.03044 15.3655 8.01144 17.3735 8.03744C18.5455 8.05244 19.7205 8.11244 20.8735 8.34944C21.2705 8.43144 21.6735 8.53744 22.0415 8.70144C23.0995 9.17144 23.7365 9.98544 23.9135 11.1124C24.1885 12.8634 23.8175 14.4724 22.6935 15.8744C21.8635 16.9064 20.7255 17.4854 19.4545 17.8374C18.4465 18.1164 17.4125 18.2034 16.3705 18.2054C15.0155 18.2084 13.6605 18.2054 12.3055 18.2044H12.0335V18.2034ZM12.5885 15.4654H12.8715C14.3045 15.4654 15.7375 15.4684 17.1715 15.4634C17.4765 15.4634 17.7855 15.4504 18.0885 15.4134C19.2455 15.2754 20.1245 14.7204 20.6865 13.7134C20.9276 13.2767 21.0086 12.7695 20.9155 12.2794C20.7975 11.5824 20.3815 11.1274 19.6745 10.9994C19.1569 10.9008 18.6322 10.8439 18.1055 10.8294C16.6335 10.8024 15.1615 10.8134 13.6885 10.8094C13.6355 10.8094 13.5825 10.8174 13.5115 10.8234L13.2675 12.0714H17.3575L16.9815 14.0094H12.8785L12.5885 15.4654Z" fill="white"/>
</g>
<defs>
<clipPath id="clip0_1_6471">
<rect width="32" height="32" fill="white" transform="translate(0.000488281 0.0234375)"/>
</clipPath>
</defs>
</svg>
