<svg width="32" height="33" viewBox="0 0 32 33" fill="none" xmlns="http://www.w3.org/2000/svg">
<g clip-path="url(#clip0_1_6467)">
<path d="M16.0005 32.0234C24.837 32.0234 32.0005 24.86 32.0005 16.0234C32.0005 7.18688 24.837 0.0234375 16.0005 0.0234375C7.16393 0.0234375 0.000488281 7.18688 0.000488281 16.0234C0.000488281 24.86 7.16393 32.0234 16.0005 32.0234Z" fill="#05BCA9"/>
<path fill-rule="evenodd" clip-rule="evenodd" d="M27.9942 15.9775C28.0042 16.0233 27.9984 16.0711 27.9777 16.1131C27.957 16.155 27.9226 16.1887 27.8802 16.2085L27.8042 16.2445L25.4982 18.5565L26.3922 21.9015C26.4062 21.9542 26.3989 22.0102 26.3717 22.0575C26.3445 22.1047 26.2997 22.1392 26.2472 22.1535L23.0382 23.0145L22.1532 26.3245C22.1393 26.377 22.1052 26.4218 22.0583 26.4492C22.0115 26.4766 21.9557 26.4842 21.9032 26.4705L18.5132 25.5605L16.1152 27.9635C16.0962 27.9827 16.0736 27.9979 16.0487 28.0083C16.0238 28.0187 15.9971 28.024 15.9702 28.024C15.9432 28.024 15.9165 28.0187 15.8916 28.0083C15.8667 27.9979 15.8441 27.9827 15.8252 27.9635L13.4562 25.5885L10.1742 26.4705C10.1482 26.4775 10.1212 26.4792 10.0946 26.4757C10.0679 26.4722 10.0423 26.4634 10.0191 26.4499C9.99583 26.4365 9.97549 26.4185 9.95921 26.3972C9.94292 26.3758 9.93102 26.3515 9.92416 26.3255L9.03816 23.0155L5.83016 22.1535C5.80405 22.1466 5.77958 22.1345 5.75814 22.1181C5.73671 22.1016 5.71874 22.0811 5.70526 22.0577C5.69179 22.0343 5.68307 22.0084 5.67962 21.9816C5.67618 21.9548 5.67806 21.9276 5.68516 21.9015L6.55016 18.6645L4.06016 16.1675C4.02194 16.129 4.00049 16.0768 4.00049 16.0225C4.00049 15.9682 4.02194 15.9161 4.06016 15.8775L6.48116 13.4485L5.61616 10.2125C5.60212 10.1598 5.60962 10.1036 5.63699 10.0563C5.66437 10.0091 5.70939 9.9746 5.76216 9.96053L9.11716 9.05853L9.99116 5.78853C10.0052 5.73576 10.0397 5.69074 10.0869 5.66336C10.1342 5.63599 10.1904 5.62849 10.2432 5.64253L13.4172 6.49553L15.8252 4.08153C15.8642 4.04424 15.9162 4.02344 15.9702 4.02344C16.0242 4.02344 16.0761 4.04424 16.1152 4.08153L18.5522 6.52353L21.8342 5.64153C21.8602 5.63459 21.8874 5.63287 21.9141 5.63645C21.9409 5.64004 21.9667 5.64887 21.99 5.66243C22.0133 5.676 22.0337 5.69403 22.05 5.7155C22.0664 5.73696 22.0783 5.76144 22.0852 5.78753L22.1082 5.87353C22.1132 5.88646 22.1169 5.89986 22.1192 5.91353L22.9592 9.05753L26.3152 9.95953C26.4252 9.98953 26.4892 10.1015 26.4602 10.2115L25.5662 13.5555L27.8232 15.8185C27.8643 15.8244 27.9027 15.8427 27.9333 15.8709C27.9638 15.8991 27.985 15.936 27.9942 15.9765V15.9775ZM25.3752 18.0975L26.7212 16.7495L25.2042 17.4565L25.3752 18.0985V18.0975ZM25.8662 21.5245L25.1632 18.8925L23.7662 20.2925V20.2935L25.8662 21.5245ZM23.6562 20.7045L23.1612 22.5565L25.6662 21.8835L23.6562 20.7055V20.7045ZM21.8582 25.8405L22.5812 23.1375L20.6072 23.6675L21.8582 25.8405ZM19.3542 24.7155L18.8472 25.2245L20.8362 25.7585L19.3542 24.7155ZM16.1752 27.3215L18.0552 25.4365L16.1752 24.9315V27.3215ZM15.7652 24.9685L13.9142 25.4655L15.7642 27.3215V24.9685H15.7652ZM10.5762 25.9365L13.1222 25.2535L11.7582 23.8855L10.5762 25.9365ZM9.49616 23.1375L10.0612 25.2515L10.2312 23.3355L9.49616 23.1375ZM6.40616 21.8825L8.91616 22.5565L8.41616 20.6895L6.40616 21.8825ZM8.21316 20.3325L6.88516 19.0005L6.21116 21.5205L8.21316 20.3325ZM4.73316 16.2625L6.67316 18.2065L7.19216 16.2625H4.73316ZM6.81316 14.6875L6.60416 13.9075L4.97016 15.5455L6.81316 14.6875ZM6.14116 10.5855L6.81616 13.1125L8.16616 11.7595L6.14116 10.5855ZM8.47916 11.4455L8.99516 9.51753L6.34516 10.2295L8.46616 11.4585L8.47916 11.4455ZM10.2512 6.40553L9.57516 8.93553L11.4222 8.43953L10.2512 6.40653V6.40553ZM12.5932 7.32153L13.0822 6.83153L11.1662 6.31653L12.5932 7.32153ZM15.7652 4.72353L13.8752 6.61853L15.7652 7.12653V4.72353ZM16.1752 7.16353L18.0952 6.64753L16.1752 4.72353V7.16353ZM21.5712 6.13953L18.8872 6.85953L20.3252 8.30253L21.5712 6.13953ZM21.8742 8.76753L22.5022 8.93553L22.0192 7.12853L21.8742 8.76753ZM25.7242 10.2275L23.0822 9.51753L23.5922 11.4295L25.7232 10.2265L25.7242 10.2275ZM23.7992 11.7845L25.2312 13.2195L25.9382 10.5765L23.7992 11.7845ZM27.2412 15.8155L25.4442 14.0145L24.9622 15.8155H27.2412ZM24.8752 16.2265L25.0952 17.0515L26.8662 16.2265H24.8762H24.8752ZM24.5652 17.2985L24.7182 17.2285L24.6512 16.9785L24.5662 17.2985H24.5652ZM24.4272 17.8165L23.9772 19.4975L25.0402 18.4325L24.8262 17.6305L24.4272 17.8165ZM23.1862 20.8735L20.9032 23.1615L22.7032 22.6785L23.1862 20.8735ZM20.3192 23.1665L23.3982 20.0795L23.9422 18.0425L18.7592 20.4575L20.3192 23.1665ZM20.2312 23.8365L19.6492 24.4195L21.1932 25.5065L20.2312 23.8365ZM19.1402 24.0615L19.3082 24.1795L19.5312 23.9555L19.1402 24.0615ZM18.6232 24.1995L16.8312 24.6815L18.3902 25.1005L19.0142 24.4745L18.6242 24.1995H18.6232ZM15.2462 24.6815L12.3592 23.9055L13.5792 25.1295L15.2462 24.6815ZM10.6892 22.8135L10.6692 23.0265L10.9862 23.1115L10.6892 22.8135ZM10.3102 22.4335L8.94116 21.0635L9.37316 22.6805L10.2682 22.9205L10.3102 22.4355V22.4335ZM8.14916 19.6865L7.42516 16.9785L7.00716 18.5415L8.14916 19.6865ZM7.12416 15.8515L6.92016 15.0905L5.28716 15.8505H7.12416V15.8515ZM7.58816 14.7785L7.29816 14.9145L7.42516 15.3905L7.58816 14.7785ZM7.72716 14.2615L8.26716 12.2395L6.93916 13.5715L7.19016 14.5115L7.72716 14.2615ZM9.05916 10.8635L10.9182 9.00053L9.45216 9.39453L9.05916 10.8645V10.8635ZM11.7432 8.17353L12.2992 7.61653L10.8232 6.57753L11.7432 8.17353ZM12.9032 8.04153L12.6402 7.85653L12.2902 8.20653L12.9032 8.04153ZM13.4202 7.90253L15.2462 7.41253L13.5402 6.95453L12.9342 7.56053L13.4202 7.90253ZM16.8302 7.41253L19.6002 8.15653L18.4302 6.98353L16.8302 7.41253ZM21.4072 9.38653L21.4352 9.07453L20.9722 8.95053L21.4072 9.38653ZM21.7852 9.76653L23.0672 11.0515L22.6242 9.39453L21.8372 9.18253L21.7852 9.76653ZM23.8592 12.4265L24.6512 15.3905L25.1092 13.6795L23.8592 12.4275V12.4265ZM18.0852 19.2875L18.5532 20.1005L24.0812 17.5255L24.4282 16.2275H21.2132L21.0502 18.0615C21.0463 18.1046 21.0289 18.1454 21.0004 18.178C20.972 18.2106 20.9339 18.2333 20.8917 18.243C20.8496 18.2526 20.8054 18.2487 20.7656 18.2317C20.7258 18.2148 20.6924 18.1856 20.6702 18.1485L19.6722 16.4585L18.0852 19.2875ZM17.3012 20.6845L18.1802 20.2745L17.8512 19.7045L17.3012 20.6845ZM13.8152 20.3145L18.7022 23.7545L19.9852 23.4095L18.3852 20.6325L16.8972 21.3265C16.8577 21.3452 16.8132 21.3507 16.7703 21.3424C16.7274 21.334 16.6884 21.3121 16.6588 21.28C16.6292 21.2478 16.6106 21.207 16.6059 21.1636C16.6011 21.1202 16.6103 21.0764 16.6322 21.0385L17.5652 19.3755L14.3352 19.4115L13.8152 20.3135V20.3145ZM13.6092 20.6715L12.0392 23.3955L16.0392 24.4695L18.1852 23.8925L13.6092 20.6715ZM13.8582 19.4165L12.5612 19.4315L13.4782 20.0765L13.8582 19.4165ZM11.2682 16.2625L10.7362 22.2805L11.6702 23.2155L13.2722 20.4335L11.8042 19.4015C11.7687 19.3764 11.7422 19.3407 11.7282 19.2996C11.7143 19.2585 11.7137 19.214 11.7266 19.1725C11.7395 19.131 11.7651 19.0946 11.7999 19.0686C11.8346 19.0426 11.8767 19.0282 11.9202 19.0275L13.9042 19.0045L12.2842 16.2625H11.2692H11.2682ZM10.8582 16.2625H7.65816L8.72816 20.2675L10.3582 21.9005L10.8582 16.2625ZM12.0402 15.8515L11.4012 14.7695L11.3052 15.8515H12.0402ZM13.4902 12.0295L8.07416 14.5535L7.72716 15.8515H10.8942L11.0492 14.0975C11.0536 14.0548 11.0714 14.0145 11.0999 13.9824C11.1284 13.9502 11.1662 13.9278 11.2081 13.9182C11.2499 13.9086 11.2938 13.9124 11.3334 13.9289C11.3731 13.9455 11.4065 13.974 11.4292 14.0105L12.4322 15.7075L13.9992 12.9145L13.4892 12.0295H13.4902ZM13.2842 11.6725L11.6542 8.84353L8.84716 11.6585L8.21216 14.0355L13.2842 11.6725ZM18.2912 11.8345L13.3412 8.34953L12.0452 8.69853L13.6572 11.4985L15.2572 10.7525C15.2967 10.7339 15.3411 10.7283 15.384 10.7367C15.4269 10.7451 15.466 10.7669 15.4956 10.7991C15.5251 10.8312 15.5437 10.872 15.5485 10.9154C15.5533 10.9589 15.544 11.0027 15.5222 11.0405L14.5862 12.7085L17.8082 12.6725L18.2912 11.8345ZM18.4972 11.4765L20.0882 8.71353L16.0382 7.62553L13.8582 8.21153L18.4972 11.4765ZM18.2852 12.6665L19.4552 12.6545L18.6282 12.0715L18.2852 12.6675V12.6665ZM20.8012 16.2275H20.0112L20.6982 17.3895L20.8012 16.2275ZM14.2332 12.4975L14.8532 11.3945L13.8632 11.8555L14.2332 12.4985V12.4975ZM17.7962 18.9645L19.4302 16.0505L17.6852 13.0965L17.6802 13.0855L14.3532 13.1225L12.6732 16.1165L14.3782 18.9995L17.7762 18.9615C17.7832 18.9615 17.7892 18.9635 17.7962 18.9645ZM21.7382 10.3005L21.2492 15.8165H24.3412L23.2792 11.8465L21.7382 10.3005ZM20.8382 15.8165L21.3602 9.92053L20.4132 8.97153L18.8332 11.7135L20.2132 12.6835C20.249 12.7085 20.276 12.7443 20.2902 12.7856C20.3044 12.8269 20.3051 12.8717 20.2922 12.9134C20.2793 12.9552 20.2534 12.9917 20.2184 13.0178C20.1833 13.0439 20.1409 13.0582 20.0972 13.0585L18.1522 13.0795L19.7692 15.8165H20.8372H20.8382ZM21.4712 8.65953L21.6312 6.85653L20.7112 8.45453L21.4712 8.65953ZM10.6332 23.4435L10.4682 25.3015L11.4182 23.6535L10.6332 23.4435Z" fill="white"/>
</g>
<defs>
<clipPath id="clip0_1_6467">
<rect width="32" height="32" fill="white" transform="translate(0.000488281 0.0234375)"/>
</clipPath>
</defs>
</svg>
