<svg width="32" height="33" viewBox="0 0 32 33" fill="none" xmlns="http://www.w3.org/2000/svg">
<g clip-path="url(#clip0_1_6463)">
<path d="M16.0005 32.0234C24.837 32.0234 32.0005 24.86 32.0005 16.0234C32.0005 7.18688 24.837 0.0234375 16.0005 0.0234375C7.16393 0.0234375 0.000488281 7.18688 0.000488281 16.0234C0.000488281 24.86 7.16393 32.0234 16.0005 32.0234Z" fill="#3CB054"/>
<path fill-rule="evenodd" clip-rule="evenodd" d="M9.00049 8.02344C21.0935 8.47044 25.7565 15.7294 23.4155 22.2064C22.7525 24.0094 22.0475 24.9964 20.5655 26.0234C20.6255 25.7634 20.6875 25.5034 20.7355 25.2364C21.6115 20.1834 19.9505 14.1024 11.8235 10.7434C18.2895 14.5914 20.8985 21.4384 17.8835 25.8584C12.7505 26.6654 9.00049 22.2824 9.00049 17.2324V8.02344Z" fill="white"/>
</g>
<defs>
<clipPath id="clip0_1_6463">
<rect width="32" height="32" fill="white" transform="translate(0.000488281 0.0234375)"/>
</clipPath>
</defs>
</svg>
