<svg width="32" height="33" viewBox="0 0 32 33" fill="none" xmlns="http://www.w3.org/2000/svg">
<g clip-path="url(#clip0_1_6459)">
<path d="M16.0005 32.0234C24.837 32.0234 32.0005 24.86 32.0005 16.0234C32.0005 7.18688 24.837 0.0234375 16.0005 0.0234375C7.16393 0.0234375 0.000488281 7.18688 0.000488281 16.0234C0.000488281 24.86 7.16393 32.0234 16.0005 32.0234Z" fill="#348F8D"/>
<path d="M23.8124 7.06812C24.0514 7.316 24.1849 7.64685 24.1849 7.99112C24.1849 8.33539 24.0514 8.66625 23.8124 8.91412L20.6824 12.1231C20.583 12.2247 20.4674 12.3092 20.3404 12.3731C20.1107 12.5028 19.8444 12.5524 19.5834 12.5142C19.3223 12.476 19.0814 12.3521 18.8984 12.1621L15.7804 8.96812L9.77544 15.1271L11.2254 16.6101C11.4335 16.8289 11.549 17.1196 11.5477 17.4215C11.5464 17.7234 11.4284 18.0132 11.2184 18.2301C11.116 18.3361 10.9933 18.4205 10.8577 18.4784C10.7221 18.5362 10.5763 18.5664 10.4289 18.567C10.2815 18.5677 10.1354 18.5388 9.99933 18.4822C9.86323 18.4255 9.73984 18.3422 9.63644 18.2371L7.33044 15.8841C7.1188 15.6652 7.00049 15.3726 7.00049 15.0681C7.00049 14.7636 7.1188 14.471 7.33044 14.2521L7.34644 14.2371C7.35136 14.2324 7.35603 14.2274 7.36044 14.2221L14.9844 6.40212H14.9854L14.9864 6.40112L15.0114 6.37512C15.2017 6.17738 15.4566 6.05442 15.7298 6.02855C16.003 6.00268 16.2764 6.07562 16.5004 6.23412C16.5724 6.28312 16.6404 6.33812 16.7004 6.40112L19.6844 9.45412L22.0114 7.06812C22.1284 6.94746 22.2685 6.85153 22.4232 6.78602C22.578 6.72051 22.7444 6.68675 22.9124 6.68675C23.0805 6.68675 23.2469 6.72051 23.4016 6.78602C23.5564 6.85153 23.6964 6.94746 23.8134 7.06812H23.8124ZM25.6704 16.1701C25.8828 16.3876 26.0018 16.6794 26.002 16.9834C26.0022 17.2874 25.8836 17.5794 25.6714 17.7971L25.6554 17.8121C25.6502 17.8169 25.6452 17.8219 25.6404 17.8271L17.9864 25.6741C17.8701 25.7947 17.7288 25.8884 17.5724 25.9485C17.416 26.0087 17.2484 26.0339 17.0812 26.0223C16.9141 26.0108 16.7515 25.9628 16.6049 25.8818C16.4582 25.8007 16.3311 25.6885 16.2324 25.5531L13.3154 22.5691L11.0024 24.9471C10.6804 25.2791 10.2104 25.4101 9.76944 25.2891C9.32844 25.1681 8.98344 24.8161 8.86544 24.3641C8.74844 23.9131 8.87544 23.4311 9.20044 23.1021L12.3294 19.8941C12.5074 19.7081 12.7364 19.5821 12.9864 19.5321C13.3904 19.4421 13.8124 19.5681 14.1054 19.8681L17.2314 23.0661L23.2254 16.9221L21.7754 15.4391C21.5674 15.2204 21.4519 14.9296 21.4532 14.6277C21.4545 14.3258 21.5725 14.0361 21.7824 13.8191C21.8849 13.7131 22.0076 13.6287 22.1431 13.5709C22.2787 13.513 22.4245 13.4829 22.572 13.4822C22.7194 13.4816 22.8654 13.5104 23.0015 13.5671C23.1376 13.6237 23.261 13.707 23.3644 13.8121L25.6374 16.1371L25.6394 16.1391L25.6424 16.1411L25.6704 16.1701Z" fill="white"/>
</g>
<defs>
<clipPath id="clip0_1_6459">
<rect width="32" height="32" fill="white" transform="translate(0.000488281 0.0234375)"/>
</clipPath>
</defs>
</svg>
