<svg width="32" height="33" viewBox="0 0 32 33" fill="none" xmlns="http://www.w3.org/2000/svg">
<g clip-path="url(#clip0_1_6455)">
<path d="M16.0005 32.0234C24.837 32.0234 32.0005 24.86 32.0005 16.0234C32.0005 7.18688 24.837 0.0234375 16.0005 0.0234375C7.16393 0.0234375 0.000488281 7.18688 0.000488281 16.0234C0.000488281 24.86 7.16393 32.0234 16.0005 32.0234Z" fill="#152743"/>
<path d="M16.5135 8.29944C15.1975 8.29944 14.1305 7.56644 14.1305 6.66144C14.1305 5.75644 15.1975 5.02344 16.5135 5.02344C17.8295 5.02344 18.8955 5.75644 18.8955 6.66144C18.8955 7.56644 17.8295 8.29944 16.5135 8.29944ZM15.2805 26.5834V9.08744H20.5925C20.7895 9.08744 20.9285 9.23444 20.9285 9.43144V19.1394C20.9285 19.3354 20.7885 19.5034 20.5925 19.5034H17.6645V26.5834C17.6645 26.7804 17.5145 26.9594 17.3175 26.9594H15.6495C15.5518 26.9556 15.4592 26.9147 15.3907 26.8451C15.3221 26.7754 15.2827 26.6822 15.2805 26.5844V26.5834ZM14.3845 19.5024H12.3745C12.2773 19.5015 12.1842 19.4631 12.1146 19.3953C12.0449 19.3276 12.0041 19.2356 12.0005 19.1384V9.43144C12.0005 9.23444 12.1775 9.08744 12.3735 9.08744H14.3845V19.5034V19.5024Z" fill="white"/>
</g>
<defs>
<clipPath id="clip0_1_6455">
<rect width="32" height="32" fill="white" transform="translate(0.000488281 0.0234375)"/>
</clipPath>
</defs>
</svg>
