<svg width="32" height="33" viewBox="0 0 32 33" fill="none" xmlns="http://www.w3.org/2000/svg">
<g clip-path="url(#clip0_1_6448)">
<path d="M16.001 32.0234C24.8375 32.0234 32.001 24.86 32.001 16.0234C32.001 7.18688 24.8375 0.0234375 16.001 0.0234375C7.16442 0.0234375 0.000976562 7.18688 0.000976562 16.0234C0.000976562 24.86 7.16442 32.0234 16.001 32.0234Z" fill="#3A8CBD"/>
<path d="M13.813 18.4545H15.491C15.9704 18.456 16.4442 18.3508 16.878 18.1465C17.288 17.9435 17.654 17.6625 17.955 17.3185C18.254 16.9625 18.485 16.5555 18.639 16.1175C18.8049 15.6736 18.8889 15.2033 18.887 14.7295C18.8896 14.2671 18.7978 13.8091 18.617 13.3835C18.4435 12.9523 18.1988 12.5534 17.893 12.2035C17.5848 11.853 17.212 11.5651 16.795 11.3555C16.3673 11.1344 15.8924 11.0205 15.411 11.0235H11.001V21.7265H13.817L13.813 18.4545ZM13.813 13.6085H15.24C15.4383 13.6215 15.6239 13.7107 15.758 13.8575C15.924 14.0225 16.028 14.3135 16.028 14.7685C16.028 15.2235 15.925 15.4935 15.778 15.6405C15.655 15.7855 15.489 15.8885 15.303 15.8885H13.813V13.6095V13.6085Z" fill="white"/>
<path d="M7.00098 8.05444V23.9424C7.00098 24.5124 7.46198 24.9724 8.03098 24.9724H23.919C24.488 24.9724 24.949 24.5124 24.949 23.9424V8.05444C24.9491 7.91909 24.9226 7.78505 24.8709 7.65997C24.8192 7.53489 24.7433 7.42122 24.6477 7.32547C24.552 7.22972 24.4384 7.15376 24.3134 7.10194C24.1883 7.05011 24.0543 7.02344 23.919 7.02344H8.03098C7.89572 7.02344 7.76178 7.05008 7.63681 7.10184C7.51185 7.1536 7.3983 7.22947 7.30266 7.32512C7.20701 7.42076 7.13114 7.53431 7.07938 7.65927C7.02762 7.78424 7.00098 7.91818 7.00098 8.05344V8.05444ZM21.804 22.8584H10.124C9.98863 22.8586 9.85459 22.832 9.72951 22.7803C9.60442 22.7286 9.49076 22.6528 9.39501 22.5571C9.29926 22.4615 9.2233 22.3479 9.17148 22.2228C9.11965 22.0978 9.09298 21.9638 9.09298 21.8284V10.1484C9.09284 10.013 9.11942 9.87888 9.17119 9.75374C9.22296 9.62859 9.29889 9.51488 9.39466 9.41912C9.49042 9.32335 9.60413 9.24742 9.72927 9.19565C9.85442 9.14388 9.98855 9.11731 10.124 9.11744H21.804C22.374 9.11744 22.834 9.57844 22.834 10.1474V21.8274C22.834 22.3974 22.374 22.8584 21.804 22.8584Z" fill="white"/>
<path d="M15.001 19.0234H21.608V21.0534H15.001V19.0234Z" fill="white"/>
</g>
<defs>
<clipPath id="clip0_1_6448">
<rect width="32" height="32" fill="white" transform="translate(0.000976562 0.0234375)"/>
</clipPath>
</defs>
</svg>
