<svg width="32" height="33" viewBox="0 0 32 33" fill="none" xmlns="http://www.w3.org/2000/svg">
<g clip-path="url(#clip0_1_6444)">
<path d="M16.001 32.0234C24.8375 32.0234 32.001 24.86 32.001 16.0234C32.001 7.18688 24.8375 0.0234375 16.001 0.0234375C7.16442 0.0234375 0.000976562 7.18688 0.000976562 16.0234C0.000976562 24.86 7.16442 32.0234 16.001 32.0234Z" fill="#1061E3"/>
<path fill-rule="evenodd" clip-rule="evenodd" d="M24.2822 21.3902C24.3662 22.2512 24.0972 23.1012 23.2642 23.6532C22.8652 23.9182 22.4202 24.0232 21.9422 24.0232C17.9822 24.0212 14.0222 24.0222 10.0622 24.0212C9.97549 24.0212 9.88879 24.0188 9.8022 24.0142C8.9342 23.9672 8.1142 23.3382 7.8342 22.5172C7.7102 22.1542 7.6912 21.7822 7.7062 21.3902H10.1162C10.3482 21.3892 10.5022 21.2202 10.4502 21.0092C10.423 20.9274 10.3751 20.854 10.3112 20.7962C9.3282 19.8142 8.3422 18.8362 7.3572 17.8562L6.4552 16.9582C6.1162 16.6232 5.9532 16.2182 6.0132 15.7462C6.0432 15.5142 6.1182 15.2862 6.1932 15.0622C6.61414 13.7933 7.28272 12.6207 8.1602 11.6122C9.40316 10.1657 11.0244 9.09399 12.8422 8.51715C14.0256 8.12982 15.2711 7.96801 16.5142 8.04015C19.4502 8.21615 21.8952 9.41015 23.8332 11.6112C24.8247 12.7367 25.5463 14.0736 25.9432 15.5202C26.0932 16.0592 25.9512 16.5442 25.5522 16.9412C24.8022 17.6892 24.0462 18.4312 23.2932 19.1762C22.7402 19.7232 22.1882 20.2722 21.6362 20.8212C21.4542 21.0012 21.4722 21.2412 21.6802 21.3482C21.7402 21.3782 21.8152 21.3882 21.8832 21.3882C22.6432 21.3912 23.4042 21.3902 24.1652 21.3902H24.2822ZM8.4432 21.9302C8.4542 22.2522 8.5402 22.5382 8.7282 22.7882C9.0402 23.2042 9.4612 23.4002 9.9832 23.3992H22.0112C22.0582 23.3992 22.1052 23.3972 22.1512 23.3942C22.3727 23.3857 22.5892 23.3263 22.784 23.2205C22.9788 23.1147 23.1465 22.9653 23.2742 22.7842C23.4602 22.5342 23.5472 22.2482 23.5522 21.9312L8.4432 21.9302ZM18.7112 14.1832C18.7402 14.2022 18.7612 14.2132 18.7782 14.2262C19.7662 14.9622 20.3922 15.9262 20.6302 17.1332C20.7602 17.7892 20.7422 18.4432 20.5882 19.0942C20.4478 19.6855 20.193 20.2437 19.8382 20.7372C19.8048 20.7791 19.7813 20.828 19.7695 20.8803C19.7578 20.9327 19.758 20.9869 19.7702 21.0392C19.8392 21.3112 20.1482 21.3992 20.3522 21.2002C20.6522 20.9092 20.9452 20.6122 21.2422 20.3182C22.4382 19.1282 23.6342 17.9392 24.8312 16.7512C25.0912 16.4932 25.2052 16.1852 25.1412 15.8252C25.1122 15.6692 25.0562 15.5172 25.0032 15.3672C24.6149 14.2401 24.0443 13.1845 23.3142 12.2422C22.7556 11.519 22.0916 10.8839 21.3442 10.3582C21.3061 10.3308 21.2797 10.2901 21.2702 10.2442C21.2592 10.1381 21.2235 10.0361 21.166 9.94628C21.1085 9.8565 21.0307 9.78146 20.9389 9.7272C20.8471 9.67294 20.7438 9.64095 20.6374 9.63383C20.531 9.6267 20.4244 9.64462 20.3262 9.68615C20.2855 9.70228 20.2402 9.70264 20.1992 9.68715C19.1451 9.18541 18.0044 8.89074 16.8392 8.81915C15.913 8.74955 14.9817 8.802 14.0692 8.97515C13.3068 9.12041 12.5665 9.36447 11.8672 9.70115C11.8405 9.71632 11.8104 9.72429 11.7797 9.72429C11.749 9.72429 11.7189 9.71632 11.6922 9.70115C11.5921 9.65187 11.4813 9.6285 11.3699 9.6332C11.2584 9.6379 11.1499 9.67051 11.0544 9.72804C10.9588 9.78557 10.8793 9.86619 10.823 9.96248C10.7667 10.0588 10.7355 10.1677 10.7322 10.2792C10.7322 10.3392 10.7102 10.3742 10.6642 10.4102C10.3582 10.6532 10.0402 10.8842 9.7542 11.1492C8.4102 12.3942 7.4962 13.9132 6.9092 15.6362C6.7612 16.0722 6.8592 16.4462 7.1842 16.7692L10.7442 20.3082C11.0422 20.6052 11.3392 20.9022 11.6402 21.1972C11.8132 21.3672 12.0742 21.3372 12.1872 21.1362C12.2642 20.9972 12.2452 20.8602 12.1542 20.7322C11.6757 20.0698 11.3817 19.2923 11.3022 18.4792C11.2325 17.8106 11.3111 17.1349 11.5322 16.5002C11.5822 16.3552 11.6442 16.2132 11.7032 16.0632L13.1152 16.8932C12.8221 17.602 12.8011 18.3942 13.0561 19.1176C13.3112 19.841 13.8244 20.4448 14.4972 20.8132C15.1324 21.1611 15.8687 21.2777 16.5804 21.1431C17.292 21.0085 17.9349 20.631 18.3992 20.0752C18.8592 19.5282 19.1032 18.8932 19.1172 18.1782C19.1372 17.1122 18.6962 16.2622 17.8672 15.6002L18.7112 14.1832ZM23.3762 17.2232C23.3502 17.0572 23.3262 16.9042 23.3002 16.7512C23.2039 16.1864 23.0387 15.6356 22.8082 15.1112C22.7832 15.0512 22.7772 15.0052 22.8072 14.9432C22.8467 14.8599 22.8684 14.7694 22.871 14.6774C22.8736 14.5853 22.857 14.4938 22.8223 14.4085C22.7876 14.3232 22.7355 14.246 22.6694 14.1819C22.6033 14.1178 22.5245 14.0682 22.4382 14.0362C22.3535 14.0042 22.2633 13.9895 22.1729 13.993C22.0824 13.9965 21.9936 14.0181 21.9117 14.0565C21.8297 14.0949 21.7563 14.1493 21.6958 14.2166C21.6352 14.2839 21.5888 14.3626 21.5592 14.4482C21.5298 14.5337 21.5182 14.6243 21.5253 14.7145C21.5323 14.8046 21.5578 14.8924 21.6002 14.9723C21.6426 15.0522 21.701 15.1225 21.7717 15.1789C21.8424 15.2353 21.9239 15.2766 22.0112 15.3002C22.0586 15.3092 22.1027 15.3307 22.1389 15.3626C22.1751 15.3944 22.2022 15.4353 22.2172 15.4812C22.5212 16.2262 22.6902 16.9982 22.7142 17.8012C22.7162 17.8491 22.7005 17.896 22.6702 17.9332C22.2132 18.3932 21.7522 18.8492 21.2932 19.3062C21.2772 19.3212 21.2582 19.3332 21.2512 19.3402C21.6892 17.1702 21.1562 15.2892 19.4132 13.8732C17.6022 12.4032 15.5842 12.2902 13.4652 13.2462L12.8182 12.1292C13.0492 12.0262 13.2712 11.9192 13.4982 11.8252C14.0829 11.5917 14.697 11.4403 15.3232 11.3752C15.4042 11.3662 15.4632 11.3792 15.5262 11.4432C15.5881 11.507 15.6623 11.5576 15.7443 11.592C15.8263 11.6264 15.9144 11.6439 16.0033 11.6435C16.0922 11.643 16.1801 11.6246 16.2617 11.5893C16.3433 11.554 16.4169 11.5026 16.4782 11.4382C16.4993 11.4135 16.5264 11.3947 16.5569 11.3835C16.5873 11.3723 16.6201 11.3691 16.6522 11.3742C18.1852 11.5402 19.5152 12.1422 20.6372 13.1952C20.7272 13.2802 20.8122 13.3692 20.8992 13.4572C21.0542 13.6132 21.2252 13.6172 21.3832 13.4652L22.4342 12.4482L22.5322 12.3552C22.6582 12.5152 22.7852 12.6692 22.9032 12.8292C23.5861 13.7524 24.11 14.7833 24.4532 15.8792C24.4771 15.9436 24.4812 16.0137 24.465 16.0806C24.4488 16.1474 24.413 16.2078 24.3622 16.2542L23.4382 17.1732C23.4222 17.1882 23.4032 17.2002 23.3762 17.2232ZM22.1102 11.9132L21.2122 12.7822C21.1852 12.7592 21.1602 12.7382 21.1372 12.7162C20.2023 11.8165 19.0452 11.1815 17.7842 10.8762C17.4312 10.7902 17.0662 10.7502 16.7072 10.6922C16.6442 10.6822 16.6012 10.6692 16.5622 10.6092C16.5004 10.5152 16.4161 10.4381 16.317 10.3848C16.2179 10.3315 16.1072 10.3037 15.9947 10.3039C15.8822 10.3041 15.7715 10.3323 15.6726 10.3859C15.5737 10.4396 15.4897 10.517 15.4282 10.6112C15.3982 10.6515 15.3538 10.6788 15.3042 10.6872C12.9902 10.9412 11.1742 12.0252 9.8442 13.9192C9.82931 13.9424 9.80933 13.9619 9.78577 13.9763C9.7622 13.9907 9.73568 13.9995 9.7082 14.0022C9.2422 14.0782 9.0052 14.5322 9.1982 14.9622C9.21336 15.0007 9.21336 15.0436 9.1982 15.0822C8.91838 15.7198 8.73147 16.3944 8.6432 17.0852C8.6372 17.1282 8.6282 17.1702 8.6182 17.2292L8.5322 17.1492C8.2462 16.8642 7.9622 16.5762 7.6722 16.2952C7.5382 16.1652 7.4942 16.0272 7.5572 15.8452C8.2302 13.9152 9.3002 12.2632 10.9672 11.0302C10.9862 11.0162 11.0062 11.0042 11.0242 10.9892C11.0842 10.9362 11.1392 10.9212 11.2282 10.9452C11.3178 10.9702 11.4117 10.9762 11.5038 10.963C11.5959 10.9497 11.6843 10.9174 11.7632 10.8681C11.8421 10.8188 11.9099 10.7536 11.9623 10.6766C12.0146 10.5997 12.0503 10.5127 12.0672 10.4212C12.0722 10.4016 12.0811 10.3832 12.0933 10.367C12.1055 10.3509 12.1207 10.3374 12.1382 10.3272C12.5701 10.1142 13.0206 9.94142 13.4842 9.81115C14.5792 9.50015 15.6972 9.41915 16.8272 9.50015C17.868 9.56619 18.8873 9.82669 19.8322 10.2682C19.8922 10.2962 19.9222 10.3282 19.9322 10.3982C19.9467 10.4993 19.9841 10.5958 20.0416 10.6803C20.099 10.7647 20.1751 10.8349 20.2639 10.8855C20.3526 10.9361 20.4518 10.9656 20.5538 10.972C20.6558 10.9784 20.7578 10.9613 20.8522 10.9222C20.8842 10.9102 20.9352 10.9092 20.9602 10.9262C21.3692 11.2082 21.7452 11.5282 22.0922 11.8812C22.0992 11.8882 22.1022 11.8982 22.1102 11.9132ZM18.4462 18.0932C18.4532 19.4242 17.3562 20.5212 16.0102 20.5292C15.3631 20.531 14.7416 20.2767 14.2814 19.8218C13.8212 19.3668 13.5597 18.7482 13.5542 18.1012C13.5482 16.7682 14.6432 15.6742 15.9922 15.6672C16.6392 15.6634 17.2611 15.9168 17.7213 16.3715C18.1815 16.8263 18.4422 17.4452 18.4462 18.0922V18.0932ZM10.7482 19.3572L10.1162 18.7222C9.8562 18.4622 9.5942 18.2062 9.3362 17.9442C9.30267 17.9101 9.28275 17.8649 9.2802 17.8172C9.3041 16.9901 9.48321 16.175 9.8082 15.4142C9.81652 15.3895 9.83146 15.3676 9.85139 15.3508C9.87131 15.3341 9.89547 15.3231 9.9212 15.3192C10.3702 15.2142 10.5792 14.8222 10.4202 14.3942C10.4102 14.3642 10.4102 14.3192 10.4252 14.2942C10.9166 13.5673 11.5475 12.9453 12.2812 12.4642C12.2842 12.4622 12.2872 12.4622 12.3012 12.4582L12.5662 12.9102L13.1222 13.8702C13.2342 14.0662 13.3802 14.1092 13.5732 13.9922C14.0776 13.6863 14.6366 13.4811 15.2192 13.3882C16.2208 13.2187 17.2503 13.3776 18.1542 13.8412C18.1632 13.8462 18.1702 13.8532 18.1882 13.8672L17.3492 15.2742C15.7642 14.6792 14.4542 15.0342 13.3962 16.3512L11.9892 15.5242C12.1152 15.3552 12.2352 15.1922 12.3582 15.0322C12.4082 14.9662 12.4662 14.9062 12.5222 14.8442C12.6082 14.7482 12.6082 14.6942 12.5202 14.6042C12.4428 14.5256 12.3648 14.4476 12.2862 14.3702C12.1802 14.2662 12.1282 14.2662 12.0282 14.3742C11.6015 14.8308 11.2589 15.3593 11.0162 15.9352C10.6721 16.7419 10.5353 17.622 10.6182 18.4952C10.6442 18.7752 10.7012 19.0522 10.7482 19.3572ZM15.9962 11.3472C15.897 11.3451 15.8024 11.3047 15.7322 11.2344C15.6621 11.1641 15.622 11.0694 15.6202 10.9702C15.6235 10.871 15.6648 10.7769 15.7355 10.7073C15.8062 10.6377 15.901 10.5979 16.0002 10.5962C16.0994 10.5985 16.1939 10.6391 16.2639 10.7096C16.3338 10.7801 16.3737 10.8749 16.3752 10.9742C16.3731 11.0736 16.3324 11.1682 16.2616 11.2381C16.1908 11.3079 16.0956 11.3474 15.9962 11.3482V11.3472ZM11.3962 9.93315C11.4456 9.93182 11.4948 9.94032 11.5409 9.95816C11.5869 9.976 11.629 10.0028 11.6647 10.0371C11.7003 10.0713 11.7288 10.1123 11.7484 10.1576C11.7681 10.2029 11.7786 10.2517 11.7792 10.3012C11.7792 10.4014 11.7394 10.4975 11.6685 10.5684C11.5976 10.6393 11.5015 10.6792 11.4012 10.6792C11.3009 10.6792 11.2048 10.6393 11.1339 10.5684C11.063 10.4975 11.0232 10.4014 11.0232 10.3012C11.0243 10.203 11.0641 10.1093 11.1339 10.0403C11.2038 9.97141 11.2981 9.93288 11.3962 9.93315ZM22.1972 15.0332C22.1019 15.0292 22.0118 14.9888 21.9454 14.9203C21.8791 14.8517 21.8416 14.7604 21.8407 14.665C21.8398 14.5696 21.8755 14.4775 21.9406 14.4078C22.0056 14.338 22.095 14.2959 22.1902 14.2902C22.239 14.2897 22.2874 14.2988 22.3326 14.3171C22.3779 14.3353 22.4191 14.3623 22.4539 14.3965C22.4887 14.4307 22.5165 14.4714 22.5356 14.5163C22.5547 14.5611 22.5647 14.6094 22.5652 14.6582C22.5657 14.7069 22.5565 14.7553 22.5383 14.8006C22.52 14.8458 22.493 14.887 22.4589 14.9219C22.4247 14.9567 22.384 14.9844 22.3391 15.0035C22.2942 15.0226 22.246 15.0327 22.1972 15.0332ZM20.5942 9.93315C20.8072 9.93315 20.9692 10.0932 20.9682 10.3052C20.9679 10.403 20.929 10.4968 20.8599 10.5661C20.7908 10.6354 20.6971 10.6746 20.5992 10.6752C20.5499 10.6759 20.501 10.667 20.4552 10.6488C20.4093 10.6306 20.3676 10.6035 20.3323 10.5692C20.297 10.5348 20.2688 10.4937 20.2494 10.4484C20.23 10.4031 20.2197 10.3544 20.2192 10.3052C20.2185 10.2558 20.2278 10.2068 20.2464 10.1611C20.265 10.1155 20.2927 10.074 20.3276 10.0392C20.3626 10.0044 20.4043 9.97697 20.4501 9.95858C20.4958 9.9402 20.5449 9.93121 20.5942 9.93215V9.93315ZM10.1762 14.6612C10.1765 14.7104 10.1669 14.7592 10.1481 14.8048C10.1292 14.8503 10.1015 14.8916 10.0664 14.9262C10.0314 14.9609 9.98982 14.9882 9.9441 15.0065C9.89839 15.0249 9.84946 15.034 9.8002 15.0332C9.75086 15.0338 9.70189 15.0246 9.6562 15.0059C9.6105 14.9873 9.56902 14.9597 9.53422 14.9247C9.49943 14.8897 9.47202 14.8481 9.45363 14.8023C9.43525 14.7565 9.42626 14.7075 9.4272 14.6582C9.42773 14.5602 9.46708 14.4664 9.53663 14.3975C9.60618 14.3285 9.70024 14.2899 9.7982 14.2902C9.84751 14.2892 9.8965 14.2981 9.94233 14.3164C9.98815 14.3346 10.0299 14.3618 10.0651 14.3963C10.1003 14.4309 10.1282 14.4721 10.1473 14.5175C10.1664 14.563 10.1762 14.6118 10.1762 14.6612Z" fill="white"/>
</g>
<defs>
<clipPath id="clip0_1_6444">
<rect width="32" height="32" fill="white" transform="translate(0.000976562 0.0234375)"/>
</clipPath>
</defs>
</svg>
