<svg width="32" height="33" viewBox="0 0 32 33" fill="none" xmlns="http://www.w3.org/2000/svg">
<g clip-path="url(#clip0_1_6440)">
<path d="M16.001 32.0234C24.8375 32.0234 32.001 24.86 32.001 16.0234C32.001 7.18688 24.8375 0.0234375 16.001 0.0234375C7.16442 0.0234375 0.000976562 7.18688 0.000976562 16.0234C0.000976562 24.86 7.16442 32.0234 16.001 32.0234Z" fill="#22B573"/>
<path d="M15.221 26.826C16.098 26.876 17.139 26.824 17.887 26.691C19.51 26.411 21.175 25.686 22.541 24.664C23.154 24.203 24.205 23.152 24.661 22.544C25.689 21.172 26.366 19.637 26.716 17.874C26.845 17.207 26.862 14.907 26.746 14.224C26.103 10.609 23.896 7.66598 20.661 6.11298C20.5757 6.07217 20.49 6.03217 20.404 5.99298L20.824 7.48498C21.064 8.31398 21.554 10.06 21.922 11.356C22.897 14.784 22.886 14.726 22.921 15.596C22.938 16.051 22.927 16.559 22.886 16.869C22.471 19.981 20.001 22.445 16.876 22.866C16.24 22.953 15.166 22.913 14.565 22.784C14.343 22.731 14.15 22.702 14.132 22.714C14.115 22.737 15.078 26.212 15.23 26.679C15.262 26.775 15.273 26.813 15.22 26.826H15.221ZM11.641 25.953C11.6341 25.948 11.6274 25.9426 11.621 25.937C11.586 25.897 11.318 25.044 11.031 24.034C10.746 23.024 10.214 21.154 9.85798 19.888C9.49598 18.621 9.16798 17.383 9.12198 17.143C9.02898 16.618 9.01698 15.391 9.10498 14.866C9.21494 14.2196 9.41137 13.591 9.68898 12.997C10.664 10.953 12.381 9.60398 14.646 9.10798C15.259 8.97398 16.678 8.97398 17.297 9.10798C17.548 9.16698 17.777 9.18998 17.8 9.16098C17.823 9.13698 17.583 8.20898 17.268 7.09898C17.0732 6.43366 16.8892 5.76524 16.716 5.09398C16.5027 5.09135 16.2893 5.09035 16.076 5.09098C14.775 5.08498 14.442 5.11998 13.437 5.35298C11.265 5.86098 9.16298 7.15798 7.70898 8.86898C5.29698 11.707 4.48598 15.579 5.55998 19.099C5.95098 20.396 6.43598 21.348 7.24798 22.451C8.38417 23.9792 9.89797 25.186 11.641 25.953ZM14.214 27.858C13.899 27.812 13.595 27.759 13.543 27.736C13.3577 27.6811 13.1705 27.6324 12.982 27.59C11.125 27.14 9.15198 26.037 7.67398 24.623C6.54698 23.543 5.41998 21.908 4.94698 20.676C4.88298 20.518 4.80698 20.331 4.77698 20.267C4.61998 19.934 4.33998 18.959 4.18198 18.171C4.01198 17.348 4.00098 17.201 4.00098 16.004C4.00098 15.269 4.03098 14.568 4.06498 14.369C4.10598 14.177 4.18198 13.75 4.24598 13.429C4.30498 13.102 4.39198 12.775 4.43298 12.699C4.46042 12.656 4.48037 12.6086 4.49198 12.559C4.46198 12.559 4.73098 11.689 4.77798 11.625C4.80098 11.595 4.87098 11.438 4.92898 11.275C5.02898 11 5.35598 10.335 5.47898 10.135C5.51298 10.089 5.66498 9.83198 5.82298 9.56898C5.98598 9.30098 6.14398 9.04898 6.17298 9.01498C6.20798 8.97398 6.40098 8.72898 6.59998 8.47198C8.33998 6.25798 10.985 4.65798 13.77 4.13898C14.594 3.98098 17.402 3.98698 18.237 4.14498C19.575 4.39498 21 4.94998 22.208 5.68598C22.792 6.04798 22.833 6.07198 23.493 6.59698C24.053 7.04098 24.982 7.97498 25.385 8.50098C25.543 8.71098 25.741 8.96198 25.823 9.06098C25.905 9.16698 25.975 9.26598 25.975 9.28898C25.975 9.31898 26.039 9.41798 26.115 9.51698C26.191 9.61698 26.372 9.93698 26.524 10.223C26.67 10.515 26.816 10.778 26.839 10.807C26.862 10.842 26.973 11.082 27.079 11.35C27.867 13.342 28.141 15.24 27.925 17.29C27.837 18.17 27.44 19.73 27.137 20.396C27.078 20.536 27.026 20.664 27.026 20.682C27.026 20.734 26.524 21.739 26.372 21.99C25.14 24.034 23.394 25.68 21.42 26.661C21.081 26.831 20.76 26.988 20.702 27.018C20.31 27.222 19.02 27.613 18.062 27.812C17.467 27.934 14.973 27.964 14.214 27.858ZM16.836 19.508C18.103 19.187 19.201 18.107 19.516 16.875C19.633 16.413 19.639 15.52 19.522 15.07C19.037 13.155 17.046 11.934 15.172 12.407C14.401 12.6 13.992 12.827 13.449 13.371C12.673 14.148 12.351 14.918 12.357 16.004C12.363 17.657 13.437 19.053 15.049 19.484C15.534 19.614 16.375 19.624 16.836 19.508Z" fill="#FEFFFF"/>
</g>
<defs>
<clipPath id="clip0_1_6440">
<rect width="32" height="32" fill="white" transform="translate(0.000976562 0.0234375)"/>
</clipPath>
</defs>
</svg>
