<svg width="32" height="33" viewBox="0 0 32 33" fill="none" xmlns="http://www.w3.org/2000/svg">
<g clip-path="url(#clip0_1_6436)">
<path d="M16 32.0244C24.8366 32.0244 32 24.861 32 16.0244C32 7.18786 24.8366 0.0244141 16 0.0244141C7.16344 0.0244141 0 7.18786 0 16.0244C0 24.861 7.16344 32.0244 16 32.0244Z" fill="#333333"/>
<path d="M11.192 8.02441H18.956C21.104 8.15141 23.467 9.03441 24.416 11.0844C25.603 13.6954 25.013 17.3674 22.339 18.8574C19.873 20.2674 16.923 19.7114 14.215 19.8274C14.142 21.1614 14.515 22.7134 13.585 23.8414C13.211 24.3814 11.496 25.0244 11.496 25.0244C11.496 25.0244 11.338 23.5754 11.28 20.3144C11.243 19.4144 11.39 18.4044 12.163 17.8194C13.068 17.0414 14.351 17.2844 15.45 17.2444C17.11 17.2004 18.854 17.4544 20.43 16.8144C22.742 15.8694 22.826 12.0104 20.496 11.0374C18.117 10.1154 15.49 10.9544 13.046 10.4444C11.936 10.1334 11.437 9.04041 11.192 8.02441ZM7 12.4544C9.03 12.4914 11.064 12.3834 13.09 12.5054C14.563 12.6184 15.53 13.9524 15.684 15.3164C13.64 15.3064 11.591 15.3814 9.546 15.2914C8.29 15.2184 7.363 14.1984 7 13.0734V12.4554V12.4544Z" fill="white"/>
</g>
<defs>
<clipPath id="clip0_1_6436">
<rect width="32" height="32" fill="white" transform="translate(0 0.0244141)"/>
</clipPath>
</defs>
</svg>
