<svg width="32" height="33" viewBox="0 0 32 33" fill="none" xmlns="http://www.w3.org/2000/svg">
<g clip-path="url(#clip0_1_6432)">
<path d="M16 32.0244C24.8366 32.0244 32 24.861 32 16.0244C32 7.18786 24.8366 0.0244141 16 0.0244141C7.16344 0.0244141 0 7.18786 0 16.0244C0 24.861 7.16344 32.0244 16 32.0244Z" fill="#1347E8"/>
<path d="M16 5.02441C9.925 5.02441 5 9.94941 5 16.0244C5 22.0994 9.925 27.0244 16 27.0244C22.075 27.0244 27 22.0994 27 16.0244C27 9.94941 22.075 5.02441 16 5.02441ZM26.44 15.5744L25.55 15.5834L25.546 15.2104L26.437 15.2024L26.441 15.5744H26.44ZM26.212 13.6514L25.329 13.7744L25.278 13.4044L26.16 13.2824L26.212 13.6524V13.6514ZM25.452 11.3094L25.606 11.6494L24.795 12.0174L24.641 11.6784L25.451 11.3094H25.452ZM24.34 9.61441L24.586 9.89441L23.916 10.4824L23.671 10.2024L24.34 9.61441ZM23.035 8.22141L23.317 8.46541L22.736 9.13941L22.453 8.89641L23.035 8.22141ZM21.48 6.96241L21.792 7.16541L21.307 7.91241L20.995 7.71041L21.48 6.96241ZM19.71 6.08941L20.071 6.18441L19.845 7.04541L19.484 6.95041L19.711 6.09041L19.71 6.08941ZM17.765 5.61141L18.136 5.64141L18.062 6.52941L17.691 6.49841L17.765 5.61141ZM15.751 5.37641H16.123V6.26741H15.751V5.37641ZM14.097 5.61141L14.171 6.49841L13.799 6.53041L13.725 5.64241L14.097 5.61141ZM12.151 6.08941L12.377 6.95041L12.017 7.04541L11.79 6.18541L12.15 6.08941H12.151ZM10.382 6.96241L10.867 7.71041L10.554 7.91241L10.069 7.16541L10.382 6.96241ZM8.827 8.22241L9.408 8.89641L9.126 9.13941L8.545 8.46541L8.827 8.22141V8.22241ZM7.523 9.61241L8.193 10.2004L7.946 10.4804L7.277 9.89341L7.523 9.61341V9.61241ZM6.412 11.3084L7.222 11.6774L7.069 12.0174L6.258 11.6474L6.412 11.3084ZM5.703 13.2814L6.586 13.4034L6.534 13.7734L5.652 13.6504L5.703 13.2804V13.2814ZM5.427 15.2014L6.317 15.2094L6.314 15.5824L5.424 15.5734L5.427 15.2014ZM5.509 17.2934L6.395 17.2034L6.432 17.5734L5.546 17.6634L5.509 17.2934ZM5.912 19.1874L6.78 18.9854L6.865 19.3484L5.997 19.5504L5.912 19.1874ZM6.883 21.4504L6.699 21.1264L7.472 20.6844L7.657 21.0084L6.883 21.4504ZM8.145 23.0374L7.874 22.7814L8.487 22.1344L8.757 22.3904L8.145 23.0374ZM9.57 24.3044L9.267 24.0884L9.784 23.3624L10.087 23.5794L9.57 24.3044ZM11.234 25.4154L10.904 25.2424L11.318 24.4544L11.648 24.6274L11.234 25.4154ZM13.075 26.1234L12.707 26.0614L12.854 25.1834L13.222 25.2454L13.075 26.1234ZM14.684 26.4254L14.677 25.5344L15.05 25.5304L15.057 26.4214L14.684 26.4254ZM6.74 16.0244C6.74 10.9184 10.894 6.76441 16 6.76441C21.106 6.76441 25.26 10.9184 25.26 16.0244C25.26 21.1304 21.106 25.2844 16 25.2844C10.894 25.2844 6.74 21.1304 6.74 16.0244ZM16.726 26.5054L16.714 26.5064L16.633 25.6204L17.004 25.5864L17.016 25.5844L17.097 26.4714L16.726 26.5054ZM18.711 26.0874L18.556 25.2104L18.923 25.1454L19.078 26.0234L18.711 26.0874ZM20.605 25.4334L20.3 24.5964L20.65 24.4694L20.955 25.3064L20.605 25.4334ZM22.286 24.4034L21.736 23.7034L22.028 23.4714L22.579 24.1714L22.286 24.4024V24.4034ZM23.72 23.0064L23.08 22.3884L23.338 22.1194L23.978 22.7394L23.72 23.0064ZM24.892 21.5014L24.172 20.9764L24.392 20.6754L25.112 21.1994L24.892 21.5014ZM25.844 19.7114L25.002 19.4174L25.125 19.0654L25.966 19.3594L25.844 19.7104V19.7114ZM26.369 17.6814L25.479 17.6414L25.496 17.2684L26.386 17.3094L26.369 17.6814ZM19.536 20.7564H19.535C19.684 20.9164 19.688 21.1604 19.541 21.3064C19.394 21.4514 19.151 21.4444 18.992 21.2924V21.2934L18.714 21.0134L18.082 20.3724C17.6719 20.568 17.2199 20.6597 16.766 20.6394H15.028C13.454 20.6974 12 19.9114 12.118 17.3554C12.122 17.2484 12.111 15.8724 12.111 15.7634L12.114 14.7314C12.111 12.1814 12.734 11.0254 14.452 10.6164C14.647 10.5694 15.71 10.5464 15.913 10.5464H16.004C16.208 10.5464 17.146 10.5694 17.341 10.6164C19.059 11.0254 19.682 12.1814 19.679 14.7314L19.682 15.7644C19.682 15.8734 19.671 17.2484 19.676 17.3564C19.74 18.7364 19.344 19.3364 18.719 19.9304L19.259 20.4754L19.536 20.7564ZM16.877 19.8284C17.076 19.8284 17.273 19.8004 17.463 19.7444L17.107 19.3844L16.829 19.1024C16.679 18.9424 16.676 18.6994 16.823 18.5544C16.97 18.4084 17.213 18.4154 17.372 18.5664L17.649 18.8464L18.148 19.3524C18.1737 19.3291 18.1983 19.3047 18.222 19.2794C18.688 18.7914 18.91 18.3834 18.865 17.3934C18.862 17.3234 18.861 17.3224 18.868 16.0804L18.87 15.7634L18.869 15.0654C18.868 14.6394 18.867 14.7894 18.867 14.7304C18.868 13.6004 18.74 12.6184 18.465 12.1754C18.302 11.9114 18.02 11.6154 17.167 11.4094C16.7805 11.3777 16.3928 11.3607 16.005 11.3584H15.913C15.656 11.3584 14.796 11.3844 14.628 11.4094C13.774 11.6154 13.492 11.9114 13.329 12.1754C13.054 12.6184 12.926 13.6004 12.928 14.7304C12.928 14.7904 12.927 14.6394 12.926 15.0654C12.9257 15.4037 12.9257 15.7421 12.926 16.0804C12.933 17.3224 12.933 17.3244 12.929 17.3934C12.884 18.3834 13.107 18.7914 13.573 19.2794C14.006 19.7334 14.543 19.8294 14.917 19.8294L14.998 19.8274L15.013 19.8264H16.796C16.823 19.8284 16.85 19.8284 16.877 19.8284Z" fill="white"/>
</g>
<defs>
<clipPath id="clip0_1_6432">
<rect width="32" height="32" fill="white" transform="translate(0 0.0244141)"/>
</clipPath>
</defs>
</svg>
