<svg width="32" height="33" viewBox="0 0 32 33" fill="none" xmlns="http://www.w3.org/2000/svg">
<g clip-path="url(#clip0_1_6428)">
<path d="M16 32.0244C24.8366 32.0244 32 24.861 32 16.0244C32 7.18786 24.8366 0.0244141 16 0.0244141C7.16344 0.0244141 0 7.18786 0 16.0244C0 24.861 7.16344 32.0244 16 32.0244Z" fill="#FF8C00"/>
<path d="M22.59 19.4694C22.641 19.8704 22.527 20.0254 22.4 20.0254C22.273 20.0254 22.095 19.8704 21.905 19.5604C21.715 19.2504 21.638 18.9004 21.74 18.7204C21.803 18.6034 21.943 18.5514 22.108 18.6164C22.438 18.7464 22.565 19.2494 22.59 19.4694ZM20.813 20.3494C21.206 20.6854 21.321 21.0724 21.117 21.3574C21.053 21.4322 20.9731 21.4919 20.8831 21.532C20.7932 21.5721 20.6955 21.5917 20.597 21.5894C20.3778 21.5916 20.1654 21.5133 20 21.3694C19.645 21.0594 19.543 20.5424 19.771 20.2584C19.8197 20.1982 19.8819 20.1503 19.9527 20.1189C20.0235 20.0874 20.1007 20.0732 20.178 20.0774C20.381 20.0774 20.61 20.1674 20.813 20.3484V20.3494ZM7 14.9184C7 10.0054 10.91 6.02441 15.734 6.02441C20.559 6.02441 24.469 10.0064 24.469 14.9184C24.4691 16.5218 24.0444 18.0966 23.238 19.4824C23.212 19.5214 23.148 19.5084 23.136 19.4564C22.832 17.2714 21.524 16.0694 19.62 15.7074C19.454 15.6814 19.429 15.5774 19.645 15.5524C20.229 15.5004 21.054 15.5134 21.485 15.5914C21.5113 15.3637 21.5243 15.1346 21.524 14.9054C21.524 11.6604 18.934 9.02341 15.747 9.02341C12.561 9.02341 9.971 11.6604 9.971 14.9054C9.971 18.1514 12.561 20.7884 15.747 20.7884H16.014C15.9233 20.2635 15.8848 19.7309 15.899 19.1984C15.912 18.8364 15.989 18.7844 16.141 19.0684C16.941 20.4784 18.083 21.7454 20.318 22.2484C22.146 22.6634 23.974 23.1414 25.942 25.6884C26.119 25.9084 25.853 26.1404 25.65 25.9594C23.644 24.1494 21.816 23.5544 20.153 23.5544C18.286 23.5684 17.017 23.8144 15.734 23.8144C10.91 23.8144 7 19.8304 7 14.9174V14.9184Z" fill="white"/>
</g>
<defs>
<clipPath id="clip0_1_6428">
<rect width="32" height="32" fill="white" transform="translate(0 0.0244141)"/>
</clipPath>
</defs>
</svg>
