<svg width="32" height="33" viewBox="0 0 32 33" fill="none" xmlns="http://www.w3.org/2000/svg">
<g clip-path="url(#clip0_1_6424)">
<path d="M16 32.0244C24.8366 32.0244 32 24.861 32 16.0244C32 7.18786 24.8366 0.0244141 16 0.0244141C7.16344 0.0244141 0 7.18786 0 16.0244C0 24.861 7.16344 32.0244 16 32.0244Z" fill="#610089"/>
<path fill-rule="evenodd" clip-rule="evenodd" d="M16.49 5.02742C21.62 5.30342 25.772 8.86342 26.791 13.8954C26.925 14.5594 26.961 15.2464 26.998 15.9254C27.031 16.5254 26.64 16.9304 26.099 16.9294C25.569 16.9294 25.222 16.5454 25.209 15.9494C25.112 11.5624 22.149 7.94442 17.871 7.02942C17.231 6.89342 16.563 6.89142 15.909 6.81742C15.411 6.76142 15.081 6.37842 15.095 5.89242C15.109 5.41142 15.469 5.05342 15.971 5.02842C16.144 5.02042 16.317 5.02742 16.49 5.02742ZM15.532 27.0244C10.609 26.8764 6.18099 23.1444 5.24699 18.3124C5.10499 17.5724 5.05099 16.8134 5.00199 16.0604C4.97199 15.6004 5.26499 15.2704 5.69199 15.1604C6.04599 15.0684 6.45799 15.2194 6.63799 15.5564C6.72799 15.7274 6.77099 15.9434 6.77499 16.1404C6.84799 20.3444 9.69099 23.9624 13.771 24.9684C14.507 25.1504 15.283 25.1794 16.043 25.2604C16.477 25.3054 16.825 25.6004 16.883 26.0234C16.938 26.4234 16.686 26.8704 16.303 26.9654C16.056 27.0264 15.789 27.0074 15.532 27.0244ZM15.984 12.0214C18.161 12.0144 19.989 13.7994 20.004 15.9464C20.009 16.6864 19.331 17.1524 18.704 16.8334C18.364 16.6614 18.218 16.3734 18.204 15.9904C18.1935 15.4721 18.0005 14.9742 17.659 14.5842C17.3175 14.1942 16.8494 13.9372 16.337 13.8584C15.185 13.6624 14.065 14.4444 13.841 15.6014C13.612 16.7834 14.352 17.9344 15.504 18.1834C15.662 18.2174 15.824 18.2364 15.984 18.2454C16.52 18.2734 16.896 18.6424 16.892 19.1454C16.888 19.6554 16.485 20.0334 15.939 20.0384C14.223 20.0534 12.605 18.8014 12.137 17.0974C11.438 14.5524 13.35 12.0294 15.984 12.0214ZM23.539 15.7784C23.519 15.9484 23.526 16.1614 23.464 16.3514C23.334 16.7554 22.904 16.9894 22.484 16.9214C22.047 16.8494 21.736 16.4914 21.731 16.0014C21.724 15.2554 21.603 14.5314 21.297 13.8544C20.284 11.6194 18.551 10.4204 16.093 10.3044C15.492 10.2744 15.093 9.92242 15.097 9.38442C15.102 8.84642 15.504 8.49542 16.114 8.49742C19.784 8.50442 22.991 11.3444 23.456 15.0014C23.488 15.2484 23.509 15.4954 23.539 15.7784ZM8.47799 16.2394C8.42699 15.8324 8.53099 15.4314 8.99599 15.2174C9.60799 14.9344 10.249 15.3724 10.261 16.0914C10.273 16.7804 10.391 17.4434 10.639 18.0854C11.0425 19.1475 11.7535 20.0651 12.6812 20.721C13.6089 21.3769 14.7111 21.7412 15.847 21.7674C16.623 21.7874 17.074 22.3494 16.827 22.9874C16.689 23.3474 16.385 23.5564 15.969 23.5524C13.767 23.5324 11.91 22.7074 10.425 21.0904C9.2018 19.7681 8.50866 18.0415 8.47799 16.2404V16.2394ZM20.012 19.0594C19.975 19.5064 19.822 19.7894 19.486 19.9464C19.152 20.1024 18.813 20.0784 18.546 19.8314C18.0622 19.3829 17.5949 18.917 17.145 18.4344C16.835 18.1024 16.865 17.5794 17.169 17.2524C17.479 16.9194 18.033 16.8504 18.372 17.1614C18.874 17.6194 19.349 18.1094 19.812 18.6084C19.934 18.7404 19.968 18.9534 20.012 19.0584V19.0594Z" fill="white"/>
</g>
<defs>
<clipPath id="clip0_1_6424">
<rect width="32" height="32" fill="white" transform="translate(0 0.0244141)"/>
</clipPath>
</defs>
</svg>
