<svg width="32" height="33" viewBox="0 0 32 33" fill="none" xmlns="http://www.w3.org/2000/svg">
<g clip-path="url(#clip0_1_6420)">
<path d="M16 32.0244C24.8366 32.0244 32 24.861 32 16.0244C32 7.18786 24.8366 0.0244141 16 0.0244141C7.16344 0.0244141 0 7.18786 0 16.0244C0 24.861 7.16344 32.0244 16 32.0244Z" fill="#252525"/>
<path d="M25.628 21.7334C25.7281 21.7355 25.8233 21.777 25.893 21.8489C25.9626 21.9208 26.0011 22.0173 26 22.1174V24.0244H19.721L19.697 22.3644C19.6974 22.3103 19.7094 22.2569 19.7324 22.2078C19.7553 22.1588 19.7886 22.1153 19.83 22.0804C19.8548 22.0485 19.883 22.0193 19.914 21.9934C22.681 20.0634 23.744 16.3884 22.456 13.2094C21.167 10.0304 17.884 8.23141 14.609 8.90941C11.335 9.58641 8.978 12.5534 8.977 15.9994C8.975 18.3544 10.097 20.5594 11.978 21.8944C12.019 21.9174 12.0523 21.9518 12.074 21.9934C12.1423 22.0253 12.2001 22.076 12.2407 22.1396C12.2813 22.2032 12.3029 22.277 12.303 22.3524L12.279 24.0124H6V22.1044C6 21.8924 6.167 21.7204 6.372 21.7204C6.577 21.7204 6.744 21.8924 6.744 22.1044V23.2564H11.546L11.558 22.5384H11.546C8.785 20.5364 7.6 16.9204 8.616 13.6004C9.635 10.2804 12.62 8.02441 15.995 8.02441C19.37 8.02441 22.355 10.2804 23.372 13.6004C24.389 16.9204 23.204 20.5364 20.442 22.5384L20.455 23.2684H25.257V22.1174C25.2559 22.0173 25.2944 21.9208 25.364 21.8489C25.4337 21.777 25.5289 21.7355 25.629 21.7334H25.628ZM20.67 16.5574C21.498 17.6104 21.75 18.5514 21.39 19.1704C21.114 19.6534 20.526 19.9134 19.673 19.9134C19.1374 19.9004 18.6054 19.8214 18.089 19.6784C17.621 21.3134 16.864 22.3664 16 22.3664C15.136 22.3664 14.38 21.3134 13.923 19.6784C13.4066 19.8214 12.8746 19.9004 12.339 19.9134C11.486 19.9134 10.898 19.6534 10.622 19.1704C10.178 18.4024 10.682 17.2014 11.834 15.9754C11.6598 15.7945 11.4956 15.6042 11.342 15.4054C10.514 14.3524 10.262 13.4234 10.622 12.7794C10.898 12.2964 11.486 12.0364 12.339 12.0364C12.8747 12.0498 13.4067 12.1291 13.923 12.2724C14.391 10.6374 15.148 9.58441 16.012 9.58441C16.876 9.58441 17.632 10.6374 18.089 12.2844C18.6054 12.1414 19.1374 12.0625 19.673 12.0494C20.526 12.0494 21.114 12.3094 21.39 12.7924C21.75 13.4364 21.498 14.3654 20.67 15.4184C20.5163 15.6171 20.3521 15.8073 20.178 15.9884C20.352 16.1684 20.516 16.3584 20.67 16.5574ZM19.685 12.5074C19.1868 12.5231 18.6918 12.5935 18.209 12.7174C18.338 13.3054 18.429 13.9014 18.485 14.5014C18.959 14.8514 19.412 15.2324 19.842 15.6414C20.01 15.4674 20.166 15.2814 20.31 15.1084C20.994 14.2284 21.246 13.4734 20.994 13.0154C20.766 12.5944 20.154 12.5074 19.685 12.5074ZM17.045 17.8454C17.393 17.6354 17.729 17.4124 18.041 17.1894C18.077 16.7924 18.089 16.3964 18.089 15.9754C18.089 15.5544 18.065 15.1454 18.041 14.7614C17.7169 14.5342 17.3843 14.3194 17.044 14.1174C16.7012 13.9222 16.3531 13.7364 16 13.5604C15.642 13.7264 15.294 13.9124 14.956 14.1174C14.596 14.3274 14.271 14.5384 13.959 14.7614C13.923 15.1454 13.911 15.5544 13.911 15.9754C13.911 16.3954 13.935 16.8054 13.959 17.1894C14.6077 17.6448 15.29 18.0503 16 18.4024C16.358 18.2364 16.706 18.0504 17.044 17.8454H17.045ZM17.993 17.8084C17.753 17.9564 17.525 18.1054 17.285 18.2544C17.045 18.4024 16.805 18.5394 16.565 18.6624C16.959 18.8404 17.364 18.9934 17.777 19.1214C17.861 18.7124 17.933 18.2784 17.993 17.8084ZM15.46 18.6624L14.74 18.2544C14.5 18.1054 14.26 17.9564 14.031 17.8084C14.074 18.2504 14.146 18.6884 14.247 19.1214C14.659 18.9914 15.064 18.8384 15.46 18.6624ZM13.491 16.8294C13.4767 16.545 13.4687 16.2602 13.467 15.9754C13.467 15.6784 13.479 15.4054 13.491 15.1204C13.142 15.3844 12.809 15.6694 12.495 15.9754C12.811 16.2784 13.144 16.5644 13.491 16.8294ZM14.031 14.1674C14.2566 14.009 14.4888 13.8602 14.727 13.7214C14.98 13.5724 15.22 13.4364 15.46 13.3124C15.065 13.1344 14.66 12.9824 14.247 12.8544C14.163 13.2624 14.091 13.6964 14.031 14.1674ZM16.552 13.3124C16.792 13.4364 17.032 13.5724 17.272 13.7214C17.512 13.8694 17.752 14.0184 17.981 14.1674C17.9385 13.7254 17.8663 13.2868 17.765 12.8544C17.353 12.9844 16.948 13.1364 16.552 13.3124ZM18.533 15.1324C18.545 15.4184 18.557 15.6904 18.557 15.9874C18.557 16.2844 18.545 16.5694 18.533 16.8424C18.881 16.5574 19.217 16.2724 19.517 15.9874C19.2084 15.6812 18.8796 15.3959 18.533 15.1334V15.1324ZM16.012 10.0554C15.4 10.0554 14.776 10.9224 14.367 12.3954C14.929 12.5724 15.478 12.7874 16.012 13.0384C16.5453 12.7878 17.0949 12.5733 17.657 12.3964C17.248 10.9224 16.612 10.0554 16.012 10.0554ZM11.03 13.0154C10.766 13.4734 11.018 14.2414 11.714 15.0954C11.858 15.2804 12.014 15.4534 12.182 15.6394C12.61 15.2294 13.062 14.8494 13.539 14.5014C13.594 13.9014 13.686 13.3054 13.815 12.7184C13.333 12.5884 12.837 12.5184 12.339 12.5074C11.87 12.5074 11.27 12.5944 11.03 13.0154ZM12.339 19.4554C12.838 19.4454 13.334 19.3704 13.815 19.2314C13.6863 18.6437 13.5941 18.0485 13.539 17.4494C13.056 17.1054 12.599 16.7244 12.17 16.3094C11.138 17.4124 10.73 18.4024 11.03 18.9474C11.258 19.3684 11.87 19.4554 12.339 19.4554ZM16.012 21.9074C16.612 21.9074 17.248 21.0404 17.657 19.5674C17.0948 19.3899 16.5453 19.1747 16.012 18.9234C15.4785 19.1742 14.929 19.3894 14.367 19.5674C14.776 21.0404 15.412 21.9074 16.012 21.9074ZM20.994 18.9474C21.246 18.5014 20.994 17.7344 20.31 16.8544C20.1608 16.6712 20.0047 16.4937 19.842 16.3224C19.414 16.7324 18.962 17.1124 18.485 17.4624C18.4301 18.0619 18.3379 18.6574 18.209 19.2454C18.691 19.3744 19.187 19.4454 19.685 19.4554C20.154 19.4554 20.754 19.3684 20.994 18.9474ZM16.012 14.1674C16.982 14.1674 17.77 14.9744 17.777 15.9754C17.777 16.9724 16.994 17.7814 16.028 17.7834C15.062 17.7854 14.276 16.9804 14.271 15.9834C14.267 14.9864 15.046 14.1734 16.012 14.1674ZM16.012 17.3254C16.726 17.3194 17.303 16.7244 17.309 15.9874C17.309 15.2484 16.729 14.6504 16.012 14.6504C15.295 14.6504 14.715 15.2484 14.715 15.9874C14.715 16.7264 15.296 17.3254 16.012 17.3254Z" fill="white"/>
</g>
<defs>
<clipPath id="clip0_1_6420">
<rect width="32" height="32" fill="white" transform="translate(0 0.0244141)"/>
</clipPath>
</defs>
</svg>
