<svg width="32" height="33" viewBox="0 0 32 33" fill="none" xmlns="http://www.w3.org/2000/svg">
<g clip-path="url(#clip0_1_6416)">
<path d="M16 32.0244C24.8366 32.0244 32 24.861 32 16.0244C32 7.18786 24.8366 0.0244141 16 0.0244141C7.16344 0.0244141 0 7.18786 0 16.0244C0 24.861 7.16344 32.0244 16 32.0244Z" fill="#454545"/>
<path fill-rule="evenodd" clip-rule="evenodd" d="M11.5 16.0244C11.5 13.5434 13.519 11.5244 16 11.5244C18.481 11.5244 20.5 13.5434 20.5 16.0244C20.5 16.6774 20.357 17.2964 20.106 17.8574L17.136 14.8874L14.864 17.1604L17.834 20.1304C17.2574 20.39 16.6323 20.5243 16 20.5244C14.8069 20.5231 13.6631 20.0486 12.8195 19.2049C11.9759 18.3613 11.5013 17.2175 11.5 16.0244ZM23.313 16.0244C23.3143 14.612 22.9043 13.2297 22.133 12.0464L25 9.17841L22.846 7.02441L19.978 9.89241C18.832 9.14741 17.468 8.71141 16 8.71141C14.532 8.71141 13.168 9.14741 12.022 9.89141L9.154 7.02441L7 9.17841L9.868 12.0464C9.123 13.1924 8.687 14.5564 8.687 16.0244C8.687 17.4924 9.124 18.8564 9.868 20.0024L7 22.8704L9.154 25.0244L12.022 22.1564C13.168 22.9014 14.532 23.3374 16 23.3374C17.468 23.3374 18.832 22.9014 19.978 22.1564L22.846 25.0244L25 22.8704L22.132 20.0024C22.9037 18.8193 23.314 17.437 23.313 16.0244Z" fill="white"/>
</g>
<defs>
<clipPath id="clip0_1_6416">
<rect width="32" height="32" fill="white" transform="translate(0 0.0244141)"/>
</clipPath>
</defs>
</svg>
