<svg width="32" height="33" viewBox="0 0 32 33" fill="none" xmlns="http://www.w3.org/2000/svg">
<g clip-path="url(#clip0_1_6412)">
<path d="M16.0005 32.0244C24.837 32.0244 32.0005 24.861 32.0005 16.0244C32.0005 7.18786 24.837 0.0244141 16.0005 0.0244141C7.16393 0.0244141 0.000488281 7.18786 0.000488281 16.0244C0.000488281 24.861 7.16393 32.0244 16.0005 32.0244Z" fill="#2E9AD0"/>
<path d="M24.8135 23.6604L22.8405 21.9044L18.8485 24.8994C18.8961 25.004 18.9207 25.1175 18.9205 25.2324C18.9221 25.4405 18.8411 25.6408 18.6952 25.7893C18.5494 25.9377 18.3506 26.0223 18.1425 26.0244C17.9597 26.0233 17.7831 25.9584 17.6432 25.8408C17.5033 25.7231 17.4089 25.5603 17.3765 25.3804H13.0665C13.0341 25.5601 12.9399 25.7228 12.8002 25.8404C12.6605 25.958 12.4841 26.0231 12.3015 26.0244C12.0932 26.0226 11.8942 25.9381 11.7481 25.7896C11.6021 25.6411 11.5209 25.4407 11.5225 25.2324C11.5223 25.1183 11.5465 25.0054 11.5935 24.9014L8.0475 22.2614C7.90618 22.3895 7.72225 22.4605 7.5315 22.4604C7.32322 22.4586 7.12418 22.3741 6.97812 22.2256C6.83205 22.0771 6.75091 21.8767 6.7525 21.6684C6.7525 21.3684 6.9165 21.1074 7.1585 20.9724L5.8555 16.8124C5.74647 16.822 5.63662 16.8088 5.53301 16.7735C5.4294 16.7382 5.3343 16.6816 5.25381 16.6074C5.17332 16.5332 5.10921 16.4431 5.06559 16.3427C5.02197 16.2423 4.9998 16.1339 5.0005 16.0244C4.99985 15.9129 5.02294 15.8025 5.06824 15.7005C5.11355 15.5986 5.18003 15.5075 5.26327 15.4332C5.34651 15.359 5.4446 15.3033 5.55102 15.2699C5.65744 15.2365 5.76976 15.2261 5.8805 15.2394L7.1615 11.0784C7.03703 11.0094 6.93339 10.9082 6.86144 10.7854C6.78949 10.6626 6.75186 10.5227 6.7525 10.3804C6.7525 9.94341 7.1015 9.58841 7.5315 9.58841C7.7335 9.58841 7.9175 9.66641 8.0555 9.79441L11.6285 7.21441C11.559 7.09329 11.5224 6.95606 11.5225 6.81641C11.5225 6.37941 11.8715 6.02441 12.3015 6.02441C12.6815 6.02441 12.9985 6.30141 13.0665 6.66841H17.3765C17.4089 6.48854 17.5033 6.32569 17.6432 6.20807C17.7831 6.09045 17.9597 6.02548 18.1425 6.02441C18.5725 6.02441 18.9205 6.37941 18.9205 6.81641C18.9208 6.949 18.8882 7.07958 18.8255 7.19641L22.3755 9.80641C22.5193 9.66658 22.7119 9.58837 22.9125 9.58841C23.3425 9.58841 23.6905 9.94341 23.6905 10.3804C23.6911 10.5119 23.6591 10.6415 23.5973 10.7575C23.5355 10.8736 23.4459 10.9725 23.3365 11.0454L24.6125 15.2344C24.72 15.227 24.8279 15.2421 24.9293 15.2787C25.0306 15.3152 25.1233 15.3725 25.2013 15.4468C25.2794 15.5211 25.3411 15.6108 25.3827 15.7102C25.4242 15.8097 25.4446 15.9167 25.4425 16.0244C25.4433 16.1297 25.423 16.234 25.3828 16.3313C25.3425 16.4285 25.2831 16.5167 25.2081 16.5906C25.1331 16.6644 25.0441 16.7225 24.9462 16.7613C24.8484 16.8001 24.7437 16.8188 24.6385 16.8164L23.1415 21.6464L25.0585 23.3524C25.2705 23.1603 25.5464 23.054 25.8325 23.0544C26.4775 23.0544 27.0005 23.5864 27.0005 24.2424C27.0005 24.8984 26.4775 25.4304 25.8325 25.4304C25.6778 25.4291 25.5249 25.3973 25.3825 25.3369C25.24 25.2765 25.1109 25.1886 25.0024 25.0783C24.894 24.968 24.8083 24.8374 24.7503 24.694C24.6924 24.5506 24.6632 24.3971 24.6645 24.2424C24.6645 24.0304 24.7185 23.8324 24.8145 23.6604H24.8135ZM18.2085 24.4434L19.6955 21.0944C19.5734 20.9935 19.4842 20.8584 19.4395 20.7064L15.9895 21.2084C15.965 21.3551 15.8999 21.4919 15.8015 21.6034L17.8485 24.4984C17.9623 24.4514 18.0858 24.4325 18.2085 24.4434ZM18.6015 24.5934L22.4705 21.6904L20.8025 20.9644C20.7165 21.0783 20.6006 21.1662 20.4677 21.2182C20.3347 21.2703 20.19 21.2846 20.0495 21.2594L18.5765 24.5754C18.5849 24.5809 18.5933 24.5866 18.6015 24.5924V24.5934ZM17.5365 24.7344L15.4765 21.8224C15.3115 21.8807 15.1315 21.8807 14.9665 21.8224L12.9065 24.7344C12.9662 24.809 13.0119 24.8937 13.0415 24.9844H17.4015C17.4311 24.8937 17.4769 24.809 17.5365 24.7344ZM24.2645 16.7044C24.1483 16.6331 24.0523 16.5332 23.9859 16.4141C23.9196 16.295 23.885 16.1608 23.8855 16.0244C23.8855 15.7444 24.0275 15.4994 24.2425 15.3584L23.0365 11.3984L22.7665 15.2724C23.0765 15.3764 23.3015 15.6734 23.3015 16.0244C23.3023 16.1889 23.2517 16.3496 23.1569 16.484C23.0621 16.6184 22.9277 16.7199 22.7725 16.7744L23.0385 20.6604L24.2645 16.7044ZM22.0105 15.4274L20.4265 12.3224C20.2975 12.3651 20.1594 12.3727 20.0265 12.3444L18.6345 15.4114C18.7243 15.4863 18.7964 15.5801 18.8459 15.686C18.8953 15.792 18.9208 15.9075 18.9205 16.0244C18.9207 16.1432 18.8943 16.2606 18.8433 16.3679C18.7922 16.4751 18.7178 16.5696 18.6255 16.6444L20.0605 19.6984C20.1636 19.6814 20.2691 19.6855 20.3705 19.7104L21.9895 16.6004C21.9117 16.526 21.8498 16.4366 21.8075 16.3376C21.7652 16.2386 21.7434 16.1321 21.7435 16.0244C21.7435 15.7864 21.8475 15.5724 22.0105 15.4274ZM22.3845 16.8044C22.3664 16.8011 22.3484 16.7971 22.3305 16.7924L20.7135 19.8964C20.8083 19.9851 20.8801 20.0955 20.9224 20.2182C20.9648 20.3409 20.9765 20.4721 20.9565 20.6004L22.6965 21.3584L22.3845 16.8044ZM22.3785 15.2464L22.6645 11.1324C22.5139 11.0806 22.3827 10.9839 22.2885 10.8554L20.9505 11.4144C20.9739 11.5374 20.9685 11.6642 20.9347 11.7848C20.9009 11.9054 20.8395 12.0165 20.7555 12.1094L22.3595 15.2494C22.3658 15.2483 22.3722 15.2473 22.3785 15.2464ZM18.2705 16.8064C18.1589 16.8251 18.0445 16.8189 17.9355 16.7884L15.8125 20.5584C15.876 20.6335 15.9252 20.7196 15.9575 20.8124L19.4255 20.3084C19.4655 20.1274 19.5655 19.9684 19.7035 19.8584L18.2705 16.8044V16.8064ZM18.2805 15.2454L19.6775 12.1684C19.5355 12.0437 19.4427 11.8724 19.4155 11.6854L15.9405 11.1804C15.9023 11.2737 15.8466 11.3589 15.7765 11.4314L17.9155 15.2664C18.034 15.2299 18.1596 15.2227 18.2815 15.2454H18.2805ZM17.5985 16.5914C17.5238 16.5172 17.4645 16.4288 17.4242 16.3315C17.3838 16.2341 17.3632 16.1298 17.3635 16.0244C17.3635 15.8104 17.4475 15.6154 17.5835 15.4734L15.4435 11.6354C15.3242 11.6716 15.1979 11.6781 15.0755 11.6544L12.8685 15.4814C13.0052 15.6292 13.0809 15.8231 13.0805 16.0244C13.0811 16.2333 12.9996 16.4341 12.8535 16.5834L15.0215 20.3084C15.1767 20.2667 15.3411 20.2748 15.4915 20.3314L17.5985 16.5914ZM6.2215 16.6764L7.4635 20.6424L7.7565 16.7984C7.58142 16.7584 7.4252 16.6599 7.31359 16.5192C7.20197 16.3785 7.14163 16.204 7.1425 16.0244C7.14158 15.8425 7.20347 15.6659 7.3177 15.5243C7.43193 15.3827 7.59152 15.2849 7.7695 15.2474L7.4665 11.4134L6.2435 15.3884C6.34169 15.4628 6.42125 15.5589 6.47592 15.6693C6.53058 15.7797 6.55885 15.9012 6.5585 16.0244C6.5585 16.2944 6.4245 16.5344 6.2215 16.6764ZM10.1095 19.7024C10.2249 19.6798 10.3439 19.6839 10.4575 19.7144L11.8275 16.6534C11.7322 16.5787 11.6551 16.4832 11.6023 16.3742C11.5494 16.2652 11.5221 16.1456 11.5225 16.0244C11.5225 15.7764 11.6345 15.5554 11.8095 15.4104L10.4175 12.3444C10.3214 12.3647 10.2223 12.3664 10.1255 12.3494L8.4465 15.4404C8.52676 15.515 8.59075 15.6054 8.63445 15.7059C8.67816 15.8064 8.70065 15.9148 8.7005 16.0244C8.70082 16.131 8.67974 16.2365 8.63852 16.3348C8.59729 16.433 8.53676 16.522 8.4605 16.5964L10.1105 19.7024H10.1095ZM10.4335 21.2524C10.291 21.2859 10.1419 21.278 10.0037 21.2296C9.86555 21.1812 9.74405 21.0944 9.6535 20.9794L8.3035 21.5674C8.31882 21.6904 8.30582 21.8152 8.2655 21.9324L11.8405 24.5944C11.851 24.5865 11.8616 24.5788 11.8725 24.5714L10.4325 21.2514L10.4335 21.2524ZM9.4905 20.6194C9.46563 20.4823 9.47719 20.341 9.52405 20.2097C9.57091 20.0785 9.65141 19.9618 9.7575 19.8714L8.1445 16.8364L7.8315 20.9364C7.96274 20.9926 8.07615 21.0835 8.1595 21.1994L9.4905 20.6194ZM11.0205 20.3204L14.4855 20.8144C14.5258 20.6964 14.5932 20.5895 14.6825 20.5024L12.5185 16.7854C12.4109 16.8173 12.2975 16.8251 12.1865 16.8084L10.7965 19.9094C10.911 20.0206 10.9891 20.1639 11.0205 20.3204ZM11.0005 20.7174C10.9588 20.8517 10.8822 20.9725 10.7785 21.0674L12.2415 24.4424C12.3619 24.4334 12.4828 24.4525 12.5945 24.4984L14.6425 21.6034C14.5445 21.4925 14.4794 21.3564 14.4545 21.2104L11.0005 20.7174ZM9.4975 11.3954L8.1665 10.8394C8.08302 10.9593 7.96768 11.0536 7.8335 11.1114L8.1535 15.1624L9.7695 12.1864C9.65541 12.0929 9.56955 11.9695 9.52152 11.83C9.47349 11.6905 9.46518 11.5404 9.4975 11.3964V11.3954ZM10.4475 10.8004L11.8225 7.56041L8.2695 10.1264C8.30621 10.2368 8.31849 10.3538 8.3055 10.4694L9.6755 11.0424C9.76913 10.9345 9.8909 10.8548 10.0272 10.812C10.1635 10.7693 10.309 10.7653 10.4475 10.8004ZM11.0295 11.6734C11.0048 11.8649 10.9114 12.0408 10.7665 12.1684L12.1625 15.2454C12.2886 15.2221 12.4186 15.2307 12.5405 15.2704L14.7225 11.4844C14.6257 11.4015 14.5502 11.2966 14.5025 11.1784L11.0295 11.6734ZM10.7895 10.9914C10.8735 11.0714 10.9395 11.1704 10.9825 11.2804L14.4475 10.7864C14.4634 10.6416 14.5188 10.5039 14.6075 10.3884L12.6175 7.54041C12.4954 7.59588 12.361 7.6183 12.2275 7.60541L10.7905 10.9914H10.7895ZM20.1125 10.7804C20.238 10.7688 20.3644 10.788 20.4808 10.8362C20.5972 10.8845 20.7001 10.9604 20.7805 11.0574L22.1405 10.4894C22.125 10.373 22.1349 10.2546 22.1695 10.1424L18.6405 7.54841L20.1115 10.7804H20.1125ZM19.4565 11.2904C19.5127 11.1388 19.6139 11.0079 19.7465 10.9154L18.2365 7.60241C18.0967 7.61942 17.955 7.59799 17.8265 7.54041L15.8365 10.3884C15.925 10.5049 15.9803 10.6431 15.9965 10.7884L19.4565 11.2914V11.2904ZM17.5205 7.29441C17.4689 7.2247 17.429 7.147 17.4025 7.06441H13.0405C13.0137 7.14707 12.9735 7.22477 12.9215 7.29441L14.9155 10.1474C15.0117 10.1056 15.1156 10.084 15.2205 10.084C15.3254 10.084 15.4293 10.1056 15.5255 10.1474L17.5205 7.29441Z" fill="white"/>
</g>
<defs>
<clipPath id="clip0_1_6412">
<rect width="32" height="32" fill="white" transform="translate(0.000488281 0.0244141)"/>
</clipPath>
</defs>
</svg>
