<svg width="32" height="33" viewBox="0 0 32 33" fill="none" xmlns="http://www.w3.org/2000/svg">
<g clip-path="url(#clip0_1_6404)">
<path d="M16.0005 32.0244C24.837 32.0244 32.0005 24.861 32.0005 16.0244C32.0005 7.18786 24.837 0.0244141 16.0005 0.0244141C7.16393 0.0244141 0.000488281 7.18786 0.000488281 16.0244C0.000488281 24.861 7.16393 32.0244 16.0005 32.0244Z" fill="#9D4BEF"/>
<path d="M11.8095 8.02441C12.8194 8.02441 13.788 8.42561 14.5022 9.13975C15.2163 9.85389 15.6175 10.8225 15.6175 11.8324C15.6175 12.8424 15.2163 13.8109 14.5022 14.5251C13.788 15.2392 12.8194 15.6404 11.8095 15.6404C10.7995 15.6404 9.83097 15.2392 9.11683 14.5251C8.40269 13.8109 8.00149 12.8424 8.00149 11.8324C8.00149 10.8225 8.40269 9.85389 9.11683 9.13975C9.83097 8.42561 10.7995 8.02441 11.8095 8.02441ZM15.6165 20.8944C15.6165 21.6476 15.3932 22.3838 14.9747 23.01C14.5563 23.6362 13.9616 24.1243 13.2657 24.4125C12.5699 24.7008 11.8043 24.7762 11.0656 24.6292C10.3269 24.4823 9.64839 24.1196 9.11583 23.5871C8.58327 23.0545 8.22059 22.376 8.07366 21.6373C7.92673 20.8986 8.00214 20.133 8.29036 19.4372C8.57858 18.7413 9.06666 18.1466 9.69288 17.7282C10.3191 17.3097 11.0553 17.0864 11.8085 17.0864C13.2017 17.0864 14.5378 16.533 15.5229 15.5478C16.508 14.5627 17.0615 13.2266 17.0615 11.8334C17.0615 11.0803 17.2848 10.344 17.7033 9.7178C18.1217 9.09158 18.7164 8.6035 19.4122 8.31528C20.1081 8.02706 20.8737 7.95165 21.6124 8.09858C22.3511 8.24552 23.0296 8.60819 23.5622 9.14075C24.0947 9.67331 24.4574 10.3518 24.6043 11.0905C24.7513 11.8292 24.6758 12.5949 24.3876 13.2907C24.0994 13.9865 23.6113 14.5812 22.9851 14.9997C22.3589 15.4181 21.6226 15.6414 20.8695 15.6414C19.4765 15.6417 18.1406 16.1952 17.1557 17.1803C16.1708 18.1654 15.6175 19.5014 15.6175 20.8944H15.6165ZM20.8695 24.7024C19.8595 24.7024 18.891 24.3012 18.1768 23.5871C17.4627 22.8729 17.0615 21.9044 17.0615 20.8944C17.0615 19.8845 17.4627 18.9159 18.1768 18.2018C18.891 17.4876 19.8595 17.0864 20.8695 17.0864C21.8794 17.0864 22.848 17.4876 23.5622 18.2018C24.2763 18.9159 24.6775 19.8845 24.6775 20.8944C24.6775 21.9044 24.2763 22.8729 23.5622 23.5871C22.848 24.3012 21.8794 24.7024 20.8695 24.7024ZM20.8695 22.0424C21.174 22.0424 21.466 21.9215 21.6812 21.7062C21.8965 21.4909 22.0175 21.1989 22.0175 20.8944C22.0175 20.5899 21.8965 20.2979 21.6812 20.0827C21.466 19.8674 21.174 19.7464 20.8695 19.7464C20.565 19.7464 20.273 19.8674 20.0577 20.0827C19.8424 20.2979 19.7215 20.5899 19.7215 20.8944C19.7215 21.1989 19.8424 21.4909 20.0577 21.7062C20.273 21.9215 20.565 22.0424 20.8695 22.0424ZM11.8095 22.0424C12.114 22.0424 12.406 21.9215 12.6212 21.7062C12.8365 21.4909 12.9575 21.1989 12.9575 20.8944C12.9575 20.5899 12.8365 20.2979 12.6212 20.0827C12.406 19.8674 12.114 19.7464 11.8095 19.7464C11.505 19.7464 11.213 19.8674 10.9977 20.0827C10.7824 20.2979 10.6615 20.5899 10.6615 20.8944C10.6615 21.1989 10.7824 21.4909 10.9977 21.7062C11.213 21.9215 11.505 22.0424 11.8095 22.0424ZM20.8695 12.9804C21.174 12.9804 21.466 12.8595 21.6812 12.6442C21.8965 12.4289 22.0175 12.1369 22.0175 11.8324C22.0175 11.5279 21.8965 11.2359 21.6812 11.0207C21.466 10.8054 21.174 10.6844 20.8695 10.6844C20.565 10.6844 20.273 10.8054 20.0577 11.0207C19.8424 11.2359 19.7215 11.5279 19.7215 11.8324C19.7215 12.1369 19.8424 12.4289 20.0577 12.6442C20.273 12.8595 20.565 12.9804 20.8695 12.9804ZM11.8095 12.9804C12.114 12.9804 12.406 12.8595 12.6212 12.6442C12.8365 12.4289 12.9575 12.1369 12.9575 11.8324C12.9575 11.5279 12.8365 11.2359 12.6212 11.0207C12.406 10.8054 12.114 10.6844 11.8095 10.6844C11.505 10.6844 11.213 10.8054 10.9977 11.0207C10.7824 11.2359 10.6615 11.5279 10.6615 11.8324C10.6615 12.1369 10.7824 12.4289 10.9977 12.6442C11.213 12.8595 11.505 12.9804 11.8095 12.9804Z" fill="white"/>
</g>
<defs>
<clipPath id="clip0_1_6404">
<rect width="32" height="32" fill="white" transform="translate(0.000488281 0.0244141)"/>
</clipPath>
</defs>
</svg>
