<svg width="32" height="33" viewBox="0 0 32 33" fill="none" xmlns="http://www.w3.org/2000/svg">
<g clip-path="url(#clip0_1_6400)">
<path d="M16.0005 32.0244C24.837 32.0244 32.0005 24.861 32.0005 16.0244C32.0005 7.18786 24.837 0.0244141 16.0005 0.0244141C7.16393 0.0244141 0.000488281 7.18786 0.000488281 16.0244C0.000488281 24.861 7.16393 32.0244 16.0005 32.0244Z" fill="black"/>
<path d="M12.4785 6.45941V25.9374H9.00049V6.02441H12.4785V6.45941ZM14.9575 6.02441H16.9135C20.9575 6.02441 23.6535 8.58941 23.6535 12.2414C23.6535 15.1984 22.0435 17.4594 19.1305 18.1984L24.2175 25.9374H20.1305L13.1745 15.1544H16.5225C18.7395 15.1544 20.1305 14.1544 20.1305 12.1984C20.1305 10.2414 18.7405 9.24141 16.5225 9.24141H15.0005V6.02441H14.9575Z" fill="white"/>
</g>
<defs>
<clipPath id="clip0_1_6400">
<rect width="32" height="32" fill="white" transform="translate(0.000488281 0.0244141)"/>
</clipPath>
</defs>
</svg>
