<svg width="32" height="33" viewBox="0 0 32 33" fill="none" xmlns="http://www.w3.org/2000/svg">
<g clip-path="url(#clip0_1_6396)">
<path d="M16.0005 32.0244C24.837 32.0244 32.0005 24.861 32.0005 16.0244C32.0005 7.18786 24.837 0.0244141 16.0005 0.0244141C7.16393 0.0244141 0.000488281 7.18786 0.000488281 16.0244C0.000488281 24.861 7.16393 32.0244 16.0005 32.0244Z" fill="#3555F9"/>
<path d="M14.3606 7.15136C15.2106 6.99336 16.0806 7.01136 16.9406 7.05436C17.9326 7.17036 18.9266 7.37836 19.8386 7.78836C21.66 8.54949 23.2039 9.85148 24.2616 11.5184C24.6546 12.0914 24.9186 12.7334 25.1836 13.3704C25.4296 12.9784 25.6496 12.5704 25.8636 12.1604C25.9556 11.9674 26.1486 11.8184 26.3736 11.8284C26.5232 11.8167 26.6716 11.8632 26.7879 11.9582C26.9041 12.0532 26.9792 12.1894 26.9976 12.3384C27.0226 12.5784 26.8716 12.7854 26.7726 12.9934C26.4606 13.6234 26.0576 14.2054 25.6406 14.7734C25.5636 14.8554 25.5956 14.9694 25.6046 15.0694C26.0686 17.8064 25.1856 20.7194 23.3046 22.7814C22.2202 23.9866 20.8537 24.904 19.3276 25.4514C17.5696 26.0664 15.6336 26.2054 13.8156 25.7754C11.1796 25.2044 8.84755 23.4664 7.52155 21.1604C7.23155 20.6934 7.04655 20.1744 6.81755 19.6784C6.56755 20.0634 6.35555 20.4684 6.14255 20.8724C6.09251 20.9725 6.0172 21.0578 5.92407 21.1199C5.83094 21.182 5.72322 21.2187 5.61155 21.2264C5.23055 21.2264 4.88455 20.8164 5.03755 20.4514C5.36555 19.6974 5.81455 18.9994 6.31755 18.3474C6.42555 18.2344 6.41055 18.0744 6.39055 17.9334C6.20378 16.73 6.25817 15.5015 6.55055 14.3194C7.32055 10.9954 10.0806 8.21936 13.4256 7.35436C13.7356 7.28136 14.0456 7.20436 14.3606 7.15136ZM11.9986 9.16136C10.2256 10.0934 8.79855 11.6524 8.05855 13.4934C7.63055 14.6054 7.41255 15.8014 7.47855 16.9914C7.66633 16.8504 7.84533 16.6981 8.01455 16.5354C9.00955 15.6474 10.1746 14.9594 11.3926 14.4114C13.6556 13.3824 16.1476 12.9394 18.6236 12.8194C17.7866 11.9514 16.8786 11.1504 16.0416 10.2824C16.3056 9.99236 16.5916 9.72436 16.8776 9.45636C17.2026 9.75036 17.5026 10.0694 17.8206 10.3704C18.8506 11.3954 19.9116 12.3904 20.9246 13.4294C19.8446 14.5064 18.7366 15.5564 17.6566 16.6334C17.5655 16.719 17.4701 16.7998 17.3706 16.8754C17.0986 16.6014 16.7826 16.3614 16.5646 16.0404C17.2286 15.3444 17.9846 14.7344 18.6216 14.0134C17.4796 14.0294 16.3436 14.1914 15.2256 14.4134C14.3226 14.5744 13.4546 14.8794 12.5876 15.1704C10.7716 15.8504 9.09655 16.9344 7.81955 18.3844C7.74355 18.4594 7.75455 18.5704 7.77455 18.6644C7.92555 19.3124 8.21055 19.9184 8.52255 20.5044C9.55255 22.3614 11.3326 23.7964 13.3776 24.4444C14.5736 24.8124 15.8496 24.9544 17.0936 24.7814C18.8325 24.5629 20.4631 23.8179 21.7666 22.6464C23.6316 21.0024 24.6776 18.4974 24.5166 16.0384C24.3196 16.1914 24.1436 16.3654 23.9596 16.5314C22.7087 17.6075 21.2699 18.4435 19.7156 18.9974C17.6956 19.7474 15.5436 20.1354 13.3886 20.1964C13.5766 20.4424 13.8086 20.6484 14.0276 20.8674C14.6726 21.4954 15.3086 22.1314 15.9636 22.7494C15.7116 23.0464 15.4176 23.3054 15.1396 23.5774C14.8606 23.3504 14.6196 23.0864 14.3596 22.8374C13.3856 21.8934 12.4216 20.9374 11.4496 19.9894C11.315 19.8669 11.1912 19.7331 11.0796 19.5894C11.5006 19.1374 11.9846 18.7474 12.4156 18.3054C13.1556 17.5904 13.8756 16.8544 14.6246 16.1484C14.9046 16.4204 15.1986 16.6804 15.4476 16.9814C14.7816 17.6714 14.0726 18.3204 13.3976 19.0014C14.1376 19.0384 14.8676 18.9114 15.6016 18.8414C16.1316 18.7854 16.6526 18.6654 17.1756 18.5564C19.8606 17.9364 22.4756 16.6614 24.2776 14.5604C23.5876 11.5764 21.0506 9.12036 18.0316 8.42636C16.0206 7.91536 13.8276 8.20636 11.9986 9.16136Z" fill="white"/>
</g>
<defs>
<clipPath id="clip0_1_6396">
<rect width="32" height="32" fill="white" transform="translate(0.000488281 0.0244141)"/>
</clipPath>
</defs>
</svg>
