<svg width="32" height="33" viewBox="0 0 32 33" fill="none" xmlns="http://www.w3.org/2000/svg">
<g clip-path="url(#clip0_1_6390)">
<path d="M16.0005 32.0244C24.837 32.0244 32.0005 24.861 32.0005 16.0244C32.0005 7.18786 24.837 0.0244141 16.0005 0.0244141C7.16393 0.0244141 0.000488281 7.18786 0.000488281 16.0244C0.000488281 24.861 7.16393 32.0244 16.0005 32.0244Z" fill="#E30613"/>
<path opacity="0.75" fill-rule="evenodd" clip-rule="evenodd" d="M15.3615 26.5404C9.64049 26.5404 5.00049 21.9474 5.00049 16.2824C5.00049 10.6174 9.63949 6.02441 15.3615 6.02441C21.0845 6.02441 25.7235 10.6174 25.7235 16.2824C25.7235 21.9474 21.0835 26.5404 15.3605 26.5404H15.3615ZM17.1505 8.96341C19.5665 9.95241 21.3025 11.8134 22.5345 14.3214L23.4645 13.6744C22.4205 11.1624 20.4915 9.18841 17.3885 7.90841L17.1505 8.96341Z" fill="white"/>
<path d="M26.7305 9.34541C26.7305 6.95941 24.7755 5.02441 22.3655 5.02441C19.9555 5.02441 18.0005 6.95941 18.0005 9.34541C18.0005 9.57341 18.0185 9.80041 18.0545 10.0254C19.5075 10.8714 20.6745 12.0854 21.6075 13.6014C21.8575 13.6444 22.1115 13.6674 22.3655 13.6674C24.7755 13.6674 26.7305 11.7324 26.7305 9.34541Z" fill="white"/>
</g>
<defs>
<clipPath id="clip0_1_6390">
<rect width="32" height="32" fill="white" transform="translate(0.000488281 0.0244141)"/>
</clipPath>
</defs>
</svg>
