<svg width="32" height="33" viewBox="0 0 32 33" fill="none" xmlns="http://www.w3.org/2000/svg">
<g clip-path="url(#clip0_1_6386)">
<path d="M16.0005 32.0244C24.837 32.0244 32.0005 24.861 32.0005 16.0244C32.0005 7.18786 24.837 0.0244141 16.0005 0.0244141C7.16393 0.0244141 0.000488281 7.18786 0.000488281 16.0244C0.000488281 24.861 7.16393 32.0244 16.0005 32.0244Z" fill="#2A2A2A"/>
<path d="M10.0005 6.03041H18.1115C18.2095 6.00041 18.2595 6.09041 18.3235 6.14041C19.088 6.86254 19.7739 7.66368 20.3695 8.53041C21.2158 9.74251 21.8802 11.0719 22.3415 12.4764C22.8235 13.9604 23.0515 15.5304 22.9915 17.0904H18.8565C18.8768 16.8831 18.8842 16.6747 18.8785 16.4664C18.8355 14.9954 18.3815 13.5524 17.6665 12.2744C16.9015 10.9054 15.8335 9.72441 14.6195 8.74341C13.2975 7.67441 11.8095 6.83041 10.2595 6.14841C10.1735 6.10841 10.0835 6.07641 10.0005 6.03041ZM13.0025 13.3574C14.3898 15.8672 15.7748 18.3781 17.1575 20.8904C17.4905 21.4964 17.8275 22.1004 18.1575 22.7074C16.4365 23.8094 14.7205 24.9214 13.0005 26.0244V13.3574H13.0025Z" fill="white"/>
</g>
<defs>
<clipPath id="clip0_1_6386">
<rect width="32" height="32" fill="white" transform="translate(0.000488281 0.0244141)"/>
</clipPath>
</defs>
</svg>
