<svg width="32" height="33" viewBox="0 0 32 33" fill="none" xmlns="http://www.w3.org/2000/svg">
<g clip-path="url(#clip0_1_6382)">
<path d="M16.001 32.0244C24.8375 32.0244 32.001 24.861 32.001 16.0244C32.001 7.18786 24.8375 0.0244141 16.001 0.0244141C7.16442 0.0244141 0.000976562 7.18786 0.000976562 16.0244C0.000976562 24.861 7.16442 32.0244 16.001 32.0244Z" fill="#080817"/>
<path d="M9.94098 9.52841L11.505 8.62741L11.727 8.99041L17.527 5.64041L17.1 5.38741L16.672 5.15141L16.467 5.02441L7.00098 10.4934V10.7294L9.71898 9.16441L9.94098 9.52841ZM9.94098 12.9724L14.491 10.3494L14.696 10.7144L20.513 7.36241L20.087 7.10941L19.66 6.87341L19.453 6.74641L7.00098 13.9204V14.1734L9.71898 12.6094L9.94098 12.9724ZM9.94098 14.6944L15.977 11.2044L16.182 11.5674L21.999 8.21741L21.573 7.97941L21.143 7.72541L20.939 7.59941L7.00098 15.6444V15.8944L9.71898 14.3164L9.94098 14.6944ZM9.94098 16.4024L17.509 12.0394L17.717 12.4054L23.485 9.07041L23.056 8.83141L22.63 8.58141L22.425 8.46841L7.00098 17.3674V17.6034L9.71898 16.0394L9.94098 16.4024ZM9.94098 18.1244L18.995 12.8944L19.202 13.2744L24.971 9.94041L24.541 9.68641L24.133 9.44841L23.911 9.32341L7.00098 19.0894V19.3254L9.71898 17.7614L9.94098 18.1244ZM25.616 10.3034L25.396 10.1764L7.00098 20.8114V21.0474L9.71898 19.4834L9.94098 19.8464L18.995 14.6164L19.202 14.9804L25.932 11.1094V10.4934L25.616 10.3034ZM8.17098 22.0924L9.68798 21.2224L9.90898 21.5864L18.949 16.3564L19.169 16.7334L25.933 12.8144V11.5984L7.96598 21.9664L8.17098 22.0924ZM18.949 18.0784L19.169 18.4584L25.933 14.5384V13.3214L9.45098 22.8344L9.65498 22.9614L11.205 22.0604L11.424 22.4234L18.949 18.0784ZM11.142 23.8144L12.706 22.9144L12.91 23.2944L18.95 19.8004L19.168 20.1634L25.933 16.2614V15.0294L10.935 23.6884L11.142 23.8144ZM12.643 24.6674L14.192 23.7834L14.396 24.1464L18.949 21.5224L19.169 21.8854L25.933 17.9834V16.7504L12.421 24.5574L12.643 24.6674ZM13.907 25.4104L14.128 25.5374L15.678 24.6354L15.882 25.0154L18.949 23.2454L19.169 23.6104L25.933 19.7054V18.4744L13.907 25.4104ZM15.614 26.3894L17.164 25.5054L17.383 25.8684L18.949 24.9524L19.169 25.3324L25.933 21.4274V20.1954L15.407 26.2804L15.614 26.3894ZM19.027 6.49341L18.601 6.25741L18.174 6.00341L17.953 5.87741L7.00098 12.2144V12.4504L9.71898 10.8864L9.94098 11.2494L13.005 9.48141L13.213 9.84441L19.027 6.49341Z" fill="white"/>
</g>
<defs>
<clipPath id="clip0_1_6382">
<rect width="32" height="32" fill="white" transform="translate(0.000976562 0.0244141)"/>
</clipPath>
</defs>
</svg>
