<svg width="32" height="33" viewBox="0 0 32 33" fill="none" xmlns="http://www.w3.org/2000/svg">
<g clip-path="url(#clip0_1_6378)">
<path d="M16.001 32.0244C24.8375 32.0244 32.001 24.861 32.001 16.0244C32.001 7.18786 24.8375 0.0244141 16.001 0.0244141C7.16442 0.0244141 0.000976562 7.18786 0.000976562 16.0244C0.000976562 24.861 7.16442 32.0244 16.001 32.0244Z" fill="#602A52"/>
<path fill-rule="evenodd" clip-rule="evenodd" d="M20.5814 16.3364C20.3031 15.5603 19.8065 14.8811 19.1514 14.3804L19.1444 14.3724C19.075 14.3199 19.004 14.2695 18.9314 14.2214L18.9174 14.2114C18.8459 14.1645 18.7733 14.1195 18.6994 14.0764L18.6794 14.0644C18.607 14.0225 18.5326 13.9841 18.4564 13.9494L18.4344 13.9374C18.3565 13.9008 18.2778 13.8658 18.1984 13.8324L18.1724 13.8224C17.9155 13.7158 17.649 13.6341 17.3764 13.5784C17.2194 13.8632 17.0174 14.1209 16.7784 14.3414C17.3398 14.3862 17.8821 14.5656 18.3594 14.8644L18.3864 14.8804L18.5184 14.9704L18.5784 15.0124C18.6184 15.0424 18.6554 15.0724 18.6964 15.1024L18.7634 15.1564C18.7994 15.1864 18.8324 15.2164 18.8664 15.2474L18.9344 15.3124L19.0274 15.4064L19.0954 15.4794L19.1784 15.5764L19.2434 15.6574L19.3184 15.7574C19.3434 15.7904 19.3604 15.8164 19.3804 15.8454C19.4004 15.8744 19.4264 15.9124 19.4474 15.9474L19.5054 16.0434C19.5234 16.0754 19.5454 16.1114 19.5634 16.1454C19.5834 16.1784 19.5994 16.2154 19.6174 16.2514C19.6344 16.2874 19.6514 16.3174 19.6664 16.3514C19.6851 16.3958 19.7031 16.4405 19.7204 16.4854C19.8153 16.7222 19.8824 16.9692 19.9204 17.2214L20.0294 17.6254C20.0754 17.7934 20.5004 19.2814 21.4854 19.7824C22.6144 20.3614 24.1094 21.0764 24.6974 21.3594L16.9314 25.9194V22.7944C16.9314 22.3014 17.9314 21.7244 18.3944 21.5214L18.4214 21.5064C18.5164 21.4594 18.6114 21.4084 18.7014 21.3544L18.7404 21.3344C18.9407 21.2138 19.1313 21.0777 19.3104 20.9274L19.3584 20.8844L19.4134 20.8354C19.4697 20.7848 19.5247 20.7328 19.5784 20.6794L19.6064 20.6524C19.6654 20.5934 19.7244 20.5374 19.7764 20.4684L19.8254 20.4124C19.8694 20.3604 19.9114 20.3074 19.9524 20.2534L19.9884 20.2084C20.0384 20.1424 20.0844 20.0744 20.1304 20.0054L20.1464 19.9854C20.2084 19.8884 20.2634 19.7914 20.3214 19.6904C20.1036 19.4275 19.9171 19.1403 19.7654 18.8344C19.7034 19.0074 19.6254 19.1754 19.5354 19.3364C19.4974 19.4064 19.4574 19.4744 19.4174 19.5404L19.3994 19.5674C19.3617 19.6235 19.3223 19.6786 19.2814 19.7324L19.2454 19.7784C19.2047 19.831 19.162 19.882 19.1174 19.9314L19.0934 19.9594C18.8041 20.2754 18.4586 20.5348 18.0744 20.7244L18.0014 20.7614C17.8044 20.8484 16.0684 21.6184 16.0684 22.7894V25.9154L8.27841 21.3474C8.77941 21.0414 10.2434 20.1894 11.4474 19.8144C11.9184 19.6704 12.9184 20.2874 13.4854 20.7404L13.5194 20.7704C13.5944 20.8404 13.6734 20.9074 13.7554 20.9704L13.7834 20.9954C13.9634 21.1394 14.1554 21.2684 14.3564 21.3824L14.4914 21.4554L14.5184 21.4694C14.6494 21.5354 14.7834 21.5954 14.9204 21.6484L14.9804 21.6714L15.0204 21.6874C15.2174 21.7594 15.4204 21.8154 15.6254 21.8574C15.7867 21.569 15.9949 21.3095 16.2414 21.0894C15.9128 21.0651 15.5892 20.9944 15.2804 20.8794L15.2274 20.8594L15.1254 20.8184L15.0734 20.7964L14.9744 20.7504C14.7451 20.6392 14.5288 20.5031 14.3294 20.3444L14.0194 20.0684C13.7348 19.8233 13.4266 19.6069 13.0994 19.4224C12.3294 18.9924 11.6854 18.8524 11.1914 19.0044C10.1614 19.3224 9.00141 19.9404 8.29341 20.3484L16.0714 6.63143V12.6384C16.0714 12.8514 15.7514 13.4074 14.6824 13.8794L14.6084 13.9194C14.5044 13.9694 14.4034 14.0234 14.3044 14.0814L14.2844 14.0914C13.9552 14.2853 13.6533 14.5221 13.3864 14.7954L13.3764 14.8054C13.2752 14.9095 13.1795 15.0186 13.0894 15.1324L13.0784 15.1474C13.035 15.2029 12.9926 15.2592 12.9514 15.3164L12.9374 15.3364C12.9003 15.3904 12.8643 15.4451 12.8294 15.5004L12.8174 15.5174C12.7822 15.5742 12.7485 15.6319 12.7164 15.6904L12.6934 15.7314C12.6644 15.7874 12.6354 15.8474 12.6064 15.8994L12.5934 15.9264C12.5677 15.9791 12.5433 16.0325 12.5204 16.0864L12.4954 16.1464C12.4724 16.2024 12.4514 16.2624 12.4304 16.3164L12.4104 16.3764C12.3951 16.4193 12.3811 16.4627 12.3684 16.5064C12.3614 16.5304 12.3534 16.5534 12.3474 16.5784C12.29 16.7792 12.2482 16.9842 12.2224 17.1914L12.2124 17.2844C12.2077 17.3267 12.204 17.369 12.2014 17.4114C12.1994 17.4544 12.2014 17.4964 12.1944 17.5384C12.1874 17.5814 12.1944 17.5904 12.1944 17.6184V17.7134C12.1944 17.9234 12.2104 18.1334 12.2424 18.3424C12.5774 18.4242 12.9016 18.545 13.2084 18.7024C13.1142 18.4005 13.0637 18.0867 13.0584 17.7704V17.7134C13.0584 17.6374 13.0584 17.5624 13.0674 17.4824V17.4224C13.0674 17.3574 13.0804 17.2914 13.0894 17.2264V17.1984C13.0997 17.1261 13.1138 17.0543 13.1314 16.9834L13.1434 16.9284C13.1584 16.8684 13.1734 16.8104 13.1924 16.7514L13.2044 16.7134C13.2244 16.6444 13.2494 16.5774 13.2754 16.5104L13.2954 16.4654C13.3174 16.4104 13.3414 16.3554 13.3664 16.3004L13.3854 16.2584C13.4164 16.1934 13.4504 16.1304 13.4854 16.0674L13.5044 16.0364C13.5359 15.9822 13.5689 15.9288 13.6034 15.8764L13.6284 15.8394C13.6694 15.7794 13.7114 15.7234 13.7564 15.6614L13.7644 15.6514C13.8074 15.5964 13.8524 15.5434 13.8984 15.4914L13.9234 15.4614C14.1344 15.2294 14.3764 15.0264 14.6434 14.8584L15.0114 14.6884C15.2084 14.6014 16.9364 13.8104 16.9364 12.6384V6.63143L24.7754 20.4514C24.0754 20.1144 22.8454 19.5194 21.8854 19.0314C21.3374 18.7514 20.9634 17.7644 20.8674 17.4104L20.7614 16.9954C20.7222 16.7727 20.6646 16.5537 20.5894 16.3404L20.5814 16.3364ZM25.8914 20.6864L17.2514 5.46043C17.1751 5.32725 17.0648 5.21672 16.9318 5.14012C16.7988 5.06352 16.6479 5.02359 16.4944 5.02443C16.3413 5.02395 16.1907 5.06404 16.0581 5.14062C15.9255 5.21721 15.8155 5.32755 15.7394 5.46043L7.10941 20.6874C7.00078 20.8794 6.9724 21.1065 7.03047 21.3193C7.08853 21.532 7.22833 21.7133 7.41941 21.8234L16.0564 26.9034C16.1911 26.9822 16.3444 27.0236 16.5004 27.0236C16.6565 27.0236 16.8097 26.9822 16.9444 26.9034L25.5804 21.8274C25.7714 21.7174 25.9112 21.5365 25.9694 21.3239C26.0277 21.1114 25.9996 20.8844 25.8914 20.6924L25.8934 20.6864H25.8914Z" fill="white"/>
</g>
<defs>
<clipPath id="clip0_1_6378">
<rect width="32" height="32" fill="white" transform="translate(0.000976562 0.0244141)"/>
</clipPath>
</defs>
</svg>
