<svg width="32" height="33" viewBox="0 0 32 33" fill="none" xmlns="http://www.w3.org/2000/svg">
<g clip-path="url(#clip0_1_6374)">
<path d="M16.001 32.0244C24.8375 32.0244 32.001 24.861 32.001 16.0244C32.001 7.18786 24.8375 0.0244141 16.001 0.0244141C7.16442 0.0244141 0.000976562 7.18786 0.000976562 16.0244C0.000976562 24.861 7.16442 32.0244 16.001 32.0244Z" fill="#0E0E21"/>
<path fill-rule="evenodd" clip-rule="evenodd" d="M11.5512 15.5194L10.3112 14.7144C10.2571 14.6793 10.2187 14.6246 10.204 14.5618C10.1893 14.499 10.1994 14.4329 10.2322 14.3774L15.0162 6.26641C15.0593 6.19312 15.1206 6.13227 15.1942 6.08984C15.2679 6.04741 15.3513 6.02487 15.4362 6.02441H16.5652C16.6502 6.02487 16.7336 6.04741 16.8073 6.08984C16.8809 6.13227 16.9422 6.19312 16.9852 6.26641L21.7692 14.3774C21.8021 14.4329 21.8122 14.499 21.7975 14.5618C21.7828 14.6246 21.7443 14.6793 21.6902 14.7144L20.4502 15.5194C20.4226 15.537 20.3918 15.5488 20.3595 15.5541C20.3272 15.5595 20.2942 15.5583 20.2624 15.5507C20.2305 15.543 20.2006 15.5291 20.1743 15.5096C20.148 15.4902 20.1259 15.4656 20.1092 15.4374L16.1062 8.65141C16.0954 8.63317 16.0801 8.61806 16.0617 8.60756C16.0433 8.59706 16.0224 8.59153 16.0012 8.59153C15.98 8.59153 15.9592 8.59706 15.9408 8.60756C15.9224 8.61806 15.907 8.63317 15.8962 8.65141L11.8932 15.4374C11.8767 15.4658 11.8546 15.4906 11.8282 15.5103C11.8019 15.5299 11.7718 15.544 11.7398 15.5516C11.7078 15.5593 11.6746 15.5604 11.6422 15.5549C11.6098 15.5493 11.5789 15.5373 11.5512 15.5194ZM23.0282 16.5144L24.9322 19.7424C24.9972 19.8533 25.0174 19.9849 24.9886 20.1102C24.9598 20.2355 24.8842 20.345 24.7772 20.4164L16.2672 25.9464C16.1885 25.998 16.0964 26.0254 16.0022 26.0254C15.9081 26.0254 15.816 25.998 15.7372 25.9464L7.22724 20.4164C7.11937 20.3458 7.04292 20.2363 7.01386 20.1108C6.98479 19.9852 7.00535 19.8532 7.07124 19.7424L8.97524 16.5144C8.99176 16.486 9.01388 16.4612 9.04025 16.4416C9.06663 16.4219 9.09671 16.4079 9.12869 16.4002C9.16066 16.3925 9.19386 16.3914 9.22627 16.397C9.25868 16.4025 9.28963 16.4146 9.31724 16.4324L10.5562 17.2374C10.6103 17.2725 10.6488 17.3272 10.6635 17.39C10.6782 17.4528 10.6681 17.5189 10.6352 17.5744L9.54724 19.4194C9.5315 19.4473 9.52687 19.4801 9.53429 19.5113C9.54171 19.5424 9.56062 19.5696 9.58724 19.5874L15.9352 23.7124C15.9752 23.7394 16.0252 23.7394 16.0662 23.7124L22.4162 19.5874C22.4432 19.5699 22.4625 19.5427 22.4699 19.5114C22.4774 19.4801 22.4725 19.4472 22.4562 19.4194L21.3682 17.5744C21.3354 17.5189 21.3253 17.4528 21.34 17.39C21.3547 17.3272 21.3931 17.2725 21.4472 17.2374L22.6872 16.4324C22.7148 16.4147 22.7457 16.4028 22.778 16.3974C22.8103 16.3919 22.8434 16.393 22.8752 16.4007C22.9071 16.4084 22.9371 16.4224 22.9633 16.4419C22.9896 16.4615 23.0117 16.4861 23.0282 16.5144Z" fill="white"/>
</g>
<defs>
<clipPath id="clip0_1_6374">
<rect width="32" height="32" fill="white" transform="translate(0.000976562 0.0244141)"/>
</clipPath>
</defs>
</svg>
