<svg width="32" height="33" viewBox="0 0 32 33" fill="none" xmlns="http://www.w3.org/2000/svg">
<g clip-path="url(#clip0_1_6370)">
<path d="M16 32.0254C24.8366 32.0254 32 24.8619 32 16.0254C32 7.18883 24.8366 0.0253906 16 0.0253906C7.16344 0.0253906 0 7.18883 0 16.0254C0 24.8619 7.16344 32.0254 16 32.0254Z" fill="#00E6A0"/>
<path d="M22.5731 7.02555C22.6615 7.0236 22.7493 7.03962 22.8313 7.07262C22.9133 7.10563 22.9878 7.15493 23.0501 7.21755L23.0441 7.21155C23.1429 7.31 23.2075 7.43762 23.2281 7.57555L23.2371 7.67955L23.2301 11.0965C23.2301 11.5455 23.0521 11.9765 22.7341 12.2935L18.4941 16.5205L23.0311 21.0435C23.1907 21.1995 23.3178 21.3855 23.4051 21.5908C23.4923 21.7962 23.538 22.0167 23.5396 22.2398C23.5411 22.4629 23.4984 22.6841 23.414 22.8906C23.3296 23.0972 23.2051 23.2849 23.0477 23.443C22.8903 23.6011 22.7031 23.7265 22.497 23.8119C22.2909 23.8973 22.0699 23.941 21.8468 23.9405C21.6237 23.94 21.4029 23.8953 21.1971 23.8089C20.9914 23.7226 20.8048 23.5964 20.6481 23.4375L14.9131 17.7205C14.755 17.5638 14.6294 17.3773 14.5438 17.1717C14.4581 16.9662 14.414 16.7457 14.414 16.523C14.414 16.3004 14.4581 16.0799 14.5438 15.8744C14.6294 15.6688 14.755 15.4823 14.9131 15.3255L19.9351 10.3135H11.4371V22.2025C11.4409 22.4292 11.3991 22.6543 11.3141 22.8645C11.2291 23.0746 11.1027 23.2655 10.9424 23.4258C10.7821 23.5861 10.5912 23.7125 10.3811 23.7975C10.1709 23.8825 9.9458 23.9243 9.71915 23.9205L9.54915 23.9145C9.12251 23.8775 8.72569 23.6804 8.43837 23.3628C8.15105 23.0452 7.9945 22.6308 8.00015 22.2025V8.87255C8.00015 7.80655 8.76315 7.02555 9.79615 7.02555H22.5731Z" fill="white"/>
</g>
<defs>
<clipPath id="clip0_1_6370">
<rect width="32" height="32" fill="white" transform="translate(0 0.0253906)"/>
</clipPath>
</defs>
</svg>
