<svg width="32" height="33" viewBox="0 0 32 33" fill="none" xmlns="http://www.w3.org/2000/svg">
<g clip-path="url(#clip0_1_6366)">
<path d="M16 32.0254C24.8366 32.0254 32 24.8619 32 16.0254C32 7.18883 24.8366 0.0253906 16 0.0253906C7.16344 0.0253906 0 7.18883 0 16.0254C0 24.8619 7.16344 32.0254 16 32.0254Z" fill="#CC1E46"/>
<path d="M12.1305 9.23337C13.8042 7.97555 15.7976 7.21326 17.8835 7.03337C18.0955 6.99037 18.3255 7.12437 18.3185 7.35837C18.3385 7.91837 18.3245 8.47837 18.3245 9.03837C18.3385 9.21237 18.2465 9.43837 18.0465 9.44337C16.2005 9.64737 14.4465 10.4014 12.9225 11.4434C12.7785 11.5244 12.8105 11.7114 12.8225 11.8474C12.9285 12.8294 12.8565 13.8184 12.8855 14.8034C17.8595 14.8174 22.8355 14.8014 27.8115 14.8114C28.0485 14.7914 28.2985 14.9264 28.2795 15.1914C28.3045 16.8664 28.2845 18.5414 28.2895 20.2154C28.2935 21.1254 28.0995 22.0674 27.5485 22.8114C26.6785 23.9804 25.1485 24.6814 23.6945 24.4234C22.6645 24.2694 21.7745 23.6304 21.1505 22.8194C19.4519 24.0969 17.4251 24.8651 15.3065 25.0344C15.0915 25.0374 14.9305 24.8264 14.9635 24.6204C14.9705 24.0344 14.9515 23.4464 14.9735 22.8604C15.0235 22.5504 15.4055 22.6104 15.6325 22.5594C17.3765 22.2874 19.0445 21.5564 20.4685 20.5194C20.3951 19.4313 20.3694 18.3406 20.3915 17.2504C15.3995 17.2184 10.4055 17.2484 5.41347 17.2344C5.19347 17.2594 4.98147 17.0944 5.00247 16.8614C4.99847 15.0984 4.99947 13.3344 5.00447 11.5714C5.01447 10.6494 5.30547 9.71737 5.91647 9.01437C6.72147 8.09837 7.93547 7.51337 9.16747 7.58537C10.3475 7.63237 11.4305 8.30337 12.1305 9.23337ZM7.01447 11.8754C7.01247 12.9084 7.01147 13.9424 7.01647 14.9774C8.25047 14.9764 9.48247 14.9944 10.7155 14.9674C10.7175 13.9594 10.7305 12.9524 10.7095 11.9444C10.6905 10.9784 9.81747 10.1244 8.84747 10.1444C7.90047 10.1054 7.03747 10.9344 7.01447 11.8744V11.8754ZM22.7235 17.1654C22.7135 18.1474 22.7215 19.1304 22.7175 20.1124C22.7115 20.5054 22.8305 20.8894 23.0575 21.2094C23.5315 21.8864 24.4755 22.1824 25.2475 21.8834C25.9605 21.6194 26.4315 20.8734 26.4235 20.1234C26.4235 19.1374 26.4285 18.1534 26.4195 17.1674C25.1875 17.1574 23.9555 17.1624 22.7235 17.1644V17.1654Z" fill="white"/>
</g>
<defs>
<clipPath id="clip0_1_6366">
<rect width="32" height="32" fill="white" transform="translate(0 0.0253906)"/>
</clipPath>
</defs>
</svg>
