<svg width="32" height="33" viewBox="0 0 32 33" fill="none" xmlns="http://www.w3.org/2000/svg">
<g clip-path="url(#clip0_1_6362)">
<path d="M16 32.0254C24.8366 32.0254 32 24.8619 32 16.0254C32 7.18883 24.8366 0.0253906 16 0.0253906C7.16344 0.0253906 0 7.18883 0 16.0254C0 24.8619 7.16344 32.0254 16 32.0254Z" fill="#60E4DD"/>
<path fill-rule="evenodd" clip-rule="evenodd" d="M10.144 20.0494C10.444 19.5944 10.728 19.1684 10.996 18.7694H7.932C7.90734 18.7694 7.88368 18.7596 7.86624 18.7422C7.8488 18.7247 7.839 18.7011 7.839 18.6764V18.0404C7.839 17.9894 7.881 17.9474 7.932 17.9474H11.554C13.491 15.1184 14.459 13.9534 14.459 13.8344C14.459 13.6514 14.419 13.5604 13.759 13.5604C12.455 13.5604 10.31 12.6294 10.31 10.0874C10.31 8.70439 12.547 7.02539 13.853 7.02539C14.459 7.02539 14.552 7.28239 14.273 7.29939C13.527 7.34539 11.895 8.83539 11.895 10.2694C11.895 11.2294 12.747 12.8744 14.645 12.8744C16.887 12.8744 18.802 9.31039 23.457 9.31039C26.254 9.31039 27 11.4984 27 12.0984C27 12.6984 26.127 13.0124 24.949 13.0124C23.771 13.0124 23.727 10.9094 21.359 10.9094C17.641 10.9094 14.475 14.9354 12.954 17.9474H15.578C15.63 17.9474 15.671 17.9894 15.671 18.0404V18.6764C15.6711 18.6887 15.6688 18.7009 15.6642 18.7123C15.6596 18.7237 15.6528 18.7341 15.6441 18.7428C15.6355 18.7515 15.6252 18.7585 15.6138 18.7632C15.6025 18.768 15.5903 18.7704 15.578 18.7704H12.568C12.36 19.2504 12.205 19.6854 12.108 20.0504H14.738C14.79 20.0504 14.832 20.0904 14.832 20.1424V20.7794C14.832 20.8041 14.8222 20.8277 14.8048 20.8452C14.7873 20.8626 14.7637 20.8724 14.739 20.8724H11.99C12.039 22.0384 13.017 23.0894 14.926 24.0254H7.606C8.26206 22.9677 8.92876 21.9166 9.606 20.8724H7.094C7.0817 20.8725 7.0695 20.8702 7.0581 20.8656C7.0467 20.861 7.03633 20.8542 7.02759 20.8455C7.01885 20.8369 7.01191 20.8266 7.00717 20.8152C7.00244 20.8039 7 20.7917 7 20.7794V20.1424C7 20.0914 7.042 20.0494 7.093 20.0494H10.144Z" fill="white"/>
</g>
<defs>
<clipPath id="clip0_1_6362">
<rect width="32" height="32" fill="white" transform="translate(0 0.0253906)"/>
</clipPath>
</defs>
</svg>
