<svg width="32" height="33" viewBox="0 0 32 33" fill="none" xmlns="http://www.w3.org/2000/svg">
<g clip-path="url(#clip0_1_5478)">
<path d="M16 32.0254C24.8366 32.0254 32 24.8619 32 16.0254C32 7.18883 24.8366 0.0253906 16 0.0253906C7.16344 0.0253906 0 7.18883 0 16.0254C0 24.8619 7.16344 32.0254 16 32.0254Z" fill="#F49352"/>
<path fill-rule="evenodd" clip-rule="evenodd" d="M12.605 9.18039C11.748 9.18039 11.053 8.47439 11.053 7.60339C11.053 6.73239 11.748 6.02539 12.605 6.02539C13.463 6.02539 14.158 6.73139 14.158 7.60339C14.158 8.47539 13.463 9.18039 12.605 9.18039ZM19.447 26.0254C19.2415 26.0237 19.0383 25.9815 18.8491 25.9013C18.6599 25.8211 18.4883 25.7044 18.3442 25.5578C18.2001 25.4113 18.0862 25.2378 18.0092 25.0473C17.9321 24.8568 17.8933 24.6529 17.895 24.4474C17.895 23.5774 18.59 22.8704 19.447 22.8704C20.305 22.8704 21 23.5764 21 24.4474C21 25.3194 20.305 26.0254 19.447 26.0254ZM13.242 14.2354C13.097 14.3483 12.9309 14.4311 12.7535 14.479C12.5761 14.5268 12.3909 14.5388 12.2088 14.5141C12.0267 14.4894 11.8513 14.4286 11.693 14.3352C11.5348 14.2419 11.3967 14.1178 11.287 13.9704C11.0621 13.6711 10.9634 13.2956 11.012 12.9244C11.0606 12.5532 11.2527 12.2157 11.547 11.9844L18.705 6.42239C18.85 6.30948 19.0161 6.22667 19.1935 6.17882C19.3709 6.13096 19.5561 6.11903 19.7382 6.14371C19.9204 6.16839 20.0957 6.2292 20.254 6.32256C20.4123 6.41592 20.5503 6.53996 20.66 6.68739C20.8852 6.98678 20.9841 7.36249 20.9355 7.73395C20.8869 8.1054 20.6946 8.44302 20.4 8.67439L13.242 14.2354ZM13.295 19.9044C13.15 20.0173 12.9839 20.1001 12.8065 20.148C12.6291 20.1958 12.4439 20.2078 12.2618 20.1831C12.0797 20.1584 11.9043 20.0976 11.746 20.0042C11.5878 19.9109 11.4497 19.7868 11.34 19.6394C11.1148 19.34 11.0159 18.9643 11.0645 18.5928C11.1132 18.2214 11.3054 17.8838 11.6 17.6524L18.758 12.0914C18.903 11.9785 19.0691 11.8957 19.2465 11.8478C19.4239 11.8 19.6091 11.788 19.7912 11.8127C19.9734 11.8374 20.1487 11.8982 20.307 11.9916C20.4653 12.0849 20.6033 12.209 20.713 12.3564C20.9379 12.6557 21.0366 13.0312 20.988 13.4024C20.9394 13.7736 20.7474 14.111 20.453 14.3424L13.295 19.9044ZM13.295 25.7334C13.15 25.8463 12.9839 25.9291 12.8065 25.977C12.6291 26.0248 12.4439 26.0368 12.2618 26.0121C12.0797 25.9874 11.9043 25.9266 11.746 25.8332C11.5878 25.7399 11.4497 25.6158 11.34 25.4684C11.1148 25.169 11.0159 24.7933 11.0645 24.4218C11.1132 24.0504 11.3054 23.7128 11.6 23.4814L18.758 17.9204C18.903 17.8075 19.0691 17.7247 19.2465 17.6768C19.4239 17.629 19.6091 17.617 19.7912 17.6417C19.9734 17.6664 20.1487 17.7272 20.307 17.8206C20.4653 17.9139 20.6033 18.038 20.713 18.1854C20.9379 18.4847 21.0366 18.8602 20.988 19.2314C20.9394 19.6026 20.7474 19.94 20.453 20.1714L13.295 25.7334Z" fill="white"/>
</g>
<defs>
<clipPath id="clip0_1_5478">
<rect width="32" height="32" fill="white" transform="translate(0 0.0253906)"/>
</clipPath>
</defs>
</svg>
