<svg width="32" height="33" viewBox="0 0 32 33" fill="none" xmlns="http://www.w3.org/2000/svg">
<g clip-path="url(#clip0_1_5474)">
<path d="M16 32.0254C24.8366 32.0254 32 24.8619 32 16.0254C32 7.18883 24.8366 0.0253906 16 0.0253906C7.16344 0.0253906 0 7.18883 0 16.0254C0 24.8619 7.16344 32.0254 16 32.0254Z" fill="#FFD800"/>
<path fill-rule="evenodd" clip-rule="evenodd" d="M23.683 12.9114C23.74 12.8544 23.853 12.8544 23.964 12.8544C25.651 12.8544 27 14.2824 27 15.9974C27 17.5974 25.82 18.8544 24.302 19.1394H23.964C23.402 19.1394 22.84 18.9684 22.334 18.6824C22.1698 18.5668 21.9728 18.5068 21.772 18.5114C21.547 18.5114 21.322 18.5684 21.154 18.6824C20.76 18.9114 20.592 19.3114 20.592 19.7684V20.2824C20.5327 20.9883 20.2319 21.6522 19.7403 22.1622C19.2487 22.6723 18.5963 22.9972 17.893 23.0824H17.556C16.994 23.0824 16.432 22.9114 15.926 22.6254C15.701 22.5114 15.533 22.4544 15.308 22.4544C15.083 22.4544 14.858 22.5114 14.689 22.6254C14.296 22.8544 14.127 23.2544 14.127 23.7114V24.2254C14.015 25.7114 12.834 26.8544 11.373 27.0254H11.092C9.405 27.0254 8.056 25.5964 8.056 23.8824C8.112 22.2824 9.236 20.9684 10.754 20.7964H11.092C11.654 20.7964 12.216 20.9684 12.722 21.2544C12.8862 21.37 13.0832 21.43 13.284 21.4254C13.509 21.4254 13.734 21.3684 13.902 21.2544C14.296 21.0254 14.464 20.6254 14.464 20.1684C14.352 18.5114 15.533 17.0254 17.163 16.8544H17.5C18.062 16.8544 18.624 17.0254 19.13 17.3114C19.355 17.4254 19.524 17.4824 19.749 17.4824C19.973 17.4824 20.199 17.4254 20.367 17.3114C20.76 17.0824 20.929 16.6824 20.929 16.2254C20.817 14.5684 22.053 13.0824 23.683 12.9114ZM17.22 8.96839C17.332 8.91139 17.389 8.91139 17.557 8.91139C19.244 8.91139 20.593 10.3394 20.593 12.0544C20.537 13.6544 19.413 14.9684 17.894 15.1394H17.557C16.995 15.1394 16.433 14.9684 15.927 14.6824C15.7628 14.5668 15.5658 14.5068 15.365 14.5114C15.14 14.5114 14.915 14.5684 14.747 14.6824C14.353 14.9114 14.184 15.3114 14.184 15.7684V16.2824C14.072 17.7674 12.892 18.9104 11.43 19.0824H11.149C9.463 19.0824 8.113 17.6544 8.113 15.9394C8.113 14.3974 9.238 13.1394 10.755 12.9114H11.093C11.655 12.9114 12.217 13.0824 12.723 13.3684C12.8872 13.484 13.0842 13.544 13.285 13.5394C13.51 13.5394 13.735 13.4824 13.903 13.3684C14.297 13.1394 14.465 12.7394 14.465 12.2824C14.353 10.6254 15.59 9.13939 17.22 8.96839ZM11.036 5.02539C12.712 5.02539 14.071 6.40739 14.071 8.11139C14.071 9.81539 12.711 11.1964 11.036 11.1964C9.359 11.1964 8 9.81539 8 8.11139C8 6.40739 9.36 5.02539 11.036 5.02539Z" fill="white"/>
</g>
<defs>
<clipPath id="clip0_1_5474">
<rect width="32" height="32" fill="white" transform="translate(0 0.0253906)"/>
</clipPath>
</defs>
</svg>
