<svg width="32" height="33" viewBox="0 0 32 33" fill="none" xmlns="http://www.w3.org/2000/svg">
<g clip-path="url(#clip0_1_5470)">
<path d="M16 32.0254C24.8366 32.0254 32 24.8619 32 16.0254C32 7.18883 24.8366 0.0253906 16 0.0253906C7.16344 0.0253906 0 7.18883 0 16.0254C0 24.8619 7.16344 32.0254 16 32.0254Z" fill="#8D181B"/>
<path d="M25.696 15.7574C26.416 15.7574 27 16.3274 27 17.0324C27 17.7374 26.416 18.3074 25.696 18.3074C25.146 18.3074 24.675 17.9734 24.484 17.5024H20.764L19.392 19.9424C19.166 20.3444 18.547 20.2254 18.493 19.7704L18.185 17.1634L17.045 25.6174C16.969 26.1794 16.128 26.1534 16.089 25.5874L15.154 11.9204L14.164 20.9744C14.104 21.5144 13.311 21.5424 13.214 21.0074L12.166 15.2514L11.682 17.1464C11.6547 17.249 11.5942 17.3396 11.5098 17.404C11.4255 17.4685 11.3221 17.5031 11.216 17.5024H6.48C6.215 17.5024 6 17.2924 6 17.0324C6 16.7724 6.215 16.5624 6.48 16.5624H10.84L11.779 12.8914C11.905 12.3994 12.627 12.4244 12.719 12.9234L13.568 17.5924L14.787 6.44539C14.85 5.87439 15.705 5.89039 15.744 6.46339L16.725 20.8034L17.739 13.2794C17.813 12.7304 18.628 12.7364 18.693 13.2864L19.275 18.2014L20.059 16.8054C20.1014 16.7312 20.1627 16.6696 20.2366 16.6269C20.3106 16.5842 20.3946 16.562 20.48 16.5624H24.484C24.5832 16.323 24.7514 16.1185 24.9673 15.9751C25.1832 15.8318 25.4369 15.756 25.696 15.7574Z" fill="white"/>
</g>
<defs>
<clipPath id="clip0_1_5470">
<rect width="32" height="32" fill="white" transform="translate(0 0.0253906)"/>
</clipPath>
</defs>
</svg>
