<svg width="32" height="33" viewBox="0 0 32 33" fill="none" xmlns="http://www.w3.org/2000/svg">
<g clip-path="url(#clip0_1_5466)">
<path d="M16.0005 32.0254C24.837 32.0254 32.0005 24.8619 32.0005 16.0254C32.0005 7.18883 24.837 0.0253906 16.0005 0.0253906C7.16393 0.0253906 0.000488281 7.18883 0.000488281 16.0254C0.000488281 24.8619 7.16393 32.0254 16.0005 32.0254Z" fill="#64D1FF"/>
<path fill-rule="evenodd" clip-rule="evenodd" d="M11.0005 15.2634H12.7645V7.02539H17.3115C18.1555 7.02539 18.9255 7.12439 19.6215 7.32239C20.3175 7.52039 20.9135 7.82239 21.4105 8.22639C21.9075 8.63039 22.2965 9.14339 22.5785 9.76239C22.8595 10.3824 23.0005 11.1224 23.0005 11.9834C23.0005 12.8444 22.8505 13.5934 22.5535 14.2304C22.2725 14.8448 21.8561 15.3877 21.3355 15.8184C20.8008 16.2515 20.1841 16.5723 19.5225 16.7614C18.7878 16.9735 18.0262 17.0779 17.2615 17.0714H14.7515V19.6794H18.7515V21.3844H14.7515V25.0254H12.7645V21.3844H11.0005V19.6794H12.7645V17.0714H11.0005V15.2634ZM17.3105 15.2634C18.4535 15.2634 19.3525 14.9924 20.0065 14.4504C20.6605 13.9074 20.9885 13.0854 20.9885 11.9834C20.9885 10.8824 20.6605 10.0814 20.0065 9.58239C19.3525 9.08239 18.4535 8.83239 17.3115 8.83239H14.7515V15.2634H17.3105Z" fill="white"/>
</g>
<defs>
<clipPath id="clip0_1_5466">
<rect width="32" height="32" fill="white" transform="translate(0.000488281 0.0253906)"/>
</clipPath>
</defs>
</svg>
