<svg width="32" height="33" viewBox="0 0 32 33" fill="none" xmlns="http://www.w3.org/2000/svg">
<g clip-path="url(#clip0_1_5462)">
<path d="M16.0005 32.0254C24.837 32.0254 32.0005 24.8619 32.0005 16.0254C32.0005 7.18883 24.837 0.0253906 16.0005 0.0253906C7.16393 0.0253906 0.000488281 7.18883 0.000488281 16.0254C0.000488281 24.8619 7.16393 32.0254 16.0005 32.0254Z" fill="#384182"/>
<path fill-rule="evenodd" clip-rule="evenodd" d="M10.0005 27.0254L13.6185 10.2364L15.6485 22.8364L10.0005 27.0254ZM13.6885 10.1404L19.1855 22.8494L15.7425 22.7894L13.6885 10.1394V10.1404ZM13.7705 10.0444L20.9705 11.0674L19.3025 22.8494L13.7705 10.0444ZM19.4305 22.6684L21.0535 11.1754L22.1155 12.5234L19.4305 22.6684ZM20.9475 10.9584L13.9215 9.95939L20.2475 7.87739L20.9475 10.9584ZM13.8875 9.85139L18.1935 6.86639L20.2475 7.76939L13.8875 9.85139ZM13.7815 9.81539L14.6115 8.22639L18.1235 6.81839L13.7815 9.81539ZM14.6115 8.15539L15.0075 6.91539L17.9015 6.81839L14.6115 8.15439V8.15539ZM14.9845 6.81839L15.9175 5.81939L17.9255 6.72239L14.9845 6.81839ZM15.9765 5.75939L17.3765 5.07339L19.1865 7.19139L15.9765 5.75939ZM17.5755 5.15739L19.6645 6.07239L19.2905 7.20339L17.5755 5.15739ZM19.3605 7.23939L19.7455 6.08439L20.2125 7.67339L19.3605 7.23939ZM17.4235 5.02539H18.9525L19.7095 5.86739C19.7165 5.87552 19.7206 5.88577 19.7211 5.89649C19.7216 5.90722 19.7185 5.91781 19.7123 5.92656C19.7061 5.93532 19.6971 5.94173 19.6868 5.94478C19.6765 5.94783 19.6655 5.94734 19.6555 5.94339L17.4235 5.02539ZM19.8395 5.98839L22.9495 6.85639C22.9652 6.86017 22.9792 6.86914 22.9892 6.88183C22.9992 6.89453 23.0046 6.91023 23.0046 6.92639C23.0046 6.94256 22.9992 6.95825 22.9892 6.97095C22.9792 6.98365 22.9652 6.99261 22.9495 6.99639L20.3065 7.72139L19.8395 5.98839Z" fill="white"/>
</g>
<defs>
<clipPath id="clip0_1_5462">
<rect width="32" height="32" fill="white" transform="translate(0.000488281 0.0253906)"/>
</clipPath>
</defs>
</svg>
