<svg width="32" height="33" viewBox="0 0 32 33" fill="none" xmlns="http://www.w3.org/2000/svg">
<g clip-path="url(#clip0_1_5456)">
<path d="M16.0005 32.0254C24.837 32.0254 32.0005 24.8619 32.0005 16.0254C32.0005 7.18883 24.837 0.0253906 16.0005 0.0253906C7.16393 0.0253906 0.000488281 7.18883 0.000488281 16.0254C0.000488281 24.8619 7.16393 32.0254 16.0005 32.0254Z" fill="#3D58B0"/>
<path d="M15.9865 4.02539C9.37649 4.02539 4.00049 9.40139 4.00049 16.0114C4.00049 22.6214 9.37649 27.9954 15.9865 27.9954C22.5965 27.9954 27.9705 22.6204 27.9705 16.0114C27.9715 9.40139 22.5955 4.02539 15.9865 4.02539ZM15.9865 5.65739C17.3466 5.65568 18.6937 5.92233 19.9507 6.44208C21.2076 6.96182 22.3496 7.72444 23.3113 8.68625C24.2731 9.64806 25.0356 10.7902 25.5552 12.0471C26.0748 13.3041 26.3413 14.6513 26.3395 16.0114C26.3412 17.3714 26.0746 18.7185 25.5549 19.9753C25.0352 21.2322 24.2727 22.3742 23.311 23.3359C22.3493 24.2976 21.2073 25.0601 19.9504 25.5798C18.6936 26.0995 17.3465 26.3661 15.9865 26.3644C14.6263 26.3662 13.2792 26.0997 12.0222 25.5801C10.7653 25.0605 9.62316 24.298 8.66135 23.3362C7.69954 22.3745 6.93692 21.2325 6.41717 19.9756C5.89743 18.7186 5.63078 17.3715 5.63249 16.0114C5.63078 14.6512 5.89742 13.304 6.41715 12.0471C6.93689 10.7901 7.69949 9.64799 8.66129 8.68619C9.62309 7.72439 10.7652 6.96179 12.0222 6.44206C13.2791 5.92233 14.6263 5.65568 15.9865 5.65739Z" fill="white"/>
<path d="M12.0005 12.0254V20.8754H20.9055V12.0254H12.0005ZM13.4505 13.4754H19.4545V19.4254H13.4515V13.4754H13.4505Z" fill="white"/>
</g>
<defs>
<clipPath id="clip0_1_5456">
<rect width="32" height="32" fill="white" transform="translate(0.000488281 0.0253906)"/>
</clipPath>
</defs>
</svg>
