<svg width="32" height="33" viewBox="0 0 32 33" fill="none" xmlns="http://www.w3.org/2000/svg">
<g clip-path="url(#clip0_1_5450)">
<path d="M16.0005 32.0254C24.837 32.0254 32.0005 24.8619 32.0005 16.0254C32.0005 7.18883 24.837 0.0253906 16.0005 0.0253906C7.16393 0.0253906 0.000488281 7.18883 0.000488281 16.0254C0.000488281 24.8619 7.16393 32.0254 16.0005 32.0254Z" fill="#00688C"/>
<path d="M26.9855 23.0364V10.3634L15.9815 4.02539L15.9665 4.03339L5.00049 10.3704V23.0404L15.9755 29.3624L15.9765 29.3634L26.9845 23.0374L26.9855 23.0364ZM22.1155 21.0104L20.2385 19.9344L16.0505 22.3654C16.0384 22.3725 16.0246 22.3763 16.0105 22.3763C15.9964 22.3763 15.9826 22.3725 15.9705 22.3654L11.1655 19.5804L11.1635 14.7354L6.94249 12.3154L15.9405 7.04039C15.9441 7.03818 15.9483 7.03701 15.9525 7.03701C15.9567 7.03701 15.9609 7.03818 15.9645 7.04039L24.3215 11.8184L22.8435 12.6734L15.9685 8.71739L9.87149 12.2964L11.9865 13.5114L15.9725 11.1934L15.9745 11.1914L20.8445 13.9764L20.8425 18.5864L24.9935 20.9634L24.9925 21.0334L15.9765 26.2974L7.61849 21.5254L9.08149 20.6684L15.9625 24.6154L22.1155 21.0094V21.0104Z" fill="white"/>
<path d="M17.5796 15.3161V15.2821L17.5786 15.2601L17.5776 15.2481L17.5756 15.2231V15.2151L17.5726 15.1881V15.1811L17.5686 15.1531V15.1481L17.5646 15.1191V15.1151L17.5596 15.0851L17.5586 15.0831L17.5526 15.0531L17.5516 15.0501L17.5446 15.0201V15.0181C17.5427 15.008 17.5404 14.998 17.5376 14.9881V14.9861L17.5286 14.9561V14.9551L17.5196 14.9231C17.5142 14.9027 17.5076 14.8827 17.4996 14.8631V14.8621L17.4876 14.8321C17.4839 14.822 17.4799 14.812 17.4756 14.8021L17.4626 14.7721L17.4496 14.7441L17.4356 14.7141L17.4216 14.6861L17.4056 14.6581C17.4001 14.6492 17.3948 14.6402 17.3896 14.6311V14.6301L17.3736 14.6041L17.3726 14.6031C17.3672 14.5946 17.3615 14.5863 17.3556 14.5781V14.5761L17.3386 14.5521C17.3386 14.5521 17.3386 14.5501 17.3366 14.5501L17.3196 14.5261L17.3176 14.5241C17.3116 14.5161 17.3076 14.5081 17.3006 14.5001L17.2996 14.4981L17.2806 14.4751L17.2786 14.4731L17.2606 14.4511L17.2586 14.4491L17.2386 14.4281C17.2377 14.4272 17.2371 14.4262 17.2366 14.4251L17.2176 14.4041C17.2167 14.4032 17.2161 14.4022 17.2156 14.4011L17.1966 14.3811C17.1889 14.3734 17.1813 14.3658 17.1736 14.3581L17.1706 14.3551L17.1506 14.3351C17.1429 14.3284 17.1352 14.3218 17.1276 14.3151L17.1246 14.3121C17.1178 14.3056 17.1108 14.2993 17.1036 14.2931L17.1006 14.2901C17.0938 14.2842 17.0868 14.2786 17.0796 14.2731L17.0766 14.2711L17.0546 14.2531L17.0516 14.2511L17.0286 14.2341L17.0256 14.2321L17.0026 14.2151L16.9996 14.2131L16.9766 14.1971L16.9736 14.1961L16.9496 14.1801L16.9476 14.1781L16.9226 14.1631H16.9206L16.8946 14.1471H16.8926L16.8656 14.1311H16.8646C16.5454 13.9963 16.1865 13.9902 15.8629 14.114C15.5393 14.2378 15.2762 14.482 15.1285 14.7954C14.9808 15.1088 14.9601 15.4672 15.0706 15.7956C15.1812 16.1239 15.4144 16.3968 15.7216 16.5571L15.1416 19.2091H17.3356L16.7506 16.5591C17.2526 16.3491 17.5796 15.8591 17.5796 15.3161Z" fill="white"/>
</g>
<defs>
<clipPath id="clip0_1_5450">
<rect width="32" height="32" fill="white" transform="translate(0.000488281 0.0253906)"/>
</clipPath>
</defs>
</svg>
