<svg width="32" height="33" viewBox="0 0 32 33" fill="none" xmlns="http://www.w3.org/2000/svg">
<g clip-path="url(#clip0_1_5446)">
<path d="M16.0005 32.0254C24.837 32.0254 32.0005 24.8619 32.0005 16.0254C32.0005 7.18883 24.837 0.0253906 16.0005 0.0253906C7.16393 0.0253906 0.000488281 7.18883 0.000488281 16.0254C0.000488281 24.8619 7.16393 32.0254 16.0005 32.0254Z" fill="#B68900"/>
<path d="M26.6335 15.8424L15.8175 5.02539L5.00049 15.8424L15.8175 19.8384L26.6335 15.8424ZM8.36449 14.9254L15.6975 7.42739C15.6975 7.42739 22.8665 14.7604 23.1685 14.9074C23.4715 15.0534 18.2375 14.9074 18.2375 14.9074L15.8175 12.4324L13.3695 14.9254H8.36449ZM15.8175 20.5994L26.6335 16.5754L15.8175 26.6584L5.00049 16.6304L15.8175 20.6004V20.5994Z" fill="white"/>
</g>
<defs>
<clipPath id="clip0_1_5446">
<rect width="32" height="32" fill="white" transform="translate(0.000488281 0.0253906)"/>
</clipPath>
</defs>
</svg>
