<svg width="32" height="33" viewBox="0 0 32 33" fill="none" xmlns="http://www.w3.org/2000/svg">
<g clip-path="url(#clip0_1_5438)">
<path d="M16.0005 32.0254C24.837 32.0254 32.0005 24.8619 32.0005 16.0254C32.0005 7.18883 24.837 0.0253906 16.0005 0.0253906C7.16393 0.0253906 0.000488281 7.18883 0.000488281 16.0254C0.000488281 24.8619 7.16393 32.0254 16.0005 32.0254Z" fill="#2B77B3"/>
<path d="M27.0005 16.0644C26.9535 22.1724 22.0035 27.0704 15.9235 27.0244C9.83849 26.9794 4.95149 22.0074 5.00049 15.9124C5.05049 9.87539 10.0145 4.98539 16.0505 5.02539C22.1305 5.06639 27.0445 10.0214 27.0005 16.0654V16.0644ZM5.79649 16.0294C5.80749 21.6494 10.3545 26.1864 15.9855 26.1994C21.6225 26.2094 26.2215 21.6414 26.2025 16.0154C26.1815 10.1554 21.3275 5.73539 15.7405 5.83139C10.3385 5.92339 5.78549 10.5154 5.79649 16.0294ZM18.6815 11.2534L18.2745 12.5554C17.5165 12.4304 16.8145 12.2814 16.1035 12.2114C15.6815 12.1704 15.2435 12.2804 15.0805 12.7554C14.9125 13.2424 14.8925 13.7614 15.2955 14.1374C15.7095 14.5224 16.1955 14.8274 16.6495 15.1694C17.0665 15.4834 17.5255 15.7574 17.8895 16.1244C18.8765 17.1204 19.0515 18.3284 18.6465 19.6304C18.4065 20.4024 17.8345 20.8904 17.1025 21.1864C15.9825 21.6404 14.0755 21.4164 13.0045 20.6964L13.4745 19.3324C14.1565 19.5124 14.7805 19.7284 15.4225 19.8304C16.0345 19.9274 16.6755 19.8334 16.9895 19.2084C17.3055 18.5784 17.2055 17.9154 16.7105 17.4094C16.3285 17.0194 15.8495 16.7224 15.4025 16.3974C15.1045 16.1814 14.7715 16.0114 14.4815 15.7854C13.9192 15.3555 13.5188 14.748 13.3455 14.0618C13.1721 13.3755 13.2359 12.6508 13.5265 12.0054C13.6546 11.6972 13.8551 11.4244 14.1109 11.2101C14.3668 10.9958 14.6706 10.8464 14.9965 10.7744C16.2515 10.4764 17.4685 10.6114 18.6815 11.2544V11.2534ZM10.6015 15.8434C10.6015 16.178 10.4695 16.499 10.2341 16.7368C9.99875 16.9747 9.67906 17.11 9.34449 17.1134C8.64449 17.1164 8.04649 16.5064 8.06249 15.8094C8.07567 15.475 8.21776 15.1587 8.45899 14.9268C8.70022 14.6949 9.02186 14.5654 9.35649 14.5654C10.0565 14.5754 10.6065 15.1404 10.6025 15.8434H10.6015ZM22.6945 14.6004C23.3925 14.5994 23.9125 15.1144 23.9215 15.8164C23.9254 15.986 23.8952 16.1547 23.8327 16.3124C23.7702 16.4701 23.6767 16.6137 23.5577 16.7347C23.4387 16.8556 23.2967 16.9515 23.14 17.0165C22.9833 17.0816 22.8151 17.1145 22.6455 17.1134C22.3107 17.1079 21.9915 16.9706 21.7571 16.7314C21.5228 16.4922 21.3921 16.1703 21.3935 15.8354C21.3935 15.1034 21.9235 14.6004 22.6945 14.6004Z" fill="white"/>
</g>
<defs>
<clipPath id="clip0_1_5438">
<rect width="32" height="32" fill="white" transform="translate(0.000488281 0.0253906)"/>
</clipPath>
</defs>
</svg>
