<svg width="32" height="32" viewBox="0 0 32 32" fill="none" xmlns="http://www.w3.org/2000/svg">
<g clip-path="url(#clip0_1_6804)">
<path d="M16 32C24.8366 32 32 24.8366 32 16C32 7.16344 24.8366 0 16 0C7.16344 0 0 7.16344 0 16C0 24.8366 7.16344 32 16 32Z" fill="#0198F8"/>
<path d="M10.624 7.55198L8.896 9.27998V16.128L10.624 17.856H17.472V21.312H14.08V19.584H8.896V23.04L10.624 24.768H20.928L22.656 23.04V16.128L20.928 14.4H14.08V10.944H17.536V12.672H22.72V9.21598L20.992 7.48798H10.624V7.55198Z" fill="white"/>
</g>
<defs>
<clipPath id="clip0_1_6804">
<rect width="32" height="32" fill="white"/>
</clipPath>
</defs>
</svg>
