<svg width="32" height="33" viewBox="0 0 32 33" fill="none" xmlns="http://www.w3.org/2000/svg">
<g clip-path="url(#clip0_1_5434)">
<path d="M16.001 32.0254C24.8375 32.0254 32.001 24.8619 32.001 16.0254C32.001 7.18883 24.8375 0.0253906 16.001 0.0253906C7.16442 0.0253906 0.000976562 7.18883 0.000976562 16.0254C0.000976562 24.8619 7.16442 32.0254 16.001 32.0254Z" fill="#4BA2F2"/>
<path d="M9.64198 8.16864C9.85798 8.20564 9.31998 9.63864 9.61998 11.2756C9.87998 12.6786 13.127 18.1116 12.993 19.9756C12.889 21.1456 10.223 23.8906 9.94198 23.7076C9.63498 23.6226 10.752 21.7576 10.338 20.2036C9.85598 18.3916 6.99798 13.7076 7.00098 11.6396C7.00098 10.1266 9.44898 8.07064 9.64098 8.16864H9.64198ZM15.751 6.02864C16.025 6.07564 15.341 7.90464 15.723 9.98764C16.053 11.7796 20.196 18.7076 20.024 21.0826C19.89 22.5766 16.492 26.0736 16.132 25.8426C15.742 25.7356 17.166 23.3566 16.638 21.3746C16.025 19.0666 12.38 13.0926 12.383 10.4556C12.383 8.52464 15.505 5.90564 15.751 6.02964V6.02864ZM22.056 8.16864C22.272 8.20564 21.735 9.63864 22.034 11.2756C22.294 12.6786 25.541 18.1116 25.408 19.9756C25.305 21.1456 22.638 23.8906 22.356 23.7076C22.05 23.6226 23.166 21.7576 22.752 20.2036C22.271 18.3916 19.412 13.7076 19.415 11.6396C19.415 10.1266 21.865 8.07064 22.056 8.16864Z" fill="white"/>
</g>
<defs>
<clipPath id="clip0_1_5434">
<rect width="32" height="32" fill="white" transform="translate(0.000976562 0.0253906)"/>
</clipPath>
</defs>
</svg>
