<svg width="32" height="33" viewBox="0 0 32 33" fill="none" xmlns="http://www.w3.org/2000/svg">
<g clip-path="url(#clip0_1_5430)">
<path d="M16.001 32.0254C24.8375 32.0254 32.001 24.8619 32.001 16.0254C32.001 7.18883 24.8375 0.0253906 16.001 0.0253906C7.16442 0.0253906 0.000976562 7.18883 0.000976562 16.0254C0.000976562 24.8619 7.16442 32.0254 16.001 32.0254Z" fill="#48B254"/>
<path fill-rule="evenodd" clip-rule="evenodd" d="M22.682 7.39339L23.627 8.25139L11.695 15.0634L5.91898 11.7384L6.45898 10.6654L11.695 13.6424L22.682 7.39239V7.39339ZM20.28 6.02539L21.548 6.66939L11.695 12.3014L7.10698 9.69939L7.88898 8.76139L11.695 10.9334L20.281 6.02539H20.28ZM24.464 9.13639L25.165 10.0754L11.695 17.7724L5.18998 14.0714L5.48698 12.8914L11.695 16.4314L24.464 9.13639ZM26.407 12.5964C26.803 13.7054 27.001 14.8664 27.001 16.0824C27.001 17.2984 26.803 18.4794 26.407 19.6224L26.137 20.3474C25.5826 21.6478 24.7857 22.8309 23.789 23.8334C22.7804 24.8237 21.5881 25.6074 20.279 26.1404C18.894 26.7304 17.464 27.0254 15.988 27.0254C14.494 27.0254 13.063 26.7304 11.695 26.1404C10.4015 25.5936 9.2208 24.8113 8.21298 23.8334C7.20481 22.8403 6.40635 21.6549 5.86498 20.3474C5.29498 18.9974 4.99998 17.5474 5.00098 16.0824V15.3584L11.695 19.1404L25.813 11.0944L26.407 12.5964Z" fill="white"/>
</g>
<defs>
<clipPath id="clip0_1_5430">
<rect width="32" height="32" fill="white" transform="translate(0.000976562 0.0253906)"/>
</clipPath>
</defs>
</svg>
