<svg width="32" height="33" viewBox="0 0 32 33" fill="none" xmlns="http://www.w3.org/2000/svg">
<g clip-path="url(#clip0_1_5426)">
<path d="M16.001 32.0254C24.8375 32.0254 32.001 24.8619 32.001 16.0254C32.001 7.18883 24.8375 0.0253906 16.001 0.0253906C7.16442 0.0253906 0.000976562 7.18883 0.000976562 16.0254C0.000976562 24.8619 7.16442 32.0254 16.001 32.0254Z" fill="#20EE82"/>
<path fill-rule="evenodd" clip-rule="evenodd" d="M16.501 8.02539C18.7553 8.02539 20.9173 8.92092 22.5114 10.515C24.1054 12.109 25.001 14.2711 25.001 16.5254V25.0254H16.501C14.2466 25.0254 12.0846 24.1299 10.4906 22.5358C8.89651 20.9417 8.00098 18.7797 8.00098 16.5254C8.00098 14.2711 8.89651 12.109 10.4906 10.515C12.0846 8.92092 14.2466 8.02539 16.501 8.02539ZM21.601 21.6254V16.6024C21.601 13.7824 19.346 11.4394 16.527 11.4254C15.8531 11.4227 15.1853 11.5535 14.5622 11.8102C13.9391 12.0669 13.373 12.4443 12.8965 12.9209C12.4199 13.3974 12.0425 13.9635 11.7858 14.5866C11.5291 15.2097 11.3983 15.8775 11.401 16.5514C11.415 19.3704 13.759 21.6254 16.578 21.6254H21.601Z" fill="white"/>
</g>
<defs>
<clipPath id="clip0_1_5426">
<rect width="32" height="32" fill="white" transform="translate(0.000976562 0.0253906)"/>
</clipPath>
</defs>
</svg>
