<svg width="32" height="33" viewBox="0 0 32 33" fill="none" xmlns="http://www.w3.org/2000/svg">
<g clip-path="url(#clip0_1_5418)">
<path d="M16 32.0273C24.8366 32.0273 32 24.8639 32 16.0273C32 7.19079 24.8366 0.0273438 16 0.0273438C7.16344 0.0273438 0 7.19079 0 16.0273C0 24.8639 7.16344 32.0273 16 32.0273Z" fill="#964B9C"/>
<path opacity="0.6" d="M20.472 16.0273L16 20.4983H24.942L20.472 16.0273Z" fill="white"/>
<path opacity="0.7" d="M11.471 16.4973L15.943 12.0273H7L11.472 16.4983L11.471 16.4973Z" fill="white"/>
<path opacity="0.4" d="M15.963 20.9693L20.423 16.5093L15.943 12.0273L7 20.9693L15.942 29.9123L24.885 20.9693H24.883H15.963Z" fill="white"/>
<path opacity="0.8" d="M15.937 3.02734L7 11.9643H15.881L11.435 16.4103L15.937 20.9113L24.879 11.9693L15.937 3.02734Z" fill="white"/>
</g>
<defs>
<clipPath id="clip0_1_5418">
<rect width="32" height="32" fill="white" transform="translate(0 0.0273438)"/>
</clipPath>
</defs>
</svg>
