<svg width="32" height="33" viewBox="0 0 32 33" fill="none" xmlns="http://www.w3.org/2000/svg">
<g clip-path="url(#clip0_1_5414)">
<path d="M16 32.0273C24.8366 32.0273 32 24.8639 32 16.0273C32 7.19079 24.8366 0.0273438 16 0.0273438C7.16344 0.0273438 0 7.19079 0 16.0273C0 24.8639 7.16344 32.0273 16 32.0273Z" fill="#057BC1"/>
<path d="M16 4.02734C9.373 4.02734 4 9.40034 4 16.0273C4 22.6543 9.373 28.0273 16 28.0273C22.627 28.0273 28 22.6543 28 16.0273C28 12.8447 26.7357 9.7925 24.4853 7.54206C22.2348 5.29163 19.1826 4.02734 16 4.02734ZM20.176 20.5543H19.688V23.2863H18.048V20.5543H15.551V19.5393H18.088V17.7053C16.7708 18.4394 15.2377 18.6878 13.756 18.4073C12.936 18.2123 12.117 17.7643 11.688 17.0223C11.2804 16.2969 11.0778 15.4741 11.102 14.6423V10.3103H12.761V14.7983C12.8 15.7733 13.424 16.7493 14.381 17.0423C15.6395 17.3313 16.9611 17.1213 18.068 16.4563C18.068 15.0903 18.048 13.0423 18.068 10.3103H19.746V19.5403H20.176V20.5543Z" fill="white"/>
</g>
<defs>
<clipPath id="clip0_1_5414">
<rect width="32" height="32" fill="white" transform="translate(0 0.0273438)"/>
</clipPath>
</defs>
</svg>
