<svg width="32" height="33" viewBox="0 0 32 33" fill="none" xmlns="http://www.w3.org/2000/svg">
<g clip-path="url(#clip0_1_5408)">
<path d="M16 32.0273C24.8366 32.0273 32 24.8639 32 16.0273C32 7.19079 24.8366 0.0273438 16 0.0273438C7.16344 0.0273438 0 7.19079 0 16.0273C0 24.8639 7.16344 32.0273 16 32.0273Z" fill="#F5342E"/>
<path d="M6.00053 16.1503C5.98913 15.0363 6.1604 13.9279 6.50753 12.8693C6.89945 11.6688 7.51532 10.5534 8.32253 9.58228C9.23837 8.46802 10.3891 7.56994 11.6925 6.95228C12.5563 6.54131 13.4775 6.26382 14.4245 6.12928C14.9938 6.04503 15.5695 6.0129 16.1445 6.03328C17.2802 6.0748 18.3995 6.31722 19.4505 6.74928C19.4665 6.75628 19.4855 6.76328 19.4875 6.78328C19.4895 6.80928 19.4665 6.81728 19.4475 6.82528L19.0875 6.96528C18.3032 7.26994 17.5367 7.61849 16.7915 8.00928C15.9645 8.44628 15.1705 8.93628 14.4335 9.52128C13.7935 10.0303 13.2085 10.5963 12.7335 11.2743C12.4135 11.7303 12.1615 12.2203 12.0235 12.7673C11.8475 13.4593 11.8905 14.1443 12.0905 14.8233C12.2375 15.3253 12.4585 15.7953 12.7025 16.2533C13.0105 16.8333 13.3595 17.3883 13.6805 17.9603C13.9725 18.4803 14.2445 19.0103 14.4245 19.5853C14.5495 19.9863 14.6245 20.3973 14.6165 20.8193C14.6031 21.3666 14.462 21.9031 14.2045 22.3863C13.9015 22.9703 13.4865 23.4623 13.0245 23.9163C12.5975 24.3353 12.1335 24.7043 11.6545 25.0563C11.5845 25.1083 11.5295 25.1063 11.4565 25.0683C10.7587 24.7136 10.1057 24.2769 9.51153 23.7673C8.79097 23.1494 8.1623 22.4318 7.64453 21.6363C6.79446 20.33 6.25594 18.8458 6.07053 17.2983C6.02106 16.9177 5.99767 16.5341 6.00053 16.1503Z" fill="white"/>
<path d="M12 25.3382C12.018 25.2952 12.063 25.2942 12.097 25.2822C12.7957 25.0267 13.483 24.7411 14.157 24.4262C14.947 24.0542 15.716 23.6422 16.444 23.1612C17.0126 22.7917 17.548 22.3735 18.044 21.9112C18.532 21.4512 18.964 20.9472 19.3 20.3672C19.572 19.8972 19.756 19.3962 19.816 18.8552C19.8656 18.3632 19.8191 17.8663 19.679 17.3922C19.529 16.8632 19.294 16.3702 19.03 15.8892C18.714 15.3122 18.355 14.7592 18.024 14.1912C17.743 13.7082 17.481 13.2162 17.291 12.6892C17.0995 12.1828 17.0183 11.6414 17.053 11.1012C17.08 10.7312 17.176 10.3752 17.325 10.0332C17.549 9.51917 17.872 9.07017 18.247 8.65617C18.795 8.04917 19.432 7.54617 20.096 7.07217C20.169 7.01917 20.23 7.01317 20.311 7.05417C21.017 7.40817 21.677 7.83017 22.286 8.33117C22.909 8.84417 23.463 9.42117 23.946 10.0642C25.0931 11.5821 25.7778 13.3987 25.918 15.2962C25.94 15.6112 25.96 15.9262 25.951 16.2422C25.9295 17.1618 25.7842 18.0743 25.519 18.9552C25.0018 20.6492 24.045 22.176 22.746 23.3802C21.3134 24.7084 19.5292 25.597 17.606 25.9402C16.9288 26.0591 16.2414 26.1107 15.554 26.0942C14.3705 26.0639 13.2012 25.8288 12.098 25.3992C12.062 25.3832 12.02 25.3792 12 25.3392V25.3382Z" fill="white"/>
</g>
<defs>
<clipPath id="clip0_1_5408">
<rect width="32" height="32" fill="white" transform="translate(0 0.0273438)"/>
</clipPath>
</defs>
</svg>
