<svg width="32" height="33" viewBox="0 0 32 33" fill="none" xmlns="http://www.w3.org/2000/svg">
<g clip-path="url(#clip0_1_5404)">
<path d="M16 32.0273C24.8366 32.0273 32 24.8639 32 16.0273C32 7.19079 24.8366 0.0273438 16 0.0273438C7.16344 0.0273438 0 7.19079 0 16.0273C0 24.8639 7.16344 32.0273 16 32.0273Z" fill="#0072FF"/>
<path d="M24.027 13.3303L19.215 24.0273H17.292L22.357 12.7673C22.9408 12.862 23.505 13.0522 24.027 13.3303ZM15.607 7.04634L8.204 23.5053C6.316 22.6093 5 20.6463 5 18.3603C5 15.2303 7.462 12.6943 10.5 12.6943C10.5 9.69934 12.754 7.25434 15.607 7.04634ZM21.501 12.6943L16.402 24.0273H14.319L20.721 9.79734C21.214 10.6453 21.501 11.6333 21.501 12.6943ZM23.395 23.6763L26.661 16.4203C26.877 17.0283 27 17.6803 27 18.3633C27 20.8013 25.5 22.8783 23.395 23.6763ZM24.837 13.8623C25.293 14.2223 25.697 14.6503 26.023 15.1413L22.037 23.9993C21.859 24.0182 21.68 24.0276 21.501 24.0273H20.265L24.837 13.8623ZM16.02 7.02734C16.8 7.03034 17.539 7.20134 18.21 7.50834L10.78 24.0273H10.5C9.81 24.0273 9.15 23.8913 8.543 23.6503L16.02 7.02734ZM20.287 9.14534L13.592 24.0273H11.346L18.673 7.74234C19.295 8.10034 19.843 8.57834 20.287 9.14534Z" fill="white"/>
</g>
<defs>
<clipPath id="clip0_1_5404">
<rect width="32" height="32" fill="white" transform="translate(0 0.0273438)"/>
</clipPath>
</defs>
</svg>
