<svg width="32" height="33" viewBox="0 0 32 33" fill="none" xmlns="http://www.w3.org/2000/svg">
<g clip-path="url(#clip0_1_5400)">
<path d="M16 32.0273C24.8366 32.0273 32 24.8639 32 16.0273C32 7.19079 24.8366 0.0273438 16 0.0273438C7.16344 0.0273438 0 7.19079 0 16.0273C0 24.8639 7.16344 32.0273 16 32.0273Z" fill="#FDA616"/>
<path d="M11.921 22.0273C12.038 22.3913 13.486 23.8913 14.993 23.8913C17.227 23.8913 18.532 22.5433 18.532 20.5933C18.532 18.7873 17.628 17.7553 15.344 16.7513C12.583 15.6333 10.876 13.9983 10.876 11.2743C10.876 8.26434 13.06 6.02734 16.348 6.02734C18.08 6.02734 19.835 7.11734 20.417 7.84534L19.02 9.30034C18.468 8.95634 17.805 8.09134 16.273 8.09134C13.964 8.09134 13.085 9.66834 13.085 10.9873C13.085 12.7943 14.115 13.6833 16.448 14.7153C19.31 15.9773 20.766 17.5543 20.766 20.3923C20.766 23.3753 18.822 26.0273 14.831 26.0273C13.199 26.0273 11.456 24.9373 10.408 23.6033L11.921 22.0273ZM13.783 11.7243C13.434 10.9973 13.667 10.2703 13.667 10.2703C22.511 8.81534 20.882 17.4203 20.882 17.4203C20.184 16.0883 19.486 15.8453 19.486 15.8453C19.602 10.8753 13.783 11.7243 13.783 11.7243ZM17.74 19.6033C18.09 20.4523 17.686 21.3353 17.686 21.3353C7.61602 22.6333 10.336 13.4253 10.333 13.4253C10.867 14.8393 11.531 15.1703 11.531 15.1703C11.341 20.9363 17.74 19.6033 17.74 19.6033Z" fill="white"/>
</g>
<defs>
<clipPath id="clip0_1_5400">
<rect width="32" height="32" fill="white" transform="translate(0 0.0273438)"/>
</clipPath>
</defs>
</svg>
