<svg width="32" height="33" viewBox="0 0 32 33" fill="none" xmlns="http://www.w3.org/2000/svg">
<g clip-path="url(#clip0_1_5396)">
<path d="M16 32.0273C24.8366 32.0273 32 24.8639 32 16.0273C32 7.19079 24.8366 0.0273438 16 0.0273438C7.16344 0.0273438 0 7.19079 0 16.0273C0 24.8639 7.16344 32.0273 16 32.0273Z" fill="#8E9495"/>
<path d="M7.623 20.7383C7.39395 20.2444 7.22411 19.7251 7.117 19.1913C7.05529 18.9102 7.01616 18.6247 7 18.3373H7.894C7.91443 18.5684 7.94781 18.7981 7.994 19.0253C8.091 19.4943 8.237 19.9603 8.437 20.3853C8.973 21.5213 9.787 22.1693 10.969 22.1693C11.893 22.1693 12.609 21.7993 13.113 21.1473C13.541 20.5963 13.783 19.8653 13.783 19.2513C13.783 18.4643 13.485 17.8843 12.89 17.3933C12.406 16.9933 11.849 16.7133 10.699 16.2353L10.496 16.1513C9.3 15.6563 8.748 15.3843 8.211 14.9603C7.469 14.3743 7.075 13.6473 7.075 12.7163C7.075 11.6013 7.476 10.6563 8.194 9.98834C8.87488 9.36508 9.76596 9.02187 10.689 9.02734C11.969 9.02734 12.946 9.56034 13.596 10.4943V9.22434H16.484V21.9713H17.342V18.3943C17.3406 18.365 17.3406 18.3357 17.342 18.3063L18.236 18.3363V18.3813C18.2536 18.5982 18.2837 18.8139 18.326 19.0273C18.419 19.4923 18.563 19.9593 18.763 20.3843C19.296 21.5193 20.111 22.1683 21.292 22.1683C22.216 22.1683 22.932 21.7983 23.436 21.1463C23.864 20.5953 24.106 19.8643 24.106 19.2503C24.106 18.4633 23.808 17.8833 23.213 17.3923C22.729 16.9923 22.172 16.7123 21.022 16.2343L20.819 16.1503C19.623 15.6553 19.071 15.3833 18.534 14.9593C17.792 14.3733 17.398 13.6463 17.398 12.7153C17.398 11.6003 17.799 10.6553 18.517 9.98734C19.198 9.36445 20.0891 9.02159 21.012 9.02734C22.292 9.02734 23.269 9.56034 23.919 10.4943V9.27834H24.814V13.7003H23.919C23.919 12.7763 23.707 11.8403 23.29 11.1493C22.798 10.3323 22.058 9.88634 21.012 9.88634C20.3195 9.88131 19.6507 10.1377 19.139 10.6043C18.599 11.1083 18.292 11.8293 18.292 12.7153C18.292 13.3753 18.558 13.8653 19.102 14.2953C19.552 14.6503 20.056 14.8983 21.173 15.3613L21.376 15.4453C22.609 15.9563 23.22 16.2653 23.796 16.7403C24.583 17.3903 25 18.2043 25 19.2503C25 20.0463 24.698 20.9563 24.154 21.6603C23.485 22.5233 22.508 23.0273 21.292 23.0273C20.449 23.0273 19.726 22.7713 19.132 22.2973C18.7765 22.0099 18.4734 21.6631 18.236 21.2723V22.8303H15.59V10.0833H14.49V13.7003H13.596C13.596 12.7763 13.384 11.8403 12.967 11.1493C12.475 10.3323 11.735 9.88634 10.689 9.88634C9.99653 9.88131 9.32766 10.1377 8.816 10.6043C8.276 11.1083 7.969 11.8293 7.969 12.7153C7.969 13.3753 8.235 13.8653 8.779 14.2953C9.229 14.6503 9.733 14.8983 10.85 15.3613L11.053 15.4453C12.286 15.9563 12.897 16.2653 13.473 16.7403C14.26 17.3903 14.677 18.2043 14.677 19.2503C14.677 20.0463 14.375 20.9563 13.831 21.6603C13.162 22.5233 12.185 23.0273 10.969 23.0273C10.126 23.0273 9.403 22.7713 8.809 22.2973C8.44459 22.0027 8.13487 21.6463 7.894 21.2443V22.7763H7V18.3363H7.894V21.2443C7.7946 21.0807 7.70414 20.9118 7.623 20.7383Z" fill="white"/>
</g>
<defs>
<clipPath id="clip0_1_5396">
<rect width="32" height="32" fill="white" transform="translate(0 0.0273438)"/>
</clipPath>
</defs>
</svg>
