<svg width="32" height="33" viewBox="0 0 32 33" fill="none" xmlns="http://www.w3.org/2000/svg">
<g clip-path="url(#clip0_1_5392)">
<path d="M16.0005 32.0273C24.837 32.0273 32.0005 24.8639 32.0005 16.0273C32.0005 7.19079 24.837 0.0273438 16.0005 0.0273438C7.16393 0.0273438 0.000488281 7.19079 0.000488281 16.0273C0.000488281 24.8639 7.16393 32.0273 16.0005 32.0273Z" fill="#FEC60D"/>
<path d="M26.6615 10.1683L23.2235 8.18934C23.1055 8.11934 22.9965 8.05834 22.8795 7.99134C22.7655 7.92634 22.6545 7.85634 22.5385 7.78934C21.8495 7.39534 21.1585 7.01334 20.4775 6.60534L17.2115 4.71934C17.0215 4.60434 16.0395 4.02734 15.9975 4.02734C15.9805 4.02734 15.8565 4.10734 15.8295 4.12434L11.3675 6.69434C11.3025 6.73134 11.2575 6.76034 11.1915 6.79634C11.1348 6.82776 11.0788 6.86044 11.0235 6.89434L10.6815 7.09434C10.6233 7.12948 10.5646 7.16382 10.5055 7.19734L10.1695 7.39134C10.0515 7.46134 9.94049 7.52134 9.82449 7.58834L9.13349 7.98334C9.07349 8.01434 9.02349 8.04734 8.96549 8.08034L8.10149 8.58034C7.98149 8.65034 7.87049 8.70834 7.75349 8.77534L7.07049 9.17834C6.72749 9.37434 6.38349 9.58334 6.03549 9.77234C5.88249 9.85434 5.07949 10.3443 5.00049 10.3653V23.0793C5.06449 23.0853 5.94249 23.6083 6.03349 23.6623L7.40949 24.4583C7.52449 24.5283 7.63949 24.5913 7.75349 24.6573L8.43349 25.0493C8.49149 25.0793 8.54349 25.1133 8.60349 25.1463C8.66949 25.1823 8.71249 25.2133 8.77949 25.2463C8.95449 25.3363 9.12249 25.4433 9.28949 25.5443L10.1555 26.0433C10.2155 26.0763 10.2635 26.1053 10.3225 26.1403C10.6605 26.3443 11.0115 26.5273 11.3485 26.7303L12.5555 27.4303C13.3525 27.9013 14.1655 28.3403 14.9585 28.8163L15.9015 29.3623C16.0515 29.4633 16.1065 29.3493 16.3425 29.2203L18.4085 28.0283C18.5225 27.9623 18.6335 27.8983 18.7535 27.8313L19.0905 27.6383C19.1475 27.6073 19.2005 27.5743 19.2575 27.5393L21.1525 26.4423C21.7185 26.1033 22.3025 25.7963 22.8685 25.4563L26.6415 23.2703C26.6965 23.2373 26.7515 23.2043 26.8095 23.1723C26.8695 23.1403 26.9265 23.0953 26.9945 23.0803V10.3653C26.8875 10.2933 26.7765 10.2383 26.6615 10.1683ZM19.8715 22.6123H16.6565V23.4543C16.6565 23.4643 16.6525 23.4673 16.6425 23.4673H15.0925V22.6123H12.1235V20.2323C12.1235 20.2073 12.1535 20.1863 12.1685 20.1723L12.4695 19.8473C12.4784 19.8392 12.4867 19.8305 12.4945 19.8213C12.5014 19.8117 12.5091 19.8027 12.5175 19.7943L12.6925 19.6083L12.6945 19.6053L12.7465 19.5523L12.7695 19.5243L12.8255 19.4653L12.8315 19.4583L13.0185 19.2563C13.0585 19.2153 13.0985 19.1763 13.1365 19.1313L13.1385 19.1293L13.1445 19.1213L13.2705 18.9873C13.2885 18.9673 13.3025 18.9563 13.3195 18.9343L13.4715 18.7723L13.4965 18.7473C13.5047 18.7385 13.5124 18.7292 13.5195 18.7193L13.7745 18.4473L13.7765 18.4453L13.7825 18.4383L13.8215 18.3983C13.8715 18.3343 13.9615 18.2543 14.0145 18.1903L14.0205 18.1823C14.0375 18.1623 14.0565 18.1483 14.0725 18.1293L14.1715 18.0223C14.2415 17.9523 14.3015 17.8763 14.3715 17.8063L14.5965 17.5643L14.6215 17.5393L14.7195 17.4313C14.7385 17.4123 14.7565 17.3983 14.7715 17.3783C14.7865 17.3583 14.8055 17.3443 14.8225 17.3243L14.9215 17.2173C14.9315 17.2073 14.9395 17.2003 14.9485 17.1893L15.0235 17.1083C15.0385 17.0883 15.0575 17.0743 15.0745 17.0543C15.1185 17.0053 15.2445 16.8763 15.2715 16.8403C15.2875 16.8203 15.3065 16.8083 15.3205 16.7883C15.2809 16.7399 15.2385 16.6938 15.1935 16.6503L15.0955 16.5423L15.0695 16.5173C15.0595 16.5053 15.0565 16.4993 15.0445 16.4873C14.9675 16.4093 14.8965 16.3263 14.8185 16.2473L14.6935 16.1123C14.6862 16.1027 14.6782 16.0937 14.6695 16.0853L13.5195 14.8513C13.5118 14.8408 13.5035 14.8308 13.4945 14.8213L13.3245 14.6383L13.3225 14.6363L12.9455 14.2303C12.9375 14.2203 12.9295 14.2143 12.9205 14.2053L12.8205 14.0953C12.7525 14.0253 12.6875 13.9493 12.6185 13.8803L12.5965 13.8563L12.5945 13.8543L12.5205 13.7733C12.4865 13.7363 12.4505 13.7023 12.4175 13.6653C12.4065 13.6533 12.4045 13.6473 12.3925 13.6353C12.3245 13.5663 12.2625 13.4913 12.1925 13.4233C12.1845 13.4133 12.1765 13.4073 12.1685 13.3983C12.1595 13.3883 12.1235 13.3533 12.1235 13.3423V10.9533H15.0915V9.96134C15.6135 9.96134 16.1295 9.97134 16.6515 9.97134V10.9213C16.6515 10.9323 16.6545 10.9363 16.6655 10.9363H19.8715V13.3473H15.4485C15.4745 13.3873 15.5145 13.4203 15.5455 13.4563L15.7915 13.7263C15.8065 13.7463 15.8225 13.7603 15.8395 13.7803C15.8815 13.8303 15.9285 13.8733 15.9695 13.9233L16.3275 14.3163C16.3975 14.3843 16.4575 14.4613 16.5245 14.5313L17.4375 15.5343L17.4435 15.5423L17.7705 15.9023L17.7955 15.9263C17.8395 15.9703 17.8755 16.0203 17.9195 16.0643L18.5075 16.7073C18.5315 16.7333 18.5575 16.7573 18.5775 16.7873C18.5685 16.8013 18.5615 16.8053 18.5505 16.8173C18.5434 16.8268 18.5357 16.8358 18.5275 16.8443L18.4045 16.9773C18.3974 16.9868 18.3897 16.9958 18.3815 17.0043L18.0865 17.3273C18.0665 17.3463 18.0565 17.3623 18.0365 17.3813C17.9965 17.4213 17.9365 17.4963 17.8895 17.5413L17.6835 17.7703C17.6425 17.8193 17.5325 17.9283 17.4995 17.9703L17.2065 18.2903C17.1435 18.3673 17.0725 18.4333 17.0085 18.5093L16.8885 18.6393C16.8285 18.7003 16.7765 18.7653 16.7185 18.8273C16.7085 18.8373 16.7005 18.8443 16.6915 18.8553C16.6235 18.9323 16.5495 19.0053 16.4825 19.0853L16.4725 19.0973L16.2155 19.3763L16.2095 19.3833L16.2005 19.3933L16.1985 19.3963L16.0805 19.5263C16.0722 19.5344 16.0645 19.5431 16.0575 19.5523C16.0497 19.5616 16.0414 19.5702 16.0325 19.5783C15.9815 19.6283 15.9375 19.6883 15.8865 19.7383C15.8783 19.7468 15.8706 19.7559 15.8635 19.7653L15.7655 19.8733C15.7575 19.8833 15.7495 19.8893 15.7405 19.8983L15.4485 20.2203H19.7485C19.7895 20.2203 19.8715 20.2103 19.8715 20.2333V22.6133V22.6123Z" fill="white"/>
</g>
<defs>
<clipPath id="clip0_1_5392">
<rect width="32" height="32" fill="white" transform="translate(0.000488281 0.0273438)"/>
</clipPath>
</defs>
</svg>
