<svg width="32" height="33" viewBox="0 0 32 33" fill="none" xmlns="http://www.w3.org/2000/svg">
<g clip-path="url(#clip0_1_5388)">
<path d="M16.0005 32.0273C24.837 32.0273 32.0005 24.8639 32.0005 16.0273C32.0005 7.19079 24.837 0.0273438 16.0005 0.0273438C7.16393 0.0273438 0.000488281 7.19079 0.000488281 16.0273C0.000488281 24.8639 7.16393 32.0273 16.0005 32.0273Z" fill="#B30D23"/>
<path d="M16.9135 21.2613L15.9815 22.9973L15.0495 21.2613C9.41949 20.8243 5.00049 16.6263 5.00049 16.6263C5.00049 16.6163 9.29449 12.5483 14.8095 12.0123L15.5395 10.7623L15.9815 10.0273L16.7315 11.2773L17.1535 12.0123C22.6675 12.5383 26.9625 16.6263 26.9625 16.6263C26.9625 16.6263 22.5425 20.8243 16.9125 21.2613H16.9135ZM5.93249 16.6263C5.92249 16.6263 10.1785 19.5343 14.4535 20.1493L12.3695 16.2493L12.9355 15.2673L13.4555 16.2393L13.4455 16.2493L15.4725 20.2393C15.6355 20.2493 15.7985 20.2493 15.9625 20.2493C16.1255 20.2493 16.2795 20.2493 16.4425 20.2393L17.9315 17.2713L19.0175 15.2473L19.5835 16.2293L17.4995 20.1393C21.7745 19.5343 26.0295 16.6963 26.0295 16.6163C26.0295 16.5463 21.9765 13.8383 17.8065 13.1433L18.4405 14.2453L17.9125 15.3063L16.5385 13.0043C16.353 12.9927 16.1673 12.9861 15.9815 12.9843C15.7985 12.9843 15.6065 12.9943 15.4145 13.0043L14.0115 15.3063L13.4935 14.2943L14.1555 13.1533C9.98649 13.8583 5.93249 16.6263 5.93249 16.6263Z" fill="white"/>
</g>
<defs>
<clipPath id="clip0_1_5388">
<rect width="32" height="32" fill="white" transform="translate(0.000488281 0.0273438)"/>
</clipPath>
</defs>
</svg>
