<svg width="32" height="33" viewBox="0 0 32 33" fill="none" xmlns="http://www.w3.org/2000/svg">
<g clip-path="url(#clip0_1_5384)">
<path d="M16.0005 32.0273C24.837 32.0273 32.0005 24.8639 32.0005 16.0273C32.0005 7.19079 24.837 0.0273438 16.0005 0.0273438C7.16393 0.0273438 0.000488281 7.19079 0.000488281 16.0273C0.000488281 24.8639 7.16393 32.0273 16.0005 32.0273Z" fill="#0B1C26"/>
<path d="M16.0005 27.0273C9.93249 27.0093 5.00049 22.0843 5.00049 16.0273C5.00049 9.97034 9.93249 5.04534 16.0005 5.02734C22.0685 5.04534 27.0005 9.97034 27.0005 16.0273C27.0005 22.0843 22.0685 27.0153 16.0005 27.0273ZM25.7555 17.7773C25.6394 18.0451 25.4229 18.2567 25.1525 18.3666C24.8822 18.4765 24.5795 18.4761 24.3095 18.3653C24.6985 18.7713 24.9415 19.3163 24.9415 19.9153C24.9415 20.0913 24.9175 20.2553 24.8815 20.4193C25.2935 19.5833 25.5885 18.6943 25.7555 17.7783V17.7773ZM24.7355 17.8873C24.8819 17.8876 25.0224 17.8297 25.1261 17.7264C25.2298 17.623 25.2882 17.4827 25.2885 17.3363C25.2888 17.1899 25.2309 17.0494 25.1275 16.9457C25.0242 16.842 24.8839 16.7836 24.7375 16.7833C24.665 16.7831 24.5932 16.7972 24.5261 16.8248C24.4591 16.8523 24.3981 16.8928 24.3467 16.944C24.2429 17.0472 24.1844 17.1874 24.184 17.3338C24.1836 17.4802 24.2414 17.6208 24.3446 17.7246C24.4478 17.8284 24.5881 17.8869 24.7345 17.8873H24.7355ZM24.9835 11.8603C25.2559 12.6226 25.3229 13.4431 25.178 14.2394C25.033 15.0358 24.681 15.78 24.1575 16.3973C24.3301 16.2926 24.5276 16.2359 24.7295 16.2333C25.3065 16.2333 25.7795 16.6753 25.8285 17.2453C25.8775 16.8453 25.9075 16.4453 25.9075 16.0333C25.9143 14.5909 25.5986 13.1651 24.9835 11.8603ZM24.4195 13.4043C24.4171 12.3911 24.0128 11.4202 23.2953 10.7048C22.5778 9.98933 21.6057 9.58781 20.5925 9.58834C19.5792 9.58781 18.6072 9.98933 17.8897 10.7048C17.1722 11.4202 16.7679 12.3911 16.7655 13.4043C16.7679 14.4176 17.1722 15.3885 17.8897 16.1039C18.6072 16.8194 19.5792 17.2209 20.5925 17.2203C21.6054 17.2198 22.5769 16.818 23.2941 16.1028C24.0114 15.3875 24.416 14.4173 24.4195 13.4043ZM20.4405 19.9173C20.4405 19.0873 20.9005 18.3243 21.6375 17.9373C20.7039 18.1542 19.726 18.0777 18.8375 17.7183C19.593 18.2976 20.1526 19.0949 20.4405 20.0023C20.4465 19.9653 20.4405 19.9413 20.4405 19.9173ZM20.6595 21.3953C20.6583 21.7627 20.6133 22.1286 20.5255 22.4853C20.7075 22.1223 21.0785 21.8923 21.4855 21.8923C21.5426 21.892 21.5997 21.8981 21.6555 21.9103C21.1876 21.6698 20.818 21.2738 20.6105 20.7903C20.6425 20.9903 20.6585 21.1923 20.6595 21.3953ZM22.6875 21.3283C23.0629 21.3289 23.4232 21.1807 23.6897 20.9163C23.9562 20.6519 24.1071 20.2927 24.1095 19.9173C24.1095 19.1363 23.4715 18.5063 22.6875 18.5063C21.9035 18.5063 21.2725 19.1423 21.2725 19.9163C21.2725 20.6983 21.9105 21.3283 22.6885 21.3283H22.6875ZM23.6225 17.3433C23.6245 17.1563 23.6725 16.9733 23.7625 16.8093C23.3589 17.1821 22.8945 17.4831 22.3895 17.6993C22.4875 17.6883 22.5845 17.6763 22.6875 17.6763C23.0916 17.6754 23.4884 17.7843 23.8355 17.9913C23.6971 17.8033 23.6228 17.5758 23.6235 17.3423L23.6225 17.3433ZM15.9995 16.7433C16.5995 16.7433 17.1935 16.8583 17.7495 17.0823C16.8158 16.3672 16.19 15.3229 15.9995 14.1623C15.8082 15.3224 15.1829 16.3662 14.2505 17.0823C14.8074 16.8604 15.401 16.7451 16.0005 16.7423L15.9995 16.7433ZM15.9995 10.5703C15.5762 10.5712 15.1613 10.4515 14.8035 10.2253C15.434 10.8909 15.8508 11.7299 16.0005 12.6343C16.1538 11.7308 16.5702 10.8925 17.1975 10.2243C16.8394 10.4507 16.4242 10.5704 16.0005 10.5693L15.9995 10.5703ZM18.2715 8.30534C18.2715 8.81234 18.1005 9.30534 17.7855 9.70534C18.2577 9.34802 18.794 9.08459 19.3655 8.92934C19.3405 8.92934 19.3225 8.93534 19.3045 8.93534C18.8365 8.93534 18.4345 8.64534 18.2715 8.23234C18.2665 8.25634 18.2715 8.28134 18.2715 8.30534ZM19.9965 6.96734C20.2465 7.17334 20.4095 7.47534 20.4095 7.82134C20.4095 8.25934 20.1495 8.65634 19.7475 8.83234C20.5531 8.68398 21.3836 8.75031 22.1554 9.02468C22.9273 9.29905 23.6133 9.77178 24.1445 10.3953C23.1 8.89623 21.6661 7.71063 19.9975 6.96634L19.9965 6.96734ZM19.2985 7.27634C19.226 7.27615 19.1542 7.29023 19.0871 7.31779C19.0201 7.34535 18.9591 7.38584 18.9077 7.43696C18.8563 7.48808 18.8155 7.54882 18.7876 7.61572C18.7597 7.68261 18.7452 7.75435 18.745 7.82684C18.7448 7.89933 18.7589 7.97115 18.7864 8.0382C18.814 8.10525 18.8545 8.16621 18.9056 8.21761C18.9567 8.269 19.0175 8.30983 19.0844 8.33775C19.1513 8.36567 19.223 8.38015 19.2955 8.38034C19.442 8.38074 19.5827 8.32291 19.6866 8.21958C19.7905 8.11625 19.8491 7.97588 19.8495 7.82934C19.8499 7.68281 19.7921 7.54212 19.6887 7.43823C19.5854 7.33433 19.445 7.27574 19.2985 7.27534V7.27634ZM16.6865 6.14334C17.0521 6.25939 17.3822 6.46646 17.6458 6.74511C17.9094 7.02377 18.0979 7.36486 18.1935 7.73634C18.2139 7.4584 18.3386 7.19844 18.5426 7.00855C18.7466 6.81866 19.0148 6.71285 19.2935 6.71234C19.3298 6.71342 19.3659 6.71743 19.4015 6.72434C18.5278 6.4059 17.614 6.21036 16.6865 6.14334ZM14.5665 8.30534C14.5764 8.67898 14.7317 9.03399 14.9995 9.29477C15.2672 9.55555 15.6262 9.70148 16 9.70148C16.3738 9.70148 16.7327 9.55555 17.0005 9.29477C17.2683 9.03399 17.4236 8.67898 17.4335 8.30534C17.4196 7.93455 17.2626 7.58357 16.9954 7.32614C16.7281 7.06871 16.3715 6.92489 16.0005 6.92489C15.6294 6.92489 15.2728 7.06871 15.0056 7.32614C14.7384 7.58357 14.5813 7.93455 14.5675 8.30534H14.5665ZM12.5935 6.72434C12.6294 6.71738 12.6659 6.71336 12.7025 6.71234C12.9815 6.71168 13.2504 6.81708 13.4546 7.00721C13.6589 7.19733 13.7832 7.45797 13.8025 7.73634C13.898 7.36497 14.0863 7.02396 14.3497 6.74531C14.6131 6.46667 14.9431 6.25953 15.3085 6.14334C14.3605 6.21534 13.4485 6.40934 12.5935 6.72434ZM13.7285 8.30534C13.7274 8.28086 13.7295 8.25633 13.7345 8.23234C13.6526 8.43936 13.5105 8.61704 13.3265 8.74237C13.1425 8.86771 12.9251 8.93493 12.7025 8.93534C12.6775 8.93534 12.6595 8.92934 12.6415 8.92934C13.2115 9.08534 13.7485 9.34934 14.2215 9.70434C13.9023 9.30793 13.7284 8.81427 13.7285 8.30534ZM12.1495 7.82634C12.1496 7.89883 12.1639 7.9706 12.1917 8.03755C12.2195 8.10449 12.2602 8.16531 12.3115 8.21652C12.3628 8.26773 12.4237 8.30834 12.4907 8.33602C12.5577 8.3637 12.6295 8.37791 12.702 8.37784C12.7745 8.37778 12.8462 8.36344 12.9132 8.33563C12.9801 8.30783 13.041 8.26712 13.0922 8.21581C13.1434 8.16451 13.184 8.10362 13.2117 8.03662C13.2393 7.96963 13.2536 7.89783 13.2535 7.82534C13.2534 7.67894 13.1951 7.53859 13.0915 7.43517C12.9878 7.33174 12.8474 7.27371 12.701 7.27384C12.5546 7.27398 12.4142 7.33226 12.3108 7.43587C12.2074 7.53949 12.1494 7.67994 12.1495 7.82634ZM7.85549 10.4013C8.38548 9.77623 9.07136 9.30239 9.84357 9.02789C10.6158 8.7534 11.4468 8.688 12.2525 8.83834C12.079 8.76267 11.9279 8.64349 11.8139 8.49235C11.7 8.3412 11.6269 8.16319 11.6019 7.97555C11.5768 7.78791 11.6006 7.59698 11.671 7.42123C11.7414 7.24548 11.8559 7.09087 12.0035 6.97234C10.332 7.71252 8.89684 8.89894 7.85549 10.4013ZM7.58149 13.4053C7.58387 14.4186 7.98819 15.3895 8.70569 16.1049C9.42319 16.8204 10.3952 17.2219 11.4085 17.2213C12.4217 17.2219 13.3938 16.8204 14.1113 16.1049C14.8288 15.3895 15.2331 14.4186 15.2355 13.4053C15.2331 12.3921 14.8288 11.4212 14.1113 10.7058C13.3938 9.99033 12.4217 9.58881 11.4085 9.58934C9.30049 9.59534 7.58149 11.3033 7.58149 13.4053ZM11.5605 19.9173C11.5605 19.9413 11.5545 19.9723 11.5545 19.9963C11.844 19.0897 12.4032 18.2929 13.1575 17.7123C12.2688 18.0714 11.291 18.1475 10.3575 17.9303C10.7198 18.1207 11.0234 18.4064 11.2354 18.7565C11.4474 19.1067 11.5598 19.508 11.5605 19.9173ZM8.37749 17.3423C8.37849 17.5773 8.30149 17.8053 8.15849 17.9903C8.50572 17.7838 8.90247 17.6753 9.30649 17.6763C9.40649 17.6753 9.50649 17.6833 9.60449 17.7003C9.09705 17.4886 8.63194 17.1871 8.23149 16.8103C8.32749 16.9703 8.37749 17.1553 8.37749 17.3423ZM7.89149 19.9173C7.89149 20.2926 8.04057 20.6525 8.30593 20.9179C8.5713 21.1833 8.93121 21.3323 9.30649 21.3323C9.68177 21.3323 10.0417 21.1833 10.307 20.9179C10.5724 20.6525 10.7215 20.2926 10.7215 19.9173C10.7215 19.1353 10.0845 18.5053 9.30649 18.5053C9.12074 18.5047 8.93668 18.5407 8.76491 18.6114C8.59313 18.6821 8.43701 18.786 8.30552 18.9173C8.17404 19.0485 8.06977 19.2044 7.99872 19.376C7.92766 19.5476 7.89122 19.7316 7.89149 19.9173ZM10.3395 21.9103C10.3945 21.9043 10.4495 21.8913 10.5095 21.8913C10.9165 21.8923 11.2875 22.1213 11.4695 22.4853C11.3816 22.1286 11.3367 21.7627 11.3355 21.3953C11.3375 21.1903 11.3515 20.9853 11.3785 20.7833C11.1755 21.2693 10.8085 21.6683 10.3395 21.9103ZM6.16649 17.2403C6.19045 16.9648 6.3166 16.7082 6.52014 16.5209C6.72369 16.3337 6.98991 16.2293 7.26649 16.2283C7.46749 16.2293 7.66549 16.2863 7.83649 16.3923C7.31293 15.775 6.961 15.0308 6.81601 14.2344C6.67103 13.4381 6.7381 12.6176 7.01049 11.8553C6.22524 13.534 5.93257 15.401 6.16649 17.2393V17.2403ZM7.26649 16.7913C7.194 16.7912 7.12219 16.8054 7.05517 16.833C6.98815 16.8606 6.92722 16.9011 6.87587 16.9523C6.82452 17.0035 6.78375 17.0643 6.75589 17.1312C6.72803 17.1981 6.71362 17.2699 6.71349 17.3423C6.71336 17.4148 6.7275 17.4866 6.75512 17.5537C6.78274 17.6207 6.82329 17.6816 6.87446 17.733C6.92562 17.7843 6.9864 17.8251 7.05332 17.8529C7.12024 17.8808 7.192 17.8952 7.26449 17.8953C7.41089 17.8956 7.5514 17.8377 7.6551 17.7344C7.75881 17.631 7.81722 17.4907 7.81749 17.3443C7.81775 17.1979 7.75985 17.0574 7.65652 16.9537C7.55319 16.85 7.41289 16.7916 7.26649 16.7913ZM7.06049 19.9173C7.06049 19.3373 7.28649 18.7813 7.69149 18.3673C7.42144 18.4778 7.11886 18.4781 6.84858 18.3682C6.5783 18.2583 6.36181 18.0469 6.24549 17.7793C6.41549 18.7113 6.70849 19.5963 7.12049 20.4193C7.08174 20.2548 7.06162 20.0864 7.06049 19.9173ZM9.90249 22.0793C9.53398 22.18 9.14587 22.1851 8.7749 22.0939C8.40392 22.0027 8.06234 21.8184 7.78249 21.5583C8.31249 22.3413 8.95049 23.0443 9.67749 23.6483C9.51841 23.458 9.4304 23.2184 9.42849 22.9703C9.42849 22.6133 9.60649 22.2803 9.90249 22.0803V22.0793ZM9.98749 22.9693C9.98749 23.1078 10.0425 23.2406 10.1404 23.3385C10.2383 23.4363 10.371 23.4913 10.5095 23.4913C10.6479 23.4913 10.7807 23.4363 10.8786 23.3385C10.9765 23.2406 11.0315 23.1078 11.0315 22.9693C11.0315 22.8309 10.9765 22.6981 10.8786 22.6002C10.7807 22.5023 10.6479 22.4473 10.5095 22.4473C10.371 22.4473 10.2383 22.5023 10.1404 22.6002C10.0425 22.6981 9.98749 22.8309 9.98749 22.9693ZM14.6585 25.8473C13.9466 25.6319 13.2964 25.2497 12.7619 24.7324C12.2274 24.2151 11.8241 23.5778 11.5855 22.8733C11.5855 22.9033 11.5975 22.9333 11.5975 22.9703C11.5973 23.153 11.5507 23.3326 11.4622 23.4923C11.3736 23.652 11.2459 23.7866 11.0912 23.8836C10.9364 23.9805 10.7595 24.0366 10.5771 24.0465C10.3948 24.0564 10.2129 24.0199 10.0485 23.9403C11.3974 24.9587 12.9844 25.6151 14.6585 25.8473ZM19.8215 21.3953C19.8215 20.3821 19.419 19.4103 18.7025 18.6938C17.986 17.9774 17.0142 17.5748 16.001 17.5748C14.9877 17.5748 14.016 17.9774 13.2995 18.6938C12.583 19.4103 12.1805 20.3821 12.1805 21.3953C12.1826 22.4074 12.5859 23.3772 13.302 24.0924C14.0181 24.8075 14.9885 25.2096 16.0005 25.2103C17.0124 25.2085 17.9823 24.806 18.6982 24.0909C19.4141 23.3757 19.8176 22.4062 19.8205 21.3943L19.8215 21.3953ZM21.9595 23.9393C21.7949 24.0195 21.6127 24.0565 21.4299 24.0469C21.2471 24.0372 21.0697 23.9813 20.9145 23.8843C20.7596 23.7875 20.6321 23.6527 20.5439 23.4928C20.4557 23.3328 20.4098 23.153 20.4105 22.9703C20.4115 22.9377 20.4155 22.9052 20.4225 22.8733C20.1838 23.5779 19.7803 24.2153 19.2456 24.7326C18.711 25.2499 18.0606 25.632 17.3485 25.8473C19.022 25.6124 20.6084 24.9558 21.9585 23.9393H21.9595ZM22.0145 22.9693C22.0145 22.8661 21.9839 22.7653 21.9266 22.6794C21.8693 22.5936 21.7878 22.5267 21.6925 22.4872C21.5972 22.4476 21.4922 22.4372 21.391 22.4573C21.2898 22.4774 21.1968 22.527 21.1237 22.5999C21.0507 22.6728 21.0009 22.7657 20.9806 22.8669C20.9604 22.9681 20.9706 23.073 21.0099 23.1684C21.0493 23.2638 21.116 23.3454 21.2018 23.4029C21.2875 23.4604 21.3883 23.4911 21.4915 23.4913C21.6294 23.4903 21.7615 23.4351 21.8591 23.3377C21.9567 23.2402 22.0122 23.1083 22.0135 22.9703L22.0145 22.9693ZM24.2185 21.5593C23.9386 21.8194 23.597 22.0036 23.226 22.0946C22.855 22.1856 22.4669 22.1804 22.0985 22.0793C22.3945 22.2793 22.5725 22.6133 22.5725 22.9693C22.5725 23.2303 22.4755 23.4603 22.3235 23.6483C23.0507 23.0447 23.6887 22.341 24.2185 21.5583V21.5593Z" fill="white"/>
</g>
<defs>
<clipPath id="clip0_1_5384">
<rect width="32" height="32" fill="white" transform="translate(0.000488281 0.0273438)"/>
</clipPath>
</defs>
</svg>
