<svg width="32" height="33" viewBox="0 0 32 33" fill="none" xmlns="http://www.w3.org/2000/svg">
<g clip-path="url(#clip0_1_5380)">
<path d="M16.0005 32.0273C24.837 32.0273 32.0005 24.8639 32.0005 16.0273C32.0005 7.19079 24.837 0.0273438 16.0005 0.0273438C7.16393 0.0273438 0.000488281 7.19079 0.000488281 16.0273C0.000488281 24.8639 7.16393 32.0273 16.0005 32.0273Z" fill="#5B6DEE"/>
<path d="M13.3005 15.2293C12.7426 15.2265 12.1856 15.2747 11.6365 15.3733C12.0885 11.1933 15.5725 8.02734 19.7205 8.02734C22.2605 8.02734 24.0005 9.27134 24.0005 11.8453C24.0005 14.4203 21.9115 15.6643 18.8645 15.6643C16.6145 15.6643 15.5505 15.2303 13.3005 15.2303V15.2293ZM13.1365 16.7543C10.0895 16.7543 8.00049 17.9993 8.00049 20.5733C8.00049 23.1473 9.74049 24.3913 12.2805 24.3913C16.4285 24.3913 19.9125 21.2263 20.3645 17.0453C19.8154 17.144 19.2584 17.1922 18.7005 17.1893C16.4505 17.1893 15.3855 16.7543 13.1365 16.7543Z" fill="white"/>
</g>
<defs>
<clipPath id="clip0_1_5380">
<rect width="32" height="32" fill="white" transform="translate(0.000488281 0.0273438)"/>
</clipPath>
</defs>
</svg>
