<svg width="32" height="33" viewBox="0 0 32 33" fill="none" xmlns="http://www.w3.org/2000/svg">
<g clip-path="url(#clip0_1_5374)">
<path d="M16.0005 32.0273C24.837 32.0273 32.0005 24.8639 32.0005 16.0273C32.0005 7.19079 24.837 0.0273438 16.0005 0.0273438C7.16393 0.0273438 0.000488281 7.19079 0.000488281 16.0273C0.000488281 24.8639 7.16393 32.0273 16.0005 32.0273Z" fill="#199248"/>
<path d="M16.0005 4.02734C9.37349 4.02734 4.00049 9.40034 4.00049 16.0273C4.00049 22.6543 9.37349 28.0273 16.0005 28.0273C22.6275 28.0273 28.0005 22.6543 28.0005 16.0273C28.0005 12.8447 26.7362 9.7925 24.4858 7.54206C22.2353 5.29163 19.1831 4.02734 16.0005 4.02734ZM18.7435 26.2633C17.363 26.6312 15.9224 26.7161 14.5083 26.5129C13.0942 26.3098 11.7357 25.8227 10.5146 25.0811C9.29357 24.3395 8.23508 23.3586 7.40281 22.1974C6.57054 21.0362 5.98168 19.7187 5.67165 18.3241C5.36161 16.9295 5.33679 15.4866 5.59869 14.0822C5.86058 12.6778 6.40378 11.3408 7.19562 10.1517C7.98747 8.96255 9.0116 7.94584 10.2065 7.16266C11.4013 6.37948 12.7422 5.84602 14.1485 5.59434C16.8369 5.11934 19.6049 5.7002 21.8755 7.21586C24.1462 8.73151 25.7443 11.065 26.3367 13.73C26.9292 16.395 26.4703 19.1858 25.0557 21.5207C23.6411 23.8557 21.3799 25.5546 18.7435 26.2633Z" fill="white"/>
<path d="M19.1287 7.50204C19.1287 8.01904 19.1287 8.53504 19.1487 9.05204C18.457 8.78367 17.7371 8.59512 17.0027 8.49004C16.9727 8.02104 17.1067 7.50604 16.9697 7.06104C16.4465 7.02375 15.9216 7.0174 15.3977 7.04204C15.3717 7.52404 15.3817 8.00804 15.3977 8.49204C14.663 8.60196 13.9431 8.79451 13.2517 9.06604C13.2667 8.54404 13.2717 8.02304 13.2647 7.50004C11.4392 8.11469 9.85275 9.28678 8.72889 10.8511C7.60503 12.4153 7.00049 14.2929 7.00049 16.219C7.00049 18.1452 7.60503 20.0227 8.72889 21.587C9.85275 23.1513 11.4392 24.3234 13.2647 24.938C13.2647 24.426 13.2597 23.916 13.2497 23.406C13.9359 23.6746 14.6521 23.8589 15.3827 23.955C15.3827 24.424 15.3827 24.893 15.3547 25.357C15.9147 25.437 16.4827 25.437 17.0427 25.357C17.0172 24.8951 17.0038 24.4326 17.0027 23.97C17.7337 23.8673 18.4513 23.6849 19.1427 23.426C19.1267 23.9326 19.1267 24.4395 19.1427 24.946C20.9674 24.33 22.5527 23.1569 23.6753 21.592C24.7979 20.0272 25.4011 18.1495 25.3999 16.2236C25.3987 14.2977 24.7931 12.4208 23.6685 10.8573C22.544 9.29389 20.9571 8.12277 19.1317 7.50904L19.1297 7.50204H19.1287ZM20.4987 21.437C19.2907 22.532 17.5747 22.791 15.9987 22.768C14.6157 22.768 13.1517 22.393 12.1527 21.392C11.6227 20.88 11.3227 20.196 11.0537 19.517C12.0197 19.267 13.0167 19.183 13.9897 18.975C14.0502 19.2692 14.1872 19.5422 14.3871 19.7665C14.5869 19.9907 14.8424 20.1582 15.1277 20.252C16.0107 20.528 17.1047 20.567 17.8407 19.937C18.3627 19.504 18.3777 18.557 17.7307 18.233C16.2137 17.449 14.3237 17.715 12.8897 16.723C10.9147 15.478 10.7687 12.176 12.7017 10.832C14.1797 9.79504 16.1557 9.66604 17.8697 10.082C19.4197 10.474 20.5247 11.788 21.0567 13.243C20.1027 13.408 19.1497 13.577 18.1957 13.738C17.9447 12.223 15.8237 11.863 14.7697 12.746C14.1697 13.245 14.3237 14.308 15.0737 14.574C16.7137 15.254 18.6837 15.058 20.1367 16.196C21.8237 17.34 21.9997 20.072 20.4977 21.436L20.4987 21.437Z" fill="white"/>
</g>
<defs>
<clipPath id="clip0_1_5374">
<rect width="32" height="32" fill="white" transform="translate(0.000488281 0.0273438)"/>
</clipPath>
</defs>
</svg>
