<svg width="32" height="32" viewBox="0 0 32 32" fill="none" xmlns="http://www.w3.org/2000/svg">
<circle cx="16" cy="16" r="16" fill="black"/>
<g clip-path="url(#clip0_1_6745)">
<path d="M10.0862 19.4485C10.2009 19.333 10.3585 19.2656 10.5257 19.2656H25.6894C25.9665 19.2656 26.1051 19.6025 25.9092 19.7998L22.9137 22.8171C22.799 22.9326 22.6414 23 22.4742 23H7.31048C7.03339 23 6.89484 22.6631 7.09072 22.4658L10.0862 19.4485Z" fill="url(#paint0_linear_1_6745)"/>
<path d="M10.0862 8.18287C10.2056 8.06737 10.3633 8 10.5257 8H25.6894C25.9665 8 26.105 8.33686 25.9092 8.53417L22.9137 11.5515C22.799 11.667 22.6414 11.7344 22.4742 11.7344H7.31045C7.03336 11.7344 6.89481 11.3975 7.09069 11.2002L10.0862 8.18287Z" fill="url(#paint1_linear_1_6745)"/>
<path d="M22.9137 13.7796C22.799 13.6641 22.6414 13.5967 22.4742 13.5967H7.31048C7.03339 13.5967 6.89484 13.9336 7.09072 14.1309L10.0862 17.1482C10.2009 17.2637 10.3585 17.3311 10.5257 17.3311H25.6894C25.9665 17.3311 26.1051 16.9942 25.9092 16.7969L22.9137 13.7796Z" fill="url(#paint2_linear_1_6745)"/>
</g>
<defs>
<linearGradient id="paint0_linear_1_6745" x1="24.2408" y1="6.19752" x2="13.626" y2="26.382" gradientUnits="userSpaceOnUse">
<stop stop-color="#00FFA3"/>
<stop offset="1" stop-color="#DC1FFF"/>
</linearGradient>
<linearGradient id="paint1_linear_1_6745" x1="19.6521" y1="3.78434" x2="9.0372" y2="23.9688" gradientUnits="userSpaceOnUse">
<stop stop-color="#00FFA3"/>
<stop offset="1" stop-color="#DC1FFF"/>
</linearGradient>
<linearGradient id="paint2_linear_1_6745" x1="21.9319" y1="4.98327" x2="11.317" y2="25.1678" gradientUnits="userSpaceOnUse">
<stop stop-color="#00FFA3"/>
<stop offset="1" stop-color="#DC1FFF"/>
</linearGradient>
<clipPath id="clip0_1_6745">
<rect width="19" height="15" fill="white" transform="translate(7 8)"/>
</clipPath>
</defs>
</svg>
