<svg width="32" height="33" viewBox="0 0 32 33" fill="none" xmlns="http://www.w3.org/2000/svg">
<g clip-path="url(#clip0_1_5370)">
<path d="M16.0005 32.0273C24.837 32.0273 32.0005 24.8639 32.0005 16.0273C32.0005 7.19079 24.837 0.0273438 16.0005 0.0273438C7.16393 0.0273438 0.000488281 7.19079 0.000488281 16.0273C0.000488281 24.8639 7.16393 32.0273 16.0005 32.0273Z" fill="#FF3B81"/>
<path d="M8.45949 22.1683V22.3093H6.98249V19.6423L6.93649 19.7903L5.52549 19.3643L6.32249 16.7943L6.22449 16.9383L5.00049 16.1253L6.53049 13.8913L6.38449 14.0073L5.45449 12.8773L7.65549 11.1213L7.37549 11.2283L6.84549 9.87034L9.47449 8.87634L9.16649 8.89634L9.06449 7.44634L11.8165 7.25634L11.5675 7.20034L11.8995 5.78334L14.5295 6.38134L14.3635 6.28734L15.1005 5.02734L17.3935 6.33134L17.3035 6.23734L18.3835 5.24534L20.1695 7.13134L20.1315 7.05534L21.4585 6.41734L22.6045 8.73134L22.5945 8.66634L24.0515 8.43834L24.4815 11.1113L24.5115 10.9213L25.9705 11.1483L25.5345 13.8603L25.6415 13.6423L26.9685 14.2803L25.7405 16.7613L25.9205 16.5713L26.9995 17.5643L25.0905 19.5803L25.3215 19.4493L26.0595 20.7093L23.6605 22.0733L23.9015 22.0183L24.2345 23.4353L21.5825 24.0383L21.7875 24.0523L21.6845 25.5033L19.0305 25.3203L19.1655 25.3713L18.6355 26.7293L16.0955 25.7693L16.2565 25.8973L15.3275 27.0273L13.2305 25.3543L13.3345 25.5053L12.1105 26.3193L10.6105 24.1293L10.6555 24.2733L9.24349 24.6993L8.45949 22.1683ZM8.45949 20.4403L9.38149 20.1623L10.0975 22.4723L10.8955 21.9423L12.2575 23.9323L12.8665 23.1923L14.7545 24.6983L15.0925 23.8313L17.3685 24.6913L17.4345 23.7523L19.8705 23.9203L19.6505 22.9853L22.0385 22.4423L21.5435 21.5983L23.6745 20.3863L22.9445 19.7163L24.6275 17.9383L23.7295 17.5063L24.8125 15.3203L23.8305 15.1663L24.2165 12.7663L23.2765 12.9123L22.8915 10.5123L22.0455 10.9183L20.9705 8.74834L20.2805 9.38134L18.6185 7.62434L18.1425 8.43634L16.0375 7.23934L15.8195 8.16734L13.4515 7.62834L13.5205 8.59734L11.0895 8.76434L11.4485 9.68734L9.15849 10.5533L9.77549 11.3023L7.85349 12.8353L8.66449 13.3743L7.28049 15.3973L8.21349 15.6793L7.49049 18.0103H8.46049L8.45949 20.4403ZM15.7095 17.7153C15.7095 17.3473 15.5795 17.0663 15.3205 16.8713C15.0605 16.6723 14.5955 16.4643 13.9215 16.2483C13.2475 16.0283 12.7145 15.8113 12.3215 15.5983C11.2515 15.0183 10.7155 14.2383 10.7155 13.2553C10.7155 12.7443 10.8575 12.2893 11.1425 11.8913C11.4325 11.4883 11.8445 11.1743 12.3795 10.9493C12.9195 10.7243 13.5245 10.6123 14.1935 10.6123C14.8675 10.6123 15.4675 10.7353 15.9935 10.9823C16.5205 11.2243 16.9285 11.5683 17.2185 12.0143C17.5137 12.4657 17.6669 12.9951 17.6585 13.5343H15.7155C15.7155 13.1013 15.5795 12.7653 15.3075 12.5273C15.0355 12.2853 14.6535 12.1643 14.1615 12.1643C13.6865 12.1643 13.3165 12.2653 13.0535 12.4693C12.928 12.5591 12.8264 12.6782 12.7575 12.8162C12.6887 12.9543 12.6547 13.1071 12.6585 13.2613C12.6585 13.5683 12.8115 13.8263 13.1185 14.0343C13.4285 14.2413 13.8845 14.4363 14.4845 14.6183C15.5905 14.9513 16.3955 15.3653 16.9005 15.8583C17.4065 16.3523 17.6585 16.9673 17.6585 17.7023C17.6585 18.5213 17.3495 19.1633 16.7325 19.6313C16.1145 20.0943 15.2835 20.3263 14.2385 20.3263C13.5573 20.3354 12.8819 20.2004 12.2565 19.9303C11.6615 19.6613 11.2055 19.2953 10.8905 18.8323C10.5795 18.3693 10.4235 17.8323 10.4235 17.2223H12.3735C12.3735 18.2653 12.9955 18.7873 14.2385 18.7873C14.7005 18.7873 15.0615 18.6943 15.3205 18.5073C15.446 18.418 15.5472 18.2988 15.6151 18.1605C15.6831 18.0223 15.7155 17.8693 15.7095 17.7153ZM21.6395 11.9173L19.7665 18.7693L18.2235 18.6613L19.3905 11.5973L21.6395 11.9173ZM20.0055 19.4833L19.5185 21.9043L17.4665 21.3053L17.9375 18.9833L20.0055 19.4833Z" fill="white"/>
</g>
<defs>
<clipPath id="clip0_1_5370">
<rect width="32" height="32" fill="white" transform="translate(0.000488281 0.0273438)"/>
</clipPath>
</defs>
</svg>
