<svg width="32" height="33" viewBox="0 0 32 33" fill="none" xmlns="http://www.w3.org/2000/svg">
<g clip-path="url(#clip0_1_5366)">
<path d="M16.0005 32.0273C24.837 32.0273 32.0005 24.8639 32.0005 16.0273C32.0005 7.19079 24.837 0.0273438 16.0005 0.0273438C7.16393 0.0273438 0.000488281 7.19079 0.000488281 16.0273C0.000488281 24.8639 7.16393 32.0273 16.0005 32.0273Z" fill="#00B098"/>
<path d="M6.00049 12.4183V12.0623H14.4175V12.4183H6.00049ZM6.00049 11.3833V11.0273H14.4175V11.3833H6.00049ZM9.55049 22.0233V13.1303H9.88849V22.0233H9.55049ZM10.5305 22.0233V13.1303H10.8675V22.0233H10.5305ZM25.7625 21.2953L21.9645 17.2823L22.2025 17.0313L26.0005 21.0433L25.7625 21.2953ZM16.5195 11.0273L20.3175 15.0403L20.0795 15.2913L16.2815 11.2793L16.5195 11.0273ZM25.0695 22.0273L21.2715 18.0143L21.5095 17.7623L25.3075 21.7753L25.0695 22.0273ZM15.8275 11.7593L19.6255 15.7713L19.3865 16.0233L15.5885 12.0113L15.8275 11.7593ZM21.2485 16.5273L21.4875 16.2753L25.7625 11.7593L26.0005 12.0113L21.7255 16.5273L21.4875 16.7793L21.0335 17.2593L20.7945 17.5113L16.5205 22.0273L16.2825 21.7753L20.5575 17.2593L20.7955 17.0073L21.2485 16.5273ZM20.7945 15.5433L25.0705 11.0273L25.3085 11.2793L21.0335 15.7953L20.7955 16.0473L20.3415 16.5273L20.1025 16.7793L15.8285 21.2953L15.5895 21.0433L19.8645 16.5273L20.1025 16.2753L20.5575 15.7953L20.7945 15.5433Z" fill="white"/>
</g>
<defs>
<clipPath id="clip0_1_5366">
<rect width="32" height="32" fill="white" transform="translate(0.000488281 0.0273438)"/>
</clipPath>
</defs>
</svg>
