<svg width="32" height="33" viewBox="0 0 32 33" fill="none" xmlns="http://www.w3.org/2000/svg">
<g clip-path="url(#clip0_1_5362)">
<path d="M16.001 32.0273C24.8375 32.0273 32.001 24.8639 32.001 16.0273C32.001 7.19079 24.8375 0.0273438 16.001 0.0273438C7.16442 0.0273438 0.000976562 7.19079 0.000976562 16.0273C0.000976562 24.8639 7.16442 32.0273 16.001 32.0273Z" fill="#1C1C1C"/>
<path d="M15.716 13.4603C16.022 13.5853 16.328 13.5223 16.573 13.4603C16.757 14.0843 17.063 14.6453 17.368 14.8943C17.185 16.4543 16.634 17.0154 16.022 17.0154C15.166 17.0154 14.737 15.2063 14.737 14.8953C14.921 14.7703 15.472 14.3953 15.717 13.4603H15.716ZM14.798 18.9494C15.166 18.6374 15.41 18.1383 15.716 17.3273C15.961 17.4523 16.328 17.3893 16.573 17.3273C16.757 18.2003 16.94 18.7624 17.368 19.0113C17.246 20.0093 16.634 20.6953 16.083 20.6953C15.288 20.6953 14.921 19.4484 14.798 18.9494ZM9.90298 20.8823C10.148 20.5703 10.148 20.0723 10.026 19.1363C10.209 19.1983 10.393 19.1983 10.516 19.1363C10.882 20.0093 11.188 20.5703 11.678 20.8823C11.739 21.3194 11.678 21.8184 11.494 21.8804C10.821 22.1924 10.209 21.3813 9.90398 20.8823H9.90298ZM7.33298 19.1983C7.45598 19.1983 7.51698 19.1983 7.63898 19.2613C8.06798 20.3833 8.80198 21.0073 8.80198 21.0073C9.04698 21.5063 9.16898 22.0054 8.98498 22.0054C8.43498 22.0674 8.00598 21.6933 7.57798 20.8823C7.63898 20.6953 7.57798 20.5703 7.33298 19.1983ZM5.68098 19.1983C6.29298 21.8183 7.45598 21.6934 7.39498 21.5684C7.14998 21.1324 6.90498 20.9454 6.65998 20.7584C6.10998 20.1964 5.68098 19.0113 5.68098 19.1983ZM13.146 20.8823C13.575 20.5703 13.636 19.8844 13.697 19.0124C13.942 19.0734 14.247 19.0734 14.431 19.0124C14.554 19.5724 14.737 20.3834 15.288 20.7584C15.227 21.4444 15.043 21.8184 14.615 21.8804C14.309 22.0054 13.452 22.0054 13.146 20.8823ZM7.88398 18.9494C8.12898 18.6374 8.18998 18.1383 8.25098 17.4523C8.43498 17.5143 8.67998 17.5143 8.80098 17.4523C8.98498 18.2623 9.29098 18.7624 9.65898 19.0124C9.78098 20.3214 9.65898 20.7584 9.41398 20.7584C8.86398 20.7584 8.12898 19.5723 7.88398 18.9483V18.9494ZM5.98698 18.9494C5.98698 18.8244 6.04798 18.0133 6.10998 17.4523H6.35398C6.65998 18.6373 7.08898 19.0124 7.08898 19.0124C7.39498 20.4464 7.39498 20.8203 7.14898 20.6953C6.59898 20.5083 6.17098 19.4484 5.98698 18.9494ZM10.882 18.9494C11.188 18.6994 11.372 18.2633 11.494 17.4523C11.8 17.5763 12.106 17.5143 12.29 17.4523C12.473 18.2623 12.78 18.7624 13.208 19.0124C13.208 19.6974 13.146 20.8203 12.29 20.6323C11.555 20.4464 10.944 19.1984 10.882 18.9494ZM10.332 18.7624C9.59698 18.7624 9.16898 17.5763 9.16898 17.2023C9.53598 16.8283 9.71898 16.1424 9.90298 14.9574C10.026 15.0194 10.209 15.0194 10.393 14.9574C10.454 16.2674 10.821 16.8284 11.127 17.1404C11.005 18.2004 10.699 18.7624 10.332 18.7624ZM6.53798 17.2023C6.65998 16.9523 6.65998 16.8904 7.02798 14.9574H7.33298C7.33298 16.2674 7.69998 16.8904 7.88398 17.1404C7.82298 17.8264 7.94498 18.7624 7.39398 18.7624C7.14998 18.7624 6.84398 18.4503 6.53798 17.2023ZM5.31398 15.0193C5.49798 15.0823 5.37498 16.7034 5.61998 17.2654C5.61998 17.2654 5.61998 18.8244 5.49798 18.6994C4.57998 17.5764 5.19198 14.9573 5.31398 15.0193ZM12.657 17.2023C13.085 16.8903 13.33 16.2044 13.697 14.9574C13.942 15.0194 14.247 15.0194 14.431 14.9574C14.554 15.8924 14.798 16.5793 15.288 17.0773C15.166 18.0753 14.676 18.7624 14.064 18.7624C13.085 18.7624 12.718 17.3893 12.657 17.2023ZM7.63898 14.7703C8.12898 14.5834 8.43498 13.5223 8.49598 13.3973C8.5633 13.4577 8.65055 13.4911 8.74098 13.4911C8.8314 13.4911 8.91865 13.4577 8.98598 13.3973C8.98598 14.2083 9.22998 14.5834 9.41398 14.7074C9.22998 15.7674 8.98498 17.0154 8.43398 17.0154C7.94498 17.0154 7.69998 15.8924 7.63898 14.7703ZM6.10898 17.0773C5.68098 17.0773 5.55898 15.4563 5.68098 14.7703C5.68098 14.7703 6.04798 14.2083 6.29298 13.3973C6.35398 13.3973 6.47698 13.4603 6.53798 13.3973C6.47698 14.2083 6.59898 14.5834 6.72098 14.7703C6.72098 14.7703 6.41598 17.0773 6.10998 17.0773H6.10898ZM10.76 14.7703C11.005 14.6453 11.494 13.9593 11.739 13.3353C11.984 13.4603 12.229 13.4603 12.534 13.3973C12.657 14.0843 12.84 14.5203 13.269 14.7703C13.085 15.8924 12.718 17.0154 11.923 17.0154C11.188 17.0154 10.821 15.5184 10.76 14.7703ZM11.31 13.0863C10.944 14.0844 10.576 14.6453 10.087 14.6453C9.47498 14.6453 9.41398 13.3353 9.41398 13.2103C9.90398 12.8363 10.27 12.0884 10.576 11.4644H11.005C10.882 12.3994 11.127 12.8363 11.311 13.0863H11.31ZM8.31198 11.5263C8.00598 12.3993 8.12898 12.8364 8.25198 13.1484C7.76198 14.3954 7.51698 14.7083 7.14998 14.7083C6.78298 14.6453 6.78298 13.8964 6.90498 13.2734C7.27198 13.0234 8.06798 11.5893 8.06798 11.5263H8.31198ZM6.53798 11.5894C6.72098 11.5264 6.04798 12.4623 6.10998 12.8993C6.16998 13.5223 5.43598 14.5834 5.37498 14.5203C5.13098 14.4584 5.61998 12.2124 6.53798 11.5894ZM15.227 13.0863C15.043 13.7723 14.798 14.6453 13.758 14.6453C13.208 14.5834 12.902 13.8353 12.779 13.2103C13.391 12.7743 13.697 12.0254 13.881 11.4644C14.064 11.5264 14.371 11.5264 14.554 11.4644C14.676 12.3994 14.982 12.8363 15.227 13.0863ZM6.90498 11.4013C7.02698 11.3393 7.82298 10.2793 8.25098 10.2793C8.49598 10.3413 7.82298 10.9653 7.88398 11.2773C7.69998 11.5893 6.84398 13.1473 6.53798 13.1473C6.29298 13.1473 6.29298 12.3373 6.90498 11.4013ZM21.958 19.1363C21.896 20.0714 21.896 20.5703 22.08 20.8823C21.835 21.3823 21.162 22.1304 20.49 21.8804C20.244 21.8184 20.244 21.3194 20.305 20.8823C20.856 20.5703 21.223 19.9473 21.468 19.1363C21.59 19.1983 21.774 19.1983 21.958 19.1363ZM24.405 19.1363C24.466 19.1983 24.589 19.1983 24.711 19.0733C24.466 20.4464 24.405 20.5704 24.466 20.7584C24.038 21.5684 23.61 21.8804 23.059 21.8804C22.814 21.8804 22.937 21.4444 23.243 20.8823C23.243 20.8823 23.977 20.2593 24.405 19.1363ZM25.385 20.7584C25.139 21.0074 24.895 21.1324 24.711 21.5684C24.65 21.6934 25.813 21.8183 26.424 19.1983C26.302 19.0113 25.934 20.1964 25.384 20.7584H25.385ZM18.347 19.1363C18.347 19.8843 18.531 20.5703 18.898 21.0073C18.592 22.0674 17.736 22.0674 17.43 22.0054C17.001 21.8804 16.879 21.5063 16.757 20.8823C17.246 20.4464 17.491 19.6973 17.613 19.1363C17.858 19.1983 18.103 19.1983 18.347 19.1363ZM23.854 17.3893C23.854 18.1383 23.916 18.6374 24.222 18.8863C23.977 19.5103 23.182 20.6964 22.692 20.6964C22.447 20.6964 22.325 20.2594 22.447 18.9494C22.814 18.6994 23.12 18.0753 23.304 17.3893C23.388 17.4365 23.4827 17.4612 23.579 17.4612C23.6753 17.4612 23.77 17.4365 23.854 17.3893ZM26.057 17.5143C26.057 18.0143 26.057 18.8243 26.18 19.0113C25.935 19.5113 25.507 20.5714 25.017 20.7584C24.711 20.8204 24.772 20.4464 25.078 19.0733C25.078 19.0733 25.507 18.6373 25.813 17.5143H26.057ZM20.611 17.3893C20.734 18.2633 20.856 18.6993 21.223 18.8863C21.163 19.1983 20.489 20.4464 19.816 20.5703C18.959 20.7583 18.898 19.5724 18.898 18.9494C19.326 18.6994 19.632 18.1383 19.816 17.3893C20 17.4523 20.306 17.5143 20.611 17.3893ZM22.937 17.2023C22.875 17.5763 22.386 18.7624 21.774 18.7624C21.407 18.7624 21.101 18.1384 20.979 17.1404C21.285 16.8904 21.652 16.2674 21.713 14.9574C21.8703 15.0198 22.0456 15.0198 22.203 14.9574C22.447 16.0804 22.631 16.8283 22.937 17.2023ZM25.078 14.9574C25.384 16.8904 25.445 16.9533 25.568 17.2023C25.262 18.3873 24.956 18.7624 24.711 18.7624C24.161 18.7624 24.283 17.7644 24.221 17.1404C24.466 16.8904 24.772 16.2674 24.772 14.9574C24.895 15.0194 24.956 14.9574 25.078 14.9574ZM26.363 17.2023C26.669 16.7033 26.547 15.0824 26.669 14.9574C26.853 14.8944 27.403 17.6394 26.486 18.6374C26.363 18.7624 26.363 17.2023 26.363 17.2023ZM18.531 14.9574C18.715 16.2044 19.021 16.8903 19.571 17.2023C19.51 17.3893 19.021 18.7624 18.164 18.7624C17.491 18.8244 17.124 18.0133 16.94 17.0773C17.368 16.5793 17.674 15.8924 17.797 14.9574C17.919 15.0194 18.225 15.0194 18.531 14.9574ZM23.61 13.3973C23.61 13.5223 23.977 14.5833 24.405 14.8943C24.405 15.9543 24.099 17.1404 23.61 17.1404C23.059 17.1404 22.814 15.9554 22.63 14.8324C22.814 14.6454 23.059 14.2083 23.059 13.4603C23.1487 13.4961 23.2459 13.509 23.3419 13.498C23.4379 13.487 23.5296 13.4524 23.609 13.3973H23.61ZM26.363 14.7703C26.424 15.4563 26.302 17.0774 25.996 17.0154C25.69 17.0154 25.384 14.7074 25.384 14.7074C25.507 14.5204 25.629 14.0843 25.568 13.3973C25.6016 13.4276 25.6452 13.4444 25.6905 13.4444C25.7357 13.4444 25.7794 13.4276 25.813 13.3973C26.057 14.2083 26.363 14.7703 26.363 14.7703ZM20.367 13.3973C20.611 13.9593 21.04 14.6454 21.407 14.8324C21.346 15.5814 20.917 17.0773 20.244 17.0773C19.326 17.1403 19.082 16.0174 18.898 14.8324C19.265 14.5824 19.51 14.0843 19.571 13.4603C19.816 13.5223 20.121 13.5223 20.367 13.3973ZM21.897 14.5833C21.468 14.6453 21.101 14.0834 20.673 13.0863C20.917 12.8363 21.101 12.3374 20.979 11.4644C21.162 11.5264 21.285 11.5264 21.407 11.4644C21.774 12.1504 22.141 12.8364 22.569 13.1484C22.569 13.3354 22.509 14.5833 21.896 14.5833H21.897ZM23.854 13.0863C23.916 12.8363 24.038 12.3994 23.671 11.4644H23.916C23.916 11.5264 24.772 13.0243 25.078 13.2103C25.201 13.8963 25.201 14.5834 24.833 14.6453C24.528 14.6453 24.283 14.3333 23.854 13.0853V13.0863ZM25.934 12.8984C25.996 12.4624 25.384 11.5263 25.445 11.5883C26.425 12.2123 26.792 14.4584 26.608 14.5203C26.547 14.5834 25.874 13.4604 25.935 12.8984H25.934ZM18.164 14.5833C17.246 14.6453 17.001 13.7723 16.818 13.0863C17.124 12.8984 17.43 12.3374 17.491 11.4644C17.674 11.5264 17.981 11.5264 18.164 11.4644C18.347 12.0254 18.654 12.7744 19.143 13.1484C19.082 13.8964 18.776 14.5203 18.163 14.5833H18.164ZM23.854 10.2793C24.16 10.2793 25.078 11.3393 25.139 11.4013C25.813 12.3993 25.813 13.1484 25.568 13.1484C25.201 13.1484 24.405 11.5883 24.222 11.2773C24.282 10.9653 23.61 10.2793 23.854 10.2793ZM10.27 10.4664C10.148 10.8404 10.087 11.2143 10.27 11.4013C9.90298 12.1503 9.29098 13.2114 8.73998 13.1484C8.12898 13.0234 8.61798 11.5884 8.67998 11.4644C9.04698 11.2774 9.90298 10.0923 10.21 10.0923C10.393 10.1543 10.27 10.4664 10.27 10.4664ZM13.146 10.4043C13.146 10.7783 13.208 11.2143 13.513 11.4013C13.269 12.1503 12.779 13.1484 11.983 13.0863C11.433 13.0234 11.311 12.0883 11.433 11.4013C11.983 11.2143 12.473 10.0293 12.84 10.0293C13.146 10.0293 13.146 10.3413 13.146 10.4043ZM21.836 11.4013C21.958 11.2143 21.958 10.8414 21.836 10.4664C21.836 10.4044 21.713 10.0923 21.896 10.0923C22.202 10.0923 23.059 11.2774 23.426 11.4644C23.487 11.5894 23.976 13.0244 23.365 13.1484C22.753 13.2104 22.202 12.0883 21.835 11.4013H21.836ZM18.592 11.4013C18.837 11.2143 18.898 10.7783 18.959 10.4043C18.959 10.3413 18.959 10.0293 19.265 10.0293C19.571 9.96735 20.183 11.2143 20.673 11.4013C20.856 12.2123 20.733 13.0234 20.122 13.0863C19.265 13.2104 18.837 12.0883 18.592 11.4013ZM16.022 10.0293C16.634 10.0293 16.634 11.2144 17.124 11.4644C17.124 11.7764 16.94 13.1484 15.961 13.1484C15.104 13.1484 14.921 12.0254 14.86 11.4644C15.594 11.1524 15.35 10.0293 16.022 10.0293Z" fill="white"/>
</g>
<defs>
<clipPath id="clip0_1_5362">
<rect width="32" height="32" fill="white" transform="translate(0.000976562 0.0273438)"/>
</clipPath>
</defs>
</svg>
