<svg width="32" height="33" viewBox="0 0 32 33" fill="none" xmlns="http://www.w3.org/2000/svg">
<g clip-path="url(#clip0_1_5358)">
<path d="M16.001 32.0273C24.8375 32.0273 32.001 24.8639 32.001 16.0273C32.001 7.19079 24.8375 0.0273438 16.001 0.0273438C7.16442 0.0273438 0.000976562 7.19079 0.000976562 16.0273C0.000976562 24.8639 7.16442 32.0273 16.001 32.0273Z" fill="#F2941B"/>
<path d="M16.567 5.02734H16.578C18.65 7.07734 20.699 9.14734 22.759 11.2083H27.899L16.329 27.6013C16.137 25.6763 15.989 23.7513 15.819 21.8273C17.495 19.4163 19.216 17.0273 20.892 14.6273L17.065 10.8123C17.0616 10.3611 17.0238 9.91082 16.952 9.46534C16.827 7.99334 16.748 6.49934 16.567 5.02734ZM4.01198 21.4873C7.89498 16.0313 11.744 10.5523 15.616 5.08434L16.103 10.8803C14.416 13.2913 12.718 15.6693 11.031 18.0693C12.288 19.3253 13.544 20.6043 14.824 21.8613C14.994 23.7853 15.141 25.7333 15.334 27.6693H15.31L9.16298 21.5103C7.44298 21.5333 5.72198 21.4993 4.00098 21.5333V21.4873H4.01198Z" fill="white"/>
</g>
<defs>
<clipPath id="clip0_1_5358">
<rect width="32" height="32" fill="white" transform="translate(0.000976562 0.0273438)"/>
</clipPath>
</defs>
</svg>
