<svg width="32" height="33" viewBox="0 0 32 33" fill="none" xmlns="http://www.w3.org/2000/svg">
<g clip-path="url(#clip0_1_5354)">
<path d="M16.001 32.0273C24.8375 32.0273 32.001 24.8639 32.001 16.0273C32.001 7.19079 24.8375 0.0273438 16.001 0.0273438C7.16442 0.0273438 0.000976562 7.19079 0.000976562 16.0273C0.000976562 24.8639 7.16442 32.0273 16.001 32.0273Z" fill="#01AEF0"/>
<path fill-rule="evenodd" clip-rule="evenodd" d="M21.07 18.9173C21.057 20.9913 19.859 22.7573 17.948 23.4823C17.5 23.6523 17.034 23.7773 16.57 23.8933C16.293 23.9633 16.142 24.1003 16.12 24.4033C16.092 24.7853 16.053 25.1663 16 25.5433C15.936 25.9893 15.783 26.0913 15.373 25.9933C14.667 25.8253 14.591 25.7113 14.685 24.9703C14.693 24.9073 14.702 24.8443 14.709 24.7803C14.779 24.1733 14.693 24.0863 14.112 24.1153C13.851 24.1283 13.742 24.2573 13.717 24.5133C13.683 24.8813 13.647 25.2503 13.587 25.6133C13.527 25.9853 13.371 26.0773 13.013 25.9993C12.249 25.8343 12.193 25.7493 12.293 24.9413C12.419 23.9383 12.416 23.9493 11.49 23.6703C11.08 23.5463 10.682 23.3743 10.281 23.2153C10.037 23.1193 9.95698 22.9373 10.023 22.6663C10.107 22.3213 10.165 21.9683 10.237 21.6193C10.361 21.0243 10.649 20.8443 11.199 21.0603C12.173 21.4433 13.173 21.6793 14.214 21.7043C15.153 21.7273 16.082 21.6653 16.939 21.2043C17.505 20.8993 17.921 20.4523 18.13 19.8113C18.44 18.8593 18.162 18.0893 17.27 17.7063C16.535 17.3913 15.746 17.2163 15.005 16.9143C14.347 16.6463 13.663 16.3783 13.095 15.9573C11.818 15.0133 11.595 13.6173 11.875 12.1263C12.193 10.4453 13.222 9.35535 14.749 8.77635C15.156 8.62335 15.34 8.40935 15.347 7.95235C15.353 7.45735 15.432 6.96235 15.492 6.46935C15.538 6.09035 15.686 5.98435 16.04 6.04235C16.792 6.16535 16.882 6.28435 16.808 7.06535C16.779 7.37035 16.754 7.67535 16.718 7.97835C16.688 8.23335 16.769 8.35035 17.036 8.35835C17.645 8.37635 17.671 8.36535 17.743 7.73535C17.789 7.33035 17.823 6.92435 17.878 6.52035C17.938 6.07235 18.083 5.97035 18.496 6.05435C19.191 6.19735 19.268 6.30335 19.2 7.02735C19.17 7.34435 19.155 7.66435 19.1 7.97735C19.037 8.33735 19.147 8.50435 19.505 8.58735C20.186 8.74535 20.86 8.94535 21.529 9.15335C22.032 9.30935 22.052 9.36635 21.955 9.88935C21.898 10.2023 21.841 10.5163 21.767 10.8253C21.629 11.4073 21.339 11.5803 20.785 11.3943C19.837 11.0743 18.885 10.7853 17.88 10.7423C17 10.7053 16.132 10.7183 15.368 11.2713C14.292 12.0493 14.286 13.6313 15.43 14.2973C16.158 14.7213 16.999 14.9373 17.788 15.2493C18.269 15.4393 18.763 15.6033 19.225 15.8333C20.463 16.4513 21.084 17.4843 21.07 18.9183" fill="white"/>
</g>
<defs>
<clipPath id="clip0_1_5354">
<rect width="32" height="32" fill="white" transform="translate(0.000976562 0.0273438)"/>
</clipPath>
</defs>
</svg>
