<svg width="32" height="33" viewBox="0 0 32 33" fill="none" xmlns="http://www.w3.org/2000/svg">
<g clip-path="url(#clip0_1_5350)">
<path d="M16 32.0283C24.8366 32.0283 32 24.8649 32 16.0283C32 7.19176 24.8366 0.0283203 16 0.0283203C7.16344 0.0283203 0 7.19176 0 16.0283C0 24.8649 7.16344 32.0283 16 32.0283Z" fill="#4BA2F2"/>
<path d="M9.641 8.17156C9.857 8.20856 9.319 9.64157 9.619 11.2786C9.879 12.6816 13.126 18.1146 12.992 19.9786C12.888 21.1486 10.222 23.8936 9.941 23.7106C9.634 23.6256 10.751 21.7606 10.337 20.2066C9.855 18.3946 6.997 13.7106 7 11.6426C7 10.1296 9.448 8.07356 9.64 8.17156H9.641ZM15.75 6.03157C16.024 6.07857 15.34 7.90757 15.722 9.99057C16.052 11.7826 20.195 18.7106 20.023 21.0856C19.889 22.5796 16.491 26.0766 16.131 25.8456C15.741 25.7386 17.165 23.3596 16.637 21.3776C16.024 19.0696 12.379 13.0956 12.382 10.4586C12.382 8.52756 15.504 5.90856 15.75 6.03256V6.03157ZM22.055 8.17156C22.271 8.20856 21.734 9.64157 22.033 11.2786C22.293 12.6816 25.54 18.1146 25.407 19.9786C25.304 21.1486 22.637 23.8936 22.355 23.7106C22.049 23.6256 23.165 21.7606 22.751 20.2066C22.27 18.3946 19.411 13.7106 19.414 11.6426C19.414 10.1296 21.864 8.07356 22.055 8.17156Z" fill="white"/>
</g>
<defs>
<clipPath id="clip0_1_5350">
<rect width="32" height="32" fill="white" transform="translate(0 0.0283203)"/>
</clipPath>
</defs>
</svg>
