<svg width="32" height="33" viewBox="0 0 32 33" fill="none" xmlns="http://www.w3.org/2000/svg">
<g clip-path="url(#clip0_1_5346)">
<path d="M16 32.0283C24.8366 32.0283 32 24.8649 32 16.0283C32 7.19176 24.8366 0.0283203 16 0.0283203C7.16344 0.0283203 0 7.19176 0 16.0283C0 24.8649 7.16344 32.0283 16 32.0283Z" fill="#2683FF"/>
<path d="M24.977 18.9993C25.3966 19.2511 25.7016 19.6564 25.8273 20.1293C25.9529 20.6022 25.8893 21.1055 25.65 21.5323C25.136 22.4343 23.968 22.7543 23.049 22.2503C22.959 22.2013 22.881 22.1433 22.801 22.0853L17.875 24.8693C17.887 24.9593 17.894 25.0503 17.895 25.1413C17.895 25.2483 17.895 25.3453 17.875 25.4513C17.707 26.4713 16.728 27.1693 15.689 27.0043C14.651 26.8393 13.939 25.8783 14.107 24.8603L9.15001 22.0563C9.07326 22.1113 8.99419 22.1631 8.91301 22.2113C8.83301 22.2503 8.75401 22.2983 8.66501 22.3273C8.19771 22.5146 7.67553 22.5107 7.21106 22.3165C6.74658 22.1224 6.37701 21.7534 6.18201 21.2893C5.78701 20.3293 6.26201 19.2423 7.24101 18.8543V13.2463C7.15112 13.2174 7.06488 13.1781 6.98401 13.1293C6.90984 13.0833 6.83714 13.0349 6.76601 12.9843C6.49652 12.7885 6.28455 12.5239 6.15227 12.2182C6.01999 11.9125 5.97224 11.5768 6.01401 11.2463C6.05828 10.915 6.19001 10.6016 6.39564 10.3381C6.60128 10.0746 6.87341 9.87071 7.18401 9.74732C7.49678 9.62122 7.83699 9.5787 8.17118 9.62393C8.50536 9.66917 8.82202 9.80061 9.09001 10.0053L14.096 7.16232C14.086 7.07532 14.076 6.99832 14.076 6.91032C14.076 5.88232 14.956 5.02832 16.005 5.02832C17.053 5.02832 17.913 5.86232 17.914 6.90032C17.914 6.98832 17.904 7.06532 17.894 7.15332L22.939 10.0153C23.1583 9.85466 23.4089 9.74197 23.6746 9.68458C23.9403 9.62719 24.2151 9.62639 24.4811 9.68224C24.7471 9.73808 24.9984 9.84932 25.2185 10.0087C25.4387 10.1681 25.6229 10.3721 25.759 10.6073C26.272 11.5093 25.936 12.6543 25.016 13.1593C24.927 13.1973 24.838 13.2463 24.749 13.2753V18.8933C24.828 18.9233 24.904 18.9583 24.976 18.9993H24.977ZM25.324 21.3473C25.4217 21.1861 25.4862 21.0069 25.5137 20.8203C25.5412 20.6338 25.5311 20.4436 25.4841 20.261C25.437 20.0784 25.354 19.9071 25.2397 19.757C25.1255 19.607 24.9825 19.4813 24.819 19.3873C24.5497 19.2321 24.238 19.1663 23.9289 19.1996C23.6198 19.2328 23.3292 19.3633 23.099 19.5723L20.833 18.2823C21.1042 17.7345 21.1654 17.1063 21.0051 16.5164C20.8449 15.9264 20.4742 15.4156 19.963 15.0803C19.8994 14.8662 19.8164 14.6584 19.715 14.4593L23.138 12.5573C23.494 12.8873 23.995 13.0223 24.473 12.9173C24.6592 12.8771 24.8356 12.8004 24.9918 12.6914C25.1481 12.5825 25.2812 12.4437 25.3833 12.2829C25.4855 12.1221 25.5547 11.9427 25.5869 11.7549C25.6191 11.5672 25.6137 11.3749 25.571 11.1893C25.393 10.4133 24.601 9.93832 23.811 10.1123C23.6248 10.1524 23.4485 10.2291 23.2922 10.3379C23.1359 10.4467 23.0027 10.5854 22.9005 10.7461C22.7983 10.9067 22.7289 11.0861 22.6966 11.2738C22.6642 11.4615 22.6695 11.6537 22.712 11.8393L19.25 13.7703C18.578 12.9843 16.441 12.4603 16.441 12.4603V8.18132C16.6548 8.11986 16.85 8.00614 17.0088 7.85041C17.1677 7.69468 17.2853 7.50186 17.351 7.28932C17.4025 7.11994 17.4198 6.94199 17.4018 6.76586C17.3839 6.58973 17.331 6.41894 17.2462 6.26348C17.1615 6.10801 17.0467 5.97098 16.9084 5.86038C16.7702 5.74978 16.6113 5.66784 16.441 5.61932C15.719 5.40632 14.957 5.79432 14.739 6.50332C14.6876 6.67264 14.6705 6.85049 14.6885 7.02651C14.7066 7.20253 14.7595 7.37319 14.8442 7.52854C14.9289 7.68389 15.0437 7.82082 15.1819 7.93135C15.3201 8.04188 15.4789 8.1238 15.649 8.17232V12.5383C15.649 12.5383 14.483 12.9163 14.028 13.2843C13.5447 13.2954 13.0706 13.4187 12.643 13.6443L9.38801 11.8103C9.44286 11.5812 9.43899 11.3419 9.37676 11.1147C9.31453 10.8874 9.19595 10.6795 9.03201 10.5103C8.76694 10.2308 8.40245 10.067 8.01747 10.0543C7.63248 10.0415 7.25797 10.181 6.97501 10.4423C6.83489 10.5694 6.72168 10.7234 6.64208 10.895C6.56248 11.0666 6.5181 11.2525 6.51158 11.4415C6.50505 11.6306 6.53651 11.8191 6.60408 11.9958C6.67166 12.1725 6.77399 12.3338 6.90501 12.4703C7.17026 12.7499 7.53491 12.9137 7.92006 12.9265C8.30522 12.9392 8.67989 12.7998 8.96301 12.5383L11.901 14.1873C11.3857 14.6885 11.0681 15.3585 11.0064 16.0747C10.9447 16.7909 11.143 17.5054 11.565 18.0873L8.98301 19.5523C8.80405 19.3892 8.58804 19.2722 8.35369 19.2114C8.11933 19.1506 7.87369 19.1478 7.63801 19.2033C7.45191 19.2448 7.2759 19.3228 7.12019 19.4329C6.96448 19.5429 6.83218 19.6828 6.73097 19.8444C6.62975 20.006 6.56164 20.1861 6.53058 20.3742C6.49951 20.5623 6.50612 20.7548 6.55001 20.9403C6.73901 21.7143 7.53101 22.1913 8.32001 22.0063C8.50601 21.9648 8.68192 21.8868 8.83755 21.7768C8.99318 21.6668 9.12543 21.5271 9.22663 21.3656C9.32784 21.2041 9.39598 21.0241 9.42712 20.8361C9.45825 20.6481 9.45176 20.4558 9.40801 20.2703L12.168 18.7083C12.878 19.2713 13.805 19.4953 14.7 19.3193C14.976 19.4453 15.26 19.5523 15.55 19.6393V23.7153C15.3539 23.7761 15.1717 23.8751 15.014 24.0065C14.8563 24.138 14.7261 24.2994 14.631 24.4813C14.5411 24.6582 14.4875 24.8513 14.4732 25.0493C14.4589 25.2472 14.4844 25.446 14.548 25.634C14.6116 25.822 14.7121 25.9954 14.8437 26.144C14.9752 26.2925 15.1351 26.4134 15.314 26.4993C15.374 26.5293 15.433 26.5573 15.502 26.5773C15.512 26.5773 15.522 26.5873 15.532 26.5873C16.342 26.8293 17.204 26.3923 17.451 25.5973C17.5101 25.4074 17.5308 25.2076 17.5119 25.0096C17.493 24.8116 17.4348 24.6194 17.3408 24.4441C17.2468 24.2688 17.1188 24.114 16.9643 23.9887C16.8098 23.8634 16.6319 23.7701 16.441 23.7143V19.7183C16.441 19.7183 17.183 19.6503 17.529 19.5433C18.494 19.9233 19.598 19.6983 20.329 18.9713L22.643 20.3013C22.5719 20.6005 22.6001 20.9147 22.7233 21.1965C22.8465 21.4783 23.0581 21.7123 23.326 21.8633C23.6607 22.0539 24.0564 22.1068 24.4294 22.0106C24.8023 21.9145 25.1232 21.677 25.324 21.3483V21.3473ZM7.98401 19.9893C8.20401 19.9903 8.40601 20.1043 8.51801 20.2893C8.56849 20.3821 8.5956 20.4857 8.59701 20.5913C8.59517 20.7522 8.52961 20.9058 8.4147 21.0185C8.2998 21.1311 8.14492 21.1937 7.98401 21.1923C7.82293 21.1939 7.6678 21.1315 7.55268 21.0188C7.43756 20.9062 7.37186 20.7524 7.37001 20.5913C7.37001 20.2583 7.64501 19.9893 7.98401 19.9893ZM16.649 6.90132C16.6464 7.06215 16.5804 7.21545 16.4655 7.32797C16.3505 7.44048 16.1959 7.50313 16.035 7.50232C15.8741 7.50365 15.7192 7.44115 15.6043 7.32849C15.4894 7.21584 15.4239 7.06223 15.422 6.90132C15.422 6.56832 15.697 6.29932 16.035 6.29932C16.375 6.29932 16.649 6.56932 16.649 6.90132ZM24.127 12.1213C23.9664 12.1211 23.8123 12.0579 23.6977 11.9454C23.5831 11.8329 23.5172 11.6799 23.514 11.5193C23.514 11.1873 23.789 10.9173 24.127 10.9173C24.467 10.9173 24.741 11.1873 24.741 11.5193C24.7392 11.6804 24.6735 11.8342 24.5583 11.9468C24.4432 12.0595 24.2881 12.1219 24.127 12.1203V12.1213ZM8.27001 10.9653C8.33953 11.0028 8.40078 11.0539 8.4501 11.1156C8.49942 11.1773 8.53581 11.2483 8.55709 11.3244C8.57837 11.4005 8.58411 11.48 8.57396 11.5584C8.56381 11.6367 8.53798 11.7122 8.49801 11.7803C8.41709 11.9198 8.28424 12.0215 8.12853 12.0633C7.97281 12.1051 7.80688 12.0835 7.66701 12.0033C7.59729 11.966 7.53584 11.915 7.48636 11.8533C7.43688 11.7917 7.40039 11.7206 7.37908 11.6445C7.35778 11.5683 7.35211 11.4887 7.36241 11.4103C7.37271 11.3319 7.39877 11.2564 7.43901 11.1883C7.51994 11.0489 7.65278 10.9471 7.8085 10.9054C7.96422 10.8636 8.13015 10.8851 8.27001 10.9653ZM24.374 20.1053C24.4434 20.1428 24.5045 20.1939 24.5538 20.2555C24.603 20.3171 24.6393 20.388 24.6606 20.464C24.6819 20.5399 24.6876 20.6194 24.6776 20.6976C24.6675 20.7758 24.6418 20.8512 24.602 20.9193C24.5453 21.0104 24.4665 21.0857 24.373 21.1383C24.2795 21.1909 24.1743 21.2191 24.067 21.2203C23.9591 21.2221 23.8526 21.1956 23.7582 21.1433C23.6637 21.091 23.5847 21.0148 23.529 20.9223C23.4742 20.8306 23.4453 20.7257 23.4453 20.6188C23.4453 20.512 23.4742 20.4071 23.529 20.3153C23.5847 20.2229 23.6637 20.1467 23.7582 20.0944C23.8526 20.0421 23.9591 20.0155 24.067 20.0173C24.1749 20.0208 24.2803 20.0506 24.374 20.1043V20.1053ZM15.422 25.1203C15.423 25.1127 15.4265 25.1057 15.432 25.1003C15.459 24.9431 15.5467 24.8029 15.6761 24.7097C15.8055 24.6166 15.9664 24.578 16.124 24.6023C16.2817 24.6235 16.4245 24.7063 16.521 24.8327C16.6176 24.9591 16.66 25.1187 16.639 25.2763C16.6094 25.4221 16.53 25.553 16.4146 25.6467C16.2991 25.7405 16.1547 25.7912 16.006 25.7903C15.923 25.7868 15.8415 25.7663 15.7666 25.7303C15.6916 25.6942 15.6248 25.6433 15.5702 25.5807C15.5156 25.518 15.4743 25.4449 15.4488 25.3657C15.4233 25.2866 15.4142 25.2031 15.422 25.1203ZM18.944 15.8353C19.2381 15.9258 19.4952 16.1087 19.677 16.357C19.8588 16.6053 19.9556 16.9056 19.953 17.2133C19.953 17.2623 19.943 17.3113 19.943 17.3593C19.933 17.3983 19.933 17.4373 19.923 17.4753V17.5053C19.903 17.5923 19.883 17.6793 19.843 17.7663C19.7333 18.0338 19.5437 18.2608 19.3 18.4163C19.24 18.4463 19.19 18.4753 19.132 18.5043L19.102 18.5143C18.9861 18.5681 18.8627 18.6042 18.736 18.6213L18.686 18.6303C18.617 18.6303 18.558 18.6403 18.489 18.6403C18.166 18.6403 17.853 18.5343 17.599 18.3393L17.331 18.4553C17.249 18.4953 17.163 18.5243 17.074 18.5433H17.064C16.4519 18.7072 15.801 18.6414 15.234 18.3583H15.224C15.165 18.3293 15.106 18.3003 15.056 18.2713L15.036 18.2613C14.977 18.2233 14.928 18.1843 14.868 18.1453C14.6282 18.2504 14.3688 18.3033 14.107 18.3003C14.027 18.3003 13.958 18.3003 13.889 18.2903L13.849 18.2803L13.671 18.2523L13.651 18.2423C13.5876 18.2305 13.5251 18.2141 13.464 18.1933C13.3045 18.1404 13.1518 18.0689 13.009 17.9803C12.7111 17.796 12.4763 17.5253 12.336 17.2043C12.336 17.1843 12.326 17.1743 12.316 17.1553C12.3044 17.1223 12.291 17.0899 12.276 17.0583C12.2642 17.0365 12.2542 17.0137 12.246 16.9903C12.236 16.9613 12.217 16.9323 12.217 16.9033C12.2151 16.8734 12.2083 16.8441 12.197 16.8163C12.187 16.7863 12.187 16.7763 12.177 16.7383C12.167 16.6993 12.167 16.6613 12.158 16.6223C12.158 16.5923 12.148 16.5733 12.148 16.5543C12.1397 16.493 12.1364 16.4312 12.138 16.3693C12.1369 16.2949 12.1402 16.2204 12.148 16.1463C12.148 16.1173 12.158 16.0983 12.158 16.0783C12.168 16.0203 12.178 15.9723 12.188 15.9233C12.198 15.9033 12.198 15.8753 12.208 15.8553C12.2198 15.8023 12.2362 15.7505 12.257 15.7003C12.267 15.6803 12.267 15.6713 12.277 15.6523C12.2988 15.592 12.3252 15.5335 12.356 15.4773L12.366 15.4573C12.5284 15.1596 12.7647 14.9087 13.052 14.7287C13.3394 14.5486 13.6683 14.4455 14.007 14.4293C14.037 14.4193 14.067 14.4193 14.107 14.4193C14.226 14.4193 14.345 14.4293 14.463 14.4493C14.513 14.3893 14.562 14.3413 14.621 14.2833L14.671 14.2353C14.73 14.1863 14.779 14.1383 14.839 14.0993L14.869 14.0793C14.908 14.0503 14.977 14.0023 15.007 13.9823C15.037 13.9633 15.086 13.9243 15.116 13.9143C15.1508 13.9023 15.184 13.8862 15.215 13.8663C15.274 13.8363 15.373 13.7883 15.432 13.7693L15.482 13.7303C15.8782 13.5764 16.3071 13.5265 16.728 13.5853H16.738C16.818 13.5933 16.897 13.6053 16.975 13.6233H16.985C17.065 13.6333 17.134 13.6633 17.213 13.6823L17.223 13.6923C17.302 13.7203 17.371 13.7493 17.44 13.7793L17.46 13.7893C17.528 13.8173 17.594 13.8493 17.658 13.8853L17.668 13.8953C17.727 13.9253 17.796 13.9733 17.856 14.0113L17.866 14.0213C17.935 14.0603 17.994 14.1083 18.053 14.1573L18.063 14.1673C18.3938 14.4453 18.649 14.8024 18.805 15.2053V15.2153C18.825 15.2733 18.845 15.3413 18.865 15.3993C18.865 15.4193 18.875 15.4383 18.875 15.4573C18.891 15.5073 18.905 15.5603 18.914 15.6123L18.944 15.8353Z" fill="white"/>
</g>
<defs>
<clipPath id="clip0_1_5346">
<rect width="32" height="32" fill="white" transform="translate(0 0.0283203)"/>
</clipPath>
</defs>
</svg>
