<svg width="32" height="33" viewBox="0 0 32 33" fill="none" xmlns="http://www.w3.org/2000/svg">
<g clip-path="url(#clip0_1_5338)">
<path d="M16 32.0283C24.8366 32.0283 32 24.8649 32 16.0283C32 7.19176 24.8366 0.0283203 16 0.0283203C7.16344 0.0283203 0 7.19176 0 16.0283C0 24.8649 7.16344 32.0283 16 32.0283Z" fill="#2DC4E7"/>
<path d="M5.04041 9.05424C6.11141 9.05424 7.21841 8.98224 8.29041 9.07824C8.76641 9.61324 8.87341 10.3632 9.24241 10.9822C14.0524 11.0062 18.8854 10.9822 23.6954 10.9822C24.0524 11.0062 24.4924 11.0182 24.6714 11.3752C24.8854 11.7682 24.7314 12.2322 24.5284 12.5892C23.5524 14.2442 22.6234 15.9232 21.6714 17.5892C21.3144 18.1852 21.0754 18.8512 20.5404 19.3162C20.1004 19.6852 19.4924 19.7082 18.9334 19.7082H12.2654C11.9084 19.7082 11.5274 19.6732 11.3134 19.3872C10.6234 18.6132 10.2534 17.6252 9.80141 16.7202C9.01865 15.1531 8.25261 13.5777 7.50341 11.9942C7.34841 11.6372 7.15841 11.3162 6.97941 10.9822C6.34941 10.9822 5.71741 10.9822 5.09941 10.9582C4.97941 10.3282 4.97941 9.68524 5.03941 9.05424H5.04041ZM12.5524 20.9942C13.0368 20.8791 13.5405 20.871 14.0284 20.9702C14.5754 21.0902 15.0524 21.5062 15.1834 22.0542C15.3254 22.6842 15.3254 23.3642 15.0754 23.9702C14.8374 24.5182 14.2424 24.7802 13.6834 24.8282C13.0404 24.8752 12.3024 24.8282 11.8254 24.3512C11.3144 23.7802 11.3144 22.9472 11.4214 22.2322C11.4924 21.6372 11.9684 21.1252 12.5514 20.9942H12.5524ZM18.5044 20.9942C19.0994 20.8642 19.7424 20.8752 20.3144 21.0892C20.8614 21.3162 21.1474 21.9112 21.1944 22.4702C21.2664 23.1252 21.1944 23.8752 20.7184 24.3752C20.2784 24.7922 19.6354 24.8512 19.0524 24.8392C18.4804 24.8162 17.8624 24.6012 17.5644 24.0662C17.2804 23.486 17.2045 22.8258 17.3494 22.1962C17.4694 21.6132 17.9214 21.1262 18.5044 20.9942Z" fill="white"/>
</g>
<defs>
<clipPath id="clip0_1_5338">
<rect width="32" height="32" fill="white" transform="translate(0 0.0283203)"/>
</clipPath>
</defs>
</svg>
