<svg width="32" height="33" viewBox="0 0 32 33" fill="none" xmlns="http://www.w3.org/2000/svg">
<g clip-path="url(#clip0_1_5334)">
<path d="M16 32.0283C24.8366 32.0283 32 24.8649 32 16.0283C32 7.19176 24.8366 0.0283203 16 0.0283203C7.16344 0.0283203 0 7.19176 0 16.0283C0 24.8649 7.16344 32.0283 16 32.0283Z" fill="#1387C9"/>
<path d="M16.053 18.4013L25.647 12.8173L16.053 7.13332L6.55501 12.8173L16.053 18.4013ZM6.04701 15.4813C6.04681 15.6141 6.08142 15.7447 6.1474 15.86C6.21337 15.9752 6.3084 16.0712 6.42301 16.1383L16.05 21.7463L25.835 15.9583C25.9474 15.8933 26.0749 15.8591 26.2047 15.859C26.3345 15.859 26.462 15.8931 26.5744 15.958C26.6868 16.0228 26.7802 16.1162 26.845 16.2286C26.9099 16.341 26.9441 16.4685 26.944 16.5983V19.2243C26.944 19.3526 26.9107 19.4787 26.8474 19.5904C26.7842 19.702 26.6931 19.7954 26.583 19.8613L16.426 25.9243C16.3134 25.9917 16.1847 26.0275 16.0534 26.028C15.9222 26.0285 15.7932 25.9937 15.68 25.9273L5.26001 19.8013C5.13994 19.7302 5.05275 19.6146 5.01736 19.4797C4.98198 19.3447 5.00126 19.2012 5.07101 19.0803C5.10528 19.0206 5.15106 18.9682 5.20571 18.9262C5.26035 18.8843 5.32277 18.8536 5.38936 18.8359C5.45595 18.8182 5.52538 18.8139 5.59364 18.8233C5.6619 18.8326 5.72762 18.8554 5.78701 18.8903L16.05 24.9233L25.897 19.0453V17.1453L16.424 22.7483C16.3118 22.8149 16.1839 22.8503 16.0534 22.8508C15.923 22.8513 15.7947 22.817 15.682 22.7513L5.89901 17.0513C5.62495 16.8911 5.3977 16.6618 5.23995 16.3863C5.0822 16.1108 4.99947 15.7988 5.00001 15.4813V13.0083C4.99969 12.8974 5.02864 12.7883 5.08394 12.6921C5.13924 12.5958 5.21893 12.5159 5.31497 12.4603C5.41102 12.4048 5.52002 12.3755 5.63099 12.3755C5.74196 12.3755 5.85096 12.4048 5.94701 12.4603L6.55501 12.8173L5.79101 13.2743C5.71795 13.3185 5.63515 13.344 5.5499 13.3487C5.46466 13.3533 5.37957 13.3369 5.30214 13.301C5.2247 13.265 5.15729 13.2106 5.10583 13.1425C5.05437 13.0744 5.02043 12.9946 5.00701 12.9103C4.98929 12.8053 5.00367 12.6974 5.04827 12.6007C5.09288 12.504 5.16563 12.423 5.25701 12.3683L15.676 6.13232C15.7892 6.06438 15.9187 6.02832 16.0507 6.02797C16.1828 6.02762 16.3124 6.06299 16.426 6.13032L26.637 12.1803C26.7481 12.2466 26.84 12.3406 26.9036 12.4532C26.9673 12.5657 27.0005 12.6929 27 12.8222C26.9995 12.9516 26.9653 13.0785 26.9007 13.1906C26.8362 13.3026 26.7436 13.396 26.632 13.4613L16.42 19.4053C16.3077 19.4709 16.1799 19.5054 16.0499 19.5052C15.9198 19.505 15.7921 19.4702 15.68 19.4043L5.42001 13.3713C5.47427 13.4032 5.53507 13.4224 5.59782 13.4273C5.66056 13.4322 5.72361 13.4228 5.78219 13.3998C5.84077 13.3768 5.89334 13.3407 5.93593 13.2944C5.97852 13.2481 6.01001 13.1926 6.02801 13.1323C6.04081 13.0922 6.04756 13.0504 6.04801 13.0083V15.4823L6.04701 15.4813Z" fill="white"/>
</g>
<defs>
<clipPath id="clip0_1_5334">
<rect width="32" height="32" fill="white" transform="translate(0 0.0283203)"/>
</clipPath>
</defs>
</svg>
