<svg width="32" height="32" viewBox="0 0 32 32" fill="none" xmlns="http://www.w3.org/2000/svg">
<g clip-path="url(#clip0_102_612)">
<path d="M16 32C24.8667 32 32 24.8667 32 16C32 7.13328 24.8667 0 16 0C7.13328 0 0 7.13328 0 16C0 24.8667 7.13328 32 16 32Z" fill="#5347F5"/>
<path d="M18.6606 13.8025L23.4312 7H21.4129L15.9694 14.7407L10.526 7H8.50764L13.2783 13.8025H6V15.4444H15.4801H16.4587H26V13.8025H18.6606Z" fill="white"/>
<path d="M15.4801 17.6727H6V19.2561H13.3394L8.75229 25.9999H10.7706L15.9694 18.3178L21.3517 25.9999H23.37L18.6606 19.2561H26V17.6727H16.4587H15.4801Z" fill="white"/>
</g>
<defs>
<clipPath id="clip0_102_612">
<rect width="32" height="32" fill="white"/>
</clipPath>
</defs>
</svg>
