<svg width="32" height="33" viewBox="0 0 32 33" fill="none" xmlns="http://www.w3.org/2000/svg">
<g clip-path="url(#clip0_1_5330)">
<path d="M16 32.0283C24.8366 32.0283 32 24.8649 32 16.0283C32 7.19176 24.8366 0.0283203 16 0.0283203C7.16344 0.0283203 0 7.19176 0 16.0283C0 24.8649 7.16344 32.0283 16 32.0283Z" fill="#7324F0"/>
<path d="M27.675 13.4903V13.0283C26.9174 13.0298 26.1883 13.3175 25.6339 13.8338C25.0794 14.35 24.7405 15.0568 24.685 15.8123C24.6315 15.0578 24.2945 14.3514 23.7418 13.835C23.189 13.3187 22.4614 13.0305 21.705 13.0283V13.4903C22.3781 13.4903 23.0237 13.7577 23.4996 14.2337C23.9756 14.7097 24.243 15.3552 24.243 16.0283C24.2439 16.3619 24.1789 16.6923 24.0517 17.0007C23.9245 17.309 23.7376 17.5892 23.5017 17.825C23.2658 18.0609 22.9857 18.2478 22.6773 18.375C22.369 18.5022 22.0386 18.5672 21.705 18.5663V19.0283C22.4626 19.0268 23.1917 18.7391 23.7461 18.2229C24.3006 17.7066 24.6395 16.9999 24.695 16.2443C24.7489 17.0005 25.0873 17.7081 25.6421 18.2247C26.1969 18.7413 26.9269 19.0285 27.685 19.0283V18.5663C27.0121 18.5661 26.3668 18.2985 25.891 17.8226C25.4153 17.3467 25.148 16.7013 25.148 16.0283C25.1469 15.6957 25.2115 15.366 25.338 15.0584C25.4645 14.7507 25.6504 14.471 25.8851 14.2352C26.1198 13.9995 26.3988 13.8124 26.7059 13.6845C27.013 13.5567 27.3423 13.4907 27.675 13.4903ZM11.643 19.0283V18.6843L11.633 16.0283H11.19V19.0283H11.643ZM17.643 13.0283C15.99 13.0283 14.643 14.3763 14.643 16.0283C14.643 17.6803 15.99 19.0283 17.643 19.0283C18.4386 19.0283 19.2017 18.7123 19.7643 18.1496C20.3269 17.587 20.643 16.824 20.643 16.0283C20.643 15.2327 20.3269 14.4696 19.7643 13.907C19.2017 13.3444 18.4386 13.0283 17.643 13.0283ZM17.643 18.5663C17.3055 18.573 16.9701 18.5123 16.6564 18.3878C16.3427 18.2633 16.0569 18.0775 15.8159 17.8412C15.5749 17.6049 15.3834 17.3229 15.2527 17.0117C15.122 16.7005 15.0546 16.3664 15.0546 16.0288C15.0546 15.6913 15.122 15.3571 15.2527 15.0459C15.3834 14.7347 15.5749 14.4528 15.8159 14.2165C16.0569 13.9802 16.3427 13.7943 16.6564 13.6698C16.9701 13.5453 17.3055 13.4846 17.643 13.4913C18.3158 13.4916 18.9609 13.759 19.4366 14.2347C19.9124 14.7104 20.1797 15.3555 20.18 16.0283C20.1809 16.3618 20.1159 16.6922 19.9888 17.0004C19.8616 17.3087 19.6748 17.5888 19.439 17.8247C19.2033 18.0605 18.9233 18.2474 18.615 18.3747C18.3068 18.502 17.9765 18.5671 17.643 18.5663ZM9.538 13.0283C7.885 13.0283 6.538 14.3763 6.538 16.0283C6.53642 16.701 6.26851 17.3456 5.79289 17.8212C5.31726 18.2968 4.67263 18.5647 4 18.5663V19.0283C5.652 19.0283 7 17.6803 7 16.0283C7.00158 15.3557 7.26949 14.7111 7.74511 14.2354C8.22074 13.7598 8.86537 13.4919 9.538 13.4903H13.393V13.0283H9.538Z" fill="white"/>
</g>
<defs>
<clipPath id="clip0_1_5330">
<rect width="32" height="32" fill="white" transform="translate(0 0.0283203)"/>
</clipPath>
</defs>
</svg>
