<svg width="32" height="33" viewBox="0 0 32 33" fill="none" xmlns="http://www.w3.org/2000/svg">
<g clip-path="url(#clip0_1_5326)">
<path d="M16.0005 32.0283C24.837 32.0283 32.0005 24.8649 32.0005 16.0283C32.0005 7.19176 24.837 0.0283203 16.0005 0.0283203C7.16393 0.0283203 0.000488281 7.19176 0.000488281 16.0283C0.000488281 24.8649 7.16393 32.0283 16.0005 32.0283Z" fill="#E53431"/>
<path d="M12.2664 5.08009C12.3094 5.04696 12.3622 5.02934 12.4165 5.03009C12.4705 5.03009 12.5232 5.04763 12.5664 5.08009L13.8234 6.02209C13.8497 6.04185 13.8718 6.0666 13.8885 6.09491C13.9052 6.12322 13.9162 6.15454 13.9208 6.18709C13.9254 6.21964 13.9235 6.25277 13.9153 6.2846C13.9071 6.31643 13.8927 6.34633 13.873 6.37259C13.8532 6.39885 13.8284 6.42097 13.8001 6.43767C13.7718 6.45437 13.7405 6.46533 13.708 6.46993C13.6754 6.47453 13.6423 6.47267 13.6104 6.46446C13.5786 6.45625 13.5487 6.44185 13.5224 6.42209L12.4165 5.59509L8.81945 8.29209L24.6194 20.1461C24.6507 20.1696 24.6761 20.2 24.6936 20.235C24.711 20.2699 24.7201 20.3085 24.7201 20.3476C24.7201 20.3867 24.711 20.4252 24.6936 20.4602C24.6761 20.4952 24.6507 20.5256 24.6194 20.5491L23.4585 21.4191C23.4051 21.4589 23.3382 21.4758 23.2724 21.4663C23.2066 21.4567 23.1472 21.4214 23.1075 21.3681C23.0677 21.3148 23.0507 21.2479 23.0603 21.182C23.0698 21.1162 23.1051 21.0569 23.1585 21.0171L24.0515 20.3471L8.25045 8.49509C8.21903 8.47206 8.19349 8.44195 8.17588 8.4072C8.15827 8.37245 8.14909 8.33404 8.14909 8.29509C8.14909 8.25614 8.15827 8.21773 8.17588 8.18298C8.19349 8.14823 8.21903 8.11812 8.25045 8.09509L12.2664 5.08109V5.08009ZM16.2835 5.08009C16.3263 5.04688 16.3789 5.02869 16.4331 5.02833C16.4873 5.02796 16.5402 5.04545 16.5835 5.07809L24.6185 11.1051C24.6607 11.1363 24.6918 11.1802 24.7073 11.2305C24.7228 11.2807 24.7218 11.3345 24.7045 11.3841C24.6882 11.4341 24.6565 11.4777 24.6139 11.5086C24.5713 11.5395 24.5201 11.5561 24.4675 11.5561H20.4505C20.3964 11.5557 20.3439 11.5382 20.3004 11.5061L15.0275 7.55209C15.0011 7.53233 14.9788 7.50756 14.962 7.4792C14.9452 7.45084 14.9341 7.41944 14.9294 7.3868C14.9247 7.35416 14.9265 7.32092 14.9347 7.28897C14.9428 7.25702 14.9572 7.22699 14.977 7.20059C14.9967 7.17419 15.0215 7.15195 15.0498 7.13513C15.0782 7.1183 15.1096 7.10723 15.1422 7.10254C15.1749 7.09785 15.2081 7.09964 15.2401 7.1078C15.272 7.11595 15.3021 7.13033 15.3284 7.15009L20.5354 11.0541H23.7145L16.4345 5.59409L11.3944 9.37409C11.3681 9.39385 11.338 9.40823 11.3061 9.41638C11.2741 9.42454 11.2409 9.42633 11.2082 9.42164C11.1423 9.41217 11.0829 9.3769 11.043 9.32359C11.003 9.27028 10.9859 9.2033 10.9954 9.13738C11.0049 9.07146 11.0401 9.01201 11.0935 8.97209L16.2835 5.08009ZM9.35945 10.2751C9.41302 10.2427 9.47671 10.2315 9.53813 10.2435C9.59955 10.2555 9.6543 10.2899 9.69173 10.3401C9.72916 10.3902 9.74659 10.4525 9.74062 10.5148C9.73466 10.5771 9.70572 10.635 9.65945 10.6771L8.81845 11.3071L24.6194 23.1611C24.6509 23.1843 24.6764 23.2146 24.694 23.2495C24.7116 23.2844 24.7208 23.323 24.7208 23.3621C24.7208 23.4012 24.7116 23.4397 24.694 23.4746C24.6764 23.5096 24.6509 23.5398 24.6194 23.5631L20.6024 26.5761C20.559 26.6081 20.5064 26.6254 20.4524 26.6254C20.3985 26.6254 20.3459 26.6081 20.3025 26.5761L19.1395 25.7041C19.0861 25.6639 19.051 25.6042 19.0417 25.5381C19.0324 25.472 19.0498 25.4049 19.09 25.3516C19.1301 25.2983 19.1898 25.2631 19.2559 25.2538C19.3221 25.2446 19.3891 25.2619 19.4424 25.3021L20.4524 26.0591L24.0525 23.3591L8.24745 11.5081C8.21656 11.4845 8.19152 11.4541 8.17429 11.4192C8.15706 11.3843 8.1481 11.346 8.1481 11.3071C8.1481 11.2682 8.15706 11.2298 8.17429 11.195C8.19152 11.1601 8.21656 11.1297 8.24745 11.1061L9.35745 10.2761L9.35945 10.2751ZM8.40045 20.0941V20.0961H12.4154C12.4697 20.0953 12.5225 20.113 12.5655 20.1461L17.7815 24.0571C17.8078 24.0768 17.8301 24.1015 17.847 24.1298C17.8638 24.1581 17.8749 24.1894 17.8796 24.222C17.8844 24.2546 17.8826 24.2878 17.8746 24.3198C17.8665 24.3517 17.8521 24.3817 17.8325 24.4081C17.8128 24.4345 17.788 24.4567 17.7597 24.4736C17.7314 24.4904 17.7001 24.5015 17.6675 24.5063C17.6349 24.511 17.6017 24.5093 17.5698 24.5012C17.5379 24.4931 17.5078 24.4788 17.4815 24.4591L12.3354 20.5981H9.15445L16.4354 26.0581L21.4655 22.2861C21.4918 22.2663 21.5219 22.2518 21.5539 22.2436C21.5858 22.2354 21.6191 22.2335 21.6518 22.2382C21.6845 22.2428 21.7159 22.2539 21.7444 22.2707C21.7728 22.2875 21.7976 22.3097 21.8174 22.3361C21.8373 22.3625 21.8517 22.3925 21.8599 22.4245C21.8682 22.4565 21.87 22.4898 21.8654 22.5224C21.8607 22.5551 21.8497 22.5866 21.8329 22.615C21.8161 22.6434 21.7938 22.6683 21.7675 22.6881L16.5865 26.5721C16.5432 26.6045 16.4905 26.6221 16.4365 26.6221C16.382 26.6226 16.3289 26.605 16.2854 26.5721L8.24845 20.5471C8.2089 20.5466 8.17002 20.5368 8.13498 20.5184C8.09994 20.5001 8.06974 20.4737 8.04684 20.4414C8.02393 20.4092 8.00898 20.372 8.00319 20.3328C7.9974 20.2937 8.00094 20.2538 8.01353 20.2163C8.02611 20.1788 8.04738 20.1448 8.0756 20.117C8.10382 20.0893 8.13819 20.0687 8.17591 20.0568C8.21363 20.0448 8.25364 20.042 8.29266 20.0485C8.33168 20.055 8.36861 20.0706 8.40045 20.0941Z" fill="white"/>
</g>
<defs>
<clipPath id="clip0_1_5326">
<rect width="32" height="32" fill="white" transform="translate(0.000488281 0.0283203)"/>
</clipPath>
</defs>
</svg>
