<svg width="32" height="33" viewBox="0 0 32 33" fill="none" xmlns="http://www.w3.org/2000/svg">
<g clip-path="url(#clip0_1_5322)">
<path d="M16.0005 32.0283C24.837 32.0283 32.0005 24.8649 32.0005 16.0283C32.0005 7.19176 24.837 0.0283203 16.0005 0.0283203C7.16393 0.0283203 0.000488281 7.19176 0.000488281 16.0283C0.000488281 24.8649 7.16393 32.0283 16.0005 32.0283Z" fill="#2D9CDB"/>
<path d="M18.0615 9.11232C21.4655 12.6783 22.3295 13.3083 23.1565 13.5353C20.2815 13.1753 18.6595 12.9713 15.9505 11.5493L14.2405 13.5393L25.0005 15.9283C21.6345 18.7903 20.1765 20.3153 18.0615 22.9423H13.9905C12.2015 20.3243 11.0085 19.4743 8.71049 18.4153C11.7685 18.6973 13.4685 18.8853 15.9505 20.3553L17.8115 18.2653L7.00049 15.9283C9.51449 13.8563 10.9775 12.4743 13.9895 9.11232H18.0615ZM14.2405 8.61532C15.1705 7.47032 15.5505 6.91332 16.0505 6.02832C16.5405 6.94032 16.9195 7.50332 17.8105 8.61532H14.2405ZM17.8105 23.4413C16.8795 24.5863 16.4985 25.1433 16.0005 26.0283C15.5105 25.1163 15.1305 24.5533 14.2405 23.4413H17.8105Z" fill="white"/>
</g>
<defs>
<clipPath id="clip0_1_5322">
<rect width="32" height="32" fill="white" transform="translate(0.000488281 0.0283203)"/>
</clipPath>
</defs>
</svg>
