<svg width="32" height="33" viewBox="0 0 32 33" fill="none" xmlns="http://www.w3.org/2000/svg">
<g clip-path="url(#clip0_1_5318)">
<path d="M16.0005 32.0283C24.837 32.0283 32.0005 24.8649 32.0005 16.0283C32.0005 7.19176 24.837 0.0283203 16.0005 0.0283203C7.16393 0.0283203 0.000488281 7.19176 0.000488281 16.0283C0.000488281 24.8649 7.16393 32.0283 16.0005 32.0283Z" fill="#0082C6"/>
<path d="M18.0465 15.1313C18.0256 15.1271 18.0039 15.1287 17.9838 15.1359C17.9637 15.1431 17.9459 15.1557 17.9325 15.1723C17.9233 15.1839 17.9166 15.1972 17.9127 15.2115C17.9089 15.2258 17.908 15.2407 17.9102 15.2553C17.9123 15.2699 17.9175 15.2839 17.9253 15.2965C17.933 15.3091 17.9433 15.3199 17.9555 15.3283C22.3345 18.5063 16.1015 25.7823 4.00049 18.0393C14.2605 27.6943 28.5475 17.0293 18.0465 15.1313ZM12.2025 10.8833C3.11649 13.7903 13.5255 20.6463 14.4285 17.1833C14.4325 17.1688 14.4335 17.1537 14.4315 17.1389C14.4294 17.124 14.4244 17.1097 14.4166 17.0969C14.4088 17.084 14.3985 17.0729 14.3863 17.0642C14.374 17.0555 14.3602 17.0494 14.3455 17.0463C14.3245 17.0408 14.3023 17.0412 14.2815 17.0473C12.9445 17.4823 5.58049 15.4233 12.2015 10.8833H12.2025ZM28.0005 12.6303C20.1335 7.02031 5.37249 11.6463 12.9875 15.6073C13.0147 15.6211 13.0462 15.6239 13.0754 15.6151C13.1046 15.6064 13.1293 15.5868 13.1445 15.5603C13.1525 15.5453 13.157 15.5287 13.1575 15.5117C13.158 15.4947 13.1546 15.4778 13.1475 15.4623C10.0505 8.91831 25.7815 10.9083 28.0005 12.6303ZM21.4725 20.7813C25.6315 18.8913 22.2495 12.4203 16.7485 13.6693C16.7189 13.676 16.688 13.6708 16.6622 13.6549C16.6364 13.639 16.6178 13.6137 16.6105 13.5843C16.6058 13.5641 16.607 13.5429 16.6141 13.5234C16.6212 13.5038 16.6339 13.4868 16.6505 13.4743C20.9305 10.2583 28.9645 17.7663 21.4725 20.7813Z" fill="white"/>
</g>
<defs>
<clipPath id="clip0_1_5318">
<rect width="32" height="32" fill="white" transform="translate(0.000488281 0.0283203)"/>
</clipPath>
</defs>
</svg>
