<svg width="32" height="33" viewBox="0 0 32 33" fill="none" xmlns="http://www.w3.org/2000/svg">
<g clip-path="url(#clip0_1_5314)">
<path d="M16.0005 32.0283C24.837 32.0283 32.0005 24.8649 32.0005 16.0283C32.0005 7.19176 24.837 0.0283203 16.0005 0.0283203C7.16393 0.0283203 0.000488281 7.19176 0.000488281 16.0283C0.000488281 24.8649 7.16393 32.0283 16.0005 32.0283Z" fill="#002342"/>
<path d="M4.00049 13.0283H5.29849V14.2493H4.00049V13.0283ZM5.29849 17.8023H9.07549V19.0283H4.00049V15.4703H7.81049V16.6903H5.29949V17.8023H5.29849ZM22.9255 15.4703H28.0005V19.0283H24.1905V17.8023H26.7025V16.6913H22.9255V15.4703ZM26.7235 14.3083H22.9235V13.0873H26.7235V14.3073V14.3083ZM10.3125 15.4703H15.3875V17.8543H14.1235V19.0283H10.3125V15.4703ZM14.0895 17.8023V16.6913H11.6105V17.8013H14.0905L14.0895 17.8023ZM10.3125 13.0283H15.3875V14.2493H10.3125V13.0283ZM16.6465 15.4703H21.7215V17.8543H20.4575V19.0283H16.6475V15.4703H16.6465ZM20.4185 17.8023V16.6913H17.9385V17.8013H20.4185V17.8023ZM16.6465 13.0283H21.7215V14.2493H16.6465V13.0283Z" fill="white"/>
</g>
<defs>
<clipPath id="clip0_1_5314">
<rect width="32" height="32" fill="white" transform="translate(0.000488281 0.0283203)"/>
</clipPath>
</defs>
</svg>
