<svg width="32" height="33" viewBox="0 0 32 33" fill="none" xmlns="http://www.w3.org/2000/svg">
<g clip-path="url(#clip0_1_5310)">
<path d="M16.0005 32.0283C24.837 32.0283 32.0005 24.8649 32.0005 16.0283C32.0005 7.19176 24.837 0.0283203 16.0005 0.0283203C7.16393 0.0283203 0.000488281 7.19176 0.000488281 16.0283C0.000488281 24.8649 7.16393 32.0283 16.0005 32.0283Z" fill="#7B346E"/>
<path d="M8.09449 13.7063L10.2045 15.8163H6.00049L8.09449 13.7063ZM10.2045 16.2563L8.09449 18.3503L6.00049 16.2563H10.2045ZM13.0565 13.4033L10.9465 15.4973V11.2943L13.0565 13.4033ZM10.5065 15.4973L8.41349 13.4033L10.5075 11.2933L10.5065 15.4973ZM13.3605 13.0843L11.2665 10.9903H15.4695L13.3605 13.0843ZM13.3605 8.44132L15.4695 10.5503H11.2665L13.3605 8.44132ZM18.3225 8.13732L16.2125 10.2313V6.02832L18.3225 8.13732ZM15.7725 10.2313L13.6785 8.13832L15.7725 6.02832V10.2313ZM13.0565 18.6683L10.9465 20.7623V16.5593L13.0565 18.6683ZM8.41349 18.6683L10.5075 16.5593V20.7623L8.41349 18.6683ZM18.6255 13.0843L16.5315 10.9903H20.7345L18.6255 13.0843ZM16.5315 10.5503L18.6255 8.44032L20.7355 10.5503H16.5315ZM15.4705 21.5213L13.3605 23.6153L11.2675 21.5213H15.4705ZM13.3605 18.9713L15.4705 21.0813H11.2675L13.3605 18.9713ZM23.5885 13.4033L21.4795 15.4973V11.2943L23.5885 13.4033ZM18.9455 13.4033L21.0395 11.2933V15.4973L18.9455 13.4033ZM13.6795 23.9333L15.7735 21.8253V26.0283L13.6795 23.9333ZM16.2135 21.8253L18.3235 23.9343L16.2125 26.0283L16.2135 21.8253ZM18.6265 23.6153L16.5325 21.5213H20.7355L18.6265 23.6153ZM18.6265 18.9723L20.7365 21.0823H16.5305L18.6265 18.9723ZM21.4795 16.5593L23.5895 18.6693L21.4795 20.7623V16.5593ZM18.9455 18.6693L21.0395 16.5593V20.7623L18.9455 18.6693ZM23.8925 18.3493L21.7985 16.2563H26.0005L23.8925 18.3493ZM23.8925 13.7063L26.0005 15.8163H21.7975L23.8925 13.7063Z" fill="white"/>
</g>
<defs>
<clipPath id="clip0_1_5310">
<rect width="32" height="32" fill="white" transform="translate(0.000488281 0.0283203)"/>
</clipPath>
</defs>
</svg>
