<svg width="32" height="33" viewBox="0 0 32 33" fill="none" xmlns="http://www.w3.org/2000/svg">
<g clip-path="url(#clip0_1_5306)">
<path d="M16.0005 32.0283C24.837 32.0283 32.0005 24.8649 32.0005 16.0283C32.0005 7.19176 24.837 0.0283203 16.0005 0.0283203C7.16393 0.0283203 0.000488281 7.19176 0.000488281 16.0283C0.000488281 24.8649 7.16393 32.0283 16.0005 32.0283Z" fill="#5244D4"/>
<path d="M15.7005 27.4283C9.23849 27.4283 4.00049 22.1903 4.00049 15.7283C4.00049 9.26632 9.23849 4.02832 15.7005 4.02832C22.1625 4.02832 27.4005 9.26632 27.4005 15.7283C27.4005 22.1903 22.1625 27.4283 15.7005 27.4283ZM18.5905 19.7283L15.7005 15.7283L12.8105 19.7283L10.4605 15.7283L13.0805 11.2483H18.3205L20.9405 15.7283L18.5905 19.7283ZM19.4505 9.32832H11.9505L8.21049 15.7283L11.9605 22.1283H19.4505L23.1905 15.7283L19.4505 9.32832Z" fill="white"/>
</g>
<defs>
<clipPath id="clip0_1_5306">
<rect width="32" height="32" fill="white" transform="translate(0.000488281 0.0283203)"/>
</clipPath>
</defs>
</svg>
