<svg width="32" height="33" viewBox="0 0 32 33" fill="none" xmlns="http://www.w3.org/2000/svg">
<g clip-path="url(#clip0_1_5302)">
<path d="M16.0005 32.0283C24.837 32.0283 32.0005 24.8649 32.0005 16.0283C32.0005 7.19176 24.837 0.0283203 16.0005 0.0283203C7.16393 0.0283203 0.000488281 7.19176 0.000488281 16.0283C0.000488281 24.8649 7.16393 32.0283 16.0005 32.0283Z" fill="#14C8FF"/>
<path d="M25.0805 11.5063C25.7135 12.0193 26.1125 13.0803 25.9725 13.8593L24.6125 21.3833C24.4705 22.1673 23.7205 23.0303 22.9485 23.3013L15.5295 25.9063C14.7575 26.1773 13.6095 25.9813 12.9775 25.4683L6.91949 20.5513C6.28649 20.0383 5.88649 18.9823 6.02949 18.1983L7.38949 10.6743C7.53049 9.89032 8.28049 9.02832 9.05349 8.75632L16.4735 6.15032C17.2465 5.87832 18.3935 6.07632 19.0265 6.58832L25.0805 11.5063ZM18.7695 14.8843L19.0715 13.3543L16.2395 13.3593L16.6395 11.3433H15.7245C15.0645 12.3548 14.1031 13.1332 12.9765 13.5683L12.7195 14.8873H13.9575C13.9575 14.8873 13.5385 16.7813 13.3975 17.4803C13.0475 19.2603 13.9275 20.5223 15.2795 20.5223H17.5675L17.9675 18.8323H16.0535C15.2035 18.8323 15.2485 18.3673 15.4135 17.5423L15.9405 14.8803L18.7695 14.8843Z" fill="white"/>
</g>
<defs>
<clipPath id="clip0_1_5302">
<rect width="32" height="32" fill="white" transform="translate(0.000488281 0.0283203)"/>
</clipPath>
</defs>
</svg>
