<svg width="32" height="33" viewBox="0 0 32 33" fill="none" xmlns="http://www.w3.org/2000/svg">
<g clip-path="url(#clip0_1_5298)">
<path d="M16.001 32.0283C24.8375 32.0283 32.001 24.8649 32.001 16.0283C32.001 7.19176 24.8375 0.0283203 16.001 0.0283203C7.16442 0.0283203 0.000976562 7.19176 0.000976562 16.0283C0.000976562 24.8649 7.16442 32.0283 16.001 32.0283Z" fill="#0899CD"/>
<path d="M26.971 16.8953C26.784 19.5643 25.719 21.8663 23.776 23.8033C23.286 24.2943 22.773 24.7293 22.236 25.1083C22.2125 25.0727 22.1868 25.0387 22.159 25.0063L26.849 16.8813C26.889 16.8883 26.929 16.8933 26.971 16.8953ZM21.734 25.4433C20.044 26.5003 18.132 27.0283 16.001 27.0283C13.964 27.0283 12.127 26.5453 10.49 25.5803C10.736 25.7253 10.986 25.8583 11.241 25.9803C11.2662 25.939 11.2876 25.8955 11.305 25.8503H20.697C20.7139 25.8955 20.735 25.939 20.76 25.9803C21.093 25.8203 21.417 25.6403 21.734 25.4433ZM9.76598 25.1133C9.21262 24.722 8.69403 24.2837 8.21598 23.8033C6.27898 21.8663 5.21798 19.5633 5.03098 16.8953C5.07161 16.8937 5.11206 16.8891 5.15198 16.8813L9.84298 25.0063C9.81432 25.0397 9.78856 25.0755 9.76598 25.1133ZM5.00098 15.8583C5.04098 12.8913 6.11098 10.3523 8.21498 8.24232C10.366 6.10032 12.961 5.02832 16.001 5.02832C19.041 5.02832 21.633 6.10032 23.776 8.24332C25.916 10.3833 26.991 12.9653 27.001 15.9873C27.0006 15.718 26.9906 15.4489 26.971 15.1803C26.9303 15.1822 26.8899 15.1872 26.85 15.1953L22.164 7.05532C22.1929 7.0215 22.219 6.98538 22.242 6.94732C21.7746 6.61633 21.2806 6.32466 20.765 6.07532C20.738 6.12045 20.7152 6.16798 20.697 6.21732H11.305C11.2868 6.16796 11.264 6.12042 11.237 6.07532C10.726 6.32132 10.234 6.61032 9.76098 6.94332C9.78398 6.98332 9.81098 7.02332 9.84298 7.05932L5.15198 15.1953C5.11176 15.1871 5.07097 15.1821 5.02998 15.1803C5.01498 15.4043 5.00498 15.6303 5.00198 15.8593L5.00098 15.8583ZM26.347 15.4863C26.2798 15.5622 26.2269 15.6496 26.191 15.7443H22.314C22.269 15.627 22.199 15.5209 22.109 15.4333C22.0211 15.3432 21.9146 15.2732 21.797 15.2283V7.60032L26.347 15.4873V15.4863ZM26.191 16.3293C26.227 16.424 26.2798 16.5114 26.347 16.5873L21.797 24.4653V16.8453C21.9145 16.8007 22.021 16.7311 22.109 16.6413C22.1991 16.5534 22.269 16.4469 22.314 16.3293H26.191ZM5.81098 15.7453C5.775 15.6506 5.72215 15.5632 5.65498 15.4873L10.205 7.60032V15.2293C10.0873 15.2742 9.98088 15.3442 9.89298 15.4343C9.80297 15.522 9.73303 15.6281 9.68798 15.7453H5.81098ZM11.296 6.82132C11.3 6.81501 11.3033 6.80831 11.306 6.80132H20.698C20.7344 6.89584 20.7872 6.98318 20.854 7.05932L17.984 12.0193C17.7869 11.9805 17.5824 12.015 17.409 12.1163L11.296 6.82132ZM11.306 15.7453C11.261 15.628 11.191 15.5219 11.101 15.4343C11.0131 15.3442 10.9066 15.2742 10.789 15.2293V7.60032L15.344 15.4773C15.2781 15.5568 15.2273 15.6476 15.194 15.7453H11.306ZM18.638 13.1683C18.6739 13.07 18.6919 12.966 18.691 12.8613C18.6933 12.6598 18.6222 12.4643 18.491 12.3113L21.215 7.60132V15.2283C21.171 15.2443 21.1286 15.2641 21.088 15.2873L18.638 13.1673V13.1683ZM17.035 12.5553C16.9953 12.6524 16.9753 12.7564 16.976 12.8613C16.976 13.0713 17.044 13.2553 17.181 13.4123L16.153 15.1853C16.0533 15.1655 15.9507 15.1655 15.851 15.1853L11.617 7.86832L17.034 12.5553H17.035ZM16.815 15.7453C16.7796 15.6478 16.7271 15.5574 16.66 15.4783L17.683 13.7043C17.8801 13.7432 18.0845 13.7087 18.258 13.6073L20.708 15.7263C20.7052 15.7333 20.7019 15.7399 20.698 15.7463H16.815V15.7453ZM20.903 16.6423C20.9909 16.7324 21.0974 16.8024 21.215 16.8473V24.4653L16.66 16.5743C16.7223 16.502 16.7717 16.4195 16.806 16.3303H20.698C20.7429 16.4479 20.8129 16.5544 20.903 16.6423ZM15.861 16.8763C15.958 16.8893 16.0564 16.8876 16.153 16.8713L20.386 24.2023L14.974 19.5213C15.0104 19.4231 15.0286 19.3191 15.028 19.2143C15.0304 19.0128 14.9593 18.8172 14.828 18.6643L15.861 16.8763ZM20.708 25.2453C20.7052 25.2522 20.7018 25.2589 20.698 25.2653H11.306C11.2715 25.1707 11.2203 25.083 11.155 25.0063L14.019 20.0563C14.2161 20.0952 14.4206 20.0607 14.594 19.9593L20.708 25.2453ZM14.321 18.3713C14.1239 18.3323 13.9193 18.3668 13.746 18.4683L11.296 16.3503C11.2999 16.344 11.3033 16.3373 11.306 16.3303H15.198C15.232 16.4203 15.282 16.5053 15.349 16.5833L14.321 18.3713ZM13.371 18.9073C13.3315 19.0048 13.3118 19.1092 13.313 19.2143C13.313 19.4243 13.381 19.6073 13.518 19.7643L10.789 24.4703V16.8463C10.8329 16.8307 10.8754 16.8113 10.916 16.7883L13.371 18.9083V18.9073ZM9.89298 16.6423C9.98092 16.7324 10.0874 16.8024 10.205 16.8473V24.4653L5.65498 16.5883C5.72213 16.5124 5.77498 16.425 5.81098 16.3303H9.68798C9.73293 16.4479 9.80287 16.5544 9.89298 16.6423Z" fill="white"/>
</g>
<defs>
<clipPath id="clip0_1_5298">
<rect width="32" height="32" fill="white" transform="translate(0.000976562 0.0283203)"/>
</clipPath>
</defs>
</svg>
