<svg width="32" height="33" viewBox="0 0 32 33" fill="none" xmlns="http://www.w3.org/2000/svg">
<g clip-path="url(#clip0_1_5294)">
<path d="M16.001 32.0283C24.8375 32.0283 32.001 24.8649 32.001 16.0283C32.001 7.19176 24.8375 0.0283203 16.001 0.0283203C7.16442 0.0283203 0.000976562 7.19176 0.000976562 16.0283C0.000976562 24.8649 7.16442 32.0283 16.001 32.0283Z" fill="#F4C257"/>
<path d="M8.39598 21.5673L7.23398 20.8923V10.7133L9.10598 9.62532L10.268 10.2993L8.39598 11.3883V14.9263L13.13 17.6783V18.9873L8.39598 16.2363V21.5663V21.5673ZM24.751 19.5423V20.8923L15.993 25.9823L14.121 24.8933V23.5433L15.993 24.6313L19.038 22.8623V17.3603L20.164 16.7053V22.2083L24.751 19.5423ZM26.984 15.8023V15.5723L22.464 18.2003V16.8903L26.984 14.2633V9.41532L15.991 3.02832L10.496 6.22232L10.298 6.33732L14.818 8.96432L13.692 9.61832L9.17198 6.99132L5.00098 9.41532V22.1893L10.496 25.3833L10.695 25.4983V20.2443L11.821 20.8983V26.1533L15.993 28.5763L26.984 22.1893V15.8023ZM21.289 13.3783L16.739 16.0243V21.5263L15.993 21.9593L15.43 21.6323V16.3423L10.695 13.5903V12.7243L11.258 12.3963L15.81 15.0413L20.545 12.2913L21.29 12.7243V13.3793L21.289 13.3783ZM14.831 6.29832L15.992 5.62432L24.75 10.7143V12.8893L23.59 13.5633V11.3873L20.543 9.61832L15.809 12.3693L14.682 11.7153L19.417 8.96332L14.831 6.29832Z" fill="white"/>
</g>
<defs>
<clipPath id="clip0_1_5294">
<rect width="32" height="32" fill="white" transform="translate(0.000976562 0.0283203)"/>
</clipPath>
</defs>
</svg>
