<svg width="32" height="33" viewBox="0 0 32 33" fill="none" xmlns="http://www.w3.org/2000/svg">
<g clip-path="url(#clip0_1_5288)">
<path d="M16.001 32.0283C24.8375 32.0283 32.001 24.8649 32.001 16.0283C32.001 7.19176 24.8375 0.0283203 16.001 0.0283203C7.16442 0.0283203 0.000976562 7.19176 0.000976562 16.0283C0.000976562 24.8649 7.16442 32.0283 16.001 32.0283Z" fill="#434247"/>
<path d="M15.9125 4.02832C12.7534 4.02832 9.72361 5.28328 7.48977 7.51712C5.25593 9.75096 4.00098 12.7807 4.00098 15.9398C4.00098 19.0989 5.25593 22.1287 7.48977 24.3625C9.72361 26.5964 12.7534 27.8513 15.9125 27.8513C22.4915 27.8513 27.8235 22.5183 27.8235 15.9393C27.8235 9.36132 22.4925 4.02832 15.9125 4.02832ZM15.9125 27.3693C9.59448 27.3693 4.47248 22.2473 4.47248 15.9293C4.47248 9.61332 9.59548 4.49132 15.9125 4.49132C22.2295 4.49132 27.3525 9.61332 27.3525 15.9313C27.3525 22.2483 22.2305 27.3703 15.9125 27.3703" fill="white"/>
<path d="M17.211 17.1363H20.231V21.5923C20.231 22.0343 19.778 22.2703 19.346 22.4973C18.923 22.7233 18.234 22.6743 17.073 22.6743H15.657C13.483 22.7233 12.873 22.5563 12.352 22.3293C11.831 22.0933 11.565 21.7593 11.565 21.3263V17.1363H10.001V21.8573C10.001 22.1133 10.129 22.4083 10.326 22.6743C10.552 22.9793 10.523 23.0673 11.014 23.3133C11.457 23.5393 11.9 23.7163 12.696 23.8153C13.316 23.8933 13.208 23.8743 14.31 23.8933H16.926C18.893 23.8543 19.296 23.9923 20.466 23.4023C21.421 22.9293 21.746 22.3793 21.814 22.0243V15.6023H17.221V17.1363H17.211ZM13.139 8.04732C12.342 8.09732 11.683 8.34332 11.172 8.53932C10.651 8.73632 10.542 8.97232 10.326 9.22832C10.126 9.46032 10.014 9.75732 10.011 10.0643V15.2973H11.585V10.5643C11.585 10.1613 11.831 9.83732 12.313 9.60132C12.805 9.35532 13.523 9.23732 14.192 9.23732H17.26C18.43 9.23732 19.06 9.21732 19.424 9.43332C19.798 9.66932 20.241 9.87632 20.241 10.3193V11.5683H21.814V9.88732C21.785 9.67032 21.549 9.05132 20.437 8.52932C19.434 8.05732 19.11 8.02832 17.536 8.02832" fill="white"/>
</g>
<defs>
<clipPath id="clip0_1_5288">
<rect width="32" height="32" fill="white" transform="translate(0.000976562 0.0283203)"/>
</clipPath>
</defs>
</svg>
