<svg width="32" height="33" viewBox="0 0 32 33" fill="none" xmlns="http://www.w3.org/2000/svg">
<g clip-path="url(#clip0_1_5284)">
<path d="M16 32.0293C24.8366 32.0293 32 24.8659 32 16.0293C32 7.19274 24.8366 0.0292969 16 0.0292969C7.16344 0.0292969 0 7.19274 0 16.0293C0 24.8659 7.16344 32.0293 16 32.0293Z" fill="#2AB8E6"/>
<path d="M10.96 6.0293H21.04L22 7.0223V25.0363L21.04 26.0293H10.96L10 25.0363V7.0223L10.96 6.0293ZM11.92 24.0423H20.08V8.0163H11.92V24.0423ZM19.054 18.8723H16.967V21.1353H15.083V18.8733H12.996V16.9243H19.054V18.8723ZM19.054 13.2903V15.2383H12.996V13.2903H15.083V11.0273H16.967V13.2903H19.054Z" fill="white"/>
</g>
<defs>
<clipPath id="clip0_1_5284">
<rect width="32" height="32" fill="white" transform="translate(0 0.0292969)"/>
</clipPath>
</defs>
</svg>
