<svg width="32" height="33" viewBox="0 0 32 33" fill="none" xmlns="http://www.w3.org/2000/svg">
<g clip-path="url(#clip0_1_5280)">
<path d="M16 32.0293C24.8366 32.0293 32 24.8659 32 16.0293C32 7.19274 24.8366 0.0292969 16 0.0292969C7.16344 0.0292969 0 7.19274 0 16.0293C0 24.8659 7.16344 32.0293 16 32.0293Z" fill="#EF494D"/>
<path fill-rule="evenodd" clip-rule="evenodd" d="M6 11.4153C6 11.2023 6.173 11.0293 6.387 11.0293H11.411C13.729 11.0293 15.179 12.2253 15.179 13.9143C15.179 14.6193 14.857 15.2603 14.213 15.8373C15.114 16.3503 15.565 17.1193 15.565 18.1443C15.565 20.5493 13.246 21.0293 11.7 21.0293H6.386C6.28363 21.0293 6.18545 20.9886 6.11306 20.9162C6.04067 20.8439 6 20.7457 6 20.6433V19.4933C6 19.2793 6.173 19.1063 6.386 19.1063H11.7C12.795 19.1063 13.343 18.7533 13.343 18.0483C13.343 17.3433 12.795 16.9583 11.7 16.8943H6.386C6.2838 16.8943 6.18577 16.8538 6.11341 16.7816C6.04105 16.7094 6.00027 16.6115 6 16.5093V15.3593C6 15.1453 6.173 14.9723 6.386 14.9723H11.7C12.473 14.8443 12.86 14.5243 12.86 14.0113C12.86 13.3063 12.473 12.9533 11.7 12.9533H6.386C6.33523 12.9533 6.28495 12.9433 6.23805 12.9238C6.19116 12.9044 6.14856 12.8758 6.1127 12.8399C6.07685 12.8039 6.04844 12.7613 6.0291 12.7143C6.00976 12.6674 5.99987 12.6171 6 12.5663V11.4163V11.4153ZM16.435 11.4153C16.435 11.2023 16.608 11.0293 16.821 11.0293H21.942C22.155 11.0293 22.329 11.2023 22.329 11.4153V20.6433C22.329 20.6941 22.319 20.7443 22.2995 20.7912C22.2801 20.8381 22.2515 20.8807 22.2156 20.9166C22.1796 20.9524 22.137 20.9809 22.09 21.0002C22.0431 21.0195 21.9928 21.0294 21.942 21.0293H20.492C20.3896 21.0293 20.2914 20.9886 20.2191 20.9162C20.1467 20.8439 20.106 20.7457 20.106 20.6433V13.3393C20.1061 13.2885 20.0962 13.2382 20.0769 13.1913C20.0576 13.1443 20.0292 13.1017 19.9933 13.0657C19.9574 13.0298 19.9148 13.0012 19.8679 12.9818C19.8211 12.9623 19.7708 12.9523 19.72 12.9523H16.82C16.7176 12.9523 16.6194 12.9116 16.5471 12.8392C16.4747 12.7669 16.434 12.6687 16.434 12.5663L16.435 11.4153ZM23.68 11.0293H25.613C25.826 11.0293 25.999 11.2023 25.999 11.4153V12.5653C25.9991 12.6161 25.9892 12.6664 25.9699 12.7133C25.9506 12.7603 25.9222 12.8029 25.8863 12.8389C25.8504 12.8748 25.8078 12.9034 25.7609 12.9228C25.7141 12.9423 25.6638 12.9523 25.613 12.9523H23.68C23.5776 12.9523 23.4794 12.9116 23.4071 12.8392C23.3347 12.7669 23.294 12.6687 23.294 12.5663V11.4163C23.294 11.2023 23.467 11.0293 23.68 11.0293Z" fill="white"/>
</g>
<defs>
<clipPath id="clip0_1_5280">
<rect width="32" height="32" fill="white" transform="translate(0 0.0292969)"/>
</clipPath>
</defs>
</svg>
