<svg width="32" height="33" viewBox="0 0 32 33" fill="none" xmlns="http://www.w3.org/2000/svg">
<g clip-path="url(#clip0_1_5276)">
<path d="M16 32.0293C24.8366 32.0293 32 24.8659 32 16.0293C32 7.19274 24.8366 0.0292969 16 0.0292969C7.16344 0.0292969 0 7.19274 0 16.0293C0 24.8659 7.16344 32.0293 16 32.0293Z" fill="#24DD7B"/>
<path d="M13.092 7.9423L17.495 6.0293L17.459 11.0823H23V14.5823H17.422V20.6453C17.422 22.4853 20.542 22.7023 21.716 22.0893L22.78 25.2653C20.174 26.7803 13.055 26.4193 13.055 20.6813V7.9413H13.092V7.9423ZM8.982 15.5203C7.887 15.5203 7 14.4543 7 13.1393C7 11.8233 7.887 10.7573 8.982 10.7573C10.076 10.7573 10.963 11.8233 10.963 13.1393C10.963 14.4543 10.076 15.5203 8.982 15.5203Z" fill="white"/>
</g>
<defs>
<clipPath id="clip0_1_5276">
<rect width="32" height="32" fill="white" transform="translate(0 0.0292969)"/>
</clipPath>
</defs>
</svg>
