<svg width="32" height="33" viewBox="0 0 32 33" fill="none" xmlns="http://www.w3.org/2000/svg">
<g clip-path="url(#clip0_1_5270)">
<path d="M16 32.0293C24.8366 32.0293 32 24.8659 32 16.0293C32 7.19274 24.8366 0.0292969 16 0.0292969C7.16344 0.0292969 0 7.19274 0 16.0293C0 24.8659 7.16344 32.0293 16 32.0293Z" fill="#895AF8"/>
<path fill-rule="evenodd" clip-rule="evenodd" d="M17.77 14.5693C17.9299 14.5597 18.0901 14.5597 18.25 14.5693C19.73 14.6693 20.41 16.6793 21.35 16.5693C20.469 17.2895 19.4471 17.8175 18.35 18.1193C17.8939 18.1859 17.4288 18.0928 17.0334 17.8559C16.638 17.6191 16.3365 17.2529 16.18 16.8193V20.8193L22 17.4993V12.3193L17.77 14.5693ZM14.88 14.5593C14.6594 14.3765 14.4795 14.1494 14.3521 13.8927C14.2246 13.6361 14.1524 13.3556 14.14 13.0693V12.9893C14.14 11.8293 16.01 9.9893 16.07 9.9893C16.13 10.0493 18 11.8393 18 12.9893V13.0793C17.9822 13.5929 17.7673 14.0799 17.4 14.4393L22 11.9693L16 9.0293L10 11.9393L14.88 14.5593ZM15.86 16.8593C15.7053 17.2947 15.4046 17.6631 15.009 17.902C14.6134 18.1408 14.1474 18.2352 13.69 18.1693C12.5929 17.8675 11.571 17.3395 10.69 16.6193C11.63 16.6893 12.3 14.6693 13.79 14.6193C13.9499 14.6097 14.1101 14.6097 14.27 14.6193L10 12.3193V17.5093L15.87 20.8993L15.86 16.8593Z" fill="white"/>
<path d="M16 4.0293C9.373 4.0293 4 9.4023 4 16.0293C4 22.6563 9.373 28.0293 16 28.0293C22.627 28.0293 28 22.6563 28 16.0293C28 12.8467 26.7357 9.79445 24.4853 7.54402C22.2348 5.29358 19.1826 4.0293 16 4.0293ZM9.3 11.2193L16 7.9693L22.71 11.2193V17.6093L16 21.4793L9.3 17.6093V11.2193ZM22.73 20.2193L16.05 24.0793L9.29 20.1793V19.8093L16.05 23.7093L22.73 19.8493V20.2193ZM22.73 19.4693L16.05 23.3293L9.29 19.4293V19.0293L16.05 22.9393L22.73 19.0793V19.4693ZM22.73 18.7193L16.05 22.5793L9.29 18.6793V18.3093L16.05 22.2193L22.73 18.3593V18.7193Z" fill="white"/>
</g>
<defs>
<clipPath id="clip0_1_5270">
<rect width="32" height="32" fill="white" transform="translate(0 0.0292969)"/>
</clipPath>
</defs>
</svg>
