<svg width="32" height="33" viewBox="0 0 32 33" fill="none" xmlns="http://www.w3.org/2000/svg">
<g clip-path="url(#clip0_1_5266)">
<path d="M16 32.0293C24.8366 32.0293 32 24.8659 32 16.0293C32 7.19274 24.8366 0.0292969 16 0.0292969C7.16344 0.0292969 0 7.19274 0 16.0293C0 24.8659 7.16344 32.0293 16 32.0293Z" fill="#FFC04E"/>
<path d="M15.598 12.3863H15.601L15.571 12.5163L15.311 13.7433H15.281L13.568 21.0293H11.389L13.136 13.7433H10.204L8.558 21.0293H6.162L8.34 12.0293H15.673L15.598 12.3863ZM19.739 12.0293H23.369C26.492 12.1723 26.201 14.2433 26.201 14.2433H27L26.71 15.1003H25.983C25.766 15.8863 24.313 16.3153 24.313 16.3153C25.983 16.5293 25.911 17.8153 25.911 17.8153H26.71L26.492 18.6723H25.838C25.671 19.8623 24.616 20.4403 23.749 20.7153C23.2247 20.879 22.6783 20.9609 22.129 20.9583H17.56L19.739 12.0293ZM7.323 13.7433H5L5.436 12.0293H7.759L7.323 13.7433ZM17.271 20.0293L15.383 15.6003L16.182 12.1723L18.069 16.3863L17.271 20.0293ZM22.825 15.6003C23.085 15.6003 23.335 15.5003 23.518 15.3183C23.701 15.1363 23.805 14.8923 23.805 14.6363C23.805 14.3803 23.702 14.1353 23.518 13.9543C23.334 13.7733 23.085 13.6723 22.825 13.6723H21.41L20.975 15.6003H22.825ZM22.336 19.3153C22.987 19.3153 23.515 18.8193 23.515 18.2083C23.515 17.5963 22.99 17.1003 22.336 17.1003H20.634L20.11 19.3153H22.336Z" fill="white"/>
</g>
<defs>
<clipPath id="clip0_1_5266">
<rect width="32" height="32" fill="white" transform="translate(0 0.0292969)"/>
</clipPath>
</defs>
</svg>
