<svg width="32" height="33" viewBox="0 0 32 33" fill="none" xmlns="http://www.w3.org/2000/svg">
<g clip-path="url(#clip0_1_5262)">
<path d="M16 32.0293C24.8366 32.0293 32 24.8659 32 16.0293C32 7.19274 24.8366 0.0292969 16 0.0292969C7.16344 0.0292969 0 7.19274 0 16.0293C0 24.8659 7.16344 32.0293 16 32.0293Z" fill="#FF439B"/>
<path fill-rule="evenodd" clip-rule="evenodd" d="M18.226 14.3333L23.859 24.0293H8.245L10.116 20.9263L18.528 20.9283L16.396 17.4483L18.226 14.3333ZM12.476 16.5893L18.203 7.0693L26 20.1963H22.256L18.136 13.0363L16.135 16.5903L12.476 16.5893ZM17.361 20.2083L6 20.1543L13.807 7.0293L15.667 10.1753L11.364 17.0933H15.531L17.361 20.2083Z" fill="white"/>
</g>
<defs>
<clipPath id="clip0_1_5262">
<rect width="32" height="32" fill="white" transform="translate(0 0.0292969)"/>
</clipPath>
</defs>
</svg>
