<svg width="32" height="33" viewBox="0 0 32 33" fill="none" xmlns="http://www.w3.org/2000/svg">
<g clip-path="url(#clip0_1_5258)">
<path d="M16.0005 32.0293C24.837 32.0293 32.0005 24.8659 32.0005 16.0293C32.0005 7.19274 24.837 0.0292969 16.0005 0.0292969C7.16393 0.0292969 0.000488281 7.19274 0.000488281 16.0293C0.000488281 24.8659 7.16393 32.0293 16.0005 32.0293Z" fill="#FF4081"/>
<path d="M13.8905 21.5323L14.0485 25.0293C14.0485 25.0293 15.9235 24.7113 17.8765 25.0293L18.0325 21.5323H13.8905ZM11.6265 18.8293C11.6265 18.8293 17.0955 18.3523 20.2985 18.8293L20.6105 15.0143C17.5684 14.7784 14.5126 14.7784 11.4705 15.0143L11.6265 18.8293ZM26.0005 8.9733C26.0005 8.9733 15.5315 6.7473 6.00049 9.1323L6.70349 13.5033L7.56349 11.8343C7.56349 11.8343 16.5475 10.4833 24.5935 11.8343L25.3755 13.5043L26.0005 8.9733Z" fill="white"/>
</g>
<defs>
<clipPath id="clip0_1_5258">
<rect width="32" height="32" fill="white" transform="translate(0.000488281 0.0292969)"/>
</clipPath>
</defs>
</svg>
