<svg width="32" height="33" viewBox="0 0 32 33" fill="none" xmlns="http://www.w3.org/2000/svg">
<g clip-path="url(#clip0_1_5254)">
<path d="M16.0005 32.0293C24.837 32.0293 32.0005 24.8659 32.0005 16.0293C32.0005 7.19274 24.837 0.0292969 16.0005 0.0292969C7.16393 0.0292969 0.000488281 7.19274 0.000488281 16.0293C0.000488281 24.8659 7.16393 32.0293 16.0005 32.0293Z" fill="#1A1F36"/>
<path d="M18.5741 14.5433C18.7155 14.5436 18.8515 14.4893 18.9538 14.3916C19.0561 14.294 19.1166 14.1606 19.1228 14.0193C19.129 13.8781 19.0804 13.7399 18.9871 13.6336C18.8937 13.5274 18.763 13.4614 18.6221 13.4493H14.7821V12.4893C14.7445 12.3565 14.6646 12.2396 14.5545 12.1564C14.4444 12.0731 14.3101 12.0281 14.1721 12.0281C14.0341 12.0281 13.8998 12.0731 13.7897 12.1564C13.6796 12.2396 13.5997 12.3565 13.5621 12.4893V13.4493H12.5351C12.39 13.4493 12.2509 13.5069 12.1483 13.6095C12.0457 13.7121 11.9881 13.8512 11.9881 13.9963C11.9881 14.1414 12.0457 14.2805 12.1483 14.3831C12.2509 14.4857 12.39 14.5433 12.5351 14.5433H13.5631V17.8833C13.5678 18.7237 13.9043 19.5282 14.4993 20.1217C15.0943 20.7152 15.8997 21.0497 16.7401 21.0523C17.4408 21.0416 18.1174 20.7946 18.6601 20.3513L18.8901 20.1593C18.9641 20.1074 19.0264 20.0405 19.0728 19.963C19.1192 19.8854 19.1487 19.7989 19.1595 19.7092C19.1702 19.6194 19.1619 19.5284 19.1351 19.4421C19.1083 19.3558 19.0636 19.2761 19.0039 19.2082C18.9442 19.1403 18.8709 19.0858 18.7888 19.0482C18.7066 19.0105 18.6174 18.9906 18.527 18.9898C18.4366 18.989 18.3471 19.0072 18.2642 19.0433C18.1814 19.0794 18.107 19.1325 18.0461 19.1993L17.8731 19.3433C17.5982 19.5708 17.2632 19.7137 16.9087 19.7545C16.5542 19.7954 16.1955 19.7324 15.8761 19.5733C15.5494 19.4176 15.2734 19.1728 15.0799 18.8671C14.8863 18.5614 14.7831 18.2071 14.7821 17.8453V14.5433H18.5741ZM24.8141 18.2683C24.8268 18.2064 24.8272 18.1427 24.8152 18.0807C24.8032 18.0187 24.7791 17.9596 24.7443 17.907C24.7094 17.8543 24.6645 17.809 24.6122 17.7737C24.5598 17.7384 24.501 17.7138 24.4391 17.7013H24.1991C24.0924 17.7009 23.9887 17.7368 23.9051 17.8031C23.8215 17.8695 23.7629 17.9623 23.7391 18.0663C23.5061 19.0854 23.0623 20.0444 22.4363 20.8816C21.8103 21.7189 21.0159 22.4157 20.1043 22.9274C19.1927 23.439 18.184 23.7541 17.1432 23.8524C16.1025 23.9507 15.0527 23.8299 14.0614 23.4979C13.0701 23.1659 12.1594 22.6301 11.3877 21.9248C10.616 21.2195 10.0006 20.3605 9.58103 19.403C9.16144 18.4455 8.94699 17.4108 8.95148 16.3654C8.95597 15.32 9.1793 14.2871 9.6071 13.3333C9.95121 12.5026 10.4556 11.7478 11.0915 11.1121C11.7274 10.4764 12.4823 9.97218 13.3131 9.6283C14.9339 8.90466 16.758 8.77557 18.4646 9.26372C20.1712 9.75187 21.6511 10.826 22.6441 12.2973C22.7144 12.3999 22.8217 12.4711 22.9435 12.4961C23.0653 12.5211 23.1921 12.4979 23.2971 12.4313L23.3831 12.3733C23.4984 12.3004 23.5803 12.1849 23.6111 12.052C23.6418 11.9191 23.6188 11.7794 23.5471 11.6633C22.4638 10.0688 20.8785 8.88241 19.0433 8.29277C17.208 7.70314 15.2283 7.74415 13.4191 8.4093C12.2713 8.80375 11.2269 9.45102 10.3628 10.3033C9.49879 11.1556 8.83726 12.1911 8.4271 13.3333C8.00083 14.4359 7.80698 15.6148 7.85769 16.7959C7.90839 17.977 8.20257 19.1348 8.72178 20.1969C9.24098 21.259 9.97401 22.2023 10.8749 22.9678C11.7758 23.7332 12.8251 24.3043 13.9571 24.6452C15.089 24.9861 16.2792 25.0895 17.453 24.9488C18.6268 24.8081 19.7588 24.4264 20.7782 23.8277C21.7975 23.229 22.6822 22.4261 23.3767 21.4695C24.0712 20.5128 24.5606 19.423 24.8141 18.2683ZM16.9231 5.0293H15.9631C14.2285 5.10218 12.5332 5.56882 11.0056 6.39388C9.47797 7.21894 8.15814 8.38078 7.14603 9.79141C6.13392 11.202 5.45606 12.8245 5.1638 14.5359C4.87153 16.2473 4.97251 18.0027 5.4591 19.6693C5.50114 19.8081 5.59661 19.9246 5.72451 19.993C5.85241 20.0615 6.00226 20.0763 6.1411 20.0343H6.2181C6.33417 19.9782 6.42672 19.883 6.47941 19.7653C6.5321 19.6477 6.54155 19.5152 6.5061 19.3913C5.87007 17.2129 5.9677 14.8859 6.78395 12.7684C7.60019 10.6509 9.08981 8.86048 11.0235 7.67267C12.9571 6.48485 15.2276 5.96554 17.4853 6.19468C19.743 6.42382 21.8629 7.38872 23.5184 8.94081C25.174 10.4929 26.2735 12.5461 26.6477 14.7844C27.0219 17.0227 26.65 19.3219 25.5892 21.3281C24.5285 23.3343 22.8378 24.9362 20.7773 25.8872C18.7169 26.8382 16.4009 27.0856 14.1861 26.5913C14.0903 26.571 13.9907 26.5782 13.8988 26.6122C13.8069 26.6462 13.7266 26.7055 13.6671 26.7833C13.6077 26.8574 13.5682 26.9454 13.5524 27.039C13.5365 27.1326 13.5449 27.2287 13.5767 27.3182C13.6084 27.4076 13.6625 27.4875 13.7338 27.5502C13.8051 27.6129 13.8913 27.6563 13.9841 27.6763C15.5104 27.9559 17.0777 27.922 18.5905 27.5765C20.1032 27.231 21.5299 26.5812 22.7835 25.6667C24.037 24.7522 25.0914 23.592 25.8822 22.257C26.6731 20.9219 27.1839 19.4398 27.3836 17.901C27.5833 16.3622 27.4677 14.7988 27.0438 13.3061C26.6199 11.8134 25.8967 10.4226 24.918 9.21838C23.9394 8.01416 22.7259 7.02175 21.3514 6.30157C19.9769 5.58138 18.4702 5.14851 16.9231 5.0293Z" fill="white"/>
</g>
<defs>
<clipPath id="clip0_1_5254">
<rect width="32" height="32" fill="white" transform="translate(0.000488281 0.0292969)"/>
</clipPath>
</defs>
</svg>
