<svg width="32" height="33" viewBox="0 0 32 33" fill="none" xmlns="http://www.w3.org/2000/svg">
<g clip-path="url(#clip0_1_5247)">
<path d="M16.0005 32.0293C24.837 32.0293 32.0005 24.8659 32.0005 16.0293C32.0005 7.19274 24.837 0.0292969 16.0005 0.0292969C7.16393 0.0292969 0.000488281 7.19274 0.000488281 16.0293C0.000488281 24.8659 7.16393 32.0293 16.0005 32.0293Z" fill="#3058A6"/>
<path d="M15.9385 27.1903C9.74049 27.1903 4.71549 22.1653 4.71549 15.9673C4.71549 9.7693 9.74049 4.7443 15.9385 4.7443C22.1365 4.7443 27.1615 9.7693 27.1615 15.9673C27.1615 22.1653 22.1365 27.1903 15.9385 27.1903ZM15.9385 4.0293C9.35549 4.0293 4.00049 9.3843 4.00049 15.9673C4.00049 22.5503 9.35549 27.9053 15.9385 27.9053C22.5215 27.9053 27.8765 22.5503 27.8765 15.9673C27.8765 9.3843 22.5215 4.0293 15.9385 4.0293Z" fill="white"/>
<path fill-rule="evenodd" clip-rule="evenodd" d="M20.4595 20.6233L19.8365 23.3223L19.6865 23.9753H19.0165L15.5715 23.9733H15.5575C14.1765 23.9503 13.0925 23.5833 12.3815 22.9353C12.9955 24.0183 14.2995 24.6453 16.1195 24.6753H16.1335L19.5775 24.6773H20.2475L20.3985 24.0243L21.0215 21.3253L20.5355 20.2943L20.4595 20.6233ZM19.3765 9.0523L18.8845 8.0293L18.8145 8.3493L18.3475 10.4763H19.0635L19.3765 9.0523ZM21.8635 11.5133L21.2435 14.1383L21.0895 14.7863H17.3565L16.4085 19.1143C16.3885 19.2383 16.3765 19.3643 16.3765 19.4343C16.3765 19.4953 16.3835 19.5343 16.3895 19.5533C16.4607 19.58 16.5364 19.5929 16.6125 19.5913H17.0205L17.9185 15.4893H21.6515L21.8045 14.8403L22.4245 12.2153L21.9425 11.1793L21.8625 11.5133H21.8635ZM12.6015 14.7863H10.0005L10.8965 15.4893H12.4485L12.6015 14.7863Z" fill="white"/>
<path fill-rule="evenodd" clip-rule="evenodd" d="M16.3605 20.2943H16.2655C15.5415 20.2753 15.1995 19.8983 15.1995 19.2943C15.1995 19.1503 15.2235 18.9593 15.2475 18.8163L16.3455 13.8043H20.0895L20.7095 11.1793H16.9655L17.6575 8.0293H14.6035L13.9105 11.1793H10.5965L10.0005 13.8043H13.3145L12.0245 19.6993C11.9545 19.9853 11.9295 20.3193 11.9295 20.4863C11.9295 22.1683 13.2565 22.9583 15.2375 22.9913L18.6815 22.9923L19.3045 20.2943H16.3605Z" fill="white"/>
</g>
<defs>
<clipPath id="clip0_1_5247">
<rect width="32" height="32" fill="white" transform="translate(0.000488281 0.0292969)"/>
</clipPath>
</defs>
</svg>
