<svg width="32" height="33" viewBox="0 0 32 33" fill="none" xmlns="http://www.w3.org/2000/svg">
<g clip-path="url(#clip0_1_5243)">
<path d="M16.0005 32.0293C24.837 32.0293 32.0005 24.8659 32.0005 16.0293C32.0005 7.19274 24.837 0.0292969 16.0005 0.0292969C7.16393 0.0292969 0.000488281 7.19274 0.000488281 16.0293C0.000488281 24.8659 7.16393 32.0293 16.0005 32.0293Z" fill="#30C0F2"/>
<path d="M10.1235 7.0293H21.8975C21.8975 7.0293 22.2095 8.5833 23.8775 8.6873C23.8775 8.6873 29.3995 21.5373 15.9585 27.0293C15.9585 27.0293 3.55949 23.0913 7.93549 8.7913C7.93549 8.7913 9.81149 8.6873 10.1235 7.0293ZM21.2735 8.0523H10.7535L10.7395 8.2763C10.6515 8.7653 10.4065 9.1063 10.0475 9.3363C9.825 9.47658 9.57569 9.56888 9.31549 9.6073L9.13149 9.6253L9.07949 9.8033C8.11049 13.1133 8.07749 15.9733 8.84049 18.4133C9.46649 20.4133 10.5995 22.0533 12.0925 23.3633C12.8805 24.0543 13.7523 24.6432 14.6875 25.1163C14.9975 25.2733 15.2875 25.4023 15.5465 25.5063C15.7035 25.5693 15.8185 25.6103 15.8815 25.6313L15.9795 25.6613L16.0745 25.6213C19.7805 24.0373 22.0225 21.6433 23.0265 18.6613C23.8565 16.2013 23.7825 13.5823 23.1635 11.1023C23.0445 10.6265 22.901 10.1572 22.7335 9.6963C22.72 9.65977 22.706 9.62344 22.6915 9.5873L22.6275 9.4293L22.4565 9.4183C21.9705 9.3863 21.6615 9.1883 21.4705 8.8703C21.3688 8.69931 21.3057 8.5082 21.2855 8.3103L21.2735 8.0523ZM11.2285 8.5973C17.5955 8.5983 20.7785 8.5993 20.7785 8.6003C20.8225 8.7873 20.8935 8.9733 20.9985 9.1503C21.2545 9.5753 21.6655 9.8623 22.2415 9.9443C22.3926 10.3676 22.5228 10.7982 22.6315 11.2343C23.2275 13.6223 23.2975 16.1403 22.5065 18.4883C21.5615 21.2953 19.4605 23.5553 15.9555 25.0783C15.6079 24.9473 15.2677 24.7974 14.9365 24.6293C14.0425 24.1776 13.209 23.6152 12.4555 22.9553C11.0345 21.7073 9.95849 20.1513 9.36449 18.2523C8.64649 15.9573 8.66549 13.2593 9.55849 10.1183C9.83639 10.0548 10.1017 9.94532 10.3435 9.7943C10.7794 9.52176 11.0957 9.09397 11.2285 8.5973ZM18.5885 14.1793H18.2855C18.3155 13.5713 18.1805 12.2473 16.5355 11.8793C16.0575 11.765 15.557 11.7879 15.0915 11.9453C14.4495 12.1733 13.6835 12.7463 13.6545 14.1793H13.4315C13.2043 14.1793 12.9863 14.2692 12.8251 14.4294C12.664 14.5896 12.5728 14.8071 12.5715 15.0343V18.6093C12.5728 18.8365 12.664 19.054 12.8251 19.2142C12.9863 19.3744 13.2043 19.4643 13.4315 19.4643H18.5895C18.8167 19.4643 19.0347 19.3744 19.1958 19.2142C19.357 19.054 19.4482 18.8365 19.4495 18.6093V15.0343C19.4482 14.8071 19.357 14.5896 19.1958 14.4294C19.0347 14.2692 18.8167 14.1793 18.5895 14.1793H18.5885ZM16.5835 18.2213H15.4375L15.7405 16.7143C15.598 16.6529 15.4811 16.5441 15.4096 16.4063C15.3381 16.2686 15.3164 16.1104 15.3482 15.9585C15.38 15.8066 15.4632 15.6704 15.5839 15.5728C15.7046 15.4753 15.8553 15.4225 16.0105 15.4233C16.1021 15.3838 16.2014 15.3652 16.3011 15.3687C16.4008 15.3723 16.4984 15.398 16.587 15.444C16.6755 15.4899 16.7528 15.555 16.8131 15.6345C16.8734 15.714 16.9153 15.8059 16.9357 15.9035C16.9561 16.0012 16.9546 16.1022 16.9312 16.1992C16.9078 16.2961 16.8631 16.3867 16.8004 16.4643C16.7377 16.5419 16.6585 16.6046 16.5686 16.6478C16.4787 16.6911 16.3803 16.7138 16.2805 16.7143L16.5835 18.2213ZM14.3955 14.1793C14.4235 13.7113 14.6215 12.6033 15.8545 12.5213C15.8545 12.5213 17.4805 12.4323 17.4515 14.1793H14.3955Z" fill="white"/>
</g>
<defs>
<clipPath id="clip0_1_5243">
<rect width="32" height="32" fill="white" transform="translate(0.000488281 0.0292969)"/>
</clipPath>
</defs>
</svg>
