<svg width="32" height="33" viewBox="0 0 32 33" fill="none" xmlns="http://www.w3.org/2000/svg">
<g clip-path="url(#clip0_1_5237)">
<path d="M16.0005 32.0293C24.837 32.0293 32.0005 24.8659 32.0005 16.0293C32.0005 7.19274 24.837 0.0292969 16.0005 0.0292969C7.16393 0.0292969 0.000488281 7.19274 0.000488281 16.0293C0.000488281 24.8659 7.16393 32.0293 16.0005 32.0293Z" fill="#00843D"/>
<path d="M15.9695 5.5923C16.3635 5.5923 16.7505 5.6953 17.0915 5.8923L24.2515 10.0263C24.5928 10.2235 24.8762 10.507 25.0731 10.8484C25.2701 11.1899 25.3737 11.5771 25.3735 11.9713V20.4053C25.3735 21.2073 24.9465 21.9483 24.2515 22.3493L17.0905 26.4843C16.7492 26.6813 16.3621 26.7851 15.968 26.7851C15.5739 26.7851 15.1868 26.6813 14.8455 26.4843L7.68349 22.3493C7.34221 22.1523 7.05879 21.8689 6.86167 21.5277C6.66455 21.1864 6.56068 20.7994 6.56049 20.4053V11.9713C6.56049 11.1693 6.98849 10.4283 7.68349 10.0263L14.8435 5.8923C15.1855 5.6953 15.5735 5.5913 15.9665 5.5913H15.9685L15.9695 5.5923ZM15.9675 4.0313C15.2998 4.03169 14.6438 4.20756 14.0655 4.5413L6.90349 8.6743C6.3256 9.00911 5.8457 9.48973 5.51175 10.0681C5.17781 10.6465 5.00151 11.3024 5.00049 11.9703V20.4043C5.00151 21.0722 5.17781 21.7281 5.51175 22.3065C5.8457 22.8849 6.3256 23.3655 6.90349 23.7003L14.0635 27.8343C15.2415 28.5143 16.6925 28.5143 17.8695 27.8343L25.0305 23.7003C25.6084 23.3655 26.0883 22.8849 26.4222 22.3065C26.7562 21.7281 26.9325 21.0722 26.9335 20.4043V11.9703C26.9325 11.3024 26.7562 10.6465 26.4222 10.0681C26.0883 9.48973 25.6084 9.00911 25.0305 8.6743L17.8705 4.5393C17.2915 4.20522 16.6349 4.02934 15.9665 4.0293L15.9675 4.0313Z" fill="white"/>
<path d="M15.4966 17.0284C15.4143 17.0285 15.3335 17.0069 15.2622 16.9659C15.1909 16.9248 15.1317 16.8656 15.0906 16.7944L14.2296 15.3014C14.1885 15.2302 14.1669 15.1495 14.1669 15.0674C14.1669 14.9852 14.1885 14.9045 14.2296 14.8334L15.0906 13.3404C15.1317 13.2691 15.1909 13.21 15.2622 13.1689C15.3335 13.1278 15.4143 13.1063 15.4966 13.1064H17.2546C17.3367 13.1066 17.4172 13.1284 17.4883 13.1694C17.5593 13.2105 17.6184 13.2694 17.6596 13.3404L18.5216 14.8334C18.5627 14.9045 18.5843 14.9852 18.5843 15.0674C18.5843 15.1495 18.5627 15.2302 18.5216 15.3014L17.6596 16.7944C17.6186 16.8655 17.5595 16.9245 17.4884 16.9656C17.4173 17.0067 17.3367 17.0283 17.2546 17.0284H15.4966ZM13.1476 14.6774C13.2298 14.6773 13.3106 14.6557 13.3819 14.6146C13.4531 14.5735 13.5123 14.5145 13.5536 14.4434L14.4146 12.9504C14.4557 12.8792 14.4773 12.7985 14.4773 12.7164C14.4773 12.6342 14.4557 12.5535 14.4146 12.4824L13.3406 10.6214L11.2436 11.7654C11.1684 11.8066 11.106 11.8676 11.0632 11.9419C11.0203 12.0161 10.9987 12.1007 11.0006 12.1864C11.0176 13.0244 11.1156 13.8584 11.2916 14.6774H13.1476ZM19.6026 14.6774C19.5205 14.6773 19.4399 14.6557 19.3688 14.6146C19.2977 14.5735 19.2387 14.5145 19.1976 14.4434L18.3356 12.9504C18.2945 12.8792 18.2729 12.7985 18.2729 12.7164C18.2729 12.6342 18.2945 12.5535 18.3356 12.4824L19.4096 10.6214L21.5056 11.7654C21.5808 11.8064 21.6433 11.8672 21.6864 11.9413C21.7294 12.0153 21.7513 12.0998 21.7496 12.1854C21.7325 13.0234 21.6354 13.8579 21.4596 14.6774H19.6026ZM16.5996 9.08639C16.5309 9.04893 16.4539 9.0293 16.3756 9.0293C16.2973 9.0293 16.2203 9.04893 16.1516 9.08639L14.0256 10.2464L15.0916 12.0924C15.1327 12.1635 15.1917 12.2225 15.2628 12.2636C15.3339 12.3047 15.4145 12.3263 15.4966 12.3264H17.2546C17.3367 12.3264 17.4174 12.3048 17.4885 12.2637C17.5596 12.2227 17.6186 12.1636 17.6596 12.0924L18.7256 10.2474L16.5996 9.08739V9.08639ZM11.4856 15.4574C11.8867 16.8842 12.5275 18.2324 13.3806 19.4444L14.4156 17.6524C14.4567 17.5812 14.4783 17.5005 14.4783 17.4184C14.4783 17.3362 14.4567 17.2555 14.4156 17.1844L13.5536 15.6914C13.5126 15.6203 13.4535 15.5612 13.3824 15.5202C13.3114 15.4791 13.2307 15.4574 13.1486 15.4574H11.4856ZM21.2636 15.4574C20.8628 16.8841 20.2224 18.2324 19.3696 19.4444L18.3346 17.6524C18.2935 17.5812 18.2719 17.5005 18.2719 17.4184C18.2719 17.3362 18.2935 17.2555 18.3346 17.1844L19.1976 15.6914C19.2387 15.6203 19.2977 15.5612 19.3688 15.5202C19.4399 15.4791 19.5205 15.4574 19.6026 15.4574H21.2646H21.2636ZM15.4966 17.8084C15.4143 17.8083 15.3335 17.8298 15.2622 17.8709C15.1909 17.912 15.1317 17.9711 15.0906 18.0424L13.8906 20.1224C14.5369 20.9254 15.2749 21.65 16.0896 22.2814C16.1718 22.3446 16.2725 22.3788 16.3761 22.3788C16.4797 22.3788 16.5805 22.3446 16.6626 22.2814C17.477 21.6496 18.2147 20.9247 18.8606 20.1214L17.6606 18.0424C17.6196 17.9713 17.5605 17.9122 17.4894 17.8712C17.4183 17.8301 17.3377 17.8084 17.2556 17.8084H15.4956H15.4966Z" fill="white"/>
</g>
<defs>
<clipPath id="clip0_1_5237">
<rect width="32" height="32" fill="white" transform="translate(0.000488281 0.0292969)"/>
</clipPath>
</defs>
</svg>
