<svg width="32" height="33" viewBox="0 0 32 33" fill="none" xmlns="http://www.w3.org/2000/svg">
<g clip-path="url(#clip0_1_5223)">
<path d="M16.001 32.0293C24.8375 32.0293 32.001 24.8659 32.001 16.0293C32.001 7.19274 24.8375 0.0292969 16.001 0.0292969C7.16442 0.0292969 0.000976562 7.19274 0.000976562 16.0293C0.000976562 24.8659 7.16442 32.0293 16.001 32.0293Z" fill="#374851"/>
<path fill-rule="evenodd" clip-rule="evenodd" d="M17.701 15.4293V23.0273C17.905 22.9773 18.105 22.9203 18.301 22.8543V25.7643C16.9893 26.0729 15.6289 26.1141 14.301 25.8853V15.4293H10.801V12.6293H21.201V15.4293H17.701ZM19.101 25.5393V22.5293C20.5752 21.826 21.7665 20.6424 22.4793 19.1727C23.1921 17.7031 23.3839 16.0347 23.0234 14.4416C22.6629 12.8485 21.7714 11.4254 20.4953 10.4058C19.2192 9.38622 17.6344 8.83084 16.001 8.83084C14.3676 8.83084 12.7827 9.38622 11.5067 10.4058C10.2306 11.4254 9.33907 12.8485 8.97855 14.4416C8.61803 16.0347 8.8099 17.7031 9.52267 19.1727C10.2354 20.6424 11.4267 21.826 12.901 22.5293V25.5393C8.89598 24.2343 6.00098 20.4693 6.00098 16.0293C6.00098 10.5063 10.478 6.0293 16.001 6.0293C21.524 6.0293 26.001 10.5063 26.001 16.0293C26.001 20.4693 23.106 24.2343 19.101 25.5393Z" fill="white"/>
</g>
<defs>
<clipPath id="clip0_1_5223">
<rect width="32" height="32" fill="white" transform="translate(0.000976562 0.0292969)"/>
</clipPath>
</defs>
</svg>
