<svg width="32" height="33" viewBox="0 0 32 33" fill="none" xmlns="http://www.w3.org/2000/svg">
<g clip-path="url(#clip0_1_5218)">
<path d="M16.001 32.0293C24.8375 32.0293 32.001 24.8659 32.001 16.0293C32.001 7.19274 24.8375 0.0292969 16.001 0.0292969C7.16442 0.0292969 0.000976562 7.19274 0.000976562 16.0293C0.000976562 24.8659 7.16442 32.0293 16.001 32.0293Z" fill="#00EA90"/>
<path d="M18.208 8.0293L25.985 12.0973L18.492 16.6903L18.208 8.0293ZM13.778 24.9703L6.00098 20.9023L13.494 16.3083L13.778 24.9703Z" fill="white" fill-opacity="0.698"/>
<path d="M25.985 20.7083L15.172 27.0293V18.1603L25.985 11.6053V20.7083ZM6.00098 11.3083L16.814 5.0293V13.8633L6.00098 20.4103V11.3073V11.3083Z" fill="white"/>
</g>
<defs>
<clipPath id="clip0_1_5218">
<rect width="32" height="32" fill="white" transform="translate(0.000976562 0.0292969)"/>
</clipPath>
</defs>
</svg>
