<svg width="32" height="33" viewBox="0 0 32 33" fill="none" xmlns="http://www.w3.org/2000/svg">
<g clip-path="url(#clip0_1_5212)">
<path d="M16.001 32.0293C24.8375 32.0293 32.001 24.8659 32.001 16.0293C32.001 7.19274 24.8375 0.0292969 16.001 0.0292969C7.16442 0.0292969 0.000976562 7.19274 0.000976562 16.0293C0.000976562 24.8659 7.16442 32.0293 16.001 32.0293Z" fill="#FF4A4A"/>
<path d="M19.329 19.0103H18.317C18.2714 19.0104 18.2262 19.0015 18.184 18.9842C18.1419 18.9668 18.1036 18.9412 18.0713 18.909C18.0391 18.8767 18.0135 18.8384 17.9961 18.7962C17.9787 18.7541 17.9698 18.7089 17.97 18.6633V16.0013L16.198 17.1073C16.1249 17.1533 16.0403 17.1777 15.954 17.1777C15.8676 17.1777 15.783 17.1533 15.71 17.1073L13.948 16.0013V18.6633C13.948 18.8513 13.798 19.0103 13.601 19.0103H12.598C12.5524 19.0104 12.5072 19.0015 12.465 18.9842C12.4229 18.9668 12.3846 18.9412 12.3523 18.909C12.3201 18.8767 12.2945 18.8384 12.2771 18.7962C12.2597 18.7541 12.2508 18.7089 12.251 18.6633V13.5263C12.251 13.4043 12.2994 13.2873 12.3857 13.201C12.472 13.1148 12.589 13.0663 12.711 13.0663C12.804 13.0663 12.888 13.0953 12.963 13.1513L15.757 15.0733C15.8127 15.1146 15.8801 15.1369 15.9495 15.1369C16.0188 15.1369 16.0863 15.1146 16.142 15.0733L18.935 13.1513C19.0041 13.105 19.0844 13.0782 19.1674 13.0736C19.2504 13.069 19.3332 13.0868 19.407 13.1251C19.4808 13.1634 19.5429 13.2209 19.5869 13.2915C19.6309 13.3621 19.6551 13.4432 19.657 13.5263V18.6633C19.6593 18.7079 19.6525 18.7525 19.6371 18.7943C19.6217 18.8362 19.5979 18.8746 19.5672 18.907C19.5366 18.9394 19.4996 18.9653 19.4587 18.9831C19.4177 19.0008 19.3736 19.0101 19.329 19.0103ZM10.741 19.0013H4.46098C4.33898 19.0013 4.22197 18.9528 4.13571 18.8666C4.04944 18.7803 4.00098 18.6633 4.00098 18.5413V13.3763C4.00281 13.2833 4.0412 13.1947 4.10782 13.1298C4.17444 13.0649 4.26394 13.0288 4.35698 13.0293H5.37098C5.55798 13.0293 5.71798 13.1793 5.71798 13.3763V17.3043H9.52398V13.3763C9.52398 13.1883 9.67398 13.0293 9.87098 13.0293H10.855C11.043 13.0293 11.202 13.1793 11.202 13.3763V18.5423C11.2017 18.6641 11.1531 18.7809 11.0669 18.8669C10.9807 18.953 10.8638 19.0013 10.742 19.0013H10.741ZM21.185 13.0293H27.467C27.5888 13.0296 27.7055 13.0781 27.7916 13.1644C27.8776 13.2506 27.926 13.3675 27.926 13.4893V18.6543C27.926 18.8423 27.776 19.0013 27.588 19.0013H26.576C26.5304 19.0014 26.4852 18.9925 26.443 18.9752C26.4009 18.9578 26.3626 18.9322 26.3303 18.9C26.2981 18.8677 26.2725 18.8294 26.2551 18.7873C26.2377 18.7451 26.2288 18.6999 26.229 18.6543V14.9513C26.2282 14.8919 26.2042 14.8351 26.1622 14.7931C26.1202 14.751 26.0634 14.7271 26.004 14.7263H22.657C22.5975 14.7271 22.5408 14.751 22.4987 14.7931C22.4567 14.8351 22.4328 14.8919 22.432 14.9513V18.6543C22.432 18.8423 22.282 19.0013 22.085 19.0013H21.073C21.0274 19.0014 20.9822 18.9925 20.94 18.9752C20.8979 18.9578 20.8596 18.9322 20.8273 18.9C20.7951 18.8677 20.7695 18.8294 20.7521 18.7873C20.7347 18.7451 20.7258 18.6999 20.726 18.6543V13.4883C20.7262 13.3665 20.7748 13.2497 20.8611 13.1637C20.9473 13.0776 21.0641 13.0293 21.186 13.0293H21.185Z" fill="white"/>
<path d="M23.348 16.0293H24.351C24.538 16.0293 24.698 16.1793 24.698 16.3763V17.3983C24.698 17.5863 24.548 17.7453 24.351 17.7453H23.348C23.3024 17.7454 23.2572 17.7365 23.215 17.7192C23.1729 17.7018 23.1346 17.6762 23.1023 17.644C23.0701 17.6117 23.0445 17.5734 23.0271 17.5312C23.0097 17.4891 23.0008 17.4439 23.001 17.3983V16.3673C23.001 16.1793 23.161 16.0293 23.348 16.0293Z" fill="white"/>
</g>
<defs>
<clipPath id="clip0_1_5212">
<rect width="32" height="32" fill="white" transform="translate(0.000976562 0.0292969)"/>
</clipPath>
</defs>
</svg>
