<svg width="32" height="33" viewBox="0 0 32 33" fill="none" xmlns="http://www.w3.org/2000/svg">
<g clip-path="url(#clip0_1_5198)">
<path d="M16 32.0312C24.8366 32.0312 32 24.8678 32 16.0312C32 7.19469 24.8366 0.03125 16 0.03125C7.16344 0.03125 0 7.19469 0 16.0312C0 24.8678 7.16344 32.0312 16 32.0312Z" fill="#F58634"/>
<path d="M13.288 22.8082H13.292C14.481 22.6642 15.481 22.3042 16.292 21.7282C17.366 20.9582 17.903 19.9802 17.903 18.7942C17.903 17.7942 17.51 16.9572 16.725 16.2722C15.938 15.5892 14.872 15.1742 13.527 15.0302C13.07 14.9712 12.422 14.9282 11.59 14.8802C9.77598 14.7702 8.59898 14.5222 8.05298 14.1332C7.85888 13.9939 7.6955 13.8163 7.57298 13.6112C7.46919 13.4247 7.41545 13.2146 7.41698 13.0012C7.41698 12.4402 7.74098 11.9662 8.39398 11.5932C9.04598 11.2212 9.86998 11.0312 10.872 11.0312C11.821 11.0312 12.762 11.1932 13.652 11.5112C17.478 12.8752 21.132 17.6432 23.565 21.0572C21.582 22.2622 18.881 23.0052 15.905 23.0052C15.029 23.0052 14.154 22.9402 13.288 22.8082ZM9.00898 20.8662C5.51598 19.5912 3.98698 16.4402 5.71198 13.3802C5.75998 13.8102 5.91898 14.2232 6.17498 14.5802C6.49498 15.0292 6.96498 15.3942 7.58198 15.6812C9.73698 16.6172 13.7 16.0192 15.332 17.2082C15.881 17.6082 16.156 18.1192 16.156 18.7422C16.156 19.5252 15.773 20.1662 15.007 20.6642C14.242 21.1622 13.246 21.4112 12.02 21.4112C10.9926 21.4054 9.97413 21.221 9.00998 20.8662H9.00898Z" fill="white"/>
<path opacity="0.5" d="M26.084 18.9062V13.0522C26.741 13.9412 27.108 14.9342 27.108 15.9792C27.108 17.0252 26.741 18.0162 26.084 18.9062ZM24.435 11.4462L24.44 18.9072C22.097 15.5812 18.596 11.3962 14.293 9.99824C13.5486 9.75515 12.7796 9.59518 12 9.52124C13.334 9.1925 14.7031 9.02795 16.077 9.03124C19.417 9.03124 22.412 9.96724 24.435 11.4462Z" fill="white"/>
</g>
<defs>
<clipPath id="clip0_1_5198">
<rect width="32" height="32" fill="white" transform="translate(0 0.03125)"/>
</clipPath>
</defs>
</svg>
