<svg width="32" height="33" viewBox="0 0 32 33" fill="none" xmlns="http://www.w3.org/2000/svg">
<g clip-path="url(#clip0_1_5194)">
<path d="M16 32.0312C24.8366 32.0312 32 24.8678 32 16.0312C32 7.19469 24.8366 0.03125 16 0.03125C7.16344 0.03125 0 7.19469 0 16.0312C0 24.8678 7.16344 32.0312 16 32.0312Z" fill="#6CDE07"/>
<path fill-rule="evenodd" clip-rule="evenodd" d="M23 19.1852C23 21.7552 20.914 23.4613 17.834 23.7183V26.0312H15.724V23.6952C13.6407 23.4603 11.6613 22.6601 10 21.3813L11.552 19.2553C12.935 20.3303 14.244 21.0312 15.821 21.2652V16.6852C12.28 15.7972 10.631 14.5122 10.631 11.8722C10.631 9.34925 12.692 7.62025 15.724 7.38625V6.03125H17.834V7.43325C19.4831 7.61643 21.0554 8.22879 22.394 9.20925L21.035 11.4052C19.968 10.6342 18.877 10.1432 17.737 9.91025V14.3492C21.424 15.2372 23 16.6622 23 19.1852ZM15.82 13.8582V9.74625C14.293 9.86325 13.493 10.6813 13.493 11.7093C13.493 12.6893 13.953 13.3212 15.821 13.8593L15.82 13.8582ZM20.138 19.3482C20.138 18.2982 19.628 17.6672 17.737 17.1292V21.3592C19.265 21.2412 20.138 20.4703 20.138 19.3493V19.3482Z" fill="white"/>
</g>
<defs>
<clipPath id="clip0_1_5194">
<rect width="32" height="32" fill="white" transform="translate(0 0.03125)"/>
</clipPath>
</defs>
</svg>
