<svg width="32" height="33" viewBox="0 0 32 33" fill="none" xmlns="http://www.w3.org/2000/svg">
<g clip-path="url(#clip0_1_5182)">
<path d="M16 32.0312C24.8366 32.0312 32 24.8678 32 16.0312C32 7.19469 24.8366 0.03125 16 0.03125C7.16344 0.03125 0 7.19469 0 16.0312C0 24.8678 7.16344 32.0312 16 32.0312Z" fill="#30367A"/>
<path d="M13.853 22.3293V9.05925H10V6.03125H21V9.05925H17.147V22.3293H13.853ZM12.966 26.0312C10.977 26.0312 10.036 25.0752 10.036 23.0532V9.92725H12.93V22.9193C12.93 23.2393 13.035 23.3452 13.349 23.3452H17.688C18.002 23.3452 18.108 23.2383 18.108 22.9193V9.92725H21V23.0532C21 25.0752 20.058 26.0312 18.07 26.0312H12.966Z" fill="white"/>
</g>
<defs>
<clipPath id="clip0_1_5182">
<rect width="32" height="32" fill="white" transform="translate(0 0.03125)"/>
</clipPath>
</defs>
</svg>
