<svg width="32" height="33" viewBox="0 0 32 33" fill="none" xmlns="http://www.w3.org/2000/svg">
<g clip-path="url(#clip0_1_5178)">
<path d="M16.0005 32.0312C24.837 32.0312 32.0005 24.8678 32.0005 16.0312C32.0005 7.19469 24.837 0.03125 16.0005 0.03125C7.16393 0.03125 0.000488281 7.19469 0.000488281 16.0312C0.000488281 24.8678 7.16393 32.0312 16.0005 32.0312Z" fill="#FF9933"/>
<path d="M6.00049 8.03125C7.10449 8.03325 8.20949 8.03325 9.31249 8.03125L11.4035 19.2113C11.4365 19.3763 11.4765 19.5393 11.5195 19.7013C11.6835 19.0513 11.7865 18.3873 11.9235 17.7313L13.8275 8.03125L17.0315 8.03225C15.8565 13.2643 14.6815 18.4972 13.5045 23.7292H9.52749C8.35049 18.5002 7.17549 13.2713 6.00049 8.04125V8.03125ZM18.3145 12.9633C19.0115 12.0873 20.1255 11.6902 21.1995 11.6202C22.2595 11.5462 23.4015 11.6423 24.2995 12.2743C25.0945 12.8302 25.5305 13.7702 25.7375 14.7052C25.9885 15.8772 26.0015 17.0812 26.0005 18.2752H20.1305C20.1355 19.1582 20.0805 20.0693 20.3755 20.9153C20.5185 21.3313 20.7855 21.7452 21.2095 21.8962C21.6615 22.0433 22.2055 21.9473 22.5355 21.5833C22.9755 21.0852 23.0675 20.3872 23.1635 19.7482H25.8275C25.7675 20.8082 25.5715 21.9282 24.8775 22.7612C24.1815 23.6272 23.0595 23.9812 21.9975 24.0243C20.8435 24.0683 19.5905 23.9113 18.6705 23.1343C17.8155 22.4213 17.4425 21.2913 17.2945 20.2083C17.1465 18.9613 17.1385 17.6993 17.2075 16.4463C17.3005 15.2243 17.5215 13.9302 18.3135 12.9622L18.3145 12.9633ZM20.5885 14.2083C20.1345 14.8622 20.1225 15.7043 20.1305 16.4753H23.1625C23.1155 15.7423 23.1205 14.9682 22.7905 14.2972C22.3805 13.4692 21.0845 13.4663 20.5905 14.2093H20.5885V14.2083Z" fill="white"/>
</g>
<defs>
<clipPath id="clip0_1_5178">
<rect width="32" height="32" fill="white" transform="translate(0.000488281 0.03125)"/>
</clipPath>
</defs>
</svg>
