<svg width="32" height="33" viewBox="0 0 32 33" fill="none" xmlns="http://www.w3.org/2000/svg">
<g clip-path="url(#clip0_1_5174)">
<path d="M16.0005 32.0312C24.837 32.0312 32.0005 24.8678 32.0005 16.0312C32.0005 7.19469 24.837 0.03125 16.0005 0.03125C7.16393 0.03125 0.000488281 7.19469 0.000488281 16.0312C0.000488281 24.8678 7.16393 32.0312 16.0005 32.0312Z" fill="#15BDFF"/>
<path d="M14.7367 25.2652L7.03867 9.57725C7.0106 9.51946 6.99764 9.45549 7.00101 9.39133C7.00438 9.32717 7.02396 9.26492 7.05792 9.21038C7.09188 9.15584 7.13911 9.1108 7.19521 9.07948C7.2513 9.04815 7.31442 9.03156 7.37867 9.03125H10.0467C10.1897 9.03125 10.3237 9.11125 10.3867 9.23725L16.0087 20.6182C16.5087 21.6383 17.9597 21.6383 18.4607 20.6182L24.0647 9.24625C24.097 9.18402 24.1458 9.13187 24.2058 9.09554C24.2657 9.0592 24.3345 9.04007 24.4047 9.04025H24.7367C24.9337 9.04025 25.0587 9.24625 24.9697 9.41625L17.1897 25.2663C16.6887 26.2863 15.2387 26.2863 14.7367 25.2663V25.2652Z" fill="white"/>
</g>
<defs>
<clipPath id="clip0_1_5174">
<rect width="32" height="32" fill="white" transform="translate(0.000488281 0.03125)"/>
</clipPath>
</defs>
</svg>
