<svg width="32" height="33" viewBox="0 0 32 33" fill="none" xmlns="http://www.w3.org/2000/svg">
<g clip-path="url(#clip0_1_5170)">
<path d="M16.0005 32.0312C24.837 32.0312 32.0005 24.8678 32.0005 16.0312C32.0005 7.19469 24.837 0.03125 16.0005 0.03125C7.16393 0.03125 0.000488281 7.19469 0.000488281 16.0312C0.000488281 24.8678 7.16393 32.0312 16.0005 32.0312Z" fill="#565656"/>
<path d="M11.1335 14.3272H8.00549V12.6082H10.4755L8.58049 7.65825L10.1445 7.03125L13.6945 16.2983L18.2955 16.3283L21.8565 7.03125L23.4215 7.65825L21.5255 12.6082H23.9955V14.3282H20.8675L20.0965 16.3382L24.0005 16.3633L23.9905 18.0823L19.4405 18.0532L16.0005 27.0312L12.5445 18.0103L8.00049 17.9802L8.01049 16.2623L11.8845 16.2873L11.1335 14.3272ZM14.3535 18.0212L16.0005 22.3193L17.6385 18.0422L14.3535 18.0212Z" fill="white"/>
</g>
<defs>
<clipPath id="clip0_1_5170">
<rect width="32" height="32" fill="white" transform="translate(0.000488281 0.03125)"/>
</clipPath>
</defs>
</svg>
