<svg width="32" height="33" viewBox="0 0 32 33" fill="none" xmlns="http://www.w3.org/2000/svg">
<g clip-path="url(#clip0_1_5162)">
<path d="M16.0005 32.0312C24.837 32.0312 32.0005 24.8678 32.0005 16.0312C32.0005 7.19469 24.837 0.03125 16.0005 0.03125C7.16393 0.03125 0.000488281 7.19469 0.000488281 16.0312C0.000488281 24.8678 7.16393 32.0312 16.0005 32.0312Z" fill="#338BE5"/>
<path d="M22.6305 16.9492C23.3605 17.1452 24.0805 17.3722 24.7285 17.7712C25.0165 17.9482 25.2855 18.1562 25.5285 18.3902C25.8885 18.7902 25.8645 19.2122 25.5365 19.6353C25.2485 20.0033 24.8565 20.2382 24.4395 20.4342C23.3835 20.9432 22.2635 21.2333 21.1195 21.4053C20.1905 21.5453 19.2465 21.6253 18.3095 21.7423C18.2654 21.7516 18.2237 21.7696 18.1866 21.7952C18.1496 21.8208 18.1179 21.8534 18.0935 21.8913C17.4375 22.8693 16.7895 23.8482 16.1335 24.8272C16.0808 24.8918 16.0327 24.96 15.9895 25.0312C15.2966 23.9916 14.611 22.9473 13.9325 21.8983C13.9039 21.8491 13.8631 21.8082 13.814 21.7795C13.765 21.7507 13.7093 21.7352 13.6525 21.7342C11.7795 21.6012 9.93149 21.3583 8.16249 20.7243C7.60249 20.5283 7.06649 20.2852 6.60249 19.9172C6.57749 19.8932 6.54549 19.8772 6.52249 19.8542C5.84249 19.2832 5.82549 18.6722 6.48249 18.0842C7.00249 17.6142 7.64249 17.3483 8.30649 17.1443C8.97049 16.9403 9.64249 16.7923 10.3155 16.6203C10.3475 16.6123 10.3795 16.6123 10.4355 16.5963C8.98649 14.3803 7.55449 12.1873 6.08949 9.96325C6.17749 9.95525 6.24149 9.94725 6.29749 9.94725C7.20249 9.93925 8.10649 9.94725 9.01049 9.93925C9.0744 9.93541 9.13804 9.95042 9.19351 9.98242C9.24897 10.0144 9.29382 10.062 9.32249 10.1193C11.5125 13.4593 13.7005 16.8003 15.8855 20.1443C15.9176 20.2001 15.9551 20.2527 15.9975 20.3013C16.5015 19.5413 16.9895 18.8132 17.4695 18.0842C19.2295 15.4242 20.9905 12.7673 22.7515 10.1123C22.8155 10.0183 22.8635 9.94725 23.0075 9.94725C23.9595 9.95525 24.9125 9.95525 25.8645 9.95525C25.9095 9.95525 25.9545 9.95725 26.0005 9.96325C24.5146 12.2051 23.0259 14.4451 21.5345 16.6833C21.9115 16.7763 22.2715 16.8552 22.6315 16.9492H22.6305ZM8.89849 18.8293C9.08449 19.0363 9.30349 19.2143 9.54649 19.3533C10.5465 19.8863 11.6515 20.0813 12.7965 20.2533C12.7805 20.1993 12.7805 20.1753 12.7725 20.1602C12.1235 19.1803 11.4835 18.1943 10.8355 17.2153C10.8095 17.1897 10.7778 17.1707 10.743 17.1597C10.7083 17.1488 10.6714 17.1462 10.6355 17.1523C10.2555 17.2773 9.88349 17.4263 9.52249 17.5993C9.2888 17.728 9.08015 17.8977 8.90649 18.1003C8.80942 18.196 8.75412 18.3263 8.75262 18.4626C8.75112 18.599 8.80355 18.7304 8.89849 18.8283V18.8293ZM21.5025 19.6742C21.9386 19.5565 22.3377 19.3301 22.6625 19.0163C22.9835 18.6963 22.9835 18.3353 22.6625 18.0063C22.5831 17.9204 22.4919 17.8463 22.3915 17.7862C22.0475 17.6142 21.6875 17.4502 21.3345 17.2782C21.2145 17.2153 21.1425 17.2622 21.0705 17.3722C20.6945 17.9522 20.3105 18.5222 19.9265 19.0952C19.6865 19.4552 19.4465 19.8232 19.1985 20.1992C19.2622 20.2073 19.3267 20.2073 19.3905 20.1992C20.0945 20.0272 20.8065 19.8702 21.5025 19.6742ZM21.5105 9.03125L16.0295 17.7633L10.4755 9.03125H21.5105Z" fill="white"/>
</g>
<defs>
<clipPath id="clip0_1_5162">
<rect width="32" height="32" fill="white" transform="translate(0.000488281 0.03125)"/>
</clipPath>
</defs>
</svg>
