<svg width="32" height="33" viewBox="0 0 32 33" fill="none" xmlns="http://www.w3.org/2000/svg">
<g clip-path="url(#clip0_1_5158)">
<path d="M16.0005 32.0312C24.837 32.0312 32.0005 24.8678 32.0005 16.0312C32.0005 7.19469 24.837 0.03125 16.0005 0.03125C7.16393 0.03125 0.000488281 7.19469 0.000488281 16.0312C0.000488281 24.8678 7.16393 32.0312 16.0005 32.0312Z" fill="#408AF1"/>
<path d="M23.0493 10.8075C23.1559 10.6263 23.2977 10.4684 23.4663 10.3429C23.6349 10.2175 23.8269 10.127 24.031 10.077C24.2351 10.0269 24.4472 10.0183 24.6547 10.0515C24.8623 10.0847 25.061 10.1592 25.2393 10.2705C25.9893 10.7405 26.2253 11.7405 25.7653 12.5075C24.0613 15.3455 22.1383 18.3155 20.5353 20.5835C18.1953 23.8935 17.6883 25.0305 16.0003 25.0305C14.3123 25.0305 13.9323 24.0275 11.5253 20.5745C10.0953 18.5245 8.30231 15.7795 6.25531 12.5385C6.02602 12.1757 5.94736 11.7378 6.03607 11.318C6.12479 10.8981 6.37388 10.5294 6.73031 10.2905C6.90586 10.1749 7.1028 10.0956 7.30949 10.0574C7.51618 10.0192 7.72843 10.0229 7.9337 10.0681C8.13897 10.1133 8.3331 10.1992 8.50462 10.3207C8.67614 10.4422 8.82156 10.5968 8.93231 10.7755C10.9553 13.9775 15.5253 20.6515 16.0133 21.2465C16.5233 20.6425 21.3853 13.5795 23.0493 10.8065V10.8075Z" fill="white"/>
</g>
<defs>
<clipPath id="clip0_1_5158">
<rect width="32" height="32" fill="white" transform="translate(0.000488281 0.03125)"/>
</clipPath>
</defs>
</svg>
