<svg width="32" height="33" viewBox="0 0 32 33" fill="none" xmlns="http://www.w3.org/2000/svg">
<g clip-path="url(#clip0_1_5154)">
<path d="M16.0005 32.0312C24.837 32.0312 32.0005 24.8678 32.0005 16.0312C32.0005 7.19469 24.837 0.03125 16.0005 0.03125C7.16393 0.03125 0.000488281 7.19469 0.000488281 16.0312C0.000488281 24.8678 7.16393 32.0312 16.0005 32.0312Z" fill="#418BCA"/>
<path d="M20.2655 8.03125H25.0005L16.0005 26.0312L7.00049 8.03125H11.7045L16.0315 17.1443L20.2655 8.03125ZM16.0005 12.9902C15.2125 12.9902 14.5735 12.3343 14.5735 11.5253C14.5735 10.7163 15.2125 10.0592 16.0005 10.0592C16.7885 10.0592 17.4275 10.7163 17.4275 11.5253C17.4275 12.3343 16.7875 12.9902 16.0005 12.9902ZM22.4655 17.0303C23.2535 17.0303 23.8925 17.6873 23.8915 18.4963C23.8915 19.3063 23.2535 19.9613 22.4655 19.9613C21.6775 19.9613 21.0385 19.3053 21.0385 18.4963C21.0385 17.6873 21.6775 17.0312 22.4655 17.0312V17.0303Z" fill="white"/>
</g>
<defs>
<clipPath id="clip0_1_5154">
<rect width="32" height="32" fill="white" transform="translate(0.000488281 0.03125)"/>
</clipPath>
</defs>
</svg>
