<svg width="32" height="33" viewBox="0 0 32 33" fill="none" xmlns="http://www.w3.org/2000/svg">
<g clip-path="url(#clip0_1_5148)">
<path d="M16.001 32.0312C24.8375 32.0312 32.001 24.8678 32.001 16.0312C32.001 7.19469 24.8375 0.03125 16.001 0.03125C7.16442 0.03125 0.000976562 7.19469 0.000976562 16.0312C0.000976562 24.8678 7.16442 32.0312 16.001 32.0312Z" fill="#FFB500"/>
<path d="M27.8868 14.5466C27.5976 12.216 26.631 10.0214 25.1068 8.23463C24.0403 6.9806 22.7244 5.96233 21.2428 5.24463C19.2543 4.27356 17.0353 3.87305 14.8328 4.08763C12.7902 4.28516 10.8326 5.00387 9.14747 6.17493C7.46233 7.34598 6.10613 8.93014 5.2088 10.7756C4.13808 12.9794 3.76682 15.4579 4.1448 17.8786C4.50647 20.1915 5.53917 22.3473 7.1148 24.0786C9.3598 26.5806 12.7058 28.0436 16.0668 28.0046C17.7587 27.9939 19.4291 27.625 20.9683 26.9224C22.5074 26.2198 23.8804 25.1994 24.9969 23.9281C26.1134 22.6569 26.9481 21.1637 27.4462 19.5468C27.9443 17.9298 28.0945 16.2258 27.8868 14.5466ZM24.2328 11.9566C24.178 12.033 24.1305 12.1144 24.0908 12.1996L18.8128 23.3176C18.5598 23.8486 18.3058 24.3856 18.0178 24.8976C16.7108 24.8876 15.4038 24.8926 14.0958 24.8926C12.0128 20.6046 9.9398 16.3126 7.8518 12.0296C7.8088 11.9466 7.7648 11.8586 7.7208 11.7756C7.7548 11.7516 7.8328 11.7076 7.8668 11.6876C8.6818 10.6736 9.5068 9.66363 10.3258 8.64863C10.4278 8.51763 10.5458 8.39063 10.6618 8.27363C10.7158 8.36063 10.7688 8.44863 10.8128 8.54663C11.2668 9.59063 11.7298 10.6396 12.1928 11.6826C12.6628 11.6826 13.1298 11.6926 13.6028 11.6626C13.7738 11.8246 13.8668 12.0396 13.9348 12.2586C14.0228 12.0346 14.0568 11.7956 14.0668 11.5516C14.2178 10.1516 14.2428 8.73663 14.3938 7.33663C14.4178 7.03463 14.8718 7.03463 14.9108 7.32663C15.0568 8.65363 15.0908 9.99563 15.1988 11.3266C15.2188 11.7266 15.2328 12.1266 15.3208 12.5166C15.5208 12.2536 15.4568 11.7906 15.8228 11.6826C16.1258 11.5806 16.4668 11.7516 16.7548 11.5706C17.1498 11.3316 17.2958 10.8636 17.5448 10.4976C17.6868 10.2586 18.0128 10.0876 18.2768 10.2246C18.5398 10.3266 18.6518 10.6096 18.7888 10.8346C18.9448 11.0926 19.0868 11.3806 19.3398 11.5516C19.5648 11.6486 19.8178 11.6636 20.0618 11.6586C20.5548 10.5466 21.0618 9.43863 21.5648 8.33163C22.4428 9.43463 23.2718 10.5716 24.1498 11.6736C24.2818 11.7316 24.3058 11.8296 24.2328 11.9566Z" fill="white"/>
<path d="M17.718 10.4303C17.323 10.8603 17.182 11.5523 16.591 11.7723C16.289 11.9183 15.923 11.7963 15.621 11.9093C15.357 12.4263 15.391 13.0352 15.191 13.5722C15.055 13.8262 14.645 13.6992 14.645 13.4212C14.475 11.9622 14.46 10.4892 14.304 9.03125C14.138 10.3433 14.094 11.6692 13.889 12.9712C13.889 13.3092 13.357 13.3622 13.309 13.0262C13.206 12.6462 13.182 12.2462 12.991 11.8892C12.661 11.8844 12.331 11.8844 12.001 11.8892C13.245 14.7092 14.479 17.5282 15.723 20.3482C16.982 17.5282 18.284 14.7283 19.533 11.9043L19.538 11.8942C19.211 11.8542 18.855 11.8212 18.582 11.6163C18.202 11.2993 18.055 10.7913 17.718 10.4303Z" fill="white"/>
</g>
<defs>
<clipPath id="clip0_1_5148">
<rect width="32" height="32" fill="white" transform="translate(0.000976562 0.03125)"/>
</clipPath>
</defs>
</svg>
