<svg width="32" height="33" viewBox="0 0 32 33" fill="none" xmlns="http://www.w3.org/2000/svg">
<g clip-path="url(#clip0_1_5144)">
<path d="M16.001 32.0312C24.8375 32.0312 32.001 24.8678 32.001 16.0312C32.001 7.19469 24.8375 0.03125 16.001 0.03125C7.16442 0.03125 0.000976562 7.19469 0.000976562 16.0312C0.000976562 24.8678 7.16442 32.0312 16.001 32.0312Z" fill="#048657"/>
<path d="M3.00098 16.2673L4.95098 14.0462H11.889L16.152 19.4843L27.307 4.03125C27.9917 4.64925 28.6147 5.33247 29.167 6.07125C29.7426 6.83695 30.2435 7.65602 30.663 8.51725L16.968 27.4603C16.709 27.7323 16.437 27.8682 16.152 27.8682C15.866 27.8682 15.579 27.7323 15.29 27.4603L6.62898 16.2663H3.00098V16.2673Z" fill="white"/>
</g>
<defs>
<clipPath id="clip0_1_5144">
<rect width="32" height="32" fill="white" transform="translate(0.000976562 0.03125)"/>
</clipPath>
</defs>
</svg>
