<svg width="32" height="33" viewBox="0 0 32 33" fill="none" xmlns="http://www.w3.org/2000/svg">
<g clip-path="url(#clip0_1_5138)">
<path d="M16.001 32.0312C24.8375 32.0312 32.001 24.8678 32.001 16.0312C32.001 7.19469 24.8375 0.03125 16.001 0.03125C7.16442 0.03125 0.000976562 7.19469 0.000976562 16.0312C0.000976562 24.8678 7.16442 32.0312 16.001 32.0312Z" fill="#2A5284"/>
<path d="M20.251 5.03125H23.274L17.592 12.6153H22.691L10.511 26.9152L14.451 16.8112H10.001L14.488 5.03125H20.251Z" fill="white" fill-opacity="0.704"/>
<path d="M20.251 5.03125H20.433L15.326 13.7442H19.996L10.511 26.9142L14.451 16.8112H10.001L14.488 5.03125H20.251Z" fill="white"/>
</g>
<defs>
<clipPath id="clip0_1_5138">
<rect width="32" height="32" fill="white" transform="translate(0.000976562 0.03125)"/>
</clipPath>
</defs>
</svg>
