<svg width="32" height="33" viewBox="0 0 32 33" fill="none" xmlns="http://www.w3.org/2000/svg">
<g clip-path="url(#clip0_1_5134)">
<path d="M16 32.0322C24.8366 32.0322 32 24.8688 32 16.0322C32 7.19567 24.8366 0.0322266 16 0.0322266C7.16344 0.0322266 0 7.19567 0 16.0322C0 24.8688 7.16344 32.0322 16 32.0322Z" fill="#399B32"/>
<path d="M21.89 7.50022C21.782 7.93422 21.801 8.49022 21.921 8.54022C22.041 8.59122 22.343 8.30422 22.52 7.97822C22.69 7.67822 22.841 7.58922 23.05 7.66622C23.327 7.77422 23.283 7.87022 22.715 8.36122C22.243 8.77022 22.148 8.91722 22.275 9.04422C22.35 9.12122 22.406 9.10822 22.677 8.96122C23.017 8.78322 23.207 8.79522 23.207 9.00022C23.207 9.09522 23.081 9.17222 22.621 9.35022C22.293 9.47822 21.971 9.64422 21.896 9.72722C21.745 9.89322 21.48 10.4172 21.165 11.1892C20.894 11.8592 20.635 12.3512 20.465 12.5422C20.326 12.6952 19.86 12.7922 18.877 12.8682C18.417 12.9062 18.36 12.9002 18.335 12.7912C18.2642 12.4941 18.2074 12.1937 18.165 11.8912C18.165 11.8722 18.398 11.8782 18.688 11.8982C19.205 11.9362 19.721 12.0762 19.961 12.2422C20.144 12.3702 20.163 12.3512 20.245 11.9932C20.345 11.5852 20.56 11.0492 20.887 10.3852C21.133 9.89322 21.14 9.85522 21.114 9.38922C21.083 8.87222 20.994 8.64922 20.686 8.31022C20.572 8.19022 20.503 8.05522 20.522 8.00422C20.538 7.96502 20.5507 7.92454 20.56 7.88322C20.56 7.87022 20.616 7.85722 20.68 7.85722C20.755 7.85722 20.887 7.97222 21.007 8.14422C21.341 8.61722 21.442 8.52722 21.442 7.74222C21.442 7.38522 21.467 7.23222 21.549 7.14222C21.675 7.00222 21.776 6.99622 21.883 7.12322C21.946 7.20022 21.946 7.28322 21.89 7.50022ZM16.879 10.1742C16.923 10.6472 17.011 10.8122 17.295 10.9142C17.408 10.9592 17.565 11.0242 17.641 11.0492C17.824 11.1252 17.875 11.3992 18.07 13.1872C18.278 15.1272 18.322 15.4022 18.518 16.0022C18.814 16.9142 18.788 17.9742 18.442 19.0402C18.265 19.5892 18.07 19.8382 17.667 20.0552C16.86 20.4822 16.027 20.1702 15.379 19.1992C14.897 18.4992 14.719 17.6292 14.887 16.7932C14.982 16.3462 15.032 15.6702 14.987 15.5032C14.969 15.4212 14.767 15.1662 14.54 14.9232C13.834 14.1892 13.09 12.8742 13.236 12.6382C13.28 12.5742 13.311 12.3762 13.311 12.2042C13.311 11.8532 13.211 11.7122 12.769 11.4642C12.479 11.2982 12.46 11.1322 12.7 10.6722C12.832 10.4042 12.908 10.3472 13.57 10.0082C14.244 9.66422 14.547 9.56822 15.549 9.38922C15.965 9.31222 16.267 9.31922 16.494 9.41522C16.759 9.53022 16.834 9.67622 16.879 10.1752V10.1742ZM10.916 12.5552C10.916 12.8802 11.023 13.2002 11.099 13.1172C11.131 13.0852 11.199 12.9062 11.263 12.7212C11.363 12.4012 11.547 12.2112 11.673 12.2932C11.78 12.3632 11.742 12.7332 11.603 12.9632C11.414 13.2762 11.414 13.8702 11.61 14.2662C11.805 14.6492 12.208 15.0702 12.385 15.0702C12.492 15.0632 12.618 14.9102 12.965 14.3172L13.405 13.5702L13.475 14.0172C13.545 14.5212 13.513 14.6742 13.229 15.1662C12.914 15.7212 12.561 16.1552 12.429 16.1552C12.278 16.1552 11.937 15.8172 11.647 15.3832C11.534 15.2032 11.219 14.8592 10.954 14.6102L10.469 14.1572L10.173 14.2082C9.99183 14.2421 9.80825 14.2615 9.624 14.2662C9.397 14.2722 9.372 14.2592 9.354 14.1002C9.334 13.9602 9.366 13.9152 9.498 13.8832C9.64172 13.8579 9.78854 13.8555 9.933 13.8762C10.109 13.9022 10.242 13.8892 10.311 13.8382C10.418 13.7612 10.412 13.7482 10.305 13.6212C10.242 13.5442 10.053 13.4422 9.876 13.3852C9.436 13.2452 9.151 13.0532 9.151 12.9062C9.151 12.7152 9.391 12.6702 9.586 12.8292C10.236 13.3662 10.418 13.4422 10.589 13.2692C10.709 13.1492 10.677 12.9192 10.475 12.5172C10.299 12.1592 10.235 11.8272 10.33 11.7322C10.393 11.6622 10.557 11.6812 10.67 11.7702C10.803 11.8782 10.916 12.2302 10.916 12.5552ZM22.444 18.3052C22.287 18.4722 21.833 19.0022 21.436 19.4802C20.263 20.8972 20.144 21.0502 20.194 21.1022C20.244 21.1522 21.24 20.7122 21.467 20.5402C21.751 20.3162 22.267 19.7682 22.362 19.5822C22.406 19.5062 22.469 19.2702 22.514 19.0652C22.589 18.6822 22.797 18.3892 22.986 18.3892C23.112 18.3892 23.169 18.5362 23.119 18.7272C23.0331 18.943 22.9276 19.1506 22.804 19.3472C22.646 19.6082 22.539 19.8442 22.551 19.8702C22.614 19.9652 22.848 19.9202 23.119 19.7612C23.276 19.6712 23.503 19.4362 23.673 19.1932C24.007 18.7212 24.234 18.5172 24.436 18.5172C24.606 18.5172 24.808 18.7342 24.764 18.8612C24.744 18.9122 24.454 19.1612 24.127 19.4112C23.56 19.8382 23.383 20.0612 23.484 20.2272C23.541 20.3232 24.064 20.1952 24.619 19.9472C25.564 19.5192 25.823 19.4932 25.974 19.7802C26.1 20.0172 25.791 20.1632 24.581 20.4312C24.247 20.5082 23.881 20.6292 23.768 20.6992L23.56 20.8272L23.705 20.9482C23.831 21.0512 23.963 21.0702 24.587 21.0702C25.148 21.0702 25.357 21.0952 25.451 21.1652C25.571 21.2612 25.564 21.2682 25.388 21.4272C25.274 21.5232 25.168 21.5742 25.104 21.5482C24.827 21.4332 23.888 21.2612 23.547 21.2612C22.936 21.2612 22.885 21.4852 23.44 21.7012C23.692 21.8042 23.787 21.9192 23.736 22.0532C23.68 22.2062 23.528 22.1802 22.98 21.9252C21.87 21.4082 21.669 21.3822 20.34 21.5552C19.709 21.6382 19.526 21.6452 19.457 21.5802C19.318 21.4652 19.343 21.3572 19.539 21.1852C19.696 21.0512 20.913 18.7852 20.856 18.7342C20.824 18.7022 19.596 19.1422 18.706 19.5122C18.593 19.5572 18.593 19.5512 18.706 19.3722C19.123 18.6892 20.326 17.9222 21.726 17.4442C22.451 17.1952 22.495 17.1892 22.797 17.1952C22.999 17.2082 23.056 17.2342 23.068 17.3352C23.088 17.4952 22.835 17.8912 22.444 18.3052ZM7.992 20.5602C8.225 20.8922 8.761 21.4542 8.842 21.4542C8.925 21.4542 8.855 20.8982 8.704 20.3172C8.565 19.7872 8.553 19.5322 8.66 19.4242C8.742 19.3412 9.02 19.3222 9.133 19.3982C9.177 19.4242 9.227 19.7882 9.265 20.3372C9.335 21.3392 9.385 21.5242 9.63 21.6832C9.788 21.7922 9.8 21.7922 9.876 21.6902C9.914 21.6322 9.958 21.3962 9.965 21.1602C9.983 20.5282 10.135 20.2472 10.405 20.3372C10.614 20.4002 10.633 20.6622 10.475 21.1602C10.292 21.7402 10.261 22.1622 10.343 22.7302C10.463 23.5032 10.753 24.1922 10.897 24.0452C10.929 24.0202 10.947 23.1582 10.954 22.1372C10.96 20.5412 10.973 20.2222 11.068 19.9222C11.244 19.3722 11.282 19.3472 11.975 19.3472C13.116 19.3472 15.234 19.6542 15.517 19.8572C15.82 20.0752 15.757 20.1522 15.158 20.3432C13.853 20.7452 13.217 20.8222 12.429 20.6692C12.171 20.6172 11.937 20.5862 11.912 20.5992C11.887 20.6112 11.912 20.7582 11.962 20.9242C12.12 21.4412 12.076 21.7602 11.704 22.8962C11.509 23.4772 11.326 24.1542 11.301 24.3962C11.276 24.6392 11.206 24.8812 11.168 24.9322C11.004 25.1302 10.822 25.0412 10.525 24.6262C10.154 24.1162 9.567 23.5542 9.227 23.3752C9.082 23.2982 8.603 23.1582 8.168 23.0552C7.387 22.8772 7.135 22.7552 7.229 22.6032C7.261 22.5452 7.399 22.5392 7.702 22.5642C8.256 22.6222 8.301 22.5452 7.929 22.1942C7.52336 21.8341 7.05851 21.5469 6.555 21.3452C6.082 21.1542 6 21.0902 6 20.9372C6 20.8152 6.176 20.6872 6.347 20.6872C6.403 20.6872 6.656 20.8602 6.901 21.0772C7.418 21.5172 7.777 21.7282 7.973 21.6972C8.333 21.6452 7.903 20.8092 7.229 20.2472C6.983 20.0432 6.744 19.7942 6.693 19.6982C6.611 19.5382 6.611 19.5202 6.725 19.4372C6.82959 19.3764 6.95048 19.3495 7.071 19.3602C7.267 19.3802 7.311 19.4182 7.544 19.8262C7.683 20.0752 7.884 20.4062 7.992 20.5602ZM17.03 9.60022C17.352 9.55022 17.42 9.81122 17.42 9.80522C17.591 10.2452 17.49 10.7952 17.49 10.7952C17.263 10.7502 17.093 10.4692 17.093 10.4692C16.961 10.1562 17.03 9.60122 17.03 9.60122V9.60022ZM12.486 11.4202C12.486 11.4202 12.971 11.6882 13.154 11.9752C13.154 11.9752 13.28 12.2752 13.185 12.4922C13.185 12.4922 12.681 12.2562 12.429 11.8602C12.429 11.8672 12.265 11.6562 12.486 11.4202Z" fill="white"/>
</g>
<defs>
<clipPath id="clip0_1_5134">
<rect width="32" height="32" fill="white" transform="translate(0 0.0322266)"/>
</clipPath>
</defs>
</svg>
