<svg width="32" height="33" viewBox="0 0 32 33" fill="none" xmlns="http://www.w3.org/2000/svg">
<g clip-path="url(#clip0_1_5130)">
<path d="M16 32.0322C24.8366 32.0322 32 24.8688 32 16.0322C32 7.19567 24.8366 0.0322266 16 0.0322266C7.16344 0.0322266 0 7.19567 0 16.0322C0 24.8688 7.16344 32.0322 16 32.0322Z" fill="#136AAD"/>
<path fill-rule="evenodd" clip-rule="evenodd" d="M7 11.6222L9.667 12.7522V19.1052L16 15.3182L22.394 19.1052V12.7522L25 11.6222V23.5962L16 18.2812L7 23.5962V11.6222ZM7.303 11.1332L16 6.03223L24.758 11.1332L22.394 12.1112L16 8.41523L9.667 12.1112L7.303 11.1332ZM9.182 22.9542L11.152 21.8242L16.03 24.6492L20.848 21.8242L22.878 22.9542L16.03 27.0322L9.182 22.9542Z" fill="white"/>
</g>
<defs>
<clipPath id="clip0_1_5130">
<rect width="32" height="32" fill="white" transform="translate(0 0.0322266)"/>
</clipPath>
</defs>
</svg>
