<svg width="32" height="33" viewBox="0 0 32 33" fill="none" xmlns="http://www.w3.org/2000/svg">
<g clip-path="url(#clip0_1_5122)">
<path d="M16 32.0322C24.8366 32.0322 32 24.8688 32 16.0322C32 7.19567 24.8366 0.0322266 16 0.0322266C7.16344 0.0322266 0 7.19567 0 16.0322C0 24.8688 7.16344 32.0322 16 32.0322Z" fill="#F89022"/>
<path fill-rule="evenodd" clip-rule="evenodd" d="M28 19.4942H25.636L23.959 18.0582L22.288 19.4882H20.29L19.335 18.3282H16.043L16.876 17.2992H18.495L17.262 15.7912L12.957 21.0322H10.96L12.206 19.5102H10.125L9 16.3562L7.884 19.4862H5.773L4 14.5732H5.62L6.812 17.9192L8 14.5882H10L11.185 17.9122L12.369 14.5872H13.994L12.206 19.5102L12.604 19.0242L16.256 14.5792H18.266L21.305 18.2872L22.767 17.0302L18.14 13.0322H20.515L28 19.4942ZM25.655 16.5222L24.54 15.5662L25.653 14.6182L27.903 14.6202L25.655 16.5222Z" fill="white"/>
</g>
<defs>
<clipPath id="clip0_1_5122">
<rect width="32" height="32" fill="white" transform="translate(0 0.0322266)"/>
</clipPath>
</defs>
</svg>
