<svg width="32" height="33" viewBox="0 0 32 33" fill="none" xmlns="http://www.w3.org/2000/svg">
<g clip-path="url(#clip0_1_5112)">
<path d="M16 32.0322C24.8366 32.0322 32 24.8688 32 16.0322C32 7.19567 24.8366 0.0322266 16 0.0322266C7.16344 0.0322266 0 7.19567 0 16.0322C0 24.8688 7.16344 32.0322 16 32.0322Z" fill="#B80000"/>
<path d="M25.893 11.4192C26.049 11.6842 26.028 11.9622 25.873 12.2342C25.641 12.6042 25.427 12.9812 25.206 13.3542C24.6 14.3902 23.994 15.4262 23.386 16.4622C22.1725 18.5236 20.9578 20.5842 19.742 22.6442C19.6739 22.7708 19.5704 22.8748 19.4441 22.9436C19.3179 23.0123 19.1743 23.0428 19.031 23.0312C18.724 23.0172 18.506 22.8652 18.361 22.6002C18.212 22.3352 18.057 22.0732 17.901 21.8092C17.391 20.9372 16.879 20.0672 16.368 19.1982C16.254 19.0012 16.137 18.8082 16.006 18.5902C15.878 18.8072 15.757 19.0002 15.643 19.1982L14.11 21.8082C13.9534 22.0703 13.8001 22.3343 13.65 22.6002C13.505 22.8652 13.288 23.0172 12.98 23.0312C12.8368 23.042 12.6936 23.0112 12.5675 22.9426C12.4413 22.8739 12.3377 22.7703 12.269 22.6442C11.692 21.6732 11.122 20.7022 10.549 19.7272C9.90548 18.6402 9.26415 17.5519 8.62501 16.4622C8.02001 15.4262 7.41301 14.3902 6.80501 13.3542C6.58501 12.9812 6.36701 12.6042 6.13901 12.2342C5.97301 11.9622 5.94901 11.6842 6.10401 11.4192C6.25601 11.1582 6.50101 11.0322 6.81601 11.0322C8.78401 11.0392 10.753 11.0522 12.721 11.0352C13.218 11.0322 13.515 11.2222 13.747 11.6362C14.244 12.5232 14.773 13.3882 15.284 14.2652C15.498 14.6352 15.709 15.0082 15.926 15.3782C15.943 15.4052 15.971 15.4262 15.996 15.4492C16.0227 15.4302 16.0457 15.4065 16.064 15.3792C16.279 15.0092 16.489 14.6352 16.707 14.2652C17.221 13.3882 17.747 12.5192 18.244 11.6362C18.475 11.2222 18.772 11.0322 19.269 11.0362C21.238 11.0522 23.206 11.0392 25.175 11.0322C25.496 11.0322 25.741 11.1582 25.893 11.4192ZM15.05 17.1742C15.0693 17.1335 15.0795 17.0891 15.08 17.0441C15.0805 16.999 15.0713 16.9544 15.053 16.9132C14.953 16.7092 14.821 16.5162 14.704 16.3152C14 15.1132 13.295 13.9152 12.594 12.7102C12.522 12.5872 12.439 12.5432 12.294 12.5432C10.982 12.5502 9.66901 12.5502 8.35701 12.5532C8.29501 12.5532 8.23301 12.5632 8.14301 12.5702C9.74501 15.3032 11.333 18.0162 12.94 20.7562C13.078 20.5262 13.195 20.3422 13.306 20.1522C13.892 19.1622 14.473 18.1692 15.05 17.1742ZM19.06 20.7562C20.665 18.0162 22.254 15.3032 23.86 12.5702C23.767 12.5632 23.708 12.5532 23.646 12.5532C22.333 12.5502 21.021 12.5502 19.709 12.5432C19.564 12.5432 19.481 12.5872 19.409 12.7092C18.7066 13.9117 18.0032 15.1137 17.299 16.3152C17.181 16.5122 17.053 16.7052 16.949 16.9132C16.9303 16.9542 16.9206 16.9987 16.9206 17.0437C16.9206 17.0888 16.9303 17.1333 16.949 17.1742C17.529 18.1682 18.11 19.1612 18.694 20.1522C18.804 20.3422 18.922 20.5292 19.06 20.7562Z" fill="white"/>
</g>
<defs>
<clipPath id="clip0_1_5112">
<rect width="32" height="32" fill="white" transform="translate(0 0.0322266)"/>
</clipPath>
</defs>
</svg>
