<svg width="32" height="33" viewBox="0 0 32 33" fill="none" xmlns="http://www.w3.org/2000/svg">
<g clip-path="url(#clip0_1_5106)">
<path d="M16.0005 32.0322C24.837 32.0322 32.0005 24.8688 32.0005 16.0322C32.0005 7.19567 24.837 0.0322266 16.0005 0.0322266C7.16393 0.0322266 0.000488281 7.19567 0.000488281 16.0322C0.000488281 24.8688 7.16393 32.0322 16.0005 32.0322Z" fill="#5783CB"/>
<path d="M15.2405 4.03223H16.4805C19.1881 4.16256 21.7643 5.23832 23.7605 7.07223C24.1005 7.29223 24.1005 7.83223 23.7005 7.97223C23.3605 8.05223 23.1005 7.75223 22.8405 7.57223C20.6301 5.88895 17.8535 5.12773 15.0937 5.44846C12.334 5.76919 9.8059 7.1469 8.04049 9.29223C6.59899 11.0651 5.77516 13.2598 5.69401 15.5434C5.61286 17.8269 6.27882 20.0746 7.59083 21.9453C8.90284 23.816 10.7893 25.2077 12.9639 25.9092C15.1385 26.6107 17.4826 26.5837 19.6405 25.8322C21.4055 25.2213 22.982 24.1632 24.2159 22.761C25.4498 21.3588 26.299 19.6606 26.6805 17.8322C26.8565 17.1032 26.9705 16.3602 27.0205 15.6122C27.0333 15.5026 27.0886 15.4024 27.1744 15.3331C27.2602 15.2638 27.3698 15.2308 27.4796 15.2413C27.5895 15.2517 27.6908 15.3048 27.762 15.3891C27.8332 15.4734 27.8686 15.5822 27.8605 15.6922L27.8205 16.9322C27.6649 19.8242 26.4387 22.5547 24.3805 24.5922C22.2934 26.6612 19.5156 27.8863 16.5805 28.0322H15.4005C12.419 27.8815 9.60018 26.6267 7.49292 24.5121C5.38567 22.3974 4.14073 19.5743 4.00049 16.5922V15.4722C4.14589 12.5191 5.37111 9.72221 7.44332 7.61312C9.51554 5.50404 12.2903 4.22969 15.2405 4.03223Z" fill="white"/>
<path d="M25.1946 10.4848C25.9946 9.60478 27.6546 10.0848 27.8346 11.2648C28.0946 12.3248 27.0746 13.2248 26.0346 13.1448C24.6546 14.5448 23.5546 16.2048 22.6146 17.9448C22.2346 18.4648 22.7146 19.1448 22.4146 19.6848C22.0546 20.7448 20.4946 20.9648 19.8146 20.0848C19.3146 19.5248 19.4546 18.7448 19.7146 18.1248C19.3339 17.3348 18.8273 16.612 18.2146 15.9848L17.6146 16.0048C16.3011 17.4522 15.2153 19.0909 14.3946 20.8648C14.5346 21.4048 14.6346 22.0448 14.2546 22.5248C13.7546 23.3448 12.4346 23.4248 11.8146 22.6648C11.3546 22.1448 11.4146 21.4048 11.6546 20.7848C10.9641 18.9071 9.97836 17.1517 8.73455 15.5848C7.95455 15.5448 7.13455 15.0848 7.03455 14.2648C6.77455 13.1448 8.05455 12.0648 9.11455 12.5648C10.0546 12.9048 10.3146 14.1048 9.85455 14.9248C10.6101 16.8424 11.6704 18.6253 12.9946 20.2048C14.4339 18.7781 15.6057 17.105 16.4546 15.2648C16.2946 14.7248 16.1946 14.1048 16.5546 13.6048C17.0946 12.7248 18.5346 12.7048 19.0946 13.5848C19.5146 14.1248 19.3746 14.8448 19.1346 15.4248C19.5058 16.2164 19.9984 16.9451 20.5946 17.5848L21.1946 17.5448C22.6546 16.0048 23.9946 14.3048 24.8946 12.3648C24.7946 11.7248 24.6746 10.9648 25.2146 10.4848H25.1946Z" fill="white"/>
</g>
<defs>
<clipPath id="clip0_1_5106">
<rect width="32" height="32" fill="white" transform="translate(0.000488281 0.0322266)"/>
</clipPath>
</defs>
</svg>
