<svg width="32" height="33" viewBox="0 0 32 33" fill="none" xmlns="http://www.w3.org/2000/svg">
<g clip-path="url(#clip0_1_5099)">
<path d="M16.0005 32.0322C24.837 32.0322 32.0005 24.8688 32.0005 16.0322C32.0005 7.19567 24.837 0.0322266 16.0005 0.0322266C7.16393 0.0322266 0.000488281 7.19567 0.000488281 16.0322C0.000488281 24.8688 7.16393 32.0322 16.0005 32.0322Z" fill="#0DC9F7"/>
<path d="M18.5165 15.9282L15.4715 18.2922L14.2245 13.9672L7.00049 12.0322L16.4815 12.5192L18.5165 15.9282Z" fill="white" fill-opacity="0.305"/>
<path d="M8.00049 23.6952L24.3165 11.0322L25.7305 14.1782L23.8755 13.6652L23.8105 16.9292L8.00049 23.6952Z" fill="white" fill-opacity="0.7"/>
<path d="M22.7965 17.8122L18.0495 9.65123L6.00049 9.03223L15.1835 11.4932L17.6735 19.9832L22.7965 17.8122Z" fill="white"/>
</g>
<defs>
<clipPath id="clip0_1_5099">
<rect width="32" height="32" fill="white" transform="translate(0.000488281 0.0322266)"/>
</clipPath>
</defs>
</svg>
