<svg width="32" height="33" viewBox="0 0 32 33" fill="none" xmlns="http://www.w3.org/2000/svg">
<g clip-path="url(#clip0_1_5095)">
<path d="M16.0005 32.0322C24.837 32.0322 32.0005 24.8688 32.0005 16.0322C32.0005 7.19567 24.837 0.0322266 16.0005 0.0322266C7.16393 0.0322266 0.000488281 7.19567 0.000488281 16.0322C0.000488281 24.8688 7.16393 32.0322 16.0005 32.0322Z" fill="#FFE600"/>
<path fill-rule="evenodd" clip-rule="evenodd" d="M4.00049 5.43723C4.79168 4.53955 5.68051 3.7329 6.65049 3.03223L11.1025 18.9502L13.0755 10.5122H16.8155L18.7875 18.9502L21.1245 10.5122H24.8735L24.9085 10.6622L28.9825 25.3762C28.2441 26.3979 27.3882 27.3293 26.4325 28.1512L22.9955 15.7412L21.0355 22.8192L21.0005 22.9692H16.8145L14.9455 16.0372L13.0755 22.9692H8.88949L8.85449 22.8192L4.00049 5.43723Z" fill="white"/>
</g>
<defs>
<clipPath id="clip0_1_5095">
<rect width="32" height="32" fill="white" transform="translate(0.000488281 0.0322266)"/>
</clipPath>
</defs>
</svg>
