<svg width="32" height="33" viewBox="0 0 32 33" fill="none" xmlns="http://www.w3.org/2000/svg">
<g clip-path="url(#clip0_1_5803)">
<path d="M16.0005 32.0322C24.837 32.0322 32.0005 24.8688 32.0005 16.0322C32.0005 7.19567 24.837 0.0322266 16.0005 0.0322266C7.16393 0.0322266 0.000488281 7.19567 0.000488281 16.0322C0.000488281 24.8688 7.16393 32.0322 16.0005 32.0322Z" fill="#8200FF"/>
<path fill-rule="evenodd" clip-rule="evenodd" d="M18.4145 13.1982L17.7345 13.3652C17.1205 13.5152 16.6905 14.0552 16.6905 14.6752V19.2132L14.4435 19.7632C14.2674 19.8077 14.0809 19.781 13.9244 19.6889C13.7679 19.5968 13.6541 19.4467 13.6075 19.2712C13.594 19.2176 13.5873 19.1625 13.5875 19.1072V11.5522C13.5875 11.2422 13.8025 10.9722 14.1095 10.8962L17.5575 10.0522C17.7335 10.0077 17.92 10.0344 18.0765 10.1265C18.233 10.2186 18.3469 10.3687 18.3935 10.5442C18.4075 10.5972 18.4135 10.6522 18.4135 10.7072V13.1982H18.4145ZM10.8285 13.1562L9.97649 13.3652C9.36249 13.5152 8.93149 14.0552 8.93149 14.6752V19.2552L6.85749 19.7632C6.68144 19.8077 6.49494 19.781 6.33844 19.6889C6.18194 19.5968 6.06806 19.4467 6.02149 19.2712C6.00766 19.2177 6.00061 19.1626 6.00049 19.1072V11.5522C6.00049 11.2422 6.21549 10.9722 6.52249 10.8962L9.97149 10.0522C10.1475 10.0077 10.334 10.0344 10.4905 10.1265C10.647 10.2186 10.7609 10.3687 10.8075 10.5442C10.8215 10.5972 10.8275 10.6522 10.8275 10.7072V13.1572L10.8285 13.1562ZM21.6955 10.9172L25.1435 10.0732C25.3194 10.0287 25.5058 10.0553 25.6623 10.1472C25.8187 10.2391 25.9327 10.3889 25.9795 10.5642C25.9934 10.6178 26.0005 10.6729 26.0005 10.7282V18.2842C26.0005 18.5942 25.7855 18.8642 25.4785 18.9392L22.0295 19.7832C21.8536 19.8278 21.6672 19.8012 21.5107 19.7093C21.3542 19.6174 21.2403 19.4676 21.1935 19.2922C21.18 19.2386 21.1733 19.1835 21.1735 19.1282V11.5722C21.1735 11.2622 21.3885 10.9922 21.6955 10.9172Z" fill="white"/>
<path opacity="0.504" fill-rule="evenodd" clip-rule="evenodd" d="M13.2765 13.0322V18.7932C13.2765 18.9032 13.2895 19.0132 13.3165 19.1212C13.4027 19.4446 13.6035 19.7256 13.8814 19.9119C14.1594 20.0983 14.4956 20.1773 14.8275 20.1342V21.0732C14.8275 21.3832 14.6125 21.6532 14.3055 21.7282L10.8575 22.5722C10.6814 22.6171 10.4948 22.5906 10.3381 22.4987C10.1814 22.4068 10.0673 22.2568 10.0205 22.0812C10.007 22.0276 10.0003 21.9725 10.0005 21.9172V14.3612C10.0005 14.0512 10.2155 13.7812 10.5225 13.7062L13.2765 13.0322ZM20.8625 13.0742V18.8142C20.8625 18.9242 20.8765 19.0342 20.9025 19.1422C21.0885 19.8652 21.8375 20.3052 22.5765 20.1242L22.5865 20.1222V21.0722C22.5853 21.2242 22.5332 21.3713 22.4386 21.4902C22.344 21.6091 22.2123 21.6929 22.0645 21.7282L18.6155 22.5722C18.4396 22.6168 18.2532 22.5902 18.0967 22.4983C17.9403 22.4064 17.8263 22.2566 17.7795 22.0812C17.766 22.0276 17.7593 21.9725 17.7595 21.9172V14.3612C17.7595 14.0512 17.9745 13.7812 18.2815 13.7062L20.8615 13.0742H20.8625Z" fill="white"/>
</g>
<defs>
<clipPath id="clip0_1_5803">
<rect width="32" height="32" fill="white" transform="translate(0.000488281 0.0322266)"/>
</clipPath>
</defs>
</svg>
