<svg width="32" height="33" viewBox="0 0 32 33" fill="none" xmlns="http://www.w3.org/2000/svg">
<g clip-path="url(#clip0_1_5796)">
<path d="M16.0005 32.0322C24.837 32.0322 32.0005 24.8688 32.0005 16.0322C32.0005 7.19567 24.837 0.0322266 16.0005 0.0322266C7.16393 0.0322266 0.000488281 7.19567 0.000488281 16.0322C0.000488281 24.8688 7.16393 32.0322 16.0005 32.0322Z" fill="#3B5998"/>
<path fill-rule="evenodd" clip-rule="evenodd" d="M14.0005 6.03223H15.8805V11.9142L14.0005 9.95123V6.03223Z" fill="white"/>
<path fill-rule="evenodd" clip-rule="evenodd" d="M6.00149 8.03323H10.9505C12.6275 9.78823 14.3115 11.5402 15.9885 13.2992C16.9595 12.2902 17.9275 11.2742 18.8945 10.2622C19.6095 9.52123 20.3215 8.77623 21.0345 8.03223H25.9715C23.6675 10.3622 21.3665 12.6942 19.0615 15.0222C18.8195 15.2652 18.5765 15.5102 18.3395 15.7562C18.3975 15.8182 18.4595 15.8792 18.5115 15.9452L25.2825 22.7912L25.9735 23.4872H22.1435C22.0445 23.4872 21.9455 23.4932 21.8485 23.4802C21.5755 23.4722 21.3015 23.4842 21.0285 23.4742C20.5335 22.9632 20.0445 22.4452 19.5495 21.9322C18.5765 20.9202 17.6075 19.9022 16.6345 18.8882C16.4185 18.6642 16.2075 18.4342 15.9865 18.2162C15.5165 18.7162 15.0345 19.2092 14.5615 19.7092L11.8845 22.5032C11.5725 22.8282 11.2645 23.1552 10.9505 23.4742C10.6805 23.4822 10.4085 23.4742 10.1365 23.4782C9.98149 23.4972 9.82449 23.4842 9.66949 23.4882H6.00049L13.2685 16.1382C13.3935 16.0122 13.5175 15.8852 13.6385 15.7562L6.00049 8.03323H6.00149Z" fill="white"/>
<path fill-rule="evenodd" clip-rule="evenodd" d="M16.0025 20.0322C16.6285 20.6952 17.2625 21.3512 17.8905 22.0122C17.8945 23.3192 17.8905 24.6242 17.8905 25.9322H16.0005C16.0005 23.9652 16.0005 21.9992 16.0045 20.0322H16.0025Z" fill="white"/>
</g>
<defs>
<clipPath id="clip0_1_5796">
<rect width="32" height="32" fill="white" transform="translate(0.000488281 0.0322266)"/>
</clipPath>
</defs>
</svg>
