<svg width="32" height="33" viewBox="0 0 32 33" fill="none" xmlns="http://www.w3.org/2000/svg">
<g clip-path="url(#clip0_1_5792)">
<path d="M16.0005 32.0322C24.837 32.0322 32.0005 24.8688 32.0005 16.0322C32.0005 7.19567 24.837 0.0322266 16.0005 0.0322266C7.16393 0.0322266 0.000488281 7.19567 0.000488281 16.0322C0.000488281 24.8688 7.16393 32.0322 16.0005 32.0322Z" fill="#FAA00D"/>
<path d="M25.9925 14.5032L16.5235 25.5132L16.0985 26.0322L6.00749 14.6142L6.03949 14.6012L6.00049 14.5952L9.92249 8.03823L9.92449 8.04023L9.92249 8.03223H22.1765L22.1745 8.03923L26.0005 14.5022L25.9925 14.5032ZM12.8565 14.9622L10.6865 18.6362L16.0385 24.7482L21.4015 18.5862L19.2795 14.9512L12.8565 14.9622ZM10.0785 17.9422L11.8385 14.9632L7.47649 14.9702L10.0785 17.9422ZM19.8015 14.0962L24.7555 14.0882L21.6455 8.88023L16.7635 8.89023L19.8015 14.0962ZM24.5725 14.9422L20.2995 14.9492L22.0125 17.8842L24.5725 14.9422ZM18.7815 14.0982L16.0905 9.48623L13.3605 14.1062L18.7815 14.0982ZM10.3825 8.90423L7.28249 14.1172L12.3425 14.1082L15.4225 8.89423L10.3825 8.90423Z" fill="white"/>
</g>
<defs>
<clipPath id="clip0_1_5792">
<rect width="32" height="32" fill="white" transform="translate(0.000488281 0.0322266)"/>
</clipPath>
</defs>
</svg>
