<svg width="32" height="33" viewBox="0 0 32 33" fill="none" xmlns="http://www.w3.org/2000/svg">
<g clip-path="url(#clip0_1_5788)">
<path d="M16.0005 32.0322C24.837 32.0322 32.0005 24.8688 32.0005 16.0322C32.0005 7.19567 24.837 0.0322266 16.0005 0.0322266C7.16393 0.0322266 0.000488281 7.19567 0.000488281 16.0322C0.000488281 24.8688 7.16393 32.0322 16.0005 32.0322Z" fill="#F7931A"/>
<path d="M26.3455 20.0392L25.8005 22.2222L24.3455 21.8602L24.8895 19.6762L22.7065 19.1322L23.0695 17.6772L25.2525 18.2212L25.7975 16.0382L27.2525 16.4012L26.7085 18.5842L28.8915 19.1282L28.5285 20.5842L26.3455 20.0392ZM20.9785 14.0452C20.7755 15.3952 20.0395 16.0512 19.0665 16.2852C20.3975 16.9882 21.0715 18.0722 20.4145 19.9622C19.5985 22.3092 17.6885 22.5172 15.1525 22.0422L14.5225 24.5642L13.0365 24.1942L13.6575 21.7042C13.2617 21.6063 12.867 21.5039 12.4735 21.3972L11.8495 23.8972L10.3655 23.5272L10.9955 20.9992C10.6475 20.9102 10.2955 20.8162 9.93549 20.7262L8.00049 20.2432L8.74849 18.5012C8.74849 18.5012 9.84349 18.7922 9.82849 18.7712C10.2505 18.8742 10.4385 18.5932 10.5135 18.4062L11.5075 14.4182L11.6655 14.4572C11.615 14.4371 11.5632 14.4204 11.5105 14.4072L12.2205 11.5602C12.2405 11.2372 12.1335 10.8312 11.5305 10.6802C11.5545 10.6652 10.4515 10.4122 10.4515 10.4122L10.8565 8.78823L12.9065 9.30023L12.9045 9.30723C13.2125 9.38423 13.5305 9.45723 13.8545 9.53023L14.4775 7.03223L15.9635 7.40223L15.3525 9.85223C15.7515 9.94223 16.1525 10.0342 16.5425 10.1322L17.1495 7.69923L18.6365 8.06923L18.0135 10.5682C19.8895 11.2182 21.2585 12.2012 20.9785 14.0452ZM17.5515 18.9302C18.0425 16.9602 14.8095 16.4702 13.8015 16.2182L12.9685 19.5652C13.9765 19.8152 17.0835 20.8182 17.5535 18.9292L17.5515 18.9302ZM18.0385 14.0342C18.4845 12.2412 15.7805 11.8572 14.9415 11.6482L14.1845 14.6852C15.0235 14.8952 17.6095 15.7522 18.0385 14.0342Z" fill="white"/>
</g>
<defs>
<clipPath id="clip0_1_5788">
<rect width="32" height="32" fill="white" transform="translate(0.000488281 0.0322266)"/>
</clipPath>
</defs>
</svg>
