<svg width="32" height="33" viewBox="0 0 32 33" fill="none" xmlns="http://www.w3.org/2000/svg">
<g clip-path="url(#clip0_1_5784)">
<path d="M16.001 32.0322C24.8375 32.0322 32.001 24.8688 32.001 16.0322C32.001 7.19567 24.8375 0.0322266 16.001 0.0322266C7.16442 0.0322266 0.000976562 7.19567 0.000976562 16.0322C0.000976562 24.8688 7.16442 32.0322 16.001 32.0322Z" fill="#21AF67"/>
<path d="M16.001 28.0322C9.37398 28.0322 4.00098 22.6592 4.00098 16.0322C4.00098 9.40523 9.37398 4.03223 16.001 4.03223C22.628 4.03223 28.001 9.40523 28.001 16.0322C28.001 22.6592 22.628 28.0322 16.001 28.0322ZM20.614 11.6832C20.438 11.4432 20.151 11.2482 19.757 11.0962C19.364 10.9452 18.823 10.8692 18.137 10.8692H16.687L17.864 7.63423L18.649 5.47723C17.8602 5.28042 17.0518 5.17274 16.239 5.15623C16.159 5.15623 16.079 5.15023 15.999 5.15023C15.8763 5.15105 15.7536 5.15438 15.631 5.16023C9.80198 5.35423 5.11898 10.1542 5.11898 16.0322C5.11898 19.1652 6.47098 22.1452 8.82898 24.2062L9.68198 21.8612C8.21252 20.2759 7.39635 18.1938 7.39698 16.0322C7.39698 11.7042 10.609 8.11523 14.774 7.51723C14.98 7.48723 15.193 7.46723 15.404 7.44923L12.262 16.0832L18.531 15.4662C18.5278 15.4646 18.5244 15.4633 18.521 15.4622C18.716 15.3992 18.903 15.3162 19.081 15.2122C19.5386 14.9497 19.941 14.6009 20.266 14.1852C20.444 13.9552 20.586 13.6972 20.684 13.4222C20.794 13.1282 20.857 12.8182 20.87 12.5052C20.8824 12.2099 20.7919 11.9193 20.614 11.6832ZM17.94 13.7882C17.803 14.1602 17.59 14.4222 17.295 14.5732C17.0187 14.7204 16.711 14.7986 16.398 14.8012H15.268L16.026 12.7172H17.156C17.291 12.7172 17.426 12.7342 17.556 12.7692C17.6751 12.7974 17.7852 12.8552 17.876 12.9372C17.9645 13.0254 18.0182 13.1426 18.027 13.2672C18.0384 13.4453 18.0087 13.6236 17.94 13.7882ZM19.201 5.63023L18.42 7.77723C19.5444 8.10591 20.5898 8.66076 21.4921 9.40776C22.3945 10.1548 23.1348 11.0782 23.6676 12.1214C24.2005 13.1646 24.5146 14.3057 24.5909 15.4747C24.6671 16.6436 24.5039 17.8158 24.1111 18.9194C23.7182 20.023 23.1042 21.0348 22.3065 21.8927C21.5089 22.7506 20.5444 23.4365 19.4722 23.9085C18.4001 24.3805 17.2428 24.6285 16.0714 24.6374C14.9 24.6463 13.7392 24.4159 12.66 23.9602C12.4844 23.8849 12.3113 23.8039 12.141 23.7172L13.033 21.2722H14.481C15.793 21.2722 16.869 21.0502 17.711 20.6042C18.552 20.1592 19.151 19.4482 19.508 18.4702C19.639 18.1082 19.688 17.7902 19.649 17.5162C19.6203 17.2668 19.5377 17.0266 19.407 16.8122C19.2895 16.6241 19.1325 16.4637 18.947 16.3422C18.8018 16.2481 18.6477 16.1684 18.487 16.1042L12.161 16.7282L10.126 22.3092L9.29598 24.5932C10.0842 25.2119 10.9536 25.7193 11.88 26.1012C13.187 26.6392 14.587 26.9152 16.001 26.9142C22.001 26.9142 26.883 22.0332 26.883 16.0322C26.883 11.1452 23.645 7.00023 19.201 5.63023ZM14.561 17.1052H15.881C16.039 17.1062 16.196 17.1212 16.351 17.1502C16.501 17.1742 16.646 17.2292 16.775 17.3102C16.895 17.3922 16.981 17.5142 17.017 17.6542C17.059 17.8052 17.037 18.0032 16.948 18.2482C16.8693 18.483 16.741 18.6982 16.572 18.8792C16.43 19.0262 16.262 19.1452 16.076 19.2312C15.9045 19.3089 15.7226 19.3608 15.536 19.3852C15.3713 19.4081 15.2053 19.4201 15.039 19.4212H13.716L14.561 17.1052Z" fill="white"/>
</g>
<defs>
<clipPath id="clip0_1_5784">
<rect width="32" height="32" fill="white" transform="translate(0.000976562 0.0322266)"/>
</clipPath>
</defs>
</svg>
