<svg width="32" height="33" viewBox="0 0 32 33" fill="none" xmlns="http://www.w3.org/2000/svg">
<g clip-path="url(#clip0_1_5780)">
<path d="M16.001 32.0322C24.8375 32.0322 32.001 24.8688 32.001 16.0322C32.001 7.19567 24.8375 0.0322266 16.001 0.0322266C7.16442 0.0322266 0.000976562 7.19567 0.000976562 16.0322C0.000976562 24.8688 7.16442 32.0322 16.001 32.0322Z" fill="#56F4F1"/>
<path d="M6.00098 9.04823C6.00098 9.03323 6.21098 9.03223 8.91898 9.03423L11.838 9.03723L13.498 11.8302L15.186 14.6712L15.214 14.7182L15.478 14.2682C15.622 14.0202 15.74 13.8132 15.738 13.8072C15.736 13.8012 15.101 12.7292 14.328 11.4272C13.555 10.1252 12.922 9.05423 12.922 9.04723C12.922 9.03423 13.361 9.03223 15.995 9.03223C17.701 9.03223 19.067 9.03623 19.067 9.04223C19.067 9.06223 12.552 20.1392 12.537 20.1422C12.526 20.1442 11.573 18.5342 9.26098 14.6052C7.46798 11.5582 6.00098 9.05823 6.00098 9.04823ZM20.141 9.03923C20.141 9.03523 21.461 9.03223 23.072 9.03223H26.001L25.997 9.05423C25.994 9.06723 24.534 11.5552 22.753 14.5832C20.594 18.2502 19.507 20.0892 19.493 20.0912C19.48 20.0932 19.174 19.5842 18.148 17.8572C17.416 16.6272 16.815 15.6172 16.811 15.6152C16.803 15.6102 16.278 16.5012 16.282 16.5132C16.283 16.5182 16.886 17.5332 17.62 18.7692C18.0711 19.5196 18.5144 20.2747 18.95 21.0342C18.941 21.0692 16.014 26.0292 16.002 26.0322C15.983 26.0362 13.073 21.0922 13.079 21.0672C13.084 21.0562 20.033 9.21723 20.14 9.03923H20.141Z" fill="white"/>
</g>
<defs>
<clipPath id="clip0_1_5780">
<rect width="32" height="32" fill="white" transform="translate(0.000976562 0.0322266)"/>
</clipPath>
</defs>
</svg>
