<svg width="32" height="33" viewBox="0 0 32 33" fill="none" xmlns="http://www.w3.org/2000/svg">
<g clip-path="url(#clip0_1_5776)">
<path d="M16.001 32.0322C24.8375 32.0322 32.001 24.8688 32.001 16.0322C32.001 7.19567 24.8375 0.0322266 16.001 0.0322266C7.16442 0.0322266 0.000976562 7.19567 0.000976562 16.0322C0.000976562 24.8688 7.16442 32.0322 16.001 32.0322Z" fill="#ED1650"/>
<path fill-rule="evenodd" clip-rule="evenodd" d="M23.481 10.0322H19.437C19.3549 10.0324 19.2738 10.0489 19.1982 10.0808C19.1226 10.1128 19.0542 10.1595 18.997 10.2182L11.622 17.7472C11.5647 17.806 11.4963 17.8527 11.4207 17.8846C11.3452 17.9166 11.264 17.9331 11.182 17.9332H9.82997C9.74794 17.9331 9.66676 17.9166 9.59121 17.8846C9.51565 17.8527 9.44723 17.806 9.38997 17.7472L8.43397 16.7732C8.31684 16.6539 8.25114 16.4934 8.25097 16.3262V14.9492C8.25098 14.7817 8.31668 14.6209 8.43397 14.5012L9.38997 13.5272C9.44727 13.4685 9.51569 13.4219 9.59124 13.3899C9.66679 13.358 9.74795 13.3414 9.82997 13.3412H11.182C11.347 13.3412 11.505 13.4082 11.622 13.5272L12.209 14.1252C12.2662 14.184 12.3346 14.2307 12.4102 14.2626C12.4857 14.2945 12.5669 14.311 12.649 14.311C12.731 14.311 12.8122 14.2945 12.8878 14.2626C12.9633 14.2307 13.0318 14.184 13.089 14.1252L14.508 12.6812C14.6248 12.5613 14.6901 12.4006 14.6901 12.2332C14.6901 12.0659 14.6248 11.9051 14.508 11.7852L12.968 10.2182C12.9107 10.1595 12.8422 10.1129 12.7667 10.0809C12.6912 10.049 12.61 10.0324 12.528 10.0322H8.48397C8.40195 10.0324 8.32079 10.049 8.24524 10.0809C8.16969 10.1129 8.10127 10.1595 8.04397 10.2182L5.18397 13.1302C5.06705 13.25 5.00172 13.4108 5.00197 13.5782V17.6962C5.00197 17.8642 5.06797 18.0262 5.18397 18.1442L8.04397 21.0572C8.10135 21.1157 8.16981 21.1622 8.24535 21.194C8.3209 21.2258 8.40202 21.2422 8.48397 21.2422H12.529C12.611 21.242 12.6922 21.2255 12.7677 21.1935C12.8433 21.1616 12.9117 21.1149 12.969 21.0562L20.344 13.5282C20.4012 13.4694 20.4696 13.4225 20.5451 13.3904C20.6207 13.3583 20.7019 13.3416 20.784 13.3412H22.136C22.301 13.3412 22.459 13.4082 22.576 13.5272L23.532 14.5012C23.6493 14.6209 23.715 14.7817 23.715 14.9492V16.3262C23.7147 16.4934 23.649 16.6538 23.532 16.7732L22.576 17.7472C22.5187 17.806 22.4503 17.8527 22.3747 17.8846C22.2992 17.9166 22.218 17.9331 22.136 17.9332H20.784C20.7019 17.9331 20.6208 17.9166 20.5452 17.8846C20.4696 17.8527 20.4012 17.806 20.344 17.7472L19.752 17.1442C19.6952 17.0859 19.6273 17.0394 19.5524 17.0075C19.4775 16.9756 19.3969 16.959 19.3155 16.9585C19.2341 16.9581 19.1534 16.9738 19.0781 17.0048C19.0028 17.0358 18.9344 17.0815 18.877 17.1392L17.127 18.8812C17.0676 18.9407 17.0205 19.0114 16.9884 19.0891C16.9563 19.1668 16.9398 19.2501 16.94 19.3342V23.3742C16.94 23.7242 17.219 24.0082 17.562 24.0082H19.602C19.6844 24.0076 19.766 23.9907 19.8419 23.9585C19.9179 23.9263 19.9867 23.8795 20.0446 23.8208C20.1024 23.762 20.1481 23.6924 20.1791 23.6159C20.21 23.5395 20.2256 23.4577 20.225 23.3752V21.8752C20.225 21.5252 20.504 21.2422 20.847 21.2422H23.482C23.5639 21.2422 23.645 21.2258 23.7206 21.194C23.7961 21.1622 23.8646 21.1157 23.922 21.0572L26.782 18.1442C26.8993 18.0246 26.965 17.8638 26.965 17.6962V13.5782C26.9652 13.4108 26.8999 13.25 26.783 13.1302L23.923 10.2182C23.8657 10.1595 23.7973 10.1129 23.7217 10.0809C23.6462 10.049 23.565 10.0324 23.483 10.0322" fill="white"/>
</g>
<defs>
<clipPath id="clip0_1_5776">
<rect width="32" height="32" fill="white" transform="translate(0.000976562 0.0322266)"/>
</clipPath>
</defs>
</svg>
