<svg width="32" height="33" viewBox="0 0 32 33" fill="none" xmlns="http://www.w3.org/2000/svg">
<g clip-path="url(#clip0_1_5772)">
<path d="M16 32.0332C24.8366 32.0332 32 24.8698 32 16.0332C32 7.19665 24.8366 0.0332031 16 0.0332031C7.16344 0.0332031 0 7.19665 0 16.0332C0 24.8698 7.16344 32.0332 16 32.0332Z" fill="#4F7AA2"/>
<path d="M13.309 12.0332H16.047C17.369 12.0332 19.73 12.8362 19.73 16.0332C19.73 19.2302 17.37 20.0332 16.047 20.0332H13.31L13.309 12.0332ZM14.819 18.4132H15.953C16.897 18.4132 18.03 17.8352 18.03 16.0332C18.03 14.2312 16.897 13.6532 15.953 13.6532H14.82L14.819 18.4132ZM20.77 12.0332H21.336L26.434 19.0592V12.0332H27V20.0332H26.433L21.335 13.1612V20.0332H20.768L20.77 12.0332ZM5 12.0332H6.888V14.0332H5V12.0332ZM7.833 12.0332H9.72V14.0332H7.833V12.0332ZM10.665 12.0332H12.554V14.0332H10.665V12.0332ZM10.665 15.0332H12.554V17.0332H10.665V15.0332ZM10.665 18.0332H12.554V20.0332H10.665V18.0332ZM7.833 15.0332H9.72V17.0332H7.833V15.0332Z" fill="white"/>
</g>
<defs>
<clipPath id="clip0_1_5772">
<rect width="32" height="32" fill="white" transform="translate(0 0.0332031)"/>
</clipPath>
</defs>
</svg>
