<svg width="32" height="33" viewBox="0 0 32 33" fill="none" xmlns="http://www.w3.org/2000/svg">
<g clip-path="url(#clip0_1_5768)">
<path d="M16 32.0332C24.8366 32.0332 32 24.8698 32 16.0332C32 7.19665 24.8366 0.0332031 16 0.0332031C7.16344 0.0332031 0 7.19665 0 16.0332C0 24.8698 7.16344 32.0332 16 32.0332Z" fill="#67B2E8"/>
<path fill-rule="evenodd" clip-rule="evenodd" d="M6.145 11.9872C6.05142 11.218 6.003 10.4441 6 9.66922C7.31251 8.9216 8.70536 8.3248 10.152 7.89022C12.1817 7.27944 14.2949 6.99159 16.414 7.03722C16.982 7.04822 17.804 7.11122 18.428 7.17822C17.6362 7.60284 16.9498 8.19973 16.4193 8.92489C15.8889 9.65005 15.5279 10.485 15.363 11.3682C15.303 11.6822 15.27 12.0082 15.259 12.3562C15.243 12.8922 15.191 13.3142 15.079 13.7092C14.8272 14.5995 14.3088 15.3913 13.5936 15.9782C12.8784 16.5651 12.0006 16.9189 11.0783 16.9921C10.156 17.0653 9.23345 16.8543 8.43463 16.3876C7.63581 15.9208 6.99906 15.2206 6.61 14.3812C6.56601 14.2851 6.53249 14.1845 6.51 14.0812C6.35162 13.3901 6.22978 12.6911 6.145 11.9872ZM22.758 20.5472C22.52 20.9172 22.268 21.2772 22.006 21.6322C22.0141 20.6223 21.7628 19.6272 21.276 18.7422C20.7753 17.81 20.0343 17.0287 19.13 16.4792L19.04 16.4242C18.99 16.3948 18.9403 16.3648 18.891 16.3342C17.754 15.6112 17.061 14.5992 16.817 13.2932C16.6052 12.1555 16.8381 10.98 17.4675 10.0089C18.097 9.03789 19.075 8.34539 20.2 8.07422C21.02 7.87622 21.83 7.90422 22.637 8.15722C23.256 8.35222 23.882 8.60722 24.645 8.96422C25.085 9.17122 25.529 9.40122 26.001 9.66822C25.9945 11.0628 25.8431 12.453 25.549 13.8162C25.0358 16.2108 24.0904 18.4918 22.759 20.5472H22.758ZM19.721 24.2202C18.5919 25.2962 17.3439 26.24 16.001 27.0332C15.654 26.8332 15.3147 26.6201 14.984 26.3942C11.7765 24.2371 9.24881 21.212 7.696 17.6722C8.43574 18.1073 9.26173 18.3752 10.116 18.4572C11.3719 18.5844 12.636 18.314 13.73 17.6842C14.2559 17.3846 14.8355 17.1913 15.436 17.1152C16.5007 16.9807 17.5785 17.2294 18.4766 17.8168C19.3747 18.4041 20.0345 19.2919 20.338 20.3212C20.673 21.4422 20.575 22.5432 20.055 23.6282C20.011 23.7202 19.973 23.7942 19.883 23.9712L19.839 24.0582C19.8093 24.1186 19.7694 24.1735 19.721 24.2202Z" fill="white"/>
</g>
<defs>
<clipPath id="clip0_1_5768">
<rect width="32" height="32" fill="white" transform="translate(0 0.0332031)"/>
</clipPath>
</defs>
</svg>
