<svg width="32" height="33" viewBox="0 0 32 33" fill="none" xmlns="http://www.w3.org/2000/svg">
<g clip-path="url(#clip0_1_5764)">
<path d="M16 32.0332C24.8366 32.0332 32 24.8698 32 16.0332C32 7.19665 24.8366 0.0332031 16 0.0332031C7.16344 0.0332031 0 7.19665 0 16.0332C0 24.8698 7.16344 32.0332 16 32.0332Z" fill="#1EB5FA"/>
<path d="M26.405 7.08456L22.775 8.69456C22.6691 8.75249 22.5808 8.83782 22.5192 8.94162C22.4576 9.04542 22.4251 9.16387 22.425 9.28456V22.2646C22.4246 22.3866 22.4581 22.5063 22.5216 22.6105C22.5852 22.7146 22.6763 22.7991 22.785 22.8546L26.415 24.4246C26.4667 24.4528 26.525 24.4671 26.5839 24.4659C26.6428 24.4647 26.7004 24.4481 26.7509 24.4178C26.8015 24.3874 26.8432 24.3444 26.872 24.293C26.9008 24.2416 26.9156 24.1835 26.915 24.1246V7.38456C26.9131 7.32554 26.8963 7.26795 26.8662 7.21716C26.8361 7.16636 26.7936 7.12403 26.7427 7.09408C26.6917 7.06414 26.6341 7.04756 26.5751 7.0459C26.516 7.04423 26.4575 7.05754 26.405 7.08456ZM9.02002 8.67456L5.50002 7.07456C5.44829 7.04631 5.39008 7.03208 5.33115 7.03327C5.27223 7.03447 5.21464 7.05105 5.1641 7.08137C5.11356 7.11169 5.07183 7.1547 5.04305 7.20614C5.01426 7.25757 4.99943 7.31563 5.00002 7.37456V24.1146C5.00006 24.1752 5.01629 24.2348 5.04704 24.2871C5.07779 24.3394 5.12193 24.3826 5.17493 24.4121C5.22792 24.4417 5.28784 24.4566 5.3485 24.4552C5.40916 24.4539 5.46837 24.4364 5.52002 24.4046L9.06002 22.5346C9.15779 22.475 9.23858 22.3913 9.29463 22.2915C9.35067 22.1916 9.38008 22.079 9.38002 21.9646V9.26456C9.3762 9.14348 9.34101 9.02545 9.27791 8.92203C9.21481 8.81862 9.12595 8.73335 9.02002 8.67456ZM20.06 13.1046L16.27 10.9346C16.1682 10.8756 16.0527 10.8445 15.935 10.8445C15.8174 10.8445 15.7018 10.8756 15.6 10.9346L11.74 13.0846C11.6368 13.1446 11.551 13.2307 11.4914 13.3342C11.4317 13.4378 11.4002 13.5551 11.4 13.6746V18.0746C11.4 18.3176 11.53 18.5426 11.74 18.6646L15.6 20.8846C15.807 21.0046 16.063 21.0046 16.27 20.8846L20.06 18.6846C20.1633 18.6245 20.249 18.5384 20.3087 18.4349C20.3683 18.3314 20.3998 18.214 20.4 18.0946V13.6946C20.401 13.5749 20.3701 13.457 20.3103 13.3533C20.2505 13.2496 20.1641 13.1637 20.06 13.1046Z" fill="white"/>
</g>
<defs>
<clipPath id="clip0_1_5764">
<rect width="32" height="32" fill="white" transform="translate(0 0.0332031)"/>
</clipPath>
</defs>
</svg>
