<svg width="32" height="33" viewBox="0 0 32 33" fill="none" xmlns="http://www.w3.org/2000/svg">
<g clip-path="url(#clip0_1_5760)">
<path d="M16 32.0332C24.8366 32.0332 32 24.8698 32 16.0332C32 7.19665 24.8366 0.0332031 16 0.0332031C7.16344 0.0332031 0 7.19665 0 16.0332C0 24.8698 7.16344 32.0332 16 32.0332Z" fill="black"/>
<path d="M23.131 9.2411L20.731 10.4651L9.133 16.3721C8.96776 15.1027 9.15843 13.8123 9.68376 12.645C10.2091 11.4776 11.0484 10.4791 12.1081 9.76097C13.1678 9.0428 14.4062 8.63315 15.6851 8.57773C16.964 8.52231 18.2332 8.82329 19.351 9.4471L20.725 8.7471L20.93 8.6421C19.6265 7.69619 18.0796 7.14303 16.4718 7.04793C14.8641 6.95283 13.2627 7.31978 11.8568 8.10543C10.4509 8.89108 9.2992 10.0626 8.53764 11.4817C7.77608 12.9008 7.4365 14.5082 7.559 16.1141C7.58192 16.4162 7.51497 16.7182 7.36656 16.9823C7.21815 17.2464 6.99493 17.4606 6.725 17.5981L6 17.9681V19.6921L8.134 18.6041L8.825 18.2511L9.506 17.9041L21.732 11.6741L23.106 10.9751L25.946 9.5281V7.8051L23.131 9.2411ZM25.947 11.2531L10.202 19.2691L8.828 19.9691L6.001 21.4121V23.1351L8.809 21.7051L11.21 20.4811L22.82 14.5651C22.9878 15.8365 22.7984 17.1294 22.2731 18.2992C21.7477 19.4691 20.9072 20.4696 19.8455 21.1889C18.7839 21.9082 17.543 22.3178 16.2617 22.3718C14.9805 22.4259 13.7095 22.1223 12.591 21.4951L12.506 21.5401L11.016 22.3001C12.3197 23.2465 13.867 23.8 15.4752 23.8952C17.0834 23.9904 18.6853 23.6232 20.0915 22.8371C21.4977 22.0511 22.6495 20.8789 23.4109 19.4592C24.1722 18.0394 24.5113 16.4314 24.388 14.8251C24.3653 14.5233 24.4323 14.2216 24.5805 13.9578C24.7287 13.6939 24.9515 13.4797 25.221 13.3421L25.947 12.9721V11.2541V11.2531Z" fill="white"/>
</g>
<defs>
<clipPath id="clip0_1_5760">
<rect width="32" height="32" fill="white" transform="translate(0 0.0332031)"/>
</clipPath>
</defs>
</svg>
