<svg width="32" height="33" viewBox="0 0 32 33" fill="none" xmlns="http://www.w3.org/2000/svg">
<g clip-path="url(#clip0_1_5756)">
<path d="M16 32.0332C24.8366 32.0332 32 24.8698 32 16.0332C32 7.19665 24.8366 0.0332031 16 0.0332031C7.16344 0.0332031 0 7.19665 0 16.0332C0 24.8698 7.16344 32.0332 16 32.0332Z" fill="#DD0632"/>
<path d="M22.682 7.0332H17.522L15.988 9.6852L14.459 7.0332H9.297L4 16.2082L9.129 25.0882L12.606 19.0692L16 24.9292L19.384 19.0692L22.869 25.1292L28 16.2492L22.682 7.0332ZM9.122 21.5772L6.02 16.2112L8.487 11.9392L11.587 17.3092L9.121 21.5822V21.5772H9.122ZM9.506 10.1752L10.324 8.7542H13.415L14.97 11.4472L12.606 15.5462L9.506 10.1752ZM15.986 21.4072L13.624 17.3052L15.988 13.2082L17.044 15.0332L18.354 17.3062L15.988 21.4032L15.986 21.4082V21.4072ZM17.003 11.4472L18.561 8.7542H21.652L22.48 10.1742L19.36 15.5462L17.003 11.4462V11.4472ZM24.971 17.9842L22.878 21.6152L20.39 17.2952L23.49 11.9362L24.326 13.3762L25.979 16.2392L24.971 17.9842Z" fill="white"/>
</g>
<defs>
<clipPath id="clip0_1_5756">
<rect width="32" height="32" fill="white" transform="translate(0 0.0332031)"/>
</clipPath>
</defs>
</svg>
