<svg width="32" height="33" viewBox="0 0 32 33" fill="none" xmlns="http://www.w3.org/2000/svg">
<g clip-path="url(#clip0_1_5752)">
<path d="M16 32.0332C24.8366 32.0332 32 24.8698 32 16.0332C32 7.19665 24.8366 0.0332031 16 0.0332031C7.16344 0.0332031 0 7.19665 0 16.0332C0 24.8698 7.16344 32.0332 16 32.0332Z" fill="#004A80"/>
<path fill-rule="evenodd" clip-rule="evenodd" d="M23 19.5732L21.517 25.0332H9V24.1202L15.79 16.4012L9.137 8.0252V7.0332H21.468L21.898 11.2852H21.108C20.587 10.3162 20.145 9.5912 19.78 9.1102C19.416 8.6292 19.091 8.3302 18.805 8.2112C18.603 8.1132 18.325 8.0432 17.971 8.0012C17.5483 7.95468 17.1232 7.93297 16.698 7.9362H13.195L18.444 14.4762V14.7912L11.956 22.1562H19.361C19.725 22.1562 20.059 22.0692 20.361 21.8962C20.663 21.7222 20.925 21.5042 21.146 21.2422C21.3782 20.9713 21.5841 20.679 21.761 20.3692C21.9504 20.0404 22.1168 19.699 22.259 19.3472L23 19.5732Z" fill="white"/>
</g>
<defs>
<clipPath id="clip0_1_5752">
<rect width="32" height="32" fill="white" transform="translate(0 0.0332031)"/>
</clipPath>
</defs>
</svg>
