<svg width="32" height="33" viewBox="0 0 32 33" fill="none" xmlns="http://www.w3.org/2000/svg">
<g clip-path="url(#clip0_1_5745)">
<path d="M16.0005 32.0332C24.837 32.0332 32.0005 24.8698 32.0005 16.0332C32.0005 7.19665 24.837 0.0332031 16.0005 0.0332031C7.16393 0.0332031 0.000488281 7.19665 0.000488281 16.0332C0.000488281 24.8698 7.16393 32.0332 16.0005 32.0332Z" fill="#FF6600"/>
<path d="M28.0005 16.1872C28.0005 22.8152 22.6285 28.1872 16.0005 28.1872C9.37249 28.1872 4.00049 22.8152 4.00049 16.1872C4.00049 13.5062 4.88149 11.0312 6.36249 9.03417L8.32249 10.9942C7.28183 12.5259 6.72639 14.3354 6.72849 16.1872C6.72849 21.2972 10.8815 25.4492 15.9915 25.4492C21.1005 25.4492 25.2535 21.2962 25.2535 16.1872C25.2527 14.3355 24.6975 12.5265 23.6595 10.9932L25.6195 9.03317C27.1702 11.0954 28.0061 13.607 28.0005 16.1872Z" fill="white"/>
<path d="M22.2755 16.3252C22.2736 18.0848 21.5738 19.7719 20.3295 21.0162C19.0852 22.2605 17.3982 22.9603 15.6385 22.9622C13.8786 22.9606 12.1913 22.2609 10.9468 21.0165C9.70233 19.7722 9.00234 18.085 9.00049 16.3252C9.00049 15.1722 9.30049 14.0382 9.87249 13.0352L15.6385 18.7992L21.4045 13.0332C21.9762 14.0361 22.2768 15.1707 22.2765 16.3252" fill="white"/>
<path d="M23.6945 6.95821L15.8475 14.7952L9.86649 8.82421L8.00049 6.95821C10.1757 5.06521 12.9639 4.02588 15.8475 4.03321C18.8475 4.03321 21.5855 5.13021 23.6945 6.95821Z" fill="white"/>
</g>
<defs>
<clipPath id="clip0_1_5745">
<rect width="32" height="32" fill="white" transform="translate(0.000488281 0.0332031)"/>
</clipPath>
</defs>
</svg>
