<svg width="32" height="33" viewBox="0 0 32 33" fill="none" xmlns="http://www.w3.org/2000/svg">
<g clip-path="url(#clip0_1_5741)">
<path d="M16.0005 32.0332C24.837 32.0332 32.0005 24.8698 32.0005 16.0332C32.0005 7.19665 24.837 0.0332031 16.0005 0.0332031C7.16393 0.0332031 0.000488281 7.19665 0.000488281 16.0332C0.000488281 24.8698 7.16393 32.0332 16.0005 32.0332Z" fill="#FF6600"/>
<path d="M15.8235 5.0332C21.8085 5.0332 26.6485 9.8732 26.6485 15.8572C26.6444 17.0235 26.4561 18.1817 26.0905 19.2892H22.8645V10.1952L15.8245 17.2352L8.78449 10.1952V19.2892H5.55749C5.1922 18.1817 5.00422 17.0234 5.00049 15.8572C5.00049 9.8732 9.84049 5.0332 15.8245 5.0332H15.8235ZM14.2115 18.8182L15.8535 20.4332L17.4665 18.8192L20.5175 15.7392V21.4592H25.0645C24.1 23.0454 22.7432 24.3564 21.1248 25.2658C19.5063 26.1752 17.6809 26.6524 15.8245 26.6512C11.9225 26.6512 8.49049 24.5692 6.58449 21.4592H11.1305V15.7392L14.2105 18.8192L14.2115 18.8182Z" fill="white"/>
</g>
<defs>
<clipPath id="clip0_1_5741">
<rect width="32" height="32" fill="white" transform="translate(0.000488281 0.0332031)"/>
</clipPath>
</defs>
</svg>
