<svg width="32" height="33" viewBox="0 0 32 33" fill="none" xmlns="http://www.w3.org/2000/svg">
<g clip-path="url(#clip0_1_5737)">
<path d="M16.0005 32.0332C24.837 32.0332 32.0005 24.8698 32.0005 16.0332C32.0005 7.19665 24.837 0.0332031 16.0005 0.0332031C7.16393 0.0332031 0.000488281 7.19665 0.000488281 16.0332C0.000488281 24.8698 7.16393 32.0332 16.0005 32.0332Z" fill="#EC1076"/>
<path fill-rule="evenodd" clip-rule="evenodd" d="M21.0821 21.0332C20.4801 21.0332 19.8191 20.7302 19.8191 19.8212C19.8191 19.3732 20.1691 17.9962 20.8671 15.6892C21.0101 15.3332 21.0811 15.0132 21.0811 14.7302C21.0811 14.1852 20.6611 13.6402 19.8791 13.6402C19.4251 13.6402 18.4361 13.8202 18.1361 14.7902C17.9361 15.4372 17.4751 17.1542 16.7531 19.9422C16.4731 20.6692 15.9721 21.0332 15.2511 21.0332C14.1691 21.0332 13.9881 20.2452 13.9881 19.7602C13.9881 19.5682 14.2761 18.4072 14.8531 16.2802C15.0781 15.5702 15.1901 15.0532 15.1901 14.7302C15.1901 14.2452 14.8301 13.6402 13.9881 13.6402C13.1471 13.6402 12.3651 14.2452 12.0051 15.5782C11.7651 16.4682 11.4241 17.8012 10.9831 19.5782C10.7431 20.5482 10.2011 21.0332 9.36012 21.0332C8.59812 21.0332 8.19812 20.6092 8.15812 19.7602L9.54012 14.0032H6.47512C6.28519 14.0098 6.09585 13.9784 5.91825 13.9107C5.74065 13.8431 5.57837 13.7406 5.44098 13.6093C5.30358 13.478 5.19383 13.3205 5.1182 13.1462C5.04256 12.9718 5.00257 12.7841 5.00057 12.5941C4.99857 12.404 5.0346 12.2155 5.10655 12.0396C5.17849 11.8637 5.2849 11.704 5.4195 11.5698C5.5541 11.4356 5.71418 11.3298 5.89032 11.2584C6.06646 11.187 6.25509 11.1516 6.44512 11.1542H11.5841C12.3051 11.1542 12.7461 11.4982 12.9061 12.1842C13.6281 11.2762 14.5891 11.0332 15.4321 11.0332C16.2751 11.0332 17.3551 11.5182 17.8361 12.6092C18.4961 11.8812 19.6391 11.0332 21.2621 11.0332C22.7641 11.0332 24.0271 12.0632 24.0271 13.8812C24.0271 14.5682 23.6861 16.0032 23.0051 18.1852L25.6421 18.1672C26.4131 18.1672 27.0321 18.8092 27.0321 19.6002C27.0321 20.3912 26.4131 21.0332 25.6491 21.0332H21.0821Z" fill="white"/>
</g>
<defs>
<clipPath id="clip0_1_5737">
<rect width="32" height="32" fill="white" transform="translate(0.000488281 0.0332031)"/>
</clipPath>
</defs>
</svg>
