<svg width="32" height="33" viewBox="0 0 32 33" fill="none" xmlns="http://www.w3.org/2000/svg">
<g clip-path="url(#clip0_1_5733)">
<path d="M16.0005 32.0332C24.837 32.0332 32.0005 24.8698 32.0005 16.0332C32.0005 7.19665 24.837 0.0332031 16.0005 0.0332031C7.16393 0.0332031 0.000488281 7.19665 0.000488281 16.0332C0.000488281 24.8698 7.16393 32.0332 16.0005 32.0332Z" fill="#008200"/>
<path d="M14.7905 23.0332H12.9925L11.9105 18.7832L14.5555 17.4012L15.4165 19.8612L16.0575 16.6162L19.5725 14.7792L19.3785 15.7552L21.4085 15.7742C22.1925 15.7622 22.7995 15.4972 23.2315 14.9812C23.6635 14.4642 23.8685 13.7712 23.8465 12.8982C23.843 12.7858 23.8313 12.6739 23.8115 12.5632L26.5415 11.1362C26.9195 11.8312 27.0635 12.6502 26.9755 13.5912C26.8295 14.9632 26.2355 16.0612 25.1965 16.8842C24.1575 17.7082 22.8325 18.1202 21.2235 18.1202L18.9175 18.1102L17.9405 23.0332H14.7905ZM15.2115 12.0432H16.9615L14.2645 15.8682L7.60449 19.3492L10.0725 15.8592L7.70049 9.0332H11.1805L12.4105 13.8222L13.4625 12.0422H15.2125H13.4625L15.3405 9.0332H17.5555L22.6815 9.0432C23.8465 9.0752 24.8015 9.3842 25.5475 9.9702L22.7475 11.4342C22.6787 11.4214 22.6093 11.4128 22.5395 11.4082L20.2455 11.3882L19.9455 12.8982L16.4285 14.7362L16.9605 12.0422L15.2115 12.0432ZM5.78649 21.9852L11.1135 19.2002L8.76549 23.0332H5.00049L5.76749 21.9482L5.78649 21.9852Z" fill="white"/>
</g>
<defs>
<clipPath id="clip0_1_5733">
<rect width="32" height="32" fill="white" transform="translate(0.000488281 0.0332031)"/>
</clipPath>
</defs>
</svg>
