<svg width="32" height="33" viewBox="0 0 32 33" fill="none" xmlns="http://www.w3.org/2000/svg">
<g clip-path="url(#clip0_1_5729)">
<path d="M16.0005 32.0332C24.837 32.0332 32.0005 24.8698 32.0005 16.0332C32.0005 7.19665 24.837 0.0332031 16.0005 0.0332031C7.16393 0.0332031 0.000488281 7.19665 0.000488281 16.0332C0.000488281 24.8698 7.16393 32.0332 16.0005 32.0332Z" fill="#4FA784"/>
<path fill-rule="evenodd" clip-rule="evenodd" d="M25.574 12.8794L17.464 10.5554L14.69 15.2804L11.468 11.5434L12.928 11.3554L14.433 13.1234L16.103 10.1644L8.75301 8.05736C8.65426 8.02809 8.54955 8.02537 8.44942 8.04946C8.34928 8.07355 8.25727 8.12361 8.18264 8.19458C8.10801 8.26556 8.05341 8.35495 8.02433 8.45375C7.99525 8.55255 7.99273 8.65727 8.01701 8.75736L11.273 21.8334L14.77 15.9454L17.992 19.6824L16.532 19.8704L15.028 18.1024L11.718 23.6194L12.208 25.5894C12.2335 25.6893 12.2847 25.7808 12.3566 25.8547C12.4285 25.9286 12.5185 25.9825 12.6176 26.0108C12.7167 26.0391 12.8216 26.041 12.9217 26.0161C13.0217 25.9913 13.1136 25.9407 13.188 25.8694L25.818 13.8594C25.8926 13.7887 25.9471 13.6995 25.9759 13.6009C26.0047 13.5023 26.0068 13.3978 25.9819 13.2982C25.9571 13.1985 25.9063 13.1072 25.8346 13.0336C25.7629 12.96 25.673 12.9068 25.574 12.8794Z" fill="white"/>
</g>
<defs>
<clipPath id="clip0_1_5729">
<rect width="32" height="32" fill="white" transform="translate(0.000488281 0.0332031)"/>
</clipPath>
</defs>
</svg>
