<svg width="32" height="33" viewBox="0 0 32 33" fill="none" xmlns="http://www.w3.org/2000/svg">
<g clip-path="url(#clip0_1_5725)">
<path d="M16.0005 32.0332C24.837 32.0332 32.0005 24.8698 32.0005 16.0332C32.0005 7.19665 24.837 0.0332031 16.0005 0.0332031C7.16393 0.0332031 0.000488281 7.19665 0.000488281 16.0332C0.000488281 24.8698 7.16393 32.0332 16.0005 32.0332Z" fill="#FFD81B"/>
<path d="M24.0005 15.5952C24.0005 20.0182 20.5745 21.5222 17.6905 21.5222V22.6752H19.9155V24.2372H17.6915V26.0332H14.2115V24.2372H12.0845V22.6752H14.2075V21.5072C13.2845 21.5072 8.00049 21.2882 8.00049 15.2742V8.0332H11.4555V15.5512C11.4555 18.6902 14.2215 18.6612 14.2215 18.6612V8.0332H17.6915V18.6612C17.6915 18.6612 20.5455 18.8212 20.5455 15.5082V8.0332H24.0005V15.5952Z" fill="white"/>
</g>
<defs>
<clipPath id="clip0_1_5725">
<rect width="32" height="32" fill="white" transform="translate(0.000488281 0.0332031)"/>
</clipPath>
</defs>
</svg>
