<svg width="32" height="33" viewBox="0 0 32 33" fill="none" xmlns="http://www.w3.org/2000/svg">
<g clip-path="url(#clip0_1_5721)">
<path d="M16.0005 32.0332C24.837 32.0332 32.0005 24.8698 32.0005 16.0332C32.0005 7.19665 24.837 0.0332031 16.0005 0.0332031C7.16393 0.0332031 0.000488281 7.19665 0.000488281 16.0332C0.000488281 24.8698 7.16393 32.0332 16.0005 32.0332Z" fill="#23292F"/>
<path d="M23.0705 8.0332H25.9605L19.9455 13.9902C18.8938 15.0263 17.4768 15.6071 16.0005 15.6071C14.5242 15.6071 13.1071 15.0263 12.0555 13.9902L6.03549 8.0332H8.93049L13.5005 12.5562C14.166 13.2131 15.0634 13.5814 15.9985 13.5814C16.9336 13.5814 17.831 13.2131 18.4965 12.5562L23.0705 8.0332ZM8.89549 24.5962H6.00049L12.0555 18.6032C13.1071 17.5671 14.5242 16.9863 16.0005 16.9863C17.4768 16.9863 18.8938 17.5671 19.9455 18.6032L26.0005 24.5952H23.1055L18.5005 20.0332C17.835 19.3763 16.9376 19.008 16.0025 19.008C15.0674 19.008 14.17 19.3763 13.5045 20.0332L8.89449 24.5962H8.89549Z" fill="white"/>
</g>
<defs>
<clipPath id="clip0_1_5721">
<rect width="32" height="32" fill="white" transform="translate(0.000488281 0.0332031)"/>
</clipPath>
</defs>
</svg>
