<svg width="32" height="33" viewBox="0 0 32 33" fill="none" xmlns="http://www.w3.org/2000/svg">
<g clip-path="url(#clip0_1_5717)">
<path d="M16.001 32.0332C24.8375 32.0332 32.001 24.8698 32.001 16.0332C32.001 7.19665 24.8375 0.0332031 16.001 0.0332031C7.16442 0.0332031 0.000976562 7.19665 0.000976562 16.0332C0.000976562 24.8698 7.16442 32.0332 16.001 32.0332Z" fill="#D21E2B"/>
<path d="M16.141 5.8882V3.0332L26.767 9.1652L24.31 10.5932L16.141 5.8882ZM24.473 20.3052V10.8972L26.954 9.4692V21.7332L24.474 20.3052H24.473ZM16.141 25.3142L24.31 20.6102L26.767 22.0372L16.141 28.1692V25.3142ZM5.16498 22.0372L7.64498 20.6102L15.79 25.3142V28.1692L5.16498 22.0372ZM5.00098 9.4692L7.45798 10.8972V20.3052L5.00098 21.7332V9.4692ZM5.16498 9.1652L15.79 3.0332V5.8882L7.64598 10.5932L5.16498 9.1652ZM15.989 6.1572L7.79798 10.8632V20.3182L15.989 25.0462L24.157 20.3182V10.8632L15.989 6.1582V6.1572ZM22.566 14.6072L22.215 15.2152L19.875 13.9052L16.879 15.5892L19.874 17.2742L22.214 15.9642L22.566 16.5722L20.6 17.6722L22.566 18.7722L22.215 19.3812L20.249 18.2812V20.4812H19.523V17.8832L16.528 16.1982V19.5682L18.845 20.8552L18.494 21.4522L16.528 20.3522V22.5522H15.801V20.3522L13.835 21.4522L13.461 20.8442L15.801 19.5562V16.1982L12.805 17.8832V20.4812H12.056V18.2812L10.114 19.3812L9.73898 18.7722L11.705 17.6722L9.73898 16.5722L10.114 15.9642L12.431 17.2742L15.45 15.5892L12.43 13.9042L10.114 15.2142L9.73898 14.6062L11.705 13.5062L9.73898 12.4062L10.114 11.7982L12.056 12.8982V10.6862H12.806V13.2842L15.801 14.9692V11.6112L13.484 10.3232L13.835 9.7152L15.801 10.8152V8.6152H16.527V10.8152L18.493 9.7152L18.843 10.3232L16.527 11.6112V14.9812L19.522 13.2962V10.6862H20.248V12.8862L22.214 11.7862L22.564 12.3952L20.599 13.4952L22.565 14.6062L22.566 14.6072Z" fill="white"/>
</g>
<defs>
<clipPath id="clip0_1_5717">
<rect width="32" height="32" fill="white" transform="translate(0.000976562 0.0332031)"/>
</clipPath>
</defs>
</svg>
