<svg width="32" height="33" viewBox="0 0 32 33" fill="none" xmlns="http://www.w3.org/2000/svg">
<g clip-path="url(#clip0_1_5713)">
<path d="M16.001 32.0332C24.8375 32.0332 32.001 24.8698 32.001 16.0332C32.001 7.19665 24.8375 0.0332031 16.001 0.0332031C7.16442 0.0332031 0.000976562 7.19665 0.000976562 16.0332C0.000976562 24.8698 7.16442 32.0332 16.001 32.0332Z" fill="#A6E000"/>
<path fill-rule="evenodd" clip-rule="evenodd" d="M18.691 26.0332C17.231 26.0332 16.167 25.6892 15.499 25.0032C14.832 24.3152 14.498 23.5742 14.498 22.7802C14.498 22.4902 14.556 22.2452 14.673 22.0472C14.7871 21.8507 14.9518 21.6884 15.15 21.5772C15.352 21.4632 15.6 21.4052 15.895 21.4052C16.19 21.4052 16.439 21.4632 16.641 21.5772C16.843 21.6922 17.001 21.8482 17.118 22.0472C17.235 22.2452 17.293 22.4902 17.293 22.7802C17.293 23.1312 17.208 23.4172 17.037 23.6392C16.8871 23.8457 16.6746 23.9983 16.431 24.0742C16.633 24.3492 16.951 24.5442 17.386 24.6582C17.821 24.7812 18.256 24.8422 18.69 24.8422C19.2733 24.849 19.8454 24.6815 20.333 24.3612C20.822 24.0402 21.183 23.5662 21.415 22.9412C21.648 22.3142 21.765 21.6042 21.765 20.8102C21.765 19.9472 21.637 19.2102 21.381 18.5992C21.132 17.9802 20.763 17.5222 20.274 17.2242C19.7981 16.9303 19.2493 16.7758 18.69 16.7782C18.318 16.7782 17.852 16.9302 17.293 17.2362L16.268 17.7402V17.2362L20.88 11.1882H14.498V17.4652C14.498 17.9852 14.614 18.4122 14.848 18.7482C15.08 19.0842 15.438 19.2522 15.918 19.2522C16.291 19.2522 16.648 19.1302 16.99 18.8852C17.333 18.6393 17.6322 18.3374 17.875 17.9922C17.899 17.9321 17.9396 17.8801 17.992 17.8422C18.0342 17.8064 18.0876 17.7866 18.143 17.7862C18.229 17.7862 18.329 17.8282 18.446 17.9112C18.5521 18.0268 18.6103 18.1783 18.609 18.3352C18.5956 18.4432 18.5763 18.5504 18.551 18.6562C18.287 19.2362 17.921 19.6792 17.456 19.9852C17.0006 20.2873 16.4655 20.4468 15.919 20.4432C14.537 20.4432 13.582 20.1762 13.054 19.6412C12.526 19.1072 12.262 18.3812 12.262 17.4652V11.1882H9.00098V10.0192H12.261V7.3632L11.517 6.6292V6.0332H13.683L14.498 6.4452V10.0192L22.929 9.9962L23.769 10.8212L18.597 15.9072C18.9103 15.784 19.2396 15.7066 19.575 15.6772C20.135 15.6772 20.763 15.8532 21.462 16.2052C22.169 16.5482 22.712 17.0222 23.092 17.6252C23.473 18.2212 23.718 18.7942 23.826 19.3442C23.9347 19.8255 23.9933 20.3168 24.001 20.8102C24.0083 21.7557 23.7928 22.6895 23.372 23.5362C22.9676 24.3613 22.2938 25.0238 21.462 25.4142C20.5975 25.829 19.6497 26.0407 18.691 26.0332Z" fill="white"/>
</g>
<defs>
<clipPath id="clip0_1_5713">
<rect width="32" height="32" fill="white" transform="translate(0.000976562 0.0332031)"/>
</clipPath>
</defs>
</svg>
