<svg width="32" height="33" viewBox="0 0 32 33" fill="none" xmlns="http://www.w3.org/2000/svg">
<g clip-path="url(#clip0_1_5709)">
<path d="M16.001 32.0332C24.8375 32.0332 32.001 24.8698 32.001 16.0332C32.001 7.19665 24.8375 0.0332031 16.001 0.0332031C7.16442 0.0332031 0.000976562 7.19665 0.000976562 16.0332C0.000976562 24.8698 7.16442 32.0332 16.001 32.0332Z" fill="#25AAE3"/>
<path d="M27.001 16.0332C27.001 22.1082 22.076 27.0332 16.001 27.0332C9.92598 27.0332 5.00098 22.1082 5.00098 16.0332C5.00098 9.9572 9.92598 5.0332 16.001 5.0332C22.076 5.0332 27.001 9.9582 27.001 16.0332ZM23.231 16.3792C23.238 16.2542 23.231 16.3792 23.231 16.2522C23.231 12.6452 20.566 9.4412 17.109 8.9022V6.8022L14.869 7.5002V8.9032C11.414 9.4412 8.76698 12.4232 8.76698 16.0282C8.76698 19.7182 11.537 22.7582 15.111 23.1932V25.2612L17.351 24.5632V23.1172C18.5868 22.8783 19.7389 22.3208 20.6932 21.5C21.6475 20.6792 22.3709 19.6234 22.792 18.4372H20.471C20.0373 19.2484 19.3915 19.9267 18.6025 20.3996C17.8135 20.8724 16.9108 21.1222 15.991 21.1222C14.7043 21.1213 13.4656 20.6335 12.5239 19.7568C11.5821 18.8801 11.0069 17.6795 10.914 16.3962L23.232 16.3792H23.231ZM11.251 14.1632C11.6254 13.2112 12.2778 12.394 13.1232 11.8181C13.9687 11.2421 14.968 10.9341 15.991 10.9342C17.0135 10.9351 18.0121 11.2436 18.8569 11.8197C19.7017 12.3957 20.3537 13.2126 20.728 14.1642H11.252L11.251 14.1632Z" fill="white"/>
</g>
<defs>
<clipPath id="clip0_1_5709">
<rect width="32" height="32" fill="white" transform="translate(0.000976562 0.0332031)"/>
</clipPath>
</defs>
</svg>
