<svg width="32" height="33" viewBox="0 0 32 33" fill="none" xmlns="http://www.w3.org/2000/svg">
<g clip-path="url(#clip0_1_5671)">
<path d="M16 32.0347C24.8366 32.0347 32 24.8712 32 16.0347C32 7.19811 24.8366 0.034668 16 0.034668C7.16344 0.034668 0 7.19811 0 16.0347C0 24.8712 7.16344 32.0347 16 32.0347Z" fill="#23B852"/>
<path d="M18.725 19.1827H22.115V22.1467H11.93L24.573 9.49467C24.7735 9.29177 24.9105 9.03485 24.9674 8.75532C25.0242 8.47579 24.9983 8.18575 24.893 7.92067C24.7812 7.65721 24.5941 7.43259 24.3552 7.27499C24.1163 7.11738 23.8362 7.03378 23.55 7.03467H8.44999C8.25903 7.03334 8.06972 7.07 7.89306 7.14252C7.71641 7.21505 7.55594 7.32198 7.421 7.45711C7.28607 7.59223 7.17935 7.75284 7.10707 7.9296C7.03479 8.10635 6.99839 8.29572 6.99999 8.48667V19.1827L13.275 12.9027H9.88499V9.92267H20.053L7.42699 22.5747C7.22649 22.7776 7.08946 23.0345 7.03263 23.314C6.9758 23.5936 7.00164 23.8836 7.10699 24.1487C7.33599 24.6837 7.85499 25.0347 8.44999 25.0347H23.55C23.7406 25.0347 23.9293 24.9971 24.1053 24.9241C24.2814 24.8511 24.4413 24.7441 24.576 24.6093C24.7107 24.4744 24.8174 24.3143 24.8902 24.1382C24.9629 23.962 25.0003 23.7733 25 23.5827V12.9027L18.725 19.1827Z" fill="white"/>
</g>
<defs>
<clipPath id="clip0_1_5671">
<rect width="32" height="32" fill="white" transform="translate(0 0.034668)"/>
</clipPath>
</defs>
</svg>
