<svg width="32" height="33" viewBox="0 0 32 33" fill="none" xmlns="http://www.w3.org/2000/svg">
<g clip-path="url(#clip0_1_5665)">
<path d="M16 32.0347C24.8366 32.0347 32 24.8712 32 16.0347C32 7.19811 24.8366 0.034668 16 0.034668C7.16344 0.034668 0 7.19811 0 16.0347C0 24.8712 7.16344 32.0347 16 32.0347Z" fill="#006AE3"/>
<path d="M16 22.6407V10.0347H17.372V22.6407H16Z" fill="white"/>
<path d="M22.697 13.9884L18.457 15.1124L17.512 10.7124L18.772 10.4284L19.27 12.5124C19.27 12.5124 20.415 10.6344 18.888 8.68844C17.988 7.68844 17.561 7.64644 16.552 7.48844C15.664 7.36144 13.6 7.66144 12.985 10.0704C12.725 11.6224 13.018 12.7704 15.018 14.2734L14.906 15.9464C14.906 15.9464 12.673 14.3734 12.097 13.2704C11.652 12.3974 10.887 10.6734 12.267 8.27344C13.009 7.07344 14.473 5.92244 17.052 6.04344C18.348 6.09744 21.515 7.68344 21.024 11.3854C20.939 12.0794 20.579 13.0034 20.579 13.0034L22.319 12.6164L22.697 13.9884ZM20.276 23.8524C19.5 25.0314 18.006 26.1424 15.433 25.9554C14.136 25.8674 11.015 24.1974 11.603 20.5094C11.706 19.8194 12.091 18.9064 12.091 18.9064L10.342 19.2464L10 17.8674L14.27 16.8554L15.1 21.2794L13.83 21.5314L13.388 19.4314C13.388 19.4314 12.194 21.2764 13.667 23.2644C14.539 24.2884 14.964 24.3404 15.973 24.5244C16.855 24.6764 18.927 24.4284 19.606 22.0374C19.906 20.4944 19.642 19.3374 17.685 17.7794L17.842 16.1094C17.842 16.1094 20.033 17.7394 20.579 18.8584C20.997 19.7464 21.715 21.4914 20.276 23.8524Z" fill="white"/>
</g>
<defs>
<clipPath id="clip0_1_5665">
<rect width="32" height="32" fill="white" transform="translate(0 0.034668)"/>
</clipPath>
</defs>
</svg>
