<svg width="32" height="33" viewBox="0 0 32 33" fill="none" xmlns="http://www.w3.org/2000/svg">
<g clip-path="url(#clip0_1_5661)">
<path d="M16 32.0347C24.8366 32.0347 32 24.8712 32 16.0347C32 7.19811 24.8366 0.034668 16 0.034668C7.16344 0.034668 0 7.19811 0 16.0347C0 24.8712 7.16344 32.0347 16 32.0347Z" fill="#21A5DE"/>
<path d="M21.49 16.6097C21.83 16.9737 22.036 17.4587 22.036 17.9907C22.036 19.1197 21.108 20.0347 19.964 20.0347C18.821 20.0347 17.894 19.1197 17.894 17.9907C17.894 17.4587 18.1 16.9737 18.438 16.6097C18.329 16.6933 18.1989 16.745 18.0622 16.7592C17.9255 16.7733 17.7875 16.7492 17.6637 16.6896C17.5399 16.63 17.435 16.5373 17.3607 16.4216C17.2864 16.306 17.2457 16.1721 17.243 16.0347C17.2427 15.8712 17.2981 15.7125 17.4 15.5847C17.031 15.9187 16.54 16.1227 16 16.1227C15.46 16.1227 14.969 15.9187 14.6 15.5847C14.7019 15.7125 14.7573 15.8712 14.757 16.0347C14.757 16.4377 14.427 16.7647 14.017 16.7647C13.8523 16.7648 13.6923 16.7103 13.562 16.6097C13.9 16.9737 14.107 17.4587 14.107 17.9907C14.107 19.1197 13.179 20.0347 12.036 20.0347C10.892 20.0347 9.964 19.1197 9.964 17.9907C9.964 17.4587 10.171 16.9737 10.509 16.6097C10.4 16.6933 10.2699 16.745 10.1332 16.7592C9.99646 16.7733 9.85853 16.7492 9.7347 16.6896C9.61087 16.63 9.50599 16.5373 9.43172 16.4216C9.35745 16.306 9.3167 16.1721 9.314 16.0347C9.31373 15.8712 9.3691 15.7125 9.471 15.5847C9.102 15.9187 8.611 16.1227 8.071 16.1227C6.927 16.1227 6 15.2077 6 14.0787C6 12.9497 6.927 12.0347 8.071 12.0347C9.215 12.0347 10.142 12.9497 10.142 14.0787C10.1422 14.5915 9.94738 15.0852 9.597 15.4597C9.70604 15.3758 9.83624 15.3238 9.97309 15.3095C10.1099 15.2952 10.2481 15.3193 10.3721 15.3789C10.4961 15.4385 10.6011 15.5314 10.6754 15.6472C10.7497 15.7629 10.7904 15.8971 10.793 16.0347C10.7933 16.1981 10.7379 16.3568 10.636 16.4847C11.004 16.1507 11.496 15.9467 12.036 15.9467C12.576 15.9467 13.066 16.1507 13.436 16.4847C13.3337 16.357 13.278 16.1983 13.278 16.0347C13.1775 15.9573 13.0984 15.8555 13.0484 15.7389C12.9983 15.6224 12.979 15.495 12.9921 15.3688C13.0053 15.2426 13.0505 15.1219 13.1235 15.0182C13.1965 14.9145 13.2949 14.8312 13.4092 14.7762C13.5235 14.7212 13.65 14.6965 13.7766 14.7042C13.9032 14.712 14.0257 14.752 14.1325 14.8206C14.2392 14.8891 14.3266 14.9838 14.3864 15.0957C14.4462 15.2075 14.4764 15.3328 14.474 15.4597C14.1238 15.0851 13.929 14.5915 13.929 14.0787C13.929 12.9497 14.856 12.0347 16 12.0347C17.144 12.0347 18.071 12.9497 18.071 14.0787C18.0712 14.5915 17.8764 15.0852 17.526 15.4597C17.635 15.3758 17.7652 15.3238 17.9021 15.3095C18.0389 15.2952 18.1771 15.3193 18.3011 15.3789C18.4251 15.4385 18.5301 15.5314 18.6044 15.6472C18.6787 15.7629 18.7194 15.8971 18.722 16.0347C18.7223 16.1981 18.6669 16.3568 18.565 16.4847C18.933 16.1507 19.425 15.9467 19.965 15.9467C20.505 15.9467 20.995 16.1507 21.365 16.4847C21.2627 16.357 21.207 16.1983 21.207 16.0347C21.1065 15.9573 21.0274 15.8555 20.9774 15.7389C20.9273 15.6224 20.908 15.495 20.9211 15.3688C20.9343 15.2426 20.9795 15.1219 21.0525 15.0182C21.1255 14.9145 21.2239 14.8312 21.3382 14.7762C21.4525 14.7212 21.579 14.6965 21.7056 14.7042C21.8322 14.712 21.9547 14.752 22.0615 14.8206C22.1682 14.8891 22.2556 14.9838 22.3154 15.0957C22.3752 15.2075 22.4054 15.3328 22.403 15.4597C22.0528 15.0851 21.858 14.5915 21.858 14.0787C21.858 12.9497 22.785 12.0347 23.929 12.0347C25.073 12.0347 26 12.9497 26 14.0787C26 15.2077 25.073 16.1227 23.929 16.1227C23.389 16.1227 22.898 15.9187 22.529 15.5847C22.6309 15.7125 22.6863 15.8712 22.686 16.0347C22.686 16.4377 22.356 16.7647 21.946 16.7647C21.7813 16.7648 21.6213 16.7103 21.491 16.6097H21.49Z" fill="white"/>
</g>
<defs>
<clipPath id="clip0_1_5661">
<rect width="32" height="32" fill="white" transform="translate(0 0.034668)"/>
</clipPath>
</defs>
</svg>
