<svg width="32" height="33" viewBox="0 0 32 33" fill="none" xmlns="http://www.w3.org/2000/svg">
<g clip-path="url(#clip0_1_5657)">
<path d="M16 32.0347C24.8366 32.0347 32 24.8712 32 16.0347C32 7.19811 24.8366 0.034668 16 0.034668C7.16344 0.034668 0 7.19811 0 16.0347C0 24.8712 7.16344 32.0347 16 32.0347Z" fill="#C87035"/>
<path d="M15.992 27.0347C9.917 27.0307 5 22.1047 5 16.0207C5 9.94967 9.932 5.03067 16.015 5.03467C22.08 5.03867 27.008 9.96867 27 16.0367C26.988 22.0387 22.164 27.0267 15.992 27.0347ZM11.509 21.0647C11.54 21.0057 11.564 20.9587 11.587 20.9207C12.571 19.1847 13.557 17.4507 14.543 15.7187C15.407 14.2007 16.269 12.6807 17.128 11.1607C17.1399 11.1315 17.161 11.1069 17.188 11.0907C17.2151 11.0745 17.2466 11.0675 17.278 11.0707C18.282 11.0757 19.29 11.0757 20.293 11.0757H20.436C19.042 13.5357 17.658 15.9787 16.263 18.4357C16.313 18.4397 16.341 18.4397 16.368 18.4397C18.887 18.4397 21.404 18.4407 23.92 18.4437C24.005 18.4437 24.032 18.4127 24.051 18.3387C24.4322 16.9937 24.4684 15.5743 24.156 14.2117C23.78 12.5617 22.955 11.1687 21.738 10.0037C21.1919 9.48304 20.5719 9.04599 19.898 8.70667C18.224 7.85267 16.461 7.58167 14.613 7.90667C12.773 8.23367 11.223 9.10267 9.952 10.4767C9.785 10.6567 9.634 10.8497 9.475 11.0367C9.479 11.0477 9.487 11.0567 9.491 11.0667H16.671C16.631 11.1417 16.604 11.1957 16.573 11.2467C16.136 12.0227 15.693 12.7947 15.26 13.5717C15.2429 13.6099 15.2142 13.6417 15.1779 13.6625C15.1416 13.6834 15.0996 13.6922 15.058 13.6877C12.796 13.6837 10.534 13.6827 8.274 13.6837H8.138C6.992 17.2867 8.611 21.8057 12.672 23.6137C16.604 25.3697 20.727 23.7537 22.66 21.0567C18.945 21.0637 15.228 21.0667 11.51 21.0637L11.509 21.0647ZM24.152 22.9627C25.547 21.4127 26.787 18.8627 26.709 15.7997C26.647 13.2767 25.783 11.0597 24.168 9.09967C23.664 9.60767 23.172 10.1007 22.684 10.5937C25.244 13.6727 25.354 18.2257 22.711 21.4947L24.152 22.9627Z" fill="white"/>
</g>
<defs>
<clipPath id="clip0_1_5657">
<rect width="32" height="32" fill="white" transform="translate(0 0.034668)"/>
</clipPath>
</defs>
</svg>
