<svg width="32" height="33" viewBox="0 0 32 33" fill="none" xmlns="http://www.w3.org/2000/svg">
<g clip-path="url(#clip0_1_5653)">
<path d="M16 32.0347C24.8366 32.0347 32 24.8712 32 16.0347C32 7.19811 24.8366 0.034668 16 0.034668C7.16344 0.034668 0 7.19811 0 16.0347C0 24.8712 7.16344 32.0347 16 32.0347Z" fill="#ECB244"/>
<path d="M14.596 19.8807H20.893V23.2307H17.018C17.082 24.1887 17.115 25.0777 17.179 26.0347H13.918V23.2647H10.042C10.042 22.1717 9.91303 21.0777 10.107 20.0517C10.204 19.5047 10.785 19.0257 11.14 18.5477C12.3683 17.0128 13.6063 15.4858 14.854 13.9667C15.339 13.3847 15.823 12.8377 16.372 12.1887H10.332V8.83867H13.918V6.03467H17.05V8.76967H20.958C20.958 9.89767 21.087 10.9917 20.893 12.0177C20.796 12.5647 20.215 13.0437 19.828 13.5217C18.5998 15.0566 17.3618 16.5836 16.114 18.1027C15.6268 18.7111 15.1206 19.3041 14.596 19.8807Z" fill="white"/>
</g>
<defs>
<clipPath id="clip0_1_5653">
<rect width="32" height="32" fill="white" transform="translate(0 0.034668)"/>
</clipPath>
</defs>
</svg>
