<svg width="32" height="33" viewBox="0 0 32 33" fill="none" xmlns="http://www.w3.org/2000/svg">
<g clip-path="url(#clip0_1_5649)">
<path d="M16 32.0347C24.8366 32.0347 32 24.8712 32 16.0347C32 7.19811 24.8366 0.034668 16 0.034668C7.16344 0.034668 0 7.19811 0 16.0347C0 24.8712 7.16344 32.0347 16 32.0347Z" fill="#183C87"/>
<path fill-rule="evenodd" clip-rule="evenodd" d="M5 15.6497L9.495 13.1117L13.989 15.6497V20.4967L9.495 23.0347L5 20.4967V15.6497ZM18.01 15.6497L22.505 13.1117L27 15.6497V20.4967L22.505 23.0347L18.011 20.4967V15.6497H18.01ZM17.538 19.8597L15.961 20.7267L14.462 19.9037V15.2647L10.362 12.9487V11.2647L15.961 8.03467L21.559 11.2647V12.9947L17.538 15.2647V19.8607V19.8597Z" fill="white"/>
</g>
<defs>
<clipPath id="clip0_1_5649">
<rect width="32" height="32" fill="white" transform="translate(0 0.034668)"/>
</clipPath>
</defs>
</svg>
