<svg width="32" height="33" viewBox="0 0 32 33" fill="none" xmlns="http://www.w3.org/2000/svg">
<g clip-path="url(#clip0_1_5642)">
<path d="M16 32.0347C24.8366 32.0347 32 24.8712 32 16.0347C32 7.19811 24.8366 0.034668 16 0.034668C7.16344 0.034668 0 7.19811 0 16.0347C0 24.8712 7.16344 32.0347 16 32.0347Z" fill="#00EAAB"/>
<path d="M25.232 10.0346L23.452 12.8046C24.0199 13.9176 24.3134 15.1502 24.308 16.3996C24.308 20.7996 20.748 24.3426 16.365 24.3426C15.1213 24.3483 13.8944 24.0547 12.788 23.4866L10 25.2836C11.797 26.5596 13.98 27.3326 16.348 27.3326C22.377 27.3326 27.281 22.4456 27.281 16.3996C27.281 14.0146 26.525 11.8316 25.232 10.0346Z" fill="white"/>
<path d="M15.552 21.8031C16.8326 21.803 18.0727 21.3546 19.0573 20.5358C20.0418 19.7169 20.7086 18.5792 20.942 17.3201C19.2326 16.9479 17.4641 16.9396 15.7512 17.2955C14.0384 17.6515 12.4196 18.3637 11 19.3861C11.5008 20.1329 12.1785 20.7444 12.9726 21.1662C13.7667 21.5881 14.6528 21.8072 15.552 21.8041V21.8031Z" fill="white"/>
<path d="M18.62 15.6647C19.577 15.6647 20.5 15.7657 21.408 15.9677C21.4075 14.5113 20.8287 13.1147 19.7989 12.0848C18.769 11.055 17.3724 10.4762 15.916 10.4757C15.1334 10.4763 14.36 10.6446 13.6478 10.9691C12.9356 11.2937 12.3013 11.767 11.7874 12.3573C11.2735 12.9476 10.892 13.6411 10.6685 14.3911C10.4451 15.1412 10.3849 15.9304 10.492 16.7057C9.115 17.7647 8.46 18.5877 8.426 18.6207C8.12905 17.7734 7.97594 16.8824 7.973 15.9847C7.973 11.5847 11.533 8.04067 15.916 8.04067C17.209 8.04067 18.418 8.34267 19.493 8.89767L22.264 7.10067C20.4285 5.75344 18.2098 5.02942 15.933 5.03467C14.4969 5.03335 13.0746 5.31524 11.7476 5.86421C10.4205 6.41318 9.21476 7.21845 8.19927 8.23393C7.18379 9.24942 6.37852 10.4552 5.82955 11.7822C5.28058 13.1093 4.99869 14.5316 5 15.9677C5 18.4027 5.79 20.6367 7.133 22.4497C7.653 21.5097 8.275 20.6527 8.997 19.8797C8.997 19.8797 10.072 18.7557 10.895 18.1847C13.1359 16.5434 15.8423 15.6605 18.62 15.6647Z" fill="white"/>
</g>
<defs>
<clipPath id="clip0_1_5642">
<rect width="32" height="32" fill="white" transform="translate(0 0.034668)"/>
</clipPath>
</defs>
</svg>
