<svg width="32" height="33" viewBox="0 0 32 33" fill="none" xmlns="http://www.w3.org/2000/svg">
<g clip-path="url(#clip0_1_5635)">
<path d="M16 32.0347C24.8366 32.0347 32 24.8712 32 16.0347C32 7.19811 24.8366 0.034668 16 0.034668C7.16344 0.034668 0 7.19811 0 16.0347C0 24.8712 7.16344 32.0347 16 32.0347Z" fill="#07BC9C"/>
<path fill-rule="evenodd" clip-rule="evenodd" d="M23.4877 6.72967C22.9187 6.58767 21.5927 6.60667 21.1857 7.16567C21.5927 7.39267 21.8767 7.74267 22.2937 7.75267C22.7107 7.76267 23.1937 7.36367 23.7237 7.59167C23.4967 7.59167 22.4737 7.78167 22.4077 8.09367C22.5507 8.32867 22.7227 8.54467 22.9187 8.73767C23.1847 8.95567 23.2127 9.03167 23.6107 8.81367C24.0979 8.50611 24.4655 8.0415 24.6527 7.49667C24.6527 7.21267 24.7377 7.40167 24.5297 7.16567C24.224 6.93605 23.8659 6.78621 23.4877 6.72967ZM18.1447 7.23167C18.9141 6.82123 19.8081 6.70975 20.6547 6.91867C20.5728 6.0063 20.1462 5.15947 19.4617 4.55067C20.2817 5.06067 20.8587 5.88067 21.0617 6.82367C21.5267 6.74867 22.0097 6.56867 22.4547 6.50167C22.3745 5.59478 21.9752 4.74577 21.3277 4.10567C21.0147 3.81167 20.1337 3.03467 19.6307 3.03467C19.1277 3.03467 18.4747 4.17167 18.2857 4.63567C17.9616 5.46346 17.9118 6.37346 18.1437 7.23167H18.1447Z" fill="white"/>
<path fill-rule="evenodd" clip-rule="evenodd" d="M18.2213 8.66713C18.0513 8.26013 18.7993 8.09913 19.0273 8.12713C19.4343 8.24713 19.8073 8.46113 20.1173 8.75213C20.7133 9.19813 21.8873 10.5151 22.7503 10.2021C23.6123 9.88913 22.5893 8.36413 22.1153 7.96613C21.728 7.60101 21.2608 7.33134 20.7509 7.17856C20.2411 7.02579 19.7026 6.99414 19.1783 7.08613C18.7003 7.22913 18.3083 7.57613 18.1083 8.03213C18.0513 8.24113 17.8433 8.66713 18.2223 8.66713H18.2213Z" fill="white"/>
<path d="M22.3606 14.8144C21.8306 14.4924 21.6406 13.5444 21.3096 13.0244C20.8546 12.2944 20.1916 11.6984 19.7936 10.9404C19.3956 10.1824 19.3486 9.60443 18.6666 9.24443C18.4052 9.10666 18.1141 9.03467 17.8186 9.03467C17.5231 9.03467 17.2321 9.10666 16.9706 9.24443C16.1236 9.62843 15.2326 9.90843 14.3176 10.0784C13.912 10.1745 13.5134 10.2981 13.1246 10.4484C12.8001 10.6307 12.4609 10.7856 12.1106 10.9114C11.2386 11.0344 9.62863 9.96443 9.78063 11.6214C9.78063 11.9254 10.0926 12.0864 9.99763 12.4744C9.90363 12.8634 9.48663 13.2044 9.28763 13.5074C8.87899 14.193 8.56036 14.9284 8.33963 15.6954C7.80127 17.4327 7.90562 19.3057 8.63363 20.9724C8.98363 21.7924 9.45062 22.5584 10.0166 23.2464C10.2936 23.5694 10.5366 23.9184 10.7466 24.2884C10.9066 24.7264 11.1066 25.1484 11.3436 25.5484C11.5485 25.8058 11.8206 26.0014 12.1299 26.1135C12.4392 26.2256 12.7734 26.2498 13.0956 26.1834C13.4267 26.0697 13.7446 25.9205 14.0436 25.7384C14.5544 25.5353 15.0891 25.3982 15.6346 25.3304C17.6251 25.0184 19.4407 24.0115 20.7596 22.4884C21.3845 21.7344 21.8692 20.8745 22.1906 19.9494C22.3774 19.4335 22.5137 18.9007 22.5976 18.3584C22.6456 18.0174 22.5416 17.1544 22.7876 16.9284C22.9476 16.7754 23.3276 16.7384 23.4416 16.5954C23.528 16.4072 23.5943 16.2105 23.6396 16.0084C23.8196 15.4494 22.7686 15.0044 22.3616 14.8144H22.3606ZM23.0806 16.1694C22.9386 16.4914 22.3806 16.6814 22.1336 17.0224C21.7795 17.6613 21.3071 18.2271 20.7416 18.6894C20.1719 18.9863 19.5165 19.0749 18.8884 18.94C18.2603 18.8051 17.6991 18.4551 17.3016 17.9504C16.8822 17.4264 16.6549 16.7746 16.6576 16.1034C16.6576 15.5824 17.2266 14.2744 16.6576 13.9904C16.0896 13.7064 15.8246 14.6254 15.6066 14.9384C15.2253 15.5714 14.6456 16.0608 13.9576 16.3304C13.4223 16.5116 12.8479 16.5439 12.2956 16.4237C11.7434 16.3036 11.2343 16.0356 10.8226 15.6484C10.5474 15.2568 10.3643 14.8079 10.2871 14.3355C10.2098 13.8631 10.2404 13.3793 10.3766 12.9204C10.3893 12.4529 10.348 11.9855 10.2536 11.5274C10.2536 10.8454 10.8506 11.0914 11.3336 11.1864C12.531 11.3997 13.6685 11.8683 14.6686 12.5604C15.6079 13.3407 16.7342 13.8628 17.9366 14.0754C18.7416 14.1514 19.5396 14.2874 20.3246 14.4834C20.7126 14.5974 21.0726 14.7864 21.4516 14.9194C21.8516 15.0494 22.2396 15.2164 22.6076 15.4214C22.8636 15.5344 23.2326 15.7614 23.0906 16.1314L23.0806 16.1694Z" fill="white"/>
</g>
<defs>
<clipPath id="clip0_1_5635">
<rect width="32" height="32" fill="white" transform="translate(0 0.034668)"/>
</clipPath>
</defs>
</svg>
