<svg width="32" height="33" viewBox="0 0 32 33" fill="none" xmlns="http://www.w3.org/2000/svg">
<g clip-path="url(#clip0_1_5628)">
<path d="M16 32.0347C24.8366 32.0347 32 24.8712 32 16.0347C32 7.19811 24.8366 0.034668 16 0.034668C7.16344 0.034668 0 7.19811 0 16.0347C0 24.8712 7.16344 32.0347 16 32.0347Z" fill="#49C1BF"/>
<path d="M9 7.31567L20.114 12.6987L22.959 11.4167L11.891 6.03467L9 7.31567Z" fill="white" fill-opacity="0.304"/>
<path d="M20 12.3157L22.845 11.0347V13.8997L20 15.1807V12.3157ZM20 25.5997V16.6627L22.845 15.3677V24.3187L20 25.5997Z" fill="white" fill-opacity="0.646"/>
<path d="M9 7.03467V9.93167L16.693 13.6687L9 17.4787V20.3347L20.114 25.7077V22.8337L12.566 19.1627L20.114 15.2817V12.4167L9 7.03467Z" fill="white"/>
</g>
<defs>
<clipPath id="clip0_1_5628">
<rect width="32" height="32" fill="white" transform="translate(0 0.034668)"/>
</clipPath>
</defs>
</svg>
