<svg width="32" height="33" viewBox="0 0 32 33" fill="none" xmlns="http://www.w3.org/2000/svg">
<g clip-path="url(#clip0_1_5624)">
<path d="M16 32.0347C24.8366 32.0347 32 24.8712 32 16.0347C32 7.19811 24.8366 0.034668 16 0.034668C7.16344 0.034668 0 7.19811 0 16.0347C0 24.8712 7.16344 32.0347 16 32.0347Z" fill="#00004D"/>
<path d="M15.5052 6.50867C15.4132 6.89867 15.1372 8.12867 15.0112 8.95267C14.9612 9.29067 14.7512 9.74167 15.3372 9.98467C15.2032 10.0107 15.1622 10.0277 15.1202 10.0187C14.7022 9.96667 14.2752 9.90667 13.8572 9.85467C13.7652 9.84567 13.6482 9.82867 13.5642 9.87167C13.0042 10.1667 12.7542 10.8687 13.0372 11.4667C13.1972 11.8047 13.2472 12.1167 13.1802 12.4727C13.1717 12.5649 13.189 12.6577 13.2302 12.7407C13.5562 13.5387 13.6152 14.3357 13.3552 15.1677C13.3132 15.2977 13.3392 15.4547 13.3472 15.5927C13.3642 15.8617 13.3802 16.1307 13.4052 16.3987C12.9952 16.0697 12.5452 15.7747 12.2012 15.3757C12.0302 15.1748 11.9008 14.9419 11.8204 14.6906C11.7401 14.4393 11.7105 14.1745 11.7332 13.9117C11.7412 13.8077 11.6582 13.6857 11.5912 13.5907C11.3982 13.3047 11.1732 13.0447 11.0142 12.7407C10.7882 12.3077 10.5122 12.1257 10.0602 12.2647C9.83523 12.3337 9.62523 12.4807 9.43323 12.6287C9.26623 12.7487 9.12323 12.9057 8.97323 13.0447C8.95623 13.0267 8.93123 13.0097 8.91523 12.9927C8.94023 12.9317 8.94823 12.8627 8.98223 12.8017C9.21623 12.3687 9.20723 12.3767 8.88223 12.0127C8.25423 11.3107 7.71023 10.5567 7.47623 9.60267C7.35923 9.12667 7.21623 8.65767 7.09223 8.18967C6.46423 8.96967 6.38123 11.7797 7.00023 12.8887C6.80723 11.9087 6.61523 10.9817 6.83223 10.0277C6.87423 10.2447 6.89923 10.4527 6.90823 10.6697C6.94123 11.4407 7.12523 12.1697 7.45123 12.8537C7.51823 13.0007 7.71123 13.0877 7.85323 13.1917C7.90323 13.2267 7.97023 13.2437 8.02823 13.2697C8.02023 13.3047 8.02023 13.3397 8.01123 13.3647C7.70223 13.3477 7.40123 13.3127 7.09123 13.3047C6.89123 13.2957 6.65723 13.2437 6.49823 13.3307C6.28823 13.4427 6.12123 13.6607 6.00423 13.8767C5.97123 13.9367 6.13823 14.1797 6.26423 14.2757C6.59823 14.5267 6.82423 14.8037 6.77423 15.2717C6.76523 15.3847 6.89123 15.5847 7.00023 15.6277C7.30023 15.7407 7.38423 15.9657 7.43423 16.2517C7.46823 16.4337 7.49323 16.6677 7.61023 16.7717C7.98623 17.1187 8.10323 17.5347 8.11223 18.0377C8.12023 18.3577 8.28723 18.6877 8.24623 18.9997C8.21223 19.2687 8.26223 19.4677 8.37123 19.6237H8.36323L8.38823 19.6497C8.45523 19.7537 8.54723 19.8397 8.65523 19.9187L8.87323 20.1267C8.87323 20.1267 9.24923 20.5337 9.25723 20.9327C9.26623 21.3317 9.23223 21.3827 9.34923 21.7387C9.46723 22.0857 9.62523 22.3627 9.67623 22.6577C9.72623 22.9527 9.61723 23.0387 9.79323 23.2297C9.96823 23.4197 10.1612 23.5497 10.3612 23.7677C10.5542 23.9927 10.8302 24.0707 11.0142 24.2617C11.1982 24.4517 11.4902 24.8077 11.7162 25.0327C11.8332 25.1547 11.9922 25.2497 12.1092 25.3187C12.1432 25.3537 12.1592 25.3707 12.1512 25.3887C11.9922 25.7347 12.3182 25.7267 12.4442 25.8387C12.6612 26.0297 12.9712 26.1507 13.1292 26.3847C13.4142 26.8097 13.7822 27.0267 14.2422 27.1567C14.2842 27.1657 14.3342 27.1737 14.3502 27.1997C14.4092 27.2697 14.4502 27.3557 14.5012 27.4337C14.4842 27.4597 14.4592 27.4857 14.4422 27.5117C14.9022 27.6767 15.3622 27.8497 15.8222 28.0057C15.9142 28.0407 16.0322 28.0407 16.1152 28.0157C16.5002 27.8857 16.8852 27.7457 17.2692 27.6077C17.3442 27.5817 17.4612 27.5037 17.4532 27.4687C17.3952 27.1917 17.6202 27.2347 17.7462 27.1657C18.0462 27.0007 18.3982 26.8797 18.6242 26.6457C18.9002 26.3507 19.1512 26.0467 19.5192 25.8477C19.6692 25.7607 19.9702 25.7267 19.8192 25.3977C19.8112 25.3797 19.8952 25.3107 19.9372 25.2677C19.9952 25.2147 20.0622 25.1717 20.1462 25.1027C20.2042 25.0767 20.2712 25.0327 20.3802 24.9547C20.7204 24.6753 21.0365 24.3679 21.3252 24.0357C21.5252 23.7847 21.8522 23.4727 21.8522 23.4727C21.8522 23.4727 21.6422 22.9787 21.7772 22.5447L22.4872 22.0167C22.6382 21.6957 22.6802 21.5737 22.8472 21.2447C23.0062 20.9147 23.0472 20.2827 23.2742 20.0307C23.4742 19.8147 23.7172 19.6407 23.7082 19.5027C23.7608 19.3554 23.7779 19.1978 23.7582 19.0427C23.7342 18.8177 23.8082 18.5827 23.8342 18.3577C23.8512 18.1677 23.8342 17.9767 23.8842 17.7947C23.9682 17.4997 24.0262 17.1537 24.2102 16.9447C24.4102 16.7197 24.5452 16.5207 24.5702 16.2167C24.5952 15.9567 24.6952 15.7487 24.9552 15.6267C25.0802 15.5667 25.2052 15.3587 25.2052 15.2197C25.1972 14.8297 25.3222 14.5527 25.6402 14.3447C25.7322 14.2847 25.8002 14.1797 25.8912 14.1107C26.0412 13.9977 26.0172 13.8677 25.9332 13.7207C25.7162 13.3307 25.3892 13.1917 24.9552 13.2707C24.6282 13.3307 24.1352 13.3647 23.9592 13.3647C23.7842 13.3647 23.9092 13.2347 23.9092 13.2347C24.5282 13.2177 24.6032 12.7067 24.7452 12.2907C24.8632 11.9437 24.9292 11.5797 24.9882 11.2157C25.0472 10.8687 25.0472 10.7037 25.1132 10.1657C25.1802 9.62867 25.3392 11.2067 25.0882 12.4987C25.5902 11.7357 25.4312 8.96967 24.8712 8.15567C24.8542 8.17267 24.8372 8.18167 24.8372 8.19867C24.8122 8.30267 24.7962 8.40667 24.7712 8.51067C24.5282 9.83667 24.0262 11.0247 23.0982 11.9957C22.7552 12.3507 22.7722 12.3597 23.0062 12.8187C23.0312 12.8627 23.0312 12.9227 23.0392 12.9837C22.8392 12.8887 22.6892 12.7497 22.5382 12.6197C22.4064 12.4923 22.2503 12.3929 22.0791 12.3275C21.908 12.262 21.7254 12.2318 21.5422 12.2387C21.1422 12.2387 21.0322 12.5327 20.9152 12.8187C20.6982 13.3387 20.1882 13.6597 20.1712 14.3537C20.1462 15.3677 19.2432 15.8787 18.6572 16.5547C18.6492 16.5647 18.6242 16.5467 18.5902 16.5467C18.5822 16.5117 18.5572 16.4687 18.5652 16.4337C18.5652 15.8097 18.7332 15.1767 18.4572 14.5787C18.4402 14.5437 18.4482 14.4917 18.4572 14.4577C18.5652 13.5817 18.6662 12.7147 18.7832 11.8477C18.7992 11.7357 18.8582 11.6317 18.9082 11.5277C19.2012 10.9037 18.9832 10.1927 18.3902 9.88067C18.317 9.84745 18.236 9.83533 18.1562 9.84567C17.8292 9.88867 17.5122 9.94967 17.1942 9.99267C17.0342 10.0187 16.8682 10.0187 16.7092 10.0277C16.7002 10.0017 16.6922 9.97567 16.6842 9.95767C16.9512 9.87167 17.0852 9.70767 17.0272 9.41267L16.4242 6.41267C16.4082 6.33467 16.3912 5.94467 16.4832 6.14467C16.5752 6.35267 16.8682 7.24467 17.0352 7.80867C17.1942 8.35467 17.3192 8.91867 17.4612 9.47267C17.2272 7.92167 16.8682 6.41267 15.9812 5.03467C15.7451 5.3305 15.5562 5.66108 15.4212 6.01467C15.206 6.64566 15.0053 7.28149 14.8192 7.92167C14.6772 8.41567 14.3092 9.38667 14.4682 9.41167C14.6262 9.43867 15.4042 6.52567 15.4542 6.31767C15.5042 6.10967 15.5972 6.11767 15.5042 6.50767L15.5052 6.50867Z" fill="white"/>
</g>
<defs>
<clipPath id="clip0_1_5624">
<rect width="32" height="32" fill="white" transform="translate(0 0.034668)"/>
</clipPath>
</defs>
</svg>
